<?xml version="1.0" encoding="UTF-8" standalone="no"?>
<!DOCTYPE svg PUBLIC "-//W3C//DTD SVG 1.1//EN"
 "http://www.w3.org/Graphics/SVG/1.1/DTD/svg11.dtd">
<!-- Generated by graphviz version 2.38.0 (20140413.2041)
 -->
<!-- Title: G Pages: 1 -->
<svg width="878pt" height="854pt"
 viewBox="0.00 0.00 878.45 854.00" xmlns="http://www.w3.org/2000/svg" xmlns:xlink="http://www.w3.org/1999/xlink">
<filter id = "dropshadow" height = "130%" ><feGaussianBlur in= "SourceAlpha" stdDeviation = "3"/><!--stdDeviation is how much to blur--><feOffset dx = "2" dy = "2" result = "offsetblur"/><!--how much to offset--><feMerge><feMergeNode/><!--this contains the offset blurred image--><feMergeNode in= "SourceGraphic"/><!--this contains the element that the filter is applied to --></feMerge></filter>
<g id="graph0" class="graph" transform="scale(1 1) rotate(0) translate(4 850)">
<title>G</title>
<g id="clust1" class="cluster"><title>clusterCommandCodeType</title>
<polygon fill="#4abdac" stroke="black" points="234.446,-349 234.446,-629 862.446,-629 862.446,-349 234.446,-349" style="filter: url(#dropshadow)"/>
<text text-anchor="middle" x="548.446" y="-618.6" font-family="Times New Roman,serif" font-size="8.00">CommandCodeType</text>
</g>
<!-- CommandCodeTypeProperties -->
<g id="ReusableTypeCommandCodeTypeProperties" class="node"><title></title><polygon fill="#f7b733" stroke="black" points="242.446,-445 242.446,-489 501.446,-489 501.446,-445 242.446,-445" style="filter: url(#dropshadow)"/>
<text text-anchor="middle" x="268.946" y="-465.1" font-family="Times New Roman,serif" font-size="8.00">Properties</text>
<polyline fill="none" stroke="black" points="295.446,-445 295.446,-489 "/>
<text text-anchor="start" x="303.446" y="-478.6" font-family="Times New Roman,serif" font-size="8.00">Description : StructuredStringType[0...1] </text>
<text text-anchor="start" x="303.446" y="-469.6" font-family="Times New Roman,serif" font-size="8.00">Command : CommandType[0...n] </text>
<text text-anchor="start" x="303.446" y="-460.6" font-family="Times New Roman,serif" font-size="8.00">CommandFile : CommandFileType[0...n] </text>
<text text-anchor="start" x="303.446" y="-451.6" font-family="Times New Roman,serif" font-size="8.00">StructuredCommand : StructuredCommandType[0...1] </text>
</g>
<!-- CommandCodeTypeStructuredStringType -->
<g id="ReusableTypeCommandCodeTypeStructuredStringType" class="node"><title></title><polygon fill="#fc4a1a" stroke="black" points="624.446,-358 624.446,-394 837.446,-394 837.446,-358 624.446,-358" style="filter: url(#dropshadow)"/>
<text text-anchor="middle" x="669.446" y="-374.1" font-family="Times New Roman,serif" font-size="8.00">StructuredStringType</text>
<polyline fill="none" stroke="black" points="714.446,-358 714.446,-394 "/>
<text text-anchor="start" x="722.446" y="-374.1" font-family="Times New Roman,serif" font-size="8.00">Content : ContentType[0...n] </text>
</g>
<!-- CommandCodeTypeProperties&#45;&gt;CommandCodeTypeStructuredStringType -->
<g id="edge1" class="edge"><title>CommandCodeTypeProperties&#45;&gt;CommandCodeTypeStructuredStringType</title>
<path fill="none" stroke="black" d="M451.991,-444.967C497.37,-432.518 555.489,-416.912 607.446,-404 620.89,-400.659 635.201,-397.252 649.123,-394.019"/>
<text text-anchor="middle" x="554.446" y="-428.6" font-family="Times New Roman,serif" font-size="8.00">Description</text>
</g>
<!-- CommandCodeTypeCommandType -->
<g id="ReusableTypeCommandCodeTypeCommandType" class="node"><title></title><polygon fill="#fc4a1a" stroke="black" points="613.446,-413.5 613.446,-466.5 848.446,-466.5 848.446,-413.5 613.446,-413.5" style="filter: url(#dropshadow)"/>
<text text-anchor="middle" x="648.946" y="-438.1" font-family="Times New Roman,serif" font-size="8.00">CommandType</text>
<polyline fill="none" stroke="black" points="684.446,-413.5 684.446,-466.5 "/>
<text text-anchor="start" x="692.446" y="-456.1" font-family="Times New Roman,serif" font-size="8.00">ProgramLanguage : CodeValueType[0...1] </text>
<text text-anchor="start" x="692.446" y="-447.1" font-family="Times New Roman,serif" font-size="8.00">InParameter : InParameterType[0...n] </text>
<text text-anchor="start" x="692.446" y="-438.1" font-family="Times New Roman,serif" font-size="8.00">OutParameter : ParameterType[0...n] </text>
<text text-anchor="start" x="692.446" y="-429.1" font-family="Times New Roman,serif" font-size="8.00">Binding : BindingType[0...n] </text>
<text text-anchor="start" x="692.446" y="-420.1" font-family="Times New Roman,serif" font-size="8.00">CommandContent : string[0...1] </text>
</g>
<!-- CommandCodeTypeProperties&#45;&gt;CommandCodeTypeCommandType -->
<g id="edge2" class="edge"><title>CommandCodeTypeProperties&#45;&gt;CommandCodeTypeCommandType</title>
<path fill="none" stroke="black" d="M501.579,-457.271C538.044,-454.514 577.529,-451.527 613.247,-448.826"/>
<text text-anchor="middle" x="554.446" y="-458.6" font-family="Times New Roman,serif" font-size="8.00">Command</text>
</g>
<!-- CommandCodeTypeCommandFileType -->
<g id="ReusableTypeCommandCodeTypeCommandFileType" class="node"><title></title><polygon fill="#fc4a1a" stroke="black" points="607.446,-486 607.446,-548 854.446,-548 854.446,-486 607.446,-486" style="filter: url(#dropshadow)"/>
<text text-anchor="middle" x="648.946" y="-515.1" font-family="Times New Roman,serif" font-size="8.00">CommandFileType</text>
<polyline fill="none" stroke="black" points="690.446,-486 690.446,-548 "/>
<text text-anchor="start" x="698.446" y="-537.6" font-family="Times New Roman,serif" font-size="8.00">ProgramLanguage : CodeValueType[0...1] </text>
<text text-anchor="start" x="698.446" y="-528.6" font-family="Times New Roman,serif" font-size="8.00">InParameter : InParameterType[0...n] </text>
<text text-anchor="start" x="698.446" y="-519.6" font-family="Times New Roman,serif" font-size="8.00">OutParameter : ParameterType[0...n] </text>
<text text-anchor="start" x="698.446" y="-510.6" font-family="Times New Roman,serif" font-size="8.00">Binding : BindingType[0...n] </text>
<text text-anchor="start" x="698.446" y="-501.6" font-family="Times New Roman,serif" font-size="8.00">Location : InternationalStringType[0...1] </text>
<text text-anchor="start" x="698.446" y="-492.6" font-family="Times New Roman,serif" font-size="8.00">URI : anyURI[0...1] </text>
</g>
<!-- CommandCodeTypeProperties&#45;&gt;CommandCodeTypeCommandFileType -->
<g id="edge3" class="edge"><title>CommandCodeTypeProperties&#45;&gt;CommandCodeTypeCommandFileType</title>
<path fill="none" stroke="black" d="M501.579,-485.016C536.046,-489.843 573.211,-495.048 607.342,-499.829"/>
<text text-anchor="middle" x="554.446" y="-499.6" font-family="Times New Roman,serif" font-size="8.00">CommandFile</text>
</g>
<!-- CommandCodeTypeStructuredCommandType -->
<g id="ReusableTypeCommandCodeTypeStructuredCommandType" class="node"><title></title><polygon fill="#fc4a1a" stroke="black" points="668.946,-567 668.946,-603 792.946,-603 792.946,-567 668.946,-567" style="filter: url(#dropshadow)"/>
<text text-anchor="middle" x="721.446" y="-583.1" font-family="Times New Roman,serif" font-size="8.00">StructuredCommandType</text>
<polyline fill="none" stroke="black" points="773.946,-567 773.946,-603 "/>
<text text-anchor="middle" x="783.446" y="-583.1" font-family="Times New Roman,serif" font-size="8.00"> </text>
</g>
<!-- CommandCodeTypeProperties&#45;&gt;CommandCodeTypeStructuredCommandType -->
<g id="edge4" class="edge"><title>CommandCodeTypeProperties&#45;&gt;CommandCodeTypeStructuredCommandType</title>
<path fill="none" stroke="black" d="M424.366,-489.161C471.392,-508.842 543.203,-537.438 607.446,-557 627.168,-563.005 649.022,-568.393 668.746,-572.8"/>
<text text-anchor="middle" x="554.446" y="-553.6" font-family="Times New Roman,serif" font-size="8.00">StructuredCommand</text>
</g>
<!-- ComputationItem -->
<g id="ItemTypeComputationItem" class="node"><title></title><ellipse fill="#f7b733" stroke="black" cx="56.7228" cy="-828" rx="44.6228" ry="18" style="filter: url(#dropshadow)"/>
<text text-anchor="middle" x="56.7228" y="-826.1" font-family="Times New Roman,serif" font-size="8.00">ComputationItem</text>
</g>
<!-- ComputationItem&#45;&gt;CommandCodeTypeProperties -->
<g id="edge5" class="edge"><title>ComputationItem&#45;&gt;CommandCodeTypeProperties</title>
<path fill="none" stroke="black" d="M100.687,-824.19C137.4,-818.888 189.652,-806.222 224.446,-776 269.042,-737.263 301.102,-681.96 323.635,-628.82"/>
<text text-anchor="middle" x="177.946" y="-821.6" font-family="Times New Roman,serif" font-size="8.00">CommandCode</text>
</g>
<!-- GeneralInstruction -->
<g id="ItemTypeGeneralInstruction" class="node"><title></title><ellipse fill="#f7b733" stroke="black" cx="56.7228" cy="-774" rx="45.891" ry="18" style="filter: url(#dropshadow)"/>
<text text-anchor="middle" x="56.7228" y="-772.1" font-family="Times New Roman,serif" font-size="8.00">GeneralInstruction</text>
</g>
<!-- GeneralInstruction&#45;&gt;CommandCodeTypeProperties -->
<g id="edge6" class="edge"><title>GeneralInstruction&#45;&gt;CommandCodeTypeProperties</title>
<path fill="none" stroke="black" d="M101.557,-769.583C137.827,-763.974 188.969,-751.335 224.446,-723 256.018,-697.784 282.045,-663.791 302.946,-628.828"/>
<text text-anchor="middle" x="177.946" y="-765.6" font-family="Times New Roman,serif" font-size="8.00">CommandCode</text>
</g>
<!-- GenerationInstruction -->
<g id="ItemTypeGenerationInstruction" class="node"><title></title><ellipse fill="#f7b733" stroke="black" cx="56.7228" cy="-720" rx="52.5056" ry="18" style="filter: url(#dropshadow)"/>
<text text-anchor="middle" x="56.7228" y="-718.1" font-family="Times New Roman,serif" font-size="8.00">GenerationInstruction</text>
</g>
<!-- GenerationInstruction&#45;&gt;CommandCodeTypeProperties -->
<g id="edge7" class="edge"><title>GenerationInstruction&#45;&gt;CommandCodeTypeProperties</title>
<path fill="none" stroke="black" d="M107.442,-714.851C142.724,-709.197 189.78,-697.42 224.446,-673 242.073,-660.583 258.33,-645.345 273.093,-628.825"/>
<text text-anchor="middle" x="177.946" y="-712.6" font-family="Times New Roman,serif" font-size="8.00">CommandCode</text>
</g>
<!-- IfThenElse -->
<g id="ItemTypeIfThenElse" class="node"><title></title><ellipse fill="#f7b733" stroke="black" cx="56.7228" cy="-666" rx="31.5313" ry="18" style="filter: url(#dropshadow)"/>
<text text-anchor="middle" x="56.7228" y="-664.1" font-family="Times New Roman,serif" font-size="8.00">IfThenElse</text>
</g>
<!-- IfThenElse&#45;&gt;CommandCodeTypeProperties -->
<g id="edge8" class="edge"><title>IfThenElse&#45;&gt;CommandCodeTypeProperties</title>
<path fill="none" stroke="black" d="M88.6542,-664.97C123.754,-662.574 181.67,-654.814 224.446,-630 227.904,-627.994 231.325,-625.878 234.706,-623.665"/>
<text text-anchor="middle" x="177.946" y="-662.6" font-family="Times New Roman,serif" font-size="8.00">IfCondition</text>
</g>
<!-- Loop -->
<g id="ItemTypeLoop0" class="node"><title></title><ellipse fill="#f7b733" stroke="black" cx="56.7228" cy="-612" rx="27" ry="18" style="filter: url(#dropshadow)"/>
<text text-anchor="middle" x="56.7228" y="-610.1" font-family="Times New Roman,serif" font-size="8.00">Loop</text>
</g>
<!-- Loop&#45;&gt;CommandCodeTypeProperties -->
<g id="edge9" class="edge"><title>Loop&#45;&gt;CommandCodeTypeProperties</title>
<path fill="none" stroke="black" d="M83.5023,-615.185C117.339,-618.265 177.893,-619.929 224.446,-600 227.878,-598.531 231.283,-596.946 234.656,-595.26"/>
<text text-anchor="middle" x="177.946" y="-619.6" font-family="Times New Roman,serif" font-size="8.00">InitialValue</text>
</g>
<!-- Loop&#45;&gt;CommandCodeTypeProperties -->
<g id="edge10" class="edge"><title>Loop&#45;&gt;CommandCodeTypeProperties</title>
<path fill="none" stroke="black" d="M81.9029,-604.881C96.2647,-600.711 114.855,-595.413 131.446,-591 172.593,-580.055 185.62,-585.479 224.446,-568 227.853,-566.466 231.266,-564.851 234.676,-563.167"/>
<text text-anchor="middle" x="177.946" y="-593.6" font-family="Times New Roman,serif" font-size="8.00">LoopWhile</text>
</g>
<!-- Loop&#45;&gt;CommandCodeTypeProperties -->
<g id="edge11" class="edge"><title>Loop&#45;&gt;CommandCodeTypeProperties</title>
<path fill="none" stroke="black" d="M80.9931,-603.885C91.6455,-599.416 103.975,-593.112 113.446,-585 124.12,-575.858 119.877,-566.98 131.446,-559 166.494,-534.823 184.323,-550.252 224.446,-536 227.885,-534.778 231.353,-533.503 234.837,-532.182"/>
<text text-anchor="middle" x="177.946" y="-561.6" font-family="Times New Roman,serif" font-size="8.00">StepValue</text>
</g>
<!-- RepeatUntil -->
<g id="ItemTypeRepeatUntil1" class="node"><title></title><ellipse fill="#f7b733" stroke="black" cx="56.7228" cy="-558" rx="33.433" ry="18" style="filter: url(#dropshadow)"/>
<text text-anchor="middle" x="56.7228" y="-556.1" font-family="Times New Roman,serif" font-size="8.00">RepeatUntil</text>
</g>
<!-- RepeatUntil&#45;&gt;CommandCodeTypeProperties -->
<g id="edge12" class="edge"><title>RepeatUntil&#45;&gt;CommandCodeTypeProperties</title>
<path fill="none" stroke="black" d="M82.602,-546.397C96.7218,-540.103 114.84,-532.507 131.446,-527 171.859,-513.596 183.138,-514.324 224.446,-504 227.748,-503.175 231.092,-502.338 234.465,-501.493"/>
<text text-anchor="middle" x="177.946" y="-529.6" font-family="Times New Roman,serif" font-size="8.00">UntilCondition</text>
</g>
<!-- RepeatWhile -->
<g id="ItemTypeRepeatWhile2" class="node"><title></title><ellipse fill="#f7b733" stroke="black" cx="56.7228" cy="-504" rx="35.3371" ry="18" style="filter: url(#dropshadow)"/>
<text text-anchor="middle" x="56.7228" y="-502.1" font-family="Times New Roman,serif" font-size="8.00">RepeatWhile</text>
</g>
<!-- RepeatWhile&#45;&gt;CommandCodeTypeProperties -->
<g id="edge13" class="edge"><title>RepeatWhile&#45;&gt;CommandCodeTypeProperties</title>
<path fill="none" stroke="black" d="M91.1151,-499.887C103.749,-498.34 118.258,-496.576 131.446,-495 164.873,-491.006 200.933,-486.758 234.673,-482.81"/>
<text text-anchor="middle" x="177.946" y="-497.6" font-family="Times New Roman,serif" font-size="8.00">WhileCondition</text>
</g>
<!-- Universe -->
<g id="ItemTypeUniverse3" class="node"><title></title><ellipse fill="#f7b733" stroke="black" cx="56.7228" cy="-450" rx="27" ry="18" style="filter: url(#dropshadow)"/>
<text text-anchor="middle" x="56.7228" y="-448.1" font-family="Times New Roman,serif" font-size="8.00">Universe</text>
</g>
<!-- Universe&#45;&gt;CommandCodeTypeProperties -->
<g id="edge14" class="edge"><title>Universe&#45;&gt;CommandCodeTypeProperties</title>
<path fill="none" stroke="black" d="M83.8893,-451.42C117.379,-453.238 177.883,-456.522 234.737,-459.607"/>
<text text-anchor="middle" x="177.946" y="-462.6" font-family="Times New Roman,serif" font-size="8.00">UniverseGenerationCode</text>
</g>
<!-- ConditionalTextType -->
<g id="ReusableTypeConditionalTextType4" class="node"><title></title><ellipse fill="#f7b733" stroke="black" cx="56.7228" cy="-396" rx="52.5056" ry="18" style="filter: url(#dropshadow)"/>
<text text-anchor="middle" x="56.7228" y="-394.1" font-family="Times New Roman,serif" font-size="8.00">ConditionalTextType</text>
</g>
<!-- ConditionalTextType&#45;&gt;CommandCodeTypeProperties -->
<g id="edge15" class="edge"><title>ConditionalTextType&#45;&gt;CommandCodeTypeProperties</title>
<path fill="none" stroke="black" d="M101.275,-405.872C136.032,-413.751 186.695,-425.235 234.75,-436.128"/>
<text text-anchor="middle" x="177.946" y="-436.6" font-family="Times New Roman,serif" font-size="8.00">Expression</text>
</g>
<!-- ElseIfTextType -->
<g id="ReusableTypeElseIfTextType5" class="node"><title></title><ellipse fill="#f7b733" stroke="black" cx="56.7228" cy="-342" rx="41.3155" ry="18" style="filter: url(#dropshadow)"/>
<text text-anchor="middle" x="56.7228" y="-340.1" font-family="Times New Roman,serif" font-size="8.00">ElseIfTextType</text>
</g>
<!-- ElseIfTextType&#45;&gt;CommandCodeTypeProperties -->
<g id="edge16" class="edge"><title>ElseIfTextType&#45;&gt;CommandCodeTypeProperties</title>
<path fill="none" stroke="black" d="M90.2936,-352.632C124.118,-363.882 178.428,-382.529 224.446,-401 227.89,-402.383 231.372,-403.8 234.879,-405.244"/>
<text text-anchor="middle" x="177.946" y="-403.6" font-family="Times New Roman,serif" font-size="8.00">IfCondition</text>
</g>
<!-- ElseIfType -->
<g id="ReusableTypeElseIfType6" class="node"><title></title><ellipse fill="#f7b733" stroke="black" cx="56.7228" cy="-288" rx="31.5313" ry="18" style="filter: url(#dropshadow)"/>
<text text-anchor="middle" x="56.7228" y="-286.1" font-family="Times New Roman,serif" font-size="8.00">ElseIfType</text>
</g>
<!-- ElseIfType&#45;&gt;CommandCodeTypeProperties -->
<g id="edge17" class="edge"><title>ElseIfType&#45;&gt;CommandCodeTypeProperties</title>
<path fill="none" stroke="black" d="M85.028,-296.431C118.927,-307.461 177.95,-328.537 224.446,-355 227.874,-356.951 231.311,-358.974 234.749,-361.057"/>
<text text-anchor="middle" x="177.946" y="-357.6" font-family="Times New Roman,serif" font-size="8.00">IfCondition</text>
</g>
<!-- GenerationType -->
<g id="ReusableTypeGenerationType7" class="node"><title></title><ellipse fill="#f7b733" stroke="black" cx="56.7228" cy="-234" rx="41.9498" ry="18" style="filter: url(#dropshadow)"/>
<text text-anchor="middle" x="56.7228" y="-232.1" font-family="Times New Roman,serif" font-size="8.00">GenerationType</text>
</g>
<!-- GenerationType&#45;&gt;CommandCodeTypeProperties -->
<g id="edge18" class="edge"><title>GenerationType&#45;&gt;CommandCodeTypeProperties</title>
<path fill="none" stroke="black" d="M93.631,-242.873C129.126,-252.818 183.857,-271.4 224.446,-300 244.327,-314.009 263.304,-331.25 280.614,-349.28"/>
<text text-anchor="middle" x="177.946" y="-302.6" font-family="Times New Roman,serif" font-size="8.00">CommandCode</text>
</g>
<!-- IfThenElseTextType -->
<g id="ReusableTypeIfThenElseTextType8" class="node"><title></title><ellipse fill="#f7b733" stroke="black" cx="56.7228" cy="-180" rx="52.3706" ry="18" style="filter: url(#dropshadow)"/>
<text text-anchor="middle" x="56.7228" y="-178.1" font-family="Times New Roman,serif" font-size="8.00">IfThenElseTextType</text>
</g>
<!-- IfThenElseTextType&#45;&gt;CommandCodeTypeProperties -->
<g id="edge19" class="edge"><title>IfThenElseTextType&#45;&gt;CommandCodeTypeProperties</title>
<path fill="none" stroke="black" d="M102.638,-188.87C138.591,-197.754 188.735,-214.331 224.446,-243 260.004,-271.546 289.828,-311.122 313.089,-349.077"/>
<text text-anchor="middle" x="177.946" y="-245.6" font-family="Times New Roman,serif" font-size="8.00">IfCondition</text>
</g>
<!-- RestrictionProcessType -->
<g id="ReusableTypeRestrictionProcessType9" class="node"><title></title><ellipse fill="#f7b733" stroke="black" cx="56.7228" cy="-126" rx="56.9465" ry="18" style="filter: url(#dropshadow)"/>
<text text-anchor="middle" x="56.7228" y="-124.1" font-family="Times New Roman,serif" font-size="8.00">RestrictionProcessType</text>
</g>
<!-- RestrictionProcessType&#45;&gt;CommandCodeTypeProperties -->
<g id="edge20" class="edge"><title>RestrictionProcessType&#45;&gt;CommandCodeTypeProperties</title>
<path fill="none" stroke="black" d="M108.272,-133.738C144.186,-141.468 191.665,-156.487 224.446,-185 274.33,-228.392 309.615,-292.955 333.036,-349.359"/>
<text text-anchor="middle" x="177.946" y="-187.6" font-family="Times New Roman,serif" font-size="8.00">CommandCode</text>
</g>
<!-- RosterType -->
<g id="ReusableTypeRosterType0" class="node"><title></title><ellipse fill="#f7b733" stroke="black" cx="56.7228" cy="-72" rx="32.7988" ry="18" style="filter: url(#dropshadow)"/>
<text text-anchor="middle" x="56.7228" y="-70.1" font-family="Times New Roman,serif" font-size="8.00">RosterType</text>
</g>
<!-- RosterType&#45;&gt;CommandCodeTypeProperties -->
<g id="edge21" class="edge"><title>RosterType&#45;&gt;CommandCodeTypeProperties</title>
<path fill="none" stroke="black" d="M89.5641,-74.7296C126.321,-79.4659 186.565,-92.3209 224.446,-127 288.234,-185.396 325.439,-276.331 346.383,-349.468"/>
<text text-anchor="middle" x="177.946" y="-129.6" font-family="Times New Roman,serif" font-size="8.00">ConditionForContinuation</text>
</g>
<!-- SpecificSequenceType -->
<g id="ReusableTypeSpecificSequenceType1" class="node"><title></title><ellipse fill="#f7b733" stroke="black" cx="56.7228" cy="-18" rx="52.5056" ry="18" style="filter: url(#dropshadow)"/>
<text text-anchor="middle" x="56.7228" y="-16.1" font-family="Times New Roman,serif" font-size="8.00">SpecificSequenceType</text>
</g>
<!-- SpecificSequenceType&#45;&gt;CommandCodeTypeProperties -->
<g id="edge22" class="edge"><title>SpecificSequenceType&#45;&gt;CommandCodeTypeProperties</title>
<path fill="none" stroke="black" d="M108.509,-22.0516C145.012,-27.4994 193.122,-40.2404 224.446,-70 301.671,-143.37 338.413,-260.982 355.758,-349.183"/>
<text text-anchor="middle" x="177.946" y="-72.6" font-family="Times New Roman,serif" font-size="8.00">AlternateSequenceType</text>
</g>
</g>
</svg>
