<?xml version="1.0" encoding="UTF-8" standalone="no"?>
<!DOCTYPE svg PUBLIC "-//W3C//DTD SVG 1.1//EN"
 "http://www.w3.org/Graphics/SVG/1.1/DTD/svg11.dtd">
<!-- Generated by graphviz version 2.38.0 (20140413.2041)
 -->
<!-- Title: G Pages: 1 -->
<svg width="526pt" height="368pt"
 viewBox="0.00 0.00 525.67 368.00" xmlns="http://www.w3.org/2000/svg" xmlns:xlink="http://www.w3.org/1999/xlink">
<filter id = "dropshadow" height = "130%" ><feGaussianBlur in= "SourceAlpha" stdDeviation = "3"/><!--stdDeviation is how much to blur--><feOffset dx = "2" dy = "2" result = "offsetblur"/><!--how much to offset--><feMerge><feMergeNode/><!--this contains the offset blurred image--><feMergeNode in= "SourceGraphic"/><!--this contains the element that the filter is applied to --></feMerge></filter>
<g id="graph0" class="graph" transform="scale(1 1) rotate(0) translate(4 364)">
<title>G</title>
<!-- Maintainable -->
<g id="ItemTypeMaintainable" class="node"><title></title><polygon fill="#f7b733" stroke="black" points="330.673,-152 330.673,-188 517.673,-188 517.673,-152 330.673,-152" style="filter: url(#dropshadow)"/>
<text text-anchor="middle" x="361.673" y="-168.1" font-family="Times New Roman,serif" font-size="8.00">Maintainable</text>
<polyline fill="none" stroke="black" points="392.673,-152 392.673,-188 "/>
<text text-anchor="start" x="400.673" y="-168.1" font-family="Times New Roman,serif" font-size="8.00">IsMaintainable : boolean[0...1] </text>
</g>
<!-- DevelopmentPlan -->
<g id="ItemTypeDevelopmentPlan" class="node"><title></title><ellipse fill="#f7b733" stroke="black" cx="70.3363" cy="-342" rx="45.2568" ry="18" style="filter: url(#dropshadow)"/>
<text text-anchor="middle" x="70.3363" y="-340.1" font-family="Times New Roman,serif" font-size="8.00">DevelopmentPlan</text>
</g>
<!-- DevelopmentPlan&#45;&gt;Maintainable -->
<g id="edge1" class="edge"><title>DevelopmentPlan&#45;&gt;Maintainable</title>
<path fill="none" stroke="black" d="M115.513,-339.626C166.142,-335.232 250.172,-322.704 312.673,-287 356.341,-262.054 393.23,-214.345 411.284,-188.217"/>
<text text-anchor="middle" x="235.673" y="-336.6" font-family="Times New Roman,serif" font-size="8.00">DevelopmentObjectReference_Maintainable</text>
</g>
<!-- BasedOnObjectType -->
<g id="ReusableTypeBasedOnObjectType" class="node"><title></title><ellipse fill="#f7b733" stroke="black" cx="70.3363" cy="-288" rx="49.8323" ry="18" style="filter: url(#dropshadow)"/>
<text text-anchor="middle" x="70.3363" y="-286.1" font-family="Times New Roman,serif" font-size="8.00">BasedOnObjectType</text>
</g>
<!-- BasedOnObjectType&#45;&gt;Maintainable -->
<g id="edge2" class="edge"><title>BasedOnObjectType&#45;&gt;Maintainable</title>
<path fill="none" stroke="black" d="M117.446,-281.627C166.913,-273.848 247.195,-258.481 312.673,-233 342.925,-221.227 374.869,-202.202 396.587,-188.135"/>
<text text-anchor="middle" x="235.673" y="-276.6" font-family="Times New Roman,serif" font-size="8.00">BasedOnReference_Maintainable</text>
</g>
<!-- DevelopmentProcessStepType -->
<g id="ReusableTypeDevelopmentProcessStepType" class="node"><title></title><ellipse fill="#f7b733" stroke="black" cx="70.3363" cy="-234" rx="70.173" ry="18" style="filter: url(#dropshadow)"/>
<text text-anchor="middle" x="70.3363" y="-232.1" font-family="Times New Roman,serif" font-size="8.00">DevelopmentProcessStepType</text>
</g>
<!-- DevelopmentProcessStepType&#45;&gt;Maintainable -->
<g id="edge3" class="edge"><title>DevelopmentProcessStepType&#45;&gt;Maintainable</title>
<path fill="none" stroke="black" d="M132.022,-225.263C180.938,-217.964 251.421,-206.866 312.673,-195 323.583,-192.886 335.059,-190.488 346.321,-188.034"/>
<text text-anchor="middle" x="235.673" y="-222.6" font-family="Times New Roman,serif" font-size="8.00">DevelopmentObjectReference_Maintainable</text>
</g>
<!-- ItemMapType -->
<g id="ReusableTypeItemMapType" class="node"><title></title><ellipse fill="#f7b733" stroke="black" cx="70.3363" cy="-180" rx="38.6432" ry="18" style="filter: url(#dropshadow)"/>
<text text-anchor="middle" x="70.3363" y="-178.1" font-family="Times New Roman,serif" font-size="8.00">ItemMapType</text>
</g>
<!-- ItemMapType&#45;&gt;Maintainable -->
<g id="edge4" class="edge"><title>ItemMapType&#45;&gt;Maintainable</title>
<path fill="none" stroke="black" d="M108.982,-181.05C156.485,-182.133 240.68,-183.251 312.673,-180 318.542,-179.735 324.581,-179.391 330.666,-178.991"/>
<text text-anchor="middle" x="235.673" y="-184.6" font-family="Times New Roman,serif" font-size="8.00">SourceItemReference_Maintainable</text>
</g>
<!-- ItemMapType&#45;&gt;Maintainable -->
<g id="edge5" class="edge"><title>ItemMapType&#45;&gt;Maintainable</title>
<path fill="none" stroke="black" d="M107.817,-175.428C123.45,-173.679 141.929,-171.892 158.673,-171 215.648,-167.964 279.624,-167.64 330.384,-168.11"/>
<text text-anchor="middle" x="235.673" y="-173.6" font-family="Times New Roman,serif" font-size="8.00">TargetItemReference_Maintainable</text>
</g>
<!-- LinkingMapType -->
<g id="ReusableTypeLinkingMapType" class="node"><title></title><ellipse fill="#f7b733" stroke="black" cx="70.3363" cy="-126" rx="44.4889" ry="18" style="filter: url(#dropshadow)"/>
<text text-anchor="middle" x="70.3363" y="-124.1" font-family="Times New Roman,serif" font-size="8.00">LinkingMapType</text>
</g>
<!-- LinkingMapType&#45;&gt;Maintainable -->
<g id="edge6" class="edge"><title>LinkingMapType&#45;&gt;Maintainable</title>
<path fill="none" stroke="black" d="M113.235,-130.497C161.405,-135.752 242.824,-144.893 312.673,-154 318.535,-154.764 324.569,-155.574 330.651,-156.406"/>
<text text-anchor="middle" x="235.673" y="-156.6" font-family="Times New Roman,serif" font-size="8.00">LocalObjectReference_Maintainable</text>
</g>
<!-- LinkingMapType&#45;&gt;Maintainable -->
<g id="edge7" class="edge"><title>LinkingMapType&#45;&gt;Maintainable</title>
<path fill="none" stroke="black" d="M112.399,-120.246C160.826,-114.66 243.49,-108.898 312.673,-123 340.045,-128.579 369.038,-141.195 390.454,-151.953"/>
<text text-anchor="middle" x="235.673" y="-125.6" font-family="Times New Roman,serif" font-size="8.00">DepositoryObjectReference_Maintainable</text>
</g>
<!-- RelationshipType -->
<g id="ReusableTypeRelationshipType" class="node"><title></title><ellipse fill="#f7b733" stroke="black" cx="70.3363" cy="-72" rx="44.6228" ry="18" style="filter: url(#dropshadow)"/>
<text text-anchor="middle" x="70.3363" y="-70.1" font-family="Times New Roman,serif" font-size="8.00">RelationshipType</text>
</g>
<!-- RelationshipType&#45;&gt;Maintainable -->
<g id="edge8" class="edge"><title>RelationshipType&#45;&gt;Maintainable</title>
<path fill="none" stroke="black" d="M115.351,-71.5976C164.744,-72.4318 246.605,-77.7117 312.673,-101 345.735,-112.654 379.269,-135.491 400.584,-151.696"/>
<text text-anchor="middle" x="235.673" y="-103.6" font-family="Times New Roman,serif" font-size="8.00">RelatedToReference_Maintainable</text>
</g>
<!-- ResourceUsedType -->
<g id="ReusableTypeResourceUsedType" class="node"><title></title><ellipse fill="#f7b733" stroke="black" cx="70.3363" cy="-18" rx="47.16" ry="18" style="filter: url(#dropshadow)"/>
<text text-anchor="middle" x="70.3363" y="-16.1" font-family="Times New Roman,serif" font-size="8.00">ResourceUsedType</text>
</g>
<!-- ResourceUsedType&#45;&gt;Maintainable -->
<g id="edge9" class="edge"><title>ResourceUsedType&#45;&gt;Maintainable</title>
<path fill="none" stroke="black" d="M117.518,-17.9185C168.114,-19.6162 250.357,-27.7382 312.673,-60 355.461,-82.1522 392.169,-126.68 410.566,-151.757"/>
<text text-anchor="middle" x="235.673" y="-62.6" font-family="Times New Roman,serif" font-size="8.00">ResourceObjectReference_Maintainable</text>
</g>
</g>
</svg>
