<?xml version="1.0" encoding="UTF-8" standalone="no"?>
<!DOCTYPE svg PUBLIC "-//W3C//DTD SVG 1.1//EN"
 "http://www.w3.org/Graphics/SVG/1.1/DTD/svg11.dtd">
<!-- Generated by graphviz version 2.38.0 (20140413.2041)
 -->
<!-- Title: G Pages: 1 -->
<svg width="1055pt" height="1394pt"
 viewBox="0.00 0.00 1055.30 1394.00" xmlns="http://www.w3.org/2000/svg" xmlns:xlink="http://www.w3.org/1999/xlink">
<filter id = "dropshadow" height = "130%" ><feGaussianBlur in= "SourceAlpha" stdDeviation = "3"/><!--stdDeviation is how much to blur--><feOffset dx = "2" dy = "2" result = "offsetblur"/><!--how much to offset--><feMerge><feMergeNode/><!--this contains the offset blurred image--><feMergeNode in= "SourceGraphic"/><!--this contains the element that the filter is applied to --></feMerge></filter>
<g id="graph0" class="graph" transform="scale(1 1) rotate(0) translate(4 1390)">
<title>G</title>
<g id="clust1" class="cluster"><title>clusterParameterType</title>
<polygon fill="#4abdac" stroke="black" points="293.303,-597 293.303,-914 1039.3,-914 1039.3,-597 293.303,-597" style="filter: url(#dropshadow)"/>
<text text-anchor="middle" x="666.303" y="-903.6" font-family="Times New Roman,serif" font-size="8.00">ParameterType</text>
</g>
<!-- ParameterTypeProperties -->
<g id="ReusableTypeParameterTypeProperties" class="node"><title></title><polygon fill="#f7b733" stroke="black" points="301.303,-711.5 301.303,-782.5 613.303,-782.5 613.303,-711.5 301.303,-711.5" style="filter: url(#dropshadow)"/>
<text text-anchor="middle" x="327.803" y="-745.1" font-family="Times New Roman,serif" font-size="8.00">Properties</text>
<polyline fill="none" stroke="black" points="354.303,-711.5 354.303,-782.5 "/>
<text text-anchor="start" x="362.303" y="-772.1" font-family="Times New Roman,serif" font-size="8.00">ParameterName : NameType[0...n] </text>
<text text-anchor="start" x="362.303" y="-763.1" font-family="Times New Roman,serif" font-size="8.00">Alias : string[0...1] </text>
<text text-anchor="start" x="362.303" y="-754.1" font-family="Times New Roman,serif" font-size="8.00">Description : StructuredStringType[0...1] </text>
<text text-anchor="start" x="362.303" y="-745.1" font-family="Times New Roman,serif" font-size="8.00">ValueRepresentation : RepresentationType[0...1] </text>
<text text-anchor="start" x="362.303" y="-736.1" font-family="Times New Roman,serif" font-size="8.00">ValueRepresentationReference : RepresentationReferenceType[0...1] </text>
<text text-anchor="start" x="362.303" y="-727.1" font-family="Times New Roman,serif" font-size="8.00">DefaultValue : ValueType[0...1] </text>
<text text-anchor="start" x="362.303" y="-718.1" font-family="Times New Roman,serif" font-size="8.00">IsArray : boolean[0...1] </text>
</g>
<!-- ParameterTypeNameType -->
<g id="ReusableTypeParameterTypeNameType" class="node"><title></title><polygon fill="#fc4a1a" stroke="black" points="808.803,-606 808.803,-642 977.803,-642 977.803,-606 808.803,-606" style="filter: url(#dropshadow)"/>
<text text-anchor="middle" x="836.803" y="-622.1" font-family="Times New Roman,serif" font-size="8.00">NameType</text>
<polyline fill="none" stroke="black" points="864.803,-606 864.803,-642 "/>
<text text-anchor="start" x="872.803" y="-626.6" font-family="Times New Roman,serif" font-size="8.00">IsPreferred : boolean[0...1] </text>
<text text-anchor="start" x="872.803" y="-617.6" font-family="Times New Roman,serif" font-size="8.00">Context : string[0...1] </text>
</g>
<!-- ParameterTypeProperties&#45;&gt;ParameterTypeNameType -->
<g id="edge1" class="edge"><title>ParameterTypeProperties&#45;&gt;ParameterTypeNameType</title>
<path fill="none" stroke="black" d="M558.134,-711.475C615.359,-691.935 688.815,-668.233 755.303,-651 772.434,-646.56 790.935,-642.457 808.631,-638.859"/>
<text text-anchor="middle" x="684.303" y="-690.6" font-family="Times New Roman,serif" font-size="8.00">ParameterName</text>
</g>
<!-- ParameterTypeStructuredStringType -->
<g id="ReusableTypeParameterTypeStructuredStringType" class="node"><title></title><polygon fill="#fc4a1a" stroke="black" points="786.803,-661 786.803,-697 999.803,-697 999.803,-661 786.803,-661" style="filter: url(#dropshadow)"/>
<text text-anchor="middle" x="831.803" y="-677.1" font-family="Times New Roman,serif" font-size="8.00">StructuredStringType</text>
<polyline fill="none" stroke="black" points="876.803,-661 876.803,-697 "/>
<text text-anchor="start" x="884.803" y="-677.1" font-family="Times New Roman,serif" font-size="8.00">Content : ContentType[0...n] </text>
</g>
<!-- ParameterTypeProperties&#45;&gt;ParameterTypeStructuredStringType -->
<g id="edge2" class="edge"><title>ParameterTypeProperties&#45;&gt;ParameterTypeStructuredStringType</title>
<path fill="none" stroke="black" d="M613.455,-722.69C670.881,-713.693 734.612,-703.707 786.635,-695.556"/>
<text text-anchor="middle" x="684.303" y="-722.6" font-family="Times New Roman,serif" font-size="8.00">Description</text>
</g>
<!-- ParameterTypeRepresentationType -->
<g id="ReusableTypeParameterTypeRepresentationType" class="node"><title></title><polygon fill="#fc4a1a" stroke="black" points="755.303,-716 755.303,-778 1031.3,-778 1031.3,-716 755.303,-716" style="filter: url(#dropshadow)"/>
<text text-anchor="middle" x="799.303" y="-745.1" font-family="Times New Roman,serif" font-size="8.00">RepresentationType</text>
<polyline fill="none" stroke="black" points="843.303,-716 843.303,-778 "/>
<text text-anchor="start" x="851.303" y="-767.6" font-family="Times New Roman,serif" font-size="8.00">RecommendedDataType : CodeValueType[0...1] </text>
<text text-anchor="start" x="851.303" y="-758.6" font-family="Times New Roman,serif" font-size="8.00">GenericOutputFormat : CodeValueType[0...1] </text>
<text text-anchor="start" x="851.303" y="-749.6" font-family="Times New Roman,serif" font-size="8.00">MeasurementUnit : CodeValueType[0...1] </text>
<text text-anchor="start" x="851.303" y="-740.6" font-family="Times New Roman,serif" font-size="8.00">MissingValue : string[0...1] </text>
<text text-anchor="start" x="851.303" y="-731.6" font-family="Times New Roman,serif" font-size="8.00">BlankIsMissingValue : boolean[0...1] </text>
<text text-anchor="start" x="851.303" y="-722.6" font-family="Times New Roman,serif" font-size="8.00">ClassificationLevel : string[0...1] </text>
</g>
<!-- ParameterTypeProperties&#45;&gt;ParameterTypeRepresentationType -->
<g id="edge3" class="edge"><title>ParameterTypeProperties&#45;&gt;ParameterTypeRepresentationType</title>
<path fill="none" stroke="black" d="M613.455,-747C659.688,-747 710.007,-747 755.014,-747"/>
<text text-anchor="middle" x="684.303" y="-749.6" font-family="Times New Roman,serif" font-size="8.00">ValueRepresentation</text>
</g>
<!-- ParameterTypeRepresentationReferenceType -->
<g id="ReusableTypeParameterTypeRepresentationReferenceType" class="node"><title></title><polygon fill="#fc4a1a" stroke="black" points="759.303,-797 759.303,-833 1027.3,-833 1027.3,-797 759.303,-797" style="filter: url(#dropshadow)"/>
<text text-anchor="middle" x="820.303" y="-813.1" font-family="Times New Roman,serif" font-size="8.00">RepresentationReferenceType</text>
<polyline fill="none" stroke="black" points="881.303,-797 881.303,-833 "/>
<text text-anchor="start" x="889.303" y="-817.6" font-family="Times New Roman,serif" font-size="8.00">MissingValue : string[0...1] </text>
<text text-anchor="start" x="889.303" y="-808.6" font-family="Times New Roman,serif" font-size="8.00">BlankIsMissingValue : boolean[0...1] </text>
</g>
<!-- ParameterTypeProperties&#45;&gt;ParameterTypeRepresentationReferenceType -->
<g id="edge4" class="edge"><title>ParameterTypeProperties&#45;&gt;ParameterTypeRepresentationReferenceType</title>
<path fill="none" stroke="black" d="M613.455,-771.31C667.474,-779.773 727.073,-789.111 777.257,-796.974"/>
<text text-anchor="middle" x="684.303" y="-792.6" font-family="Times New Roman,serif" font-size="8.00">ValueRepresentationReference</text>
</g>
<!-- ParameterTypeValueType -->
<g id="ReusableTypeParameterTypeValueType" class="node"><title></title><polygon fill="#fc4a1a" stroke="black" points="856.803,-852 856.803,-888 929.803,-888 929.803,-852 856.803,-852" style="filter: url(#dropshadow)"/>
<text text-anchor="middle" x="883.803" y="-868.1" font-family="Times New Roman,serif" font-size="8.00">ValueType</text>
<polyline fill="none" stroke="black" points="910.803,-852 910.803,-888 "/>
<text text-anchor="middle" x="920.303" y="-868.1" font-family="Times New Roman,serif" font-size="8.00"> </text>
</g>
<!-- ParameterTypeProperties&#45;&gt;ParameterTypeValueType -->
<g id="edge5" class="edge"><title>ParameterTypeProperties&#45;&gt;ParameterTypeValueType</title>
<path fill="none" stroke="black" d="M559.535,-782.511C616.576,-801.727 689.397,-824.949 755.303,-842 789.382,-850.817 828.807,-858.629 856.59,-863.745"/>
<text text-anchor="middle" x="684.303" y="-838.6" font-family="Times New Roman,serif" font-size="8.00">DefaultValue</text>
</g>
<!-- ComputationItem -->
<g id="ItemTypeComputationItem" class="node"><title></title><ellipse fill="#f7b733" stroke="black" cx="85.6514" cy="-1368" rx="44.6228" ry="18" style="filter: url(#dropshadow)"/>
<text text-anchor="middle" x="85.6514" y="-1366.1" font-family="Times New Roman,serif" font-size="8.00">ComputationItem</text>
</g>
<!-- ComputationItem&#45;&gt;ParameterTypeProperties -->
<g id="edge6" class="edge"><title>ComputationItem&#45;&gt;ParameterTypeProperties</title>
<path fill="none" stroke="black" d="M130.386,-1369.67C174.569,-1368.93 242.031,-1360.77 283.303,-1322 395.091,-1216.99 435.528,-1042.75 449.703,-913.553"/>
<text text-anchor="middle" x="236.303" y="-1366.6" font-family="Times New Roman,serif" font-size="8.00">AssignedVariableReference</text>
</g>
<!-- ControlConstruct -->
<g id="ItemTypeControlConstruct" class="node"><title></title><ellipse fill="#f7b733" stroke="black" cx="85.6514" cy="-1314" rx="43.8539" ry="18" style="filter: url(#dropshadow)"/>
<text text-anchor="middle" x="85.6514" y="-1312.1" font-family="Times New Roman,serif" font-size="8.00">ControlConstruct</text>
</g>
<!-- ControlConstruct&#45;&gt;ParameterTypeProperties -->
<g id="edge7" class="edge"><title>ControlConstruct&#45;&gt;ParameterTypeProperties</title>
<path fill="none" stroke="black" d="M129.362,-1315.2C173.356,-1314.1 241.261,-1305.55 283.303,-1267 381.845,-1176.64 424.331,-1028.79 442.609,-913.802"/>
<text text-anchor="middle" x="236.303" y="-1311.6" font-family="Times New Roman,serif" font-size="8.00">OutParameter</text>
</g>
<!-- Loop -->
<g id="ItemTypeLoop" class="node"><title></title><ellipse fill="#f7b733" stroke="black" cx="85.6514" cy="-1260" rx="27" ry="18" style="filter: url(#dropshadow)"/>
<text text-anchor="middle" x="85.6514" y="-1258.1" font-family="Times New Roman,serif" font-size="8.00">Loop</text>
</g>
<!-- Loop&#45;&gt;ParameterTypeProperties -->
<g id="edge8" class="edge"><title>Loop&#45;&gt;ParameterTypeProperties</title>
<path fill="none" stroke="black" d="M112.766,-1260.94C154.098,-1261 234.857,-1255.09 283.303,-1212 368.715,-1136.02 412.064,-1013.85 434.007,-913.794"/>
<text text-anchor="middle" x="236.303" y="-1256.6" font-family="Times New Roman,serif" font-size="8.00">LoopVariableReference</text>
</g>
<!-- MeasurementItem -->
<g id="ItemTypeMeasurementItem0" class="node"><title></title><ellipse fill="#f7b733" stroke="black" cx="85.6514" cy="-1206" rx="45.2568" ry="18" style="filter: url(#dropshadow)"/>
<text text-anchor="middle" x="85.6514" y="-1204.1" font-family="Times New Roman,serif" font-size="8.00">MeasurementItem</text>
</g>
<!-- MeasurementItem&#45;&gt;ParameterTypeProperties -->
<g id="edge9" class="edge"><title>MeasurementItem&#45;&gt;ParameterTypeProperties</title>
<path fill="none" stroke="black" d="M131.238,-1205.92C174.821,-1203.53 240.665,-1193.49 283.303,-1157 355.618,-1095.11 398.397,-997.834 423.32,-913.562"/>
<text text-anchor="middle" x="236.303" y="-1201.6" font-family="Times New Roman,serif" font-size="8.00">OutParameter</text>
</g>
<!-- QuestionBlock -->
<g id="ItemTypeQuestionBlock1" class="node"><title></title><ellipse fill="#f7b733" stroke="black" cx="85.6514" cy="-1152" rx="38.6432" ry="18" style="filter: url(#dropshadow)"/>
<text text-anchor="middle" x="85.6514" y="-1150.1" font-family="Times New Roman,serif" font-size="8.00">QuestionBlock</text>
</g>
<!-- QuestionBlock&#45;&gt;ParameterTypeProperties -->
<g id="edge10" class="edge"><title>QuestionBlock&#45;&gt;ParameterTypeProperties</title>
<path fill="none" stroke="black" d="M124.49,-1152.02C167.455,-1150.12 237.512,-1140.99 283.303,-1104 342.986,-1055.79 383.486,-981.935 410.196,-913.885"/>
<text text-anchor="middle" x="236.303" y="-1146.6" font-family="Times New Roman,serif" font-size="8.00">OutParameter</text>
</g>
<!-- QuestionGrid -->
<g id="ItemTypeQuestionGrid2" class="node"><title></title><ellipse fill="#f7b733" stroke="black" cx="85.6514" cy="-1098" rx="35.3371" ry="18" style="filter: url(#dropshadow)"/>
<text text-anchor="middle" x="85.6514" y="-1096.1" font-family="Times New Roman,serif" font-size="8.00">QuestionGrid</text>
</g>
<!-- QuestionGrid&#45;&gt;ParameterTypeProperties -->
<g id="edge11" class="edge"><title>QuestionGrid&#45;&gt;ParameterTypeProperties</title>
<path fill="none" stroke="black" d="M121.044,-1098.26C163.256,-1096.89 235.146,-1088.9 283.303,-1053 330.759,-1017.62 367.089,-965.127 393.911,-913.563"/>
<text text-anchor="middle" x="236.303" y="-1093.6" font-family="Times New Roman,serif" font-size="8.00">OutParameter</text>
</g>
<!-- QuestionItem -->
<g id="ItemTypeQuestionItem3" class="node"><title></title><ellipse fill="#f7b733" stroke="black" cx="85.6514" cy="-1044" rx="36.1063" ry="18" style="filter: url(#dropshadow)"/>
<text text-anchor="middle" x="85.6514" y="-1042.1" font-family="Times New Roman,serif" font-size="8.00">QuestionItem</text>
</g>
<!-- QuestionItem&#45;&gt;ParameterTypeProperties -->
<g id="edge12" class="edge"><title>QuestionItem&#45;&gt;ParameterTypeProperties</title>
<path fill="none" stroke="black" d="M122.018,-1045.32C163.914,-1045.19 234.205,-1039.51 283.303,-1007 319.173,-983.251 349.426,-949.247 374.099,-913.627"/>
<text text-anchor="middle" x="236.303" y="-1042.6" font-family="Times New Roman,serif" font-size="8.00">OutParameter</text>
</g>
<!-- Variable -->
<g id="ItemTypeVariable4" class="node"><title></title><ellipse fill="#f7b733" stroke="black" cx="85.6514" cy="-990" rx="27" ry="18" style="filter: url(#dropshadow)"/>
<text text-anchor="middle" x="85.6514" y="-988.1" font-family="Times New Roman,serif" font-size="8.00">Variable</text>
</g>
<!-- Variable&#45;&gt;ParameterTypeProperties -->
<g id="edge13" class="edge"><title>Variable&#45;&gt;ParameterTypeProperties</title>
<path fill="none" stroke="black" d="M112.435,-993.156C151.925,-996.725 228.555,-998.553 283.303,-968 308.283,-954.059 330.905,-934.889 350.936,-913.621"/>
<text text-anchor="middle" x="236.303" y="-996.6" font-family="Times New Roman,serif" font-size="8.00">OutParameter</text>
</g>
<!-- Variable&#45;&gt;ParameterTypeProperties -->
<g id="edge14" class="edge"><title>Variable&#45;&gt;ParameterTypeProperties</title>
<path fill="none" stroke="black" d="M110.606,-982.371C131.344,-975.861 162.185,-966.407 189.303,-959 230.793,-947.668 246.297,-957.92 283.303,-936 294.296,-929.488 305,-922.059 315.341,-913.999"/>
<text text-anchor="middle" x="236.303" y="-961.6" font-family="Times New Roman,serif" font-size="8.00">SourceParameterReference</text>
</g>
<!-- BindingType -->
<g id="ReusableTypeBindingType5" class="node"><title></title><ellipse fill="#f7b733" stroke="black" cx="85.6514" cy="-936" rx="35.3371" ry="18" style="filter: url(#dropshadow)"/>
<text text-anchor="middle" x="85.6514" y="-934.1" font-family="Times New Roman,serif" font-size="8.00">BindingType</text>
</g>
<!-- BindingType&#45;&gt;ParameterTypeProperties -->
<g id="edge15" class="edge"><title>BindingType&#45;&gt;ParameterTypeProperties</title>
<path fill="none" stroke="black" d="M120.538,-932.829C168.953,-927.903 255.181,-917.554 283.303,-904 286.792,-902.318 290.262,-900.543 293.709,-898.685"/>
<text text-anchor="middle" x="236.303" y="-927.6" font-family="Times New Roman,serif" font-size="8.00">SourceParameterReference</text>
</g>
<!-- BindingType&#45;&gt;ParameterTypeProperties -->
<g id="edge16" class="edge"><title>BindingType&#45;&gt;ParameterTypeProperties</title>
<path fill="none" stroke="black" d="M118.265,-928.762C134.647,-924.315 154.653,-917.772 171.303,-909 180.269,-904.276 180.382,-899.811 189.303,-895 228.147,-874.052 243.746,-882.568 283.303,-863 286.695,-861.322 290.098,-859.587 293.507,-857.804"/>
<text text-anchor="middle" x="236.303" y="-897.6" font-family="Times New Roman,serif" font-size="8.00">TargetParameterReference</text>
</g>
<!-- CategoryDomainType -->
<g id="ReusableTypeCategoryDomainType6" class="node"><title></title><ellipse fill="#f7b733" stroke="black" cx="85.6514" cy="-882" rx="53.7736" ry="18" style="filter: url(#dropshadow)"/>
<text text-anchor="middle" x="85.6514" y="-880.1" font-family="Times New Roman,serif" font-size="8.00">CategoryDomainType</text>
</g>
<!-- CategoryDomainType&#45;&gt;ParameterTypeProperties -->
<g id="edge17" class="edge"><title>CategoryDomainType&#45;&gt;ParameterTypeProperties</title>
<path fill="none" stroke="black" d="M125.428,-869.652C139.835,-865.059 156.318,-859.798 171.303,-855 221.099,-839.056 234.235,-837.061 283.303,-819 286.709,-817.746 290.148,-816.465 293.608,-815.161"/>
<text text-anchor="middle" x="236.303" y="-852.6" font-family="Times New Roman,serif" font-size="8.00">OutParameter</text>
</g>
<!-- CodeDomainType -->
<g id="ReusableTypeCodeDomainType7" class="node"><title></title><ellipse fill="#f7b733" stroke="black" cx="85.6514" cy="-828" rx="45.2568" ry="18" style="filter: url(#dropshadow)"/>
<text text-anchor="middle" x="85.6514" y="-826.1" font-family="Times New Roman,serif" font-size="8.00">CodeDomainType</text>
</g>
<!-- CodeDomainType&#45;&gt;ParameterTypeProperties -->
<g id="edge18" class="edge"><title>CodeDomainType&#45;&gt;ParameterTypeProperties</title>
<path fill="none" stroke="black" d="M125.861,-819.408C166.124,-810.586 231.495,-796.261 293.509,-782.672"/>
<text text-anchor="middle" x="236.303" y="-808.6" font-family="Times New Roman,serif" font-size="8.00">OutParameter</text>
</g>
<!-- CommandFileType -->
<g id="ReusableTypeCommandFileType8" class="node"><title></title><ellipse fill="#f7b733" stroke="black" cx="85.6514" cy="-774" rx="47.16" ry="18" style="filter: url(#dropshadow)"/>
<text text-anchor="middle" x="85.6514" y="-772.1" font-family="Times New Roman,serif" font-size="8.00">CommandFileType</text>
</g>
<!-- CommandFileType&#45;&gt;ParameterTypeProperties -->
<g id="edge19" class="edge"><title>CommandFileType&#45;&gt;ParameterTypeProperties</title>
<path fill="none" stroke="black" d="M131.978,-770.689C172.559,-767.725 234.592,-763.194 293.578,-758.886"/>
<text text-anchor="middle" x="236.303" y="-769.6" font-family="Times New Roman,serif" font-size="8.00">OutParameter</text>
</g>
<!-- CommandType -->
<g id="ReusableTypeCommandType9" class="node"><title></title><ellipse fill="#f7b733" stroke="black" cx="85.6514" cy="-720" rx="40.0477" ry="18" style="filter: url(#dropshadow)"/>
<text text-anchor="middle" x="85.6514" y="-718.1" font-family="Times New Roman,serif" font-size="8.00">CommandType</text>
</g>
<!-- CommandType&#45;&gt;ParameterTypeProperties -->
<g id="edge20" class="edge"><title>CommandType&#45;&gt;ParameterTypeProperties</title>
<path fill="none" stroke="black" d="M125.512,-722.838C165.768,-725.779 231.388,-730.572 293.612,-735.117"/>
<text text-anchor="middle" x="236.303" y="-737.6" font-family="Times New Roman,serif" font-size="8.00">OutParameter</text>
</g>
<!-- ConditionalResultType -->
<g id="ReusableTypeConditionalResultType0" class="node"><title></title><ellipse fill="#f7b733" stroke="black" cx="85.6514" cy="-666" rx="55.0423" ry="18" style="filter: url(#dropshadow)"/>
<text text-anchor="middle" x="85.6514" y="-664.1" font-family="Times New Roman,serif" font-size="8.00">ConditionalResultType</text>
</g>
<!-- ConditionalResultType&#45;&gt;ParameterTypeProperties -->
<g id="edge21" class="edge"><title>ConditionalResultType&#45;&gt;ParameterTypeProperties</title>
<path fill="none" stroke="black" d="M131.978,-675.932C172.559,-684.825 234.592,-698.417 293.578,-711.343"/>
<text text-anchor="middle" x="236.303" y="-711.6" font-family="Times New Roman,serif" font-size="8.00">SourceParameterReference</text>
</g>
<!-- ConditionalTextType -->
<g id="ReusableTypeConditionalTextType1" class="node"><title></title><ellipse fill="#f7b733" stroke="black" cx="85.6514" cy="-612" rx="52.5056" ry="18" style="filter: url(#dropshadow)"/>
<text text-anchor="middle" x="85.6514" y="-610.1" font-family="Times New Roman,serif" font-size="8.00">ConditionalTextType</text>
</g>
<!-- ConditionalTextType&#45;&gt;ParameterTypeProperties -->
<g id="edge22" class="edge"><title>ConditionalTextType&#45;&gt;ParameterTypeProperties</title>
<path fill="none" stroke="black" d="M125.026,-624.147C139.536,-628.765 156.191,-634.094 171.303,-639 221.165,-655.188 234.134,-657.815 283.303,-676 286.764,-677.28 290.259,-678.587 293.778,-679.915"/>
<text text-anchor="middle" x="236.303" y="-678.6" font-family="Times New Roman,serif" font-size="8.00">SourceParameterReference</text>
</g>
<!-- DateTimeDomainType -->
<g id="ReusableTypeDateTimeDomainType2" class="node"><title></title><ellipse fill="#f7b733" stroke="black" cx="85.6514" cy="-558" rx="55.6769" ry="18" style="filter: url(#dropshadow)"/>
<text text-anchor="middle" x="85.6514" y="-556.1" font-family="Times New Roman,serif" font-size="8.00">DateTimeDomainType</text>
</g>
<!-- DateTimeDomainType&#45;&gt;ParameterTypeProperties -->
<g id="edge23" class="edge"><title>DateTimeDomainType&#45;&gt;ParameterTypeProperties</title>
<path fill="none" stroke="black" d="M127.397,-570.125C141.413,-574.525 157.138,-579.72 171.303,-585 222.048,-603.917 235.615,-607.333 283.303,-633 286.705,-634.831 290.127,-636.71 293.56,-638.628"/>
<text text-anchor="middle" x="236.303" y="-635.6" font-family="Times New Roman,serif" font-size="8.00">OutParameter</text>
</g>
<!-- DistributionDomainType -->
<g id="ReusableTypeDistributionDomainType3" class="node"><title></title><ellipse fill="#f7b733" stroke="black" cx="85.6514" cy="-504" rx="58.9835" ry="18" style="filter: url(#dropshadow)"/>
<text text-anchor="middle" x="85.6514" y="-502.1" font-family="Times New Roman,serif" font-size="8.00">DistributionDomainType</text>
</g>
<!-- DistributionDomainType&#45;&gt;ParameterTypeProperties -->
<g id="edge24" class="edge"><title>DistributionDomainType&#45;&gt;ParameterTypeProperties</title>
<path fill="none" stroke="black" d="M128.712,-516.47C142.398,-520.778 157.591,-525.83 171.303,-531 222.142,-550.17 238.158,-549.767 283.303,-580 291.424,-585.439 299.507,-591.28 307.491,-597.403"/>
<text text-anchor="middle" x="236.303" y="-582.6" font-family="Times New Roman,serif" font-size="8.00">OutParameter</text>
</g>
<!-- DomainReferenceType -->
<g id="ReusableTypeDomainReferenceType4" class="node"><title></title><ellipse fill="#f7b733" stroke="black" cx="85.6514" cy="-450" rx="55.6769" ry="18" style="filter: url(#dropshadow)"/>
<text text-anchor="middle" x="85.6514" y="-448.1" font-family="Times New Roman,serif" font-size="8.00">DomainReferenceType</text>
</g>
<!-- DomainReferenceType&#45;&gt;ParameterTypeProperties -->
<g id="edge25" class="edge"><title>DomainReferenceType&#45;&gt;ParameterTypeProperties</title>
<path fill="none" stroke="black" d="M132.572,-459.715C175.025,-470.445 238.178,-491.013 283.303,-526 309.512,-546.321 334.013,-571.458 355.863,-597.414"/>
<text text-anchor="middle" x="236.303" y="-528.6" font-family="Times New Roman,serif" font-size="8.00">OutParameter</text>
</g>
<!-- GeographicLocationCodeDomainType -->
<g id="ReusableTypeGeographicLocationCodeDomainType5" class="node"><title></title><ellipse fill="#f7b733" stroke="black" cx="85.6514" cy="-396" rx="85.8032" ry="18" style="filter: url(#dropshadow)"/>
<text text-anchor="middle" x="85.6514" y="-394.1" font-family="Times New Roman,serif" font-size="8.00">GeographicLocationCodeDomainType</text>
</g>
<!-- GeographicLocationCodeDomainType&#45;&gt;ParameterTypeProperties -->
<g id="edge26" class="edge"><title>GeographicLocationCodeDomainType&#45;&gt;ParameterTypeProperties</title>
<path fill="none" stroke="black" d="M152.609,-407.41C193.808,-417.261 245.936,-434.986 283.303,-466 326.016,-501.451 361.179,-550.321 388.389,-597.373"/>
<text text-anchor="middle" x="236.303" y="-468.6" font-family="Times New Roman,serif" font-size="8.00">OutParameter</text>
</g>
<!-- GeographicStructureCodeDomainType -->
<g id="ReusableTypeGeographicStructureCodeDomainType6" class="node"><title></title><ellipse fill="#f7b733" stroke="black" cx="85.6514" cy="-342" rx="85.1685" ry="18" style="filter: url(#dropshadow)"/>
<text text-anchor="middle" x="85.6514" y="-340.1" font-family="Times New Roman,serif" font-size="8.00">GeographicStructureCodeDomainType</text>
</g>
<!-- GeographicStructureCodeDomainType&#45;&gt;ParameterTypeProperties -->
<g id="edge27" class="edge"><title>GeographicStructureCodeDomainType&#45;&gt;ParameterTypeProperties</title>
<path fill="none" stroke="black" d="M157.934,-351.702C198.575,-360.37 248.235,-376.638 283.303,-407 341.092,-457.035 381.938,-531.064 409.372,-597.281"/>
<text text-anchor="middle" x="236.303" y="-409.6" font-family="Times New Roman,serif" font-size="8.00">OutParameter</text>
</g>
<!-- LocationDomainType -->
<g id="ReusableTypeLocationDomainType7" class="node"><title></title><ellipse fill="#f7b733" stroke="black" cx="85.6514" cy="-288" rx="53.7736" ry="18" style="filter: url(#dropshadow)"/>
<text text-anchor="middle" x="85.6514" y="-286.1" font-family="Times New Roman,serif" font-size="8.00">LocationDomainType</text>
</g>
<!-- LocationDomainType&#45;&gt;ParameterTypeProperties -->
<g id="edge28" class="edge"><title>LocationDomainType&#45;&gt;ParameterTypeProperties</title>
<path fill="none" stroke="black" d="M138.475,-292.186C181.913,-298.225 243.109,-312.974 283.303,-349 355.373,-413.597 398.675,-513.577 423.933,-597.166"/>
<text text-anchor="middle" x="236.303" y="-351.6" font-family="Times New Roman,serif" font-size="8.00">OutParameter</text>
</g>
<!-- NominalDomainType -->
<g id="ReusableTypeNominalDomainType8" class="node"><title></title><ellipse fill="#f7b733" stroke="black" cx="85.6514" cy="-234" rx="52.5056" ry="18" style="filter: url(#dropshadow)"/>
<text text-anchor="middle" x="85.6514" y="-232.1" font-family="Times New Roman,serif" font-size="8.00">NominalDomainType</text>
</g>
<!-- NominalDomainType&#45;&gt;ParameterTypeProperties -->
<g id="edge29" class="edge"><title>NominalDomainType&#45;&gt;ParameterTypeProperties</title>
<path fill="none" stroke="black" d="M138.408,-236.185C182.102,-240.68 243.703,-253.611 283.303,-290 369.987,-369.656 413.528,-497.238 435.227,-597.382"/>
<text text-anchor="middle" x="236.303" y="-292.6" font-family="Times New Roman,serif" font-size="8.00">OutParameter</text>
</g>
<!-- NumericDomainType -->
<g id="ReusableTypeNumericDomainType9" class="node"><title></title><ellipse fill="#f7b733" stroke="black" cx="85.6514" cy="-180" rx="52.3706" ry="18" style="filter: url(#dropshadow)"/>
<text text-anchor="middle" x="85.6514" y="-178.1" font-family="Times New Roman,serif" font-size="8.00">NumericDomainType</text>
</g>
<!-- NumericDomainType&#45;&gt;ParameterTypeProperties -->
<g id="edge30" class="edge"><title>NumericDomainType&#45;&gt;ParameterTypeProperties</title>
<path fill="none" stroke="black" d="M137.816,-180.575C181.734,-183.781 243.994,-195.188 283.303,-232 384.25,-326.536 426.313,-481.734 443.83,-597.087"/>
<text text-anchor="middle" x="236.303" y="-234.6" font-family="Times New Roman,serif" font-size="8.00">OutParameter</text>
</g>
<!-- RankingDomainType -->
<g id="ReusableTypeRankingDomainType0" class="node"><title></title><ellipse fill="#f7b733" stroke="black" cx="85.6514" cy="-126" rx="52.3706" ry="18" style="filter: url(#dropshadow)"/>
<text text-anchor="middle" x="85.6514" y="-124.1" font-family="Times New Roman,serif" font-size="8.00">RankingDomainType</text>
</g>
<!-- RankingDomainType&#45;&gt;ParameterTypeProperties -->
<g id="edge31" class="edge"><title>RankingDomainType&#45;&gt;ParameterTypeProperties</title>
<path fill="none" stroke="black" d="M138.048,-125.708C182.117,-128.243 244.467,-138.881 283.303,-176 397.927,-285.556 437.327,-468.253 450.48,-597.45"/>
<text text-anchor="middle" x="236.303" y="-178.6" font-family="Times New Roman,serif" font-size="8.00">OutParameter</text>
</g>
<!-- ScaleDomainType -->
<g id="ReusableTypeScaleDomainType1" class="node"><title></title><ellipse fill="#f7b733" stroke="black" cx="85.6514" cy="-72" rx="45.2568" ry="18" style="filter: url(#dropshadow)"/>
<text text-anchor="middle" x="85.6514" y="-70.1" font-family="Times New Roman,serif" font-size="8.00">ScaleDomainType</text>
</g>
<!-- ScaleDomainType&#45;&gt;ParameterTypeProperties -->
<g id="edge32" class="edge"><title>ScaleDomainType&#45;&gt;ParameterTypeProperties</title>
<path fill="none" stroke="black" d="M131.022,-70.6438C175.39,-71.767 242.702,-80.5923 283.303,-120 351.087,-185.792 404.163,-433.392 432.804,-597.06"/>
<text text-anchor="middle" x="236.303" y="-122.6" font-family="Times New Roman,serif" font-size="8.00">OutParameter</text>
</g>
<!-- TextDomainType -->
<g id="ReusableTypeTextDomainType2" class="node"><title></title><ellipse fill="#f7b733" stroke="black" cx="85.6514" cy="-18" rx="45.2568" ry="18" style="filter: url(#dropshadow)"/>
<text text-anchor="middle" x="85.6514" y="-16.1" font-family="Times New Roman,serif" font-size="8.00">TextDomainType</text>
</g>
<!-- TextDomainType&#45;&gt;ParameterTypeProperties -->
<g id="edge33" class="edge"><title>TextDomainType&#45;&gt;ParameterTypeProperties</title>
<path fill="none" stroke="black" d="M131.172,-16.2184C175.659,-16.9568 243.066,-25.3151 283.303,-65 357.893,-138.566 410.195,-419.733 436.59,-597.272"/>
<text text-anchor="middle" x="236.303" y="-67.6" font-family="Times New Roman,serif" font-size="8.00">OutParameter</text>
</g>
</g>
</svg>
