<?xml version="1.0" encoding="UTF-8" standalone="no"?>
<!DOCTYPE svg PUBLIC "-//W3C//DTD SVG 1.1//EN"
 "http://www.w3.org/Graphics/SVG/1.1/DTD/svg11.dtd">
<!-- Generated by graphviz version 2.38.0 (20140413.2041)
 -->
<!-- Title: G Pages: 1 -->
<svg width="2054pt" height="945pt"
 viewBox="0.00 0.00 2053.95 945.00" xmlns="http://www.w3.org/2000/svg" xmlns:xlink="http://www.w3.org/1999/xlink">
<filter id = "dropshadow" height = "130%" ><feGaussianBlur in= "SourceAlpha" stdDeviation = "3"/><!--stdDeviation is how much to blur--><feOffset dx = "2" dy = "2" result = "offsetblur"/><!--how much to offset--><feMerge><feMergeNode/><!--this contains the offset blurred image--><feMergeNode in= "SourceGraphic"/><!--this contains the element that the filter is applied to --></feMerge></filter>
<g id="graph0" class="graph" transform="scale(1 1) rotate(0) translate(4 941)">
<title>G</title>
<g id="clust1" class="cluster"><title>clusterQuestionGrid</title>
<polygon fill="#4abdac" stroke="black" points="191.95,-208 191.95,-916 2037.95,-916 2037.95,-208 191.95,-208" style="filter: url(#dropshadow)"/>
<text text-anchor="middle" x="1114.95" y="-905.6" font-family="Times New Roman,serif" font-size="8.00">QuestionGrid</text>
</g>
<!-- QuestionGridProperties -->
<g id="ItemTypeQuestionGridProperties" class="node"><title></title><polygon fill="#f7b733" stroke="black" points="199.95,-372 199.95,-560 579.95,-560 579.95,-372 199.95,-372" style="filter: url(#dropshadow)"/>
<text text-anchor="middle" x="226.45" y="-464.1" font-family="Times New Roman,serif" font-size="8.00">Properties</text>
<polyline fill="none" stroke="black" points="252.95,-372 252.95,-560 "/>
<text text-anchor="start" x="260.95" y="-549.6" font-family="Times New Roman,serif" font-size="8.00">QuestionGridName : NameType[0...n] </text>
<text text-anchor="start" x="260.95" y="-540.6" font-family="Times New Roman,serif" font-size="8.00">Label : LabelType[0...n] </text>
<text text-anchor="start" x="260.95" y="-531.6" font-family="Times New Roman,serif" font-size="8.00">Description : StructuredStringType[0...1] </text>
<text text-anchor="start" x="260.95" y="-522.6" font-family="Times New Roman,serif" font-size="8.00">InParameter : InParameterType[0...n] </text>
<text text-anchor="start" x="260.95" y="-513.6" font-family="Times New Roman,serif" font-size="8.00">OutParameter : ParameterType[0...n] </text>
<text text-anchor="start" x="260.95" y="-504.6" font-family="Times New Roman,serif" font-size="8.00">Binding : BindingType[0...n] </text>
<text text-anchor="start" x="260.95" y="-495.6" font-family="Times New Roman,serif" font-size="8.00">QuestionText : DynamicTextType[0...n] </text>
<text text-anchor="start" x="260.95" y="-486.6" font-family="Times New Roman,serif" font-size="8.00">QuestionIntent : StructuredStringType[0...1] </text>
<text text-anchor="start" x="260.95" y="-477.6" font-family="Times New Roman,serif" font-size="8.00">GridDimension : GridDimensionType[0...n] </text>
<text text-anchor="start" x="260.95" y="-468.6" font-family="Times New Roman,serif" font-size="8.00">ResponseDomain : RepresentationType[0...1] </text>
<text text-anchor="start" x="260.95" y="-459.6" font-family="Times New Roman,serif" font-size="8.00">ResponseDomainReference : ManagedRepresentation[0...1] </text>
<text text-anchor="start" x="260.95" y="-450.6" font-family="Times New Roman,serif" font-size="8.00">StructuredMixedGridResponseDomain : StructuredMixedGridResponseDomainType[0...1] </text>
<text text-anchor="start" x="260.95" y="-441.6" font-family="Times New Roman,serif" font-size="8.00">CellLabel : CellLabelType[0...n] </text>
<text text-anchor="start" x="260.95" y="-432.6" font-family="Times New Roman,serif" font-size="8.00">FixedCellValue : FixedCellValueType[0...n] </text>
<text text-anchor="start" x="260.95" y="-423.6" font-family="Times New Roman,serif" font-size="8.00">ConceptReference : Concept[0...n] </text>
<text text-anchor="start" x="260.95" y="-414.6" font-family="Times New Roman,serif" font-size="8.00">ExternalAid : ExternalAidType[0...n] </text>
<text text-anchor="start" x="260.95" y="-405.6" font-family="Times New Roman,serif" font-size="8.00">ExternalInterviewerInstruction : ExternalInterviewerInstructionType[0...1] </text>
<text text-anchor="start" x="260.95" y="-396.6" font-family="Times New Roman,serif" font-size="8.00">InterviewerInstructionReference : Instruction[0...1] </text>
<text text-anchor="start" x="260.95" y="-387.6" font-family="Times New Roman,serif" font-size="8.00">RepresentedVariableReference : RepresentedVariable[0...n] </text>
<text text-anchor="start" x="260.95" y="-378.6" font-family="Times New Roman,serif" font-size="8.00">EstimatedSecondsResponseTime : decimal[0...1] </text>
</g>
<!-- QuestionGridNameType -->
<g id="ReusableTypeQuestionGridNameType" class="node"><title></title><polygon fill="#fc4a1a" stroke="black" points="1807.45,-450 1807.45,-486 1976.45,-486 1976.45,-450 1807.45,-450" style="filter: url(#dropshadow)"/>
<text text-anchor="middle" x="1835.45" y="-466.1" font-family="Times New Roman,serif" font-size="8.00">NameType</text>
<polyline fill="none" stroke="black" points="1863.45,-450 1863.45,-486 "/>
<text text-anchor="start" x="1871.45" y="-470.6" font-family="Times New Roman,serif" font-size="8.00">IsPreferred : boolean[0...1] </text>
<text text-anchor="start" x="1871.45" y="-461.6" font-family="Times New Roman,serif" font-size="8.00">Context : string[0...1] </text>
</g>
<!-- QuestionGridProperties&#45;&gt;QuestionGridNameType -->
<g id="edge1" class="edge"><title>QuestionGridProperties&#45;&gt;QuestionGridNameType</title>
<path fill="none" stroke="black" d="M580.3,-462.853C763.788,-460.201 1049.94,-457.118 1297.95,-459 1479.42,-460.377 1692.09,-464.124 1806.99,-466.325"/>
<text text-anchor="middle" x="1250.95" y="-461.6" font-family="Times New Roman,serif" font-size="8.00">QuestionGridName</text>
</g>
<!-- QuestionGridLabelType -->
<g id="ReusableTypeQuestionGridLabelType" class="node"><title></title><polygon fill="#fc4a1a" stroke="black" points="860.95,-272.5 860.95,-325.5 1071.95,-325.5 1071.95,-272.5 860.95,-272.5" style="filter: url(#dropshadow)"/>
<text text-anchor="middle" x="887.95" y="-297.1" font-family="Times New Roman,serif" font-size="8.00">LabelType</text>
<polyline fill="none" stroke="black" points="914.95,-272.5 914.95,-325.5 "/>
<text text-anchor="start" x="922.95" y="-315.1" font-family="Times New Roman,serif" font-size="8.00">TypeOfLabel : CodeValueType[0...1] </text>
<text text-anchor="start" x="922.95" y="-306.1" font-family="Times New Roman,serif" font-size="8.00">LocationVariant : string[0...1] </text>
<text text-anchor="start" x="922.95" y="-297.1" font-family="Times New Roman,serif" font-size="8.00">ValidForStartDate : cogsDate[0...1] </text>
<text text-anchor="start" x="922.95" y="-288.1" font-family="Times New Roman,serif" font-size="8.00">ValidForEndDate : cogsDate[0...1] </text>
<text text-anchor="start" x="922.95" y="-279.1" font-family="Times New Roman,serif" font-size="8.00">MaxLength : nonNegativeInteger[0...1] </text>
</g>
<!-- QuestionGridProperties&#45;&gt;QuestionGridLabelType -->
<g id="edge2" class="edge"><title>QuestionGridProperties&#45;&gt;QuestionGridLabelType</title>
<path fill="none" stroke="black" d="M580.021,-386.771C633.218,-367.144 691.661,-348.025 746.95,-335 783.716,-326.338 824.445,-319.023 860.68,-313.296"/>
<text text-anchor="middle" x="663.45" y="-379.6" font-family="Times New Roman,serif" font-size="8.00">Label</text>
</g>
<!-- QuestionGridStructuredStringType -->
<g id="ReusableTypeQuestionGridStructuredStringType" class="node"><title></title><polygon fill="#fc4a1a" stroke="black" points="1785.45,-637 1785.45,-673 1998.45,-673 1998.45,-637 1785.45,-637" style="filter: url(#dropshadow)"/>
<text text-anchor="middle" x="1830.45" y="-653.1" font-family="Times New Roman,serif" font-size="8.00">StructuredStringType</text>
<polyline fill="none" stroke="black" points="1875.45,-637 1875.45,-673 "/>
<text text-anchor="start" x="1883.45" y="-653.1" font-family="Times New Roman,serif" font-size="8.00">Content : ContentType[0...n] </text>
</g>
<!-- QuestionGridProperties&#45;&gt;QuestionGridStructuredStringType -->
<g id="edge3" class="edge"><title>QuestionGridProperties&#45;&gt;QuestionGridStructuredStringType</title>
<path fill="none" stroke="black" d="M580.129,-468.675C796.281,-472.061 1127.77,-478.381 1185.95,-486 1430.87,-518.073 1714.59,-600.289 1833.69,-636.92"/>
<text text-anchor="middle" x="1250.95" y="-505.6" font-family="Times New Roman,serif" font-size="8.00">Description</text>
</g>
<!-- QuestionGridInParameterType -->
<g id="ReusableTypeQuestionGridInParameterType" class="node"><title></title><polygon fill="#fc4a1a" stroke="black" points="863.95,-400 863.95,-436 1068.95,-436 1068.95,-400 863.95,-400" style="filter: url(#dropshadow)"/>
<text text-anchor="middle" x="903.45" y="-416.1" font-family="Times New Roman,serif" font-size="8.00">InParameterType</text>
<polyline fill="none" stroke="black" points="942.95,-400 942.95,-436 "/>
<text text-anchor="start" x="950.95" y="-416.1" font-family="Times New Roman,serif" font-size="8.00">LimitArrayIndex : string[0...1] </text>
</g>
<!-- QuestionGridProperties&#45;&gt;QuestionGridInParameterType -->
<g id="edge4" class="edge"><title>QuestionGridProperties&#45;&gt;QuestionGridInParameterType</title>
<path fill="none" stroke="black" d="M580.148,-443.673C586.149,-443.09 592.095,-442.53 597.95,-442 687.576,-433.883 789.738,-427.437 863.559,-423.278"/>
<text text-anchor="middle" x="663.45" y="-444.6" font-family="Times New Roman,serif" font-size="8.00">InParameter</text>
</g>
<!-- QuestionGridParameterType -->
<g id="ReusableTypeQuestionGridParameterType" class="node"><title></title><polygon fill="#fc4a1a" stroke="black" points="1315.95,-757.5 1315.95,-828.5 1645.95,-828.5 1645.95,-757.5 1315.95,-757.5" style="filter: url(#dropshadow)"/>
<text text-anchor="middle" x="1351.45" y="-791.1" font-family="Times New Roman,serif" font-size="8.00">ParameterType</text>
<polyline fill="none" stroke="black" points="1386.95,-757.5 1386.95,-828.5 "/>
<text text-anchor="start" x="1394.95" y="-818.1" font-family="Times New Roman,serif" font-size="8.00">ParameterName : NameType[0...n] </text>
<text text-anchor="start" x="1394.95" y="-809.1" font-family="Times New Roman,serif" font-size="8.00">Alias : string[0...1] </text>
<text text-anchor="start" x="1394.95" y="-800.1" font-family="Times New Roman,serif" font-size="8.00">Description : StructuredStringType[0...1] </text>
<text text-anchor="start" x="1394.95" y="-791.1" font-family="Times New Roman,serif" font-size="8.00">ValueRepresentation : RepresentationType[0...1] </text>
<text text-anchor="start" x="1394.95" y="-782.1" font-family="Times New Roman,serif" font-size="8.00">ValueRepresentationReference : RepresentationReferenceType[0...1] </text>
<text text-anchor="start" x="1394.95" y="-773.1" font-family="Times New Roman,serif" font-size="8.00">DefaultValue : ValueType[0...1] </text>
<text text-anchor="start" x="1394.95" y="-764.1" font-family="Times New Roman,serif" font-size="8.00">IsArray : boolean[0...1] </text>
</g>
<!-- QuestionGridProperties&#45;&gt;QuestionGridParameterType -->
<g id="edge5" class="edge"><title>QuestionGridProperties&#45;&gt;QuestionGridParameterType</title>
<path fill="none" stroke="black" d="M580.354,-557.47C633.177,-579.442 691.349,-600.45 746.95,-614 937.185,-660.36 997.086,-599.336 1185.95,-651 1272.75,-674.743 1364.95,-723.645 1422.48,-757.372"/>
<text text-anchor="middle" x="966.45" y="-653.6" font-family="Times New Roman,serif" font-size="8.00">OutParameter</text>
</g>
<!-- QuestionGridBindingType -->
<g id="ReusableTypeQuestionGridBindingType" class="node"><title></title><polygon fill="#fc4a1a" stroke="black" points="837.45,-834 837.45,-870 1095.45,-870 1095.45,-834 837.45,-834" style="filter: url(#dropshadow)"/>
<text text-anchor="middle" x="868.45" y="-850.1" font-family="Times New Roman,serif" font-size="8.00">BindingType</text>
<polyline fill="none" stroke="black" points="899.45,-834 899.45,-870 "/>
<text text-anchor="start" x="907.45" y="-854.6" font-family="Times New Roman,serif" font-size="8.00">SourceParameterReference : ParameterType[0...1] </text>
<text text-anchor="start" x="907.45" y="-845.6" font-family="Times New Roman,serif" font-size="8.00">TargetParameterReference : ParameterType[0...1] </text>
</g>
<!-- QuestionGridProperties&#45;&gt;QuestionGridBindingType -->
<g id="edge6" class="edge"><title>QuestionGridProperties&#45;&gt;QuestionGridBindingType</title>
<path fill="none" stroke="black" d="M422.539,-560.006C454.107,-638.58 510.644,-746.718 597.95,-804 668.022,-849.975 761.924,-861.592 837.267,-861.912"/>
<text text-anchor="middle" x="663.45" y="-854.6" font-family="Times New Roman,serif" font-size="8.00">Binding</text>
</g>
<!-- QuestionGridDynamicTextType -->
<g id="ReusableTypeQuestionGridDynamicTextType" class="node"><title></title><polygon fill="#fc4a1a" stroke="black" points="845.45,-496 845.45,-532 1087.45,-532 1087.45,-496 845.45,-496" style="filter: url(#dropshadow)"/>
<text text-anchor="middle" x="887.45" y="-512.1" font-family="Times New Roman,serif" font-size="8.00">DynamicTextType</text>
<polyline fill="none" stroke="black" points="929.45,-496 929.45,-532 "/>
<text text-anchor="start" x="937.45" y="-521.1" font-family="Times New Roman,serif" font-size="8.00">TextContent : TextContentType[0...n] </text>
<text text-anchor="start" x="937.45" y="-512.1" font-family="Times New Roman,serif" font-size="8.00">IsStructureRequired : boolean[0...1] </text>
<text text-anchor="start" x="937.45" y="-503.1" font-family="Times New Roman,serif" font-size="8.00">AudienceLanguage : language[0...1] </text>
</g>
<!-- QuestionGridProperties&#45;&gt;QuestionGridDynamicTextType -->
<g id="edge7" class="edge"><title>QuestionGridProperties&#45;&gt;QuestionGridDynamicTextType</title>
<path fill="none" stroke="black" d="M580.256,-481.817C667.549,-489.11 768.55,-497.549 845.223,-503.955"/>
<text text-anchor="middle" x="663.45" y="-495.6" font-family="Times New Roman,serif" font-size="8.00">QuestionText</text>
</g>
<!-- QuestionGridGridDimensionType -->
<g id="ReusableTypeQuestionGridGridDimensionType" class="node"><title></title><polygon fill="#fc4a1a" stroke="black" points="844.95,-551.5 844.95,-604.5 1087.95,-604.5 1087.95,-551.5 844.95,-551.5" style="filter: url(#dropshadow)"/>
<text text-anchor="middle" x="888.45" y="-576.1" font-family="Times New Roman,serif" font-size="8.00">GridDimensionType</text>
<polyline fill="none" stroke="black" points="931.95,-551.5 931.95,-604.5 "/>
<text text-anchor="start" x="939.95" y="-594.1" font-family="Times New Roman,serif" font-size="8.00">CodeDomain : CodeDomainType[0...1] </text>
<text text-anchor="start" x="939.95" y="-585.1" font-family="Times New Roman,serif" font-size="8.00">Roster : RosterType[0...1] </text>
<text text-anchor="start" x="939.95" y="-576.1" font-family="Times New Roman,serif" font-size="8.00">Rank : nonNegativeInteger[1...1] </text>
<text text-anchor="start" x="939.95" y="-567.1" font-family="Times New Roman,serif" font-size="8.00">DisplayCode : boolean[0...1] </text>
<text text-anchor="start" x="939.95" y="-558.1" font-family="Times New Roman,serif" font-size="8.00">DisplayLabel : boolean[0...1] </text>
</g>
<!-- QuestionGridProperties&#45;&gt;QuestionGridGridDimensionType -->
<g id="edge8" class="edge"><title>QuestionGridProperties&#45;&gt;QuestionGridGridDimensionType</title>
<path fill="none" stroke="black" d="M580.042,-507.301C633.884,-518.663 692.653,-530.688 746.95,-541 778.606,-547.012 812.935,-553.051 844.799,-558.455"/>
<text text-anchor="middle" x="663.45" y="-540.6" font-family="Times New Roman,serif" font-size="8.00">GridDimension</text>
</g>
<!-- QuestionGridRepresentationType -->
<g id="ReusableTypeQuestionGridRepresentationType0" class="node"><title></title><polygon fill="#fc4a1a" stroke="black" points="1753.95,-824 1753.95,-886 2029.95,-886 2029.95,-824 1753.95,-824" style="filter: url(#dropshadow)"/>
<text text-anchor="middle" x="1797.95" y="-853.1" font-family="Times New Roman,serif" font-size="8.00">RepresentationType</text>
<polyline fill="none" stroke="black" points="1841.95,-824 1841.95,-886 "/>
<text text-anchor="start" x="1849.95" y="-875.6" font-family="Times New Roman,serif" font-size="8.00">RecommendedDataType : CodeValueType[0...1] </text>
<text text-anchor="start" x="1849.95" y="-866.6" font-family="Times New Roman,serif" font-size="8.00">GenericOutputFormat : CodeValueType[0...1] </text>
<text text-anchor="start" x="1849.95" y="-857.6" font-family="Times New Roman,serif" font-size="8.00">MeasurementUnit : CodeValueType[0...1] </text>
<text text-anchor="start" x="1849.95" y="-848.6" font-family="Times New Roman,serif" font-size="8.00">MissingValue : string[0...1] </text>
<text text-anchor="start" x="1849.95" y="-839.6" font-family="Times New Roman,serif" font-size="8.00">BlankIsMissingValue : boolean[0...1] </text>
<text text-anchor="start" x="1849.95" y="-830.6" font-family="Times New Roman,serif" font-size="8.00">ClassificationLevel : string[0...1] </text>
</g>
<!-- QuestionGridProperties&#45;&gt;QuestionGridRepresentationType -->
<g id="edge9" class="edge"><title>QuestionGridProperties&#45;&gt;QuestionGridRepresentationType</title>
<path fill="none" stroke="black" d="M412.116,-560.036C438.577,-653.953 493.667,-794.225 597.95,-865 782.593,-990.315 1460.29,-914.957 1753.85,-875.035"/>
<text text-anchor="middle" x="1250.95" y="-930.6" font-family="Times New Roman,serif" font-size="8.00">ResponseDomain</text>
</g>
<!-- ManagedRepresentation -->
<g id="ItemTypeManagedRepresentation1" class="node"><title></title><ellipse fill="#f7b733" stroke="black" cx="966.45" cy="-180" rx="56.9465" ry="18" style="filter: url(#dropshadow)"/>
<text text-anchor="middle" x="966.45" y="-178.1" font-family="Times New Roman,serif" font-size="8.00">ManagedRepresentation</text>
</g>
<!-- QuestionGridProperties&#45;&gt;ManagedRepresentation -->
<g id="edge10" class="edge"><title>QuestionGridProperties&#45;&gt;ManagedRepresentation</title>
<path fill="none" stroke="black" d="M467.204,-371.918C503.404,-332.097 549.348,-287.877 597.95,-257 695.202,-195.215 833.347,-182.041 909.559,-179.806"/>
<text text-anchor="middle" x="663.45" y="-259.6" font-family="Times New Roman,serif" font-size="8.00">ResponseDomainReference</text>
<text text-anchor="middle" x="901.559" y="-173.406" font-family="Times New Roman,serif" font-size="8.00">0...*</text>
<text text-anchor="middle" x="459.204" y="-365.518" font-family="Times New Roman,serif" font-size="8.00">0...*</text>
</g>
<!-- QuestionGridStructuredMixedGridResponseDomainType -->
<g id="ReusableTypeQuestionGridStructuredMixedGridResponseDomainType2" class="node"><title></title><polygon fill="#fc4a1a" stroke="black" points="746.95,-669 746.95,-705 1185.95,-705 1185.95,-669 746.95,-669" style="filter: url(#dropshadow)"/>
<text text-anchor="middle" x="829.95" y="-685.1" font-family="Times New Roman,serif" font-size="8.00">StructuredMixedGridResponseDomainType</text>
<polyline fill="none" stroke="black" points="912.95,-669 912.95,-705 "/>
<text text-anchor="start" x="920.95" y="-689.6" font-family="Times New Roman,serif" font-size="8.00">GridResponseDomainInMixed : GridResponseDomainInMixedType[0...1] </text>
<text text-anchor="start" x="920.95" y="-680.6" font-family="Times New Roman,serif" font-size="8.00">NoDataByDefinition : GridAttachmentType[0...1] </text>
</g>
<!-- QuestionGridProperties&#45;&gt;QuestionGridStructuredMixedGridResponseDomainType -->
<g id="edge11" class="edge"><title>QuestionGridProperties&#45;&gt;QuestionGridStructuredMixedGridResponseDomainType</title>
<path fill="none" stroke="black" d="M475.499,-560.207C510.131,-592.825 552.702,-626.15 597.95,-646 643.952,-666.182 696.168,-677.856 746.5,-684.339"/>
<text text-anchor="middle" x="663.45" y="-683.6" font-family="Times New Roman,serif" font-size="8.00">StructuredMixedGridResponseDomain</text>
<text text-anchor="middle" x="738.5" y="-677.939" font-family="Times New Roman,serif" font-size="8.00">0...*</text>
<text text-anchor="middle" x="467.499" y="-562.807" font-family="Times New Roman,serif" font-size="8.00">0...*</text>
</g>
<!-- QuestionGridCellLabelType -->
<g id="ReusableTypeQuestionGridCellLabelType3" class="node"><title></title><polygon fill="#fc4a1a" stroke="black" points="842.95,-724 842.95,-760 1089.95,-760 1089.95,-724 842.95,-724" style="filter: url(#dropshadow)"/>
<text text-anchor="middle" x="876.95" y="-740.1" font-family="Times New Roman,serif" font-size="8.00">CellLabelType</text>
<polyline fill="none" stroke="black" points="910.95,-724 910.95,-760 "/>
<text text-anchor="start" x="918.95" y="-740.1" font-family="Times New Roman,serif" font-size="8.00">GridAttachment : GridAttachmentType[0...n] </text>
</g>
<!-- QuestionGridProperties&#45;&gt;QuestionGridCellLabelType -->
<g id="edge12" class="edge"><title>QuestionGridProperties&#45;&gt;QuestionGridCellLabelType</title>
<path fill="none" stroke="black" d="M452.126,-560.025C488.554,-608.084 539.121,-662.861 597.95,-694 672.874,-733.659 768.016,-745.21 842.721,-747.081"/>
<text text-anchor="middle" x="663.45" y="-736.6" font-family="Times New Roman,serif" font-size="8.00">CellLabel</text>
<text text-anchor="middle" x="834.721" y="-740.681" font-family="Times New Roman,serif" font-size="8.00">0...*</text>
<text text-anchor="middle" x="444.126" y="-562.625" font-family="Times New Roman,serif" font-size="8.00">0...*</text>
</g>
<!-- QuestionGridFixedCellValueType -->
<g id="ReusableTypeQuestionGridFixedCellValueType4" class="node"><title></title><polygon fill="#fc4a1a" stroke="black" points="833.95,-779 833.95,-815 1098.95,-815 1098.95,-779 833.95,-779" style="filter: url(#dropshadow)"/>
<text text-anchor="middle" x="876.95" y="-795.1" font-family="Times New Roman,serif" font-size="8.00">FixedCellValueType</text>
<polyline fill="none" stroke="black" points="919.95,-779 919.95,-815 "/>
<text text-anchor="start" x="927.95" y="-799.6" font-family="Times New Roman,serif" font-size="8.00">Value : ValueType[0...1] </text>
<text text-anchor="start" x="927.95" y="-790.6" font-family="Times New Roman,serif" font-size="8.00">GridAttachment : GridAttachmentType[0...n] </text>
</g>
<!-- QuestionGridProperties&#45;&gt;QuestionGridFixedCellValueType -->
<g id="edge13" class="edge"><title>QuestionGridProperties&#45;&gt;QuestionGridFixedCellValueType</title>
<path fill="none" stroke="black" d="M435.43,-560.073C470.48,-623.423 525.518,-703.136 597.95,-747 668.174,-789.527 759.607,-802.096 833.703,-803.998"/>
<text text-anchor="middle" x="663.45" y="-793.6" font-family="Times New Roman,serif" font-size="8.00">FixedCellValue</text>
<text text-anchor="middle" x="825.703" y="-797.598" font-family="Times New Roman,serif" font-size="8.00">0...*</text>
<text text-anchor="middle" x="427.43" y="-562.673" font-family="Times New Roman,serif" font-size="8.00">0...*</text>
</g>
<!-- Concept -->
<g id="ItemTypeConcept5" class="node"><title></title><ellipse fill="#f7b733" stroke="black" cx="966.45" cy="-126" rx="27" ry="18" style="filter: url(#dropshadow)"/>
<text text-anchor="middle" x="966.45" y="-124.1" font-family="Times New Roman,serif" font-size="8.00">Concept</text>
</g>
<!-- QuestionGridProperties&#45;&gt;Concept -->
<g id="edge14" class="edge"><title>QuestionGridProperties&#45;&gt;Concept</title>
<path fill="none" stroke="black" d="M440.714,-371.713C476.803,-312.104 530.953,-238.067 597.95,-193 707.456,-119.337 875.088,-120.449 939.238,-124.004"/>
<text text-anchor="middle" x="663.45" y="-195.6" font-family="Times New Roman,serif" font-size="8.00">ConceptReference</text>
<text text-anchor="middle" x="931.238" y="-117.604" font-family="Times New Roman,serif" font-size="8.00">0...*</text>
<text text-anchor="middle" x="432.714" y="-365.313" font-family="Times New Roman,serif" font-size="8.00">0...*</text>
</g>
<!-- QuestionGridExternalAidType -->
<g id="ReusableTypeQuestionGridExternalAidType6" class="node"><title></title><polygon fill="#fc4a1a" stroke="black" points="837.45,-345 837.45,-381 1095.45,-381 1095.45,-345 837.45,-345" style="filter: url(#dropshadow)"/>
<text text-anchor="middle" x="875.95" y="-361.1" font-family="Times New Roman,serif" font-size="8.00">ExternalAidType</text>
<polyline fill="none" stroke="black" points="914.45,-345 914.45,-381 "/>
<text text-anchor="start" x="922.45" y="-361.1" font-family="Times New Roman,serif" font-size="8.00">OtherMaterialReference : OtherMaterial[0...1] </text>
</g>
<!-- QuestionGridProperties&#45;&gt;QuestionGridExternalAidType -->
<g id="edge15" class="edge"><title>QuestionGridProperties&#45;&gt;QuestionGridExternalAidType</title>
<path fill="none" stroke="black" d="M580.154,-423.793C586.154,-422.507 592.097,-421.239 597.95,-420 664.035,-406.006 680.27,-400.817 746.95,-390 776.096,-385.272 807.548,-380.939 837.26,-377.193"/>
<text text-anchor="middle" x="663.45" y="-422.6" font-family="Times New Roman,serif" font-size="8.00">ExternalAid</text>
<text text-anchor="middle" x="829.26" y="-370.793" font-family="Times New Roman,serif" font-size="8.00">0...*</text>
<text text-anchor="middle" x="588.154" y="-417.393" font-family="Times New Roman,serif" font-size="8.00">0...*</text>
</g>
<!-- QuestionGridExternalInterviewerInstructionType -->
<g id="ReusableTypeQuestionGridExternalInterviewerInstructionType7" class="node"><title></title><polygon fill="#fc4a1a" stroke="black" points="749.95,-217 749.95,-253 1182.95,-253 1182.95,-217 749.95,-217" style="filter: url(#dropshadow)"/>
<text text-anchor="middle" x="821.45" y="-233.1" font-family="Times New Roman,serif" font-size="8.00">ExternalInterviewerInstructionType</text>
<polyline fill="none" stroke="black" points="892.95,-217 892.95,-253 "/>
<text text-anchor="start" x="900.95" y="-242.1" font-family="Times New Roman,serif" font-size="8.00">OtherMaterialReference : OtherMaterial[0...1] </text>
<text text-anchor="start" x="900.95" y="-233.1" font-family="Times New Roman,serif" font-size="8.00">InstructionAttachmentLocation : InstructionAttachmentLocationType[0...n] </text>
<text text-anchor="start" x="900.95" y="-224.1" font-family="Times New Roman,serif" font-size="8.00">IsDisplayed : boolean[0...1] </text>
</g>
<!-- QuestionGridProperties&#45;&gt;QuestionGridExternalInterviewerInstructionType -->
<g id="edge16" class="edge"><title>QuestionGridProperties&#45;&gt;QuestionGridExternalInterviewerInstructionType</title>
<path fill="none" stroke="black" d="M519.163,-371.91C583.997,-329.974 665.961,-285.116 746.95,-263 760.969,-259.172 775.641,-255.863 790.463,-253.004"/>
<text text-anchor="middle" x="663.45" y="-325.6" font-family="Times New Roman,serif" font-size="8.00">ExternalInterviewerInstruction</text>
<text text-anchor="middle" x="782.463" y="-255.604" font-family="Times New Roman,serif" font-size="8.00">0...*</text>
<text text-anchor="middle" x="511.163" y="-365.51" font-family="Times New Roman,serif" font-size="8.00">0...*</text>
</g>
<!-- Instruction -->
<g id="ItemTypeInstruction8" class="node"><title></title><ellipse fill="#f7b733" stroke="black" cx="966.45" cy="-72" rx="31.3964" ry="18" style="filter: url(#dropshadow)"/>
<text text-anchor="middle" x="966.45" y="-70.1" font-family="Times New Roman,serif" font-size="8.00">Instruction</text>
</g>
<!-- QuestionGridProperties&#45;&gt;Instruction -->
<g id="edge17" class="edge"><title>QuestionGridProperties&#45;&gt;Instruction</title>
<path fill="none" stroke="black" d="M423.446,-371.935C455.448,-293.823 512.114,-186.252 597.95,-127 704.134,-53.7025 868.709,-61.363 935.63,-68.2219"/>
<text text-anchor="middle" x="663.45" y="-129.6" font-family="Times New Roman,serif" font-size="8.00">InterviewerInstructionReference</text>
<text text-anchor="middle" x="927.63" y="-61.8219" font-family="Times New Roman,serif" font-size="8.00">0...*</text>
<text text-anchor="middle" x="415.446" y="-365.535" font-family="Times New Roman,serif" font-size="8.00">0...*</text>
</g>
<!-- RepresentedVariable -->
<g id="ItemTypeRepresentedVariable9" class="node"><title></title><ellipse fill="#f7b733" stroke="black" cx="966.45" cy="-18" rx="48.5642" ry="18" style="filter: url(#dropshadow)"/>
<text text-anchor="middle" x="966.45" y="-16.1" font-family="Times New Roman,serif" font-size="8.00">RepresentedVariable</text>
</g>
<!-- QuestionGridProperties&#45;&gt;RepresentedVariable -->
<g id="edge18" class="edge"><title>QuestionGridProperties&#45;&gt;RepresentedVariable</title>
<path fill="none" stroke="black" d="M412.032,-371.945C438.478,-277.478 493.602,-135.786 597.95,-63 696.537,5.76724 847.187,-1.91885 921.234,-11.0579"/>
<text text-anchor="middle" x="663.45" y="-65.6" font-family="Times New Roman,serif" font-size="8.00">RepresentedVariableReference</text>
<text text-anchor="middle" x="913.234" y="-4.65788" font-family="Times New Roman,serif" font-size="8.00">0...*</text>
<text text-anchor="middle" x="404.032" y="-365.545" font-family="Times New Roman,serif" font-size="8.00">0...*</text>
</g>
<!-- QuestionGridParameterType&#45;&gt;QuestionGridNameType -->
<g id="edge19" class="edge"><title>QuestionGridParameterType&#45;&gt;QuestionGridNameType</title>
<path fill="none" stroke="black" d="M1526.89,-757.29C1613.84,-688.199 1802.29,-538.449 1867.88,-486.328"/>
<text text-anchor="middle" x="1699.95" y="-642.6" font-family="Times New Roman,serif" font-size="8.00">ParameterName</text>
<text text-anchor="middle" x="1859.88" y="-488.928" font-family="Times New Roman,serif" font-size="8.00">0...*</text>
<text text-anchor="middle" x="1518.89" y="-750.89" font-family="Times New Roman,serif" font-size="8.00">0...*</text>
</g>
<!-- QuestionGridParameterType&#45;&gt;QuestionGridStructuredStringType -->
<g id="edge20" class="edge"><title>QuestionGridParameterType&#45;&gt;QuestionGridStructuredStringType</title>
<path fill="none" stroke="black" d="M1587.28,-757.462C1667.4,-730.429 1774.31,-694.355 1837.57,-673.011"/>
<text text-anchor="middle" x="1699.95" y="-730.6" font-family="Times New Roman,serif" font-size="8.00">Description</text>
<text text-anchor="middle" x="1829.57" y="-675.611" font-family="Times New Roman,serif" font-size="8.00">0...*</text>
<text text-anchor="middle" x="1579.28" y="-751.062" font-family="Times New Roman,serif" font-size="8.00">0...*</text>
</g>
<!-- QuestionGridParameterType&#45;&gt;QuestionGridRepresentationType -->
<g id="edge21" class="edge"><title>QuestionGridParameterType&#45;&gt;QuestionGridRepresentationType</title>
<path fill="none" stroke="black" d="M1646.24,-817.905C1681.89,-823.309 1719.24,-828.97 1753.71,-834.196"/>
<text text-anchor="middle" x="1699.95" y="-833.6" font-family="Times New Roman,serif" font-size="8.00">ValueRepresentation</text>
<text text-anchor="middle" x="1745.71" y="-827.796" font-family="Times New Roman,serif" font-size="8.00">0...*</text>
<text text-anchor="middle" x="1654.24" y="-811.505" font-family="Times New Roman,serif" font-size="8.00">0...*</text>
</g>
<!-- QuestionGridBindingType&#45;&gt;QuestionGridParameterType -->
<g id="edge22" class="edge"><title>QuestionGridBindingType&#45;&gt;QuestionGridParameterType</title>
<path fill="none" stroke="black" d="M1095.49,-847.788C1125.96,-843.655 1157.78,-836.645 1185.95,-825 1195.32,-821.128 1194.48,-814.599 1203.95,-811 1238.85,-797.74 1278.01,-790.875 1315.62,-787.742"/>
<text text-anchor="middle" x="1250.95" y="-813.6" font-family="Times New Roman,serif" font-size="8.00">SourceParameterReference</text>
<text text-anchor="middle" x="1307.62" y="-781.342" font-family="Times New Roman,serif" font-size="8.00">0...*</text>
<text text-anchor="middle" x="1103.49" y="-850.388" font-family="Times New Roman,serif" font-size="8.00">0...*</text>
</g>
<!-- QuestionGridBindingType&#45;&gt;QuestionGridParameterType -->
<g id="edge23" class="edge"><title>QuestionGridBindingType&#45;&gt;QuestionGridParameterType</title>
<path fill="none" stroke="black" d="M1095.53,-841.124C1156.86,-835.527 1231.29,-828.166 1297.95,-820 1303.82,-819.281 1309.78,-818.526 1315.81,-817.742"/>
<text text-anchor="middle" x="1250.95" y="-832.6" font-family="Times New Roman,serif" font-size="8.00">TargetParameterReference</text>
<text text-anchor="middle" x="1307.81" y="-811.342" font-family="Times New Roman,serif" font-size="8.00">0...*</text>
<text text-anchor="middle" x="1103.53" y="-834.724" font-family="Times New Roman,serif" font-size="8.00">0...*</text>
</g>
<!-- OtherMaterial -->
<g id="ItemTypeOtherMaterial0" class="node"><title></title><ellipse fill="#f7b733" stroke="black" cx="1480.95" cy="-182" rx="37.3742" ry="18" style="filter: url(#dropshadow)"/>
<text text-anchor="middle" x="1480.95" y="-180.1" font-family="Times New Roman,serif" font-size="8.00">OtherMaterial</text>
</g>
<!-- QuestionGridExternalAidType&#45;&gt;OtherMaterial -->
<g id="edge24" class="edge"><title>QuestionGridExternalAidType&#45;&gt;OtherMaterial</title>
<path fill="none" stroke="black" d="M1095.72,-360.609C1126.41,-356.288 1158.28,-348.507 1185.95,-335 1248.93,-304.253 1249.6,-274.733 1297.95,-224 1306.2,-215.343 1305.37,-209.582 1315.95,-204 1355.96,-182.88 1408.82,-179.42 1443.57,-179.884"/>
<text text-anchor="middle" x="1250.95" y="-326.6" font-family="Times New Roman,serif" font-size="8.00">OtherMaterialReference</text>
<text text-anchor="middle" x="1435.57" y="-173.484" font-family="Times New Roman,serif" font-size="8.00">0...*</text>
<text text-anchor="middle" x="1103.72" y="-354.209" font-family="Times New Roman,serif" font-size="8.00">0...*</text>
</g>
<!-- QuestionGridExternalInterviewerInstructionType&#45;&gt;OtherMaterial -->
<g id="edge25" class="edge"><title>QuestionGridExternalInterviewerInstructionType&#45;&gt;OtherMaterial</title>
<path fill="none" stroke="black" d="M1141.67,-216.983C1250.78,-205.699 1382.07,-192.122 1444.12,-185.705"/>
<text text-anchor="middle" x="1250.95" y="-213.6" font-family="Times New Roman,serif" font-size="8.00">OtherMaterialReference</text>
<text text-anchor="middle" x="1436.12" y="-188.305" font-family="Times New Roman,serif" font-size="8.00">0...*</text>
<text text-anchor="middle" x="1133.67" y="-210.583" font-family="Times New Roman,serif" font-size="8.00">0...*</text>
</g>
<!-- QuestionBlock -->
<g id="ItemTypeQuestionBlock1" class="node"><title></title><ellipse fill="#f7b733" stroke="black" cx="41.9749" cy="-520" rx="38.6432" ry="18" style="filter: url(#dropshadow)"/>
<text text-anchor="middle" x="41.9749" y="-518.1" font-family="Times New Roman,serif" font-size="8.00">QuestionBlock</text>
</g>
<!-- QuestionBlock&#45;&gt;QuestionGridProperties -->
<g id="edge26" class="edge"><title>QuestionBlock&#45;&gt;QuestionGridProperties</title>
<path fill="none" stroke="black" d="M78.6972,-514.424C106.85,-510.03 148.541,-503.523 192.291,-496.695"/>
<text text-anchor="middle" x="141.95" y="-512.6" font-family="Times New Roman,serif" font-size="8.00">QuestionGridReference</text>
<text text-anchor="middle" x="184.291" y="-490.295" font-family="Times New Roman,serif" font-size="8.00">0...*</text>
<text text-anchor="middle" x="86.6972" y="-508.024" font-family="Times New Roman,serif" font-size="8.00">0...*</text>
</g>
<!-- QuestionGroup -->
<g id="ItemTypeQuestionGroup2" class="node"><title></title><ellipse fill="#f7b733" stroke="black" cx="41.9749" cy="-466" rx="38.6432" ry="18" style="filter: url(#dropshadow)"/>
<text text-anchor="middle" x="41.9749" y="-464.1" font-family="Times New Roman,serif" font-size="8.00">QuestionGroup</text>
</g>
<!-- QuestionGroup&#45;&gt;QuestionGridProperties -->
<g id="edge27" class="edge"><title>QuestionGroup&#45;&gt;QuestionGridProperties</title>
<path fill="none" stroke="black" d="M80.6589,-466C108.745,-466 149.484,-466 192.192,-466"/>
<text text-anchor="middle" x="141.95" y="-468.6" font-family="Times New Roman,serif" font-size="8.00">QuestionGridReference</text>
<text text-anchor="middle" x="184.192" y="-459.6" font-family="Times New Roman,serif" font-size="8.00">0...*</text>
<text text-anchor="middle" x="88.6589" y="-459.6" font-family="Times New Roman,serif" font-size="8.00">0...*</text>
</g>
<!-- QuestionScheme -->
<g id="ItemTypeQuestionScheme3" class="node"><title></title><ellipse fill="#f7b733" stroke="black" cx="41.9749" cy="-412" rx="41.9498" ry="18" style="filter: url(#dropshadow)"/>
<text text-anchor="middle" x="41.9749" y="-410.1" font-family="Times New Roman,serif" font-size="8.00">QuestionScheme</text>
</g>
<!-- QuestionScheme&#45;&gt;QuestionGridProperties -->
<g id="edge28" class="edge"><title>QuestionScheme&#45;&gt;QuestionGridProperties</title>
<path fill="none" stroke="black" d="M81.6555,-418.037C109.742,-422.421 150.095,-428.719 192.363,-435.317"/>
<text text-anchor="middle" x="141.95" y="-435.6" font-family="Times New Roman,serif" font-size="8.00">QuestionGridReference</text>
<text text-anchor="middle" x="184.363" y="-428.917" font-family="Times New Roman,serif" font-size="8.00">0...*</text>
<text text-anchor="middle" x="89.6555" y="-411.637" font-family="Times New Roman,serif" font-size="8.00">0...*</text>
</g>
</g>
</svg>
