<?xml version="1.0" encoding="UTF-8" standalone="no"?>
<!DOCTYPE svg PUBLIC "-//W3C//DTD SVG 1.1//EN"
 "http://www.w3.org/Graphics/SVG/1.1/DTD/svg11.dtd">
<!-- Generated by graphviz version 2.38.0 (20140413.2041)
 -->
<!-- Title: G Pages: 1 -->
<svg width="440pt" height="211pt"
 viewBox="0.00 0.00 439.63 211.00" xmlns="http://www.w3.org/2000/svg" xmlns:xlink="http://www.w3.org/1999/xlink">
<filter id = "dropshadow" height = "130%" ><feGaussianBlur in= "SourceAlpha" stdDeviation = "3"/><!--stdDeviation is how much to blur--><feOffset dx = "2" dy = "2" result = "offsetblur"/><!--how much to offset--><feMerge><feMergeNode/><!--this contains the offset blurred image--><feMergeNode in= "SourceGraphic"/><!--this contains the element that the filter is applied to --></feMerge></filter>
<g id="graph0" class="graph" transform="scale(1 1) rotate(0) translate(4 207)">
<title>G</title>
<!-- IDType -->
<g id="ReusableTypeIDType" class="node"><title></title><polygon fill="#f7b733" stroke="black" points="301.631,-105 301.631,-141 431.631,-141 431.631,-105 301.631,-105" style="filter: url(#dropshadow)"/>
<text text-anchor="middle" x="323.631" y="-121.1" font-family="Times New Roman,serif" font-size="8.00">IDType</text>
<polyline fill="none" stroke="black" points="345.631,-105 345.631,-141 "/>
<text text-anchor="start" x="353.631" y="-121.1" font-family="Times New Roman,serif" font-size="8.00">Type : string[0...1] </text>
</g>
<!-- ItemMapType -->
<g id="ReusableTypeItemMapType" class="node"><title></title><ellipse fill="#f7b733" stroke="black" cx="82.8153" cy="-185" rx="38.6432" ry="18" style="filter: url(#dropshadow)"/>
<text text-anchor="middle" x="82.8153" y="-183.1" font-family="Times New Roman,serif" font-size="8.00">ItemMapType</text>
</g>
<!-- ItemMapType&#45;&gt;IDType -->
<g id="edge1" class="edge"><title>ItemMapType&#45;&gt;IDType</title>
<path fill="none" stroke="black" d="M121.436,-185.369C162.207,-184.824 228.786,-181.161 283.631,-165 302.195,-159.53 321.53,-149.847 336.759,-141.157"/>
<text text-anchor="middle" x="233.631" y="-184.6" font-family="Times New Roman,serif" font-size="8.00">SourceItem</text>
</g>
<!-- ItemMapType&#45;&gt;IDType -->
<g id="edge2" class="edge"><title>ItemMapType&#45;&gt;IDType</title>
<path fill="none" stroke="black" d="M115.064,-175.019C134.63,-168.995 160.443,-161.455 183.631,-156 222.392,-146.881 266.304,-138.854 301.283,-133"/>
<text text-anchor="middle" x="233.631" y="-158.6" font-family="Times New Roman,serif" font-size="8.00">TargetItem</text>
</g>
<!-- MaintainableObjectType -->
<g id="ReusableTypeMaintainableObjectType" class="node"><title></title><ellipse fill="#f7b733" stroke="black" cx="82.8153" cy="-126" rx="58.3491" ry="18" style="filter: url(#dropshadow)"/>
<text text-anchor="middle" x="82.8153" y="-124.1" font-family="Times New Roman,serif" font-size="8.00">MaintainableObjectType</text>
</g>
<!-- MaintainableObjectType&#45;&gt;IDType -->
<g id="edge3" class="edge"><title>MaintainableObjectType&#45;&gt;IDType</title>
<path fill="none" stroke="black" d="M141.346,-124.704C155.192,-124.432 169.939,-124.175 183.631,-124 222.809,-123.5 266.734,-123.25 301.615,-123.125"/>
<text text-anchor="middle" x="233.631" y="-126.6" font-family="Times New Roman,serif" font-size="8.00">MaintainableID</text>
</g>
<!-- PhysicalStructureLinkReferenceType -->
<g id="ReusableTypePhysicalStructureLinkReferenceType" class="node"><title></title><ellipse fill="#f7b733" stroke="black" cx="82.8153" cy="-72" rx="82.631" ry="18" style="filter: url(#dropshadow)"/>
<text text-anchor="middle" x="82.8153" y="-70.1" font-family="Times New Roman,serif" font-size="8.00">PhysicalStructureLinkReferenceType</text>
</g>
<!-- PhysicalStructureLinkReferenceType&#45;&gt;IDType -->
<g id="edge4" class="edge"><title>PhysicalStructureLinkReferenceType&#45;&gt;IDType</title>
<path fill="none" stroke="black" d="M147.06,-83.4454C193.148,-91.786 255.357,-103.044 301.622,-111.416"/>
<text text-anchor="middle" x="233.631" y="-109.6" font-family="Times New Roman,serif" font-size="8.00">PhysicalRecordSegmentUsed</text>
</g>
<!-- ReferenceType -->
<g id="ReusableTypeReferenceType" class="node"><title></title><ellipse fill="#f7b733" stroke="black" cx="82.8153" cy="-18" rx="39.913" ry="18" style="filter: url(#dropshadow)"/>
<text text-anchor="middle" x="82.8153" y="-16.1" font-family="Times New Roman,serif" font-size="8.00">ReferenceType</text>
</g>
<!-- ReferenceType&#45;&gt;IDType -->
<g id="edge5" class="edge"><title>ReferenceType&#45;&gt;IDType</title>
<path fill="none" stroke="black" d="M118.521,-26.0586C158.993,-35.9921 227.509,-54.4828 283.631,-78 301.753,-85.5939 321.063,-96.0624 336.39,-104.992"/>
<text text-anchor="middle" x="233.631" y="-80.6" font-family="Times New Roman,serif" font-size="8.00">ID</text>
</g>
</g>
</svg>
