<?xml version="1.0" encoding="UTF-8" standalone="no"?>
<!DOCTYPE svg PUBLIC "-//W3C//DTD SVG 1.1//EN"
 "http://www.w3.org/Graphics/SVG/1.1/DTD/svg11.dtd">
<!-- Generated by graphviz version 2.38.0 (20140413.2041)
 -->
<!-- Title: G Pages: 1 -->
<svg width="289pt" height="476pt"
 viewBox="0.00 0.00 289.06 476.00" xmlns="http://www.w3.org/2000/svg" xmlns:xlink="http://www.w3.org/1999/xlink">
<filter id = "dropshadow" height = "130%" ><feGaussianBlur in= "SourceAlpha" stdDeviation = "3"/><!--stdDeviation is how much to blur--><feOffset dx = "2" dy = "2" result = "offsetblur"/><!--how much to offset--><feMerge><feMergeNode/><!--this contains the offset blurred image--><feMergeNode in= "SourceGraphic"/><!--this contains the element that the filter is applied to --></feMerge></filter>
<g id="graph0" class="graph" transform="scale(1 1) rotate(0) translate(4 472)">
<title>G</title>
<!-- ValueType -->
<g id="ReusableTypeValueType" class="node"><title></title><polygon fill="#f7b733" stroke="black" points="208.059,-216 208.059,-252 281.059,-252 281.059,-216 208.059,-216" style="filter: url(#dropshadow)"/>
<text text-anchor="middle" x="235.059" y="-232.1" font-family="Times New Roman,serif" font-size="8.00">ValueType</text>
<polyline fill="none" stroke="black" points="262.059,-216 262.059,-252 "/>
<text text-anchor="middle" x="271.559" y="-232.1" font-family="Times New Roman,serif" font-size="8.00"> </text>
</g>
<!-- AttributeType -->
<g id="ReusableTypeAttributeType" class="node"><title></title><ellipse fill="#f7b733" stroke="black" cx="63.5296" cy="-450" rx="38.0086" ry="18" style="filter: url(#dropshadow)"/>
<text text-anchor="middle" x="63.5296" y="-448.1" font-family="Times New Roman,serif" font-size="8.00">AttributeType</text>
</g>
<!-- AttributeType&#45;&gt;ValueType -->
<g id="edge1" class="edge"><title>AttributeType&#45;&gt;ValueType</title>
<path fill="none" stroke="black" d="M94.3986,-439.248C105.059,-434.862 116.929,-429.325 127.059,-423 158.341,-403.47 168.639,-399.02 190.059,-369 216.563,-331.854 232.333,-279.749 239.298,-252.407"/>
<text text-anchor="middle" x="167.559" y="-412.6" font-family="Times New Roman,serif" font-size="8.00">Value</text>
</g>
<!-- CategoryValueType -->
<g id="ReusableTypeCategoryValueType" class="node"><title></title><ellipse fill="#f7b733" stroke="black" cx="63.5296" cy="-396" rx="48.5642" ry="18" style="filter: url(#dropshadow)"/>
<text text-anchor="middle" x="63.5296" y="-394.1" font-family="Times New Roman,serif" font-size="8.00">CategoryValueType</text>
</g>
<!-- CategoryValueType&#45;&gt;ValueType -->
<g id="edge2" class="edge"><title>CategoryValueType&#45;&gt;ValueType</title>
<path fill="none" stroke="black" d="M98.536,-383.445C108.052,-379.37 118.207,-374.47 127.059,-369 158.186,-349.765 165.802,-343.394 190.059,-316 207.864,-295.893 224.07,-269.37 233.869,-252.01"/>
<text text-anchor="middle" x="167.559" y="-358.6" font-family="Times New Roman,serif" font-size="8.00">Value</text>
</g>
<!-- CodeType -->
<g id="ReusableTypeCodeType" class="node"><title></title><ellipse fill="#f7b733" stroke="black" cx="63.5296" cy="-342" rx="30.1263" ry="18" style="filter: url(#dropshadow)"/>
<text text-anchor="middle" x="63.5296" y="-340.1" font-family="Times New Roman,serif" font-size="8.00">CodeType</text>
</g>
<!-- CodeType&#45;&gt;ValueType -->
<g id="edge3" class="edge"><title>CodeType&#45;&gt;ValueType</title>
<path fill="none" stroke="black" d="M89.3001,-332.363C100.96,-327.56 114.935,-321.415 127.059,-315 161.68,-296.682 198.236,-269.872 220.968,-252.185"/>
<text text-anchor="middle" x="167.559" y="-305.6" font-family="Times New Roman,serif" font-size="8.00">Value</text>
</g>
<!-- DomainSpecificValueType -->
<g id="ReusableTypeDomainSpecificValueType" class="node"><title></title><ellipse fill="#f7b733" stroke="black" cx="63.5296" cy="-288" rx="61.6562" ry="18" style="filter: url(#dropshadow)"/>
<text text-anchor="middle" x="63.5296" y="-286.1" font-family="Times New Roman,serif" font-size="8.00">DomainSpecificValueType</text>
</g>
<!-- DomainSpecificValueType&#45;&gt;ValueType -->
<g id="edge4" class="edge"><title>DomainSpecificValueType&#45;&gt;ValueType</title>
<path fill="none" stroke="black" d="M107.412,-275.066C138.135,-265.799 179.027,-253.465 207.952,-244.74"/>
<text text-anchor="middle" x="167.559" y="-264.6" font-family="Times New Roman,serif" font-size="8.00">Value</text>
</g>
<!-- ItemValueType -->
<g id="ReusableTypeItemValueType" class="node"><title></title><ellipse fill="#f7b733" stroke="black" cx="63.5296" cy="-234" rx="40.0477" ry="18" style="filter: url(#dropshadow)"/>
<text text-anchor="middle" x="63.5296" y="-232.1" font-family="Times New Roman,serif" font-size="8.00">ItemValueType</text>
</g>
<!-- ItemValueType&#45;&gt;ValueType -->
<g id="edge5" class="edge"><title>ItemValueType&#45;&gt;ValueType</title>
<path fill="none" stroke="black" d="M103.818,-234C134.903,-234 177.936,-234 208.006,-234"/>
<text text-anchor="middle" x="167.559" y="-236.6" font-family="Times New Roman,serif" font-size="8.00">Value</text>
</g>
<!-- KeyVariableReferenceType -->
<g id="ReusableTypeKeyVariableReferenceType" class="node"><title></title><ellipse fill="#f7b733" stroke="black" cx="63.5296" cy="-180" rx="63.5591" ry="18" style="filter: url(#dropshadow)"/>
<text text-anchor="middle" x="63.5296" y="-178.1" font-family="Times New Roman,serif" font-size="8.00">KeyVariableReferenceType</text>
</g>
<!-- KeyVariableReferenceType&#45;&gt;ValueType -->
<g id="edge6" class="edge"><title>KeyVariableReferenceType&#45;&gt;ValueType</title>
<path fill="none" stroke="black" d="M107.868,-193.072C138.499,-202.311 179.065,-214.547 207.841,-223.226"/>
<text text-anchor="middle" x="167.559" y="-218.6" font-family="Times New Roman,serif" font-size="8.00">Value</text>
</g>
<!-- ParameterType -->
<g id="ReusableTypeParameterType" class="node"><title></title><ellipse fill="#f7b733" stroke="black" cx="63.5296" cy="-126" rx="40.0477" ry="18" style="filter: url(#dropshadow)"/>
<text text-anchor="middle" x="63.5296" y="-124.1" font-family="Times New Roman,serif" font-size="8.00">ParameterType</text>
</g>
<!-- ParameterType&#45;&gt;ValueType -->
<g id="edge7" class="edge"><title>ParameterType&#45;&gt;ValueType</title>
<path fill="none" stroke="black" d="M94.2111,-137.765C104.742,-142.213 116.576,-147.53 127.059,-153 156.254,-168.235 163.066,-173.137 190.059,-192 200.706,-199.44 212.081,-208.241 221.593,-215.86"/>
<text text-anchor="middle" x="167.559" y="-194.6" font-family="Times New Roman,serif" font-size="8.00">DefaultValue</text>
</g>
<!-- RecordType -->
<g id="ReusableTypeRecordType" class="node"><title></title><ellipse fill="#f7b733" stroke="black" cx="63.5296" cy="-72" rx="33.433" ry="18" style="filter: url(#dropshadow)"/>
<text text-anchor="middle" x="63.5296" y="-70.1" font-family="Times New Roman,serif" font-size="8.00">RecordType</text>
</g>
<!-- RecordType&#45;&gt;ValueType -->
<g id="edge8" class="edge"><title>RecordType&#45;&gt;ValueType</title>
<path fill="none" stroke="black" d="M91.796,-81.8844C103.058,-86.4434 116.031,-92.3285 127.059,-99 157.882,-117.647 166.07,-123.124 190.059,-150 208.365,-170.51 224.57,-197.946 234.222,-215.793"/>
<text text-anchor="middle" x="167.559" y="-152.6" font-family="Times New Roman,serif" font-size="8.00">Value</text>
</g>
<!-- VariableItemType -->
<g id="ReusableTypeVariableItemType0" class="node"><title></title><ellipse fill="#f7b733" stroke="black" cx="63.5296" cy="-18" rx="45.2568" ry="18" style="filter: url(#dropshadow)"/>
<text text-anchor="middle" x="63.5296" y="-16.1" font-family="Times New Roman,serif" font-size="8.00">VariableItemType</text>
</g>
<!-- VariableItemType&#45;&gt;ValueType -->
<g id="edge9" class="edge"><title>VariableItemType&#45;&gt;ValueType</title>
<path fill="none" stroke="black" d="M97.0806,-30.2102C125.84,-42.6704 166.732,-64.7726 190.059,-97 217.307,-134.645 232.853,-188.008 239.563,-215.713"/>
<text text-anchor="middle" x="167.559" y="-99.6" font-family="Times New Roman,serif" font-size="8.00">Value</text>
</g>
</g>
</svg>
