<?xml version="1.0" encoding="UTF-8" standalone="no"?>
<!DOCTYPE svg PUBLIC "-//W3C//DTD SVG 1.1//EN"
 "http://www.w3.org/Graphics/SVG/1.1/DTD/svg11.dtd">
<!-- Generated by graphviz version 2.38.0 (20140413.2041)
 -->
<!-- Title: G Pages: 1 -->
<svg width="1491pt" height="908pt"
 viewBox="0.00 0.00 1491.39 908.00" xmlns="http://www.w3.org/2000/svg" xmlns:xlink="http://www.w3.org/1999/xlink">
<filter id = "dropshadow" height = "130%" ><feGaussianBlur in= "SourceAlpha" stdDeviation = "3"/><!--stdDeviation is how much to blur--><feOffset dx = "2" dy = "2" result = "offsetblur"/><!--how much to offset--><feMerge><feMergeNode/><!--this contains the offset blurred image--><feMergeNode in= "SourceGraphic"/><!--this contains the element that the filter is applied to --></feMerge></filter>
<g id="graph0" class="graph" transform="scale(1 1) rotate(0) translate(4 904)">
<title>G</title>
<g id="clust1" class="cluster"><title>clusterOrganization</title>
<polygon fill="#4abdac" stroke="black" points="327.387,-224 327.387,-711 1475.39,-711 1475.39,-224 327.387,-224" style="filter: url(#dropshadow)"/>
<text text-anchor="middle" x="901.387" y="-700.6" font-family="Times New Roman,serif" font-size="8.00">Organization</text>
</g>
<!-- OrganizationProperties -->
<g id="ItemTypeOrganizationProperties" class="node"><title></title><polygon fill="#f7b733" stroke="black" points="335.387,-410 335.387,-490 639.387,-490 639.387,-410 335.387,-410" style="filter: url(#dropshadow)"/>
<text text-anchor="middle" x="361.887" y="-448.1" font-family="Times New Roman,serif" font-size="8.00">Properties</text>
<polyline fill="none" stroke="black" points="388.387,-410 388.387,-490 "/>
<text text-anchor="start" x="396.387" y="-479.6" font-family="Times New Roman,serif" font-size="8.00">OrganizationIdentification : OrganizationIdentificationType[0...1] </text>
<text text-anchor="start" x="396.387" y="-470.6" font-family="Times New Roman,serif" font-size="8.00">Description : StructuredStringType[0...1] </text>
<text text-anchor="start" x="396.387" y="-461.6" font-family="Times New Roman,serif" font-size="8.00">Keyword : InternationalCodeValueType[0...n] </text>
<text text-anchor="start" x="396.387" y="-452.6" font-family="Times New Roman,serif" font-size="8.00">RegionalCoverage : CodeValueType[0...n] </text>
<text text-anchor="start" x="396.387" y="-443.6" font-family="Times New Roman,serif" font-size="8.00">AdditionalInformation : AdditionalInformationType[0...n] </text>
<text text-anchor="start" x="396.387" y="-434.6" font-family="Times New Roman,serif" font-size="8.00">VersionDistinction : VersionDistinctionType[0...n] </text>
<text text-anchor="start" x="396.387" y="-425.6" font-family="Times New Roman,serif" font-size="8.00">ContactInformation : ContactInformationType[0...n] </text>
<text text-anchor="start" x="396.387" y="-416.6" font-family="Times New Roman,serif" font-size="8.00">Privacy : string[0...1] </text>
</g>
<!-- OrganizationOrganizationIdentificationType -->
<g id="ReusableTypeOrganizationOrganizationIdentificationType" class="node"><title></title><polygon fill="#fc4a1a" stroke="black" points="768.387,-233 768.387,-269 1153.39,-269 1153.39,-233 768.387,-233" style="filter: url(#dropshadow)"/>
<text text-anchor="middle" x="832.387" y="-249.1" font-family="Times New Roman,serif" font-size="8.00">OrganizationIdentificationType</text>
<polyline fill="none" stroke="black" points="896.387,-233 896.387,-269 "/>
<text text-anchor="start" x="904.387" y="-258.1" font-family="Times New Roman,serif" font-size="8.00">OrganizationName : OrganizationNameType[0...n] </text>
<text text-anchor="start" x="904.387" y="-249.1" font-family="Times New Roman,serif" font-size="8.00">DDIMaintenanceAgencyID : DDIMaintenanceAgencyIDType[0...n] </text>
<text text-anchor="start" x="904.387" y="-240.1" font-family="Times New Roman,serif" font-size="8.00">OrganizationImage : PrivateImageType[0...n] </text>
</g>
<!-- OrganizationProperties&#45;&gt;OrganizationOrganizationIdentificationType -->
<g id="edge1" class="edge"><title>OrganizationProperties&#45;&gt;OrganizationOrganizationIdentificationType</title>
<path fill="none" stroke="black" d="M518.811,-409.877C549.441,-372.683 600.239,-319.131 657.387,-292 691.618,-275.749 730.325,-265.377 768.338,-258.868"/>
<text text-anchor="middle" x="703.887" y="-294.6" font-family="Times New Roman,serif" font-size="8.00">OrganizationIdentification</text>
</g>
<!-- OrganizationStructuredStringType -->
<g id="ReusableTypeOrganizationStructuredStringType" class="node"><title></title><polygon fill="#fc4a1a" stroke="black" points="1253.39,-330 1253.39,-366 1466.39,-366 1466.39,-330 1253.39,-330" style="filter: url(#dropshadow)"/>
<text text-anchor="middle" x="1298.39" y="-346.1" font-family="Times New Roman,serif" font-size="8.00">StructuredStringType</text>
<polyline fill="none" stroke="black" points="1343.39,-330 1343.39,-366 "/>
<text text-anchor="start" x="1351.39" y="-346.1" font-family="Times New Roman,serif" font-size="8.00">Content : ContentType[0...n] </text>
</g>
<!-- OrganizationProperties&#45;&gt;OrganizationStructuredStringType -->
<g id="edge2" class="edge"><title>OrganizationProperties&#45;&gt;OrganizationStructuredStringType</title>
<path fill="none" stroke="black" d="M550.422,-409.984C605.253,-377.148 688.682,-333.211 768.387,-315 948.062,-273.947 1166.09,-306.688 1280.34,-329.923"/>
<text text-anchor="middle" x="960.887" y="-317.6" font-family="Times New Roman,serif" font-size="8.00">Description</text>
</g>
<!-- OrganizationInternationalCodeValueType -->
<g id="ReusableTypeOrganizationInternationalCodeValueType" class="node"><title></title><polygon fill="#fc4a1a" stroke="black" points="830.387,-333.5 830.387,-404.5 1091.39,-404.5 1091.39,-333.5 830.387,-333.5" style="filter: url(#dropshadow)"/>
<text text-anchor="middle" x="888.887" y="-367.1" font-family="Times New Roman,serif" font-size="8.00">InternationalCodeValueType</text>
<polyline fill="none" stroke="black" points="947.387,-333.5 947.387,-404.5 "/>
<text text-anchor="start" x="955.387" y="-394.1" font-family="Times New Roman,serif" font-size="8.00">CodeListID : string[0...1] </text>
<text text-anchor="start" x="955.387" y="-385.1" font-family="Times New Roman,serif" font-size="8.00">CodeListName_string : string[0...1] </text>
<text text-anchor="start" x="955.387" y="-376.1" font-family="Times New Roman,serif" font-size="8.00">CodeListAgencyName : string[0...1] </text>
<text text-anchor="start" x="955.387" y="-367.1" font-family="Times New Roman,serif" font-size="8.00">CodeListVersionID : string[0...1] </text>
<text text-anchor="start" x="955.387" y="-358.1" font-family="Times New Roman,serif" font-size="8.00">OtherValue : string[0...1] </text>
<text text-anchor="start" x="955.387" y="-349.1" font-family="Times New Roman,serif" font-size="8.00">CodeListURN : string[0...1] </text>
<text text-anchor="start" x="955.387" y="-340.1" font-family="Times New Roman,serif" font-size="8.00">CodeListSchemeURN : string[0...1] </text>
</g>
<!-- OrganizationProperties&#45;&gt;OrganizationInternationalCodeValueType -->
<g id="edge3" class="edge"><title>OrganizationProperties&#45;&gt;OrganizationInternationalCodeValueType</title>
<path fill="none" stroke="black" d="M639.518,-424.037C700.932,-413.486 771.179,-401.419 830.214,-391.277"/>
<text text-anchor="middle" x="703.887" y="-422.6" font-family="Times New Roman,serif" font-size="8.00">Keyword</text>
</g>
<!-- OrganizationCodeValueType -->
<g id="ReusableTypeOrganizationCodeValueType" class="node"><title></title><polygon fill="#fc4a1a" stroke="black" points="1252.39,-592.5 1252.39,-663.5 1467.39,-663.5 1467.39,-592.5 1252.39,-592.5" style="filter: url(#dropshadow)"/>
<text text-anchor="middle" x="1287.89" y="-626.1" font-family="Times New Roman,serif" font-size="8.00">CodeValueType</text>
<polyline fill="none" stroke="black" points="1323.39,-592.5 1323.39,-663.5 "/>
<text text-anchor="start" x="1331.39" y="-653.1" font-family="Times New Roman,serif" font-size="8.00">CodeListID : string[0...1] </text>
<text text-anchor="start" x="1331.39" y="-644.1" font-family="Times New Roman,serif" font-size="8.00">CodeListName_string : string[0...1] </text>
<text text-anchor="start" x="1331.39" y="-635.1" font-family="Times New Roman,serif" font-size="8.00">CodeListAgencyName : string[0...1] </text>
<text text-anchor="start" x="1331.39" y="-626.1" font-family="Times New Roman,serif" font-size="8.00">CodeListVersionID : string[0...1] </text>
<text text-anchor="start" x="1331.39" y="-617.1" font-family="Times New Roman,serif" font-size="8.00">OtherValue : string[0...1] </text>
<text text-anchor="start" x="1331.39" y="-608.1" font-family="Times New Roman,serif" font-size="8.00">CodeListURN : string[0...1] </text>
<text text-anchor="start" x="1331.39" y="-599.1" font-family="Times New Roman,serif" font-size="8.00">CodeListSchemeURN : string[0...1] </text>
</g>
<!-- OrganizationProperties&#45;&gt;OrganizationCodeValueType -->
<g id="edge4" class="edge"><title>OrganizationProperties&#45;&gt;OrganizationCodeValueType</title>
<path fill="none" stroke="black" d="M527.438,-490.34C577.777,-539.139 670.538,-618.643 768.387,-650 930.926,-702.088 1131.61,-677.18 1252.2,-653.355"/>
<text text-anchor="middle" x="960.887" y="-683.6" font-family="Times New Roman,serif" font-size="8.00">RegionalCoverage</text>
</g>
<!-- OrganizationAdditionalInformationType -->
<g id="ReusableTypeOrganizationAdditionalInformationType" class="node"><title></title><polygon fill="#fc4a1a" stroke="black" points="835.387,-496 835.387,-532 1086.39,-532 1086.39,-496 835.387,-496" style="filter: url(#dropshadow)"/>
<text text-anchor="middle" x="892.387" y="-512.1" font-family="Times New Roman,serif" font-size="8.00">AdditionalInformationType</text>
<polyline fill="none" stroke="black" points="949.387,-496 949.387,-532 "/>
<text text-anchor="start" x="957.387" y="-516.6" font-family="Times New Roman,serif" font-size="8.00">EffectivePeriod : DateType[0...1] </text>
<text text-anchor="start" x="957.387" y="-507.6" font-family="Times New Roman,serif" font-size="8.00">Privacy : string[0...1] </text>
</g>
<!-- OrganizationProperties&#45;&gt;OrganizationAdditionalInformationType -->
<g id="edge5" class="edge"><title>OrganizationProperties&#45;&gt;OrganizationAdditionalInformationType</title>
<path fill="none" stroke="black" d="M639.518,-470.514C702.683,-479.088 775.192,-488.93 835.235,-497.08"/>
<text text-anchor="middle" x="703.887" y="-486.6" font-family="Times New Roman,serif" font-size="8.00">AdditionalInformation</text>
</g>
<!-- OrganizationVersionDistinctionType -->
<g id="ReusableTypeOrganizationVersionDistinctionType" class="node"><title></title><polygon fill="#fc4a1a" stroke="black" points="824.387,-423.5 824.387,-476.5 1097.39,-476.5 1097.39,-423.5 824.387,-423.5" style="filter: url(#dropshadow)"/>
<text text-anchor="middle" x="874.887" y="-448.1" font-family="Times New Roman,serif" font-size="8.00">VersionDistinctionType</text>
<polyline fill="none" stroke="black" points="925.387,-423.5 925.387,-476.5 "/>
<text text-anchor="start" x="933.387" y="-466.1" font-family="Times New Roman,serif" font-size="8.00">VersionDistinctionName : NameType[0...n] </text>
<text text-anchor="start" x="933.387" y="-457.1" font-family="Times New Roman,serif" font-size="8.00">Label : LabelType[0...n] </text>
<text text-anchor="start" x="933.387" y="-448.1" font-family="Times New Roman,serif" font-size="8.00">Description : StructuredStringType[0...1] </text>
<text text-anchor="start" x="933.387" y="-439.1" font-family="Times New Roman,serif" font-size="8.00">EffectivePeriod : DateType[0...1] </text>
<text text-anchor="start" x="933.387" y="-430.1" font-family="Times New Roman,serif" font-size="8.00">RegExp : string[0...1] </text>
</g>
<!-- OrganizationProperties&#45;&gt;OrganizationVersionDistinctionType -->
<g id="edge6" class="edge"><title>OrganizationProperties&#45;&gt;OrganizationVersionDistinctionType</title>
<path fill="none" stroke="black" d="M639.518,-450C698.912,-450 766.567,-450 824.353,-450"/>
<text text-anchor="middle" x="703.887" y="-452.6" font-family="Times New Roman,serif" font-size="8.00">VersionDistinction</text>
</g>
<!-- OrganizationContactInformationType -->
<g id="ReusableTypeOrganizationContactInformationType" class="node"><title></title><polygon fill="#fc4a1a" stroke="black" points="814.887,-551.5 814.887,-640.5 1106.89,-640.5 1106.89,-551.5 814.887,-551.5" style="filter: url(#dropshadow)"/>
<text text-anchor="middle" x="867.887" y="-594.1" font-family="Times New Roman,serif" font-size="8.00">ContactInformationType</text>
<polyline fill="none" stroke="black" points="920.887,-551.5 920.887,-640.5 "/>
<text text-anchor="start" x="928.887" y="-630.1" font-family="Times New Roman,serif" font-size="8.00">LocationName : LocationNameType[0...n] </text>
<text text-anchor="start" x="928.887" y="-621.1" font-family="Times New Roman,serif" font-size="8.00">Address : AddressType[0...n] </text>
<text text-anchor="start" x="928.887" y="-612.1" font-family="Times New Roman,serif" font-size="8.00">Telephone : TelephoneType[0...n] </text>
<text text-anchor="start" x="928.887" y="-603.1" font-family="Times New Roman,serif" font-size="8.00">URL : URLType[0...n] </text>
<text text-anchor="start" x="928.887" y="-594.1" font-family="Times New Roman,serif" font-size="8.00">Email : EmailType[0...n] </text>
<text text-anchor="start" x="928.887" y="-585.1" font-family="Times New Roman,serif" font-size="8.00">InstantMessaging : InstantMessagingType[0...n] </text>
<text text-anchor="start" x="928.887" y="-576.1" font-family="Times New Roman,serif" font-size="8.00">RegionalCoverage : CodeValueType[0...1] </text>
<text text-anchor="start" x="928.887" y="-567.1" font-family="Times New Roman,serif" font-size="8.00">TypeOfLocation : CodeValueType[0...1] </text>
<text text-anchor="start" x="928.887" y="-558.1" font-family="Times New Roman,serif" font-size="8.00">Privacy : string[0...1] </text>
</g>
<!-- OrganizationProperties&#45;&gt;OrganizationContactInformationType -->
<g id="edge7" class="edge"><title>OrganizationProperties&#45;&gt;OrganizationContactInformationType</title>
<path fill="none" stroke="black" d="M608.692,-490.107C658.056,-506.3 715.844,-524.922 768.387,-541 783.354,-545.58 799.013,-550.259 814.652,-554.86"/>
<text text-anchor="middle" x="703.887" y="-536.6" font-family="Times New Roman,serif" font-size="8.00">ContactInformation</text>
</g>
<!-- OrganizationVersionDistinctionType&#45;&gt;OrganizationStructuredStringType -->
<g id="edge8" class="edge"><title>OrganizationVersionDistinctionType&#45;&gt;OrganizationStructuredStringType</title>
<path fill="none" stroke="black" d="M1097.57,-426.674C1116.4,-422.803 1135.43,-418.552 1153.39,-414 1207.14,-400.371 1267.43,-380.442 1308.73,-366.052"/>
<text text-anchor="middle" x="1202.89" y="-411.6" font-family="Times New Roman,serif" font-size="8.00">Description</text>
</g>
<!-- OrganizationContactInformationType&#45;&gt;OrganizationCodeValueType -->
<g id="edge9" class="edge"><title>OrganizationContactInformationType&#45;&gt;OrganizationCodeValueType</title>
<path fill="none" stroke="black" d="M1106.9,-590.082C1148.22,-590.141 1193.19,-591.872 1234.39,-597 1240.24,-597.729 1246.22,-598.64 1252.24,-599.686"/>
<text text-anchor="middle" x="1202.89" y="-599.6" font-family="Times New Roman,serif" font-size="8.00">RegionalCoverage</text>
</g>
<!-- OrganizationContactInformationType&#45;&gt;OrganizationCodeValueType -->
<g id="edge10" class="edge"><title>OrganizationContactInformationType&#45;&gt;OrganizationCodeValueType</title>
<path fill="none" stroke="black" d="M1106.9,-607.689C1154.96,-611.563 1207.55,-615.802 1252.19,-619.4"/>
<text text-anchor="middle" x="1202.89" y="-620.6" font-family="Times New Roman,serif" font-size="8.00">TypeOfLocation</text>
</g>
<!-- OrganizationGroup -->
<g id="ItemTypeOrganizationGroup" class="node"><title></title><ellipse fill="#f7b733" stroke="black" cx="60.6934" cy="-882" rx="47.16" ry="18" style="filter: url(#dropshadow)"/>
<text text-anchor="middle" x="60.6934" y="-880.1" font-family="Times New Roman,serif" font-size="8.00">OrganizationGroup</text>
</g>
<!-- OrganizationGroup&#45;&gt;OrganizationProperties -->
<g id="edge11" class="edge"><title>OrganizationGroup&#45;&gt;OrganizationProperties</title>
<path fill="none" stroke="black" d="M104.982,-888.347C160.096,-893.952 255.568,-895.066 317.387,-848 363.233,-813.096 396.78,-763.342 421.281,-710.781"/>
<text text-anchor="middle" x="228.387" y="-893.6" font-family="Times New Roman,serif" font-size="8.00">OrganizationReference</text>
</g>
<!-- OrganizationScheme -->
<g id="ItemTypeOrganizationScheme0" class="node"><title></title><ellipse fill="#f7b733" stroke="black" cx="60.6934" cy="-828" rx="49.8323" ry="18" style="filter: url(#dropshadow)"/>
<text text-anchor="middle" x="60.6934" y="-826.1" font-family="Times New Roman,serif" font-size="8.00">OrganizationScheme</text>
</g>
<!-- OrganizationScheme&#45;&gt;OrganizationProperties -->
<g id="edge12" class="edge"><title>OrganizationScheme&#45;&gt;OrganizationProperties</title>
<path fill="none" stroke="black" d="M108.45,-833.693C163.677,-837.862 255.804,-836.511 317.387,-792 347.3,-770.379 372.199,-741.964 392.848,-710.738"/>
<text text-anchor="middle" x="228.387" y="-837.6" font-family="Times New Roman,serif" font-size="8.00">OrganizationReference</text>
</g>
<!-- AccessType -->
<g id="ReusableTypeAccessType1" class="node"><title></title><ellipse fill="#f7b733" stroke="black" cx="60.6934" cy="-774" rx="33.433" ry="18" style="filter: url(#dropshadow)"/>
<text text-anchor="middle" x="60.6934" y="-772.1" font-family="Times New Roman,serif" font-size="8.00">AccessType</text>
</g>
<!-- AccessType&#45;&gt;OrganizationProperties -->
<g id="edge13" class="edge"><title>AccessType&#45;&gt;OrganizationProperties</title>
<path fill="none" stroke="black" d="M93.8981,-777.221C145.662,-780.717 248.53,-780.563 317.387,-734 327.663,-727.051 337.409,-719.25 346.64,-710.79"/>
<text text-anchor="middle" x="228.387" y="-781.6" font-family="Times New Roman,serif" font-size="8.00">ContactOrganizationReference_Organization</text>
</g>
<!-- ArchiveSpecificType -->
<g id="ReusableTypeArchiveSpecificType2" class="node"><title></title><ellipse fill="#f7b733" stroke="black" cx="60.6934" cy="-720" rx="51.1011" ry="18" style="filter: url(#dropshadow)"/>
<text text-anchor="middle" x="60.6934" y="-718.1" font-family="Times New Roman,serif" font-size="8.00">ArchiveSpecificType</text>
</g>
<!-- ArchiveSpecificType&#45;&gt;OrganizationProperties -->
<g id="edge14" class="edge"><title>ArchiveSpecificType&#45;&gt;OrganizationProperties</title>
<path fill="none" stroke="black" d="M111.622,-721.729C166.102,-721.348 253.999,-713.898 317.387,-675 320.793,-672.91 324.154,-670.724 327.469,-668.45"/>
<text text-anchor="middle" x="228.387" y="-723.6" font-family="Times New Roman,serif" font-size="8.00">ArchiveOrganizationReference_Organization</text>
</g>
<!-- AuthorizationSourceType -->
<g id="ReusableTypeAuthorizationSourceType3" class="node"><title></title><ellipse fill="#f7b733" stroke="black" cx="60.6934" cy="-666" rx="60.8874" ry="18" style="filter: url(#dropshadow)"/>
<text text-anchor="middle" x="60.6934" y="-664.1" font-family="Times New Roman,serif" font-size="8.00">AuthorizationSourceType</text>
</g>
<!-- AuthorizationSourceType&#45;&gt;OrganizationProperties -->
<g id="edge15" class="edge"><title>AuthorizationSourceType&#45;&gt;OrganizationProperties</title>
<path fill="none" stroke="black" d="M121.245,-664.011C175.225,-660.036 255.555,-648.566 317.387,-616 320.777,-614.214 324.144,-612.339 327.485,-610.383"/>
<text text-anchor="middle" x="228.387" y="-664.6" font-family="Times New Roman,serif" font-size="8.00">AuthorizingAgencyReference_Organization</text>
</g>
<!-- CollectionEventType -->
<g id="ReusableTypeCollectionEventType4" class="node"><title></title><ellipse fill="#f7b733" stroke="black" cx="60.6934" cy="-612" rx="52.3706" ry="18" style="filter: url(#dropshadow)"/>
<text text-anchor="middle" x="60.6934" y="-610.1" font-family="Times New Roman,serif" font-size="8.00">CollectionEventType</text>
</g>
<!-- CollectionEventType&#45;&gt;OrganizationProperties -->
<g id="edge16" class="edge"><title>CollectionEventType&#45;&gt;OrganizationProperties</title>
<path fill="none" stroke="black" d="M110.827,-606.947C163.475,-600.327 248.731,-586.092 317.387,-558 320.837,-556.588 324.294,-555.106 327.751,-553.561"/>
<text text-anchor="middle" x="228.387" y="-605.6" font-family="Times New Roman,serif" font-size="8.00">DataCollectorOrganizationReference_Organization</text>
</g>
<!-- CollectionType -->
<g id="ReusableTypeCollectionType5" class="node"><title></title><ellipse fill="#f7b733" stroke="black" cx="60.6934" cy="-558" rx="40.0477" ry="18" style="filter: url(#dropshadow)"/>
<text text-anchor="middle" x="60.6934" y="-556.1" font-family="Times New Roman,serif" font-size="8.00">CollectionType</text>
</g>
<!-- CollectionType&#45;&gt;OrganizationProperties -->
<g id="edge17" class="edge"><title>CollectionType&#45;&gt;OrganizationProperties</title>
<path fill="none" stroke="black" d="M98.8752,-552.126C148.95,-543.865 240.638,-527.506 317.387,-507 320.72,-506.11 324.082,-505.189 327.466,-504.242"/>
<text text-anchor="middle" x="228.387" y="-547.6" font-family="Times New Roman,serif" font-size="8.00">OriginalArchiveOrganizationReference</text>
</g>
<!-- DataFileVersionType -->
<g id="ReusableTypeDataFileVersionType6" class="node"><title></title><ellipse fill="#f7b733" stroke="black" cx="60.6934" cy="-504" rx="51.7358" ry="18" style="filter: url(#dropshadow)"/>
<text text-anchor="middle" x="60.6934" y="-502.1" font-family="Times New Roman,serif" font-size="8.00">DataFileVersionType</text>
</g>
<!-- DataFileVersionType&#45;&gt;OrganizationProperties -->
<g id="edge18" class="edge"><title>DataFileVersionType&#45;&gt;OrganizationProperties</title>
<path fill="none" stroke="black" d="M109.586,-497.91C162.333,-491.204 249.965,-480.061 327.45,-470.209"/>
<text text-anchor="middle" x="228.387" y="-496.6" font-family="Times New Roman,serif" font-size="8.00">VersionResponsibilityReference_Organization</text>
</g>
<!-- EmbargoType -->
<g id="ReusableTypeEmbargoType7" class="node"><title></title><ellipse fill="#f7b733" stroke="black" cx="60.6934" cy="-450" rx="37.3742" ry="18" style="filter: url(#dropshadow)"/>
<text text-anchor="middle" x="60.6934" y="-448.1" font-family="Times New Roman,serif" font-size="8.00">EmbargoType</text>
</g>
<!-- EmbargoType&#45;&gt;OrganizationProperties -->
<g id="edge19" class="edge"><title>EmbargoType&#45;&gt;OrganizationProperties</title>
<path fill="none" stroke="black" d="M98.2701,-450C149.148,-450 244.44,-450 327.865,-450"/>
<text text-anchor="middle" x="228.387" y="-452.6" font-family="Times New Roman,serif" font-size="8.00">AgencyOrganizationReference</text>
</g>
<!-- EmbargoType&#45;&gt;OrganizationProperties -->
<g id="edge20" class="edge"><title>EmbargoType&#45;&gt;OrganizationProperties</title>
<path fill="none" stroke="black" d="M95.577,-443.077C109.137,-440.635 124.94,-438.2 139.387,-437 200.871,-431.892 268.651,-432.945 327.868,-436.05"/>
<text text-anchor="middle" x="228.387" y="-439.6" font-family="Times New Roman,serif" font-size="8.00">EnforcementAgencyOrganizationReference</text>
</g>
<!-- EvaluatorType -->
<g id="ReusableTypeEvaluatorType8" class="node"><title></title><ellipse fill="#f7b733" stroke="black" cx="60.6934" cy="-396" rx="39.278" ry="18" style="filter: url(#dropshadow)"/>
<text text-anchor="middle" x="60.6934" y="-394.1" font-family="Times New Roman,serif" font-size="8.00">EvaluatorType</text>
</g>
<!-- EvaluatorType&#45;&gt;OrganizationProperties -->
<g id="edge21" class="edge"><title>EvaluatorType&#45;&gt;OrganizationProperties</title>
<path fill="none" stroke="black" d="M99.4841,-398.833C149.468,-402.778 240.249,-410.625 317.387,-421 320.706,-421.446 324.06,-421.91 327.439,-422.387"/>
<text text-anchor="middle" x="228.387" y="-423.6" font-family="Times New Roman,serif" font-size="8.00">EvaluatorReference_Organization</text>
</g>
<!-- FundingInformationType -->
<g id="ReusableTypeFundingInformationType9" class="node"><title></title><ellipse fill="#f7b733" stroke="black" cx="60.6934" cy="-342" rx="59.618" ry="18" style="filter: url(#dropshadow)"/>
<text text-anchor="middle" x="60.6934" y="-340.1" font-family="Times New Roman,serif" font-size="8.00">FundingInformationType</text>
</g>
<!-- FundingInformationType&#45;&gt;OrganizationProperties -->
<g id="edge22" class="edge"><title>FundingInformationType&#45;&gt;OrganizationProperties</title>
<path fill="none" stroke="black" d="M115.125,-349.55C167.234,-357.492 248.484,-371.422 317.387,-390 320.839,-390.931 324.322,-391.899 327.825,-392.899"/>
<text text-anchor="middle" x="228.387" y="-392.6" font-family="Times New Roman,serif" font-size="8.00">AgencyOrganizationReference</text>
</g>
<!-- ItemType -->
<g id="ReusableTypeItemType0" class="node"><title></title><ellipse fill="#f7b733" stroke="black" cx="60.6934" cy="-288" rx="29.4917" ry="18" style="filter: url(#dropshadow)"/>
<text text-anchor="middle" x="60.6934" y="-286.1" font-family="Times New Roman,serif" font-size="8.00">ItemType</text>
</g>
<!-- ItemType&#45;&gt;OrganizationProperties -->
<g id="edge23" class="edge"><title>ItemType&#45;&gt;OrganizationProperties</title>
<path fill="none" stroke="black" d="M89.9209,-290.435C138.124,-295.332 238.722,-308.792 317.387,-341 320.859,-342.422 324.337,-343.916 327.815,-345.474"/>
<text text-anchor="middle" x="228.387" y="-343.6" font-family="Times New Roman,serif" font-size="8.00">OriginalArchiveOrganizationReference</text>
</g>
<!-- LifecycleEventType -->
<g id="ReusableTypeLifecycleEventType1" class="node"><title></title><ellipse fill="#f7b733" stroke="black" cx="60.6934" cy="-234" rx="50.4666" ry="18" style="filter: url(#dropshadow)"/>
<text text-anchor="middle" x="60.6934" y="-232.1" font-family="Times New Roman,serif" font-size="8.00">LifecycleEventType</text>
</g>
<!-- LifecycleEventType&#45;&gt;OrganizationProperties -->
<g id="edge24" class="edge"><title>LifecycleEventType&#45;&gt;OrganizationProperties</title>
<path fill="none" stroke="black" d="M111.093,-235.58C164.723,-239.119 251.517,-250.275 317.387,-285 320.766,-286.782 324.123,-288.652 327.456,-290.602"/>
<text text-anchor="middle" x="228.387" y="-287.6" font-family="Times New Roman,serif" font-size="8.00">AgencyOrganizationReference</text>
</g>
<!-- OperationType -->
<g id="ReusableTypeOperationType2" class="node"><title></title><ellipse fill="#f7b733" stroke="black" cx="60.6934" cy="-180" rx="40.0477" ry="18" style="filter: url(#dropshadow)"/>
<text text-anchor="middle" x="60.6934" y="-178.1" font-family="Times New Roman,serif" font-size="8.00">OperationType</text>
</g>
<!-- OperationType&#45;&gt;OrganizationProperties -->
<g id="edge25" class="edge"><title>OperationType&#45;&gt;OrganizationProperties</title>
<path fill="none" stroke="black" d="M101.185,-178.489C154.266,-178.273 249.762,-184.425 317.387,-226 320.781,-228.087 324.132,-230.269 327.437,-232.539"/>
<text text-anchor="middle" x="228.387" y="-228.6" font-family="Times New Roman,serif" font-size="8.00">AgencyOrganizationReference_Organization</text>
</g>
<!-- PublisherType -->
<g id="ReusableTypePublisherType3" class="node"><title></title><ellipse fill="#f7b733" stroke="black" cx="60.6934" cy="-126" rx="38.0086" ry="18" style="filter: url(#dropshadow)"/>
<text text-anchor="middle" x="60.6934" y="-124.1" font-family="Times New Roman,serif" font-size="8.00">PublisherType</text>
</g>
<!-- PublisherType&#45;&gt;OrganizationProperties -->
<g id="edge26" class="edge"><title>PublisherType&#45;&gt;OrganizationProperties</title>
<path fill="none" stroke="black" d="M98.2083,-122.689C151.204,-119.769 250.402,-121.592 317.387,-167 340.26,-182.505 360.516,-202.229 378.33,-224.03"/>
<text text-anchor="middle" x="228.387" y="-169.6" font-family="Times New Roman,serif" font-size="8.00">PublisherReference</text>
</g>
<!-- SourceObjectType -->
<g id="ReusableTypeSourceObjectType4" class="node"><title></title><ellipse fill="#f7b733" stroke="black" cx="60.6934" cy="-72" rx="45.2568" ry="18" style="filter: url(#dropshadow)"/>
<text text-anchor="middle" x="60.6934" y="-70.1" font-family="Times New Roman,serif" font-size="8.00">SourceObjectType</text>
</g>
<!-- SourceObjectType&#45;&gt;OrganizationProperties -->
<g id="edge27" class="edge"><title>SourceObjectType&#45;&gt;OrganizationProperties</title>
<path fill="none" stroke="black" d="M104.611,-66.8217C159.329,-62.5687 254.377,-63.329 317.387,-109 357.753,-138.258 389.006,-179.893 413.01,-224.067"/>
<text text-anchor="middle" x="228.387" y="-111.6" font-family="Times New Roman,serif" font-size="8.00">OrganizationReference</text>
</g>
<!-- TargetObjectType -->
<g id="ReusableTypeTargetObjectType5" class="node"><title></title><ellipse fill="#f7b733" stroke="black" cx="60.6934" cy="-18" rx="45.891" ry="18" style="filter: url(#dropshadow)"/>
<text text-anchor="middle" x="60.6934" y="-16.1" font-family="Times New Roman,serif" font-size="8.00">TargetObjectType</text>
</g>
<!-- TargetObjectType&#45;&gt;OrganizationProperties -->
<g id="edge28" class="edge"><title>TargetObjectType&#45;&gt;OrganizationProperties</title>
<path fill="none" stroke="black" d="M104.045,-11.955C159.018,-6.52386 255.249,-5.54741 317.387,-53 372.952,-95.4334 410.465,-159.696 435.703,-224.23"/>
<text text-anchor="middle" x="228.387" y="-55.6" font-family="Times New Roman,serif" font-size="8.00">OrganizationReference</text>
</g>
</g>
</svg>
