<?xml version="1.0" encoding="UTF-8" standalone="no"?>
<!DOCTYPE svg PUBLIC "-//W3C//DTD SVG 1.1//EN"
 "http://www.w3.org/Graphics/SVG/1.1/DTD/svg11.dtd">
<!-- Generated by graphviz version 2.38.0 (20140413.2041)
 -->
<!-- Title: G Pages: 1 -->
<svg width="411pt" height="854pt"
 viewBox="0.00 0.00 411.30 854.00" xmlns="http://www.w3.org/2000/svg" xmlns:xlink="http://www.w3.org/1999/xlink">
<filter id = "dropshadow" height = "130%" ><feGaussianBlur in= "SourceAlpha" stdDeviation = "3"/><!--stdDeviation is how much to blur--><feOffset dx = "2" dy = "2" result = "offsetblur"/><!--how much to offset--><feMerge><feMergeNode/><!--this contains the offset blurred image--><feMergeNode in= "SourceGraphic"/><!--this contains the element that the filter is applied to --></feMerge></filter>
<g id="graph0" class="graph" transform="scale(1 1) rotate(0) translate(4 850)">
<title>G</title>
<!-- ResponseCardinalityType -->
<g id="ReusableTypeResponseCardinalityType" class="node"><title></title><polygon fill="#f7b733" stroke="black" points="278.303,-405 278.303,-441 403.303,-441 403.303,-405 278.303,-405" style="filter: url(#dropshadow)"/>
<text text-anchor="middle" x="331.303" y="-421.1" font-family="Times New Roman,serif" font-size="8.00">ResponseCardinalityType</text>
<polyline fill="none" stroke="black" points="384.303,-405 384.303,-441 "/>
<text text-anchor="middle" x="393.803" y="-421.1" font-family="Times New Roman,serif" font-size="8.00"> </text>
</g>
<!-- MeasurementItem -->
<g id="ItemTypeMeasurementItem" class="node"><title></title><ellipse fill="#f7b733" stroke="black" cx="85.6514" cy="-828" rx="45.2568" ry="18" style="filter: url(#dropshadow)"/>
<text text-anchor="middle" x="85.6514" y="-826.1" font-family="Times New Roman,serif" font-size="8.00">MeasurementItem</text>
</g>
<!-- MeasurementItem&#45;&gt;ResponseCardinalityType -->
<g id="edge1" class="edge"><title>MeasurementItem&#45;&gt;ResponseCardinalityType</title>
<path fill="none" stroke="black" d="M130.176,-824.135C170.051,-818.198 227.686,-803.147 260.303,-765 303.186,-714.847 330.396,-504.92 337.772,-441.332"/>
<text text-anchor="middle" x="224.803" y="-811.6" font-family="Times New Roman,serif" font-size="8.00">ResponseCardinality</text>
</g>
<!-- QuestionBlock -->
<g id="ItemTypeQuestionBlock" class="node"><title></title><ellipse fill="#f7b733" stroke="black" cx="85.6514" cy="-774" rx="38.6432" ry="18" style="filter: url(#dropshadow)"/>
<text text-anchor="middle" x="85.6514" y="-772.1" font-family="Times New Roman,serif" font-size="8.00">QuestionBlock</text>
</g>
<!-- QuestionBlock&#45;&gt;ResponseCardinalityType -->
<g id="edge2" class="edge"><title>QuestionBlock&#45;&gt;ResponseCardinalityType</title>
<path fill="none" stroke="black" d="M123.372,-769.795C163.133,-763.238 225.518,-746.759 260.303,-706 328.88,-625.645 338.534,-490.207 339.717,-441.303"/>
<text text-anchor="middle" x="224.803" y="-754.6" font-family="Times New Roman,serif" font-size="8.00">ResponseCardinality</text>
</g>
<!-- QuestionItem -->
<g id="ItemTypeQuestionItem" class="node"><title></title><ellipse fill="#f7b733" stroke="black" cx="85.6514" cy="-720" rx="36.1063" ry="18" style="filter: url(#dropshadow)"/>
<text text-anchor="middle" x="85.6514" y="-718.1" font-family="Times New Roman,serif" font-size="8.00">QuestionItem</text>
</g>
<!-- QuestionItem&#45;&gt;ResponseCardinalityType -->
<g id="edge3" class="edge"><title>QuestionItem&#45;&gt;ResponseCardinalityType</title>
<path fill="none" stroke="black" d="M120.89,-715.184C160.195,-707.842 223.911,-690.08 260.303,-649 315.739,-586.421 333.133,-482.788 338.047,-441.147"/>
<text text-anchor="middle" x="224.803" y="-695.6" font-family="Times New Roman,serif" font-size="8.00">ResponseCardinality</text>
</g>
<!-- CategoryDomainType -->
<g id="ReusableTypeCategoryDomainType" class="node"><title></title><ellipse fill="#f7b733" stroke="black" cx="85.6514" cy="-666" rx="53.7736" ry="18" style="filter: url(#dropshadow)"/>
<text text-anchor="middle" x="85.6514" y="-664.1" font-family="Times New Roman,serif" font-size="8.00">CategoryDomainType</text>
</g>
<!-- CategoryDomainType&#45;&gt;ResponseCardinalityType -->
<g id="edge4" class="edge"><title>CategoryDomainType&#45;&gt;ResponseCardinalityType</title>
<path fill="none" stroke="black" d="M132.334,-656.853C171.17,-646.863 225.948,-627.212 260.303,-591 302.832,-546.172 326.22,-474.402 335.305,-441.083"/>
<text text-anchor="middle" x="224.803" y="-638.6" font-family="Times New Roman,serif" font-size="8.00">ResponseCardinality</text>
</g>
<!-- CodeDomainType -->
<g id="ReusableTypeCodeDomainType" class="node"><title></title><ellipse fill="#f7b733" stroke="black" cx="85.6514" cy="-612" rx="45.2568" ry="18" style="filter: url(#dropshadow)"/>
<text text-anchor="middle" x="85.6514" y="-610.1" font-family="Times New Roman,serif" font-size="8.00">CodeDomainType</text>
</g>
<!-- CodeDomainType&#45;&gt;ResponseCardinalityType -->
<g id="edge5" class="edge"><title>CodeDomainType&#45;&gt;ResponseCardinalityType</title>
<path fill="none" stroke="black" d="M124.692,-602.629C162.688,-591.681 220.955,-570.404 260.303,-535 291.323,-507.089 317.083,-465 330.279,-441.16"/>
<text text-anchor="middle" x="224.803" y="-580.6" font-family="Times New Roman,serif" font-size="8.00">ResponseCardinality</text>
</g>
<!-- DateTimeDomainType -->
<g id="ReusableTypeDateTimeDomainType" class="node"><title></title><ellipse fill="#f7b733" stroke="black" cx="85.6514" cy="-558" rx="55.6769" ry="18" style="filter: url(#dropshadow)"/>
<text text-anchor="middle" x="85.6514" y="-556.1" font-family="Times New Roman,serif" font-size="8.00">DateTimeDomainType</text>
</g>
<!-- DateTimeDomainType&#45;&gt;ResponseCardinalityType -->
<g id="edge6" class="edge"><title>DateTimeDomainType&#45;&gt;ResponseCardinalityType</title>
<path fill="none" stroke="black" d="M128.056,-546.321C141.979,-541.993 157.48,-536.729 171.303,-531 212.437,-513.952 222.809,-509.016 260.303,-485 281.085,-471.689 303.091,-454.232 318.669,-441.235"/>
<text text-anchor="middle" x="224.803" y="-524.6" font-family="Times New Roman,serif" font-size="8.00">ResponseCardinality</text>
</g>
<!-- DistributionDomainType -->
<g id="ReusableTypeDistributionDomainType" class="node"><title></title><ellipse fill="#f7b733" stroke="black" cx="85.6514" cy="-504" rx="58.9835" ry="18" style="filter: url(#dropshadow)"/>
<text text-anchor="middle" x="85.6514" y="-502.1" font-family="Times New Roman,serif" font-size="8.00">DistributionDomainType</text>
</g>
<!-- DistributionDomainType&#45;&gt;ResponseCardinalityType -->
<g id="edge7" class="edge"><title>DistributionDomainType&#45;&gt;ResponseCardinalityType</title>
<path fill="none" stroke="black" d="M128.917,-491.646C164.178,-481.209 215.683,-465.659 260.303,-451 269.756,-447.894 279.797,-444.463 289.446,-441.098"/>
<text text-anchor="middle" x="224.803" y="-474.6" font-family="Times New Roman,serif" font-size="8.00">ResponseCardinality</text>
</g>
<!-- DomainReferenceType -->
<g id="ReusableTypeDomainReferenceType" class="node"><title></title><ellipse fill="#f7b733" stroke="black" cx="85.6514" cy="-450" rx="55.6769" ry="18" style="filter: url(#dropshadow)"/>
<text text-anchor="middle" x="85.6514" y="-448.1" font-family="Times New Roman,serif" font-size="8.00">DomainReferenceType</text>
</g>
<!-- DomainReferenceType&#45;&gt;ResponseCardinalityType -->
<g id="edge8" class="edge"><title>DomainReferenceType&#45;&gt;ResponseCardinalityType</title>
<path fill="none" stroke="black" d="M138.798,-444.438C179.18,-440.131 235.238,-434.152 277.897,-429.603"/>
<text text-anchor="middle" x="224.803" y="-440.6" font-family="Times New Roman,serif" font-size="8.00">ResponseCardinality</text>
</g>
<!-- GeographicLocationCodeDomainType -->
<g id="ReusableTypeGeographicLocationCodeDomainType0" class="node"><title></title><ellipse fill="#f7b733" stroke="black" cx="85.6514" cy="-396" rx="85.8032" ry="18" style="filter: url(#dropshadow)"/>
<text text-anchor="middle" x="85.6514" y="-394.1" font-family="Times New Roman,serif" font-size="8.00">GeographicLocationCodeDomainType</text>
</g>
<!-- GeographicLocationCodeDomainType&#45;&gt;ResponseCardinalityType -->
<g id="edge9" class="edge"><title>GeographicLocationCodeDomainType&#45;&gt;ResponseCardinalityType</title>
<path fill="none" stroke="black" d="M162.262,-404.064C199.269,-408.011 243.252,-412.702 278.182,-416.428"/>
<text text-anchor="middle" x="224.803" y="-416.6" font-family="Times New Roman,serif" font-size="8.00">ResponseCardinality</text>
</g>
<!-- GeographicStructureCodeDomainType -->
<g id="ReusableTypeGeographicStructureCodeDomainType1" class="node"><title></title><ellipse fill="#f7b733" stroke="black" cx="85.6514" cy="-342" rx="85.1685" ry="18" style="filter: url(#dropshadow)"/>
<text text-anchor="middle" x="85.6514" y="-340.1" font-family="Times New Roman,serif" font-size="8.00">GeographicStructureCodeDomainType</text>
</g>
<!-- GeographicStructureCodeDomainType&#45;&gt;ResponseCardinalityType -->
<g id="edge10" class="edge"><title>GeographicStructureCodeDomainType&#45;&gt;ResponseCardinalityType</title>
<path fill="none" stroke="black" d="M137.429,-356.351C172.185,-366.383 219.233,-380.373 260.303,-394 270.482,-397.377 281.321,-401.187 291.614,-404.907"/>
<text text-anchor="middle" x="224.803" y="-396.6" font-family="Times New Roman,serif" font-size="8.00">ResponseCardinality</text>
</g>
<!-- LocationDomainType -->
<g id="ReusableTypeLocationDomainType2" class="node"><title></title><ellipse fill="#f7b733" stroke="black" cx="85.6514" cy="-288" rx="53.7736" ry="18" style="filter: url(#dropshadow)"/>
<text text-anchor="middle" x="85.6514" y="-286.1" font-family="Times New Roman,serif" font-size="8.00">LocationDomainType</text>
</g>
<!-- LocationDomainType&#45;&gt;ResponseCardinalityType -->
<g id="edge11" class="edge"><title>LocationDomainType&#45;&gt;ResponseCardinalityType</title>
<path fill="none" stroke="black" d="M127.167,-299.483C141.307,-303.868 157.169,-309.216 171.303,-315 212.325,-331.788 222.965,-336.114 260.303,-360 281.516,-373.571 303.836,-391.638 319.408,-404.944"/>
<text text-anchor="middle" x="224.803" y="-362.6" font-family="Times New Roman,serif" font-size="8.00">ResponseCardinality</text>
</g>
<!-- NominalDomainType -->
<g id="ReusableTypeNominalDomainType3" class="node"><title></title><ellipse fill="#f7b733" stroke="black" cx="85.6514" cy="-234" rx="52.5056" ry="18" style="filter: url(#dropshadow)"/>
<text text-anchor="middle" x="85.6514" y="-232.1" font-family="Times New Roman,serif" font-size="8.00">NominalDomainType</text>
</g>
<!-- NominalDomainType&#45;&gt;ResponseCardinalityType -->
<g id="edge12" class="edge"><title>NominalDomainType&#45;&gt;ResponseCardinalityType</title>
<path fill="none" stroke="black" d="M129.039,-244.369C167.023,-255.417 222.432,-276.075 260.303,-310 291.569,-338.008 317.239,-380.529 330.353,-404.633"/>
<text text-anchor="middle" x="224.803" y="-312.6" font-family="Times New Roman,serif" font-size="8.00">ResponseCardinality</text>
</g>
<!-- NumericDomainType -->
<g id="ReusableTypeNumericDomainType4" class="node"><title></title><ellipse fill="#f7b733" stroke="black" cx="85.6514" cy="-180" rx="52.3706" ry="18" style="filter: url(#dropshadow)"/>
<text text-anchor="middle" x="85.6514" y="-178.1" font-family="Times New Roman,serif" font-size="8.00">NumericDomainType</text>
</g>
<!-- NumericDomainType&#45;&gt;ResponseCardinalityType -->
<g id="edge13" class="edge"><title>NumericDomainType&#45;&gt;ResponseCardinalityType</title>
<path fill="none" stroke="black" d="M131.906,-188.516C170.736,-198.021 225.743,-217.043 260.303,-253 303.653,-298.102 326.697,-371.176 335.509,-404.894"/>
<text text-anchor="middle" x="224.803" y="-255.6" font-family="Times New Roman,serif" font-size="8.00">ResponseCardinality</text>
</g>
<!-- RankingDomainType -->
<g id="ReusableTypeRankingDomainType5" class="node"><title></title><ellipse fill="#f7b733" stroke="black" cx="85.6514" cy="-126" rx="52.3706" ry="18" style="filter: url(#dropshadow)"/>
<text text-anchor="middle" x="85.6514" y="-124.1" font-family="Times New Roman,serif" font-size="8.00">RankingDomainType</text>
</g>
<!-- RankingDomainType&#45;&gt;ResponseCardinalityType -->
<g id="edge14" class="edge"><title>RankingDomainType&#45;&gt;ResponseCardinalityType</title>
<path fill="none" stroke="black" d="M134.181,-133.005C173.37,-141.238 227.647,-158.706 260.303,-195 316.802,-257.793 333.613,-362.992 338.21,-404.937"/>
<text text-anchor="middle" x="224.803" y="-197.6" font-family="Times New Roman,serif" font-size="8.00">ResponseCardinality</text>
</g>
<!-- ScaleDomainType -->
<g id="ReusableTypeScaleDomainType6" class="node"><title></title><ellipse fill="#f7b733" stroke="black" cx="85.6514" cy="-72" rx="45.2568" ry="18" style="filter: url(#dropshadow)"/>
<text text-anchor="middle" x="85.6514" y="-70.1" font-family="Times New Roman,serif" font-size="8.00">ScaleDomainType</text>
</g>
<!-- ScaleDomainType&#45;&gt;ResponseCardinalityType -->
<g id="edge15" class="edge"><title>ScaleDomainType&#45;&gt;ResponseCardinalityType</title>
<path fill="none" stroke="black" d="M129.537,-76.5851C169.239,-83.1445 227.009,-98.9774 260.303,-137 330.75,-217.452 339.226,-355.382 339.909,-404.757"/>
<text text-anchor="middle" x="224.803" y="-139.6" font-family="Times New Roman,serif" font-size="8.00">ResponseCardinality</text>
</g>
<!-- TextDomainType -->
<g id="ReusableTypeTextDomainType7" class="node"><title></title><ellipse fill="#f7b733" stroke="black" cx="85.6514" cy="-18" rx="45.2568" ry="18" style="filter: url(#dropshadow)"/>
<text text-anchor="middle" x="85.6514" y="-16.1" font-family="Times New Roman,serif" font-size="8.00">TextDomainType</text>
</g>
<!-- TextDomainType&#45;&gt;ResponseCardinalityType -->
<g id="edge16" class="edge"><title>TextDomainType&#45;&gt;ResponseCardinalityType</title>
<path fill="none" stroke="black" d="M130.456,-21.4441C170.243,-26.9806 227.565,-41.4092 260.303,-79 303.981,-129.153 330.734,-341.452 337.871,-404.973"/>
<text text-anchor="middle" x="224.803" y="-81.6" font-family="Times New Roman,serif" font-size="8.00">ResponseCardinality</text>
</g>
</g>
</svg>
