<?xml version="1.0" encoding="UTF-8" standalone="no"?>
<!DOCTYPE svg PUBLIC "-//W3C//DTD SVG 1.1//EN"
 "http://www.w3.org/Graphics/SVG/1.1/DTD/svg11.dtd">
<!-- Generated by graphviz version 2.38.0 (20140413.2041)
 -->
<!-- Title: G Pages: 1 -->
<svg width="526pt" height="422pt"
 viewBox="0.00 0.00 525.67 422.00" xmlns="http://www.w3.org/2000/svg" xmlns:xlink="http://www.w3.org/1999/xlink">
<filter id = "dropshadow" height = "130%" ><feGaussianBlur in= "SourceAlpha" stdDeviation = "3"/><!--stdDeviation is how much to blur--><feOffset dx = "2" dy = "2" result = "offsetblur"/><!--how much to offset--><feMerge><feMergeNode/><!--this contains the offset blurred image--><feMergeNode in= "SourceGraphic"/><!--this contains the element that the filter is applied to --></feMerge></filter>
<g id="graph0" class="graph" transform="scale(1 1) rotate(0) translate(4 418)">
<title>G</title>
<!-- Maintainable -->
<g id="ItemTypeMaintainable" class="node"><title></title><polygon fill="#f7b733" stroke="black" points="330.673,-189 330.673,-225 517.673,-225 517.673,-189 330.673,-189" style="filter: url(#dropshadow)"/>
<text text-anchor="middle" x="361.673" y="-205.1" font-family="Times New Roman,serif" font-size="8.00">Maintainable</text>
<polyline fill="none" stroke="black" points="392.673,-189 392.673,-225 "/>
<text text-anchor="start" x="400.673" y="-205.1" font-family="Times New Roman,serif" font-size="8.00">IsMaintainable : boolean[0...1] </text>
</g>
<!-- DevelopmentPlan -->
<g id="ItemTypeDevelopmentPlan" class="node"><title></title><ellipse fill="#f7b733" stroke="black" cx="70.3363" cy="-396" rx="45.2568" ry="18" style="filter: url(#dropshadow)"/>
<text text-anchor="middle" x="70.3363" y="-394.1" font-family="Times New Roman,serif" font-size="8.00">DevelopmentPlan</text>
</g>
<!-- DevelopmentPlan&#45;&gt;Maintainable -->
<g id="edge1" class="edge"><title>DevelopmentPlan&#45;&gt;Maintainable</title>
<path fill="none" stroke="black" d="M115.281,-399.516C166.448,-401.495 251.714,-398.057 312.673,-361 366.52,-328.266 401.639,-258.331 415.918,-225.168"/>
<text text-anchor="middle" x="235.673" y="-401.6" font-family="Times New Roman,serif" font-size="8.00">DevelopmentObjectReference_Maintainable</text>
</g>
<!-- GenericMap -->
<g id="ItemTypeGenericMap" class="node"><title></title><ellipse fill="#f7b733" stroke="black" cx="70.3363" cy="-342" rx="33.433" ry="18" style="filter: url(#dropshadow)"/>
<text text-anchor="middle" x="70.3363" y="-340.1" font-family="Times New Roman,serif" font-size="8.00">GenericMap</text>
</g>
<!-- GenericMap&#45;&gt;Maintainable -->
<g id="edge2" class="edge"><title>GenericMap&#45;&gt;Maintainable</title>
<path fill="none" stroke="black" d="M103.234,-345.824C151.223,-350.14 243.707,-352.784 312.673,-320 357.279,-298.796 393.787,-251.544 411.533,-225.358"/>
<text text-anchor="middle" x="235.673" y="-350.6" font-family="Times New Roman,serif" font-size="8.00">SourceSchemeReference</text>
</g>
<!-- GenericMap&#45;&gt;Maintainable -->
<g id="edge3" class="edge"><title>GenericMap&#45;&gt;Maintainable</title>
<path fill="none" stroke="black" d="M97.7305,-331.327C114.871,-324.723 137.823,-316.487 158.673,-311 225.873,-293.316 248.431,-310.488 312.673,-284 347.476,-269.65 382.208,-242.894 403.194,-225.013"/>
<text text-anchor="middle" x="235.673" y="-313.6" font-family="Times New Roman,serif" font-size="8.00">TargetSchemeReference</text>
</g>
<!-- BasedOnObjectType -->
<g id="ReusableTypeBasedOnObjectType" class="node"><title></title><ellipse fill="#f7b733" stroke="black" cx="70.3363" cy="-288" rx="49.8323" ry="18" style="filter: url(#dropshadow)"/>
<text text-anchor="middle" x="70.3363" y="-286.1" font-family="Times New Roman,serif" font-size="8.00">BasedOnObjectType</text>
</g>
<!-- BasedOnObjectType&#45;&gt;Maintainable -->
<g id="edge4" class="edge"><title>BasedOnObjectType&#45;&gt;Maintainable</title>
<path fill="none" stroke="black" d="M116.094,-280.397C164.755,-271.829 244.676,-256.876 312.673,-240 330.258,-235.635 349.22,-230.233 366.387,-225.071"/>
<text text-anchor="middle" x="235.673" y="-273.6" font-family="Times New Roman,serif" font-size="8.00">BasedOnReference_Maintainable</text>
</g>
<!-- DevelopmentProcessStepType -->
<g id="ReusableTypeDevelopmentProcessStepType" class="node"><title></title><ellipse fill="#f7b733" stroke="black" cx="70.3363" cy="-234" rx="70.173" ry="18" style="filter: url(#dropshadow)"/>
<text text-anchor="middle" x="70.3363" y="-232.1" font-family="Times New Roman,serif" font-size="8.00">DevelopmentProcessStepType</text>
</g>
<!-- DevelopmentProcessStepType&#45;&gt;Maintainable -->
<g id="edge5" class="edge"><title>DevelopmentProcessStepType&#45;&gt;Maintainable</title>
<path fill="none" stroke="black" d="M138.722,-229.614C187.138,-226.375 253.954,-221.725 312.673,-217 318.529,-216.529 324.558,-216.028 330.636,-215.511"/>
<text text-anchor="middle" x="235.673" y="-229.6" font-family="Times New Roman,serif" font-size="8.00">DevelopmentObjectReference_Maintainable</text>
</g>
<!-- ItemMapType -->
<g id="ReusableTypeItemMapType" class="node"><title></title><ellipse fill="#f7b733" stroke="black" cx="70.3363" cy="-180" rx="38.6432" ry="18" style="filter: url(#dropshadow)"/>
<text text-anchor="middle" x="70.3363" y="-178.1" font-family="Times New Roman,serif" font-size="8.00">ItemMapType</text>
</g>
<!-- ItemMapType&#45;&gt;Maintainable -->
<g id="edge6" class="edge"><title>ItemMapType&#45;&gt;Maintainable</title>
<path fill="none" stroke="black" d="M108.656,-182.864C161.005,-186.881 257.946,-194.32 330.423,-199.882"/>
<text text-anchor="middle" x="235.673" y="-200.6" font-family="Times New Roman,serif" font-size="8.00">SourceItemReference_Maintainable</text>
</g>
<!-- ItemMapType&#45;&gt;Maintainable -->
<g id="edge7" class="edge"><title>ItemMapType&#45;&gt;Maintainable</title>
<path fill="none" stroke="black" d="M108.723,-177.911C124.179,-177.146 142.284,-176.375 158.673,-176 227.099,-174.434 244.867,-166.669 312.673,-176 331.72,-178.621 352.109,-183.671 370.122,-188.946"/>
<text text-anchor="middle" x="235.673" y="-178.6" font-family="Times New Roman,serif" font-size="8.00">TargetItemReference_Maintainable</text>
</g>
<!-- LinkingMapType -->
<g id="ReusableTypeLinkingMapType" class="node"><title></title><ellipse fill="#f7b733" stroke="black" cx="70.3363" cy="-126" rx="44.4889" ry="18" style="filter: url(#dropshadow)"/>
<text text-anchor="middle" x="70.3363" y="-124.1" font-family="Times New Roman,serif" font-size="8.00">LinkingMapType</text>
</g>
<!-- LinkingMapType&#45;&gt;Maintainable -->
<g id="edge8" class="edge"><title>LinkingMapType&#45;&gt;Maintainable</title>
<path fill="none" stroke="black" d="M114.367,-128.002C163.224,-131.121 244.937,-138.917 312.673,-158 339.336,-165.512 367.881,-178.304 389.279,-188.935"/>
<text text-anchor="middle" x="235.673" y="-160.6" font-family="Times New Roman,serif" font-size="8.00">LocalObjectReference_Maintainable</text>
</g>
<!-- LinkingMapType&#45;&gt;Maintainable -->
<g id="edge9" class="edge"><title>LinkingMapType&#45;&gt;Maintainable</title>
<path fill="none" stroke="black" d="M108.583,-116.597C157.111,-106.155 243.881,-93.7415 312.673,-118 352.397,-132.008 388.355,-167.013 407.854,-188.713"/>
<text text-anchor="middle" x="235.673" y="-120.6" font-family="Times New Roman,serif" font-size="8.00">DepositoryObjectReference_Maintainable</text>
</g>
<!-- RelationshipType -->
<g id="ReusableTypeRelationshipType" class="node"><title></title><ellipse fill="#f7b733" stroke="black" cx="70.3363" cy="-72" rx="44.6228" ry="18" style="filter: url(#dropshadow)"/>
<text text-anchor="middle" x="70.3363" y="-70.1" font-family="Times New Roman,serif" font-size="8.00">RelationshipType</text>
</g>
<!-- RelationshipType&#45;&gt;Maintainable -->
<g id="edge10" class="edge"><title>RelationshipType&#45;&gt;Maintainable</title>
<path fill="none" stroke="black" d="M112.909,-66.3373C162.916,-61.4396 248.179,-59.3056 312.673,-90 358.588,-111.852 395.068,-161.769 412.321,-188.801"/>
<text text-anchor="middle" x="235.673" y="-92.6" font-family="Times New Roman,serif" font-size="8.00">RelatedToReference_Maintainable</text>
</g>
<!-- ResourceUsedType -->
<g id="ReusableTypeResourceUsedType" class="node"><title></title><ellipse fill="#f7b733" stroke="black" cx="70.3363" cy="-18" rx="47.16" ry="18" style="filter: url(#dropshadow)"/>
<text text-anchor="middle" x="70.3363" y="-16.1" font-family="Times New Roman,serif" font-size="8.00">ResourceUsedType</text>
</g>
<!-- ResourceUsedType&#45;&gt;Maintainable -->
<g id="edge11" class="edge"><title>ResourceUsedType&#45;&gt;Maintainable</title>
<path fill="none" stroke="black" d="M116.212,-13.6775C167.49,-10.9391 252.122,-13.3189 312.673,-50 367.551,-83.2448 402.378,-155.266 416.279,-188.949"/>
<text text-anchor="middle" x="235.673" y="-52.6" font-family="Times New Roman,serif" font-size="8.00">ResourceObjectReference_Maintainable</text>
</g>
</g>
</svg>
