<?xml version="1.0" encoding="UTF-8" standalone="no"?>
<!DOCTYPE svg PUBLIC "-//W3C//DTD SVG 1.1//EN"
 "http://www.w3.org/Graphics/SVG/1.1/DTD/svg11.dtd">
<!-- Generated by graphviz version 2.38.0 (20140413.2041)
 -->
<!-- Title: G Pages: 1 -->
<svg width="1032pt" height="1394pt"
 viewBox="0.00 0.00 1032.30 1394.00" xmlns="http://www.w3.org/2000/svg" xmlns:xlink="http://www.w3.org/1999/xlink">
<filter id = "dropshadow" height = "130%" ><feGaussianBlur in= "SourceAlpha" stdDeviation = "3"/><!--stdDeviation is how much to blur--><feOffset dx = "2" dy = "2" result = "offsetblur"/><!--how much to offset--><feMerge><feMergeNode/><!--this contains the offset blurred image--><feMergeNode in= "SourceGraphic"/><!--this contains the element that the filter is applied to --></feMerge></filter>
<g id="graph0" class="graph" transform="scale(1 1) rotate(0) translate(4 1390)">
<title>G</title>
<g id="clust1" class="cluster"><title>clusterParameterType</title>
<polygon fill="#4abdac" stroke="black" points="293.303,-665 293.303,-927 1016.3,-927 1016.3,-665 293.303,-665" style="filter: url(#dropshadow)"/>
<text text-anchor="middle" x="654.803" y="-916.6" font-family="Times New Roman,serif" font-size="8.00">ParameterType</text>
</g>
<!-- ParameterTypeProperties -->
<g id="ReusableTypeParameterTypeProperties" class="node"><title></title><polygon fill="#f7b733" stroke="black" points="301.303,-711.5 301.303,-782.5 590.303,-782.5 590.303,-711.5 301.303,-711.5" style="filter: url(#dropshadow)"/>
<text text-anchor="middle" x="327.803" y="-745.1" font-family="Times New Roman,serif" font-size="8.00">Properties</text>
<polyline fill="none" stroke="black" points="354.303,-711.5 354.303,-782.5 "/>
<text text-anchor="start" x="362.303" y="-772.1" font-family="Times New Roman,serif" font-size="8.00">ParameterName : NameType[0...n] </text>
<text text-anchor="start" x="362.303" y="-763.1" font-family="Times New Roman,serif" font-size="8.00">Alias : string[0...1] </text>
<text text-anchor="start" x="362.303" y="-754.1" font-family="Times New Roman,serif" font-size="8.00">Description : StructuredStringType[0...1] </text>
<text text-anchor="start" x="362.303" y="-745.1" font-family="Times New Roman,serif" font-size="8.00">ValueRepresentation : RepresentationType[0...1] </text>
<text text-anchor="start" x="362.303" y="-736.1" font-family="Times New Roman,serif" font-size="8.00">ValueRepresentationReference : ManagedRepresentation[0...1] </text>
<text text-anchor="start" x="362.303" y="-727.1" font-family="Times New Roman,serif" font-size="8.00">DefaultValue : ValueType[0...1] </text>
<text text-anchor="start" x="362.303" y="-718.1" font-family="Times New Roman,serif" font-size="8.00">IsArray : boolean[0...1] </text>
</g>
<!-- ParameterTypeNameType -->
<g id="ReusableTypeParameterTypeNameType" class="node"><title></title><polygon fill="#fc4a1a" stroke="black" points="785.803,-674 785.803,-710 954.803,-710 954.803,-674 785.803,-674" style="filter: url(#dropshadow)"/>
<text text-anchor="middle" x="813.803" y="-690.1" font-family="Times New Roman,serif" font-size="8.00">NameType</text>
<polyline fill="none" stroke="black" points="841.803,-674 841.803,-710 "/>
<text text-anchor="start" x="849.803" y="-694.6" font-family="Times New Roman,serif" font-size="8.00">IsPreferred : boolean[0...1] </text>
<text text-anchor="start" x="849.803" y="-685.6" font-family="Times New Roman,serif" font-size="8.00">Context : string[0...1] </text>
</g>
<!-- ParameterTypeProperties&#45;&gt;ParameterTypeNameType -->
<g id="edge1" class="edge"><title>ParameterTypeProperties&#45;&gt;ParameterTypeNameType</title>
<path fill="none" stroke="black" d="M590.432,-728.303C655.381,-719.848 729.865,-710.152 785.507,-702.908"/>
<text text-anchor="middle" x="661.303" y="-727.6" font-family="Times New Roman,serif" font-size="8.00">ParameterName</text>
</g>
<!-- ParameterTypeStructuredStringType -->
<g id="ReusableTypeParameterTypeStructuredStringType" class="node"><title></title><polygon fill="#fc4a1a" stroke="black" points="763.803,-729 763.803,-765 976.803,-765 976.803,-729 763.803,-729" style="filter: url(#dropshadow)"/>
<text text-anchor="middle" x="808.803" y="-745.1" font-family="Times New Roman,serif" font-size="8.00">StructuredStringType</text>
<polyline fill="none" stroke="black" points="853.803,-729 853.803,-765 "/>
<text text-anchor="start" x="861.803" y="-745.1" font-family="Times New Roman,serif" font-size="8.00">Content : ContentType[0...n] </text>
</g>
<!-- ParameterTypeProperties&#45;&gt;ParameterTypeStructuredStringType -->
<g id="edge2" class="edge"><title>ParameterTypeProperties&#45;&gt;ParameterTypeStructuredStringType</title>
<path fill="none" stroke="black" d="M590.432,-747C647.248,-747 711.359,-747 763.772,-747"/>
<text text-anchor="middle" x="661.303" y="-749.6" font-family="Times New Roman,serif" font-size="8.00">Description</text>
</g>
<!-- ParameterTypeRepresentationType -->
<g id="ReusableTypeParameterTypeRepresentationType" class="node"><title></title><polygon fill="#fc4a1a" stroke="black" points="732.303,-784 732.303,-846 1008.3,-846 1008.3,-784 732.303,-784" style="filter: url(#dropshadow)"/>
<text text-anchor="middle" x="776.303" y="-813.1" font-family="Times New Roman,serif" font-size="8.00">RepresentationType</text>
<polyline fill="none" stroke="black" points="820.303,-784 820.303,-846 "/>
<text text-anchor="start" x="828.303" y="-835.6" font-family="Times New Roman,serif" font-size="8.00">RecommendedDataType : CodeValueType[0...1] </text>
<text text-anchor="start" x="828.303" y="-826.6" font-family="Times New Roman,serif" font-size="8.00">GenericOutputFormat : CodeValueType[0...1] </text>
<text text-anchor="start" x="828.303" y="-817.6" font-family="Times New Roman,serif" font-size="8.00">MeasurementUnit : CodeValueType[0...1] </text>
<text text-anchor="start" x="828.303" y="-808.6" font-family="Times New Roman,serif" font-size="8.00">MissingValue : string[0...1] </text>
<text text-anchor="start" x="828.303" y="-799.6" font-family="Times New Roman,serif" font-size="8.00">BlankIsMissingValue : boolean[0...1] </text>
<text text-anchor="start" x="828.303" y="-790.6" font-family="Times New Roman,serif" font-size="8.00">ClassificationLevel : string[0...1] </text>
</g>
<!-- ParameterTypeProperties&#45;&gt;ParameterTypeRepresentationType -->
<g id="edge3" class="edge"><title>ParameterTypeProperties&#45;&gt;ParameterTypeRepresentationType</title>
<path fill="none" stroke="black" d="M590.432,-770.117C636.243,-777.49 686.798,-785.626 732.139,-792.924"/>
<text text-anchor="middle" x="661.303" y="-792.6" font-family="Times New Roman,serif" font-size="8.00">ValueRepresentation</text>
</g>
<!-- ManagedRepresentation -->
<g id="ItemTypeManagedRepresentation" class="node"><title></title><ellipse fill="#f7b733" stroke="black" cx="870.303" cy="-637" rx="56.9465" ry="18" style="filter: url(#dropshadow)"/>
<text text-anchor="middle" x="870.303" y="-635.1" font-family="Times New Roman,serif" font-size="8.00">ManagedRepresentation</text>
</g>
<!-- ParameterTypeProperties&#45;&gt;ManagedRepresentation -->
<g id="edge4" class="edge"><title>ParameterTypeProperties&#45;&gt;ManagedRepresentation</title>
<path fill="none" stroke="black" d="M553.761,-711.48C607.015,-694.642 672.618,-675.164 732.303,-661 760.614,-654.282 792.626,-648.57 818.584,-644.407"/>
<text text-anchor="middle" x="661.303" y="-696.6" font-family="Times New Roman,serif" font-size="8.00">ValueRepresentationReference</text>
<text text-anchor="middle" x="810.584" y="-638.007" font-family="Times New Roman,serif" font-size="8.00">0...*</text>
<text text-anchor="middle" x="545.761" y="-705.08" font-family="Times New Roman,serif" font-size="8.00">0...*</text>
</g>
<!-- ParameterTypeValueType -->
<g id="ReusableTypeParameterTypeValueType" class="node"><title></title><polygon fill="#fc4a1a" stroke="black" points="833.803,-865 833.803,-901 906.803,-901 906.803,-865 833.803,-865" style="filter: url(#dropshadow)"/>
<text text-anchor="middle" x="860.803" y="-881.1" font-family="Times New Roman,serif" font-size="8.00">ValueType</text>
<polyline fill="none" stroke="black" points="887.803,-865 887.803,-901 "/>
<text text-anchor="middle" x="897.303" y="-881.1" font-family="Times New Roman,serif" font-size="8.00"> </text>
</g>
<!-- ParameterTypeProperties&#45;&gt;ParameterTypeValueType -->
<g id="edge5" class="edge"><title>ParameterTypeProperties&#45;&gt;ParameterTypeValueType</title>
<path fill="none" stroke="black" d="M530.241,-782.614C586.542,-805.634 662.943,-834.933 732.303,-855 766.234,-864.817 805.85,-872.519 833.728,-877.34"/>
<text text-anchor="middle" x="661.303" y="-850.6" font-family="Times New Roman,serif" font-size="8.00">DefaultValue</text>
<text text-anchor="middle" x="825.728" y="-870.94" font-family="Times New Roman,serif" font-size="8.00">0...*</text>
<text text-anchor="middle" x="522.241" y="-785.214" font-family="Times New Roman,serif" font-size="8.00">0...*</text>
</g>
<!-- ComputationItem -->
<g id="ItemTypeComputationItem" class="node"><title></title><ellipse fill="#f7b733" stroke="black" cx="85.6514" cy="-1368" rx="44.6228" ry="18" style="filter: url(#dropshadow)"/>
<text text-anchor="middle" x="85.6514" y="-1366.1" font-family="Times New Roman,serif" font-size="8.00">ComputationItem</text>
</g>
<!-- ComputationItem&#45;&gt;ParameterTypeProperties -->
<g id="edge6" class="edge"><title>ComputationItem&#45;&gt;ParameterTypeProperties</title>
<path fill="none" stroke="black" d="M130.09,-1370.34C174.356,-1370.26 242.183,-1363 283.303,-1324 340.884,-1269.38 387.199,-1074.88 415.222,-926.653"/>
<text text-anchor="middle" x="236.303" y="-1368.6" font-family="Times New Roman,serif" font-size="8.00">AssignedVariableReference</text>
<text text-anchor="middle" x="423.222" y="-920.253" font-family="Times New Roman,serif" font-size="8.00">0...*</text>
<text text-anchor="middle" x="138.09" y="-1363.94" font-family="Times New Roman,serif" font-size="8.00">0...*</text>
</g>
<!-- ControlConstruct -->
<g id="ItemTypeControlConstruct" class="node"><title></title><ellipse fill="#f7b733" stroke="black" cx="85.6514" cy="-1314" rx="43.8539" ry="18" style="filter: url(#dropshadow)"/>
<text text-anchor="middle" x="85.6514" y="-1312.1" font-family="Times New Roman,serif" font-size="8.00">ControlConstruct</text>
</g>
<!-- ControlConstruct&#45;&gt;ParameterTypeProperties -->
<g id="edge7" class="edge"><title>ControlConstruct&#45;&gt;ParameterTypeProperties</title>
<path fill="none" stroke="black" d="M129.489,-1315.87C173.587,-1315.4 241.577,-1307.7 283.303,-1269 377.667,-1181.47 417.37,-1040.09 433.847,-926.532"/>
<text text-anchor="middle" x="236.303" y="-1313.6" font-family="Times New Roman,serif" font-size="8.00">OutParameter</text>
<text text-anchor="middle" x="441.847" y="-920.132" font-family="Times New Roman,serif" font-size="8.00">0...*</text>
<text text-anchor="middle" x="137.489" y="-1309.47" font-family="Times New Roman,serif" font-size="8.00">0...*</text>
</g>
<!-- Loop -->
<g id="ItemTypeLoop" class="node"><title></title><ellipse fill="#f7b733" stroke="black" cx="85.6514" cy="-1260" rx="27" ry="18" style="filter: url(#dropshadow)"/>
<text text-anchor="middle" x="85.6514" y="-1258.1" font-family="Times New Roman,serif" font-size="8.00">Loop</text>
</g>
<!-- Loop&#45;&gt;ParameterTypeProperties -->
<g id="edge8" class="edge"><title>Loop&#45;&gt;ParameterTypeProperties</title>
<path fill="none" stroke="black" d="M112.86,-1261.38C154.324,-1262.09 235.262,-1257.32 283.303,-1214 364.431,-1140.84 404.809,-1024.91 424.904,-926.86"/>
<text text-anchor="middle" x="236.303" y="-1258.6" font-family="Times New Roman,serif" font-size="8.00">LoopVariableReference</text>
<text text-anchor="middle" x="416.904" y="-929.46" font-family="Times New Roman,serif" font-size="8.00">0...*</text>
<text text-anchor="middle" x="120.86" y="-1254.98" font-family="Times New Roman,serif" font-size="8.00">0...*</text>
</g>
<!-- MeasurementItem -->
<g id="ItemTypeMeasurementItem0" class="node"><title></title><ellipse fill="#f7b733" stroke="black" cx="85.6514" cy="-1206" rx="45.2568" ry="18" style="filter: url(#dropshadow)"/>
<text text-anchor="middle" x="85.6514" y="-1204.1" font-family="Times New Roman,serif" font-size="8.00">MeasurementItem</text>
</g>
<!-- MeasurementItem&#45;&gt;ParameterTypeProperties -->
<g id="edge9" class="edge"><title>MeasurementItem&#45;&gt;ParameterTypeProperties</title>
<path fill="none" stroke="black" d="M131.406,-1206.66C175.118,-1204.95 241.06,-1195.75 283.303,-1159 351.316,-1099.84 390.91,-1008.36 413.849,-926.615"/>
<text text-anchor="middle" x="236.303" y="-1203.6" font-family="Times New Roman,serif" font-size="8.00">OutParameter</text>
<text text-anchor="middle" x="405.849" y="-920.215" font-family="Times New Roman,serif" font-size="8.00">0...*</text>
<text text-anchor="middle" x="139.406" y="-1200.26" font-family="Times New Roman,serif" font-size="8.00">0...*</text>
</g>
<!-- QuestionBlock -->
<g id="ItemTypeQuestionBlock1" class="node"><title></title><ellipse fill="#f7b733" stroke="black" cx="85.6514" cy="-1152" rx="38.6432" ry="18" style="filter: url(#dropshadow)"/>
<text text-anchor="middle" x="85.6514" y="-1150.1" font-family="Times New Roman,serif" font-size="8.00">QuestionBlock</text>
</g>
<!-- QuestionBlock&#45;&gt;ParameterTypeProperties -->
<g id="edge10" class="edge"><title>QuestionBlock&#45;&gt;ParameterTypeProperties</title>
<path fill="none" stroke="black" d="M124.275,-1152.48C167.364,-1151.07 237.851,-1142.57 283.303,-1105 338.324,-1059.51 375.354,-991.353 399.905,-926.672"/>
<text text-anchor="middle" x="236.303" y="-1148.6" font-family="Times New Roman,serif" font-size="8.00">OutParameter</text>
<text text-anchor="middle" x="391.905" y="-929.272" font-family="Times New Roman,serif" font-size="8.00">0...*</text>
<text text-anchor="middle" x="132.275" y="-1146.08" font-family="Times New Roman,serif" font-size="8.00">0...*</text>
</g>
<!-- QuestionGrid -->
<g id="ItemTypeQuestionGrid2" class="node"><title></title><ellipse fill="#f7b733" stroke="black" cx="85.6514" cy="-1098" rx="35.3371" ry="18" style="filter: url(#dropshadow)"/>
<text text-anchor="middle" x="85.6514" y="-1096.1" font-family="Times New Roman,serif" font-size="8.00">QuestionGrid</text>
</g>
<!-- QuestionGrid&#45;&gt;ParameterTypeProperties -->
<g id="edge11" class="edge"><title>QuestionGrid&#45;&gt;ParameterTypeProperties</title>
<path fill="none" stroke="black" d="M120.841,-1098.71C163.174,-1097.86 235.52,-1090.58 283.303,-1054 325.906,-1021.39 358.416,-974.296 382.698,-926.75"/>
<text text-anchor="middle" x="236.303" y="-1094.6" font-family="Times New Roman,serif" font-size="8.00">OutParameter</text>
<text text-anchor="middle" x="374.698" y="-920.35" font-family="Times New Roman,serif" font-size="8.00">0...*</text>
<text text-anchor="middle" x="128.841" y="-1092.31" font-family="Times New Roman,serif" font-size="8.00">0...*</text>
</g>
<!-- QuestionItem -->
<g id="ItemTypeQuestionItem3" class="node"><title></title><ellipse fill="#f7b733" stroke="black" cx="85.6514" cy="-1044" rx="36.1063" ry="18" style="filter: url(#dropshadow)"/>
<text text-anchor="middle" x="85.6514" y="-1042.1" font-family="Times New Roman,serif" font-size="8.00">QuestionItem</text>
</g>
<!-- QuestionItem&#45;&gt;ParameterTypeProperties -->
<g id="edge12" class="edge"><title>QuestionItem&#45;&gt;ParameterTypeProperties</title>
<path fill="none" stroke="black" d="M121.819,-1045.8C163.839,-1046.22 234.567,-1041.26 283.303,-1008 314.079,-986.996 340.091,-957.994 361.646,-926.93"/>
<text text-anchor="middle" x="236.303" y="-1043.6" font-family="Times New Roman,serif" font-size="8.00">OutParameter</text>
<text text-anchor="middle" x="353.646" y="-920.53" font-family="Times New Roman,serif" font-size="8.00">0...*</text>
<text text-anchor="middle" x="129.819" y="-1039.4" font-family="Times New Roman,serif" font-size="8.00">0...*</text>
</g>
<!-- Variable -->
<g id="ItemTypeVariable4" class="node"><title></title><ellipse fill="#f7b733" stroke="black" cx="85.6514" cy="-990" rx="27" ry="18" style="filter: url(#dropshadow)"/>
<text text-anchor="middle" x="85.6514" y="-988.1" font-family="Times New Roman,serif" font-size="8.00">Variable</text>
</g>
<!-- Variable&#45;&gt;ParameterTypeProperties -->
<g id="edge13" class="edge"><title>Variable&#45;&gt;ParameterTypeProperties</title>
<path fill="none" stroke="black" d="M112.237,-993.348C151.798,-997.23 228.92,-999.541 283.303,-968 302.379,-956.936 319.847,-942.621 335.661,-926.598"/>
<text text-anchor="middle" x="236.303" y="-997.6" font-family="Times New Roman,serif" font-size="8.00">OutParameter</text>
<text text-anchor="middle" x="327.661" y="-920.198" font-family="Times New Roman,serif" font-size="8.00">0...*</text>
<text text-anchor="middle" x="120.237" y="-986.948" font-family="Times New Roman,serif" font-size="8.00">0...*</text>
</g>
<!-- Variable&#45;&gt;ParameterTypeProperties -->
<g id="edge14" class="edge"><title>Variable&#45;&gt;ParameterTypeProperties</title>
<path fill="none" stroke="black" d="M110.606,-982.371C131.344,-975.861 162.185,-966.407 189.303,-959 230.793,-947.668 246.677,-958.548 283.303,-936 287.967,-933.128 292.566,-930.077 297.095,-926.871"/>
<text text-anchor="middle" x="236.303" y="-961.6" font-family="Times New Roman,serif" font-size="8.00">SourceParameterReference</text>
<text text-anchor="middle" x="305.095" y="-920.471" font-family="Times New Roman,serif" font-size="8.00">0...*</text>
<text text-anchor="middle" x="118.606" y="-975.971" font-family="Times New Roman,serif" font-size="8.00">0...*</text>
</g>
<!-- BindingType -->
<g id="ReusableTypeBindingType5" class="node"><title></title><ellipse fill="#f7b733" stroke="black" cx="85.6514" cy="-936" rx="35.3371" ry="18" style="filter: url(#dropshadow)"/>
<text text-anchor="middle" x="85.6514" y="-934.1" font-family="Times New Roman,serif" font-size="8.00">BindingType</text>
</g>
<!-- BindingType&#45;&gt;ParameterTypeProperties -->
<g id="edge15" class="edge"><title>BindingType&#45;&gt;ParameterTypeProperties</title>
<path fill="none" stroke="black" d="M120.6,-932.954C169.093,-928.187 255.418,-918.035 283.303,-904 286.75,-902.265 290.171,-900.43 293.564,-898.507"/>
<text text-anchor="middle" x="236.303" y="-927.6" font-family="Times New Roman,serif" font-size="8.00">SourceParameterReference</text>
<text text-anchor="middle" x="301.564" y="-892.107" font-family="Times New Roman,serif" font-size="8.00">0...*</text>
<text text-anchor="middle" x="128.6" y="-926.554" font-family="Times New Roman,serif" font-size="8.00">0...*</text>
</g>
<!-- BindingType&#45;&gt;ParameterTypeProperties -->
<g id="edge16" class="edge"><title>BindingType&#45;&gt;ParameterTypeProperties</title>
<path fill="none" stroke="black" d="M118.265,-928.762C134.647,-924.315 154.653,-917.772 171.303,-909 180.269,-904.276 180.405,-899.853 189.303,-895 228.174,-873.798 243.992,-882.376 283.303,-862 286.657,-860.261 290.021,-858.46 293.387,-856.606"/>
<text text-anchor="middle" x="236.303" y="-897.6" font-family="Times New Roman,serif" font-size="8.00">TargetParameterReference</text>
<text text-anchor="middle" x="285.387" y="-850.206" font-family="Times New Roman,serif" font-size="8.00">0...*</text>
<text text-anchor="middle" x="126.265" y="-931.362" font-family="Times New Roman,serif" font-size="8.00">0...*</text>
</g>
<!-- CategoryDomainType -->
<g id="ReusableTypeCategoryDomainType6" class="node"><title></title><ellipse fill="#f7b733" stroke="black" cx="85.6514" cy="-882" rx="53.7736" ry="18" style="filter: url(#dropshadow)"/>
<text text-anchor="middle" x="85.6514" y="-880.1" font-family="Times New Roman,serif" font-size="8.00">CategoryDomainType</text>
</g>
<!-- CategoryDomainType&#45;&gt;ParameterTypeProperties -->
<g id="edge17" class="edge"><title>CategoryDomainType&#45;&gt;ParameterTypeProperties</title>
<path fill="none" stroke="black" d="M125.449,-869.718C139.859,-865.132 156.337,-859.858 171.303,-855 221.165,-838.812 234.363,-836.793 283.303,-818 286.679,-816.704 290.087,-815.376 293.517,-814.022"/>
<text text-anchor="middle" x="236.303" y="-851.6" font-family="Times New Roman,serif" font-size="8.00">OutParameter</text>
<text text-anchor="middle" x="285.517" y="-807.622" font-family="Times New Roman,serif" font-size="8.00">0...*</text>
<text text-anchor="middle" x="133.449" y="-863.318" font-family="Times New Roman,serif" font-size="8.00">0...*</text>
</g>
<!-- CodeDomainType -->
<g id="ReusableTypeCodeDomainType7" class="node"><title></title><ellipse fill="#f7b733" stroke="black" cx="85.6514" cy="-828" rx="45.2568" ry="18" style="filter: url(#dropshadow)"/>
<text text-anchor="middle" x="85.6514" y="-826.1" font-family="Times New Roman,serif" font-size="8.00">CodeDomainType</text>
</g>
<!-- CodeDomainType&#45;&gt;ParameterTypeProperties -->
<g id="edge18" class="edge"><title>CodeDomainType&#45;&gt;ParameterTypeProperties</title>
<path fill="none" stroke="black" d="M125.32,-819.255C165.819,-810.095 231.993,-795.129 293.642,-781.187"/>
<text text-anchor="middle" x="236.303" y="-807.6" font-family="Times New Roman,serif" font-size="8.00">OutParameter</text>
<text text-anchor="middle" x="285.642" y="-774.787" font-family="Times New Roman,serif" font-size="8.00">0...*</text>
<text text-anchor="middle" x="133.32" y="-812.855" font-family="Times New Roman,serif" font-size="8.00">0...*</text>
</g>
<!-- CommandFileType -->
<g id="ReusableTypeCommandFileType8" class="node"><title></title><ellipse fill="#f7b733" stroke="black" cx="85.6514" cy="-774" rx="47.16" ry="18" style="filter: url(#dropshadow)"/>
<text text-anchor="middle" x="85.6514" y="-772.1" font-family="Times New Roman,serif" font-size="8.00">CommandFileType</text>
</g>
<!-- CommandFileType&#45;&gt;ParameterTypeProperties -->
<g id="edge19" class="edge"><title>CommandFileType&#45;&gt;ParameterTypeProperties</title>
<path fill="none" stroke="black" d="M132.012,-770.58C172.814,-767.504 235.133,-762.806 293.437,-758.411"/>
<text text-anchor="middle" x="236.303" y="-769.6" font-family="Times New Roman,serif" font-size="8.00">OutParameter</text>
<text text-anchor="middle" x="285.437" y="-752.011" font-family="Times New Roman,serif" font-size="8.00">0...*</text>
<text text-anchor="middle" x="140.012" y="-764.18" font-family="Times New Roman,serif" font-size="8.00">0...*</text>
</g>
<!-- CommandType -->
<g id="ReusableTypeCommandType9" class="node"><title></title><ellipse fill="#f7b733" stroke="black" cx="85.6514" cy="-720" rx="40.0477" ry="18" style="filter: url(#dropshadow)"/>
<text text-anchor="middle" x="85.6514" y="-718.1" font-family="Times New Roman,serif" font-size="8.00">CommandType</text>
</g>
<!-- CommandType&#45;&gt;ParameterTypeProperties -->
<g id="edge20" class="edge"><title>CommandType&#45;&gt;ParameterTypeProperties</title>
<path fill="none" stroke="black" d="M125.662,-722.941C166.167,-725.994 232.091,-730.964 293.537,-735.597"/>
<text text-anchor="middle" x="236.303" y="-737.6" font-family="Times New Roman,serif" font-size="8.00">OutParameter</text>
<text text-anchor="middle" x="285.537" y="-729.197" font-family="Times New Roman,serif" font-size="8.00">0...*</text>
<text text-anchor="middle" x="133.662" y="-716.541" font-family="Times New Roman,serif" font-size="8.00">0...*</text>
</g>
<!-- ConditionalResultType -->
<g id="ReusableTypeConditionalResultType0" class="node"><title></title><ellipse fill="#f7b733" stroke="black" cx="85.6514" cy="-666" rx="55.0423" ry="18" style="filter: url(#dropshadow)"/>
<text text-anchor="middle" x="85.6514" y="-664.1" font-family="Times New Roman,serif" font-size="8.00">ConditionalResultType</text>
</g>
<!-- ConditionalResultType&#45;&gt;ParameterTypeProperties -->
<g id="edge21" class="edge"><title>ConditionalResultType&#45;&gt;ParameterTypeProperties</title>
<path fill="none" stroke="black" d="M131.287,-676.095C172.108,-685.327 234.892,-699.526 293.584,-712.8"/>
<text text-anchor="middle" x="236.303" y="-711.6" font-family="Times New Roman,serif" font-size="8.00">SourceParameterReference</text>
<text text-anchor="middle" x="301.584" y="-706.4" font-family="Times New Roman,serif" font-size="8.00">0...*</text>
<text text-anchor="middle" x="139.287" y="-678.695" font-family="Times New Roman,serif" font-size="8.00">0...*</text>
</g>
<!-- ConditionalTextType -->
<g id="ReusableTypeConditionalTextType1" class="node"><title></title><ellipse fill="#f7b733" stroke="black" cx="85.6514" cy="-612" rx="52.5056" ry="18" style="filter: url(#dropshadow)"/>
<text text-anchor="middle" x="85.6514" y="-610.1" font-family="Times New Roman,serif" font-size="8.00">ConditionalTextType</text>
</g>
<!-- ConditionalTextType&#45;&gt;ParameterTypeProperties -->
<g id="edge22" class="edge"><title>ConditionalTextType&#45;&gt;ParameterTypeProperties</title>
<path fill="none" stroke="black" d="M125.047,-624.083C139.559,-628.692 156.21,-634.033 171.303,-639 221.233,-655.432 234.258,-658.088 283.303,-677 286.707,-678.313 290.144,-679.655 293.605,-681.021"/>
<text text-anchor="middle" x="236.303" y="-679.6" font-family="Times New Roman,serif" font-size="8.00">SourceParameterReference</text>
<text text-anchor="middle" x="301.605" y="-674.621" font-family="Times New Roman,serif" font-size="8.00">0...*</text>
<text text-anchor="middle" x="133.047" y="-626.683" font-family="Times New Roman,serif" font-size="8.00">0...*</text>
</g>
<!-- DateTimeDomainType -->
<g id="ReusableTypeDateTimeDomainType2" class="node"><title></title><ellipse fill="#f7b733" stroke="black" cx="85.6514" cy="-558" rx="55.6769" ry="18" style="filter: url(#dropshadow)"/>
<text text-anchor="middle" x="85.6514" y="-556.1" font-family="Times New Roman,serif" font-size="8.00">DateTimeDomainType</text>
</g>
<!-- DateTimeDomainType&#45;&gt;ParameterTypeProperties -->
<g id="edge23" class="edge"><title>DateTimeDomainType&#45;&gt;ParameterTypeProperties</title>
<path fill="none" stroke="black" d="M127.397,-570.125C141.413,-574.525 157.138,-579.72 171.303,-585 222.048,-603.917 236.032,-606.572 283.303,-633 300.743,-642.75 318.603,-653.962 335.791,-665.465"/>
<text text-anchor="middle" x="236.303" y="-635.6" font-family="Times New Roman,serif" font-size="8.00">OutParameter</text>
<text text-anchor="middle" x="327.791" y="-659.065" font-family="Times New Roman,serif" font-size="8.00">0...*</text>
<text text-anchor="middle" x="135.397" y="-572.725" font-family="Times New Roman,serif" font-size="8.00">0...*</text>
</g>
<!-- DistributionDomainType -->
<g id="ReusableTypeDistributionDomainType3" class="node"><title></title><ellipse fill="#f7b733" stroke="black" cx="85.6514" cy="-504" rx="58.9835" ry="18" style="filter: url(#dropshadow)"/>
<text text-anchor="middle" x="85.6514" y="-502.1" font-family="Times New Roman,serif" font-size="8.00">DistributionDomainType</text>
</g>
<!-- DistributionDomainType&#45;&gt;ParameterTypeProperties -->
<g id="edge24" class="edge"><title>DistributionDomainType&#45;&gt;ParameterTypeProperties</title>
<path fill="none" stroke="black" d="M132.572,-515.038C174.45,-526.594 236.714,-547.626 283.303,-580 317.573,-603.813 350.522,-635.657 377.621,-665.15"/>
<text text-anchor="middle" x="236.303" y="-582.6" font-family="Times New Roman,serif" font-size="8.00">OutParameter</text>
<text text-anchor="middle" x="369.621" y="-658.75" font-family="Times New Roman,serif" font-size="8.00">0...*</text>
<text text-anchor="middle" x="140.572" y="-517.638" font-family="Times New Roman,serif" font-size="8.00">0...*</text>
</g>
<!-- DomainReferenceType -->
<g id="ReusableTypeDomainReferenceType4" class="node"><title></title><ellipse fill="#f7b733" stroke="black" cx="85.6514" cy="-450" rx="55.6769" ry="18" style="filter: url(#dropshadow)"/>
<text text-anchor="middle" x="85.6514" y="-448.1" font-family="Times New Roman,serif" font-size="8.00">DomainReferenceType</text>
</g>
<!-- DomainReferenceType&#45;&gt;ParameterTypeProperties -->
<g id="edge25" class="edge"><title>DomainReferenceType&#45;&gt;ParameterTypeProperties</title>
<path fill="none" stroke="black" d="M134.853,-458.553C177.417,-468.035 239.367,-486.736 283.303,-521 332.873,-559.657 373.834,-617.542 402.102,-665.051"/>
<text text-anchor="middle" x="236.303" y="-523.6" font-family="Times New Roman,serif" font-size="8.00">OutParameter</text>
<text text-anchor="middle" x="394.102" y="-658.651" font-family="Times New Roman,serif" font-size="8.00">0...*</text>
<text text-anchor="middle" x="142.853" y="-452.153" font-family="Times New Roman,serif" font-size="8.00">0...*</text>
</g>
<!-- GeographicLocationCodeDomainType -->
<g id="ReusableTypeGeographicLocationCodeDomainType5" class="node"><title></title><ellipse fill="#f7b733" stroke="black" cx="85.6514" cy="-396" rx="85.8032" ry="18" style="filter: url(#dropshadow)"/>
<text text-anchor="middle" x="85.6514" y="-394.1" font-family="Times New Roman,serif" font-size="8.00">GeographicLocationCodeDomainType</text>
</g>
<!-- GeographicLocationCodeDomainType&#45;&gt;ParameterTypeProperties -->
<g id="edge26" class="edge"><title>GeographicLocationCodeDomainType&#45;&gt;ParameterTypeProperties</title>
<path fill="none" stroke="black" d="M156.076,-406.33C196.815,-415.335 247.212,-431.898 283.303,-462 347.598,-515.626 391.354,-601.825 416.93,-665.399"/>
<text text-anchor="middle" x="236.303" y="-464.6" font-family="Times New Roman,serif" font-size="8.00">OutParameter</text>
<text text-anchor="middle" x="408.93" y="-667.999" font-family="Times New Roman,serif" font-size="8.00">0...*</text>
<text text-anchor="middle" x="164.076" y="-408.93" font-family="Times New Roman,serif" font-size="8.00">0...*</text>
</g>
<!-- GeographicStructureCodeDomainType -->
<g id="ReusableTypeGeographicStructureCodeDomainType6" class="node"><title></title><ellipse fill="#f7b733" stroke="black" cx="85.6514" cy="-342" rx="85.1685" ry="18" style="filter: url(#dropshadow)"/>
<text text-anchor="middle" x="85.6514" y="-340.1" font-family="Times New Roman,serif" font-size="8.00">GeographicStructureCodeDomainType</text>
</g>
<!-- GeographicStructureCodeDomainType&#45;&gt;ParameterTypeProperties -->
<g id="edge27" class="edge"><title>GeographicStructureCodeDomainType&#45;&gt;ParameterTypeProperties</title>
<path fill="none" stroke="black" d="M160.526,-350.673C200.784,-358.718 249.201,-374.206 283.303,-404 361.721,-472.512 404.895,-587.342 426.437,-665.076"/>
<text text-anchor="middle" x="236.303" y="-406.6" font-family="Times New Roman,serif" font-size="8.00">OutParameter</text>
<text text-anchor="middle" x="418.437" y="-658.676" font-family="Times New Roman,serif" font-size="8.00">0...*</text>
<text text-anchor="middle" x="168.526" y="-344.273" font-family="Times New Roman,serif" font-size="8.00">0...*</text>
</g>
<!-- LocationDomainType -->
<g id="ReusableTypeLocationDomainType7" class="node"><title></title><ellipse fill="#f7b733" stroke="black" cx="85.6514" cy="-288" rx="53.7736" ry="18" style="filter: url(#dropshadow)"/>
<text text-anchor="middle" x="85.6514" y="-286.1" font-family="Times New Roman,serif" font-size="8.00">LocationDomainType</text>
</g>
<!-- LocationDomainType&#45;&gt;ParameterTypeProperties -->
<g id="edge28" class="edge"><title>LocationDomainType&#45;&gt;ParameterTypeProperties</title>
<path fill="none" stroke="black" d="M139.107,-290.775C182.641,-295.717 243.634,-309.108 283.303,-345 376.415,-429.247 416.767,-574.58 433.573,-665.495"/>
<text text-anchor="middle" x="236.303" y="-347.6" font-family="Times New Roman,serif" font-size="8.00">OutParameter</text>
<text text-anchor="middle" x="425.573" y="-668.095" font-family="Times New Roman,serif" font-size="8.00">0...*</text>
<text text-anchor="middle" x="147.107" y="-284.375" font-family="Times New Roman,serif" font-size="8.00">0...*</text>
</g>
<!-- NominalDomainType -->
<g id="ReusableTypeNominalDomainType8" class="node"><title></title><ellipse fill="#f7b733" stroke="black" cx="85.6514" cy="-234" rx="52.5056" ry="18" style="filter: url(#dropshadow)"/>
<text text-anchor="middle" x="85.6514" y="-232.1" font-family="Times New Roman,serif" font-size="8.00">NominalDomainType</text>
</g>
<!-- NominalDomainType&#45;&gt;ParameterTypeProperties -->
<g id="edge29" class="edge"><title>NominalDomainType&#45;&gt;ParameterTypeProperties</title>
<path fill="none" stroke="black" d="M138.577,-235.066C182.378,-238.685 244.042,-250.556 283.303,-287 390.794,-386.778 426.762,-562.233 438.783,-665.204"/>
<text text-anchor="middle" x="236.303" y="-289.6" font-family="Times New Roman,serif" font-size="8.00">OutParameter</text>
<text text-anchor="middle" x="446.783" y="-658.804" font-family="Times New Roman,serif" font-size="8.00">0...*</text>
<text text-anchor="middle" x="146.577" y="-228.666" font-family="Times New Roman,serif" font-size="8.00">0...*</text>
</g>
<!-- NumericDomainType -->
<g id="ReusableTypeNumericDomainType9" class="node"><title></title><ellipse fill="#f7b733" stroke="black" cx="85.6514" cy="-180" rx="52.3706" ry="18" style="filter: url(#dropshadow)"/>
<text text-anchor="middle" x="85.6514" y="-178.1" font-family="Times New Roman,serif" font-size="8.00">NumericDomainType</text>
</g>
<!-- NumericDomainType&#45;&gt;ParameterTypeProperties -->
<g id="edge30" class="edge"><title>NumericDomainType&#45;&gt;ParameterTypeProperties</title>
<path fill="none" stroke="black" d="M137.97,-179.79C181.988,-182.378 244.308,-193.049 283.303,-230 405.12,-345.434 435.579,-551.187 442.856,-665.227"/>
<text text-anchor="middle" x="236.303" y="-232.6" font-family="Times New Roman,serif" font-size="8.00">OutParameter</text>
<text text-anchor="middle" x="450.856" y="-667.827" font-family="Times New Roman,serif" font-size="8.00">0...*</text>
<text text-anchor="middle" x="145.97" y="-173.39" font-family="Times New Roman,serif" font-size="8.00">0...*</text>
</g>
<!-- RankingDomainType -->
<g id="ReusableTypeRankingDomainType0" class="node"><title></title><ellipse fill="#f7b733" stroke="black" cx="85.6514" cy="-126" rx="52.3706" ry="18" style="filter: url(#dropshadow)"/>
<text text-anchor="middle" x="85.6514" y="-124.1" font-family="Times New Roman,serif" font-size="8.00">RankingDomainType</text>
</g>
<!-- RankingDomainType&#45;&gt;ParameterTypeProperties -->
<g id="edge31" class="edge"><title>RankingDomainType&#45;&gt;ParameterTypeProperties</title>
<path fill="none" stroke="black" d="M137.75,-124.923C181.93,-126.805 244.617,-136.657 283.303,-174 353.847,-242.096 408.535,-523.996 432.121,-665.379"/>
<text text-anchor="middle" x="236.303" y="-176.6" font-family="Times New Roman,serif" font-size="8.00">OutParameter</text>
<text text-anchor="middle" x="440.121" y="-658.979" font-family="Times New Roman,serif" font-size="8.00">0...*</text>
<text text-anchor="middle" x="145.75" y="-118.523" font-family="Times New Roman,serif" font-size="8.00">0...*</text>
</g>
<!-- ScaleDomainType -->
<g id="ReusableTypeScaleDomainType1" class="node"><title></title><ellipse fill="#f7b733" stroke="black" cx="85.6514" cy="-72" rx="45.2568" ry="18" style="filter: url(#dropshadow)"/>
<text text-anchor="middle" x="85.6514" y="-70.1" font-family="Times New Roman,serif" font-size="8.00">ScaleDomainType</text>
</g>
<!-- ScaleDomainType&#45;&gt;ParameterTypeProperties -->
<g id="edge32" class="edge"><title>ScaleDomainType&#45;&gt;ParameterTypeProperties</title>
<path fill="none" stroke="black" d="M131.145,-70.2457C175.611,-71.0059 243,-79.3813 283.303,-119 360.767,-195.15 413.216,-513.363 434.344,-665.414"/>
<text text-anchor="middle" x="236.303" y="-121.6" font-family="Times New Roman,serif" font-size="8.00">OutParameter</text>
<text text-anchor="middle" x="442.344" y="-668.014" font-family="Times New Roman,serif" font-size="8.00">0...*</text>
<text text-anchor="middle" x="139.145" y="-63.8457" font-family="Times New Roman,serif" font-size="8.00">0...*</text>
</g>
<!-- TextDomainType -->
<g id="ReusableTypeTextDomainType2" class="node"><title></title><ellipse fill="#f7b733" stroke="black" cx="85.6514" cy="-18" rx="45.2568" ry="18" style="filter: url(#dropshadow)"/>
<text text-anchor="middle" x="85.6514" y="-16.1" font-family="Times New Roman,serif" font-size="8.00">TextDomainType</text>
</g>
<!-- TextDomainType&#45;&gt;ParameterTypeProperties -->
<g id="edge33" class="edge"><title>TextDomainType&#45;&gt;ParameterTypeProperties</title>
<path fill="none" stroke="black" d="M130.87,-15.8282C175.442,-16.1672 243.214,-24.0077 283.303,-64 367.763,-148.257 417.507,-503.248 436.227,-665.488"/>
<text text-anchor="middle" x="236.303" y="-66.6" font-family="Times New Roman,serif" font-size="8.00">OutParameter</text>
<text text-anchor="middle" x="428.227" y="-659.088" font-family="Times New Roman,serif" font-size="8.00">0...*</text>
<text text-anchor="middle" x="138.87" y="-9.42822" font-family="Times New Roman,serif" font-size="8.00">0...*</text>
</g>
</g>
</svg>
