<?xml version="1.0" encoding="UTF-8" standalone="no"?>
<!DOCTYPE svg PUBLIC "-//W3C//DTD SVG 1.1//EN"
 "http://www.w3.org/Graphics/SVG/1.1/DTD/svg11.dtd">
<!-- Generated by graphviz version 2.38.0 (20140413.2041)
 -->
<!-- Title: G Pages: 1 -->
<svg width="1617pt" height="462pt"
 viewBox="0.00 0.00 1616.93 462.15" xmlns="http://www.w3.org/2000/svg" xmlns:xlink="http://www.w3.org/1999/xlink">
<filter id = "dropshadow" height = "130%" ><feGaussianBlur in= "SourceAlpha" stdDeviation = "3"/><!--stdDeviation is how much to blur--><feOffset dx = "2" dy = "2" result = "offsetblur"/><!--how much to offset--><feMerge><feMergeNode/><!--this contains the offset blurred image--><feMergeNode in= "SourceGraphic"/><!--this contains the element that the filter is applied to --></feMerge></filter>
<g id="graph0" class="graph" transform="scale(1 1) rotate(0) translate(4 458.154)">
<title>G</title>
<g id="clust1" class="cluster"><title>clusterGenericMap</title>
<polygon fill="#4abdac" stroke="black" points="176.933,-85.1544 176.933,-410.154 1600.93,-410.154 1600.93,-85.1544 176.933,-85.1544" style="filter: url(#dropshadow)"/>
<text text-anchor="middle" x="888.933" y="-399.754" font-family="Times New Roman,serif" font-size="8.00">GenericMap</text>
</g>
<!-- GenericMapProperties -->
<g id="ItemTypeGenericMapProperties" class="node"><title></title><polygon fill="#f7b733" stroke="black" points="184.933,-113.654 184.933,-184.654 414.933,-184.654 414.933,-113.654 184.933,-113.654" style="filter: url(#dropshadow)"/>
<text text-anchor="middle" x="211.433" y="-147.254" font-family="Times New Roman,serif" font-size="8.00">Properties</text>
<polyline fill="none" stroke="black" points="237.933,-113.654 237.933,-184.654 "/>
<text text-anchor="start" x="245.933" y="-174.254" font-family="Times New Roman,serif" font-size="8.00">MapName : NameType[0...n] </text>
<text text-anchor="start" x="245.933" y="-165.254" font-family="Times New Roman,serif" font-size="8.00">Label : LabelType[0...n] </text>
<text text-anchor="start" x="245.933" y="-156.254" font-family="Times New Roman,serif" font-size="8.00">Description : StructuredStringType[0...1] </text>
<text text-anchor="start" x="245.933" y="-147.254" font-family="Times New Roman,serif" font-size="8.00">SourceSchemeReference : Maintainable[0...1] </text>
<text text-anchor="start" x="245.933" y="-138.254" font-family="Times New Roman,serif" font-size="8.00">TargetSchemeReference : Maintainable[0...1] </text>
<text text-anchor="start" x="245.933" y="-129.254" font-family="Times New Roman,serif" font-size="8.00">Correspondence : CorrespondenceType[0...1] </text>
<text text-anchor="start" x="245.933" y="-120.254" font-family="Times New Roman,serif" font-size="8.00">ItemMap : ItemMapType[0...n] </text>
</g>
<!-- GenericMapNameType -->
<g id="ReusableTypeGenericMapNameType" class="node"><title></title><polygon fill="#fc4a1a" stroke="black" points="545.433,-276.154 545.433,-312.154 714.433,-312.154 714.433,-276.154 545.433,-276.154" style="filter: url(#dropshadow)"/>
<text text-anchor="middle" x="573.433" y="-292.254" font-family="Times New Roman,serif" font-size="8.00">NameType</text>
<polyline fill="none" stroke="black" points="601.433,-276.154 601.433,-312.154 "/>
<text text-anchor="start" x="609.433" y="-296.754" font-family="Times New Roman,serif" font-size="8.00">IsPreferred : boolean[0...1] </text>
<text text-anchor="start" x="609.433" y="-287.754" font-family="Times New Roman,serif" font-size="8.00">Context : string[0...1] </text>
</g>
<!-- GenericMapProperties&#45;&gt;GenericMapNameType -->
<g id="edge1" class="edge"><title>GenericMapProperties&#45;&gt;GenericMapNameType</title>
<path fill="none" stroke="black" d="M336.506,-184.719C361.458,-207.651 396.715,-236.247 432.933,-253.154 467.899,-269.477 509.392,-279.354 545.177,-285.305"/>
<text text-anchor="middle" x="451.433" y="-268.754" font-family="Times New Roman,serif" font-size="8.00">MapName</text>
</g>
<!-- GenericMapLabelType -->
<g id="ReusableTypeGenericMapLabelType" class="node"><title></title><polygon fill="#fc4a1a" stroke="black" points="524.433,-331.654 524.433,-384.654 735.433,-384.654 735.433,-331.654 524.433,-331.654" style="filter: url(#dropshadow)"/>
<text text-anchor="middle" x="551.433" y="-356.254" font-family="Times New Roman,serif" font-size="8.00">LabelType</text>
<polyline fill="none" stroke="black" points="578.433,-331.654 578.433,-384.654 "/>
<text text-anchor="start" x="586.433" y="-374.254" font-family="Times New Roman,serif" font-size="8.00">TypeOfLabel : CodeValueType[0...1] </text>
<text text-anchor="start" x="586.433" y="-365.254" font-family="Times New Roman,serif" font-size="8.00">LocationVariant : string[0...1] </text>
<text text-anchor="start" x="586.433" y="-356.254" font-family="Times New Roman,serif" font-size="8.00">ValidForStartDate : cogsDate[0...1] </text>
<text text-anchor="start" x="586.433" y="-347.254" font-family="Times New Roman,serif" font-size="8.00">ValidForEndDate : cogsDate[0...1] </text>
<text text-anchor="start" x="586.433" y="-338.254" font-family="Times New Roman,serif" font-size="8.00">MaxLength : nonNegativeInteger[0...1] </text>
</g>
<!-- GenericMapProperties&#45;&gt;GenericMapLabelType -->
<g id="edge2" class="edge"><title>GenericMapProperties&#45;&gt;GenericMapLabelType</title>
<path fill="none" stroke="black" d="M328.392,-184.81C361.553,-225.12 421.248,-289.383 487.933,-322.154 499.383,-327.782 511.803,-332.59 524.364,-336.683"/>
<text text-anchor="middle" x="451.433" y="-314.754" font-family="Times New Roman,serif" font-size="8.00">Label</text>
</g>
<!-- GenericMapStructuredStringType -->
<g id="ReusableTypeGenericMapStructuredStringType" class="node"><title></title><polygon fill="#fc4a1a" stroke="black" points="1379.93,-131.154 1379.93,-167.154 1592.93,-167.154 1592.93,-131.154 1379.93,-131.154" style="filter: url(#dropshadow)"/>
<text text-anchor="middle" x="1424.93" y="-147.254" font-family="Times New Roman,serif" font-size="8.00">StructuredStringType</text>
<polyline fill="none" stroke="black" points="1469.93,-131.154 1469.93,-167.154 "/>
<text text-anchor="start" x="1477.93" y="-147.254" font-family="Times New Roman,serif" font-size="8.00">Content : ContentType[0...n] </text>
</g>
<!-- GenericMapProperties&#45;&gt;GenericMapStructuredStringType -->
<g id="edge3" class="edge"><title>GenericMapProperties&#45;&gt;GenericMapStructuredStringType</title>
<path fill="none" stroke="black" d="M415.375,-117.107C439.171,-111.719 464.224,-106.967 487.933,-104.154 613.276,-89.2852 645.773,-100.18 771.933,-104.154 988.101,-110.964 1240.56,-129.352 1379.76,-140.402"/>
<text text-anchor="middle" x="851.933" y="-112.754" font-family="Times New Roman,serif" font-size="8.00">Description</text>
</g>
<!-- Maintainable -->
<g id="ItemTypeMaintainable" class="node"><title></title><ellipse fill="#f7b733" stroke="black" cx="1113.43" cy="-45.1544" rx="35.3371" ry="18" style="filter: url(#dropshadow)"/>
<text text-anchor="middle" x="1113.43" y="-43.2544" font-family="Times New Roman,serif" font-size="8.00">Maintainable</text>
</g>
<!-- GenericMapProperties&#45;&gt;Maintainable -->
<g id="edge4" class="edge"><title>GenericMapProperties&#45;&gt;Maintainable</title>
<path fill="none" stroke="black" d="M370.158,-113.542C390.016,-104.475 411.975,-95.5095 432.933,-89.1544 456.637,-81.9668 463.419,-83.7012 487.933,-80.1544 621.819,-60.7835 654.917,-50.6154 789.933,-42.1544 844.936,-38.7076 858.823,-41.738 913.933,-42.1544 971.489,-42.5893 1038.42,-43.7335 1078.01,-44.4765"/>
<text text-anchor="middle" x="629.933" y="-82.7544" font-family="Times New Roman,serif" font-size="8.00">SourceSchemeReference</text>
<text text-anchor="middle" x="1070.01" y="-38.0765" font-family="Times New Roman,serif" font-size="8.00">0...*</text>
<text text-anchor="middle" x="362.158" y="-107.142" font-family="Times New Roman,serif" font-size="8.00">0...*</text>
</g>
<!-- GenericMapProperties&#45;&gt;Maintainable -->
<g id="edge5" class="edge"><title>GenericMapProperties&#45;&gt;Maintainable</title>
<path fill="none" stroke="black" d="M342.113,-113.442C377.922,-84.9115 432.616,-47.1483 487.933,-31.1544 707.232,32.2521 988.124,-18.0811 1081.05,-37.9759"/>
<text text-anchor="middle" x="629.933" y="-33.7544" font-family="Times New Roman,serif" font-size="8.00">TargetSchemeReference</text>
<text text-anchor="middle" x="1073.05" y="-31.5759" font-family="Times New Roman,serif" font-size="8.00">0...*</text>
<text text-anchor="middle" x="334.113" y="-107.042" font-family="Times New Roman,serif" font-size="8.00">0...*</text>
</g>
<!-- GenericMapCorrespondenceType -->
<g id="ReusableTypeGenericMapCorrespondenceType" class="node"><title></title><polygon fill="#fc4a1a" stroke="black" points="931.933,-149.654 931.933,-202.654 1294.93,-202.654 1294.93,-149.654 931.933,-149.654" style="filter: url(#dropshadow)"/>
<text text-anchor="middle" x="977.433" y="-174.254" font-family="Times New Roman,serif" font-size="8.00">CorrespondenceType</text>
<polyline fill="none" stroke="black" points="1022.93,-149.654 1022.93,-202.654 "/>
<text text-anchor="start" x="1030.93" y="-192.254" font-family="Times New Roman,serif" font-size="8.00">Commonality : StructuredStringType[0...1] </text>
<text text-anchor="start" x="1030.93" y="-183.254" font-family="Times New Roman,serif" font-size="8.00">Difference : StructuredStringType[0...1] </text>
<text text-anchor="start" x="1030.93" y="-174.254" font-family="Times New Roman,serif" font-size="8.00">CommonalityTypeCoded : CodeValueType[0...1] </text>
<text text-anchor="start" x="1030.93" y="-165.254" font-family="Times New Roman,serif" font-size="8.00">CommonalityWeight : float[0...1] </text>
<text text-anchor="start" x="1030.93" y="-156.254" font-family="Times New Roman,serif" font-size="8.00">UserDefinedCorrespondenceProperty : StandardKeyValuePairType[0...n] </text>
</g>
<!-- GenericMapProperties&#45;&gt;GenericMapCorrespondenceType -->
<g id="edge6" class="edge"><title>GenericMapProperties&#45;&gt;GenericMapCorrespondenceType</title>
<path fill="none" stroke="black" d="M374.614,-184.729C408.32,-199.101 449.284,-213.971 487.933,-221.154 661.598,-253.432 866.418,-226.601 992.866,-202.695"/>
<text text-anchor="middle" x="629.933" y="-238.754" font-family="Times New Roman,serif" font-size="8.00">Correspondence</text>
<text text-anchor="middle" x="984.866" y="-205.295" font-family="Times New Roman,serif" font-size="8.00">0...*</text>
<text text-anchor="middle" x="366.614" y="-187.329" font-family="Times New Roman,serif" font-size="8.00">0...*</text>
</g>
<!-- GenericMapItemMapType -->
<g id="ReusableTypeGenericMapItemMapType" class="node"><title></title><polygon fill="#fc4a1a" stroke="black" points="487.933,-113.654 487.933,-184.654 771.933,-184.654 771.933,-113.654 487.933,-113.654" style="filter: url(#dropshadow)"/>
<text text-anchor="middle" x="521.933" y="-147.254" font-family="Times New Roman,serif" font-size="8.00">ItemMapType</text>
<polyline fill="none" stroke="black" points="555.933,-113.654 555.933,-184.654 "/>
<text text-anchor="start" x="563.933" y="-174.254" font-family="Times New Roman,serif" font-size="8.00">SourceItemReference_Versionable : Versionable[0...1] </text>
<text text-anchor="start" x="563.933" y="-165.254" font-family="Times New Roman,serif" font-size="8.00">SourceItemReference_Maintainable : Maintainable[0...1] </text>
<text text-anchor="start" x="563.933" y="-156.254" font-family="Times New Roman,serif" font-size="8.00">TargetItemReference_Versionable : Versionable[0...n] </text>
<text text-anchor="start" x="563.933" y="-147.254" font-family="Times New Roman,serif" font-size="8.00">TargetItemReference_Maintainable : Maintainable[0...n] </text>
<text text-anchor="start" x="563.933" y="-138.254" font-family="Times New Roman,serif" font-size="8.00">Correspondence : CorrespondenceType[0...1] </text>
<text text-anchor="start" x="563.933" y="-129.254" font-family="Times New Roman,serif" font-size="8.00">RelatedMapReference : ItemMapType[0...n] </text>
<text text-anchor="start" x="563.933" y="-120.254" font-family="Times New Roman,serif" font-size="8.00">Alias : string[0...1] </text>
</g>
<!-- GenericMapProperties&#45;&gt;GenericMapItemMapType -->
<g id="edge7" class="edge"><title>GenericMapProperties&#45;&gt;GenericMapItemMapType</title>
<path fill="none" stroke="black" d="M415.191,-149.154C438.579,-149.154 463.457,-149.154 487.662,-149.154"/>
<text text-anchor="middle" x="451.433" y="-151.754" font-family="Times New Roman,serif" font-size="8.00">ItemMap</text>
<text text-anchor="middle" x="479.662" y="-142.754" font-family="Times New Roman,serif" font-size="8.00">0...*</text>
<text text-anchor="middle" x="423.191" y="-142.754" font-family="Times New Roman,serif" font-size="8.00">0...*</text>
</g>
<!-- GenericMapCorrespondenceType&#45;&gt;GenericMapStructuredStringType -->
<g id="edge8" class="edge"><title>GenericMapCorrespondenceType&#45;&gt;GenericMapStructuredStringType</title>
<path fill="none" stroke="black" d="M1295.25,-163.992C1317.7,-162.405 1340.35,-160.769 1361.93,-159.154 1367.72,-158.721 1373.67,-158.268 1379.67,-157.804"/>
<text text-anchor="middle" x="1337.43" y="-165.754" font-family="Times New Roman,serif" font-size="8.00">Commonality</text>
<text text-anchor="middle" x="1371.67" y="-151.404" font-family="Times New Roman,serif" font-size="8.00">0...*</text>
<text text-anchor="middle" x="1303.25" y="-157.592" font-family="Times New Roman,serif" font-size="8.00">0...*</text>
</g>
<!-- GenericMapCorrespondenceType&#45;&gt;GenericMapStructuredStringType -->
<g id="edge9" class="edge"><title>GenericMapCorrespondenceType&#45;&gt;GenericMapStructuredStringType</title>
<path fill="none" stroke="black" d="M1295.01,-151.533C1301.05,-151.019 1307.04,-150.556 1312.93,-150.154 1334.45,-148.689 1357.5,-147.969 1379.53,-147.69"/>
<text text-anchor="middle" x="1337.43" y="-152.754" font-family="Times New Roman,serif" font-size="8.00">Difference</text>
<text text-anchor="middle" x="1371.53" y="-141.29" font-family="Times New Roman,serif" font-size="8.00">0...*</text>
<text text-anchor="middle" x="1303.01" y="-145.133" font-family="Times New Roman,serif" font-size="8.00">0...*</text>
</g>
<!-- GenericMapItemMapType&#45;&gt;Maintainable -->
<g id="edge11" class="edge"><title>GenericMapItemMapType&#45;&gt;Maintainable</title>
<path fill="none" stroke="black" d="M682.08,-113.46C712.059,-94.5669 751.49,-73.0701 789.933,-62.1544 891.87,-33.2095 1019.07,-37.7376 1078.67,-42.0904"/>
<text text-anchor="middle" x="851.933" y="-64.7544" font-family="Times New Roman,serif" font-size="8.00">SourceItemReference_Maintainable</text>
<text text-anchor="middle" x="1070.67" y="-44.6904" font-family="Times New Roman,serif" font-size="8.00">0...*</text>
<text text-anchor="middle" x="674.08" y="-107.06" font-family="Times New Roman,serif" font-size="8.00">0...*</text>
</g>
<!-- GenericMapItemMapType&#45;&gt;Maintainable -->
<g id="edge13" class="edge"><title>GenericMapItemMapType&#45;&gt;Maintainable</title>
<path fill="none" stroke="black" d="M724.669,-113.563C745.911,-106.388 768.522,-99.4373 789.933,-94.1544 844.504,-80.6897 1008.34,-58.6455 1079.19,-49.4222"/>
<text text-anchor="middle" x="851.933" y="-96.7544" font-family="Times New Roman,serif" font-size="8.00">TargetItemReference_Maintainable</text>
<text text-anchor="middle" x="1071.19" y="-52.0222" font-family="Times New Roman,serif" font-size="8.00">0...*</text>
<text text-anchor="middle" x="716.669" y="-107.163" font-family="Times New Roman,serif" font-size="8.00">0...*</text>
</g>
<!-- GenericMapItemMapType&#45;&gt;GenericMapCorrespondenceType -->
<g id="edge14" class="edge"><title>GenericMapItemMapType&#45;&gt;GenericMapCorrespondenceType</title>
<path fill="none" stroke="black" d="M772.145,-157.073C822.094,-159.874 878.981,-163.064 931.754,-166.023"/>
<text text-anchor="middle" x="851.933" y="-167.754" font-family="Times New Roman,serif" font-size="8.00">Correspondence</text>
<text text-anchor="middle" x="923.754" y="-159.623" font-family="Times New Roman,serif" font-size="8.00">0...*</text>
<text text-anchor="middle" x="780.145" y="-150.673" font-family="Times New Roman,serif" font-size="8.00">0...*</text>
</g>
<!-- GenericMapItemMapType&#45;&gt;GenericMapItemMapType -->
<g id="edge15" class="edge"><title>GenericMapItemMapType&#45;&gt;GenericMapItemMapType</title>
<path fill="none" stroke="black" d="M596.658,-184.729C597.808,-195.112 608.9,-203.154 629.933,-203.154 650.966,-203.154 662.058,-195.112 663.208,-184.729"/>
<text text-anchor="middle" x="629.933" y="-205.754" font-family="Times New Roman,serif" font-size="8.00">RelatedMapReference</text>
<text text-anchor="middle" x="655.208" y="-187.329" font-family="Times New Roman,serif" font-size="8.00">0...*</text>
<text text-anchor="middle" x="588.658" y="-187.329" font-family="Times New Roman,serif" font-size="8.00">0...*</text>
</g>
<!-- Versionable -->
<g id="ItemTypeVersionable" class="node"><title></title><ellipse fill="#f7b733" stroke="black" cx="1113.43" cy="-436.154" rx="31.5313" ry="18" style="filter: url(#dropshadow)"/>
<text text-anchor="middle" x="1113.43" y="-434.254" font-family="Times New Roman,serif" font-size="8.00">Versionable</text>
</g>
<!-- GenericMapItemMapType&#45;&gt;Versionable -->
<g id="edge10" class="edge"><title>GenericMapItemMapType&#45;&gt;Versionable</title>
<path fill="none" stroke="black" d="M725.548,-184.867C743.412,-195.616 760.16,-209.202 771.933,-226.154 803.948,-272.257 756.049,-306.408 789.933,-351.154 859.493,-443.013 1015.78,-443.423 1081.93,-439.051"/>
<text text-anchor="middle" x="851.933" y="-425.754" font-family="Times New Roman,serif" font-size="8.00">SourceItemReference_Versionable</text>
<text text-anchor="middle" x="1073.93" y="-432.651" font-family="Times New Roman,serif" font-size="8.00">0...*</text>
<text text-anchor="middle" x="717.548" y="-187.467" font-family="Times New Roman,serif" font-size="8.00">0...*</text>
</g>
<!-- GenericMapItemMapType&#45;&gt;Versionable -->
<g id="edge12" class="edge"><title>GenericMapItemMapType&#45;&gt;Versionable</title>
<path fill="none" stroke="black" d="M701.898,-184.826C724.748,-197.119 749.857,-211.501 771.933,-226.154 839.132,-270.76 870.606,-271.124 913.933,-339.154 932.347,-368.068 906.349,-391.338 931.933,-414.154 973.517,-451.24 1043.56,-447.645 1083.05,-441.837"/>
<text text-anchor="middle" x="851.933" y="-341.754" font-family="Times New Roman,serif" font-size="8.00">TargetItemReference_Versionable</text>
<text text-anchor="middle" x="1075.05" y="-444.437" font-family="Times New Roman,serif" font-size="8.00">0...*</text>
<text text-anchor="middle" x="693.898" y="-187.426" font-family="Times New Roman,serif" font-size="8.00">0...*</text>
</g>
<!-- Comparison -->
<g id="ItemTypeComparison" class="node"><title></title><ellipse fill="#f7b733" stroke="black" cx="33.4665" cy="-149.154" rx="33.433" ry="18" style="filter: url(#dropshadow)"/>
<text text-anchor="middle" x="33.4665" y="-147.254" font-family="Times New Roman,serif" font-size="8.00">Comparison</text>
</g>
<!-- Comparison&#45;&gt;GenericMapProperties -->
<g id="edge16" class="edge"><title>Comparison&#45;&gt;GenericMapProperties</title>
<path fill="none" stroke="black" d="M48.5581,-165.568C57.8082,-175.03 70.7835,-186.037 84.9329,-191.154 114.167,-201.728 146.662,-201.198 177.32,-195.6"/>
<text text-anchor="middle" x="125.933" y="-202.754" font-family="Times New Roman,serif" font-size="8.00">ConceptMapReference</text>
<text text-anchor="middle" x="169.32" y="-189.2" font-family="Times New Roman,serif" font-size="8.00">0...*</text>
<text text-anchor="middle" x="40.5581" y="-168.168" font-family="Times New Roman,serif" font-size="8.00">0...*</text>
</g>
<!-- Comparison&#45;&gt;GenericMapProperties -->
<g id="edge17" class="edge"><title>Comparison&#45;&gt;GenericMapProperties</title>
<path fill="none" stroke="black" d="M64.478,-156.101C71.1739,-157.371 78.266,-158.5 84.9329,-159.154 114.706,-162.076 146.895,-162.174 177.044,-160.935"/>
<text text-anchor="middle" x="125.933" y="-164.754" font-family="Times New Roman,serif" font-size="8.00">VariableMapReference</text>
<text text-anchor="middle" x="169.044" y="-154.535" font-family="Times New Roman,serif" font-size="8.00">0...*</text>
<text text-anchor="middle" x="72.478" y="-149.701" font-family="Times New Roman,serif" font-size="8.00">0...*</text>
</g>
<!-- Comparison&#45;&gt;GenericMapProperties -->
<g id="edge18" class="edge"><title>Comparison&#45;&gt;GenericMapProperties</title>
<path fill="none" stroke="black" d="M67.1605,-149.154C95.0023,-149.154 136.818,-149.154 177.3,-149.154"/>
<text text-anchor="middle" x="125.933" y="-151.754" font-family="Times New Roman,serif" font-size="8.00">QuestionMapReference</text>
<text text-anchor="middle" x="169.3" y="-142.754" font-family="Times New Roman,serif" font-size="8.00">0...*</text>
<text text-anchor="middle" x="75.1605" y="-142.754" font-family="Times New Roman,serif" font-size="8.00">0...*</text>
</g>
<!-- Comparison&#45;&gt;GenericMapProperties -->
<g id="edge19" class="edge"><title>Comparison&#45;&gt;GenericMapProperties</title>
<path fill="none" stroke="black" d="M63.0462,-140.46C70.1312,-138.675 77.7523,-137.064 84.9329,-136.154 114.719,-132.38 146.981,-132.274 177.201,-133.901"/>
<text text-anchor="middle" x="125.933" y="-138.754" font-family="Times New Roman,serif" font-size="8.00">CategoryMapReference</text>
<text text-anchor="middle" x="169.201" y="-127.501" font-family="Times New Roman,serif" font-size="8.00">0...*</text>
<text text-anchor="middle" x="71.0462" y="-134.06" font-family="Times New Roman,serif" font-size="8.00">0...*</text>
</g>
<!-- Comparison&#45;&gt;GenericMapProperties -->
<g id="edge20" class="edge"><title>Comparison&#45;&gt;GenericMapProperties</title>
<path fill="none" stroke="black" d="M54.0265,-134.72C62.9714,-128.988 73.9979,-123.073 84.9329,-120.154 114.404,-112.29 146.756,-112.353 177.181,-116.099"/>
<text text-anchor="middle" x="125.933" y="-122.754" font-family="Times New Roman,serif" font-size="8.00">UniverseMapReference</text>
<text text-anchor="middle" x="169.181" y="-109.699" font-family="Times New Roman,serif" font-size="8.00">0...*</text>
<text text-anchor="middle" x="46.0265" y="-128.32" font-family="Times New Roman,serif" font-size="8.00">0...*</text>
</g>
</g>
</svg>
