<?xml version="1.0" encoding="UTF-8" standalone="no"?>
<!DOCTYPE svg PUBLIC "-//W3C//DTD SVG 1.1//EN"
 "http://www.w3.org/Graphics/SVG/1.1/DTD/svg11.dtd">
<!-- Generated by graphviz version 2.38.0 (20140413.2041)
 -->
<!-- Title: G Pages: 1 -->
<svg width="751pt" height="913pt"
 viewBox="0.00 0.00 750.81 913.26" xmlns="http://www.w3.org/2000/svg" xmlns:xlink="http://www.w3.org/1999/xlink">
<filter id = "dropshadow" height = "130%" ><feGaussianBlur in= "SourceAlpha" stdDeviation = "3"/><!--stdDeviation is how much to blur--><feOffset dx = "2" dy = "2" result = "offsetblur"/><!--how much to offset--><feMerge><feMergeNode/><!--this contains the offset blurred image--><feMergeNode in= "SourceGraphic"/><!--this contains the element that the filter is applied to --></feMerge></filter>
<g id="graph0" class="graph" transform="scale(1 1) rotate(0) translate(4 909.258)">
<title>G</title>
<g id="clust1" class="cluster"><title>clusterInternationalStringType</title>
<polygon fill="#4abdac" stroke="black" points="273.807,-452.258 273.807,-539.258 734.807,-539.258 734.807,-452.258 273.807,-452.258" style="filter: url(#dropshadow)"/>
<text text-anchor="middle" x="504.307" y="-528.858" font-family="Times New Roman,serif" font-size="8.00">InternationalStringType</text>
</g>
<!-- InternationalStringTypeProperties -->
<g id="ReusableTypeInternationalStringTypeProperties" class="node"><title></title><polygon fill="#f7b733" stroke="black" points="281.807,-469.258 281.807,-505.258 441.807,-505.258 441.807,-469.258 281.807,-469.258" style="filter: url(#dropshadow)"/>
<text text-anchor="middle" x="308.307" y="-485.358" font-family="Times New Roman,serif" font-size="8.00">Properties</text>
<polyline fill="none" stroke="black" points="334.807,-469.258 334.807,-505.258 "/>
<text text-anchor="start" x="342.807" y="-485.358" font-family="Times New Roman,serif" font-size="8.00">String : StringType[0...n] </text>
</g>
<!-- InternationalStringTypeStringType -->
<g id="ReusableTypeInternationalStringTypeStringType" class="node"><title></title><polygon fill="#fc4a1a" stroke="black" points="498.807,-460.758 498.807,-513.758 726.807,-513.758 726.807,-460.758 498.807,-460.758" style="filter: url(#dropshadow)"/>
<text text-anchor="middle" x="526.807" y="-485.358" font-family="Times New Roman,serif" font-size="8.00">StringType</text>
<polyline fill="none" stroke="black" points="554.807,-460.758 554.807,-513.758 "/>
<text text-anchor="start" x="562.807" y="-503.358" font-family="Times New Roman,serif" font-size="8.00">Lang : language[0...1] </text>
<text text-anchor="start" x="562.807" y="-494.358" font-family="Times New Roman,serif" font-size="8.00">IsTranslated : boolean[0...1] </text>
<text text-anchor="start" x="562.807" y="-485.358" font-family="Times New Roman,serif" font-size="8.00">IsTranslatable : boolean[0...1] </text>
<text text-anchor="start" x="562.807" y="-476.358" font-family="Times New Roman,serif" font-size="8.00">TranslationSourceLanguage : language[0...n] </text>
<text text-anchor="start" x="562.807" y="-467.358" font-family="Times New Roman,serif" font-size="8.00">TranslationDate : date[0...1] </text>
</g>
<!-- InternationalStringTypeProperties&#45;&gt;InternationalStringTypeStringType -->
<g id="edge1" class="edge"><title>InternationalStringTypeProperties&#45;&gt;InternationalStringTypeStringType</title>
<path fill="none" stroke="black" d="M441.934,-487.258C460.02,-487.258 479.585,-487.258 498.783,-487.258"/>
<text text-anchor="middle" x="470.307" y="-489.858" font-family="Times New Roman,serif" font-size="8.00">String</text>
</g>
<!-- Group -->
<g id="ItemTypeGroup" class="node"><title></title><ellipse fill="#f7b733" stroke="black" cx="70.9035" cy="-887.258" rx="27" ry="18" style="filter: url(#dropshadow)"/>
<text text-anchor="middle" x="70.9035" y="-885.358" font-family="Times New Roman,serif" font-size="8.00">Group</text>
</g>
<!-- Group&#45;&gt;InternationalStringTypeProperties -->
<g id="edge2" class="edge"><title>Group&#45;&gt;InternationalStringTypeProperties</title>
<path fill="none" stroke="black" d="M97.7209,-890.356C138.518,-893.716 217.957,-893.792 263.807,-851.258 309.333,-809.024 340.694,-629.139 353.853,-539.071"/>
<text text-anchor="middle" x="211.807" y="-892.858" font-family="Times New Roman,serif" font-size="8.00">AnalysisUnitsCovered</text>
</g>
<!-- StudyUnit -->
<g id="ItemTypeStudyUnit" class="node"><title></title><ellipse fill="#f7b733" stroke="black" cx="70.9035" cy="-833.258" rx="28.8574" ry="18" style="filter: url(#dropshadow)"/>
<text text-anchor="middle" x="70.9035" y="-831.358" font-family="Times New Roman,serif" font-size="8.00">StudyUnit</text>
</g>
<!-- StudyUnit&#45;&gt;InternationalStringTypeProperties -->
<g id="edge3" class="edge"><title>StudyUnit&#45;&gt;InternationalStringTypeProperties</title>
<path fill="none" stroke="black" d="M99.4728,-836.954C140.478,-840.822 217.645,-841.598 263.807,-801.258 340.116,-734.571 357.23,-609.265 360.556,-538.785"/>
<text text-anchor="middle" x="211.807" y="-840.858" font-family="Times New Roman,serif" font-size="8.00">AnalysisUnitsCovered</text>
</g>
<!-- BasedOnObjectType -->
<g id="ReusableTypeBasedOnObjectType" class="node"><title></title><ellipse fill="#f7b733" stroke="black" cx="70.9035" cy="-779.258" rx="49.8323" ry="18" style="filter: url(#dropshadow)"/>
<text text-anchor="middle" x="70.9035" y="-777.358" font-family="Times New Roman,serif" font-size="8.00">BasedOnObjectType</text>
</g>
<!-- BasedOnObjectType&#45;&gt;InternationalStringTypeProperties -->
<g id="edge4" class="edge"><title>BasedOnObjectType&#45;&gt;InternationalStringTypeProperties</title>
<path fill="none" stroke="black" d="M116.885,-786.56C159.311,-790.825 222.408,-790.057 263.807,-757.258 330.737,-704.23 351.525,-601.139 357.956,-538.818"/>
<text text-anchor="middle" x="211.807" y="-790.858" font-family="Times New Roman,serif" font-size="8.00">BasedOnRationaleDescription</text>
</g>
<!-- CitationType -->
<g id="ReusableTypeCitationType" class="node"><title></title><ellipse fill="#f7b733" stroke="black" cx="70.9035" cy="-725.258" rx="36.1063" ry="18" style="filter: url(#dropshadow)"/>
<text text-anchor="middle" x="70.9035" y="-723.358" font-family="Times New Roman,serif" font-size="8.00">CitationType</text>
</g>
<!-- CitationType&#45;&gt;InternationalStringTypeProperties -->
<g id="edge5" class="edge"><title>CitationType&#45;&gt;InternationalStringTypeProperties</title>
<path fill="none" stroke="black" d="M101.811,-734.75C142.277,-745.635 215.007,-758.066 263.807,-725.258 325.485,-683.791 347.966,-595.528 356.146,-538.92"/>
<text text-anchor="middle" x="211.807" y="-749.858" font-family="Times New Roman,serif" font-size="8.00">Title</text>
</g>
<!-- CitationType&#45;&gt;InternationalStringTypeProperties -->
<g id="edge6" class="edge"><title>CitationType&#45;&gt;InternationalStringTypeProperties</title>
<path fill="none" stroke="black" d="M106.387,-721.262C158.21,-714.996 251.453,-702.61 263.807,-693.258 313.3,-655.791 338.573,-586.777 350.716,-539.017"/>
<text text-anchor="middle" x="211.807" y="-716.858" font-family="Times New Roman,serif" font-size="8.00">SubTitle</text>
</g>
<!-- CitationType&#45;&gt;InternationalStringTypeProperties -->
<g id="edge7" class="edge"><title>CitationType&#45;&gt;InternationalStringTypeProperties</title>
<path fill="none" stroke="black" d="M102.025,-715.804C114.693,-711.28 129.351,-705.304 141.807,-698.258 150.628,-693.267 150.635,-688.569 159.807,-684.258 202.65,-664.122 225.835,-689.526 263.807,-661.258 304.379,-631.053 330.253,-578.571 344.98,-539.123"/>
<text text-anchor="middle" x="211.807" y="-686.858" font-family="Times New Roman,serif" font-size="8.00">AlternateTitle</text>
</g>
<!-- CitationType&#45;&gt;InternationalStringTypeProperties -->
<g id="edge8" class="edge"><title>CitationType&#45;&gt;InternationalStringTypeProperties</title>
<path fill="none" stroke="black" d="M104.997,-718.559C117.853,-714.525 131.85,-708.171 141.807,-698.258 157.365,-682.768 143.126,-666.53 159.807,-652.258 195.777,-621.482 224.592,-655.775 263.807,-629.258 296.59,-607.089 321.43,-569.807 337.763,-539.006"/>
<text text-anchor="middle" x="211.807" y="-654.858" font-family="Times New Roman,serif" font-size="8.00">Copyright</text>
</g>
<!-- CollectionType -->
<g id="ReusableTypeCollectionType" class="node"><title></title><ellipse fill="#f7b733" stroke="black" cx="70.9035" cy="-671.258" rx="40.0477" ry="18" style="filter: url(#dropshadow)"/>
<text text-anchor="middle" x="70.9035" y="-669.358" font-family="Times New Roman,serif" font-size="8.00">CollectionType</text>
</g>
<!-- CollectionType&#45;&gt;InternationalStringTypeProperties -->
<g id="edge9" class="edge"><title>CollectionType&#45;&gt;InternationalStringTypeProperties</title>
<path fill="none" stroke="black" d="M106.228,-662.271C118.239,-658.064 131.33,-652.188 141.807,-644.258 152.438,-636.21 148.6,-627.48 159.807,-620.258 199.599,-594.613 223.032,-621.307 263.807,-597.258 288.206,-582.867 309.717,-560.211 326.243,-539.19"/>
<text text-anchor="middle" x="211.807" y="-622.858" font-family="Times New Roman,serif" font-size="8.00">LocationInArchive</text>
</g>
<!-- CommandFileType -->
<g id="ReusableTypeCommandFileType" class="node"><title></title><ellipse fill="#f7b733" stroke="black" cx="70.9035" cy="-617.258" rx="47.16" ry="18" style="filter: url(#dropshadow)"/>
<text text-anchor="middle" x="70.9035" y="-615.358" font-family="Times New Roman,serif" font-size="8.00">CommandFileType</text>
</g>
<!-- CommandFileType&#45;&gt;InternationalStringTypeProperties -->
<g id="edge10" class="edge"><title>CommandFileType&#45;&gt;InternationalStringTypeProperties</title>
<path fill="none" stroke="black" d="M106.972,-605.664C123.066,-600.35 142.402,-593.974 159.807,-588.258 206.009,-573.084 220.237,-575.856 263.807,-554.258 272.772,-549.813 281.851,-544.623 290.673,-539.133"/>
<text text-anchor="middle" x="211.807" y="-590.858" font-family="Times New Roman,serif" font-size="8.00">Location</text>
</g>
<!-- DataFileIdentificationType -->
<g id="ReusableTypeDataFileIdentificationType" class="node"><title></title><ellipse fill="#f7b733" stroke="black" cx="70.9035" cy="-563.258" rx="63.5591" ry="18" style="filter: url(#dropshadow)"/>
<text text-anchor="middle" x="70.9035" y="-561.358" font-family="Times New Roman,serif" font-size="8.00">DataFileIdentificationType</text>
</g>
<!-- DataFileIdentificationType&#45;&gt;InternationalStringTypeProperties -->
<g id="edge11" class="edge"><title>DataFileIdentificationType&#45;&gt;InternationalStringTypeProperties</title>
<path fill="none" stroke="black" d="M120.136,-551.702C159.02,-542.264 215.06,-528.385 263.807,-515.258 267.249,-514.331 270.756,-513.374 274.296,-512.399"/>
<text text-anchor="middle" x="211.807" y="-543.858" font-family="Times New Roman,serif" font-size="8.00">Location</text>
</g>
<!-- FormType -->
<g id="ReusableTypeFormType0" class="node"><title></title><ellipse fill="#f7b733" stroke="black" cx="70.9035" cy="-509.258" rx="30.7612" ry="18" style="filter: url(#dropshadow)"/>
<text text-anchor="middle" x="70.9035" y="-507.358" font-family="Times New Roman,serif" font-size="8.00">FormType</text>
</g>
<!-- FormType&#45;&gt;InternationalStringTypeProperties -->
<g id="edge12" class="edge"><title>FormType&#45;&gt;InternationalStringTypeProperties</title>
<path fill="none" stroke="black" d="M101.464,-507.007C141.734,-503.94 215.531,-498.32 274.135,-493.858"/>
<text text-anchor="middle" x="211.807" y="-504.858" font-family="Times New Roman,serif" font-size="8.00">Statement</text>
</g>
<!-- GeographicLevelType -->
<g id="ReusableTypeGeographicLevelType1" class="node"><title></title><ellipse fill="#f7b733" stroke="black" cx="70.9035" cy="-455.258" rx="53.1395" ry="18" style="filter: url(#dropshadow)"/>
<text text-anchor="middle" x="70.9035" y="-453.358" font-family="Times New Roman,serif" font-size="8.00">GeographicLevelType</text>
</g>
<!-- GeographicLevelType&#45;&gt;InternationalStringTypeProperties -->
<g id="edge13" class="edge"><title>GeographicLevelType&#45;&gt;InternationalStringTypeProperties</title>
<path fill="none" stroke="black" d="M121.897,-460.795C163.671,-465.422 224.213,-472.128 273.897,-477.631"/>
<text text-anchor="middle" x="211.807" y="-478.858" font-family="Times New Roman,serif" font-size="8.00">CoverageLimitation</text>
</g>
<!-- IndividualNameType -->
<g id="ReusableTypeIndividualNameType2" class="node"><title></title><ellipse fill="#f7b733" stroke="black" cx="70.9035" cy="-401.258" rx="50.4666" ry="18" style="filter: url(#dropshadow)"/>
<text text-anchor="middle" x="70.9035" y="-399.358" font-family="Times New Roman,serif" font-size="8.00">IndividualNameType</text>
</g>
<!-- IndividualNameType&#45;&gt;InternationalStringTypeProperties -->
<g id="edge14" class="edge"><title>IndividualNameType&#45;&gt;InternationalStringTypeProperties</title>
<path fill="none" stroke="black" d="M112.956,-411.462C151.982,-421.379 212.213,-437.248 263.807,-453.258 267.2,-454.31 270.651,-455.405 274.132,-456.529"/>
<text text-anchor="middle" x="211.807" y="-455.858" font-family="Times New Roman,serif" font-size="8.00">FullName</text>
</g>
<!-- IndividualNameType&#45;&gt;InternationalStringTypeProperties -->
<g id="edge15" class="edge"><title>IndividualNameType&#45;&gt;InternationalStringTypeProperties</title>
<path fill="none" stroke="black" d="M119.644,-396.315C159.478,-393.972 217.075,-394.789 263.807,-412.258 287.024,-420.936 309.188,-437.236 326.454,-452.428"/>
<text text-anchor="middle" x="211.807" y="-414.858" font-family="Times New Roman,serif" font-size="8.00">Abbreviation</text>
</g>
<!-- ItemType -->
<g id="ReusableTypeItemType3" class="node"><title></title><ellipse fill="#f7b733" stroke="black" cx="70.9035" cy="-347.258" rx="29.4917" ry="18" style="filter: url(#dropshadow)"/>
<text text-anchor="middle" x="70.9035" y="-345.358" font-family="Times New Roman,serif" font-size="8.00">ItemType</text>
</g>
<!-- ItemType&#45;&gt;InternationalStringTypeProperties -->
<g id="edge16" class="edge"><title>ItemType&#45;&gt;InternationalStringTypeProperties</title>
<path fill="none" stroke="black" d="M100.43,-347.166C139.622,-348.203 211.234,-354.344 263.807,-383.258 293.976,-399.85 320.061,-429.226 337.558,-452.535"/>
<text text-anchor="middle" x="211.807" y="-385.858" font-family="Times New Roman,serif" font-size="8.00">LocationInArchive</text>
</g>
<!-- NoteType -->
<g id="ReusableTypeNoteType4" class="node"><title></title><ellipse fill="#f7b733" stroke="black" cx="70.9035" cy="-293.258" rx="30.1263" ry="18" style="filter: url(#dropshadow)"/>
<text text-anchor="middle" x="70.9035" y="-291.358" font-family="Times New Roman,serif" font-size="8.00">NoteType</text>
</g>
<!-- NoteType&#45;&gt;InternationalStringTypeProperties -->
<g id="edge17" class="edge"><title>NoteType&#45;&gt;InternationalStringTypeProperties</title>
<path fill="none" stroke="black" d="M101.271,-293.931C141.439,-296.205 214.178,-305.286 263.807,-340.258 303.665,-368.344 331.505,-418.48 346.834,-452.297"/>
<text text-anchor="middle" x="211.807" y="-342.858" font-family="Times New Roman,serif" font-size="8.00">Header</text>
</g>
<!-- OrganizationNameType -->
<g id="ReusableTypeOrganizationNameType5" class="node"><title></title><ellipse fill="#f7b733" stroke="black" cx="70.9035" cy="-239.258" rx="57.0809" ry="18" style="filter: url(#dropshadow)"/>
<text text-anchor="middle" x="70.9035" y="-237.358" font-family="Times New Roman,serif" font-size="8.00">OrganizationNameType</text>
</g>
<!-- OrganizationNameType&#45;&gt;InternationalStringTypeProperties -->
<g id="edge18" class="edge"><title>OrganizationNameType&#45;&gt;InternationalStringTypeProperties</title>
<path fill="none" stroke="black" d="M127.915,-241.23C169.498,-245.389 225.418,-256.984 263.807,-288.258 315.808,-330.621 341.988,-407.704 353.386,-452.483"/>
<text text-anchor="middle" x="211.807" y="-290.858" font-family="Times New Roman,serif" font-size="8.00">Abbreviation</text>
</g>
<!-- PrimaryComponentLevelType -->
<g id="ReusableTypePrimaryComponentLevelType6" class="node"><title></title><ellipse fill="#f7b733" stroke="black" cx="70.9035" cy="-185.258" rx="70.8072" ry="18" style="filter: url(#dropshadow)"/>
<text text-anchor="middle" x="70.9035" y="-183.358" font-family="Times New Roman,serif" font-size="8.00">PrimaryComponentLevelType</text>
</g>
<!-- PrimaryComponentLevelType&#45;&gt;InternationalStringTypeProperties -->
<g id="edge19" class="edge"><title>PrimaryComponentLevelType&#45;&gt;InternationalStringTypeProperties</title>
<path fill="none" stroke="black" d="M141.796,-187.219C181.817,-191.81 230.534,-203.747 263.807,-233.258 329.008,-291.086 350.616,-397.617 357.596,-452.523"/>
<text text-anchor="middle" x="211.807" y="-235.858" font-family="Times New Roman,serif" font-size="8.00">CoverageLimitation</text>
</g>
<!-- UsedType -->
<g id="ReusableTypeUsedType7" class="node"><title></title><ellipse fill="#f7b733" stroke="black" cx="70.9035" cy="-131.258" rx="29.4917" ry="18" style="filter: url(#dropshadow)"/>
<text text-anchor="middle" x="70.9035" y="-129.358" font-family="Times New Roman,serif" font-size="8.00">UsedType</text>
</g>
<!-- UsedType&#45;&gt;InternationalStringTypeProperties -->
<g id="edge20" class="edge"><title>UsedType&#45;&gt;InternationalStringTypeProperties</title>
<path fill="none" stroke="black" d="M100.341,-129.885C141.751,-129.489 218.619,-135.042 263.807,-177.258 342.756,-251.014 357.864,-388 360.469,-452.265"/>
<text text-anchor="middle" x="211.807" y="-179.858" font-family="Times New Roman,serif" font-size="8.00">AlternateName</text>
</g>
<!-- VersionRationaleType -->
<g id="ReusableTypeVersionRationaleType8" class="node"><title></title><ellipse fill="#f7b733" stroke="black" cx="70.9035" cy="-77.2576" rx="53.7736" ry="18" style="filter: url(#dropshadow)"/>
<text text-anchor="middle" x="70.9035" y="-75.3576" font-family="Times New Roman,serif" font-size="8.00">VersionRationaleType</text>
</g>
<!-- VersionRationaleType&#45;&gt;InternationalStringTypeProperties -->
<g id="edge21" class="edge"><title>VersionRationaleType&#45;&gt;InternationalStringTypeProperties</title>
<path fill="none" stroke="black" d="M124.851,-75.6379C167.822,-77.2581 227.104,-86.6185 263.807,-122.258 311.476,-168.544 344.464,-370.312 356.139,-452.366"/>
<text text-anchor="middle" x="211.807" y="-124.858" font-family="Times New Roman,serif" font-size="8.00">RationaleDescription</text>
</g>
<!-- VocabularyType -->
<g id="ReusableTypeVocabularyType9" class="node"><title></title><ellipse fill="#f7b733" stroke="black" cx="70.9035" cy="-23.2576" rx="41.9498" ry="18" style="filter: url(#dropshadow)"/>
<text text-anchor="middle" x="70.9035" y="-21.3576" font-family="Times New Roman,serif" font-size="8.00">VocabularyType</text>
</g>
<!-- VocabularyType&#45;&gt;InternationalStringTypeProperties -->
<g id="edge22" class="edge"><title>VocabularyType&#45;&gt;InternationalStringTypeProperties</title>
<path fill="none" stroke="black" d="M111.874,-27.2212C161.656,-32.9776 242.74,-45.317 263.807,-66.2576 318.8,-120.921 348.235,-361.898 357.525,-452.585"/>
<text text-anchor="middle" x="211.807" y="-68.8576" font-family="Times New Roman,serif" font-size="8.00">VocabularyTitle</text>
</g>
<!-- VocabularyType&#45;&gt;InternationalStringTypeProperties -->
<g id="edge23" class="edge"><title>VocabularyType&#45;&gt;InternationalStringTypeProperties</title>
<path fill="none" stroke="black" d="M104.537,-12.214C146.386,-0.306728 218.903,12.408 263.807,-24.2576 330.442,-78.6678 352.976,-354.096 358.964,-452.362"/>
<text text-anchor="middle" x="211.807" y="-26.8576" font-family="Times New Roman,serif" font-size="8.00">Abbreviation</text>
</g>
</g>
</svg>
