<?xml version="1.0" encoding="UTF-8" standalone="no"?>
<!DOCTYPE svg PUBLIC "-//W3C//DTD SVG 1.1//EN"
 "http://www.w3.org/Graphics/SVG/1.1/DTD/svg11.dtd">
<!-- Generated by graphviz version 2.38.0 (20140413.2041)
 -->
<!-- Title: G Pages: 1 -->
<svg width="2559pt" height="721pt"
 viewBox="0.00 0.00 2559.04 721.00" xmlns="http://www.w3.org/2000/svg" xmlns:xlink="http://www.w3.org/1999/xlink">
<filter id = "dropshadow" height = "130%" ><feGaussianBlur in= "SourceAlpha" stdDeviation = "3"/><!--stdDeviation is how much to blur--><feOffset dx = "2" dy = "2" result = "offsetblur"/><!--how much to offset--><feMerge><feMergeNode/><!--this contains the offset blurred image--><feMergeNode in= "SourceGraphic"/><!--this contains the element that the filter is applied to --></feMerge></filter>
<g id="graph0" class="graph" transform="scale(1 1) rotate(0) translate(4 717)">
<title>G</title>
<g id="clust1" class="cluster"><title>clusterMeasurementItem</title>
<polygon fill="#4abdac" stroke="black" points="236.042,-211 236.042,-705 2543.04,-705 2543.04,-211 236.042,-211" style="filter: url(#dropshadow)"/>
<text text-anchor="middle" x="1389.54" y="-694.6" font-family="Times New Roman,serif" font-size="8.00">MeasurementItem</text>
</g>
<!-- MeasurementItemProperties -->
<g id="ItemTypeMeasurementItemProperties" class="node"><title></title><polygon fill="#f7b733" stroke="black" points="244.042,-312 244.042,-482 596.042,-482 596.042,-312 244.042,-312" style="filter: url(#dropshadow)"/>
<text text-anchor="middle" x="270.542" y="-395.1" font-family="Times New Roman,serif" font-size="8.00">Properties</text>
<polyline fill="none" stroke="black" points="297.042,-312 297.042,-482 "/>
<text text-anchor="start" x="305.042" y="-471.6" font-family="Times New Roman,serif" font-size="8.00">MeasurementItemName : NameType[0...n] </text>
<text text-anchor="start" x="305.042" y="-462.6" font-family="Times New Roman,serif" font-size="8.00">Label : LabelType[0...n] </text>
<text text-anchor="start" x="305.042" y="-453.6" font-family="Times New Roman,serif" font-size="8.00">Description : StructuredStringType[0...1] </text>
<text text-anchor="start" x="305.042" y="-444.6" font-family="Times New Roman,serif" font-size="8.00">InParameter : InParameterType[0...n] </text>
<text text-anchor="start" x="305.042" y="-435.6" font-family="Times New Roman,serif" font-size="8.00">OutParameter : ParameterType[0...n] </text>
<text text-anchor="start" x="305.042" y="-426.6" font-family="Times New Roman,serif" font-size="8.00">Binding : BindingType[0...n] </text>
<text text-anchor="start" x="305.042" y="-417.6" font-family="Times New Roman,serif" font-size="8.00">TypeOfMeasurementItem : CodeValueType[0...n] </text>
<text text-anchor="start" x="305.042" y="-408.6" font-family="Times New Roman,serif" font-size="8.00">MeasurementItemIntent : StructuredStringType[0...1] </text>
<text text-anchor="start" x="305.042" y="-399.6" font-family="Times New Roman,serif" font-size="8.00">ResponseDomain : RepresentationType[0...1] </text>
<text text-anchor="start" x="305.042" y="-390.6" font-family="Times New Roman,serif" font-size="8.00">ResponseDomainReference : ManagedRepresentation[0...1] </text>
<text text-anchor="start" x="305.042" y="-381.6" font-family="Times New Roman,serif" font-size="8.00">StructuredMixedResponseDomain : StructuredMixedResponseDomainType[0...1] </text>
<text text-anchor="start" x="305.042" y="-372.6" font-family="Times New Roman,serif" font-size="8.00">ResponseCardinality : ResponseCardinalityType[0...1] </text>
<text text-anchor="start" x="305.042" y="-363.6" font-family="Times New Roman,serif" font-size="8.00">ConceptReference : Concept[0...n] </text>
<text text-anchor="start" x="305.042" y="-354.6" font-family="Times New Roman,serif" font-size="8.00">ExternalAid : ExternalAidType[0...n] </text>
<text text-anchor="start" x="305.042" y="-345.6" font-family="Times New Roman,serif" font-size="8.00">ExternalInterviewerInstruction : ExternalInterviewerInstructionType[0...1] </text>
<text text-anchor="start" x="305.042" y="-336.6" font-family="Times New Roman,serif" font-size="8.00">InterviewerInstructionReference : Instruction[0...1] </text>
<text text-anchor="start" x="305.042" y="-327.6" font-family="Times New Roman,serif" font-size="8.00">RepresentedVariableReference : RepresentedVariable[0...n] </text>
<text text-anchor="start" x="305.042" y="-318.6" font-family="Times New Roman,serif" font-size="8.00">EstimatedSecondsResponseTime : decimal[0...1] </text>
</g>
<!-- MeasurementItemNameType -->
<g id="ReusableTypeMeasurementItemNameType" class="node"><title></title><polygon fill="#fc4a1a" stroke="black" points="1931.54,-396 1931.54,-432 2100.54,-432 2100.54,-396 1931.54,-396" style="filter: url(#dropshadow)"/>
<text text-anchor="middle" x="1959.54" y="-412.1" font-family="Times New Roman,serif" font-size="8.00">NameType</text>
<polyline fill="none" stroke="black" points="1987.54,-396 1987.54,-432 "/>
<text text-anchor="start" x="1995.54" y="-416.6" font-family="Times New Roman,serif" font-size="8.00">IsPreferred : boolean[0...1] </text>
<text text-anchor="start" x="1995.54" y="-407.6" font-family="Times New Roman,serif" font-size="8.00">Context : string[0...1] </text>
</g>
<!-- MeasurementItemProperties&#45;&gt;MeasurementItemNameType -->
<g id="edge1" class="edge"><title>MeasurementItemProperties&#45;&gt;MeasurementItemNameType</title>
<path fill="none" stroke="black" d="M596.191,-399.765C602.214,-399.846 608.178,-399.925 614.042,-400 1113.86,-406.382 1714.02,-411.539 1931.35,-413.326"/>
<text text-anchor="middle" x="1305.54" y="-411.6" font-family="Times New Roman,serif" font-size="8.00">MeasurementItemName</text>
</g>
<!-- MeasurementItemLabelType -->
<g id="ReusableTypeMeasurementItemLabelType" class="node"><title></title><polygon fill="#fc4a1a" stroke="black" points="1200.04,-317.5 1200.04,-370.5 1411.04,-370.5 1411.04,-317.5 1200.04,-317.5" style="filter: url(#dropshadow)"/>
<text text-anchor="middle" x="1227.04" y="-342.1" font-family="Times New Roman,serif" font-size="8.00">LabelType</text>
<polyline fill="none" stroke="black" points="1254.04,-317.5 1254.04,-370.5 "/>
<text text-anchor="start" x="1262.04" y="-360.1" font-family="Times New Roman,serif" font-size="8.00">TypeOfLabel : CodeValueType[0...1] </text>
<text text-anchor="start" x="1262.04" y="-351.1" font-family="Times New Roman,serif" font-size="8.00">LocationVariant : string[0...1] </text>
<text text-anchor="start" x="1262.04" y="-342.1" font-family="Times New Roman,serif" font-size="8.00">ValidForStartDate : cogsDate[0...1] </text>
<text text-anchor="start" x="1262.04" y="-333.1" font-family="Times New Roman,serif" font-size="8.00">ValidForEndDate : cogsDate[0...1] </text>
<text text-anchor="start" x="1262.04" y="-324.1" font-family="Times New Roman,serif" font-size="8.00">MaxLength : nonNegativeInteger[0...1] </text>
</g>
<!-- MeasurementItemProperties&#45;&gt;MeasurementItemLabelType -->
<g id="edge2" class="edge"><title>MeasurementItemProperties&#45;&gt;MeasurementItemLabelType</title>
<path fill="none" stroke="black" d="M596.096,-361.483C645.35,-353.027 699.107,-345.232 749.042,-341 940.799,-324.748 989.612,-338.644 1182.04,-341 1187.89,-341.072 1193.9,-341.162 1199.96,-341.268"/>
<text text-anchor="middle" x="672.542" y="-360.6" font-family="Times New Roman,serif" font-size="8.00">Label</text>
</g>
<!-- MeasurementItemStructuredStringType -->
<g id="ReusableTypeMeasurementItemStructuredStringType" class="node"><title></title><polygon fill="#fc4a1a" stroke="black" points="1909.54,-458 1909.54,-494 2122.54,-494 2122.54,-458 1909.54,-458" style="filter: url(#dropshadow)"/>
<text text-anchor="middle" x="1954.54" y="-474.1" font-family="Times New Roman,serif" font-size="8.00">StructuredStringType</text>
<polyline fill="none" stroke="black" points="1999.54,-458 1999.54,-494 "/>
<text text-anchor="start" x="2007.54" y="-474.1" font-family="Times New Roman,serif" font-size="8.00">Content : ContentType[0...n] </text>
</g>
<!-- MeasurementItemProperties&#45;&gt;MeasurementItemStructuredStringType -->
<g id="edge3" class="edge"><title>MeasurementItemProperties&#45;&gt;MeasurementItemStructuredStringType</title>
<path fill="none" stroke="black" d="M596.166,-477.395C644.607,-495.234 697.936,-510.944 749.042,-518 838.044,-530.287 1727.14,-509.597 1736.04,-509 1793.47,-505.147 1857.23,-497.835 1909.29,-491.071"/>
<text text-anchor="middle" x="1305.54" y="-521.6" font-family="Times New Roman,serif" font-size="8.00">Description</text>
</g>
<!-- MeasurementItemInParameterType -->
<g id="ReusableTypeMeasurementItemInParameterType" class="node"><title></title><polygon fill="#fc4a1a" stroke="black" points="863.042,-351 863.042,-387 1068.04,-387 1068.04,-351 863.042,-351" style="filter: url(#dropshadow)"/>
<text text-anchor="middle" x="902.542" y="-367.1" font-family="Times New Roman,serif" font-size="8.00">InParameterType</text>
<polyline fill="none" stroke="black" points="942.042,-351 942.042,-387 "/>
<text text-anchor="start" x="950.042" y="-367.1" font-family="Times New Roman,serif" font-size="8.00">LimitArrayIndex : string[0...1] </text>
</g>
<!-- MeasurementItemProperties&#45;&gt;MeasurementItemInParameterType -->
<g id="edge4" class="edge"><title>MeasurementItemProperties&#45;&gt;MeasurementItemInParameterType</title>
<path fill="none" stroke="black" d="M596.376,-387.967C684.48,-383.428 788.121,-378.089 862.954,-374.234"/>
<text text-anchor="middle" x="672.542" y="-389.6" font-family="Times New Roman,serif" font-size="8.00">InParameter</text>
</g>
<!-- MeasurementItemParameterType -->
<g id="ReusableTypeMeasurementItemParameterType" class="node"><title></title><polygon fill="#fc4a1a" stroke="black" points="1429.04,-428.5 1429.04,-499.5 1736.04,-499.5 1736.04,-428.5 1429.04,-428.5" style="filter: url(#dropshadow)"/>
<text text-anchor="middle" x="1464.54" y="-462.1" font-family="Times New Roman,serif" font-size="8.00">ParameterType</text>
<polyline fill="none" stroke="black" points="1500.04,-428.5 1500.04,-499.5 "/>
<text text-anchor="start" x="1508.04" y="-489.1" font-family="Times New Roman,serif" font-size="8.00">ParameterName : NameType[0...n] </text>
<text text-anchor="start" x="1508.04" y="-480.1" font-family="Times New Roman,serif" font-size="8.00">Alias : string[0...1] </text>
<text text-anchor="start" x="1508.04" y="-471.1" font-family="Times New Roman,serif" font-size="8.00">Description : StructuredStringType[0...1] </text>
<text text-anchor="start" x="1508.04" y="-462.1" font-family="Times New Roman,serif" font-size="8.00">ValueRepresentation : RepresentationType[0...1] </text>
<text text-anchor="start" x="1508.04" y="-453.1" font-family="Times New Roman,serif" font-size="8.00">ValueRepresentationReference : ManagedRepresentation[0...1] </text>
<text text-anchor="start" x="1508.04" y="-444.1" font-family="Times New Roman,serif" font-size="8.00">DefaultValue : ValueType[0...1] </text>
<text text-anchor="start" x="1508.04" y="-435.1" font-family="Times New Roman,serif" font-size="8.00">IsArray : boolean[0...1] </text>
</g>
<!-- MeasurementItemProperties&#45;&gt;MeasurementItemParameterType -->
<g id="edge5" class="edge"><title>MeasurementItemProperties&#45;&gt;MeasurementItemParameterType</title>
<path fill="none" stroke="black" d="M596.179,-410.795C602.205,-411.211 608.174,-411.614 614.042,-412 767.834,-422.108 1197.2,-444.39 1428.81,-456.237"/>
<text text-anchor="middle" x="965.542" y="-445.6" font-family="Times New Roman,serif" font-size="8.00">OutParameter</text>
</g>
<!-- MeasurementItemBindingType -->
<g id="ReusableTypeMeasurementItemBindingType" class="node"><title></title><polygon fill="#fc4a1a" stroke="black" points="836.542,-472 836.542,-508 1094.54,-508 1094.54,-472 836.542,-472" style="filter: url(#dropshadow)"/>
<text text-anchor="middle" x="867.542" y="-488.1" font-family="Times New Roman,serif" font-size="8.00">BindingType</text>
<polyline fill="none" stroke="black" points="898.542,-472 898.542,-508 "/>
<text text-anchor="start" x="906.542" y="-492.6" font-family="Times New Roman,serif" font-size="8.00">SourceParameterReference : ParameterType[0...1] </text>
<text text-anchor="start" x="906.542" y="-483.6" font-family="Times New Roman,serif" font-size="8.00">TargetParameterReference : ParameterType[0...1] </text>
</g>
<!-- MeasurementItemProperties&#45;&gt;MeasurementItemBindingType -->
<g id="edge6" class="edge"><title>MeasurementItemProperties&#45;&gt;MeasurementItemBindingType</title>
<path fill="none" stroke="black" d="M596.192,-445.376C602.201,-446.657 608.164,-447.871 614.042,-449 687.143,-463.045 769.807,-472.993 836.49,-479.57"/>
<text text-anchor="middle" x="672.542" y="-469.6" font-family="Times New Roman,serif" font-size="8.00">Binding</text>
</g>
<!-- MeasurementItemCodeValueType -->
<g id="ReusableTypeMeasurementItemCodeValueType" class="node"><title></title><polygon fill="#fc4a1a" stroke="black" points="2276.04,-567.5 2276.04,-638.5 2535.04,-638.5 2535.04,-567.5 2276.04,-567.5" style="filter: url(#dropshadow)"/>
<text text-anchor="middle" x="2311.54" y="-601.1" font-family="Times New Roman,serif" font-size="8.00">CodeValueType</text>
<polyline fill="none" stroke="black" points="2347.04,-567.5 2347.04,-638.5 "/>
<text text-anchor="start" x="2355.04" y="-628.1" font-family="Times New Roman,serif" font-size="8.00">ControlledVocabularyID : string[0...1] </text>
<text text-anchor="start" x="2355.04" y="-619.1" font-family="Times New Roman,serif" font-size="8.00">ControlledVocabularyName : string[0...1] </text>
<text text-anchor="start" x="2355.04" y="-610.1" font-family="Times New Roman,serif" font-size="8.00">ControlledVocabularyAgencyName : string[0...1] </text>
<text text-anchor="start" x="2355.04" y="-601.1" font-family="Times New Roman,serif" font-size="8.00">ControlledVocabularyVersionID : string[0...1] </text>
<text text-anchor="start" x="2355.04" y="-592.1" font-family="Times New Roman,serif" font-size="8.00">OtherValue : string[0...1] </text>
<text text-anchor="start" x="2355.04" y="-583.1" font-family="Times New Roman,serif" font-size="8.00">ControlledVocabularyURN : string[0...1] </text>
<text text-anchor="start" x="2355.04" y="-574.1" font-family="Times New Roman,serif" font-size="8.00">ControlledVocabularySchemeURN : string[0...1] </text>
</g>
<!-- MeasurementItemProperties&#45;&gt;MeasurementItemCodeValueType -->
<g id="edge7" class="edge"><title>MeasurementItemProperties&#45;&gt;MeasurementItemCodeValueType</title>
<path fill="none" stroke="black" d="M466.031,-482.048C499.388,-536.221 550.088,-602.801 614.042,-639 666.72,-668.817 688.667,-652.656 749.042,-657 1371.9,-701.81 1532.28,-702.134 2154.04,-644 2193.86,-640.277 2236.93,-634.041 2275.94,-627.542"/>
<text text-anchor="middle" x="1582.54" y="-691.6" font-family="Times New Roman,serif" font-size="8.00">TypeOfMeasurementItem</text>
</g>
<!-- MeasurementItemRepresentationType -->
<g id="ReusableTypeMeasurementItemRepresentationType" class="node"><title></title><polygon fill="#fc4a1a" stroke="black" points="1878.04,-572 1878.04,-634 2154.04,-634 2154.04,-572 1878.04,-572" style="filter: url(#dropshadow)"/>
<text text-anchor="middle" x="1922.04" y="-601.1" font-family="Times New Roman,serif" font-size="8.00">RepresentationType</text>
<polyline fill="none" stroke="black" points="1966.04,-572 1966.04,-634 "/>
<text text-anchor="start" x="1974.04" y="-623.6" font-family="Times New Roman,serif" font-size="8.00">RecommendedDataType : CodeValueType[0...1] </text>
<text text-anchor="start" x="1974.04" y="-614.6" font-family="Times New Roman,serif" font-size="8.00">GenericOutputFormat : CodeValueType[0...1] </text>
<text text-anchor="start" x="1974.04" y="-605.6" font-family="Times New Roman,serif" font-size="8.00">MeasurementUnit : CodeValueType[0...1] </text>
<text text-anchor="start" x="1974.04" y="-596.6" font-family="Times New Roman,serif" font-size="8.00">MissingValue : string[0...1] </text>
<text text-anchor="start" x="1974.04" y="-587.6" font-family="Times New Roman,serif" font-size="8.00">BlankIsMissingValue : boolean[0...1] </text>
<text text-anchor="start" x="1974.04" y="-578.6" font-family="Times New Roman,serif" font-size="8.00">ClassificationLevel : string[0...1] </text>
</g>
<!-- MeasurementItemProperties&#45;&gt;MeasurementItemRepresentationType -->
<g id="edge8" class="edge"><title>MeasurementItemProperties&#45;&gt;MeasurementItemRepresentationType</title>
<path fill="none" stroke="black" d="M473.684,-482.05C507.851,-530.131 556.645,-587.211 614.042,-621 666.849,-652.086 688.085,-642.745 749.042,-649 964.343,-671.092 1596.87,-632.027 1877.84,-612.782"/>
<text text-anchor="middle" x="1305.54" y="-651.6" font-family="Times New Roman,serif" font-size="8.00">ResponseDomain</text>
</g>
<!-- ManagedRepresentation -->
<g id="ItemTypeManagedRepresentation0" class="node"><title></title><ellipse fill="#f7b733" stroke="black" cx="2016.04" cy="-162" rx="56.9465" ry="18" style="filter: url(#dropshadow)"/>
<text text-anchor="middle" x="2016.04" y="-160.1" font-family="Times New Roman,serif" font-size="8.00">ManagedRepresentation</text>
</g>
<!-- MeasurementItemProperties&#45;&gt;ManagedRepresentation -->
<g id="edge9" class="edge"><title>MeasurementItemProperties&#45;&gt;ManagedRepresentation</title>
<path fill="none" stroke="black" d="M508.906,-311.968C540.03,-285.829 576.655,-259.187 614.042,-241 669.401,-214.071 688.181,-219.262 749.042,-210 1212.75,-139.434 1782.39,-153.125 1959.71,-159.665"/>
<text text-anchor="middle" x="1305.54" y="-168.6" font-family="Times New Roman,serif" font-size="8.00">ResponseDomainReference</text>
<text text-anchor="middle" x="1951.71" y="-153.265" font-family="Times New Roman,serif" font-size="8.00">0...*</text>
<text text-anchor="middle" x="500.906" y="-305.568" font-family="Times New Roman,serif" font-size="8.00">0...*</text>
</g>
<!-- MeasurementItemStructuredMixedResponseDomainType -->
<g id="ReusableTypeMeasurementItemStructuredMixedResponseDomainType1" class="node"><title></title><polygon fill="#fc4a1a" stroke="black" points="767.042,-548 767.042,-584 1164.04,-584 1164.04,-548 767.042,-548" style="filter: url(#dropshadow)"/>
<text text-anchor="middle" x="843.042" y="-564.1" font-family="Times New Roman,serif" font-size="8.00">StructuredMixedResponseDomainType</text>
<polyline fill="none" stroke="black" points="919.042,-548 919.042,-584 "/>
<text text-anchor="start" x="927.042" y="-568.6" font-family="Times New Roman,serif" font-size="8.00">ResponseTextSet : ResponseTextSetType[0...1] </text>
<text text-anchor="start" x="927.042" y="-559.6" font-family="Times New Roman,serif" font-size="8.00">ResponseDomainInMixed : ResponseDomainInMixedType[0...1] </text>
</g>
<!-- MeasurementItemProperties&#45;&gt;MeasurementItemStructuredMixedResponseDomainType -->
<g id="edge10" class="edge"><title>MeasurementItemProperties&#45;&gt;MeasurementItemStructuredMixedResponseDomainType</title>
<path fill="none" stroke="black" d="M521.096,-482.17C549.482,-502.101 581.552,-520.998 614.042,-533 661.915,-550.685 715.848,-560.344 766.793,-565.331"/>
<text text-anchor="middle" x="672.542" y="-562.6" font-family="Times New Roman,serif" font-size="8.00">StructuredMixedResponseDomain</text>
<text text-anchor="middle" x="758.793" y="-558.931" font-family="Times New Roman,serif" font-size="8.00">0...*</text>
<text text-anchor="middle" x="513.096" y="-484.77" font-family="Times New Roman,serif" font-size="8.00">0...*</text>
</g>
<!-- MeasurementItemResponseCardinalityType -->
<g id="ReusableTypeMeasurementItemResponseCardinalityType2" class="node"><title></title><polygon fill="#fc4a1a" stroke="black" points="903.042,-603 903.042,-639 1028.04,-639 1028.04,-603 903.042,-603" style="filter: url(#dropshadow)"/>
<text text-anchor="middle" x="956.042" y="-619.1" font-family="Times New Roman,serif" font-size="8.00">ResponseCardinalityType</text>
<polyline fill="none" stroke="black" points="1009.04,-603 1009.04,-639 "/>
<text text-anchor="middle" x="1018.54" y="-619.1" font-family="Times New Roman,serif" font-size="8.00"> </text>
</g>
<!-- MeasurementItemProperties&#45;&gt;MeasurementItemResponseCardinalityType -->
<g id="edge11" class="edge"><title>MeasurementItemProperties&#45;&gt;MeasurementItemResponseCardinalityType</title>
<path fill="none" stroke="black" d="M493.869,-482.408C527.098,-515.919 569.058,-551.445 614.042,-573 707.51,-617.786 830.052,-624.385 902.725,-623.681"/>
<text text-anchor="middle" x="672.542" y="-610.6" font-family="Times New Roman,serif" font-size="8.00">ResponseCardinality</text>
<text text-anchor="middle" x="894.725" y="-617.281" font-family="Times New Roman,serif" font-size="8.00">0...*</text>
<text text-anchor="middle" x="485.869" y="-485.008" font-family="Times New Roman,serif" font-size="8.00">0...*</text>
</g>
<!-- Concept -->
<g id="ItemTypeConcept3" class="node"><title></title><ellipse fill="#f7b733" stroke="black" cx="965.542" cy="-126" rx="27" ry="18" style="filter: url(#dropshadow)"/>
<text text-anchor="middle" x="965.542" y="-124.1" font-family="Times New Roman,serif" font-size="8.00">Concept</text>
</g>
<!-- MeasurementItemProperties&#45;&gt;Concept -->
<g id="edge12" class="edge"><title>MeasurementItemProperties&#45;&gt;Concept</title>
<path fill="none" stroke="black" d="M462.796,-311.815C495.533,-255.088 546.801,-184.65 614.042,-149 723.144,-91.156 878.953,-110.432 939.312,-121.015"/>
<text text-anchor="middle" x="672.542" y="-151.6" font-family="Times New Roman,serif" font-size="8.00">ConceptReference</text>
<text text-anchor="middle" x="931.312" y="-114.615" font-family="Times New Roman,serif" font-size="8.00">0...*</text>
<text text-anchor="middle" x="470.796" y="-305.415" font-family="Times New Roman,serif" font-size="8.00">0...*</text>
</g>
<!-- MeasurementItemExternalAidType -->
<g id="ReusableTypeMeasurementItemExternalAidType4" class="node"><title></title><polygon fill="#fc4a1a" stroke="black" points="836.542,-275 836.542,-311 1094.54,-311 1094.54,-275 836.542,-275" style="filter: url(#dropshadow)"/>
<text text-anchor="middle" x="875.042" y="-291.1" font-family="Times New Roman,serif" font-size="8.00">ExternalAidType</text>
<polyline fill="none" stroke="black" points="913.542,-275 913.542,-311 "/>
<text text-anchor="start" x="921.542" y="-291.1" font-family="Times New Roman,serif" font-size="8.00">OtherMaterialReference : OtherMaterial[0...1] </text>
</g>
<!-- MeasurementItemProperties&#45;&gt;MeasurementItemExternalAidType -->
<g id="edge13" class="edge"><title>MeasurementItemProperties&#45;&gt;MeasurementItemExternalAidType</title>
<path fill="none" stroke="black" d="M575.995,-311.899C588.622,-307.204 601.393,-303.134 614.042,-300 686.116,-282.145 769.097,-279.718 836.221,-282.07"/>
<text text-anchor="middle" x="672.542" y="-302.6" font-family="Times New Roman,serif" font-size="8.00">ExternalAid</text>
<text text-anchor="middle" x="828.221" y="-275.67" font-family="Times New Roman,serif" font-size="8.00">0...*</text>
<text text-anchor="middle" x="567.995" y="-305.499" font-family="Times New Roman,serif" font-size="8.00">0...*</text>
</g>
<!-- MeasurementItemExternalInterviewerInstructionType -->
<g id="ReusableTypeMeasurementItemExternalInterviewerInstructionType5" class="node"><title></title><polygon fill="#fc4a1a" stroke="black" points="749.042,-220 749.042,-256 1182.04,-256 1182.04,-220 749.042,-220" style="filter: url(#dropshadow)"/>
<text text-anchor="middle" x="820.542" y="-236.1" font-family="Times New Roman,serif" font-size="8.00">ExternalInterviewerInstructionType</text>
<polyline fill="none" stroke="black" points="892.042,-220 892.042,-256 "/>
<text text-anchor="start" x="900.042" y="-245.1" font-family="Times New Roman,serif" font-size="8.00">OtherMaterialReference : OtherMaterial[0...1] </text>
<text text-anchor="start" x="900.042" y="-236.1" font-family="Times New Roman,serif" font-size="8.00">InstructionAttachmentLocation : InstructionAttachmentLocationType[0...n] </text>
<text text-anchor="start" x="900.042" y="-227.1" font-family="Times New Roman,serif" font-size="8.00">IsDisplayed : boolean[0...1] </text>
</g>
<!-- MeasurementItemProperties&#45;&gt;MeasurementItemExternalInterviewerInstructionType -->
<g id="edge14" class="edge"><title>MeasurementItemProperties&#45;&gt;MeasurementItemExternalInterviewerInstructionType</title>
<path fill="none" stroke="black" d="M531.563,-311.952C557.414,-295.812 585.71,-280.899 614.042,-271 656.451,-256.183 703.401,-247.154 748.787,-241.811"/>
<text text-anchor="middle" x="672.542" y="-273.6" font-family="Times New Roman,serif" font-size="8.00">ExternalInterviewerInstruction</text>
<text text-anchor="middle" x="740.787" y="-235.411" font-family="Times New Roman,serif" font-size="8.00">0...*</text>
<text text-anchor="middle" x="523.563" y="-305.552" font-family="Times New Roman,serif" font-size="8.00">0...*</text>
</g>
<!-- Instruction -->
<g id="ItemTypeInstruction6" class="node"><title></title><ellipse fill="#f7b733" stroke="black" cx="965.542" cy="-72" rx="31.3964" ry="18" style="filter: url(#dropshadow)"/>
<text text-anchor="middle" x="965.542" y="-70.1" font-family="Times New Roman,serif" font-size="8.00">Instruction</text>
</g>
<!-- MeasurementItemProperties&#45;&gt;Instruction -->
<g id="edge15" class="edge"><title>MeasurementItemProperties&#45;&gt;Instruction</title>
<path fill="none" stroke="black" d="M452.482,-311.706C482.692,-242.87 535.444,-150.013 614.042,-103 718.369,-40.5975 872.295,-56.4792 935.667,-66.6452"/>
<text text-anchor="middle" x="672.542" y="-105.6" font-family="Times New Roman,serif" font-size="8.00">InterviewerInstructionReference</text>
<text text-anchor="middle" x="927.667" y="-60.2452" font-family="Times New Roman,serif" font-size="8.00">0...*</text>
<text text-anchor="middle" x="444.482" y="-305.306" font-family="Times New Roman,serif" font-size="8.00">0...*</text>
</g>
<!-- RepresentedVariable -->
<g id="ItemTypeRepresentedVariable7" class="node"><title></title><ellipse fill="#f7b733" stroke="black" cx="965.542" cy="-18" rx="48.5642" ry="18" style="filter: url(#dropshadow)"/>
<text text-anchor="middle" x="965.542" y="-16.1" font-family="Times New Roman,serif" font-size="8.00">RepresentedVariable</text>
</g>
<!-- MeasurementItemProperties&#45;&gt;RepresentedVariable -->
<g id="edge16" class="edge"><title>MeasurementItemProperties&#45;&gt;RepresentedVariable</title>
<path fill="none" stroke="black" d="M443.592,-311.736C470.009,-230.122 522.295,-110.839 614.042,-51 709.263,11.1038 851.142,0.383465 921.613,-10.1226"/>
<text text-anchor="middle" x="672.542" y="-53.6" font-family="Times New Roman,serif" font-size="8.00">RepresentedVariableReference</text>
<text text-anchor="middle" x="913.613" y="-3.72257" font-family="Times New Roman,serif" font-size="8.00">0...*</text>
<text text-anchor="middle" x="435.592" y="-305.336" font-family="Times New Roman,serif" font-size="8.00">0...*</text>
</g>
<!-- MeasurementItemLabelType&#45;&gt;MeasurementItemCodeValueType -->
<g id="edge17" class="edge"><title>MeasurementItemLabelType&#45;&gt;MeasurementItemCodeValueType</title>
<path fill="none" stroke="black" d="M1411.26,-328.012C1576.06,-307.417 1903,-285.238 2154.04,-386 2250.16,-424.578 2334.95,-516.187 2376.83,-567.18"/>
<text text-anchor="middle" x="1807.04" y="-321.6" font-family="Times New Roman,serif" font-size="8.00">TypeOfLabel</text>
<text text-anchor="middle" x="2368.83" y="-560.78" font-family="Times New Roman,serif" font-size="8.00">0...*</text>
<text text-anchor="middle" x="1419.26" y="-321.612" font-family="Times New Roman,serif" font-size="8.00">0...*</text>
</g>
<!-- MeasurementItemParameterType&#45;&gt;MeasurementItemNameType -->
<g id="edge18" class="edge"><title>MeasurementItemParameterType&#45;&gt;MeasurementItemNameType</title>
<path fill="none" stroke="black" d="M1736.28,-446.302C1801.86,-438.702 1875.95,-430.117 1931.26,-423.708"/>
<text text-anchor="middle" x="1807.04" y="-445.6" font-family="Times New Roman,serif" font-size="8.00">ParameterName</text>
<text text-anchor="middle" x="1923.26" y="-417.308" font-family="Times New Roman,serif" font-size="8.00">0...*</text>
<text text-anchor="middle" x="1744.28" y="-439.902" font-family="Times New Roman,serif" font-size="8.00">0...*</text>
</g>
<!-- MeasurementItemParameterType&#45;&gt;MeasurementItemStructuredStringType -->
<g id="edge19" class="edge"><title>MeasurementItemParameterType&#45;&gt;MeasurementItemStructuredStringType</title>
<path fill="none" stroke="black" d="M1736.28,-468.248C1793.5,-469.839 1857.19,-471.61 1909.24,-473.058"/>
<text text-anchor="middle" x="1807.04" y="-473.6" font-family="Times New Roman,serif" font-size="8.00">Description</text>
<text text-anchor="middle" x="1901.24" y="-466.658" font-family="Times New Roman,serif" font-size="8.00">0...*</text>
<text text-anchor="middle" x="1744.28" y="-461.848" font-family="Times New Roman,serif" font-size="8.00">0...*</text>
</g>
<!-- MeasurementItemParameterType&#45;&gt;MeasurementItemRepresentationType -->
<g id="edge20" class="edge"><title>MeasurementItemParameterType&#45;&gt;MeasurementItemRepresentationType</title>
<path fill="none" stroke="black" d="M1693.82,-499.525C1763.24,-521.886 1851.97,-550.471 1918.58,-571.928"/>
<text text-anchor="middle" x="1807.04" y="-552.6" font-family="Times New Roman,serif" font-size="8.00">ValueRepresentation</text>
<text text-anchor="middle" x="1910.58" y="-565.528" font-family="Times New Roman,serif" font-size="8.00">0...*</text>
<text text-anchor="middle" x="1685.82" y="-502.125" font-family="Times New Roman,serif" font-size="8.00">0...*</text>
</g>
<!-- MeasurementItemParameterType&#45;&gt;ManagedRepresentation -->
<g id="edge21" class="edge"><title>MeasurementItemParameterType&#45;&gt;ManagedRepresentation</title>
<path fill="none" stroke="black" d="M1615.4,-428.21C1666,-373.36 1770.12,-268.427 1878.04,-207 1906.44,-190.839 1941.48,-179.461 1969.02,-172.189"/>
<text text-anchor="middle" x="1807.04" y="-296.6" font-family="Times New Roman,serif" font-size="8.00">ValueRepresentationReference</text>
<text text-anchor="middle" x="1961.02" y="-174.789" font-family="Times New Roman,serif" font-size="8.00">0...*</text>
<text text-anchor="middle" x="1607.4" y="-421.81" font-family="Times New Roman,serif" font-size="8.00">0...*</text>
</g>
<!-- MeasurementItemBindingType&#45;&gt;MeasurementItemParameterType -->
<g id="edge22" class="edge"><title>MeasurementItemBindingType&#45;&gt;MeasurementItemParameterType</title>
<path fill="none" stroke="black" d="M1094.95,-486.146C1183.75,-483.293 1304.6,-479.037 1411.04,-474 1416.82,-473.727 1422.7,-473.437 1428.65,-473.135"/>
<text text-anchor="middle" x="1305.54" y="-484.6" font-family="Times New Roman,serif" font-size="8.00">SourceParameterReference</text>
<text text-anchor="middle" x="1420.65" y="-466.735" font-family="Times New Roman,serif" font-size="8.00">0...*</text>
<text text-anchor="middle" x="1102.95" y="-479.746" font-family="Times New Roman,serif" font-size="8.00">0...*</text>
</g>
<!-- MeasurementItemBindingType&#45;&gt;MeasurementItemParameterType -->
<g id="edge23" class="edge"><title>MeasurementItemBindingType&#45;&gt;MeasurementItemParameterType</title>
<path fill="none" stroke="black" d="M1094.81,-473.841C1128.95,-470.205 1165.85,-466.87 1200.04,-465 1275.27,-460.885 1358.97,-460.23 1428.75,-460.772"/>
<text text-anchor="middle" x="1305.54" y="-467.6" font-family="Times New Roman,serif" font-size="8.00">TargetParameterReference</text>
<text text-anchor="middle" x="1420.75" y="-454.372" font-family="Times New Roman,serif" font-size="8.00">0...*</text>
<text text-anchor="middle" x="1102.81" y="-467.441" font-family="Times New Roman,serif" font-size="8.00">0...*</text>
</g>
<!-- MeasurementItemRepresentationType&#45;&gt;MeasurementItemCodeValueType -->
<g id="edge24" class="edge"><title>MeasurementItemRepresentationType&#45;&gt;MeasurementItemCodeValueType</title>
<path fill="none" stroke="black" d="M2154.17,-574.083C2160.19,-573.284 2166.17,-572.581 2172.04,-572 2210.08,-568.234 2220.03,-568.022 2258.04,-572 2263.86,-572.609 2269.79,-573.35 2275.76,-574.196"/>
<text text-anchor="middle" x="2215.04" y="-574.6" font-family="Times New Roman,serif" font-size="8.00">RecommendedDataType</text>
<text text-anchor="middle" x="2267.76" y="-567.796" font-family="Times New Roman,serif" font-size="8.00">0...*</text>
<text text-anchor="middle" x="2162.17" y="-567.683" font-family="Times New Roman,serif" font-size="8.00">0...*</text>
</g>
<!-- MeasurementItemRepresentationType&#45;&gt;MeasurementItemCodeValueType -->
<g id="edge25" class="edge"><title>MeasurementItemRepresentationType&#45;&gt;MeasurementItemCodeValueType</title>
<path fill="none" stroke="black" d="M2154.21,-603C2193.83,-603 2236.92,-603 2276,-603"/>
<text text-anchor="middle" x="2215.04" y="-605.6" font-family="Times New Roman,serif" font-size="8.00">GenericOutputFormat</text>
<text text-anchor="middle" x="2268" y="-596.6" font-family="Times New Roman,serif" font-size="8.00">0...*</text>
<text text-anchor="middle" x="2162.21" y="-596.6" font-family="Times New Roman,serif" font-size="8.00">0...*</text>
</g>
<!-- MeasurementItemRepresentationType&#45;&gt;MeasurementItemCodeValueType -->
<g id="edge26" class="edge"><title>MeasurementItemRepresentationType&#45;&gt;MeasurementItemCodeValueType</title>
<path fill="none" stroke="black" d="M2154.36,-612.33C2160.33,-612.587 2166.25,-612.813 2172.04,-613 2210.24,-614.231 2219.84,-614.302 2258.04,-613 2263.9,-612.8 2269.89,-612.556 2275.94,-612.276"/>
<text text-anchor="middle" x="2215.04" y="-615.6" font-family="Times New Roman,serif" font-size="8.00">MeasurementUnit</text>
<text text-anchor="middle" x="2267.94" y="-605.876" font-family="Times New Roman,serif" font-size="8.00">0...*</text>
<text text-anchor="middle" x="2162.36" y="-605.93" font-family="Times New Roman,serif" font-size="8.00">0...*</text>
</g>
<!-- OtherMaterial -->
<g id="ItemTypeOtherMaterial8" class="node"><title></title><ellipse fill="#f7b733" stroke="black" cx="1582.54" cy="-185" rx="37.3742" ry="18" style="filter: url(#dropshadow)"/>
<text text-anchor="middle" x="1582.54" y="-183.1" font-family="Times New Roman,serif" font-size="8.00">OtherMaterial</text>
</g>
<!-- MeasurementItemExternalAidType&#45;&gt;OtherMaterial -->
<g id="edge27" class="edge"><title>MeasurementItemExternalAidType&#45;&gt;OtherMaterial</title>
<path fill="none" stroke="black" d="M1094.79,-276.726C1123.51,-272.973 1153.83,-268.927 1182.04,-265 1283.95,-250.815 1322.65,-283.667 1411.04,-231 1422.5,-224.175 1417.57,-213.801 1429.04,-207 1464.59,-185.919 1512.78,-182.27 1545.4,-182.691"/>
<text text-anchor="middle" x="1305.54" y="-265.6" font-family="Times New Roman,serif" font-size="8.00">OtherMaterialReference</text>
<text text-anchor="middle" x="1537.4" y="-176.291" font-family="Times New Roman,serif" font-size="8.00">0...*</text>
<text text-anchor="middle" x="1102.79" y="-270.326" font-family="Times New Roman,serif" font-size="8.00">0...*</text>
</g>
<!-- MeasurementItemExternalInterviewerInstructionType&#45;&gt;OtherMaterial -->
<g id="edge28" class="edge"><title>MeasurementItemExternalInterviewerInstructionType&#45;&gt;OtherMaterial</title>
<path fill="none" stroke="black" d="M1175.61,-219.983C1310.72,-208.339 1474.17,-194.253 1545.42,-188.113"/>
<text text-anchor="middle" x="1305.54" y="-220.6" font-family="Times New Roman,serif" font-size="8.00">OtherMaterialReference</text>
<text text-anchor="middle" x="1537.42" y="-190.713" font-family="Times New Roman,serif" font-size="8.00">0...*</text>
<text text-anchor="middle" x="1167.61" y="-213.583" font-family="Times New Roman,serif" font-size="8.00">0...*</text>
</g>
<!-- MeasurementConstruct -->
<g id="ItemTypeMeasurementConstruct9" class="node"><title></title><ellipse fill="#f7b733" stroke="black" cx="55.0211" cy="-478" rx="55.0423" ry="18" style="filter: url(#dropshadow)"/>
<text text-anchor="middle" x="55.0211" y="-476.1" font-family="Times New Roman,serif" font-size="8.00">MeasurementConstruct</text>
</g>
<!-- MeasurementConstruct&#45;&gt;MeasurementItemProperties -->
<g id="edge29" class="edge"><title>MeasurementConstruct&#45;&gt;MeasurementItemProperties</title>
<path fill="none" stroke="black" d="M100.899,-467.987C135.524,-460.261 185.893,-449.022 236.381,-437.757"/>
<text text-anchor="middle" x="177.042" y="-462.6" font-family="Times New Roman,serif" font-size="8.00">MeasurementReference</text>
<text text-anchor="middle" x="228.381" y="-431.357" font-family="Times New Roman,serif" font-size="8.00">0...*</text>
<text text-anchor="middle" x="108.899" y="-461.587" font-family="Times New Roman,serif" font-size="8.00">0...*</text>
</g>
<!-- MeasurementGroup -->
<g id="ItemTypeMeasurementGroup0" class="node"><title></title><ellipse fill="#f7b733" stroke="black" cx="55.0211" cy="-424" rx="47.7948" ry="18" style="filter: url(#dropshadow)"/>
<text text-anchor="middle" x="55.0211" y="-422.1" font-family="Times New Roman,serif" font-size="8.00">MeasurementGroup</text>
</g>
<!-- MeasurementGroup&#45;&gt;MeasurementItemProperties -->
<g id="edge30" class="edge"><title>MeasurementGroup&#45;&gt;MeasurementItemProperties</title>
<path fill="none" stroke="black" d="M101.998,-420.58C136.569,-418.009 186.379,-414.305 236.312,-410.591"/>
<text text-anchor="middle" x="177.042" y="-421.6" font-family="Times New Roman,serif" font-size="8.00">MeasurementItemReference</text>
<text text-anchor="middle" x="228.312" y="-404.191" font-family="Times New Roman,serif" font-size="8.00">0...*</text>
<text text-anchor="middle" x="109.998" y="-414.18" font-family="Times New Roman,serif" font-size="8.00">0...*</text>
</g>
<!-- MeasurementScheme -->
<g id="ItemTypeMeasurementScheme1" class="node"><title></title><ellipse fill="#f7b733" stroke="black" cx="55.0211" cy="-370" rx="50.4666" ry="18" style="filter: url(#dropshadow)"/>
<text text-anchor="middle" x="55.0211" y="-368.1" font-family="Times New Roman,serif" font-size="8.00">MeasurementScheme</text>
</g>
<!-- MeasurementScheme&#45;&gt;MeasurementItemProperties -->
<g id="edge31" class="edge"><title>MeasurementScheme&#45;&gt;MeasurementItemProperties</title>
<path fill="none" stroke="black" d="M104.603,-373.613C138.989,-376.171 187.464,-379.776 236.079,-383.392"/>
<text text-anchor="middle" x="177.042" y="-384.6" font-family="Times New Roman,serif" font-size="8.00">MeasurementItemReference</text>
<text text-anchor="middle" x="228.079" y="-376.992" font-family="Times New Roman,serif" font-size="8.00">0...*</text>
<text text-anchor="middle" x="112.603" y="-367.213" font-family="Times New Roman,serif" font-size="8.00">0...*</text>
</g>
<!-- Variable -->
<g id="ItemTypeVariable2" class="node"><title></title><ellipse fill="#f7b733" stroke="black" cx="55.0211" cy="-316" rx="27" ry="18" style="filter: url(#dropshadow)"/>
<text text-anchor="middle" x="55.0211" y="-314.1" font-family="Times New Roman,serif" font-size="8.00">Variable</text>
</g>
<!-- Variable&#45;&gt;MeasurementItemProperties -->
<g id="edge32" class="edge"><title>Variable&#45;&gt;MeasurementItemProperties</title>
<path fill="none" stroke="black" d="M80.973,-321.567C113.914,-328.918 174.931,-342.532 236.155,-356.193"/>
<text text-anchor="middle" x="177.042" y="-354.6" font-family="Times New Roman,serif" font-size="8.00">MeasurementReference</text>
<text text-anchor="middle" x="228.155" y="-349.793" font-family="Times New Roman,serif" font-size="8.00">0...*</text>
<text text-anchor="middle" x="88.973" y="-315.167" font-family="Times New Roman,serif" font-size="8.00">0...*</text>
</g>
</g>
</svg>
