<?xml version="1.0" encoding="UTF-8" standalone="no"?>
<!DOCTYPE svg PUBLIC "-//W3C//DTD SVG 1.1//EN"
 "http://www.w3.org/Graphics/SVG/1.1/DTD/svg11.dtd">
<!-- Generated by graphviz version 2.38.0 (20140413.2041)
 -->
<!-- Title: G Pages: 1 -->
<svg width="949pt" height="368pt"
 viewBox="0.00 0.00 948.67 368.00" xmlns="http://www.w3.org/2000/svg" xmlns:xlink="http://www.w3.org/1999/xlink">
<filter id = "dropshadow" height = "130%" ><feGaussianBlur in= "SourceAlpha" stdDeviation = "3"/><!--stdDeviation is how much to blur--><feOffset dx = "2" dy = "2" result = "offsetblur"/><!--how much to offset--><feMerge><feMergeNode/><!--this contains the offset blurred image--><feMergeNode in= "SourceGraphic"/><!--this contains the element that the filter is applied to --></feMerge></filter>
<g id="graph0" class="graph" transform="scale(1 1) rotate(0) translate(4 364)">
<title>G</title>
<g id="clust1" class="cluster"><title>clusterVersionable</title>
<polygon fill="#4abdac" stroke="black" points="317.673,-119 317.673,-245 932.673,-245 932.673,-119 317.673,-119" style="filter: url(#dropshadow)"/>
<text text-anchor="middle" x="625.173" y="-234.6" font-family="Times New Roman,serif" font-size="8.00">Versionable</text>
</g>
<!-- VersionableProperties -->
<g id="ItemTypeVersionableProperties" class="node"><title></title><polygon fill="#f7b733" stroke="black" points="325.673,-134.5 325.673,-205.5 579.673,-205.5 579.673,-134.5 325.673,-134.5" style="filter: url(#dropshadow)"/>
<text text-anchor="middle" x="352.173" y="-168.1" font-family="Times New Roman,serif" font-size="8.00">Properties</text>
<polyline fill="none" stroke="black" points="378.673,-134.5 378.673,-205.5 "/>
<text text-anchor="start" x="386.673" y="-195.1" font-family="Times New Roman,serif" font-size="8.00">URN : string[1...1] </text>
<text text-anchor="start" x="386.673" y="-186.1" font-family="Times New Roman,serif" font-size="8.00">Agency : string[1...1] </text>
<text text-anchor="start" x="386.673" y="-177.1" font-family="Times New Roman,serif" font-size="8.00">ID : string[1...1] </text>
<text text-anchor="start" x="386.673" y="-168.1" font-family="Times New Roman,serif" font-size="8.00">Version : string[1...1] </text>
<text text-anchor="start" x="386.673" y="-159.1" font-family="Times New Roman,serif" font-size="8.00">UserID : UserIDType[0...n] </text>
<text text-anchor="start" x="386.673" y="-150.1" font-family="Times New Roman,serif" font-size="8.00">MaintainableObject : MaintainableObjectType[0...1] </text>
<text text-anchor="start" x="386.673" y="-141.1" font-family="Times New Roman,serif" font-size="8.00">IsVersionable : boolean[0...1] </text>
</g>
<!-- VersionableUserIDType -->
<g id="ReusableTypeVersionableUserIDType" class="node"><title></title><polygon fill="#fc4a1a" stroke="black" points="705.673,-128 705.673,-164 902.673,-164 902.673,-128 705.673,-128" style="filter: url(#dropshadow)"/>
<text text-anchor="middle" x="735.673" y="-144.1" font-family="Times New Roman,serif" font-size="8.00">UserIDType</text>
<polyline fill="none" stroke="black" points="765.673,-128 765.673,-164 "/>
<text text-anchor="start" x="773.673" y="-153.1" font-family="Times New Roman,serif" font-size="8.00">TypeOfUserID : string[1...1] </text>
<text text-anchor="start" x="773.673" y="-144.1" font-family="Times New Roman,serif" font-size="8.00">UserIDVersion : string[0...1] </text>
<text text-anchor="start" x="773.673" y="-135.1" font-family="Times New Roman,serif" font-size="8.00">TypeOfUserVersion : string[0...1] </text>
</g>
<!-- VersionableProperties&#45;&gt;VersionableUserIDType -->
<g id="edge1" class="edge"><title>VersionableProperties&#45;&gt;VersionableUserIDType</title>
<path fill="none" stroke="black" d="M579.85,-161.335C621.204,-158.496 666.5,-155.385 705.425,-152.712"/>
<text text-anchor="middle" x="631.673" y="-162.6" font-family="Times New Roman,serif" font-size="8.00">UserID</text>
</g>
<!-- VersionableMaintainableObjectType -->
<g id="ReusableTypeVersionableMaintainableObjectType" class="node"><title></title><polygon fill="#fc4a1a" stroke="black" points="683.673,-183 683.673,-219 924.673,-219 924.673,-183 683.673,-183" style="filter: url(#dropshadow)"/>
<text text-anchor="middle" x="735.173" y="-199.1" font-family="Times New Roman,serif" font-size="8.00">MaintainableObjectType</text>
<polyline fill="none" stroke="black" points="786.673,-183 786.673,-219 "/>
<text text-anchor="start" x="794.673" y="-208.1" font-family="Times New Roman,serif" font-size="8.00">TypeOfObject : string[0...1] </text>
<text text-anchor="start" x="794.673" y="-199.1" font-family="Times New Roman,serif" font-size="8.00">MaintainableID : IDType[0...1] </text>
<text text-anchor="start" x="794.673" y="-190.1" font-family="Times New Roman,serif" font-size="8.00">MaintainableVersion : string[0...1] </text>
</g>
<!-- VersionableProperties&#45;&gt;VersionableMaintainableObjectType -->
<g id="edge2" class="edge"><title>VersionableProperties&#45;&gt;VersionableMaintainableObjectType</title>
<path fill="none" stroke="black" d="M579.85,-181.192C613.676,-184.192 650.14,-187.426 683.597,-190.394"/>
<text text-anchor="middle" x="631.673" y="-191.6" font-family="Times New Roman,serif" font-size="8.00">MaintainableObject</text>
</g>
<!-- DevelopmentPlan -->
<g id="ItemTypeDevelopmentPlan" class="node"><title></title><ellipse fill="#f7b733" stroke="black" cx="70.3363" cy="-342" rx="45.2568" ry="18" style="filter: url(#dropshadow)"/>
<text text-anchor="middle" x="70.3363" y="-340.1" font-family="Times New Roman,serif" font-size="8.00">DevelopmentPlan</text>
</g>
<!-- DevelopmentPlan&#45;&gt;VersionableProperties -->
<g id="edge3" class="edge"><title>DevelopmentPlan&#45;&gt;VersionableProperties</title>
<path fill="none" stroke="black" d="M114.191,-337.09C163.036,-330.247 244.301,-315.015 307.673,-284 329.035,-273.545 350.174,-259.504 369.405,-244.855"/>
<text text-anchor="middle" x="233.173" y="-332.6" font-family="Times New Roman,serif" font-size="8.00">DevelopmentObjectReference_Versionable</text>
</g>
<!-- BasedOnObjectType -->
<g id="ReusableTypeBasedOnObjectType" class="node"><title></title><ellipse fill="#f7b733" stroke="black" cx="70.3363" cy="-288" rx="49.8323" ry="18" style="filter: url(#dropshadow)"/>
<text text-anchor="middle" x="70.3363" y="-286.1" font-family="Times New Roman,serif" font-size="8.00">BasedOnObjectType</text>
</g>
<!-- BasedOnObjectType&#45;&gt;VersionableProperties -->
<g id="edge4" class="edge"><title>BasedOnObjectType&#45;&gt;VersionableProperties</title>
<path fill="none" stroke="black" d="M115.562,-280.23C163.552,-271.218 242.103,-254.768 307.673,-233 311.113,-231.858 314.584,-230.664 318.074,-229.428"/>
<text text-anchor="middle" x="233.173" y="-273.6" font-family="Times New Roman,serif" font-size="8.00">BasedOnReference_Versionable</text>
</g>
<!-- DevelopmentProcessStepType -->
<g id="ReusableTypeDevelopmentProcessStepType" class="node"><title></title><ellipse fill="#f7b733" stroke="black" cx="70.3363" cy="-234" rx="70.173" ry="18" style="filter: url(#dropshadow)"/>
<text text-anchor="middle" x="70.3363" y="-232.1" font-family="Times New Roman,serif" font-size="8.00">DevelopmentProcessStepType</text>
</g>
<!-- DevelopmentProcessStepType&#45;&gt;VersionableProperties -->
<g id="edge5" class="edge"><title>DevelopmentProcessStepType&#45;&gt;VersionableProperties</title>
<path fill="none" stroke="black" d="M130.119,-224.44C177.951,-216.627 247.195,-205.24 307.673,-195 310.98,-194.44 314.329,-193.871 317.708,-193.296"/>
<text text-anchor="middle" x="233.173" y="-222.6" font-family="Times New Roman,serif" font-size="8.00">DevelopmentObjectReference_Versionable</text>
</g>
<!-- ItemMapType -->
<g id="ReusableTypeItemMapType" class="node"><title></title><ellipse fill="#f7b733" stroke="black" cx="70.3363" cy="-180" rx="38.6432" ry="18" style="filter: url(#dropshadow)"/>
<text text-anchor="middle" x="70.3363" y="-178.1" font-family="Times New Roman,serif" font-size="8.00">ItemMapType</text>
</g>
<!-- ItemMapType&#45;&gt;VersionableProperties -->
<g id="edge6" class="edge"><title>ItemMapType&#45;&gt;VersionableProperties</title>
<path fill="none" stroke="black" d="M109.008,-180.804C155.659,-181.615 237.552,-182.432 307.673,-180 310.983,-179.885 314.336,-179.756 317.718,-179.613"/>
<text text-anchor="middle" x="233.173" y="-184.6" font-family="Times New Roman,serif" font-size="8.00">SourceItemReference_Versionable</text>
</g>
<!-- ItemMapType&#45;&gt;VersionableProperties -->
<g id="edge7" class="edge"><title>ItemMapType&#45;&gt;VersionableProperties</title>
<path fill="none" stroke="black" d="M107.817,-175.425C123.449,-173.676 141.929,-171.889 158.673,-171 210.719,-168.236 268.04,-167.525 318.075,-167.665"/>
<text text-anchor="middle" x="233.173" y="-173.6" font-family="Times New Roman,serif" font-size="8.00">TargetItemReference_Versionable</text>
</g>
<!-- LinkingMapType -->
<g id="ReusableTypeLinkingMapType" class="node"><title></title><ellipse fill="#f7b733" stroke="black" cx="70.3363" cy="-126" rx="44.4889" ry="18" style="filter: url(#dropshadow)"/>
<text text-anchor="middle" x="70.3363" y="-124.1" font-family="Times New Roman,serif" font-size="8.00">LinkingMapType</text>
</g>
<!-- LinkingMapType&#45;&gt;VersionableProperties -->
<g id="edge8" class="edge"><title>LinkingMapType&#45;&gt;VersionableProperties</title>
<path fill="none" stroke="black" d="M113.127,-130.835C162.193,-136.511 246.02,-146.209 317.981,-154.534"/>
<text text-anchor="middle" x="233.173" y="-156.6" font-family="Times New Roman,serif" font-size="8.00">LocalObjectReference_Versionable</text>
</g>
<!-- LinkingMapType&#45;&gt;VersionableProperties -->
<g id="edge9" class="edge"><title>LinkingMapType&#45;&gt;VersionableProperties</title>
<path fill="none" stroke="black" d="M114.868,-124.807C128.855,-124.476 144.417,-124.163 158.673,-124 224.89,-123.242 242.24,-113.803 307.673,-124 311.019,-124.522 314.395,-125.107 317.787,-125.75"/>
<text text-anchor="middle" x="233.173" y="-126.6" font-family="Times New Roman,serif" font-size="8.00">DepositoryObjectReference_Versionable</text>
</g>
<!-- RelationshipType -->
<g id="ReusableTypeRelationshipType" class="node"><title></title><ellipse fill="#f7b733" stroke="black" cx="70.3363" cy="-72" rx="44.6228" ry="18" style="filter: url(#dropshadow)"/>
<text text-anchor="middle" x="70.3363" y="-70.1" font-family="Times New Roman,serif" font-size="8.00">RelationshipType</text>
</g>
<!-- RelationshipType&#45;&gt;VersionableProperties -->
<g id="edge10" class="edge"><title>RelationshipType&#45;&gt;VersionableProperties</title>
<path fill="none" stroke="black" d="M114.759,-74.9609C162.729,-79.0272 241.894,-88.1051 307.673,-107 319.487,-110.394 331.603,-114.544 343.547,-119.079"/>
<text text-anchor="middle" x="233.173" y="-109.6" font-family="Times New Roman,serif" font-size="8.00">RelatedToReference_Versionable</text>
</g>
<!-- ResourceUsedType -->
<g id="ReusableTypeResourceUsedType0" class="node"><title></title><ellipse fill="#f7b733" stroke="black" cx="70.3363" cy="-18" rx="47.16" ry="18" style="filter: url(#dropshadow)"/>
<text text-anchor="middle" x="70.3363" y="-16.1" font-family="Times New Roman,serif" font-size="8.00">ResourceUsedType</text>
</g>
<!-- ResourceUsedType&#45;&gt;VersionableProperties -->
<g id="edge11" class="edge"><title>ResourceUsedType&#45;&gt;VersionableProperties</title>
<path fill="none" stroke="black" d="M116.576,-21.758C165.433,-27.0808 244.72,-39.4388 307.673,-67 337.739,-80.1632 367.777,-100.266 392.579,-119.228"/>
<text text-anchor="middle" x="233.173" y="-69.6" font-family="Times New Roman,serif" font-size="8.00">ResourceObjectReference_Versionable</text>
</g>
</g>
</svg>
