<?xml version="1.0" encoding="UTF-8" standalone="no"?>
<!DOCTYPE svg PUBLIC "-//W3C//DTD SVG 1.1//EN"
 "http://www.w3.org/Graphics/SVG/1.1/DTD/svg11.dtd">
<!-- Generated by graphviz version 2.38.0 (20140413.2041)
 -->
<!-- Title: G Pages: 1 -->
<svg width="555pt" height="746pt"
 viewBox="0.00 0.00 555.30 746.00" xmlns="http://www.w3.org/2000/svg" xmlns:xlink="http://www.w3.org/1999/xlink">
<filter id = "dropshadow" height = "130%" ><feGaussianBlur in= "SourceAlpha" stdDeviation = "3"/><!--stdDeviation is how much to blur--><feOffset dx = "2" dy = "2" result = "offsetblur"/><!--how much to offset--><feMerge><feMergeNode/><!--this contains the offset blurred image--><feMergeNode in= "SourceGraphic"/><!--this contains the element that the filter is applied to --></feMerge></filter>
<g id="graph0" class="graph" transform="scale(1 1) rotate(0) translate(4 742)">
<title>G</title>
<!-- ContentDateOffsetType -->
<g id="ReusableTypeContentDateOffsetType" class="node"><title></title><polygon fill="#f7b733" stroke="black" points="274.303,-351 274.303,-387 547.303,-387 547.303,-351 274.303,-351" style="filter: url(#dropshadow)"/>
<text text-anchor="middle" x="325.303" y="-367.1" font-family="Times New Roman,serif" font-size="8.00">ContentDateOffsetType</text>
<polyline fill="none" stroke="black" points="376.303,-351 376.303,-387 "/>
<text text-anchor="start" x="384.303" y="-371.6" font-family="Times New Roman,serif" font-size="8.00">NumberOfUnits : nonNegativeInteger[0...1] </text>
<text text-anchor="start" x="384.303" y="-362.6" font-family="Times New Roman,serif" font-size="8.00">IsNegativeOffset : boolean[0...1] </text>
</g>
<!-- CategoryDomainType -->
<g id="ReusableTypeCategoryDomainType" class="node"><title></title><ellipse fill="#f7b733" stroke="black" cx="85.6514" cy="-720" rx="53.7736" ry="18" style="filter: url(#dropshadow)"/>
<text text-anchor="middle" x="85.6514" y="-718.1" font-family="Times New Roman,serif" font-size="8.00">CategoryDomainType</text>
</g>
<!-- CategoryDomainType&#45;&gt;ContentDateOffsetType -->
<g id="edge1" class="edge"><title>CategoryDomainType&#45;&gt;ContentDateOffsetType</title>
<path fill="none" stroke="black" d="M130.128,-709.808C167.844,-698.958 221.68,-678.36 256.303,-643 334.886,-562.744 386.394,-434.229 403.517,-387.089"/>
<text text-anchor="middle" x="222.803" y="-689.6" font-family="Times New Roman,serif" font-size="8.00">ContentDateOffset</text>
</g>
<!-- CodeDomainType -->
<g id="ReusableTypeCodeDomainType" class="node"><title></title><ellipse fill="#f7b733" stroke="black" cx="85.6514" cy="-666" rx="45.2568" ry="18" style="filter: url(#dropshadow)"/>
<text text-anchor="middle" x="85.6514" y="-664.1" font-family="Times New Roman,serif" font-size="8.00">CodeDomainType</text>
</g>
<!-- CodeDomainType&#45;&gt;ContentDateOffsetType -->
<g id="edge2" class="edge"><title>CodeDomainType&#45;&gt;ContentDateOffsetType</title>
<path fill="none" stroke="black" d="M124.306,-656.465C161.545,-645.44 218.319,-624.15 256.303,-589 324.497,-525.895 379.625,-427.538 400.638,-387.197"/>
<text text-anchor="middle" x="222.803" y="-632.6" font-family="Times New Roman,serif" font-size="8.00">ContentDateOffset</text>
</g>
<!-- DateTimeDomainType -->
<g id="ReusableTypeDateTimeDomainType" class="node"><title></title><ellipse fill="#f7b733" stroke="black" cx="85.6514" cy="-612" rx="55.6769" ry="18" style="filter: url(#dropshadow)"/>
<text text-anchor="middle" x="85.6514" y="-610.1" font-family="Times New Roman,serif" font-size="8.00">DateTimeDomainType</text>
</g>
<!-- DateTimeDomainType&#45;&gt;ContentDateOffsetType -->
<g id="edge3" class="edge"><title>DateTimeDomainType&#45;&gt;ContentDateOffsetType</title>
<path fill="none" stroke="black" d="M129.138,-600.558C142.849,-596.311 157.95,-591.037 171.303,-585 211.447,-566.851 222.073,-561.735 256.303,-534 313.909,-487.325 370.341,-419.34 395.772,-387.169"/>
<text text-anchor="middle" x="222.803" y="-578.6" font-family="Times New Roman,serif" font-size="8.00">ContentDateOffset</text>
</g>
<!-- DistributionDomainType -->
<g id="ReusableTypeDistributionDomainType" class="node"><title></title><ellipse fill="#f7b733" stroke="black" cx="85.6514" cy="-558" rx="58.9835" ry="18" style="filter: url(#dropshadow)"/>
<text text-anchor="middle" x="85.6514" y="-556.1" font-family="Times New Roman,serif" font-size="8.00">DistributionDomainType</text>
</g>
<!-- DistributionDomainType&#45;&gt;ContentDateOffsetType -->
<g id="edge4" class="edge"><title>DistributionDomainType&#45;&gt;ContentDateOffsetType</title>
<path fill="none" stroke="black" d="M130.379,-546.013C143.737,-541.832 158.321,-536.733 171.303,-531 259.218,-492.177 349.417,-420.463 389.021,-387.033"/>
<text text-anchor="middle" x="222.803" y="-523.6" font-family="Times New Roman,serif" font-size="8.00">ContentDateOffset</text>
</g>
<!-- DomainReferenceType -->
<g id="ReusableTypeDomainReferenceType" class="node"><title></title><ellipse fill="#f7b733" stroke="black" cx="85.6514" cy="-504" rx="55.6769" ry="18" style="filter: url(#dropshadow)"/>
<text text-anchor="middle" x="85.6514" y="-502.1" font-family="Times New Roman,serif" font-size="8.00">DomainReferenceType</text>
</g>
<!-- DomainReferenceType&#45;&gt;ContentDateOffsetType -->
<g id="edge5" class="edge"><title>DomainReferenceType&#45;&gt;ContentDateOffsetType</title>
<path fill="none" stroke="black" d="M127.46,-492.039C141.48,-487.652 157.192,-482.424 171.303,-477 244.278,-448.949 326.855,-409.839 373.19,-387.193"/>
<text text-anchor="middle" x="222.803" y="-471.6" font-family="Times New Roman,serif" font-size="8.00">ContentDateOffset</text>
</g>
<!-- GeographicLocationCodeDomainType -->
<g id="ReusableTypeGeographicLocationCodeDomainType" class="node"><title></title><ellipse fill="#f7b733" stroke="black" cx="85.6514" cy="-450" rx="85.8032" ry="18" style="filter: url(#dropshadow)"/>
<text text-anchor="middle" x="85.6514" y="-448.1" font-family="Times New Roman,serif" font-size="8.00">GeographicLocationCodeDomainType</text>
</g>
<!-- GeographicLocationCodeDomainType&#45;&gt;ContentDateOffsetType -->
<g id="edge6" class="edge"><title>GeographicLocationCodeDomainType&#45;&gt;ContentDateOffsetType</title>
<path fill="none" stroke="black" d="M141.47,-436.259C195.581,-422.696 278.607,-401.885 337.968,-387.006"/>
<text text-anchor="middle" x="222.803" y="-425.6" font-family="Times New Roman,serif" font-size="8.00">ContentDateOffset</text>
</g>
<!-- GeographicStructureCodeDomainType -->
<g id="ReusableTypeGeographicStructureCodeDomainType" class="node"><title></title><ellipse fill="#f7b733" stroke="black" cx="85.6514" cy="-396" rx="85.1685" ry="18" style="filter: url(#dropshadow)"/>
<text text-anchor="middle" x="85.6514" y="-394.1" font-family="Times New Roman,serif" font-size="8.00">GeographicStructureCodeDomainType</text>
</g>
<!-- GeographicStructureCodeDomainType&#45;&gt;ContentDateOffsetType -->
<g id="edge7" class="edge"><title>GeographicStructureCodeDomainType&#45;&gt;ContentDateOffsetType</title>
<path fill="none" stroke="black" d="M165.29,-389.43C198.078,-386.69 237.116,-383.428 274.269,-380.324"/>
<text text-anchor="middle" x="222.803" y="-389.6" font-family="Times New Roman,serif" font-size="8.00">ContentDateOffset</text>
</g>
<!-- LocationDomainType -->
<g id="ReusableTypeLocationDomainType" class="node"><title></title><ellipse fill="#f7b733" stroke="black" cx="85.6514" cy="-342" rx="53.7736" ry="18" style="filter: url(#dropshadow)"/>
<text text-anchor="middle" x="85.6514" y="-340.1" font-family="Times New Roman,serif" font-size="8.00">LocationDomainType</text>
</g>
<!-- LocationDomainType&#45;&gt;ContentDateOffsetType -->
<g id="edge8" class="edge"><title>LocationDomainType&#45;&gt;ContentDateOffsetType</title>
<path fill="none" stroke="black" d="M138.213,-346.308C174.921,-349.375 226.055,-353.647 274.065,-357.659"/>
<text text-anchor="middle" x="222.803" y="-357.6" font-family="Times New Roman,serif" font-size="8.00">ContentDateOffset</text>
</g>
<!-- NominalDomainType -->
<g id="ReusableTypeNominalDomainType0" class="node"><title></title><ellipse fill="#f7b733" stroke="black" cx="85.6514" cy="-288" rx="52.5056" ry="18" style="filter: url(#dropshadow)"/>
<text text-anchor="middle" x="85.6514" y="-286.1" font-family="Times New Roman,serif" font-size="8.00">NominalDomainType</text>
</g>
<!-- NominalDomainType&#45;&gt;ContentDateOffsetType -->
<g id="edge9" class="edge"><title>NominalDomainType&#45;&gt;ContentDateOffsetType</title>
<path fill="none" stroke="black" d="M128.567,-298.506C181.507,-311.776 273.439,-334.819 337.739,-350.937"/>
<text text-anchor="middle" x="222.803" y="-330.6" font-family="Times New Roman,serif" font-size="8.00">ContentDateOffset</text>
</g>
<!-- NumericDomainType -->
<g id="ReusableTypeNumericDomainType1" class="node"><title></title><ellipse fill="#f7b733" stroke="black" cx="85.6514" cy="-234" rx="52.3706" ry="18" style="filter: url(#dropshadow)"/>
<text text-anchor="middle" x="85.6514" y="-232.1" font-family="Times New Roman,serif" font-size="8.00">NumericDomainType</text>
</g>
<!-- NumericDomainType&#45;&gt;ContentDateOffsetType -->
<g id="edge10" class="edge"><title>NumericDomainType&#45;&gt;ContentDateOffsetType</title>
<path fill="none" stroke="black" d="M126.177,-245.56C140.516,-250.028 156.76,-255.41 171.303,-261 244.278,-289.051 326.855,-328.161 373.19,-350.807"/>
<text text-anchor="middle" x="222.803" y="-296.6" font-family="Times New Roman,serif" font-size="8.00">ContentDateOffset</text>
</g>
<!-- RankingDomainType -->
<g id="ReusableTypeRankingDomainType2" class="node"><title></title><ellipse fill="#f7b733" stroke="black" cx="85.6514" cy="-180" rx="52.3706" ry="18" style="filter: url(#dropshadow)"/>
<text text-anchor="middle" x="85.6514" y="-178.1" font-family="Times New Roman,serif" font-size="8.00">RankingDomainType</text>
</g>
<!-- RankingDomainType&#45;&gt;ContentDateOffsetType -->
<g id="edge11" class="edge"><title>RankingDomainType&#45;&gt;ContentDateOffsetType</title>
<path fill="none" stroke="black" d="M127.321,-191.118C141.475,-195.471 157.306,-200.893 171.303,-207 259.389,-245.433 349.502,-317.341 389.053,-350.894"/>
<text text-anchor="middle" x="222.803" y="-253.6" font-family="Times New Roman,serif" font-size="8.00">ContentDateOffset</text>
</g>
<!-- ScaleDomainType -->
<g id="ReusableTypeScaleDomainType3" class="node"><title></title><ellipse fill="#f7b733" stroke="black" cx="85.6514" cy="-126" rx="45.2568" ry="18" style="filter: url(#dropshadow)"/>
<text text-anchor="middle" x="85.6514" y="-124.1" font-family="Times New Roman,serif" font-size="8.00">ScaleDomainType</text>
</g>
<!-- ScaleDomainType&#45;&gt;ContentDateOffsetType -->
<g id="edge12" class="edge"><title>ScaleDomainType&#45;&gt;ContentDateOffsetType</title>
<path fill="none" stroke="black" d="M123.985,-135.949C138.973,-140.444 156.233,-146.266 171.303,-153 211.318,-170.881 222.171,-175.505 256.303,-203 314.382,-249.786 370.804,-318.564 396.037,-350.918"/>
<text text-anchor="middle" x="222.803" y="-205.6" font-family="Times New Roman,serif" font-size="8.00">ContentDateOffset</text>
</g>
<!-- TextDomainType -->
<g id="ReusableTypeTextDomainType4" class="node"><title></title><ellipse fill="#f7b733" stroke="black" cx="85.6514" cy="-72" rx="45.2568" ry="18" style="filter: url(#dropshadow)"/>
<text text-anchor="middle" x="85.6514" y="-70.1" font-family="Times New Roman,serif" font-size="8.00">TextDomainType</text>
</g>
<!-- TextDomainType&#45;&gt;ContentDateOffsetType -->
<g id="edge13" class="edge"><title>TextDomainType&#45;&gt;ContentDateOffsetType</title>
<path fill="none" stroke="black" d="M124.641,-81.4057C161.875,-92.2343 218.405,-113.163 256.303,-148 325.088,-211.228 380.085,-310.55 400.855,-350.978"/>
<text text-anchor="middle" x="222.803" y="-150.6" font-family="Times New Roman,serif" font-size="8.00">ContentDateOffset</text>
</g>
<!-- VariableRepresentationType -->
<g id="ReusableTypeVariableRepresentationType5" class="node"><title></title><ellipse fill="#f7b733" stroke="black" cx="85.6514" cy="-18" rx="65.5975" ry="18" style="filter: url(#dropshadow)"/>
<text text-anchor="middle" x="85.6514" y="-16.1" font-family="Times New Roman,serif" font-size="8.00">VariableRepresentationType</text>
</g>
<!-- VariableRepresentationType&#45;&gt;ContentDateOffsetType -->
<g id="edge14" class="edge"><title>VariableRepresentationType&#45;&gt;ContentDateOffsetType</title>
<path fill="none" stroke="black" d="M136.501,-29.5025C173.681,-40.3488 223.506,-59.989 256.303,-93 335.909,-173.125 386.793,-303.015 403.634,-350.697"/>
<text text-anchor="middle" x="222.803" y="-95.6" font-family="Times New Roman,serif" font-size="8.00">ContentDateOffset</text>
</g>
</g>
</svg>
