<?xml version="1.0" encoding="UTF-8" standalone="no"?>
<!DOCTYPE svg PUBLIC "-//W3C//DTD SVG 1.1//EN"
 "http://www.w3.org/Graphics/SVG/1.1/DTD/svg11.dtd">
<!-- Generated by graphviz version 2.38.0 (20140413.2041)
 -->
<!-- Title: G Pages: 1 -->
<svg width="928pt" height="260pt"
 viewBox="0.00 0.00 927.62 260.00" xmlns="http://www.w3.org/2000/svg" xmlns:xlink="http://www.w3.org/1999/xlink">
<filter id = "dropshadow" height = "130%" ><feGaussianBlur in= "SourceAlpha" stdDeviation = "3"/><!--stdDeviation is how much to blur--><feOffset dx = "2" dy = "2" result = "offsetblur"/><!--how much to offset--><feMerge><feMergeNode/><!--this contains the offset blurred image--><feMergeNode in= "SourceGraphic"/><!--this contains the element that the filter is applied to --></feMerge></filter>
<g id="graph0" class="graph" transform="scale(1 1) rotate(0) translate(4 256)">
<title>G</title>
<g id="clust1" class="cluster"><title>clusterIdentifiableType</title>
<polygon fill="#4abdac" stroke="black" points="276.622,-8 276.622,-244 911.622,-244 911.622,-8 276.622,-8" style="filter: url(#dropshadow)"/>
<text text-anchor="middle" x="594.122" y="-233.6" font-family="Times New Roman,serif" font-size="8.00">IdentifiableType</text>
</g>
<!-- IdentifiableTypeProperties -->
<g id="ReusableTypeIdentifiableTypeProperties" class="node"><title></title><polygon fill="#f7b733" stroke="black" points="284.622,-81 284.622,-143 541.622,-143 541.622,-81 284.622,-81" style="filter: url(#dropshadow)"/>
<text text-anchor="middle" x="311.122" y="-110.1" font-family="Times New Roman,serif" font-size="8.00">Properties</text>
<polyline fill="none" stroke="black" points="337.622,-81 337.622,-143 "/>
<text text-anchor="start" x="345.622" y="-132.6" font-family="Times New Roman,serif" font-size="8.00">URN : URNType[0...1] </text>
<text text-anchor="start" x="345.622" y="-123.6" font-family="Times New Roman,serif" font-size="8.00">Agency : string[0...1] </text>
<text text-anchor="start" x="345.622" y="-114.6" font-family="Times New Roman,serif" font-size="8.00">ID : IDType[0...1] </text>
<text text-anchor="start" x="345.622" y="-105.6" font-family="Times New Roman,serif" font-size="8.00">Version : string[0...1] </text>
<text text-anchor="start" x="345.622" y="-96.6" font-family="Times New Roman,serif" font-size="8.00">UserID : UserIDType[0...n] </text>
<text text-anchor="start" x="345.622" y="-87.6" font-family="Times New Roman,serif" font-size="8.00">UserAttributePair : StandardKeyValuePairType[0...n] </text>
</g>
<!-- IdentifiableTypeURNType -->
<g id="ReusableTypeIdentifiableTypeURNType" class="node"><title></title><polygon fill="#fc4a1a" stroke="black" points="681.622,-17 681.622,-53 861.622,-53 861.622,-17 681.622,-17" style="filter: url(#dropshadow)"/>
<text text-anchor="middle" x="708.122" y="-33.1" font-family="Times New Roman,serif" font-size="8.00">URNType</text>
<polyline fill="none" stroke="black" points="734.622,-17 734.622,-53 "/>
<text text-anchor="start" x="742.622" y="-37.6" font-family="Times New Roman,serif" font-size="8.00">Type : string[0...1] </text>
<text text-anchor="start" x="742.622" y="-28.6" font-family="Times New Roman,serif" font-size="8.00">TypeOfIdentifier : string[0...1] </text>
</g>
<!-- IdentifiableTypeProperties&#45;&gt;IdentifiableTypeURNType -->
<g id="edge1" class="edge"><title>IdentifiableTypeProperties&#45;&gt;IdentifiableTypeURNType</title>
<path fill="none" stroke="black" d="M541.654,-83.3741C573.621,-76.2946 607.859,-68.7942 639.622,-62 653.36,-59.0614 667.921,-56.0037 682.149,-53.0474"/>
<text text-anchor="middle" x="590.622" y="-81.6" font-family="Times New Roman,serif" font-size="8.00">URN</text>
</g>
<!-- IdentifiableTypeIDType -->
<g id="ReusableTypeIdentifiableTypeIDType" class="node"><title></title><polygon fill="#fc4a1a" stroke="black" points="706.622,-72 706.622,-108 836.622,-108 836.622,-72 706.622,-72" style="filter: url(#dropshadow)"/>
<text text-anchor="middle" x="728.622" y="-88.1" font-family="Times New Roman,serif" font-size="8.00">IDType</text>
<polyline fill="none" stroke="black" points="750.622,-72 750.622,-108 "/>
<text text-anchor="start" x="758.622" y="-88.1" font-family="Times New Roman,serif" font-size="8.00">Type : string[0...1] </text>
</g>
<!-- IdentifiableTypeProperties&#45;&gt;IdentifiableTypeIDType -->
<g id="edge2" class="edge"><title>IdentifiableTypeProperties&#45;&gt;IdentifiableTypeIDType</title>
<path fill="none" stroke="black" d="M541.82,-104.12C597.562,-100.68 660.494,-96.7961 706.229,-93.9738"/>
<text text-anchor="middle" x="590.622" y="-105.6" font-family="Times New Roman,serif" font-size="8.00">ID</text>
</g>
<!-- IdentifiableTypeUserIDType -->
<g id="ReusableTypeIdentifiableTypeUserIDType" class="node"><title></title><polygon fill="#fc4a1a" stroke="black" points="673.122,-127 673.122,-163 870.122,-163 870.122,-127 673.122,-127" style="filter: url(#dropshadow)"/>
<text text-anchor="middle" x="703.122" y="-143.1" font-family="Times New Roman,serif" font-size="8.00">UserIDType</text>
<polyline fill="none" stroke="black" points="733.122,-127 733.122,-163 "/>
<text text-anchor="start" x="741.122" y="-152.1" font-family="Times New Roman,serif" font-size="8.00">TypeOfUserID : string[1...1] </text>
<text text-anchor="start" x="741.122" y="-143.1" font-family="Times New Roman,serif" font-size="8.00">UserIDVersion : string[0...1] </text>
<text text-anchor="start" x="741.122" y="-134.1" font-family="Times New Roman,serif" font-size="8.00">TypeOfUserVersion : string[0...1] </text>
</g>
<!-- IdentifiableTypeProperties&#45;&gt;IdentifiableTypeUserIDType -->
<g id="edge3" class="edge"><title>IdentifiableTypeProperties&#45;&gt;IdentifiableTypeUserIDType</title>
<path fill="none" stroke="black" d="M541.82,-123.821C584.975,-127.815 632.44,-132.209 672.897,-135.954"/>
<text text-anchor="middle" x="590.622" y="-132.6" font-family="Times New Roman,serif" font-size="8.00">UserID</text>
</g>
<!-- IdentifiableTypeStandardKeyValuePairType -->
<g id="ReusableTypeIdentifiableTypeStandardKeyValuePairType" class="node"><title></title><polygon fill="#fc4a1a" stroke="black" points="639.622,-182 639.622,-218 903.622,-218 903.622,-182 639.622,-182" style="filter: url(#dropshadow)"/>
<text text-anchor="middle" x="695.622" y="-198.1" font-family="Times New Roman,serif" font-size="8.00">StandardKeyValuePairType</text>
<polyline fill="none" stroke="black" points="751.622,-182 751.622,-218 "/>
<text text-anchor="start" x="759.622" y="-202.6" font-family="Times New Roman,serif" font-size="8.00">AttributeKey : CodeValueType[0...1] </text>
<text text-anchor="start" x="759.622" y="-193.6" font-family="Times New Roman,serif" font-size="8.00">AttributeValue : CodeValueType[0...1] </text>
</g>
<!-- IdentifiableTypeProperties&#45;&gt;IdentifiableTypeStandardKeyValuePairType -->
<g id="edge4" class="edge"><title>IdentifiableTypeProperties&#45;&gt;IdentifiableTypeStandardKeyValuePairType</title>
<path fill="none" stroke="black" d="M523.601,-143.054C560.352,-153.094 601.648,-163.959 639.622,-173 652.498,-176.065 666.135,-179.104 679.555,-181.977"/>
<text text-anchor="middle" x="590.622" y="-170.6" font-family="Times New Roman,serif" font-size="8.00">UserAttributePair</text>
</g>
<!-- LinkingMapType -->
<g id="ReusableTypeLinkingMapType" class="node"><title></title><ellipse fill="#f7b733" stroke="black" cx="44.811" cy="-139" rx="44.4889" ry="18" style="filter: url(#dropshadow)"/>
<text text-anchor="middle" x="44.811" y="-137.1" font-family="Times New Roman,serif" font-size="8.00">LinkingMapType</text>
</g>
<!-- LinkingMapType&#45;&gt;IdentifiableTypeProperties -->
<g id="edge5" class="edge"><title>LinkingMapType&#45;&gt;IdentifiableTypeProperties</title>
<path fill="none" stroke="black" d="M88.5485,-135.85C134.616,-132.454 210.302,-126.876 276.895,-121.967"/>
<text text-anchor="middle" x="187.122" y="-135.6" font-family="Times New Roman,serif" font-size="8.00">LocalObjectReference_IdentifiableType</text>
</g>
<!-- LinkingMapType&#45;&gt;IdentifiableTypeProperties -->
<g id="edge6" class="edge"><title>LinkingMapType&#45;&gt;IdentifiableTypeProperties</title>
<path fill="none" stroke="black" d="M72.7589,-124.94C83.3319,-120.158 95.7577,-115.414 107.622,-113 162.293,-101.876 223.638,-99.754 276.863,-101.102"/>
<text text-anchor="middle" x="187.122" y="-115.6" font-family="Times New Roman,serif" font-size="8.00">DepositoryObjectReference_IdentifiableType</text>
</g>
<!-- RelationshipType -->
<g id="ReusableTypeRelationshipType" class="node"><title></title><ellipse fill="#f7b733" stroke="black" cx="44.811" cy="-80" rx="44.6228" ry="18" style="filter: url(#dropshadow)"/>
<text text-anchor="middle" x="44.811" y="-78.1" font-family="Times New Roman,serif" font-size="8.00">RelationshipType</text>
</g>
<!-- RelationshipType&#45;&gt;IdentifiableTypeProperties -->
<g id="edge7" class="edge"><title>RelationshipType&#45;&gt;IdentifiableTypeProperties</title>
<path fill="none" stroke="black" d="M89.9127,-79.9502C134.565,-80.2865 205.551,-81.882 266.622,-88 270.009,-88.3393 273.437,-88.7082 276.893,-89.1025"/>
<text text-anchor="middle" x="187.122" y="-90.6" font-family="Times New Roman,serif" font-size="8.00">RelatedToReference_IdentifiableType</text>
</g>
</g>
</svg>
