<?xml version="1.0" encoding="UTF-8" standalone="no"?>
<!DOCTYPE svg PUBLIC "-//W3C//DTD SVG 1.1//EN"
 "http://www.w3.org/Graphics/SVG/1.1/DTD/svg11.dtd">
<!-- Generated by graphviz version 2.38.0 (20140413.2041)
 -->
<!-- Title: G Pages: 1 -->
<svg width="1440pt" height="422pt"
 viewBox="0.00 0.00 1439.71 422.00" xmlns="http://www.w3.org/2000/svg" xmlns:xlink="http://www.w3.org/1999/xlink">
<filter id = "dropshadow" height = "130%" ><feGaussianBlur in= "SourceAlpha" stdDeviation = "3"/><!--stdDeviation is how much to blur--><feOffset dx = "2" dy = "2" result = "offsetblur"/><!--how much to offset--><feMerge><feMergeNode/><!--this contains the offset blurred image--><feMergeNode in= "SourceGraphic"/><!--this contains the element that the filter is applied to --></feMerge></filter>
<g id="graph0" class="graph" transform="scale(1 1) rotate(0) translate(4 418)">
<title>G</title>
<g id="clust1" class="cluster"><title>clusterGeographicLevelType</title>
<polygon fill="#4abdac" stroke="black" points="326.706,-85 326.706,-402 1423.71,-402 1423.71,-85 326.706,-85" style="filter: url(#dropshadow)"/>
<text text-anchor="middle" x="875.206" y="-391.6" font-family="Times New Roman,serif" font-size="8.00">GeographicLevelType</text>
</g>
<!-- GeographicLevelTypeProperties -->
<g id="ReusableTypeGeographicLevelTypeProperties" class="node"><title></title><polygon fill="#f7b733" stroke="black" points="334.706,-204.5 334.706,-275.5 632.706,-275.5 632.706,-204.5 334.706,-204.5" style="filter: url(#dropshadow)"/>
<text text-anchor="middle" x="361.206" y="-238.1" font-family="Times New Roman,serif" font-size="8.00">Properties</text>
<polyline fill="none" stroke="black" points="387.706,-204.5 387.706,-275.5 "/>
<text text-anchor="start" x="395.706" y="-265.1" font-family="Times New Roman,serif" font-size="8.00">GeographicLevelName : NameType[0...n] </text>
<text text-anchor="start" x="395.706" y="-256.1" font-family="Times New Roman,serif" font-size="8.00">Description : StructuredStringType[0...1] </text>
<text text-anchor="start" x="395.706" y="-247.1" font-family="Times New Roman,serif" font-size="8.00">GeographicLevelCode : CodeValueType[0...n] </text>
<text text-anchor="start" x="395.706" y="-238.1" font-family="Times New Roman,serif" font-size="8.00">CoverageLimitation : InternationalStringType[0...1] </text>
<text text-anchor="start" x="395.706" y="-229.1" font-family="Times New Roman,serif" font-size="8.00">PrimaryComponentLevel : PrimaryComponentLevelType[0...n] </text>
<text text-anchor="start" x="395.706" y="-220.1" font-family="Times New Roman,serif" font-size="8.00">ParentGeographicLevelReference : GeographicLevelType[0...1] </text>
<text text-anchor="start" x="395.706" y="-211.1" font-family="Times New Roman,serif" font-size="8.00">GeographicLayerBaseReference : GeographicLevelType[2...n] </text>
</g>
<!-- GeographicLevelTypeProperties&#45;&gt;GeographicLevelTypeProperties -->
<g id="edge12" class="edge"><title>GeographicLevelTypeProperties&#45;&gt;GeographicLevelTypeProperties</title>
<path fill="none" stroke="black" d="M463.891,-275.574C464.576,-285.957 471.181,-294 483.706,-294 496.232,-294 502.837,-285.957 503.522,-275.574"/>
<text text-anchor="middle" x="483.706" y="-296.6" font-family="Times New Roman,serif" font-size="8.00">ParentGeographicLevelReference</text>
</g>
<!-- GeographicLevelTypeProperties&#45;&gt;GeographicLevelTypeProperties -->
<g id="edge13" class="edge"><title>GeographicLevelTypeProperties&#45;&gt;GeographicLevelTypeProperties</title>
<path fill="none" stroke="black" d="M445.596,-275.563C439.12,-294.63 451.823,-312 483.706,-312 515.589,-312 528.292,-294.63 521.816,-275.563"/>
<text text-anchor="middle" x="483.706" y="-314.6" font-family="Times New Roman,serif" font-size="8.00">GeographicLayerBaseReference</text>
</g>
<!-- GeographicLevelTypeNameType -->
<g id="ReusableTypeGeographicLevelTypeNameType" class="node"><title></title><polygon fill="#fc4a1a" stroke="black" points="845.706,-94 845.706,-130 1014.71,-130 1014.71,-94 845.706,-94" style="filter: url(#dropshadow)"/>
<text text-anchor="middle" x="873.706" y="-110.1" font-family="Times New Roman,serif" font-size="8.00">NameType</text>
<polyline fill="none" stroke="black" points="901.706,-94 901.706,-130 "/>
<text text-anchor="start" x="909.706" y="-114.6" font-family="Times New Roman,serif" font-size="8.00">IsPreferred : boolean[0...1] </text>
<text text-anchor="start" x="909.706" y="-105.6" font-family="Times New Roman,serif" font-size="8.00">Context : string[0...1] </text>
</g>
<!-- GeographicLevelTypeProperties&#45;&gt;GeographicLevelTypeNameType -->
<g id="edge1" class="edge"><title>GeographicLevelTypeProperties&#45;&gt;GeographicLevelTypeNameType</title>
<path fill="none" stroke="black" d="M567.893,-204.485C621.515,-182.812 693.214,-156.08 758.706,-139 786.546,-131.74 817.482,-126.128 845.278,-121.949"/>
<text text-anchor="middle" x="695.706" y="-175.6" font-family="Times New Roman,serif" font-size="8.00">GeographicLevelName</text>
</g>
<!-- GeographicLevelTypeStructuredStringType -->
<g id="ReusableTypeGeographicLevelTypeStructuredStringType" class="node"><title></title><polygon fill="#fc4a1a" stroke="black" points="823.706,-149 823.706,-185 1036.71,-185 1036.71,-149 823.706,-149" style="filter: url(#dropshadow)"/>
<text text-anchor="middle" x="868.706" y="-165.1" font-family="Times New Roman,serif" font-size="8.00">StructuredStringType</text>
<polyline fill="none" stroke="black" points="913.706,-149 913.706,-185 "/>
<text text-anchor="start" x="921.706" y="-165.1" font-family="Times New Roman,serif" font-size="8.00">Content : ContentType[0...n] </text>
</g>
<!-- GeographicLevelTypeProperties&#45;&gt;GeographicLevelTypeStructuredStringType -->
<g id="edge2" class="edge"><title>GeographicLevelTypeProperties&#45;&gt;GeographicLevelTypeStructuredStringType</title>
<path fill="none" stroke="black" d="M632.718,-215.692C695.224,-205.427 766.581,-193.708 823.626,-184.339"/>
<text text-anchor="middle" x="695.706" y="-215.6" font-family="Times New Roman,serif" font-size="8.00">Description</text>
</g>
<!-- GeographicLevelTypeCodeValueType -->
<g id="ReusableTypeGeographicLevelTypeCodeValueType" class="node"><title></title><polygon fill="#fc4a1a" stroke="black" points="800.706,-204.5 800.706,-275.5 1059.71,-275.5 1059.71,-204.5 800.706,-204.5" style="filter: url(#dropshadow)"/>
<text text-anchor="middle" x="836.206" y="-238.1" font-family="Times New Roman,serif" font-size="8.00">CodeValueType</text>
<polyline fill="none" stroke="black" points="871.706,-204.5 871.706,-275.5 "/>
<text text-anchor="start" x="879.706" y="-265.1" font-family="Times New Roman,serif" font-size="8.00">ControlledVocabularyID : string[0...1] </text>
<text text-anchor="start" x="879.706" y="-256.1" font-family="Times New Roman,serif" font-size="8.00">ControlledVocabularyName : string[0...1] </text>
<text text-anchor="start" x="879.706" y="-247.1" font-family="Times New Roman,serif" font-size="8.00">ControlledVocabularyAgencyName : string[0...1] </text>
<text text-anchor="start" x="879.706" y="-238.1" font-family="Times New Roman,serif" font-size="8.00">ControlledVocabularyVersionID : string[0...1] </text>
<text text-anchor="start" x="879.706" y="-229.1" font-family="Times New Roman,serif" font-size="8.00">OtherValue : string[0...1] </text>
<text text-anchor="start" x="879.706" y="-220.1" font-family="Times New Roman,serif" font-size="8.00">ControlledVocabularyURN : string[0...1] </text>
<text text-anchor="start" x="879.706" y="-211.1" font-family="Times New Roman,serif" font-size="8.00">ControlledVocabularySchemeURN : string[0...1] </text>
</g>
<!-- GeographicLevelTypeProperties&#45;&gt;GeographicLevelTypeCodeValueType -->
<g id="edge3" class="edge"><title>GeographicLevelTypeProperties&#45;&gt;GeographicLevelTypeCodeValueType</title>
<path fill="none" stroke="black" d="M632.718,-240C687.016,-240 747.994,-240 800.466,-240"/>
<text text-anchor="middle" x="695.706" y="-242.6" font-family="Times New Roman,serif" font-size="8.00">GeographicLevelCode</text>
</g>
<!-- GeographicLevelTypeInternationalStringType -->
<g id="ReusableTypeGeographicLevelTypeInternationalStringType" class="node"><title></title><polygon fill="#fc4a1a" stroke="black" points="1207.71,-306 1207.71,-342 1415.71,-342 1415.71,-306 1207.71,-306" style="filter: url(#dropshadow)"/>
<text text-anchor="middle" x="1258.21" y="-322.1" font-family="Times New Roman,serif" font-size="8.00">InternationalStringType</text>
<polyline fill="none" stroke="black" points="1308.71,-306 1308.71,-342 "/>
<text text-anchor="start" x="1316.71" y="-322.1" font-family="Times New Roman,serif" font-size="8.00">String : StringType[0...n] </text>
</g>
<!-- GeographicLevelTypeProperties&#45;&gt;GeographicLevelTypeInternationalStringType -->
<g id="edge4" class="edge"><title>GeographicLevelTypeProperties&#45;&gt;GeographicLevelTypeInternationalStringType</title>
<path fill="none" stroke="black" d="M632.956,-266.91C673.614,-273.59 717.77,-280.203 758.706,-285 914.717,-303.283 1096.61,-314.12 1207.69,-319.565"/>
<text text-anchor="middle" x="930.206" y="-316.6" font-family="Times New Roman,serif" font-size="8.00">CoverageLimitation</text>
</g>
<!-- GeographicLevelTypePrimaryComponentLevelType -->
<g id="ReusableTypeGeographicLevelTypePrimaryComponentLevelType" class="node"><title></title><polygon fill="#fc4a1a" stroke="black" points="758.706,-340 758.706,-376 1101.71,-376 1101.71,-340 758.706,-340" style="filter: url(#dropshadow)"/>
<text text-anchor="middle" x="821.206" y="-356.1" font-family="Times New Roman,serif" font-size="8.00">PrimaryComponentLevelType</text>
<polyline fill="none" stroke="black" points="883.706,-340 883.706,-376 "/>
<text text-anchor="start" x="891.706" y="-360.6" font-family="Times New Roman,serif" font-size="8.00">GeographicLevelReference : GeographicLevelType[0...1] </text>
<text text-anchor="start" x="891.706" y="-351.6" font-family="Times New Roman,serif" font-size="8.00">CoverageLimitation : InternationalStringType[0...1] </text>
</g>
<!-- GeographicLevelTypeProperties&#45;&gt;GeographicLevelTypePrimaryComponentLevelType -->
<g id="edge5" class="edge"><title>GeographicLevelTypeProperties&#45;&gt;GeographicLevelTypePrimaryComponentLevelType</title>
<path fill="none" stroke="black" d="M550.031,-275.62C579.935,-290.52 616.309,-306.726 650.706,-317 685.008,-327.245 722.481,-334.984 758.502,-340.812"/>
<text text-anchor="middle" x="695.706" y="-339.6" font-family="Times New Roman,serif" font-size="8.00">PrimaryComponentLevel</text>
</g>
<!-- GeographicLevelTypePrimaryComponentLevelType&#45;&gt;GeographicLevelTypeInternationalStringType -->
<g id="edge6" class="edge"><title>GeographicLevelTypePrimaryComponentLevelType&#45;&gt;GeographicLevelTypeInternationalStringType</title>
<path fill="none" stroke="black" d="M1101.81,-342.716C1137.94,-339.479 1175,-336.158 1207.69,-333.229"/>
<text text-anchor="middle" x="1154.71" y="-343.6" font-family="Times New Roman,serif" font-size="8.00">CoverageLimitation</text>
</g>
<!-- GeographicLocation -->
<g id="ItemTypeGeographicLocation" class="node"><title></title><ellipse fill="#f7b733" stroke="black" cx="87.3531" cy="-396" rx="49.1982" ry="18" style="filter: url(#dropshadow)"/>
<text text-anchor="middle" x="87.3531" y="-394.1" font-family="Times New Roman,serif" font-size="8.00">GeographicLocation</text>
</g>
<!-- GeographicLocation&#45;&gt;GeographicLevelTypeProperties -->
<g id="edge7" class="edge"><title>GeographicLocation&#45;&gt;GeographicLevelTypeProperties</title>
<path fill="none" stroke="black" d="M136.902,-394.865C184.375,-392.273 257.898,-384.252 316.706,-360 320.116,-358.594 323.522,-357.105 326.918,-355.542"/>
<text text-anchor="middle" x="254.706" y="-392.6" font-family="Times New Roman,serif" font-size="8.00">GeographicLevelReference</text>
</g>
<!-- GeographicStructure -->
<g id="ItemTypeGeographicStructure" class="node"><title></title><ellipse fill="#f7b733" stroke="black" cx="87.3531" cy="-342" rx="48.5642" ry="18" style="filter: url(#dropshadow)"/>
<text text-anchor="middle" x="87.3531" y="-340.1" font-family="Times New Roman,serif" font-size="8.00">GeographicStructure</text>
</g>
<!-- GeographicStructure&#45;&gt;GeographicLevelTypeProperties -->
<g id="edge8" class="edge"><title>GeographicStructure&#45;&gt;GeographicLevelTypeProperties</title>
<path fill="none" stroke="black" d="M135.253,-345.491C182.114,-347.605 255.759,-347.174 316.706,-330 320.071,-329.052 323.444,-328.026 326.818,-326.932"/>
<text text-anchor="middle" x="254.706" y="-349.6" font-family="Times New Roman,serif" font-size="8.00">GeographicLevel</text>
</g>
<!-- GeographicStructure&#45;&gt;GeographicLevelTypeProperties -->
<g id="edge9" class="edge"><title>GeographicStructure&#45;&gt;GeographicLevelTypeProperties</title>
<path fill="none" stroke="black" d="M130.253,-333.288C186.119,-321.592 281.993,-301.218 316.706,-292 320.063,-291.109 323.453,-290.192 326.867,-289.255"/>
<text text-anchor="middle" x="254.706" y="-322.6" font-family="Times New Roman,serif" font-size="8.00">GeographicLevelReference</text>
</g>
<!-- GeographicCoverageType -->
<g id="ReusableTypeGeographicCoverageType" class="node"><title></title><ellipse fill="#f7b733" stroke="black" cx="87.3531" cy="-288" rx="60.8874" ry="18" style="filter: url(#dropshadow)"/>
<text text-anchor="middle" x="87.3531" y="-286.1" font-family="Times New Roman,serif" font-size="8.00">GeographicCoverageType</text>
</g>
<!-- GeographicCoverageType&#45;&gt;GeographicLevelTypeProperties -->
<g id="edge10" class="edge"><title>GeographicCoverageType&#45;&gt;GeographicLevelTypeProperties</title>
<path fill="none" stroke="black" d="M146.176,-283.383C192.402,-279.463 258.818,-273.315 316.706,-266 320.143,-265.566 323.618,-265.116 327.12,-264.653"/>
<text text-anchor="middle" x="254.706" y="-281.6" font-family="Times New Roman,serif" font-size="8.00">GeographicLevelReference</text>
</g>
<!-- GeographicCoverageType&#45;&gt;GeographicLevelTypeProperties -->
<g id="edge11" class="edge"><title>GeographicCoverageType&#45;&gt;GeographicLevelTypeProperties</title>
<path fill="none" stroke="black" d="M129.169,-274.828C152.852,-267.392 180.374,-259.163 192.706,-257 235.908,-249.421 283.226,-245.03 326.877,-242.535"/>
<text text-anchor="middle" x="254.706" y="-259.6" font-family="Times New Roman,serif" font-size="8.00">SummaryDataReference</text>
</g>
<!-- GeographicStructureReferenceType -->
<g id="ReusableTypeGeographicStructureReferenceType0" class="node"><title></title><ellipse fill="#f7b733" stroke="black" cx="87.3531" cy="-234" rx="79.324" ry="18" style="filter: url(#dropshadow)"/>
<text text-anchor="middle" x="87.3531" y="-232.1" font-family="Times New Roman,serif" font-size="8.00">GeographicStructureReferenceType</text>
</g>
<!-- GeographicStructureReferenceType&#45;&gt;GeographicLevelTypeProperties -->
<g id="edge14" class="edge"><title>GeographicStructureReferenceType&#45;&gt;GeographicLevelTypeProperties</title>
<path fill="none" stroke="black" d="M160.718,-226.948C171.434,-226.139 182.351,-225.446 192.706,-225 247.766,-222.63 261.651,-222.518 316.706,-225 320.139,-225.155 323.611,-225.327 327.11,-225.516"/>
<text text-anchor="middle" x="254.706" y="-227.6" font-family="Times New Roman,serif" font-size="8.00">ExcludedGeographicLevelReference</text>
</g>
<!-- IdentificationPortionType -->
<g id="ReusableTypeIdentificationPortionType1" class="node"><title></title><ellipse fill="#f7b733" stroke="black" cx="87.3531" cy="-180" rx="62.2904" ry="18" style="filter: url(#dropshadow)"/>
<text text-anchor="middle" x="87.3531" y="-178.1" font-family="Times New Roman,serif" font-size="8.00">IdentificationPortionType</text>
</g>
<!-- IdentificationPortionType&#45;&gt;GeographicLevelTypeProperties -->
<g id="edge15" class="edge"><title>IdentificationPortionType&#45;&gt;GeographicLevelTypeProperties</title>
<path fill="none" stroke="black" d="M145.215,-187.109C191.468,-193.039 258.392,-201.951 316.706,-211 320.139,-211.533 323.611,-212.078 327.111,-212.635"/>
<text text-anchor="middle" x="254.706" y="-213.6" font-family="Times New Roman,serif" font-size="8.00">GeographicLevelReference</text>
</g>
<!-- IncludedGeographicStructureCodesType -->
<g id="ReusableTypeIncludedGeographicStructureCodesType2" class="node"><title></title><ellipse fill="#f7b733" stroke="black" cx="87.3531" cy="-126" rx="87.2065" ry="18" style="filter: url(#dropshadow)"/>
<text text-anchor="middle" x="87.3531" y="-124.1" font-family="Times New Roman,serif" font-size="8.00">IncludedGeographicStructureCodesType</text>
</g>
<!-- IncludedGeographicStructureCodesType&#45;&gt;GeographicLevelTypeProperties -->
<g id="edge16" class="edge"><title>IncludedGeographicStructureCodesType&#45;&gt;GeographicLevelTypeProperties</title>
<path fill="none" stroke="black" d="M148.392,-139.071C194.691,-149.549 260.157,-165.229 316.706,-182 320.051,-182.992 323.429,-184.011 326.829,-185.053"/>
<text text-anchor="middle" x="254.706" y="-184.6" font-family="Times New Roman,serif" font-size="8.00">ExcludedGeographicLevelReference</text>
</g>
<!-- LevelReferenceType -->
<g id="ReusableTypeLevelReferenceType3" class="node"><title></title><ellipse fill="#f7b733" stroke="black" cx="87.3531" cy="-72" rx="50.4666" ry="18" style="filter: url(#dropshadow)"/>
<text text-anchor="middle" x="87.3531" y="-70.1" font-family="Times New Roman,serif" font-size="8.00">LevelReferenceType</text>
</g>
<!-- LevelReferenceType&#45;&gt;GeographicLevelTypeProperties -->
<g id="edge17" class="edge"><title>LevelReferenceType&#45;&gt;GeographicLevelTypeProperties</title>
<path fill="none" stroke="black" d="M132.107,-80.6513C179.018,-90.7908 255.069,-109.746 316.706,-137 320.103,-138.502 323.513,-140.064 326.929,-141.678"/>
<text text-anchor="middle" x="254.706" y="-139.6" font-family="Times New Roman,serif" font-size="8.00">GeographicLevelReference</text>
</g>
<!-- PrimaryComponentLevelType -->
<g id="ReusableTypePrimaryComponentLevelType4" class="node"><title></title><ellipse fill="#f7b733" stroke="black" cx="87.3531" cy="-18" rx="70.8072" ry="18" style="filter: url(#dropshadow)"/>
<text text-anchor="middle" x="87.3531" y="-16.1" font-family="Times New Roman,serif" font-size="8.00">PrimaryComponentLevelType</text>
</g>
<!-- PrimaryComponentLevelType&#45;&gt;GeographicLevelTypeProperties -->
<g id="edge18" class="edge"><title>PrimaryComponentLevelType&#45;&gt;GeographicLevelTypeProperties</title>
<path fill="none" stroke="black" d="M149.143,-27.1085C197.027,-36.1605 264.225,-53.1301 316.706,-83 320.175,-84.9744 323.628,-87.0361 327.061,-89.1753"/>
<text text-anchor="middle" x="254.706" y="-85.6" font-family="Times New Roman,serif" font-size="8.00">GeographicLevelReference</text>
</g>
</g>
</svg>
