<?xml version="1.0" encoding="UTF-8" standalone="no"?>
<!DOCTYPE svg PUBLIC "-//W3C//DTD SVG 1.1//EN"
 "http://www.w3.org/Graphics/SVG/1.1/DTD/svg11.dtd">
<!-- Generated by graphviz version 2.38.0 (20140413.2041)
 -->
<!-- Title: G Pages: 1 -->
<svg width="1698pt" height="479pt"
 viewBox="0.00 0.00 1697.93 479.07" xmlns="http://www.w3.org/2000/svg" xmlns:xlink="http://www.w3.org/1999/xlink">
<filter id = "dropshadow" height = "130%" ><feGaussianBlur in= "SourceAlpha" stdDeviation = "3"/><!--stdDeviation is how much to blur--><feOffset dx = "2" dy = "2" result = "offsetblur"/><!--how much to offset--><feMerge><feMergeNode/><!--this contains the offset blurred image--><feMergeNode in= "SourceGraphic"/><!--this contains the element that the filter is applied to --></feMerge></filter>
<g id="graph0" class="graph" transform="scale(1 1) rotate(0) translate(4 475.067)">
<title>G</title>
<g id="clust1" class="cluster"><title>clusterGenericMap</title>
<polygon fill="#4abdac" stroke="black" points="176.933,-109.067 176.933,-463.067 1681.93,-463.067 1681.93,-109.067 176.933,-109.067" style="filter: url(#dropshadow)"/>
<text text-anchor="middle" x="929.433" y="-452.667" font-family="Times New Roman,serif" font-size="8.00">GenericMap</text>
</g>
<!-- GenericMapProperties -->
<g id="ItemTypeGenericMapProperties" class="node"><title></title><polygon fill="#f7b733" stroke="black" points="184.933,-290.567 184.933,-361.567 448.933,-361.567 448.933,-290.567 184.933,-290.567" style="filter: url(#dropshadow)"/>
<text text-anchor="middle" x="211.433" y="-324.167" font-family="Times New Roman,serif" font-size="8.00">Properties</text>
<polyline fill="none" stroke="black" points="237.933,-290.567 237.933,-361.567 "/>
<text text-anchor="start" x="245.933" y="-351.167" font-family="Times New Roman,serif" font-size="8.00">MapName : NameType[0...n] </text>
<text text-anchor="start" x="245.933" y="-342.167" font-family="Times New Roman,serif" font-size="8.00">Label : LabelType[0...n] </text>
<text text-anchor="start" x="245.933" y="-333.167" font-family="Times New Roman,serif" font-size="8.00">Description : StructuredStringType[0...1] </text>
<text text-anchor="start" x="245.933" y="-324.167" font-family="Times New Roman,serif" font-size="8.00">SourceSchemeReference : SchemeReferenceType[0...1] </text>
<text text-anchor="start" x="245.933" y="-315.167" font-family="Times New Roman,serif" font-size="8.00">TargetSchemeReference : SchemeReferenceType[0...1] </text>
<text text-anchor="start" x="245.933" y="-306.167" font-family="Times New Roman,serif" font-size="8.00">Correspondence : CorrespondenceType[0...1] </text>
<text text-anchor="start" x="245.933" y="-297.167" font-family="Times New Roman,serif" font-size="8.00">ItemMap : ItemMapType[0...n] </text>
</g>
<!-- GenericMapNameType -->
<g id="ReusableTypeGenericMapNameType" class="node"><title></title><polygon fill="#fc4a1a" stroke="black" points="626.433,-118.067 626.433,-154.067 795.433,-154.067 795.433,-118.067 626.433,-118.067" style="filter: url(#dropshadow)"/>
<text text-anchor="middle" x="654.433" y="-134.167" font-family="Times New Roman,serif" font-size="8.00">NameType</text>
<polyline fill="none" stroke="black" points="682.433,-118.067 682.433,-154.067 "/>
<text text-anchor="start" x="690.433" y="-138.667" font-family="Times New Roman,serif" font-size="8.00">IsPreferred : boolean[0...1] </text>
<text text-anchor="start" x="690.433" y="-129.667" font-family="Times New Roman,serif" font-size="8.00">Context : string[0...1] </text>
</g>
<!-- GenericMapProperties&#45;&gt;GenericMapNameType -->
<g id="edge1" class="edge"><title>GenericMapProperties&#45;&gt;GenericMapNameType</title>
<path fill="none" stroke="black" d="M361.774,-290.361C409.746,-253.138 490.329,-195.882 568.933,-164.067 586.978,-156.764 607.116,-151.311 626.397,-147.26"/>
<text text-anchor="middle" x="508.933" y="-219.667" font-family="Times New Roman,serif" font-size="8.00">MapName</text>
</g>
<!-- GenericMapLabelType -->
<g id="ReusableTypeGenericMapLabelType" class="node"><title></title><polygon fill="#fc4a1a" stroke="black" points="605.433,-173.567 605.433,-226.567 816.433,-226.567 816.433,-173.567 605.433,-173.567" style="filter: url(#dropshadow)"/>
<text text-anchor="middle" x="632.433" y="-198.167" font-family="Times New Roman,serif" font-size="8.00">LabelType</text>
<polyline fill="none" stroke="black" points="659.433,-173.567 659.433,-226.567 "/>
<text text-anchor="start" x="667.433" y="-216.167" font-family="Times New Roman,serif" font-size="8.00">TypeOfLabel : CodeValueType[0...1] </text>
<text text-anchor="start" x="667.433" y="-207.167" font-family="Times New Roman,serif" font-size="8.00">LocationVariant : string[0...1] </text>
<text text-anchor="start" x="667.433" y="-198.167" font-family="Times New Roman,serif" font-size="8.00">ValidForStartDate : cogsDate[0...1] </text>
<text text-anchor="start" x="667.433" y="-189.167" font-family="Times New Roman,serif" font-size="8.00">ValidForEndDate : cogsDate[0...1] </text>
<text text-anchor="start" x="667.433" y="-180.167" font-family="Times New Roman,serif" font-size="8.00">MaxLength : nonNegativeInteger[0...1] </text>
</g>
<!-- GenericMapProperties&#45;&gt;GenericMapLabelType -->
<g id="edge2" class="edge"><title>GenericMapProperties&#45;&gt;GenericMapLabelType</title>
<path fill="none" stroke="black" d="M410.505,-290.515C457.588,-273.037 515.926,-252.297 568.933,-236.067 580.649,-232.48 592.987,-228.959 605.29,-225.609"/>
<text text-anchor="middle" x="508.933" y="-270.667" font-family="Times New Roman,serif" font-size="8.00">Label</text>
</g>
<!-- GenericMapStructuredStringType -->
<g id="ReusableTypeGenericMapStructuredStringType" class="node"><title></title><polygon fill="#fc4a1a" stroke="black" points="1460.93,-371.067 1460.93,-407.067 1673.93,-407.067 1673.93,-371.067 1460.93,-371.067" style="filter: url(#dropshadow)"/>
<text text-anchor="middle" x="1505.93" y="-387.167" font-family="Times New Roman,serif" font-size="8.00">StructuredStringType</text>
<polyline fill="none" stroke="black" points="1550.93,-371.067 1550.93,-407.067 "/>
<text text-anchor="start" x="1558.93" y="-387.167" font-family="Times New Roman,serif" font-size="8.00">Content : ContentType[0...n] </text>
</g>
<!-- GenericMapProperties&#45;&gt;GenericMapStructuredStringType -->
<g id="edge3" class="edge"><title>GenericMapProperties&#45;&gt;GenericMapStructuredStringType</title>
<path fill="none" stroke="black" d="M449.24,-361.058C487.54,-369.711 529.657,-377.739 568.933,-382.067 694.396,-395.893 726.741,-384.826 852.933,-382.067 924.095,-380.511 941.771,-376.623 1012.93,-375.067 1174.23,-371.54 1214.71,-369.151 1375.93,-375.067 1403.44,-376.076 1433.13,-377.903 1460.71,-379.911"/>
<text text-anchor="middle" x="932.933" y="-383.667" font-family="Times New Roman,serif" font-size="8.00">Description</text>
</g>
<!-- GenericMapSchemeReferenceType -->
<g id="ReusableTypeGenericMapSchemeReferenceType" class="node"><title></title><polygon fill="#fc4a1a" stroke="black" points="598.933,-336.067 598.933,-372.067 822.933,-372.067 822.933,-336.067 598.933,-336.067" style="filter: url(#dropshadow)"/>
<text text-anchor="middle" x="646.933" y="-352.167" font-family="Times New Roman,serif" font-size="8.00">SchemeReferenceType</text>
<polyline fill="none" stroke="black" points="694.933,-336.067 694.933,-372.067 "/>
<text text-anchor="start" x="702.933" y="-352.167" font-family="Times New Roman,serif" font-size="8.00">Exclude : ReferenceType[0...n] </text>
</g>
<!-- GenericMapProperties&#45;&gt;GenericMapSchemeReferenceType -->
<g id="edge4" class="edge"><title>GenericMapProperties&#45;&gt;GenericMapSchemeReferenceType</title>
<path fill="none" stroke="black" d="M449.008,-335.43C497.529,-338.895 552.034,-342.789 598.632,-346.117"/>
<text text-anchor="middle" x="508.933" y="-344.667" font-family="Times New Roman,serif" font-size="8.00">SourceSchemeReference</text>
</g>
<!-- GenericMapCorrespondenceType -->
<g id="ReusableTypeGenericMapCorrespondenceType" class="node"><title></title><polygon fill="#fc4a1a" stroke="black" points="1012.93,-384.567 1012.93,-437.567 1375.93,-437.567 1375.93,-384.567 1012.93,-384.567" style="filter: url(#dropshadow)"/>
<text text-anchor="middle" x="1058.43" y="-409.167" font-family="Times New Roman,serif" font-size="8.00">CorrespondenceType</text>
<polyline fill="none" stroke="black" points="1103.93,-384.567 1103.93,-437.567 "/>
<text text-anchor="start" x="1111.93" y="-427.167" font-family="Times New Roman,serif" font-size="8.00">Commonality : StructuredStringType[0...1] </text>
<text text-anchor="start" x="1111.93" y="-418.167" font-family="Times New Roman,serif" font-size="8.00">Difference : StructuredStringType[0...1] </text>
<text text-anchor="start" x="1111.93" y="-409.167" font-family="Times New Roman,serif" font-size="8.00">CommonalityTypeCoded : CodeValueType[0...1] </text>
<text text-anchor="start" x="1111.93" y="-400.167" font-family="Times New Roman,serif" font-size="8.00">CommonalityWeight : float[0...1] </text>
<text text-anchor="start" x="1111.93" y="-391.167" font-family="Times New Roman,serif" font-size="8.00">UserDefinedCorrespondenceProperty : StandardKeyValuePairType[0...n] </text>
</g>
<!-- GenericMapProperties&#45;&gt;GenericMapCorrespondenceType -->
<g id="edge5" class="edge"><title>GenericMapProperties&#45;&gt;GenericMapCorrespondenceType</title>
<path fill="none" stroke="black" d="M377.753,-361.747C404.144,-375.564 436.118,-389.788 466.933,-397.067 649.097,-440.099 864.149,-437.952 1012.77,-428.541"/>
<text text-anchor="middle" x="710.933" y="-436.667" font-family="Times New Roman,serif" font-size="8.00">Correspondence</text>
</g>
<!-- GenericMapItemMapType -->
<g id="ReusableTypeGenericMapItemMapType" class="node"><title></title><polygon fill="#fc4a1a" stroke="black" points="568.933,-245.567 568.933,-316.567 852.933,-316.567 852.933,-245.567 568.933,-245.567" style="filter: url(#dropshadow)"/>
<text text-anchor="middle" x="602.933" y="-279.167" font-family="Times New Roman,serif" font-size="8.00">ItemMapType</text>
<polyline fill="none" stroke="black" points="636.933,-245.567 636.933,-316.567 "/>
<text text-anchor="start" x="644.933" y="-306.167" font-family="Times New Roman,serif" font-size="8.00">SourceItemReference_Versionable : Versionable[0...1] </text>
<text text-anchor="start" x="644.933" y="-297.167" font-family="Times New Roman,serif" font-size="8.00">SourceItemReference_Maintainable : Maintainable[0...1] </text>
<text text-anchor="start" x="644.933" y="-288.167" font-family="Times New Roman,serif" font-size="8.00">TargetItemReference_Versionable : Versionable[0...n] </text>
<text text-anchor="start" x="644.933" y="-279.167" font-family="Times New Roman,serif" font-size="8.00">TargetItemReference_Maintainable : Maintainable[0...n] </text>
<text text-anchor="start" x="644.933" y="-270.167" font-family="Times New Roman,serif" font-size="8.00">Correspondence : CorrespondenceType[0...1] </text>
<text text-anchor="start" x="644.933" y="-261.167" font-family="Times New Roman,serif" font-size="8.00">RelatedMapReference : ReferenceType[0...n] </text>
<text text-anchor="start" x="644.933" y="-252.167" font-family="Times New Roman,serif" font-size="8.00">Alias : string[0...1] </text>
</g>
<!-- GenericMapProperties&#45;&gt;GenericMapItemMapType -->
<g id="edge6" class="edge"><title>GenericMapProperties&#45;&gt;GenericMapItemMapType</title>
<path fill="none" stroke="black" d="M449.008,-311.02C487.513,-306.6 529.787,-301.747 568.887,-297.259"/>
<text text-anchor="middle" x="508.933" y="-310.667" font-family="Times New Roman,serif" font-size="8.00">ItemMap</text>
</g>
<!-- GenericMapCorrespondenceType&#45;&gt;GenericMapStructuredStringType -->
<g id="edge7" class="edge"><title>GenericMapCorrespondenceType&#45;&gt;GenericMapStructuredStringType</title>
<path fill="none" stroke="black" d="M1376.27,-402.978C1398.72,-401.773 1421.36,-400.463 1442.93,-399.067 1448.73,-398.692 1454.68,-398.285 1460.68,-397.856"/>
<text text-anchor="middle" x="1418.43" y="-403.667" font-family="Times New Roman,serif" font-size="8.00">Commonality</text>
</g>
<!-- GenericMapCorrespondenceType&#45;&gt;GenericMapStructuredStringType -->
<g id="edge8" class="edge"><title>GenericMapCorrespondenceType&#45;&gt;GenericMapStructuredStringType</title>
<path fill="none" stroke="black" d="M1376.04,-391.189C1382.07,-390.771 1388.05,-390.394 1393.93,-390.067 1415.46,-388.869 1438.53,-388.265 1460.56,-388.017"/>
<text text-anchor="middle" x="1418.43" y="-392.667" font-family="Times New Roman,serif" font-size="8.00">Difference</text>
</g>
<!-- GenericMapItemMapType&#45;&gt;GenericMapCorrespondenceType -->
<g id="edge13" class="edge"><title>GenericMapItemMapType&#45;&gt;GenericMapCorrespondenceType</title>
<path fill="none" stroke="black" d="M853.171,-312.313C898.616,-322.952 949.069,-335.379 994.933,-348.067 1034.66,-359.057 1078.37,-372.752 1114.63,-384.564"/>
<text text-anchor="middle" x="932.933" y="-350.667" font-family="Times New Roman,serif" font-size="8.00">Correspondence</text>
<text text-anchor="middle" x="1106.63" y="-378.164" font-family="Times New Roman,serif" font-size="8.00">0...*</text>
<text text-anchor="middle" x="861.171" y="-305.913" font-family="Times New Roman,serif" font-size="8.00">0...*</text>
</g>
<!-- Versionable -->
<g id="ItemTypeVersionable" class="node"><title></title><ellipse fill="#f7b733" stroke="black" cx="1194.43" cy="-83.067" rx="31.5313" ry="18" style="filter: url(#dropshadow)"/>
<text text-anchor="middle" x="1194.43" y="-81.167" font-family="Times New Roman,serif" font-size="8.00">Versionable</text>
</g>
<!-- GenericMapItemMapType&#45;&gt;Versionable -->
<g id="edge9" class="edge"><title>GenericMapItemMapType&#45;&gt;Versionable</title>
<path fill="none" stroke="black" d="M853.093,-289.829C904.298,-285.403 958.461,-270.587 994.933,-233.067 1034.98,-191.874 971.938,-145.313 1012.93,-105.067 1052.92,-65.8113 1124.23,-70.4158 1164.2,-76.9308"/>
<text text-anchor="middle" x="932.933" y="-289.667" font-family="Times New Roman,serif" font-size="8.00">SourceItemReference_Versionable</text>
<text text-anchor="middle" x="1156.2" y="-70.5308" font-family="Times New Roman,serif" font-size="8.00">0...*</text>
<text text-anchor="middle" x="861.093" y="-283.429" font-family="Times New Roman,serif" font-size="8.00">0...*</text>
</g>
<!-- GenericMapItemMapType&#45;&gt;Versionable -->
<g id="edge11" class="edge"><title>GenericMapItemMapType&#45;&gt;Versionable</title>
<path fill="none" stroke="black" d="M833.957,-245.475C840.483,-242.538 846.851,-239.404 852.933,-236.067 862.063,-231.058 862.162,-226.682 870.933,-221.067 922.334,-188.162 954.86,-208.1 994.933,-162.067 1012.38,-142.029 992.496,-122.041 1012.93,-105.067 1055.55,-69.6686 1124.57,-72.4653 1163.76,-77.7244"/>
<text text-anchor="middle" x="932.933" y="-223.667" font-family="Times New Roman,serif" font-size="8.00">TargetItemReference_Versionable</text>
<text text-anchor="middle" x="1155.76" y="-80.3244" font-family="Times New Roman,serif" font-size="8.00">0...*</text>
<text text-anchor="middle" x="825.957" y="-239.075" font-family="Times New Roman,serif" font-size="8.00">0...*</text>
</g>
<!-- Maintainable -->
<g id="ItemTypeMaintainable" class="node"><title></title><ellipse fill="#f7b733" stroke="black" cx="1194.43" cy="-29.067" rx="35.3371" ry="18" style="filter: url(#dropshadow)"/>
<text text-anchor="middle" x="1194.43" y="-27.167" font-family="Times New Roman,serif" font-size="8.00">Maintainable</text>
</g>
<!-- GenericMapItemMapType&#45;&gt;Maintainable -->
<g id="edge10" class="edge"><title>GenericMapItemMapType&#45;&gt;Maintainable</title>
<path fill="none" stroke="black" d="M843.202,-245.362C846.661,-242.498 849.92,-239.406 852.933,-236.067 879.093,-207.075 849.006,-182.381 870.933,-150.067 913.43,-87.4381 942.276,-83.1973 1012.93,-56.067 1061.44,-37.4401 1121.88,-31.5981 1159.05,-29.8049"/>
<text text-anchor="middle" x="932.933" y="-152.667" font-family="Times New Roman,serif" font-size="8.00">SourceItemReference_Maintainable</text>
<text text-anchor="middle" x="1151.05" y="-23.4049" font-family="Times New Roman,serif" font-size="8.00">0...*</text>
<text text-anchor="middle" x="851.202" y="-238.962" font-family="Times New Roman,serif" font-size="8.00">0...*</text>
</g>
<!-- GenericMapItemMapType&#45;&gt;Maintainable -->
<g id="edge12" class="edge"><title>GenericMapItemMapType&#45;&gt;Maintainable</title>
<path fill="none" stroke="black" d="M843.973,-245.522C847.186,-242.611 850.188,-239.465 852.933,-236.067 878.887,-203.934 841.307,-79.8495 870.933,-51.067 950.631,26.3618 1099.97,-2.82156 1163.54,-20.0197"/>
<text text-anchor="middle" x="932.933" y="-53.667" font-family="Times New Roman,serif" font-size="8.00">TargetItemReference_Maintainable</text>
<text text-anchor="middle" x="1155.54" y="-13.6197" font-family="Times New Roman,serif" font-size="8.00">0...*</text>
<text text-anchor="middle" x="851.973" y="-248.122" font-family="Times New Roman,serif" font-size="8.00">0...*</text>
</g>
<!-- Comparison -->
<g id="ItemTypeComparison0" class="node"><title></title><ellipse fill="#f7b733" stroke="black" cx="33.4665" cy="-326.067" rx="33.433" ry="18" style="filter: url(#dropshadow)"/>
<text text-anchor="middle" x="33.4665" y="-324.167" font-family="Times New Roman,serif" font-size="8.00">Comparison</text>
</g>
<!-- Comparison&#45;&gt;GenericMapProperties -->
<g id="edge14" class="edge"><title>Comparison&#45;&gt;GenericMapProperties</title>
<path fill="none" stroke="black" d="M48.5581,-342.481C57.8082,-351.943 70.7835,-362.949 84.9329,-368.067 114.014,-378.585 146.146,-379.18 176.967,-374.81"/>
<text text-anchor="middle" x="125.933" y="-379.667" font-family="Times New Roman,serif" font-size="8.00">ConceptMapReference</text>
<text text-anchor="middle" x="168.967" y="-368.41" font-family="Times New Roman,serif" font-size="8.00">0...*</text>
<text text-anchor="middle" x="40.5581" y="-345.081" font-family="Times New Roman,serif" font-size="8.00">0...*</text>
</g>
<!-- Comparison&#45;&gt;GenericMapProperties -->
<g id="edge15" class="edge"><title>Comparison&#45;&gt;GenericMapProperties</title>
<path fill="none" stroke="black" d="M64.478,-333.014C71.1739,-334.284 78.266,-335.413 84.9329,-336.067 114.672,-338.985 146.649,-339.361 177.046,-338.425"/>
<text text-anchor="middle" x="125.933" y="-340.667" font-family="Times New Roman,serif" font-size="8.00">VariableMapReference</text>
<text text-anchor="middle" x="169.046" y="-332.025" font-family="Times New Roman,serif" font-size="8.00">0...*</text>
<text text-anchor="middle" x="72.478" y="-326.614" font-family="Times New Roman,serif" font-size="8.00">0...*</text>
</g>
<!-- Comparison&#45;&gt;GenericMapProperties -->
<g id="edge16" class="edge"><title>Comparison&#45;&gt;GenericMapProperties</title>
<path fill="none" stroke="black" d="M67.0292,-326.067C94.5475,-326.067 135.96,-326.067 177.15,-326.067"/>
<text text-anchor="middle" x="125.933" y="-328.667" font-family="Times New Roman,serif" font-size="8.00">QuestionMapReference</text>
<text text-anchor="middle" x="169.15" y="-319.667" font-family="Times New Roman,serif" font-size="8.00">0...*</text>
<text text-anchor="middle" x="75.0292" y="-319.667" font-family="Times New Roman,serif" font-size="8.00">0...*</text>
</g>
<!-- Comparison&#45;&gt;GenericMapProperties -->
<g id="edge17" class="edge"><title>Comparison&#45;&gt;GenericMapProperties</title>
<path fill="none" stroke="black" d="M63.0462,-317.373C70.1312,-315.588 77.7523,-313.977 84.9329,-313.067 114.689,-309.296 146.74,-308.831 177.215,-310.064"/>
<text text-anchor="middle" x="125.933" y="-315.667" font-family="Times New Roman,serif" font-size="8.00">CategoryMapReference</text>
<text text-anchor="middle" x="169.215" y="-303.664" font-family="Times New Roman,serif" font-size="8.00">0...*</text>
<text text-anchor="middle" x="71.0462" y="-310.973" font-family="Times New Roman,serif" font-size="8.00">0...*</text>
</g>
<!-- Comparison&#45;&gt;GenericMapProperties -->
<g id="edge18" class="edge"><title>Comparison&#45;&gt;GenericMapProperties</title>
<path fill="none" stroke="black" d="M53.481,-311.458C62.4954,-305.432 73.7285,-299.146 84.9329,-296.067 114.321,-287.992 146.426,-287.271 177.101,-290.274"/>
<text text-anchor="middle" x="125.933" y="-298.667" font-family="Times New Roman,serif" font-size="8.00">UniverseMapReference</text>
<text text-anchor="middle" x="169.101" y="-283.874" font-family="Times New Roman,serif" font-size="8.00">0...*</text>
<text text-anchor="middle" x="45.481" y="-305.058" font-family="Times New Roman,serif" font-size="8.00">0...*</text>
</g>
</g>
</svg>
