<?xml version="1.0" encoding="UTF-8" standalone="no"?>
<!DOCTYPE svg PUBLIC "-//W3C//DTD SVG 1.1//EN"
 "http://www.w3.org/Graphics/SVG/1.1/DTD/svg11.dtd">
<!-- Generated by graphviz version 2.38.0 (20140413.2041)
 -->
<!-- Title: G Pages: 1 -->
<svg width="2548pt" height="717pt"
 viewBox="0.00 0.00 2548.04 717.00" xmlns="http://www.w3.org/2000/svg" xmlns:xlink="http://www.w3.org/1999/xlink">
<filter id = "dropshadow" height = "130%" ><feGaussianBlur in= "SourceAlpha" stdDeviation = "3"/><!--stdDeviation is how much to blur--><feOffset dx = "2" dy = "2" result = "offsetblur"/><!--how much to offset--><feMerge><feMergeNode/><!--this contains the offset blurred image--><feMergeNode in= "SourceGraphic"/><!--this contains the element that the filter is applied to --></feMerge></filter>
<g id="graph0" class="graph" transform="scale(1 1) rotate(0) translate(4 713)">
<title>G</title>
<g id="clust1" class="cluster"><title>clusterMeasurementItem</title>
<polygon fill="#4abdac" stroke="black" points="236.042,-208 236.042,-701 2532.04,-701 2532.04,-208 236.042,-208" style="filter: url(#dropshadow)"/>
<text text-anchor="middle" x="1384.04" y="-690.6" font-family="Times New Roman,serif" font-size="8.00">MeasurementItem</text>
</g>
<!-- MeasurementItemProperties -->
<g id="ItemTypeMeasurementItemProperties" class="node"><title></title><polygon fill="#f7b733" stroke="black" points="244.042,-309 244.042,-479 596.042,-479 596.042,-309 244.042,-309" style="filter: url(#dropshadow)"/>
<text text-anchor="middle" x="270.542" y="-392.1" font-family="Times New Roman,serif" font-size="8.00">Properties</text>
<polyline fill="none" stroke="black" points="297.042,-309 297.042,-479 "/>
<text text-anchor="start" x="305.042" y="-468.6" font-family="Times New Roman,serif" font-size="8.00">MeasurementItemName : NameType[0...n] </text>
<text text-anchor="start" x="305.042" y="-459.6" font-family="Times New Roman,serif" font-size="8.00">Label : LabelType[0...n] </text>
<text text-anchor="start" x="305.042" y="-450.6" font-family="Times New Roman,serif" font-size="8.00">Description : StructuredStringType[0...1] </text>
<text text-anchor="start" x="305.042" y="-441.6" font-family="Times New Roman,serif" font-size="8.00">InParameter : InParameterType[0...n] </text>
<text text-anchor="start" x="305.042" y="-432.6" font-family="Times New Roman,serif" font-size="8.00">OutParameter : ParameterType[0...n] </text>
<text text-anchor="start" x="305.042" y="-423.6" font-family="Times New Roman,serif" font-size="8.00">Binding : BindingType[0...n] </text>
<text text-anchor="start" x="305.042" y="-414.6" font-family="Times New Roman,serif" font-size="8.00">TypeOfMeasurementItem : CodeValueType[0...n] </text>
<text text-anchor="start" x="305.042" y="-405.6" font-family="Times New Roman,serif" font-size="8.00">MeasurementItemIntent : StructuredStringType[0...1] </text>
<text text-anchor="start" x="305.042" y="-396.6" font-family="Times New Roman,serif" font-size="8.00">ResponseDomain : RepresentationType[0...1] </text>
<text text-anchor="start" x="305.042" y="-387.6" font-family="Times New Roman,serif" font-size="8.00">ResponseDomainReference : ManagedRepresentation[0...1] </text>
<text text-anchor="start" x="305.042" y="-378.6" font-family="Times New Roman,serif" font-size="8.00">StructuredMixedResponseDomain : StructuredMixedResponseDomainType[0...1] </text>
<text text-anchor="start" x="305.042" y="-369.6" font-family="Times New Roman,serif" font-size="8.00">ResponseCardinality : ResponseCardinalityType[0...1] </text>
<text text-anchor="start" x="305.042" y="-360.6" font-family="Times New Roman,serif" font-size="8.00">ConceptReference : Concept[0...n] </text>
<text text-anchor="start" x="305.042" y="-351.6" font-family="Times New Roman,serif" font-size="8.00">ExternalAid : ExternalAidType[0...n] </text>
<text text-anchor="start" x="305.042" y="-342.6" font-family="Times New Roman,serif" font-size="8.00">ExternalInterviewerInstruction : ExternalInterviewerInstructionType[0...1] </text>
<text text-anchor="start" x="305.042" y="-333.6" font-family="Times New Roman,serif" font-size="8.00">InterviewerInstructionReference : Instruction[0...1] </text>
<text text-anchor="start" x="305.042" y="-324.6" font-family="Times New Roman,serif" font-size="8.00">RepresentedVariableReference : RepresentedVariable[0...n] </text>
<text text-anchor="start" x="305.042" y="-315.6" font-family="Times New Roman,serif" font-size="8.00">EstimatedSecondsResponseTime : decimal[0...1] </text>
</g>
<!-- MeasurementItemNameType -->
<g id="ReusableTypeMeasurementItemNameType" class="node"><title></title><polygon fill="#fc4a1a" stroke="black" points="1920.54,-395 1920.54,-431 2089.54,-431 2089.54,-395 1920.54,-395" style="filter: url(#dropshadow)"/>
<text text-anchor="middle" x="1948.54" y="-411.1" font-family="Times New Roman,serif" font-size="8.00">NameType</text>
<polyline fill="none" stroke="black" points="1976.54,-395 1976.54,-431 "/>
<text text-anchor="start" x="1984.54" y="-415.6" font-family="Times New Roman,serif" font-size="8.00">IsPreferred : boolean[0...1] </text>
<text text-anchor="start" x="1984.54" y="-406.6" font-family="Times New Roman,serif" font-size="8.00">Context : string[0...1] </text>
</g>
<!-- MeasurementItemProperties&#45;&gt;MeasurementItemNameType -->
<g id="edge1" class="edge"><title>MeasurementItemProperties&#45;&gt;MeasurementItemNameType</title>
<path fill="none" stroke="black" d="M596.191,-396.793C602.214,-396.867 608.178,-396.936 614.042,-397 968.25,-400.864 1056.84,-397.604 1411.04,-402 1592.51,-404.252 1805.19,-408.617 1920.08,-411.118"/>
<text text-anchor="middle" x="1305.54" y="-404.6" font-family="Times New Roman,serif" font-size="8.00">MeasurementItemName</text>
</g>
<!-- MeasurementItemLabelType -->
<g id="ReusableTypeMeasurementItemLabelType" class="node"><title></title><polygon fill="#fc4a1a" stroke="black" points="1200.04,-313.5 1200.04,-366.5 1411.04,-366.5 1411.04,-313.5 1200.04,-313.5" style="filter: url(#dropshadow)"/>
<text text-anchor="middle" x="1227.04" y="-338.1" font-family="Times New Roman,serif" font-size="8.00">LabelType</text>
<polyline fill="none" stroke="black" points="1254.04,-313.5 1254.04,-366.5 "/>
<text text-anchor="start" x="1262.04" y="-356.1" font-family="Times New Roman,serif" font-size="8.00">TypeOfLabel : CodeValueType[0...1] </text>
<text text-anchor="start" x="1262.04" y="-347.1" font-family="Times New Roman,serif" font-size="8.00">LocationVariant : string[0...1] </text>
<text text-anchor="start" x="1262.04" y="-338.1" font-family="Times New Roman,serif" font-size="8.00">ValidForStartDate : cogsDate[0...1] </text>
<text text-anchor="start" x="1262.04" y="-329.1" font-family="Times New Roman,serif" font-size="8.00">ValidForEndDate : cogsDate[0...1] </text>
<text text-anchor="start" x="1262.04" y="-320.1" font-family="Times New Roman,serif" font-size="8.00">MaxLength : nonNegativeInteger[0...1] </text>
</g>
<!-- MeasurementItemProperties&#45;&gt;MeasurementItemLabelType -->
<g id="edge2" class="edge"><title>MeasurementItemProperties&#45;&gt;MeasurementItemLabelType</title>
<path fill="none" stroke="black" d="M596.096,-358.483C645.35,-350.027 699.107,-342.232 749.042,-338 940.799,-321.748 989.604,-336.429 1182.04,-338 1187.89,-338.048 1193.9,-338.108 1199.96,-338.178"/>
<text text-anchor="middle" x="672.542" y="-357.6" font-family="Times New Roman,serif" font-size="8.00">Label</text>
</g>
<!-- MeasurementItemStructuredStringType -->
<g id="ReusableTypeMeasurementItemStructuredStringType" class="node"><title></title><polygon fill="#fc4a1a" stroke="black" points="1898.54,-458 1898.54,-494 2111.54,-494 2111.54,-458 1898.54,-458" style="filter: url(#dropshadow)"/>
<text text-anchor="middle" x="1943.54" y="-474.1" font-family="Times New Roman,serif" font-size="8.00">StructuredStringType</text>
<polyline fill="none" stroke="black" points="1988.54,-458 1988.54,-494 "/>
<text text-anchor="start" x="1996.54" y="-474.1" font-family="Times New Roman,serif" font-size="8.00">Content : ContentType[0...n] </text>
</g>
<!-- MeasurementItemProperties&#45;&gt;MeasurementItemStructuredStringType -->
<g id="edge3" class="edge"><title>MeasurementItemProperties&#45;&gt;MeasurementItemStructuredStringType</title>
<path fill="none" stroke="black" d="M596.188,-402.257C602.212,-402.512 608.177,-402.761 614.042,-403 1122.82,-423.749 1251.66,-400.072 1759.04,-443 1804.91,-446.881 1855.35,-453.302 1898.47,-459.453"/>
<text text-anchor="middle" x="1305.54" y="-423.6" font-family="Times New Roman,serif" font-size="8.00">Description</text>
</g>
<!-- MeasurementItemInParameterType -->
<g id="ReusableTypeMeasurementItemInParameterType" class="node"><title></title><polygon fill="#fc4a1a" stroke="black" points="863.042,-348 863.042,-384 1068.04,-384 1068.04,-348 863.042,-348" style="filter: url(#dropshadow)"/>
<text text-anchor="middle" x="902.542" y="-364.1" font-family="Times New Roman,serif" font-size="8.00">InParameterType</text>
<polyline fill="none" stroke="black" points="942.042,-348 942.042,-384 "/>
<text text-anchor="start" x="950.042" y="-364.1" font-family="Times New Roman,serif" font-size="8.00">LimitArrayIndex : string[0...1] </text>
</g>
<!-- MeasurementItemProperties&#45;&gt;MeasurementItemInParameterType -->
<g id="edge4" class="edge"><title>MeasurementItemProperties&#45;&gt;MeasurementItemInParameterType</title>
<path fill="none" stroke="black" d="M596.376,-384.967C684.48,-380.428 788.121,-375.089 862.954,-371.234"/>
<text text-anchor="middle" x="672.542" y="-386.6" font-family="Times New Roman,serif" font-size="8.00">InParameter</text>
</g>
<!-- MeasurementItemParameterType -->
<g id="ReusableTypeMeasurementItemParameterType" class="node"><title></title><polygon fill="#fc4a1a" stroke="black" points="1429.04,-452.5 1429.04,-523.5 1759.04,-523.5 1759.04,-452.5 1429.04,-452.5" style="filter: url(#dropshadow)"/>
<text text-anchor="middle" x="1464.54" y="-486.1" font-family="Times New Roman,serif" font-size="8.00">ParameterType</text>
<polyline fill="none" stroke="black" points="1500.04,-452.5 1500.04,-523.5 "/>
<text text-anchor="start" x="1508.04" y="-513.1" font-family="Times New Roman,serif" font-size="8.00">ParameterName : NameType[0...n] </text>
<text text-anchor="start" x="1508.04" y="-504.1" font-family="Times New Roman,serif" font-size="8.00">Alias : string[0...1] </text>
<text text-anchor="start" x="1508.04" y="-495.1" font-family="Times New Roman,serif" font-size="8.00">Description : StructuredStringType[0...1] </text>
<text text-anchor="start" x="1508.04" y="-486.1" font-family="Times New Roman,serif" font-size="8.00">ValueRepresentation : RepresentationType[0...1] </text>
<text text-anchor="start" x="1508.04" y="-477.1" font-family="Times New Roman,serif" font-size="8.00">ValueRepresentationReference : RepresentationReferenceType[0...1] </text>
<text text-anchor="start" x="1508.04" y="-468.1" font-family="Times New Roman,serif" font-size="8.00">DefaultValue : ValueType[0...1] </text>
<text text-anchor="start" x="1508.04" y="-459.1" font-family="Times New Roman,serif" font-size="8.00">IsArray : boolean[0...1] </text>
</g>
<!-- MeasurementItemProperties&#45;&gt;MeasurementItemParameterType -->
<g id="edge5" class="edge"><title>MeasurementItemProperties&#45;&gt;MeasurementItemParameterType</title>
<path fill="none" stroke="black" d="M596.054,-426.677C602.116,-427.509 608.126,-428.288 614.042,-429 766.824,-447.391 1191.91,-469.224 1428.61,-480.471"/>
<text text-anchor="middle" x="965.542" y="-469.6" font-family="Times New Roman,serif" font-size="8.00">OutParameter</text>
</g>
<!-- MeasurementItemBindingType -->
<g id="ReusableTypeMeasurementItemBindingType" class="node"><title></title><polygon fill="#fc4a1a" stroke="black" points="836.542,-489 836.542,-525 1094.54,-525 1094.54,-489 836.542,-489" style="filter: url(#dropshadow)"/>
<text text-anchor="middle" x="867.542" y="-505.1" font-family="Times New Roman,serif" font-size="8.00">BindingType</text>
<polyline fill="none" stroke="black" points="898.542,-489 898.542,-525 "/>
<text text-anchor="start" x="906.542" y="-509.6" font-family="Times New Roman,serif" font-size="8.00">SourceParameterReference : ParameterType[0...1] </text>
<text text-anchor="start" x="906.542" y="-500.6" font-family="Times New Roman,serif" font-size="8.00">TargetParameterReference : ParameterType[0...1] </text>
</g>
<!-- MeasurementItemProperties&#45;&gt;MeasurementItemBindingType -->
<g id="edge6" class="edge"><title>MeasurementItemProperties&#45;&gt;MeasurementItemBindingType</title>
<path fill="none" stroke="black" d="M596.148,-461.361C602.156,-463.02 608.132,-464.574 614.042,-466 686.552,-483.495 769.37,-493.623 836.29,-499.434"/>
<text text-anchor="middle" x="672.542" y="-489.6" font-family="Times New Roman,serif" font-size="8.00">Binding</text>
</g>
<!-- MeasurementItemCodeValueType -->
<g id="ReusableTypeMeasurementItemCodeValueType" class="node"><title></title><polygon fill="#fc4a1a" stroke="black" points="2265.04,-555.5 2265.04,-626.5 2524.04,-626.5 2524.04,-555.5 2265.04,-555.5" style="filter: url(#dropshadow)"/>
<text text-anchor="middle" x="2300.54" y="-589.1" font-family="Times New Roman,serif" font-size="8.00">CodeValueType</text>
<polyline fill="none" stroke="black" points="2336.04,-555.5 2336.04,-626.5 "/>
<text text-anchor="start" x="2344.04" y="-616.1" font-family="Times New Roman,serif" font-size="8.00">ControlledVocabularyID : string[0...1] </text>
<text text-anchor="start" x="2344.04" y="-607.1" font-family="Times New Roman,serif" font-size="8.00">ControlledVocabularyName : string[0...1] </text>
<text text-anchor="start" x="2344.04" y="-598.1" font-family="Times New Roman,serif" font-size="8.00">ControlledVocabularyAgencyName : string[0...1] </text>
<text text-anchor="start" x="2344.04" y="-589.1" font-family="Times New Roman,serif" font-size="8.00">ControlledVocabularyVersionID : string[0...1] </text>
<text text-anchor="start" x="2344.04" y="-580.1" font-family="Times New Roman,serif" font-size="8.00">OtherValue : string[0...1] </text>
<text text-anchor="start" x="2344.04" y="-571.1" font-family="Times New Roman,serif" font-size="8.00">ControlledVocabularyURN : string[0...1] </text>
<text text-anchor="start" x="2344.04" y="-562.1" font-family="Times New Roman,serif" font-size="8.00">ControlledVocabularySchemeURN : string[0...1] </text>
</g>
<!-- MeasurementItemProperties&#45;&gt;MeasurementItemCodeValueType -->
<g id="edge7" class="edge"><title>MeasurementItemProperties&#45;&gt;MeasurementItemCodeValueType</title>
<path fill="none" stroke="black" d="M471.183,-479.074C505.225,-529.399 554.764,-590.123 614.042,-626 666.544,-657.775 688.077,-647.978 749.042,-655 1364.61,-725.897 1526.64,-695.266 2143.04,-632 2182.83,-627.917 2225.88,-621.576 2264.89,-615.092"/>
<text text-anchor="middle" x="1594.04" y="-696.6" font-family="Times New Roman,serif" font-size="8.00">TypeOfMeasurementItem</text>
</g>
<!-- MeasurementItemRepresentationType -->
<g id="ReusableTypeMeasurementItemRepresentationType" class="node"><title></title><polygon fill="#fc4a1a" stroke="black" points="1867.04,-560 1867.04,-622 2143.04,-622 2143.04,-560 1867.04,-560" style="filter: url(#dropshadow)"/>
<text text-anchor="middle" x="1911.04" y="-589.1" font-family="Times New Roman,serif" font-size="8.00">RepresentationType</text>
<polyline fill="none" stroke="black" points="1955.04,-560 1955.04,-622 "/>
<text text-anchor="start" x="1963.04" y="-611.6" font-family="Times New Roman,serif" font-size="8.00">RecommendedDataType : CodeValueType[0...1] </text>
<text text-anchor="start" x="1963.04" y="-602.6" font-family="Times New Roman,serif" font-size="8.00">GenericOutputFormat : CodeValueType[0...1] </text>
<text text-anchor="start" x="1963.04" y="-593.6" font-family="Times New Roman,serif" font-size="8.00">MeasurementUnit : CodeValueType[0...1] </text>
<text text-anchor="start" x="1963.04" y="-584.6" font-family="Times New Roman,serif" font-size="8.00">MissingValue : string[0...1] </text>
<text text-anchor="start" x="1963.04" y="-575.6" font-family="Times New Roman,serif" font-size="8.00">BlankIsMissingValue : boolean[0...1] </text>
<text text-anchor="start" x="1963.04" y="-566.6" font-family="Times New Roman,serif" font-size="8.00">ClassificationLevel : string[0...1] </text>
</g>
<!-- MeasurementItemProperties&#45;&gt;MeasurementItemRepresentationType -->
<g id="edge8" class="edge"><title>MeasurementItemProperties&#45;&gt;MeasurementItemRepresentationType</title>
<path fill="none" stroke="black" d="M484.01,-479.007C518.455,-520.434 564.217,-568.073 614.042,-600 667.294,-634.122 686.613,-634.869 749.042,-645 960.677,-679.344 1587.57,-629.075 1866.98,-603.909"/>
<text text-anchor="middle" x="1305.54" y="-652.6" font-family="Times New Roman,serif" font-size="8.00">ResponseDomain</text>
</g>
<!-- ManagedRepresentation -->
<g id="ItemTypeManagedRepresentation0" class="node"><title></title><ellipse fill="#f7b733" stroke="black" cx="965.542" cy="-180" rx="56.9465" ry="18" style="filter: url(#dropshadow)"/>
<text text-anchor="middle" x="965.542" y="-178.1" font-family="Times New Roman,serif" font-size="8.00">ManagedRepresentation</text>
</g>
<!-- MeasurementItemProperties&#45;&gt;ManagedRepresentation -->
<g id="edge9" class="edge"><title>MeasurementItemProperties&#45;&gt;ManagedRepresentation</title>
<path fill="none" stroke="black" d="M501.542,-308.592C533.817,-279.084 573.063,-248.554 614.042,-229 710.391,-183.024 837.411,-176.885 909.086,-177.686"/>
<text text-anchor="middle" x="672.542" y="-231.6" font-family="Times New Roman,serif" font-size="8.00">ResponseDomainReference</text>
<text text-anchor="middle" x="901.086" y="-171.286" font-family="Times New Roman,serif" font-size="8.00">0...*</text>
<text text-anchor="middle" x="493.542" y="-302.192" font-family="Times New Roman,serif" font-size="8.00">0...*</text>
</g>
<!-- MeasurementItemStructuredMixedResponseDomainType -->
<g id="ReusableTypeMeasurementItemStructuredMixedResponseDomainType1" class="node"><title></title><polygon fill="#fc4a1a" stroke="black" points="767.042,-544 767.042,-580 1164.04,-580 1164.04,-544 767.042,-544" style="filter: url(#dropshadow)"/>
<text text-anchor="middle" x="843.042" y="-560.1" font-family="Times New Roman,serif" font-size="8.00">StructuredMixedResponseDomainType</text>
<polyline fill="none" stroke="black" points="919.042,-544 919.042,-580 "/>
<text text-anchor="start" x="927.042" y="-564.6" font-family="Times New Roman,serif" font-size="8.00">ResponseTextSet : ResponseTextSetType[0...1] </text>
<text text-anchor="start" x="927.042" y="-555.6" font-family="Times New Roman,serif" font-size="8.00">ResponseDomainInMixed : ResponseDomainInMixedType[0...1] </text>
</g>
<!-- MeasurementItemProperties&#45;&gt;MeasurementItemStructuredMixedResponseDomainType -->
<g id="edge10" class="edge"><title>MeasurementItemProperties&#45;&gt;MeasurementItemStructuredMixedResponseDomainType</title>
<path fill="none" stroke="black" d="M567.003,-479.043C582.63,-486.67 598.498,-493.828 614.042,-500 666.594,-520.866 726.356,-534.736 781.461,-543.946"/>
<text text-anchor="middle" x="672.542" y="-535.6" font-family="Times New Roman,serif" font-size="8.00">StructuredMixedResponseDomain</text>
<text text-anchor="middle" x="773.461" y="-537.546" font-family="Times New Roman,serif" font-size="8.00">0...*</text>
<text text-anchor="middle" x="559.003" y="-481.643" font-family="Times New Roman,serif" font-size="8.00">0...*</text>
</g>
<!-- MeasurementItemResponseCardinalityType -->
<g id="ReusableTypeMeasurementItemResponseCardinalityType2" class="node"><title></title><polygon fill="#fc4a1a" stroke="black" points="903.042,-599 903.042,-635 1028.04,-635 1028.04,-599 903.042,-599" style="filter: url(#dropshadow)"/>
<text text-anchor="middle" x="956.042" y="-615.1" font-family="Times New Roman,serif" font-size="8.00">ResponseCardinalityType</text>
<polyline fill="none" stroke="black" points="1009.04,-599 1009.04,-635 "/>
<text text-anchor="middle" x="1018.54" y="-615.1" font-family="Times New Roman,serif" font-size="8.00"> </text>
</g>
<!-- MeasurementItemProperties&#45;&gt;MeasurementItemResponseCardinalityType -->
<g id="edge11" class="edge"><title>MeasurementItemProperties&#45;&gt;MeasurementItemResponseCardinalityType</title>
<path fill="none" stroke="black" d="M515.565,-479.225C545.537,-503.199 579.817,-527.697 614.042,-546 706.705,-595.555 830.045,-610.619 902.997,-615.138"/>
<text text-anchor="middle" x="672.542" y="-589.6" font-family="Times New Roman,serif" font-size="8.00">ResponseCardinality</text>
<text text-anchor="middle" x="894.997" y="-608.738" font-family="Times New Roman,serif" font-size="8.00">0...*</text>
<text text-anchor="middle" x="507.565" y="-481.825" font-family="Times New Roman,serif" font-size="8.00">0...*</text>
</g>
<!-- Concept -->
<g id="ItemTypeConcept3" class="node"><title></title><ellipse fill="#f7b733" stroke="black" cx="965.542" cy="-126" rx="27" ry="18" style="filter: url(#dropshadow)"/>
<text text-anchor="middle" x="965.542" y="-124.1" font-family="Times New Roman,serif" font-size="8.00">Concept</text>
</g>
<!-- MeasurementItemProperties&#45;&gt;Concept -->
<g id="edge12" class="edge"><title>MeasurementItemProperties&#45;&gt;Concept</title>
<path fill="none" stroke="black" d="M477.785,-308.888C512.046,-264.098 559.572,-212.156 614.042,-181 721.778,-119.377 877.063,-120.687 938.298,-124.038"/>
<text text-anchor="middle" x="672.542" y="-183.6" font-family="Times New Roman,serif" font-size="8.00">ConceptReference</text>
<text text-anchor="middle" x="930.298" y="-117.638" font-family="Times New Roman,serif" font-size="8.00">0...*</text>
<text text-anchor="middle" x="469.785" y="-302.488" font-family="Times New Roman,serif" font-size="8.00">0...*</text>
</g>
<!-- MeasurementItemExternalAidType -->
<g id="ReusableTypeMeasurementItemExternalAidType4" class="node"><title></title><polygon fill="#fc4a1a" stroke="black" points="836.542,-272 836.542,-308 1094.54,-308 1094.54,-272 836.542,-272" style="filter: url(#dropshadow)"/>
<text text-anchor="middle" x="875.042" y="-288.1" font-family="Times New Roman,serif" font-size="8.00">ExternalAidType</text>
<polyline fill="none" stroke="black" points="913.542,-272 913.542,-308 "/>
<text text-anchor="start" x="921.542" y="-288.1" font-family="Times New Roman,serif" font-size="8.00">OtherMaterialReference : OtherMaterial[0...1] </text>
</g>
<!-- MeasurementItemProperties&#45;&gt;MeasurementItemExternalAidType -->
<g id="edge13" class="edge"><title>MeasurementItemProperties&#45;&gt;MeasurementItemExternalAidType</title>
<path fill="none" stroke="black" d="M575.995,-308.899C588.622,-304.204 601.393,-300.134 614.042,-297 686.116,-279.145 769.097,-276.718 836.221,-279.07"/>
<text text-anchor="middle" x="672.542" y="-299.6" font-family="Times New Roman,serif" font-size="8.00">ExternalAid</text>
<text text-anchor="middle" x="828.221" y="-272.67" font-family="Times New Roman,serif" font-size="8.00">0...*</text>
<text text-anchor="middle" x="567.995" y="-302.499" font-family="Times New Roman,serif" font-size="8.00">0...*</text>
</g>
<!-- MeasurementItemExternalInterviewerInstructionType -->
<g id="ReusableTypeMeasurementItemExternalInterviewerInstructionType5" class="node"><title></title><polygon fill="#fc4a1a" stroke="black" points="749.042,-217 749.042,-253 1182.04,-253 1182.04,-217 749.042,-217" style="filter: url(#dropshadow)"/>
<text text-anchor="middle" x="820.542" y="-233.1" font-family="Times New Roman,serif" font-size="8.00">ExternalInterviewerInstructionType</text>
<polyline fill="none" stroke="black" points="892.042,-217 892.042,-253 "/>
<text text-anchor="start" x="900.042" y="-242.1" font-family="Times New Roman,serif" font-size="8.00">OtherMaterialReference : OtherMaterial[0...1] </text>
<text text-anchor="start" x="900.042" y="-233.1" font-family="Times New Roman,serif" font-size="8.00">InstructionAttachmentLocation : InstructionAttachmentLocationType[0...n] </text>
<text text-anchor="start" x="900.042" y="-224.1" font-family="Times New Roman,serif" font-size="8.00">IsDisplayed : boolean[0...1] </text>
</g>
<!-- MeasurementItemProperties&#45;&gt;MeasurementItemExternalInterviewerInstructionType -->
<g id="edge14" class="edge"><title>MeasurementItemProperties&#45;&gt;MeasurementItemExternalInterviewerInstructionType</title>
<path fill="none" stroke="black" d="M531.563,-308.952C557.414,-292.812 585.71,-277.899 614.042,-268 656.451,-253.183 703.401,-244.154 748.787,-238.811"/>
<text text-anchor="middle" x="672.542" y="-270.6" font-family="Times New Roman,serif" font-size="8.00">ExternalInterviewerInstruction</text>
<text text-anchor="middle" x="740.787" y="-232.411" font-family="Times New Roman,serif" font-size="8.00">0...*</text>
<text text-anchor="middle" x="523.563" y="-302.552" font-family="Times New Roman,serif" font-size="8.00">0...*</text>
</g>
<!-- Instruction -->
<g id="ItemTypeInstruction6" class="node"><title></title><ellipse fill="#f7b733" stroke="black" cx="965.542" cy="-72" rx="31.3964" ry="18" style="filter: url(#dropshadow)"/>
<text text-anchor="middle" x="965.542" y="-70.1" font-family="Times New Roman,serif" font-size="8.00">Instruction</text>
</g>
<!-- MeasurementItemProperties&#45;&gt;Instruction -->
<g id="edge15" class="edge"><title>MeasurementItemProperties&#45;&gt;Instruction</title>
<path fill="none" stroke="black" d="M461.56,-308.725C494.382,-248.956 546.275,-172.143 614.042,-128 716.277,-61.404 870.039,-64.3242 934.464,-69.0658"/>
<text text-anchor="middle" x="672.542" y="-130.6" font-family="Times New Roman,serif" font-size="8.00">InterviewerInstructionReference</text>
<text text-anchor="middle" x="926.464" y="-62.6658" font-family="Times New Roman,serif" font-size="8.00">0...*</text>
<text text-anchor="middle" x="453.56" y="-302.325" font-family="Times New Roman,serif" font-size="8.00">0...*</text>
</g>
<!-- RepresentedVariable -->
<g id="ItemTypeRepresentedVariable7" class="node"><title></title><ellipse fill="#f7b733" stroke="black" cx="965.542" cy="-18" rx="48.5642" ry="18" style="filter: url(#dropshadow)"/>
<text text-anchor="middle" x="965.542" y="-16.1" font-family="Times New Roman,serif" font-size="8.00">RepresentedVariable</text>
</g>
<!-- MeasurementItemProperties&#45;&gt;RepresentedVariable -->
<g id="edge16" class="edge"><title>MeasurementItemProperties&#45;&gt;RepresentedVariable</title>
<path fill="none" stroke="black" d="M448.547,-308.82C477.467,-233.475 530.541,-126.794 614.042,-69 707.076,-4.60808 847.443,-6.43286 919.04,-12.5528"/>
<text text-anchor="middle" x="672.542" y="-71.6" font-family="Times New Roman,serif" font-size="8.00">RepresentedVariableReference</text>
<text text-anchor="middle" x="911.04" y="-6.15281" font-family="Times New Roman,serif" font-size="8.00">0...*</text>
<text text-anchor="middle" x="440.547" y="-302.42" font-family="Times New Roman,serif" font-size="8.00">0...*</text>
</g>
<!-- MeasurementItemLabelType&#45;&gt;MeasurementItemCodeValueType -->
<g id="edge17" class="edge"><title>MeasurementItemLabelType&#45;&gt;MeasurementItemCodeValueType</title>
<path fill="none" stroke="black" d="M1411.3,-325.353C1574.13,-306.977 1895,-288.513 2143.04,-385 2236.45,-421.335 2321.07,-506.734 2363.96,-555.401"/>
<text text-anchor="middle" x="1813.04" y="-321.6" font-family="Times New Roman,serif" font-size="8.00">TypeOfLabel</text>
<text text-anchor="middle" x="2355.96" y="-549.001" font-family="Times New Roman,serif" font-size="8.00">0...*</text>
<text text-anchor="middle" x="1419.3" y="-318.953" font-family="Times New Roman,serif" font-size="8.00">0...*</text>
</g>
<!-- MeasurementItemParameterType&#45;&gt;MeasurementItemNameType -->
<g id="edge18" class="edge"><title>MeasurementItemParameterType&#45;&gt;MeasurementItemNameType</title>
<path fill="none" stroke="black" d="M1759.34,-457.873C1814.64,-447.731 1874.03,-436.841 1920.45,-428.329"/>
<text text-anchor="middle" x="1813.04" y="-455.6" font-family="Times New Roman,serif" font-size="8.00">ParameterName</text>
<text text-anchor="middle" x="1912.45" y="-421.929" font-family="Times New Roman,serif" font-size="8.00">0...*</text>
<text text-anchor="middle" x="1767.34" y="-451.473" font-family="Times New Roman,serif" font-size="8.00">0...*</text>
</g>
<!-- MeasurementItemParameterType&#45;&gt;MeasurementItemStructuredStringType -->
<g id="edge19" class="edge"><title>MeasurementItemParameterType&#45;&gt;MeasurementItemStructuredStringType</title>
<path fill="none" stroke="black" d="M1759.34,-483.18C1806.2,-481.805 1856,-480.344 1898.35,-479.101"/>
<text text-anchor="middle" x="1813.04" y="-484.6" font-family="Times New Roman,serif" font-size="8.00">Description</text>
<text text-anchor="middle" x="1890.35" y="-472.701" font-family="Times New Roman,serif" font-size="8.00">0...*</text>
<text text-anchor="middle" x="1767.34" y="-476.78" font-family="Times New Roman,serif" font-size="8.00">0...*</text>
</g>
<!-- MeasurementItemParameterType&#45;&gt;MeasurementItemRepresentationType -->
<g id="edge20" class="edge"><title>MeasurementItemParameterType&#45;&gt;MeasurementItemRepresentationType</title>
<path fill="none" stroke="black" d="M1736.08,-523.519C1783.09,-535.356 1835.06,-548.444 1880.62,-559.919"/>
<text text-anchor="middle" x="1813.04" y="-553.6" font-family="Times New Roman,serif" font-size="8.00">ValueRepresentation</text>
<text text-anchor="middle" x="1872.62" y="-553.519" font-family="Times New Roman,serif" font-size="8.00">0...*</text>
<text text-anchor="middle" x="1728.08" y="-526.119" font-family="Times New Roman,serif" font-size="8.00">0...*</text>
</g>
<!-- MeasurementItemBindingType&#45;&gt;MeasurementItemParameterType -->
<g id="edge21" class="edge"><title>MeasurementItemBindingType&#45;&gt;MeasurementItemParameterType</title>
<path fill="none" stroke="black" d="M1094.95,-505.025C1183.74,-503.436 1304.59,-500.829 1411.04,-497 1416.89,-496.79 1422.85,-496.563 1428.86,-496.323"/>
<text text-anchor="middle" x="1305.54" y="-504.6" font-family="Times New Roman,serif" font-size="8.00">SourceParameterReference</text>
<text text-anchor="middle" x="1420.86" y="-489.923" font-family="Times New Roman,serif" font-size="8.00">0...*</text>
<text text-anchor="middle" x="1102.95" y="-498.625" font-family="Times New Roman,serif" font-size="8.00">0...*</text>
</g>
<!-- MeasurementItemBindingType&#45;&gt;MeasurementItemParameterType -->
<g id="edge22" class="edge"><title>MeasurementItemBindingType&#45;&gt;MeasurementItemParameterType</title>
<path fill="none" stroke="black" d="M1094.59,-494.697C1128.81,-491.924 1165.8,-489.391 1200.04,-488 1275.2,-484.947 1358.52,-484.524 1429.02,-485.031"/>
<text text-anchor="middle" x="1305.54" y="-490.6" font-family="Times New Roman,serif" font-size="8.00">TargetParameterReference</text>
<text text-anchor="middle" x="1421.02" y="-478.631" font-family="Times New Roman,serif" font-size="8.00">0...*</text>
<text text-anchor="middle" x="1102.59" y="-488.297" font-family="Times New Roman,serif" font-size="8.00">0...*</text>
</g>
<!-- MeasurementItemRepresentationType&#45;&gt;MeasurementItemCodeValueType -->
<g id="edge23" class="edge"><title>MeasurementItemRepresentationType&#45;&gt;MeasurementItemCodeValueType</title>
<path fill="none" stroke="black" d="M2143.17,-562.083C2149.19,-561.284 2155.17,-560.581 2161.04,-560 2199.08,-556.234 2209.03,-556.022 2247.04,-560 2252.86,-560.609 2258.79,-561.35 2264.76,-562.196"/>
<text text-anchor="middle" x="2204.04" y="-562.6" font-family="Times New Roman,serif" font-size="8.00">RecommendedDataType</text>
<text text-anchor="middle" x="2256.76" y="-555.796" font-family="Times New Roman,serif" font-size="8.00">0...*</text>
<text text-anchor="middle" x="2151.17" y="-555.683" font-family="Times New Roman,serif" font-size="8.00">0...*</text>
</g>
<!-- MeasurementItemRepresentationType&#45;&gt;MeasurementItemCodeValueType -->
<g id="edge24" class="edge"><title>MeasurementItemRepresentationType&#45;&gt;MeasurementItemCodeValueType</title>
<path fill="none" stroke="black" d="M2143.21,-591C2182.83,-591 2225.92,-591 2265,-591"/>
<text text-anchor="middle" x="2204.04" y="-593.6" font-family="Times New Roman,serif" font-size="8.00">GenericOutputFormat</text>
<text text-anchor="middle" x="2257" y="-584.6" font-family="Times New Roman,serif" font-size="8.00">0...*</text>
<text text-anchor="middle" x="2151.21" y="-584.6" font-family="Times New Roman,serif" font-size="8.00">0...*</text>
</g>
<!-- MeasurementItemRepresentationType&#45;&gt;MeasurementItemCodeValueType -->
<g id="edge25" class="edge"><title>MeasurementItemRepresentationType&#45;&gt;MeasurementItemCodeValueType</title>
<path fill="none" stroke="black" d="M2143.36,-600.33C2149.33,-600.587 2155.25,-600.813 2161.04,-601 2199.24,-602.231 2208.84,-602.302 2247.04,-601 2252.9,-600.8 2258.89,-600.556 2264.94,-600.276"/>
<text text-anchor="middle" x="2204.04" y="-603.6" font-family="Times New Roman,serif" font-size="8.00">MeasurementUnit</text>
<text text-anchor="middle" x="2256.94" y="-593.876" font-family="Times New Roman,serif" font-size="8.00">0...*</text>
<text text-anchor="middle" x="2151.36" y="-593.93" font-family="Times New Roman,serif" font-size="8.00">0...*</text>
</g>
<!-- OtherMaterial -->
<g id="ItemTypeOtherMaterial8" class="node"><title></title><ellipse fill="#f7b733" stroke="black" cx="1594.04" cy="-182" rx="37.3742" ry="18" style="filter: url(#dropshadow)"/>
<text text-anchor="middle" x="1594.04" y="-180.1" font-family="Times New Roman,serif" font-size="8.00">OtherMaterial</text>
</g>
<!-- MeasurementItemExternalAidType&#45;&gt;OtherMaterial -->
<g id="edge26" class="edge"><title>MeasurementItemExternalAidType&#45;&gt;OtherMaterial</title>
<path fill="none" stroke="black" d="M1094.79,-273.726C1123.51,-269.973 1153.83,-265.927 1182.04,-262 1283.95,-247.815 1322.65,-280.667 1411.04,-228 1422.5,-221.175 1417.54,-210.744 1429.04,-204 1468.32,-180.969 1521.83,-178.023 1556.89,-179.121"/>
<text text-anchor="middle" x="1305.54" y="-262.6" font-family="Times New Roman,serif" font-size="8.00">OtherMaterialReference</text>
<text text-anchor="middle" x="1548.89" y="-172.721" font-family="Times New Roman,serif" font-size="8.00">0...*</text>
<text text-anchor="middle" x="1102.79" y="-267.326" font-family="Times New Roman,serif" font-size="8.00">0...*</text>
</g>
<!-- MeasurementItemExternalInterviewerInstructionType&#45;&gt;OtherMaterial -->
<g id="edge27" class="edge"><title>MeasurementItemExternalInterviewerInstructionType&#45;&gt;OtherMaterial</title>
<path fill="none" stroke="black" d="M1179.52,-216.983C1317.69,-205.294 1484.95,-191.144 1557.08,-185.042"/>
<text text-anchor="middle" x="1305.54" y="-217.6" font-family="Times New Roman,serif" font-size="8.00">OtherMaterialReference</text>
<text text-anchor="middle" x="1549.08" y="-187.642" font-family="Times New Roman,serif" font-size="8.00">0...*</text>
<text text-anchor="middle" x="1171.52" y="-210.583" font-family="Times New Roman,serif" font-size="8.00">0...*</text>
</g>
<!-- MeasurementConstruct -->
<g id="ItemTypeMeasurementConstruct9" class="node"><title></title><ellipse fill="#f7b733" stroke="black" cx="55.0211" cy="-475" rx="55.0423" ry="18" style="filter: url(#dropshadow)"/>
<text text-anchor="middle" x="55.0211" y="-473.1" font-family="Times New Roman,serif" font-size="8.00">MeasurementConstruct</text>
</g>
<!-- MeasurementConstruct&#45;&gt;MeasurementItemProperties -->
<g id="edge28" class="edge"><title>MeasurementConstruct&#45;&gt;MeasurementItemProperties</title>
<path fill="none" stroke="black" d="M100.899,-464.987C135.524,-457.261 185.893,-446.022 236.381,-434.757"/>
<text text-anchor="middle" x="177.042" y="-460.6" font-family="Times New Roman,serif" font-size="8.00">MeasurementReference</text>
<text text-anchor="middle" x="228.381" y="-428.357" font-family="Times New Roman,serif" font-size="8.00">0...*</text>
<text text-anchor="middle" x="108.899" y="-458.587" font-family="Times New Roman,serif" font-size="8.00">0...*</text>
</g>
<!-- MeasurementGroup -->
<g id="ItemTypeMeasurementGroup0" class="node"><title></title><ellipse fill="#f7b733" stroke="black" cx="55.0211" cy="-421" rx="47.7948" ry="18" style="filter: url(#dropshadow)"/>
<text text-anchor="middle" x="55.0211" y="-419.1" font-family="Times New Roman,serif" font-size="8.00">MeasurementGroup</text>
</g>
<!-- MeasurementGroup&#45;&gt;MeasurementItemProperties -->
<g id="edge29" class="edge"><title>MeasurementGroup&#45;&gt;MeasurementItemProperties</title>
<path fill="none" stroke="black" d="M101.998,-417.58C136.569,-415.009 186.379,-411.305 236.312,-407.591"/>
<text text-anchor="middle" x="177.042" y="-418.6" font-family="Times New Roman,serif" font-size="8.00">MeasurementItemReference</text>
<text text-anchor="middle" x="228.312" y="-401.191" font-family="Times New Roman,serif" font-size="8.00">0...*</text>
<text text-anchor="middle" x="109.998" y="-411.18" font-family="Times New Roman,serif" font-size="8.00">0...*</text>
</g>
<!-- MeasurementScheme -->
<g id="ItemTypeMeasurementScheme1" class="node"><title></title><ellipse fill="#f7b733" stroke="black" cx="55.0211" cy="-367" rx="50.4666" ry="18" style="filter: url(#dropshadow)"/>
<text text-anchor="middle" x="55.0211" y="-365.1" font-family="Times New Roman,serif" font-size="8.00">MeasurementScheme</text>
</g>
<!-- MeasurementScheme&#45;&gt;MeasurementItemProperties -->
<g id="edge30" class="edge"><title>MeasurementScheme&#45;&gt;MeasurementItemProperties</title>
<path fill="none" stroke="black" d="M104.603,-370.613C138.989,-373.171 187.464,-376.776 236.079,-380.392"/>
<text text-anchor="middle" x="177.042" y="-381.6" font-family="Times New Roman,serif" font-size="8.00">MeasurementItemReference</text>
<text text-anchor="middle" x="228.079" y="-373.992" font-family="Times New Roman,serif" font-size="8.00">0...*</text>
<text text-anchor="middle" x="112.603" y="-364.213" font-family="Times New Roman,serif" font-size="8.00">0...*</text>
</g>
<!-- Variable -->
<g id="ItemTypeVariable2" class="node"><title></title><ellipse fill="#f7b733" stroke="black" cx="55.0211" cy="-313" rx="27" ry="18" style="filter: url(#dropshadow)"/>
<text text-anchor="middle" x="55.0211" y="-311.1" font-family="Times New Roman,serif" font-size="8.00">Variable</text>
</g>
<!-- Variable&#45;&gt;MeasurementItemProperties -->
<g id="edge31" class="edge"><title>Variable&#45;&gt;MeasurementItemProperties</title>
<path fill="none" stroke="black" d="M80.973,-318.567C113.914,-325.918 174.931,-339.532 236.155,-353.193"/>
<text text-anchor="middle" x="177.042" y="-351.6" font-family="Times New Roman,serif" font-size="8.00">MeasurementReference</text>
<text text-anchor="middle" x="228.155" y="-346.793" font-family="Times New Roman,serif" font-size="8.00">0...*</text>
<text text-anchor="middle" x="88.973" y="-312.167" font-family="Times New Roman,serif" font-size="8.00">0...*</text>
</g>
</g>
</svg>
