<?xml version="1.0" encoding="UTF-8" standalone="no"?>
<!DOCTYPE svg PUBLIC "-//W3C//DTD SVG 1.1//EN"
 "http://www.w3.org/Graphics/SVG/1.1/DTD/svg11.dtd">
<!-- Generated by graphviz version 2.38.0 (20140413.2041)
 -->
<!-- Title: G Pages: 1 -->
<svg width="2008pt" height="805pt"
 viewBox="0.00 0.00 2007.95 805.00" xmlns="http://www.w3.org/2000/svg" xmlns:xlink="http://www.w3.org/1999/xlink">
<filter id = "dropshadow" height = "130%" ><feGaussianBlur in= "SourceAlpha" stdDeviation = "3"/><!--stdDeviation is how much to blur--><feOffset dx = "2" dy = "2" result = "offsetblur"/><!--how much to offset--><feMerge><feMergeNode/><!--this contains the offset blurred image--><feMergeNode in= "SourceGraphic"/><!--this contains the element that the filter is applied to --></feMerge></filter>
<g id="graph0" class="graph" transform="scale(1 1) rotate(0) translate(4 801)">
<title>G</title>
<g id="clust1" class="cluster"><title>clusterQuestionItem</title>
<polygon fill="#4abdac" stroke="black" points="193.95,-208 193.95,-789 1991.95,-789 1991.95,-208 193.95,-208" style="filter: url(#dropshadow)"/>
<text text-anchor="middle" x="1092.95" y="-778.6" font-family="Times New Roman,serif" font-size="8.00">QuestionItem</text>
</g>
<!-- QuestionItemProperties -->
<g id="ItemTypeQuestionItemProperties" class="node"><title></title><polygon fill="#f7b733" stroke="black" points="201.95,-352 201.95,-522 553.95,-522 553.95,-352 201.95,-352" style="filter: url(#dropshadow)"/>
<text text-anchor="middle" x="228.45" y="-435.1" font-family="Times New Roman,serif" font-size="8.00">Properties</text>
<polyline fill="none" stroke="black" points="254.95,-352 254.95,-522 "/>
<text text-anchor="start" x="262.95" y="-511.6" font-family="Times New Roman,serif" font-size="8.00">QuestionItemName : NameType[0...n] </text>
<text text-anchor="start" x="262.95" y="-502.6" font-family="Times New Roman,serif" font-size="8.00">Label : LabelType[0...n] </text>
<text text-anchor="start" x="262.95" y="-493.6" font-family="Times New Roman,serif" font-size="8.00">Description : StructuredStringType[0...1] </text>
<text text-anchor="start" x="262.95" y="-484.6" font-family="Times New Roman,serif" font-size="8.00">InParameter : InParameterType[0...n] </text>
<text text-anchor="start" x="262.95" y="-475.6" font-family="Times New Roman,serif" font-size="8.00">OutParameter : ParameterType[0...n] </text>
<text text-anchor="start" x="262.95" y="-466.6" font-family="Times New Roman,serif" font-size="8.00">Binding : BindingType[0...n] </text>
<text text-anchor="start" x="262.95" y="-457.6" font-family="Times New Roman,serif" font-size="8.00">QuestionText : DynamicTextType[0...n] </text>
<text text-anchor="start" x="262.95" y="-448.6" font-family="Times New Roman,serif" font-size="8.00">QuestionIntent : StructuredStringType[0...1] </text>
<text text-anchor="start" x="262.95" y="-439.6" font-family="Times New Roman,serif" font-size="8.00">ResponseDomain : RepresentationType[0...1] </text>
<text text-anchor="start" x="262.95" y="-430.6" font-family="Times New Roman,serif" font-size="8.00">ResponseDomainReference : ManagedRepresentation[0...1] </text>
<text text-anchor="start" x="262.95" y="-421.6" font-family="Times New Roman,serif" font-size="8.00">StructuredMixedResponseDomain : StructuredMixedResponseDomainType[0...1] </text>
<text text-anchor="start" x="262.95" y="-412.6" font-family="Times New Roman,serif" font-size="8.00">ResponseCardinality : ResponseCardinalityType[0...1] </text>
<text text-anchor="start" x="262.95" y="-403.6" font-family="Times New Roman,serif" font-size="8.00">ConceptReference : Concept[0...n] </text>
<text text-anchor="start" x="262.95" y="-394.6" font-family="Times New Roman,serif" font-size="8.00">ExternalAid : ExternalAidType[0...n] </text>
<text text-anchor="start" x="262.95" y="-385.6" font-family="Times New Roman,serif" font-size="8.00">ExternalInterviewerInstruction : ExternalInterviewerInstructionType[0...1] </text>
<text text-anchor="start" x="262.95" y="-376.6" font-family="Times New Roman,serif" font-size="8.00">InterviewerInstructionReference : Instruction[0...1] </text>
<text text-anchor="start" x="262.95" y="-367.6" font-family="Times New Roman,serif" font-size="8.00">RepresentedVariableReference : RepresentedVariable[0...n] </text>
<text text-anchor="start" x="262.95" y="-358.6" font-family="Times New Roman,serif" font-size="8.00">EstimatedSecondsResponseTime : decimal[0...1] </text>
</g>
<!-- QuestionItemNameType -->
<g id="ReusableTypeQuestionItemNameType" class="node"><title></title><polygon fill="#fc4a1a" stroke="black" points="1761.45,-460 1761.45,-496 1930.45,-496 1930.45,-460 1761.45,-460" style="filter: url(#dropshadow)"/>
<text text-anchor="middle" x="1789.45" y="-476.1" font-family="Times New Roman,serif" font-size="8.00">NameType</text>
<polyline fill="none" stroke="black" points="1817.45,-460 1817.45,-496 "/>
<text text-anchor="start" x="1825.45" y="-480.6" font-family="Times New Roman,serif" font-size="8.00">IsPreferred : boolean[0...1] </text>
<text text-anchor="start" x="1825.45" y="-471.6" font-family="Times New Roman,serif" font-size="8.00">Context : string[0...1] </text>
</g>
<!-- QuestionItemProperties&#45;&gt;QuestionItemNameType -->
<g id="edge1" class="edge"><title>QuestionItemProperties&#45;&gt;QuestionItemNameType</title>
<path fill="none" stroke="black" d="M554.097,-442.503C560.121,-442.674 566.085,-442.84 571.95,-443 874.143,-451.252 949.761,-450.604 1251.95,-459 1433.42,-464.042 1646.1,-471.148 1760.99,-475.085"/>
<text text-anchor="middle" x="1204.95" y="-461.6" font-family="Times New Roman,serif" font-size="8.00">QuestionItemName</text>
</g>
<!-- QuestionItemLabelType -->
<g id="ReusableTypeQuestionItemLabelType" class="node"><title></title><polygon fill="#fc4a1a" stroke="black" points="817.95,-272.5 817.95,-325.5 1028.95,-325.5 1028.95,-272.5 817.95,-272.5" style="filter: url(#dropshadow)"/>
<text text-anchor="middle" x="844.95" y="-297.1" font-family="Times New Roman,serif" font-size="8.00">LabelType</text>
<polyline fill="none" stroke="black" points="871.95,-272.5 871.95,-325.5 "/>
<text text-anchor="start" x="879.95" y="-315.1" font-family="Times New Roman,serif" font-size="8.00">TypeOfLabel : CodeValueType[0...1] </text>
<text text-anchor="start" x="879.95" y="-306.1" font-family="Times New Roman,serif" font-size="8.00">LocationVariant : string[0...1] </text>
<text text-anchor="start" x="879.95" y="-297.1" font-family="Times New Roman,serif" font-size="8.00">ValidForStartDate : cogsDate[0...1] </text>
<text text-anchor="start" x="879.95" y="-288.1" font-family="Times New Roman,serif" font-size="8.00">ValidForEndDate : cogsDate[0...1] </text>
<text text-anchor="start" x="879.95" y="-279.1" font-family="Times New Roman,serif" font-size="8.00">MaxLength : nonNegativeInteger[0...1] </text>
</g>
<!-- QuestionItemProperties&#45;&gt;QuestionItemLabelType -->
<g id="edge2" class="edge"><title>QuestionItemProperties&#45;&gt;QuestionItemLabelType</title>
<path fill="none" stroke="black" d="M554.339,-377.632C603.358,-362.362 656.911,-346.902 706.95,-335 742.745,-326.486 782.353,-319.256 817.746,-313.558"/>
<text text-anchor="middle" x="630.45" y="-372.6" font-family="Times New Roman,serif" font-size="8.00">Label</text>
</g>
<!-- QuestionItemStructuredStringType -->
<g id="ReusableTypeQuestionItemStructuredStringType" class="node"><title></title><polygon fill="#fc4a1a" stroke="black" points="1739.45,-532 1739.45,-568 1952.45,-568 1952.45,-532 1739.45,-532" style="filter: url(#dropshadow)"/>
<text text-anchor="middle" x="1784.45" y="-548.1" font-family="Times New Roman,serif" font-size="8.00">StructuredStringType</text>
<polyline fill="none" stroke="black" points="1829.45,-532 1829.45,-568 "/>
<text text-anchor="start" x="1837.45" y="-548.1" font-family="Times New Roman,serif" font-size="8.00">Content : ContentType[0...n] </text>
</g>
<!-- QuestionItemProperties&#45;&gt;QuestionItemStructuredStringType -->
<g id="edge3" class="edge"><title>QuestionItemProperties&#45;&gt;QuestionItemStructuredStringType</title>
<path fill="none" stroke="black" d="M554.097,-448.828C560.121,-449.225 566.085,-449.617 571.95,-450 824.362,-466.5 887.747,-466.564 1139.95,-486 1352.86,-502.408 1601.52,-526.025 1739.32,-539.507"/>
<text text-anchor="middle" x="1204.95" y="-496.6" font-family="Times New Roman,serif" font-size="8.00">Description</text>
</g>
<!-- QuestionItemInParameterType -->
<g id="ReusableTypeQuestionItemInParameterType" class="node"><title></title><polygon fill="#fc4a1a" stroke="black" points="820.95,-400 820.95,-436 1025.95,-436 1025.95,-400 820.95,-400" style="filter: url(#dropshadow)"/>
<text text-anchor="middle" x="860.45" y="-416.1" font-family="Times New Roman,serif" font-size="8.00">InParameterType</text>
<polyline fill="none" stroke="black" points="899.95,-400 899.95,-436 "/>
<text text-anchor="start" x="907.95" y="-416.1" font-family="Times New Roman,serif" font-size="8.00">LimitArrayIndex : string[0...1] </text>
</g>
<!-- QuestionItemProperties&#45;&gt;QuestionItemInParameterType -->
<g id="edge4" class="edge"><title>QuestionItemProperties&#45;&gt;QuestionItemInParameterType</title>
<path fill="none" stroke="black" d="M554.283,-430.871C642.388,-427.791 746.028,-424.167 820.862,-421.551"/>
<text text-anchor="middle" x="630.45" y="-432.6" font-family="Times New Roman,serif" font-size="8.00">InParameter</text>
</g>
<!-- QuestionItemParameterType -->
<g id="ReusableTypeQuestionItemParameterType" class="node"><title></title><polygon fill="#fc4a1a" stroke="black" points="1269.95,-548.5 1269.95,-619.5 1599.95,-619.5 1599.95,-548.5 1269.95,-548.5" style="filter: url(#dropshadow)"/>
<text text-anchor="middle" x="1305.45" y="-582.1" font-family="Times New Roman,serif" font-size="8.00">ParameterType</text>
<polyline fill="none" stroke="black" points="1340.95,-548.5 1340.95,-619.5 "/>
<text text-anchor="start" x="1348.95" y="-609.1" font-family="Times New Roman,serif" font-size="8.00">ParameterName : NameType[0...n] </text>
<text text-anchor="start" x="1348.95" y="-600.1" font-family="Times New Roman,serif" font-size="8.00">Alias : string[0...1] </text>
<text text-anchor="start" x="1348.95" y="-591.1" font-family="Times New Roman,serif" font-size="8.00">Description : StructuredStringType[0...1] </text>
<text text-anchor="start" x="1348.95" y="-582.1" font-family="Times New Roman,serif" font-size="8.00">ValueRepresentation : RepresentationType[0...1] </text>
<text text-anchor="start" x="1348.95" y="-573.1" font-family="Times New Roman,serif" font-size="8.00">ValueRepresentationReference : RepresentationReferenceType[0...1] </text>
<text text-anchor="start" x="1348.95" y="-564.1" font-family="Times New Roman,serif" font-size="8.00">DefaultValue : ValueType[0...1] </text>
<text text-anchor="start" x="1348.95" y="-555.1" font-family="Times New Roman,serif" font-size="8.00">IsArray : boolean[0...1] </text>
</g>
<!-- QuestionItemProperties&#45;&gt;QuestionItemParameterType -->
<g id="edge5" class="edge"><title>QuestionItemProperties&#45;&gt;QuestionItemParameterType</title>
<path fill="none" stroke="black" d="M554.053,-503.331C560.075,-505.29 566.053,-507.186 571.95,-509 630.987,-527.159 645.865,-532.848 706.95,-542 811.428,-557.654 1089.33,-570.769 1269.7,-577.989"/>
<text text-anchor="middle" x="923.45" y="-573.6" font-family="Times New Roman,serif" font-size="8.00">OutParameter</text>
</g>
<!-- QuestionItemBindingType -->
<g id="ReusableTypeQuestionItemBindingType" class="node"><title></title><polygon fill="#fc4a1a" stroke="black" points="794.45,-707 794.45,-743 1052.45,-743 1052.45,-707 794.45,-707" style="filter: url(#dropshadow)"/>
<text text-anchor="middle" x="825.45" y="-723.1" font-family="Times New Roman,serif" font-size="8.00">BindingType</text>
<polyline fill="none" stroke="black" points="856.45,-707 856.45,-743 "/>
<text text-anchor="start" x="864.45" y="-727.6" font-family="Times New Roman,serif" font-size="8.00">SourceParameterReference : ParameterType[0...1] </text>
<text text-anchor="start" x="864.45" y="-718.6" font-family="Times New Roman,serif" font-size="8.00">TargetParameterReference : ParameterType[0...1] </text>
</g>
<!-- QuestionItemProperties&#45;&gt;QuestionItemBindingType -->
<g id="edge6" class="edge"><title>QuestionItemProperties&#45;&gt;QuestionItemBindingType</title>
<path fill="none" stroke="black" d="M430.762,-522.226C464.95,-571.402 514.051,-630.373 571.95,-666 638.168,-706.747 724.111,-721.676 794.321,-726.331"/>
<text text-anchor="middle" x="630.45" y="-713.6" font-family="Times New Roman,serif" font-size="8.00">Binding</text>
</g>
<!-- QuestionItemDynamicTextType -->
<g id="ReusableTypeQuestionItemDynamicTextType" class="node"><title></title><polygon fill="#fc4a1a" stroke="black" points="802.45,-496 802.45,-532 1044.45,-532 1044.45,-496 802.45,-496" style="filter: url(#dropshadow)"/>
<text text-anchor="middle" x="844.45" y="-512.1" font-family="Times New Roman,serif" font-size="8.00">DynamicTextType</text>
<polyline fill="none" stroke="black" points="886.45,-496 886.45,-532 "/>
<text text-anchor="start" x="894.45" y="-521.1" font-family="Times New Roman,serif" font-size="8.00">TextContent : TextContentType[0...n] </text>
<text text-anchor="start" x="894.45" y="-512.1" font-family="Times New Roman,serif" font-size="8.00">IsStructureRequired : boolean[0...1] </text>
<text text-anchor="start" x="894.45" y="-503.1" font-family="Times New Roman,serif" font-size="8.00">AudienceLanguage : language[0...1] </text>
</g>
<!-- QuestionItemProperties&#45;&gt;QuestionItemDynamicTextType -->
<g id="edge7" class="edge"><title>QuestionItemProperties&#45;&gt;QuestionItemDynamicTextType</title>
<path fill="none" stroke="black" d="M554.165,-477.978C560.155,-479.049 566.096,-480.061 571.95,-481 648.14,-493.218 734.427,-501.411 802.322,-506.578"/>
<text text-anchor="middle" x="630.45" y="-498.6" font-family="Times New Roman,serif" font-size="8.00">QuestionText</text>
</g>
<!-- QuestionItemRepresentationType -->
<g id="ReusableTypeQuestionItemRepresentationType" class="node"><title></title><polygon fill="#fc4a1a" stroke="black" points="1707.95,-595 1707.95,-657 1983.95,-657 1983.95,-595 1707.95,-595" style="filter: url(#dropshadow)"/>
<text text-anchor="middle" x="1751.95" y="-624.1" font-family="Times New Roman,serif" font-size="8.00">RepresentationType</text>
<polyline fill="none" stroke="black" points="1795.95,-595 1795.95,-657 "/>
<text text-anchor="start" x="1803.95" y="-646.6" font-family="Times New Roman,serif" font-size="8.00">RecommendedDataType : CodeValueType[0...1] </text>
<text text-anchor="start" x="1803.95" y="-637.6" font-family="Times New Roman,serif" font-size="8.00">GenericOutputFormat : CodeValueType[0...1] </text>
<text text-anchor="start" x="1803.95" y="-628.6" font-family="Times New Roman,serif" font-size="8.00">MeasurementUnit : CodeValueType[0...1] </text>
<text text-anchor="start" x="1803.95" y="-619.6" font-family="Times New Roman,serif" font-size="8.00">MissingValue : string[0...1] </text>
<text text-anchor="start" x="1803.95" y="-610.6" font-family="Times New Roman,serif" font-size="8.00">BlankIsMissingValue : boolean[0...1] </text>
<text text-anchor="start" x="1803.95" y="-601.6" font-family="Times New Roman,serif" font-size="8.00">ClassificationLevel : string[0...1] </text>
</g>
<!-- QuestionItemProperties&#45;&gt;QuestionItemRepresentationType -->
<g id="edge8" class="edge"><title>QuestionItemProperties&#45;&gt;QuestionItemRepresentationType</title>
<path fill="none" stroke="black" d="M414.533,-522.202C446.253,-587.523 498.986,-674.596 571.95,-724 622.766,-758.407 645.924,-746.519 706.95,-753 898.318,-773.323 948.269,-770.127 1139.95,-753 1341.71,-734.973 1572.11,-688.476 1713.04,-657.034"/>
<text text-anchor="middle" x="1204.95" y="-752.6" font-family="Times New Roman,serif" font-size="8.00">ResponseDomain</text>
</g>
<!-- ManagedRepresentation -->
<g id="ItemTypeManagedRepresentation0" class="node"><title></title><ellipse fill="#f7b733" stroke="black" cx="923.45" cy="-180" rx="56.9465" ry="18" style="filter: url(#dropshadow)"/>
<text text-anchor="middle" x="923.45" y="-178.1" font-family="Times New Roman,serif" font-size="8.00">ManagedRepresentation</text>
</g>
<!-- QuestionItemProperties&#45;&gt;ManagedRepresentation -->
<g id="edge9" class="edge"><title>QuestionItemProperties&#45;&gt;ManagedRepresentation</title>
<path fill="none" stroke="black" d="M456.834,-351.614C489.952,-318.872 530.474,-283.138 571.95,-257 664.057,-198.954 793.738,-184.275 866.776,-180.804"/>
<text text-anchor="middle" x="630.45" y="-259.6" font-family="Times New Roman,serif" font-size="8.00">ResponseDomainReference</text>
<text text-anchor="middle" x="858.776" y="-174.404" font-family="Times New Roman,serif" font-size="8.00">0...*</text>
<text text-anchor="middle" x="448.834" y="-345.214" font-family="Times New Roman,serif" font-size="8.00">0...*</text>
</g>
<!-- QuestionItemStructuredMixedResponseDomainType -->
<g id="ReusableTypeQuestionItemStructuredMixedResponseDomainType1" class="node"><title></title><polygon fill="#fc4a1a" stroke="black" points="724.95,-597 724.95,-633 1121.95,-633 1121.95,-597 724.95,-597" style="filter: url(#dropshadow)"/>
<text text-anchor="middle" x="800.95" y="-613.1" font-family="Times New Roman,serif" font-size="8.00">StructuredMixedResponseDomainType</text>
<polyline fill="none" stroke="black" points="876.95,-597 876.95,-633 "/>
<text text-anchor="start" x="884.95" y="-617.6" font-family="Times New Roman,serif" font-size="8.00">ResponseTextSet : ResponseTextSetType[0...1] </text>
<text text-anchor="start" x="884.95" y="-608.6" font-family="Times New Roman,serif" font-size="8.00">ResponseDomainInMixed : ResponseDomainInMixedType[0...1] </text>
</g>
<!-- QuestionItemProperties&#45;&gt;QuestionItemStructuredMixedResponseDomainType -->
<g id="edge10" class="edge"><title>QuestionItemProperties&#45;&gt;QuestionItemStructuredMixedResponseDomainType</title>
<path fill="none" stroke="black" d="M478.859,-522.128C507.307,-542.273 539.443,-561.509 571.95,-574 619.702,-592.35 673.593,-603.091 724.537,-609.235"/>
<text text-anchor="middle" x="630.45" y="-605.6" font-family="Times New Roman,serif" font-size="8.00">StructuredMixedResponseDomain</text>
<text text-anchor="middle" x="716.537" y="-602.835" font-family="Times New Roman,serif" font-size="8.00">0...*</text>
<text text-anchor="middle" x="470.859" y="-524.728" font-family="Times New Roman,serif" font-size="8.00">0...*</text>
</g>
<!-- QuestionItemResponseCardinalityType -->
<g id="ReusableTypeQuestionItemResponseCardinalityType2" class="node"><title></title><polygon fill="#fc4a1a" stroke="black" points="860.95,-652 860.95,-688 985.95,-688 985.95,-652 860.95,-652" style="filter: url(#dropshadow)"/>
<text text-anchor="middle" x="913.95" y="-668.1" font-family="Times New Roman,serif" font-size="8.00">ResponseCardinalityType</text>
<polyline fill="none" stroke="black" points="966.95,-652 966.95,-688 "/>
<text text-anchor="middle" x="976.45" y="-668.1" font-family="Times New Roman,serif" font-size="8.00"> </text>
</g>
<!-- QuestionItemProperties&#45;&gt;QuestionItemResponseCardinalityType -->
<g id="edge11" class="edge"><title>QuestionItemProperties&#45;&gt;QuestionItemResponseCardinalityType</title>
<path fill="none" stroke="black" d="M451.091,-522.002C484.5,-556.19 526.783,-592.91 571.95,-616 664.733,-663.433 788.035,-671.75 860.946,-671.94"/>
<text text-anchor="middle" x="630.45" y="-655.6" font-family="Times New Roman,serif" font-size="8.00">ResponseCardinality</text>
<text text-anchor="middle" x="852.946" y="-665.54" font-family="Times New Roman,serif" font-size="8.00">0...*</text>
<text text-anchor="middle" x="443.091" y="-524.602" font-family="Times New Roman,serif" font-size="8.00">0...*</text>
</g>
<!-- Concept -->
<g id="ItemTypeConcept3" class="node"><title></title><ellipse fill="#f7b733" stroke="black" cx="923.45" cy="-126" rx="27" ry="18" style="filter: url(#dropshadow)"/>
<text text-anchor="middle" x="923.45" y="-124.1" font-family="Times New Roman,serif" font-size="8.00">Concept</text>
</g>
<!-- QuestionItemProperties&#45;&gt;Concept -->
<g id="edge12" class="edge"><title>QuestionItemProperties&#45;&gt;Concept</title>
<path fill="none" stroke="black" d="M428.357,-351.896C462.595,-299.796 512.612,-235.56 571.95,-195 675.631,-124.13 834.595,-122.205 896.509,-124.495"/>
<text text-anchor="middle" x="630.45" y="-197.6" font-family="Times New Roman,serif" font-size="8.00">ConceptReference</text>
<text text-anchor="middle" x="888.509" y="-118.095" font-family="Times New Roman,serif" font-size="8.00">0...*</text>
<text text-anchor="middle" x="420.357" y="-345.496" font-family="Times New Roman,serif" font-size="8.00">0...*</text>
</g>
<!-- QuestionItemExternalAidType -->
<g id="ReusableTypeQuestionItemExternalAidType4" class="node"><title></title><polygon fill="#fc4a1a" stroke="black" points="794.45,-345 794.45,-381 1052.45,-381 1052.45,-345 794.45,-345" style="filter: url(#dropshadow)"/>
<text text-anchor="middle" x="832.95" y="-361.1" font-family="Times New Roman,serif" font-size="8.00">ExternalAidType</text>
<polyline fill="none" stroke="black" points="871.45,-345 871.45,-381 "/>
<text text-anchor="start" x="879.45" y="-361.1" font-family="Times New Roman,serif" font-size="8.00">OtherMaterialReference : OtherMaterial[0...1] </text>
</g>
<!-- QuestionItemProperties&#45;&gt;QuestionItemExternalAidType -->
<g id="edge13" class="edge"><title>QuestionItemProperties&#45;&gt;QuestionItemExternalAidType</title>
<path fill="none" stroke="black" d="M554.201,-411.303C603.577,-404.222 657.347,-396.661 706.95,-390 735.164,-386.211 765.481,-382.309 794.205,-378.689"/>
<text text-anchor="middle" x="630.45" y="-410.6" font-family="Times New Roman,serif" font-size="8.00">ExternalAid</text>
<text text-anchor="middle" x="786.205" y="-372.289" font-family="Times New Roman,serif" font-size="8.00">0...*</text>
<text text-anchor="middle" x="562.201" y="-404.903" font-family="Times New Roman,serif" font-size="8.00">0...*</text>
</g>
<!-- QuestionItemExternalInterviewerInstructionType -->
<g id="ReusableTypeQuestionItemExternalInterviewerInstructionType5" class="node"><title></title><polygon fill="#fc4a1a" stroke="black" points="706.95,-217 706.95,-253 1139.95,-253 1139.95,-217 706.95,-217" style="filter: url(#dropshadow)"/>
<text text-anchor="middle" x="778.45" y="-233.1" font-family="Times New Roman,serif" font-size="8.00">ExternalInterviewerInstructionType</text>
<polyline fill="none" stroke="black" points="849.95,-217 849.95,-253 "/>
<text text-anchor="start" x="857.95" y="-242.1" font-family="Times New Roman,serif" font-size="8.00">OtherMaterialReference : OtherMaterial[0...1] </text>
<text text-anchor="start" x="857.95" y="-233.1" font-family="Times New Roman,serif" font-size="8.00">InstructionAttachmentLocation : InstructionAttachmentLocationType[0...n] </text>
<text text-anchor="start" x="857.95" y="-224.1" font-family="Times New Roman,serif" font-size="8.00">IsDisplayed : boolean[0...1] </text>
</g>
<!-- QuestionItemProperties&#45;&gt;QuestionItemExternalInterviewerInstructionType -->
<g id="edge14" class="edge"><title>QuestionItemProperties&#45;&gt;QuestionItemExternalInterviewerInstructionType</title>
<path fill="none" stroke="black" d="M510.66,-351.911C568.616,-318.564 638.889,-283.456 706.95,-263 719.686,-259.172 733.001,-255.868 746.493,-253.015"/>
<text text-anchor="middle" x="630.45" y="-319.6" font-family="Times New Roman,serif" font-size="8.00">ExternalInterviewerInstruction</text>
<text text-anchor="middle" x="738.493" y="-255.615" font-family="Times New Roman,serif" font-size="8.00">0...*</text>
<text text-anchor="middle" x="502.66" y="-345.511" font-family="Times New Roman,serif" font-size="8.00">0...*</text>
</g>
<!-- Instruction -->
<g id="ItemTypeInstruction6" class="node"><title></title><ellipse fill="#f7b733" stroke="black" cx="923.45" cy="-72" rx="31.3964" ry="18" style="filter: url(#dropshadow)"/>
<text text-anchor="middle" x="923.45" y="-70.1" font-family="Times New Roman,serif" font-size="8.00">Instruction</text>
</g>
<!-- QuestionItemProperties&#45;&gt;Instruction -->
<g id="edge15" class="edge"><title>QuestionItemProperties&#45;&gt;Instruction</title>
<path fill="none" stroke="black" d="M411.883,-351.712C442.932,-282.549 496.08,-187.845 571.95,-133 671.311,-61.1725 827.316,-64.0587 892.384,-68.9788"/>
<text text-anchor="middle" x="630.45" y="-135.6" font-family="Times New Roman,serif" font-size="8.00">InterviewerInstructionReference</text>
<text text-anchor="middle" x="884.384" y="-62.5788" font-family="Times New Roman,serif" font-size="8.00">0...*</text>
<text text-anchor="middle" x="403.883" y="-345.312" font-family="Times New Roman,serif" font-size="8.00">0...*</text>
</g>
<!-- RepresentedVariable -->
<g id="ItemTypeRepresentedVariable7" class="node"><title></title><ellipse fill="#f7b733" stroke="black" cx="923.45" cy="-18" rx="48.5642" ry="18" style="filter: url(#dropshadow)"/>
<text text-anchor="middle" x="923.45" y="-16.1" font-family="Times New Roman,serif" font-size="8.00">RepresentedVariable</text>
</g>
<!-- QuestionItemProperties&#45;&gt;RepresentedVariable -->
<g id="edge16" class="edge"><title>QuestionItemProperties&#45;&gt;RepresentedVariable</title>
<path fill="none" stroke="black" d="M400.574,-351.655C426.657,-266.878 479.039,-139.873 571.95,-71 663.167,-3.38266 804.957,-5.70049 877.045,-12.2698"/>
<text text-anchor="middle" x="630.45" y="-73.6" font-family="Times New Roman,serif" font-size="8.00">RepresentedVariableReference</text>
<text text-anchor="middle" x="869.045" y="-5.86982" font-family="Times New Roman,serif" font-size="8.00">0...*</text>
<text text-anchor="middle" x="392.574" y="-345.255" font-family="Times New Roman,serif" font-size="8.00">0...*</text>
</g>
<!-- QuestionItemParameterType&#45;&gt;QuestionItemNameType -->
<g id="edge17" class="edge"><title>QuestionItemParameterType&#45;&gt;QuestionItemNameType</title>
<path fill="none" stroke="black" d="M1572.99,-548.482C1640.9,-530.884 1719.97,-510.39 1775.3,-496.052"/>
<text text-anchor="middle" x="1653.95" y="-536.6" font-family="Times New Roman,serif" font-size="8.00">ParameterName</text>
<text text-anchor="middle" x="1767.3" y="-498.652" font-family="Times New Roman,serif" font-size="8.00">0...*</text>
<text text-anchor="middle" x="1564.99" y="-542.082" font-family="Times New Roman,serif" font-size="8.00">0...*</text>
</g>
<!-- QuestionItemParameterType&#45;&gt;QuestionItemStructuredStringType -->
<g id="edge18" class="edge"><title>QuestionItemParameterType&#45;&gt;QuestionItemStructuredStringType</title>
<path fill="none" stroke="black" d="M1600.24,-570.342C1647.11,-566.447 1696.91,-562.307 1739.26,-558.786"/>
<text text-anchor="middle" x="1653.95" y="-570.6" font-family="Times New Roman,serif" font-size="8.00">Description</text>
<text text-anchor="middle" x="1731.26" y="-552.386" font-family="Times New Roman,serif" font-size="8.00">0...*</text>
<text text-anchor="middle" x="1608.24" y="-563.942" font-family="Times New Roman,serif" font-size="8.00">0...*</text>
</g>
<!-- QuestionItemParameterType&#45;&gt;QuestionItemRepresentationType -->
<g id="edge19" class="edge"><title>QuestionItemParameterType&#45;&gt;QuestionItemRepresentationType</title>
<path fill="none" stroke="black" d="M1600.24,-600.871C1635.89,-604.532 1673.24,-608.367 1707.71,-611.907"/>
<text text-anchor="middle" x="1653.95" y="-611.6" font-family="Times New Roman,serif" font-size="8.00">ValueRepresentation</text>
<text text-anchor="middle" x="1699.71" y="-605.507" font-family="Times New Roman,serif" font-size="8.00">0...*</text>
<text text-anchor="middle" x="1608.24" y="-594.471" font-family="Times New Roman,serif" font-size="8.00">0...*</text>
</g>
<!-- QuestionItemBindingType&#45;&gt;QuestionItemParameterType -->
<g id="edge20" class="edge"><title>QuestionItemBindingType&#45;&gt;QuestionItemParameterType</title>
<path fill="none" stroke="black" d="M1052.53,-731.784C1083.87,-727.647 1115.42,-717.883 1139.95,-698 1158.95,-682.601 1139.71,-662.296 1157.95,-646 1188.8,-618.431 1229.24,-602.292 1269.61,-593.047"/>
<text text-anchor="middle" x="1204.95" y="-648.6" font-family="Times New Roman,serif" font-size="8.00">SourceParameterReference</text>
<text text-anchor="middle" x="1261.61" y="-586.647" font-family="Times New Roman,serif" font-size="8.00">0...*</text>
<text text-anchor="middle" x="1060.53" y="-725.384" font-family="Times New Roman,serif" font-size="8.00">0...*</text>
</g>
<!-- QuestionItemBindingType&#45;&gt;QuestionItemParameterType -->
<g id="edge21" class="edge"><title>QuestionItemBindingType&#45;&gt;QuestionItemParameterType</title>
<path fill="none" stroke="black" d="M1052.45,-714.137C1081.47,-710.246 1111.97,-705.014 1139.95,-698 1216.15,-678.899 1299.3,-645.392 1357.67,-619.631"/>
<text text-anchor="middle" x="1204.95" y="-693.6" font-family="Times New Roman,serif" font-size="8.00">TargetParameterReference</text>
<text text-anchor="middle" x="1349.67" y="-622.231" font-family="Times New Roman,serif" font-size="8.00">0...*</text>
<text text-anchor="middle" x="1060.45" y="-707.737" font-family="Times New Roman,serif" font-size="8.00">0...*</text>
</g>
<!-- OtherMaterial -->
<g id="ItemTypeOtherMaterial8" class="node"><title></title><ellipse fill="#f7b733" stroke="black" cx="1434.95" cy="-182" rx="37.3742" ry="18" style="filter: url(#dropshadow)"/>
<text text-anchor="middle" x="1434.95" y="-180.1" font-family="Times New Roman,serif" font-size="8.00">OtherMaterial</text>
</g>
<!-- QuestionItemExternalAidType&#45;&gt;OtherMaterial -->
<g id="edge22" class="edge"><title>QuestionItemExternalAidType&#45;&gt;OtherMaterial</title>
<path fill="none" stroke="black" d="M1052.66,-360.14C1082.41,-355.781 1113.18,-348.1 1139.95,-335 1202.9,-304.197 1203.6,-274.733 1251.95,-224 1260.2,-215.343 1259.37,-209.582 1269.95,-204 1309.96,-182.88 1362.82,-179.42 1397.57,-179.884"/>
<text text-anchor="middle" x="1204.95" y="-326.6" font-family="Times New Roman,serif" font-size="8.00">OtherMaterialReference</text>
<text text-anchor="middle" x="1389.57" y="-173.484" font-family="Times New Roman,serif" font-size="8.00">0...*</text>
<text text-anchor="middle" x="1060.66" y="-353.74" font-family="Times New Roman,serif" font-size="8.00">0...*</text>
</g>
<!-- QuestionItemExternalInterviewerInstructionType&#45;&gt;OtherMaterial -->
<g id="edge23" class="edge"><title>QuestionItemExternalInterviewerInstructionType&#45;&gt;OtherMaterial</title>
<path fill="none" stroke="black" d="M1097.65,-216.983C1205.84,-205.729 1335.95,-192.194 1397.84,-185.756"/>
<text text-anchor="middle" x="1204.95" y="-213.6" font-family="Times New Roman,serif" font-size="8.00">OtherMaterialReference</text>
<text text-anchor="middle" x="1389.84" y="-188.356" font-family="Times New Roman,serif" font-size="8.00">0...*</text>
<text text-anchor="middle" x="1089.65" y="-210.583" font-family="Times New Roman,serif" font-size="8.00">0...*</text>
</g>
<!-- QuestionBlock -->
<g id="ItemTypeQuestionBlock9" class="node"><title></title><ellipse fill="#f7b733" stroke="black" cx="41.9749" cy="-491" rx="38.6432" ry="18" style="filter: url(#dropshadow)"/>
<text text-anchor="middle" x="41.9749" y="-489.1" font-family="Times New Roman,serif" font-size="8.00">QuestionBlock</text>
</g>
<!-- QuestionBlock&#45;&gt;QuestionItemProperties -->
<g id="edge24" class="edge"><title>QuestionBlock&#45;&gt;QuestionItemProperties</title>
<path fill="none" stroke="black" d="M78.716,-485.221C107.408,-480.582 150.065,-473.685 194.204,-466.548"/>
<text text-anchor="middle" x="142.95" y="-483.6" font-family="Times New Roman,serif" font-size="8.00">QuestionItemReference</text>
<text text-anchor="middle" x="186.204" y="-460.148" font-family="Times New Roman,serif" font-size="8.00">0...*</text>
<text text-anchor="middle" x="86.716" y="-487.821" font-family="Times New Roman,serif" font-size="8.00">0...*</text>
</g>
<!-- QuestionGroup -->
<g id="ItemTypeQuestionGroup0" class="node"><title></title><ellipse fill="#f7b733" stroke="black" cx="41.9749" cy="-437" rx="38.6432" ry="18" style="filter: url(#dropshadow)"/>
<text text-anchor="middle" x="41.9749" y="-435.1" font-family="Times New Roman,serif" font-size="8.00">QuestionGroup</text>
</g>
<!-- QuestionGroup&#45;&gt;QuestionItemProperties -->
<g id="edge25" class="edge"><title>QuestionGroup&#45;&gt;QuestionItemProperties</title>
<path fill="none" stroke="black" d="M80.6368,-437C109.342,-437 151.183,-437 194.426,-437"/>
<text text-anchor="middle" x="142.95" y="-439.6" font-family="Times New Roman,serif" font-size="8.00">QuestionItemReference</text>
<text text-anchor="middle" x="186.426" y="-430.6" font-family="Times New Roman,serif" font-size="8.00">0...*</text>
<text text-anchor="middle" x="88.6368" y="-430.6" font-family="Times New Roman,serif" font-size="8.00">0...*</text>
</g>
<!-- QuestionScheme -->
<g id="ItemTypeQuestionScheme1" class="node"><title></title><ellipse fill="#f7b733" stroke="black" cx="41.9749" cy="-383" rx="41.9498" ry="18" style="filter: url(#dropshadow)"/>
<text text-anchor="middle" x="41.9749" y="-381.1" font-family="Times New Roman,serif" font-size="8.00">QuestionScheme</text>
</g>
<!-- QuestionScheme&#45;&gt;QuestionItemProperties -->
<g id="edge26" class="edge"><title>QuestionScheme&#45;&gt;QuestionItemProperties</title>
<path fill="none" stroke="black" d="M81.6123,-389.247C110.261,-393.879 151.601,-400.564 194.318,-407.471"/>
<text text-anchor="middle" x="142.95" y="-408.6" font-family="Times New Roman,serif" font-size="8.00">QuestionItemReference</text>
<text text-anchor="middle" x="186.318" y="-401.071" font-family="Times New Roman,serif" font-size="8.00">0...*</text>
<text text-anchor="middle" x="89.6123" y="-382.847" font-family="Times New Roman,serif" font-size="8.00">0...*</text>
</g>
</g>
</svg>
