<?xml version="1.0" encoding="UTF-8" standalone="no"?>
<!DOCTYPE svg PUBLIC "-//W3C//DTD SVG 1.1//EN"
 "http://www.w3.org/Graphics/SVG/1.1/DTD/svg11.dtd">
<!-- Generated by graphviz version 2.38.0 (20140413.2041)
 -->
<!-- Title: G Pages: 1 -->
<svg width="1095pt" height="403pt"
 viewBox="0.00 0.00 1095.00 403.00" xmlns="http://www.w3.org/2000/svg" xmlns:xlink="http://www.w3.org/1999/xlink">
<filter id = "dropshadow" height = "130%" ><feGaussianBlur in= "SourceAlpha" stdDeviation = "3"/><!--stdDeviation is how much to blur--><feOffset dx = "2" dy = "2" result = "offsetblur"/><!--how much to offset--><feMerge><feMergeNode/><!--this contains the offset blurred image--><feMergeNode in= "SourceGraphic"/><!--this contains the element that the filter is applied to --></feMerge></filter>
<g id="graph0" class="graph" transform="scale(1 1) rotate(0) translate(4 399)">
<title>G</title>
<g id="clust1" class="cluster"><title>clusterNoteType</title>
<polygon fill="#4abdac" stroke="black" points="8,-98 8,-387 1079,-387 1079,-98 8,-98" style="filter: url(#dropshadow)"/>
<text text-anchor="middle" x="543.5" y="-376.6" font-family="Times New Roman,serif" font-size="8.00">NoteType</text>
</g>
<!-- NoteTypeProperties -->
<g id="ReusableTypeNoteTypeProperties" class="node"><title></title><polygon fill="#f7b733" stroke="black" points="16,-202 16,-282 246,-282 246,-202 16,-202" style="filter: url(#dropshadow)"/>
<text text-anchor="middle" x="42.5" y="-240.1" font-family="Times New Roman,serif" font-size="8.00">Properties</text>
<polyline fill="none" stroke="black" points="69,-202 69,-282 "/>
<text text-anchor="start" x="77" y="-271.6" font-family="Times New Roman,serif" font-size="8.00">TypeOfNote : CodeValueType[0...1] </text>
<text text-anchor="start" x="77" y="-262.6" font-family="Times New Roman,serif" font-size="8.00">NoteSubject : CodeValueType[0...1] </text>
<text text-anchor="start" x="77" y="-253.6" font-family="Times New Roman,serif" font-size="8.00">Relationship : RelationshipType[0...n] </text>
<text text-anchor="start" x="77" y="-244.6" font-family="Times New Roman,serif" font-size="8.00">Responsibility : string[0...1] </text>
<text text-anchor="start" x="77" y="-235.6" font-family="Times New Roman,serif" font-size="8.00">Header : InternationalStringType[0...1] </text>
<text text-anchor="start" x="77" y="-226.6" font-family="Times New Roman,serif" font-size="8.00">NoteContent : StructuredStringType[0...1] </text>
<text text-anchor="start" x="77" y="-217.6" font-family="Times New Roman,serif" font-size="8.00">ProprietaryInfo : ProprietaryInfoType[0...1] </text>
<text text-anchor="start" x="77" y="-208.6" font-family="Times New Roman,serif" font-size="8.00">Lang : language[0...1] </text>
</g>
<!-- NoteTypeCodeValueType -->
<g id="ReusableTypeNoteTypeCodeValueType" class="node"><title></title><polygon fill="#fc4a1a" stroke="black" points="812,-134.5 812,-205.5 1071,-205.5 1071,-134.5 812,-134.5" style="filter: url(#dropshadow)"/>
<text text-anchor="middle" x="847.5" y="-168.1" font-family="Times New Roman,serif" font-size="8.00">CodeValueType</text>
<polyline fill="none" stroke="black" points="883,-134.5 883,-205.5 "/>
<text text-anchor="start" x="891" y="-195.1" font-family="Times New Roman,serif" font-size="8.00">ControlledVocabularyID : string[0...1] </text>
<text text-anchor="start" x="891" y="-186.1" font-family="Times New Roman,serif" font-size="8.00">ControlledVocabularyName : string[0...1] </text>
<text text-anchor="start" x="891" y="-177.1" font-family="Times New Roman,serif" font-size="8.00">ControlledVocabularyAgencyName : string[0...1] </text>
<text text-anchor="start" x="891" y="-168.1" font-family="Times New Roman,serif" font-size="8.00">ControlledVocabularyVersionID : string[0...1] </text>
<text text-anchor="start" x="891" y="-159.1" font-family="Times New Roman,serif" font-size="8.00">OtherValue : string[0...1] </text>
<text text-anchor="start" x="891" y="-150.1" font-family="Times New Roman,serif" font-size="8.00">ControlledVocabularyURN : string[0...1] </text>
<text text-anchor="start" x="891" y="-141.1" font-family="Times New Roman,serif" font-size="8.00">ControlledVocabularySchemeURN : string[0...1] </text>
</g>
<!-- NoteTypeProperties&#45;&gt;NoteTypeCodeValueType -->
<g id="edge1" class="edge"><title>NoteTypeProperties&#45;&gt;NoteTypeCodeValueType</title>
<path fill="none" stroke="black" d="M246.013,-219.141C275.834,-213.97 308.026,-209.097 338,-206 539.703,-185.162 592.002,-208.746 794,-191 799.887,-190.483 805.899,-189.889 811.965,-189.237"/>
<text text-anchor="middle" x="496.5" y="-208.6" font-family="Times New Roman,serif" font-size="8.00">TypeOfNote</text>
</g>
<!-- NoteTypeRelationshipType -->
<g id="ReusableTypeNoteTypeRelationshipType" class="node"><title></title><polygon fill="#fc4a1a" stroke="black" points="338,-106.5 338,-159.5 655,-159.5 655,-106.5 338,-106.5" style="filter: url(#dropshadow)"/>
<text text-anchor="middle" x="377.5" y="-131.1" font-family="Times New Roman,serif" font-size="8.00">RelationshipType</text>
<polyline fill="none" stroke="black" points="417,-106.5 417,-159.5 "/>
<text text-anchor="start" x="425" y="-149.1" font-family="Times New Roman,serif" font-size="8.00">RelatedToReference_IdentifiableType : IdentifiableType[0...1] </text>
<text text-anchor="start" x="425" y="-140.1" font-family="Times New Roman,serif" font-size="8.00">RelatedToReference_Versionable : Versionable[0...1] </text>
<text text-anchor="start" x="425" y="-131.1" font-family="Times New Roman,serif" font-size="8.00">RelatedToReference_Maintainable : Maintainable[0...1] </text>
<text text-anchor="start" x="425" y="-122.1" font-family="Times New Roman,serif" font-size="8.00">RelationshipDescription : StructuredStringType[0...1] </text>
<text text-anchor="start" x="425" y="-113.1" font-family="Times New Roman,serif" font-size="8.00">TypeOfRelationship : CodeValueType[0...1] </text>
</g>
<!-- NoteTypeProperties&#45;&gt;NoteTypeRelationshipType -->
<g id="edge2" class="edge"><title>NoteTypeProperties&#45;&gt;NoteTypeRelationshipType</title>
<path fill="none" stroke="black" d="M212.925,-201.875C229.556,-194.582 247.141,-187.542 264,-182 290.245,-173.372 318.677,-165.896 346.336,-159.562"/>
<text text-anchor="middle" x="292" y="-184.6" font-family="Times New Roman,serif" font-size="8.00">Relationship</text>
</g>
<!-- NoteTypeInternationalStringType -->
<g id="ReusableTypeNoteTypeInternationalStringType" class="node"><title></title><polygon fill="#fc4a1a" stroke="black" points="392.5,-224 392.5,-260 600.5,-260 600.5,-224 392.5,-224" style="filter: url(#dropshadow)"/>
<text text-anchor="middle" x="443" y="-240.1" font-family="Times New Roman,serif" font-size="8.00">InternationalStringType</text>
<polyline fill="none" stroke="black" points="493.5,-224 493.5,-260 "/>
<text text-anchor="start" x="501.5" y="-240.1" font-family="Times New Roman,serif" font-size="8.00">String : StringType[0...n] </text>
</g>
<!-- NoteTypeProperties&#45;&gt;NoteTypeInternationalStringType -->
<g id="edge3" class="edge"><title>NoteTypeProperties&#45;&gt;NoteTypeInternationalStringType</title>
<path fill="none" stroke="black" d="M246.016,-242C292.863,-242 346.716,-242 392.37,-242"/>
<text text-anchor="middle" x="292" y="-244.6" font-family="Times New Roman,serif" font-size="8.00">Header</text>
</g>
<!-- NoteTypeStructuredStringType -->
<g id="ReusableTypeNoteTypeStructuredStringType" class="node"><title></title><polygon fill="#fc4a1a" stroke="black" points="835,-252 835,-288 1048,-288 1048,-252 835,-252" style="filter: url(#dropshadow)"/>
<text text-anchor="middle" x="880" y="-268.1" font-family="Times New Roman,serif" font-size="8.00">StructuredStringType</text>
<polyline fill="none" stroke="black" points="925,-252 925,-288 "/>
<text text-anchor="start" x="933" y="-268.1" font-family="Times New Roman,serif" font-size="8.00">Content : ContentType[0...n] </text>
</g>
<!-- NoteTypeProperties&#45;&gt;NoteTypeStructuredStringType -->
<g id="edge4" class="edge"><title>NoteTypeProperties&#45;&gt;NoteTypeStructuredStringType</title>
<path fill="none" stroke="black" d="M246.13,-260.308C275.949,-264.324 308.111,-267.978 338,-270 511.763,-281.755 714.361,-278.219 834.782,-274.31"/>
<text text-anchor="middle" x="496.5" y="-280.6" font-family="Times New Roman,serif" font-size="8.00">NoteContent</text>
</g>
<!-- NoteTypeProprietaryInfoType -->
<g id="ReusableTypeNoteTypeProprietaryInfoType" class="node"><title></title><polygon fill="#fc4a1a" stroke="black" points="343.5,-325 343.5,-361 649.5,-361 649.5,-325 343.5,-325" style="filter: url(#dropshadow)"/>
<text text-anchor="middle" x="389" y="-341.1" font-family="Times New Roman,serif" font-size="8.00">ProprietaryInfoType</text>
<polyline fill="none" stroke="black" points="434.5,-325 434.5,-361 "/>
<text text-anchor="start" x="442.5" y="-341.1" font-family="Times New Roman,serif" font-size="8.00">ProprietaryProperty : StandardKeyValuePairType[0...n] </text>
</g>
<!-- NoteTypeProperties&#45;&gt;NoteTypeProprietaryInfoType -->
<g id="edge5" class="edge"><title>NoteTypeProperties&#45;&gt;NoteTypeProprietaryInfoType</title>
<path fill="none" stroke="black" d="M211.722,-282.105C228.676,-289.531 246.69,-296.627 264,-302 294.698,-311.528 328.416,-319.074 360.391,-324.956"/>
<text text-anchor="middle" x="292" y="-317.6" font-family="Times New Roman,serif" font-size="8.00">ProprietaryInfo</text>
</g>
<!-- NoteTypeRelationshipType&#45;&gt;NoteTypeCodeValueType -->
<g id="edge9" class="edge"><title>NoteTypeRelationshipType&#45;&gt;NoteTypeCodeValueType</title>
<path fill="none" stroke="black" d="M655.163,-133.147C700.118,-134.445 749.08,-137.057 794,-142 799.791,-142.637 805.696,-143.379 811.65,-144.201"/>
<text text-anchor="middle" x="733.5" y="-144.6" font-family="Times New Roman,serif" font-size="8.00">TypeOfRelationship</text>
<text text-anchor="middle" x="803.65" y="-137.801" font-family="Times New Roman,serif" font-size="8.00">0...*</text>
<text text-anchor="middle" x="663.163" y="-126.747" font-family="Times New Roman,serif" font-size="8.00">0...*</text>
</g>
<!-- NoteTypeRelationshipType&#45;&gt;NoteTypeStructuredStringType -->
<g id="edge8" class="edge"><title>NoteTypeRelationshipType&#45;&gt;NoteTypeStructuredStringType</title>
<path fill="none" stroke="black" d="M603.682,-159.561C620.893,-164.176 638.482,-169.079 655,-174 738.194,-198.783 833.54,-231.79 890.298,-251.936"/>
<text text-anchor="middle" x="733.5" y="-218.6" font-family="Times New Roman,serif" font-size="8.00">RelationshipDescription</text>
<text text-anchor="middle" x="882.298" y="-245.536" font-family="Times New Roman,serif" font-size="8.00">0...*</text>
<text text-anchor="middle" x="595.682" y="-162.161" font-family="Times New Roman,serif" font-size="8.00">0...*</text>
</g>
<!-- Versionable -->
<g id="ItemTypeVersionable" class="node"><title></title><ellipse fill="#f7b733" stroke="black" cx="941.5" cy="-72" rx="31.5313" ry="18" style="filter: url(#dropshadow)"/>
<text text-anchor="middle" x="941.5" y="-70.1" font-family="Times New Roman,serif" font-size="8.00">Versionable</text>
</g>
<!-- NoteTypeRelationshipType&#45;&gt;Versionable -->
<g id="edge6" class="edge"><title>NoteTypeRelationshipType&#45;&gt;Versionable</title>
<path fill="none" stroke="black" d="M655.245,-111.279C748.465,-98.4427 858.155,-83.3387 910.182,-76.1747"/>
<text text-anchor="middle" x="733.5" y="-110.6" font-family="Times New Roman,serif" font-size="8.00">RelatedToReference_Versionable</text>
<text text-anchor="middle" x="902.182" y="-69.7747" font-family="Times New Roman,serif" font-size="8.00">0...*</text>
<text text-anchor="middle" x="663.245" y="-104.879" font-family="Times New Roman,serif" font-size="8.00">0...*</text>
</g>
<!-- Maintainable -->
<g id="ItemTypeMaintainable" class="node"><title></title><ellipse fill="#f7b733" stroke="black" cx="941.5" cy="-18" rx="35.3371" ry="18" style="filter: url(#dropshadow)"/>
<text text-anchor="middle" x="941.5" y="-16.1" font-family="Times New Roman,serif" font-size="8.00">Maintainable</text>
</g>
<!-- NoteTypeRelationshipType&#45;&gt;Maintainable -->
<g id="edge7" class="edge"><title>NoteTypeRelationshipType&#45;&gt;Maintainable</title>
<path fill="none" stroke="black" d="M584.812,-106.482C612.909,-98.122 644.217,-88.9889 673,-81 734.491,-63.9327 749.868,-59.5651 812,-45 844.737,-37.3258 882.408,-29.5316 908.46,-24.3033"/>
<text text-anchor="middle" x="733.5" y="-83.6" font-family="Times New Roman,serif" font-size="8.00">RelatedToReference_Maintainable</text>
<text text-anchor="middle" x="900.46" y="-17.9033" font-family="Times New Roman,serif" font-size="8.00">0...*</text>
<text text-anchor="middle" x="576.812" y="-100.082" font-family="Times New Roman,serif" font-size="8.00">0...*</text>
</g>
</g>
</svg>
