<?xml version="1.0" encoding="UTF-8" standalone="no"?>
<!DOCTYPE svg PUBLIC "-//W3C//DTD SVG 1.1//EN"
 "http://www.w3.org/Graphics/SVG/1.1/DTD/svg11.dtd">
<!-- Generated by graphviz version 2.38.0 (20140413.2041)
 -->
<!-- Title: G Pages: 1 -->
<svg width="1284pt" height="606pt"
 viewBox="0.00 0.00 1283.58 606.00" xmlns="http://www.w3.org/2000/svg" xmlns:xlink="http://www.w3.org/1999/xlink">
<filter id = "dropshadow" height = "130%" ><feGaussianBlur in= "SourceAlpha" stdDeviation = "3"/><!--stdDeviation is how much to blur--><feOffset dx = "2" dy = "2" result = "offsetblur"/><!--how much to offset--><feMerge><feMergeNode/><!--this contains the offset blurred image--><feMergeNode in= "SourceGraphic"/><!--this contains the element that the filter is applied to --></feMerge></filter>
<g id="graph0" class="graph" transform="scale(1 1) rotate(0) translate(4 602)">
<title>G</title>
<g id="clust1" class="cluster"><title>clusterSampleFrame</title>
<polygon fill="#4abdac" stroke="black" points="249.58,-150 249.58,-590 1267.58,-590 1267.58,-150 249.58,-150" style="filter: url(#dropshadow)"/>
<text text-anchor="middle" x="758.58" y="-579.6" font-family="Times New Roman,serif" font-size="8.00">SampleFrame</text>
</g>
<!-- SampleFrameProperties -->
<g id="ItemTypeSampleFrameProperties" class="node"><title></title><polygon fill="#f7b733" stroke="black" points="257.58,-203.5 257.58,-328.5 506.58,-328.5 506.58,-203.5 257.58,-203.5" style="filter: url(#dropshadow)"/>
<text text-anchor="middle" x="284.08" y="-264.1" font-family="Times New Roman,serif" font-size="8.00">Properties</text>
<polyline fill="none" stroke="black" points="310.58,-203.5 310.58,-328.5 "/>
<text text-anchor="start" x="318.58" y="-318.1" font-family="Times New Roman,serif" font-size="8.00">SampleFrameName : NameType[0...n] </text>
<text text-anchor="start" x="318.58" y="-309.1" font-family="Times New Roman,serif" font-size="8.00">Label : LabelType[0...n] </text>
<text text-anchor="start" x="318.58" y="-300.1" font-family="Times New Roman,serif" font-size="8.00">Description : StructuredStringType[0...1] </text>
<text text-anchor="start" x="318.58" y="-291.1" font-family="Times New Roman,serif" font-size="8.00">ValidPeriod : DateType[0...1] </text>
<text text-anchor="start" x="318.58" y="-282.1" font-family="Times New Roman,serif" font-size="8.00">CustodianReference : Agent[0...1] </text>
<text text-anchor="start" x="318.58" y="-273.1" font-family="Times New Roman,serif" font-size="8.00">SampleFrameAccess : AccessType[0...1] </text>
<text text-anchor="start" x="318.58" y="-264.1" font-family="Times New Roman,serif" font-size="8.00">UniverseReference : Universe[0...n] </text>
<text text-anchor="start" x="318.58" y="-255.1" font-family="Times New Roman,serif" font-size="8.00">UnitsOfFrame : PopulationSizeType[0...1] </text>
<text text-anchor="start" x="318.58" y="-246.1" font-family="Times New Roman,serif" font-size="8.00">FrameLimitations : StructuredStringType[0...1] </text>
<text text-anchor="start" x="318.58" y="-237.1" font-family="Times New Roman,serif" font-size="8.00">AuxiliaryInformation : StructuredStringType[0...1] </text>
<text text-anchor="start" x="318.58" y="-228.1" font-family="Times New Roman,serif" font-size="8.00">ReferencePeriod : DateType[0...1] </text>
<text text-anchor="start" x="318.58" y="-219.1" font-family="Times New Roman,serif" font-size="8.00">UpdateProcedure : StructuredStringType[0...1] </text>
<text text-anchor="start" x="318.58" y="-210.1" font-family="Times New Roman,serif" font-size="8.00">SourceFrameReference : SampleFrame[0...n] </text>
</g>
<!-- SampleFrameProperties&#45;&gt;SampleFrameProperties -->
<g id="edge21" class="edge"><title>SampleFrameProperties&#45;&gt;SampleFrameProperties</title>
<path fill="none" stroke="black" d="M350.223,-328.83C354.576,-339.564 365.195,-347 382.08,-347 398.965,-347 409.584,-339.564 413.937,-328.83"/>
<text text-anchor="middle" x="382.08" y="-349.6" font-family="Times New Roman,serif" font-size="8.00">SourceFrameReference</text>
<text text-anchor="middle" x="405.937" y="-331.43" font-family="Times New Roman,serif" font-size="8.00">0...*</text>
<text text-anchor="middle" x="342.223" y="-331.43" font-family="Times New Roman,serif" font-size="8.00">0...*</text>
</g>
<!-- SampleFrameNameType -->
<g id="ReusableTypeSampleFrameNameType" class="node"><title></title><polygon fill="#fc4a1a" stroke="black" points="1068.58,-171 1068.58,-207 1237.58,-207 1237.58,-171 1068.58,-171" style="filter: url(#dropshadow)"/>
<text text-anchor="middle" x="1096.58" y="-187.1" font-family="Times New Roman,serif" font-size="8.00">NameType</text>
<polyline fill="none" stroke="black" points="1124.58,-171 1124.58,-207 "/>
<text text-anchor="start" x="1132.58" y="-191.6" font-family="Times New Roman,serif" font-size="8.00">IsPreferred : boolean[0...1] </text>
<text text-anchor="start" x="1132.58" y="-182.6" font-family="Times New Roman,serif" font-size="8.00">Context : string[0...1] </text>
</g>
<!-- SampleFrameProperties&#45;&gt;SampleFrameNameType -->
<g id="edge1" class="edge"><title>SampleFrameProperties&#45;&gt;SampleFrameNameType</title>
<path fill="none" stroke="black" d="M506.739,-215.448C543.111,-202.934 583.397,-191.307 621.58,-185 777.653,-159.22 963.088,-169.832 1068.24,-179.609"/>
<text text-anchor="middle" x="762.08" y="-187.6" font-family="Times New Roman,serif" font-size="8.00">SampleFrameName</text>
</g>
<!-- SampleFrameLabelType -->
<g id="ReusableTypeSampleFrameLabelType" class="node"><title></title><polygon fill="#fc4a1a" stroke="black" points="1047.58,-459.5 1047.58,-512.5 1258.58,-512.5 1258.58,-459.5 1047.58,-459.5" style="filter: url(#dropshadow)"/>
<text text-anchor="middle" x="1074.58" y="-484.1" font-family="Times New Roman,serif" font-size="8.00">LabelType</text>
<polyline fill="none" stroke="black" points="1101.58,-459.5 1101.58,-512.5 "/>
<text text-anchor="start" x="1109.58" y="-502.1" font-family="Times New Roman,serif" font-size="8.00">TypeOfLabel : CodeValueType[0...1] </text>
<text text-anchor="start" x="1109.58" y="-493.1" font-family="Times New Roman,serif" font-size="8.00">LocationVariant : string[0...1] </text>
<text text-anchor="start" x="1109.58" y="-484.1" font-family="Times New Roman,serif" font-size="8.00">ValidForStartDate : cogsDate[0...1] </text>
<text text-anchor="start" x="1109.58" y="-475.1" font-family="Times New Roman,serif" font-size="8.00">ValidForEndDate : cogsDate[0...1] </text>
<text text-anchor="start" x="1109.58" y="-466.1" font-family="Times New Roman,serif" font-size="8.00">MaxLength : nonNegativeInteger[0...1] </text>
</g>
<!-- SampleFrameProperties&#45;&gt;SampleFrameLabelType -->
<g id="edge2" class="edge"><title>SampleFrameProperties&#45;&gt;SampleFrameLabelType</title>
<path fill="none" stroke="black" d="M430.888,-328.717C474.161,-379.548 543.023,-446.872 621.58,-473 763.31,-520.139 938.292,-512.785 1047.57,-501.054"/>
<text text-anchor="middle" x="762.08" y="-511.6" font-family="Times New Roman,serif" font-size="8.00">Label</text>
</g>
<!-- SampleFrameStructuredStringType -->
<g id="ReusableTypeSampleFrameStructuredStringType" class="node"><title></title><polygon fill="#fc4a1a" stroke="black" points="1046.58,-324 1046.58,-360 1259.58,-360 1259.58,-324 1046.58,-324" style="filter: url(#dropshadow)"/>
<text text-anchor="middle" x="1091.58" y="-340.1" font-family="Times New Roman,serif" font-size="8.00">StructuredStringType</text>
<polyline fill="none" stroke="black" points="1136.58,-324 1136.58,-360 "/>
<text text-anchor="start" x="1144.58" y="-340.1" font-family="Times New Roman,serif" font-size="8.00">Content : ContentType[0...n] </text>
</g>
<!-- SampleFrameProperties&#45;&gt;SampleFrameStructuredStringType -->
<g id="edge3" class="edge"><title>SampleFrameProperties&#45;&gt;SampleFrameStructuredStringType</title>
<path fill="none" stroke="black" d="M506.775,-307.591C543.411,-318.751 583.828,-329.942 621.58,-338 683.148,-351.142 854.275,-333.628 902.58,-374 922.965,-391.037 899.152,-415.296 920.58,-431 939.938,-445.187 1005.74,-438.372 1028.58,-431 1071.59,-417.118 1112.24,-382.071 1134.5,-360.328"/>
<text text-anchor="middle" x="762.08" y="-376.6" font-family="Times New Roman,serif" font-size="8.00">Description</text>
</g>
<!-- SampleFrameDateType -->
<g id="ReusableTypeSampleFrameDateType" class="node"><title></title><polygon fill="#fc4a1a" stroke="black" points="644.58,-392.5 644.58,-463.5 879.58,-463.5 879.58,-392.5 644.58,-392.5" style="filter: url(#dropshadow)"/>
<text text-anchor="middle" x="670.58" y="-426.1" font-family="Times New Roman,serif" font-size="8.00">DateType</text>
<polyline fill="none" stroke="black" points="696.58,-392.5 696.58,-463.5 "/>
<text text-anchor="start" x="704.58" y="-453.1" font-family="Times New Roman,serif" font-size="8.00">SimpleDate : cogsDate[0...1] </text>
<text text-anchor="start" x="704.58" y="-444.1" font-family="Times New Roman,serif" font-size="8.00">HistoricalDate : HistoricalDateType[0...1] </text>
<text text-anchor="start" x="704.58" y="-435.1" font-family="Times New Roman,serif" font-size="8.00">StartDate : cogsDate[0...1] </text>
<text text-anchor="start" x="704.58" y="-426.1" font-family="Times New Roman,serif" font-size="8.00">HistoricalStartDate : HistoricalDateType[0...1] </text>
<text text-anchor="start" x="704.58" y="-417.1" font-family="Times New Roman,serif" font-size="8.00">EndDate : cogsDate[0...1] </text>
<text text-anchor="start" x="704.58" y="-408.1" font-family="Times New Roman,serif" font-size="8.00">HistoricalEndDate : HistoricalDateType[0...1] </text>
<text text-anchor="start" x="704.58" y="-399.1" font-family="Times New Roman,serif" font-size="8.00">Cycle : int[0...1] </text>
</g>
<!-- SampleFrameProperties&#45;&gt;SampleFrameDateType -->
<g id="edge4" class="edge"><title>SampleFrameProperties&#45;&gt;SampleFrameDateType</title>
<path fill="none" stroke="black" d="M456.715,-328.532C477.616,-343.878 501.103,-359.029 524.58,-370 561.923,-387.451 605.126,-400.022 644.309,-408.899"/>
<text text-anchor="middle" x="564.08" y="-400.6" font-family="Times New Roman,serif" font-size="8.00">ValidPeriod</text>
</g>
<!-- Agent -->
<g id="ItemTypeAgent" class="node"><title></title><ellipse fill="#f7b733" stroke="black" cx="1153.08" cy="-124" rx="27" ry="18" style="filter: url(#dropshadow)"/>
<text text-anchor="middle" x="1153.08" y="-122.1" font-family="Times New Roman,serif" font-size="8.00">Agent</text>
</g>
<!-- SampleFrameProperties&#45;&gt;Agent -->
<g id="edge5" class="edge"><title>SampleFrameProperties&#45;&gt;Agent</title>
<path fill="none" stroke="black" d="M486.01,-203.491C498.782,-196.81 511.833,-190.468 524.58,-185 741.353,-92.0158 1037.83,-112.353 1126.21,-121.115"/>
<text text-anchor="middle" x="762.08" y="-154.6" font-family="Times New Roman,serif" font-size="8.00">CustodianReference</text>
<text text-anchor="middle" x="1118.21" y="-114.715" font-family="Times New Roman,serif" font-size="8.00">0...*</text>
<text text-anchor="middle" x="478.01" y="-197.091" font-family="Times New Roman,serif" font-size="8.00">0...*</text>
</g>
<!-- SampleFrameAccessType -->
<g id="ReusableTypeSampleFrameAccessType" class="node"><title></title><polygon fill="#fc4a1a" stroke="black" points="621.58,-203.5 621.58,-328.5 902.58,-328.5 902.58,-203.5 621.58,-203.5" style="filter: url(#dropshadow)"/>
<text text-anchor="middle" x="651.08" y="-264.1" font-family="Times New Roman,serif" font-size="8.00">AccessType</text>
<polyline fill="none" stroke="black" points="680.58,-203.5 680.58,-328.5 "/>
<text text-anchor="start" x="688.58" y="-318.1" font-family="Times New Roman,serif" font-size="8.00">TypeOfAccess : CodeValueType[0...1] </text>
<text text-anchor="start" x="688.58" y="-309.1" font-family="Times New Roman,serif" font-size="8.00">AccessTypeName : NameType[0...n] </text>
<text text-anchor="start" x="688.58" y="-300.1" font-family="Times New Roman,serif" font-size="8.00">Label : LabelType[0...n] </text>
<text text-anchor="start" x="688.58" y="-291.1" font-family="Times New Roman,serif" font-size="8.00">Description : StructuredStringType[0...1] </text>
<text text-anchor="start" x="688.58" y="-282.1" font-family="Times New Roman,serif" font-size="8.00">ConfidentialityStatement : StructuredStringType[0...1] </text>
<text text-anchor="start" x="688.58" y="-273.1" font-family="Times New Roman,serif" font-size="8.00">AccessPermission : FormType[0...n] </text>
<text text-anchor="start" x="688.58" y="-264.1" font-family="Times New Roman,serif" font-size="8.00">Restrictions : StructuredStringType[0...1] </text>
<text text-anchor="start" x="688.58" y="-255.1" font-family="Times New Roman,serif" font-size="8.00">CitationRequirement : StructuredStringType[0...1] </text>
<text text-anchor="start" x="688.58" y="-246.1" font-family="Times New Roman,serif" font-size="8.00">DepositRequirement : StructuredStringType[0...1] </text>
<text text-anchor="start" x="688.58" y="-237.1" font-family="Times New Roman,serif" font-size="8.00">AccessConditions : StructuredStringType[0...1] </text>
<text text-anchor="start" x="688.58" y="-228.1" font-family="Times New Roman,serif" font-size="8.00">Disclaimer : StructuredStringType[0...1] </text>
<text text-anchor="start" x="688.58" y="-219.1" font-family="Times New Roman,serif" font-size="8.00">AccessRestrictionDate : AccessRestrictionDateType[0...1] </text>
<text text-anchor="start" x="688.58" y="-210.1" font-family="Times New Roman,serif" font-size="8.00">ContactOrganizationReference : Agent[0...n] </text>
</g>
<!-- SampleFrameProperties&#45;&gt;SampleFrameAccessType -->
<g id="edge6" class="edge"><title>SampleFrameProperties&#45;&gt;SampleFrameAccessType</title>
<path fill="none" stroke="black" d="M506.59,-266C543.312,-266 583.798,-266 621.469,-266"/>
<text text-anchor="middle" x="564.08" y="-268.6" font-family="Times New Roman,serif" font-size="8.00">SampleFrameAccess</text>
<text text-anchor="middle" x="613.469" y="-259.6" font-family="Times New Roman,serif" font-size="8.00">0...*</text>
<text text-anchor="middle" x="514.59" y="-259.6" font-family="Times New Roman,serif" font-size="8.00">0...*</text>
</g>
<!-- Universe -->
<g id="ItemTypeUniverse" class="node"><title></title><ellipse fill="#f7b733" stroke="black" cx="762.08" cy="-72" rx="27" ry="18" style="filter: url(#dropshadow)"/>
<text text-anchor="middle" x="762.08" y="-70.1" font-family="Times New Roman,serif" font-size="8.00">Universe</text>
</g>
<!-- SampleFrameProperties&#45;&gt;Universe -->
<g id="edge7" class="edge"><title>SampleFrameProperties&#45;&gt;Universe</title>
<path fill="none" stroke="black" d="M420.986,-203.169C445.849,-167.734 481.668,-126.061 524.58,-103 593.521,-65.9516 689.573,-66.7106 735.128,-69.6456"/>
<text text-anchor="middle" x="564.08" y="-105.6" font-family="Times New Roman,serif" font-size="8.00">UniverseReference</text>
<text text-anchor="middle" x="727.128" y="-63.2456" font-family="Times New Roman,serif" font-size="8.00">0...*</text>
<text text-anchor="middle" x="412.986" y="-196.769" font-family="Times New Roman,serif" font-size="8.00">0...*</text>
</g>
<!-- SampleFramePopulationSizeType -->
<g id="ReusableTypeSampleFramePopulationSizeType" class="node"><title></title><polygon fill="#fc4a1a" stroke="black" points="642.08,-528 642.08,-564 882.08,-564 882.08,-528 642.08,-528" style="filter: url(#dropshadow)"/>
<text text-anchor="middle" x="685.58" y="-544.1" font-family="Times New Roman,serif" font-size="8.00">PopulationSizeType</text>
<polyline fill="none" stroke="black" points="729.08,-528 729.08,-564 "/>
<text text-anchor="start" x="737.08" y="-548.6" font-family="Times New Roman,serif" font-size="8.00">PrimaryPopulation : SizeType[0...1] </text>
<text text-anchor="start" x="737.08" y="-539.6" font-family="Times New Roman,serif" font-size="8.00">SecondaryPopulation : SizeType[0...n] </text>
</g>
<!-- SampleFrameProperties&#45;&gt;SampleFramePopulationSizeType -->
<g id="edge8" class="edge"><title>SampleFrameProperties&#45;&gt;SampleFramePopulationSizeType</title>
<path fill="none" stroke="black" d="M403.151,-328.698C424.29,-384.146 463.16,-462.623 524.58,-505 558.623,-528.488 601.817,-539.926 641.949,-545.127"/>
<text text-anchor="middle" x="564.08" y="-539.6" font-family="Times New Roman,serif" font-size="8.00">UnitsOfFrame</text>
<text text-anchor="middle" x="633.949" y="-538.727" font-family="Times New Roman,serif" font-size="8.00">0...*</text>
<text text-anchor="middle" x="395.151" y="-331.298" font-family="Times New Roman,serif" font-size="8.00">0...*</text>
</g>
<!-- SampleFrame -->
<g id="ItemTypeSampleFrame0" class="node"><title></title><ellipse fill="#f7b733" stroke="black" cx="762.08" cy="-18" rx="35.9723" ry="18" style="filter: url(#dropshadow)"/>
<text text-anchor="middle" x="762.08" y="-16.1" font-family="Times New Roman,serif" font-size="8.00">SampleFrame</text>
</g>
<!-- SampleFrameProperties&#45;&gt;SampleFrame -->
<g id="edge9" class="edge"><title>SampleFrameProperties&#45;&gt;SampleFrame</title>
<path fill="none" stroke="black" d="M411.372,-203.12C435.108,-157.67 473.368,-98.5797 524.58,-65 587.068,-24.0265 677.396,-17.3414 726.36,-17.0489"/>
<text text-anchor="middle" x="564.08" y="-67.6" font-family="Times New Roman,serif" font-size="8.00">SourceFrameReference</text>
<text text-anchor="middle" x="718.36" y="-10.6489" font-family="Times New Roman,serif" font-size="8.00">0...*</text>
<text text-anchor="middle" x="403.372" y="-196.72" font-family="Times New Roman,serif" font-size="8.00">0...*</text>
</g>
<!-- SampleFrameAccessType&#45;&gt;SampleFrameNameType -->
<g id="edge10" class="edge"><title>SampleFrameAccessType&#45;&gt;SampleFrameNameType</title>
<path fill="none" stroke="black" d="M902.846,-210.396C908.797,-208.779 914.724,-207.301 920.58,-206 968.87,-195.27 1024.08,-190.922 1068.46,-189.302"/>
<text text-anchor="middle" x="974.58" y="-208.6" font-family="Times New Roman,serif" font-size="8.00">AccessTypeName</text>
<text text-anchor="middle" x="1060.46" y="-182.902" font-family="Times New Roman,serif" font-size="8.00">0...*</text>
<text text-anchor="middle" x="910.846" y="-203.996" font-family="Times New Roman,serif" font-size="8.00">0...*</text>
</g>
<!-- SampleFrameAccessType&#45;&gt;SampleFrameLabelType -->
<g id="edge11" class="edge"><title>SampleFrameAccessType&#45;&gt;SampleFrameLabelType</title>
<path fill="none" stroke="black" d="M890.037,-328.509C894.592,-333.048 898.811,-337.874 902.58,-343 926.231,-375.16 892.8,-402.331 920.58,-431 953.28,-464.746 1002.63,-479.362 1047.37,-485.185"/>
<text text-anchor="middle" x="974.58" y="-484.6" font-family="Times New Roman,serif" font-size="8.00">Label</text>
<text text-anchor="middle" x="1039.37" y="-478.785" font-family="Times New Roman,serif" font-size="8.00">0...*</text>
<text text-anchor="middle" x="882.037" y="-331.109" font-family="Times New Roman,serif" font-size="8.00">0...*</text>
</g>
<!-- SampleFrameAccessType&#45;&gt;SampleFrameStructuredStringType -->
<g id="edge12" class="edge"><title>SampleFrameAccessType&#45;&gt;SampleFrameStructuredStringType</title>
<path fill="none" stroke="black" d="M889.078,-328.727C893.923,-333.215 898.461,-337.97 902.58,-343 919.412,-363.554 899.152,-384.296 920.58,-400 984.578,-446.903 1082.37,-391.179 1127.59,-360.123"/>
<text text-anchor="middle" x="974.58" y="-420.6" font-family="Times New Roman,serif" font-size="8.00">Description</text>
<text text-anchor="middle" x="1119.59" y="-362.723" font-family="Times New Roman,serif" font-size="8.00">0...*</text>
<text text-anchor="middle" x="897.078" y="-331.327" font-family="Times New Roman,serif" font-size="8.00">0...*</text>
</g>
<!-- SampleFrameAccessType&#45;&gt;SampleFrameStructuredStringType -->
<g id="edge13" class="edge"><title>SampleFrameAccessType&#45;&gt;SampleFrameStructuredStringType</title>
<path fill="none" stroke="black" d="M902.896,-222.198C944.355,-215.901 989.184,-215.897 1028.58,-231 1077.3,-249.678 1118.87,-297.432 1139.04,-323.81"/>
<text text-anchor="middle" x="974.58" y="-233.6" font-family="Times New Roman,serif" font-size="8.00">ConfidentialityStatement</text>
<text text-anchor="middle" x="1131.04" y="-317.41" font-family="Times New Roman,serif" font-size="8.00">0...*</text>
<text text-anchor="middle" x="910.896" y="-215.798" font-family="Times New Roman,serif" font-size="8.00">0...*</text>
</g>
<!-- SampleFrameAccessType&#45;&gt;SampleFrameStructuredStringType -->
<g id="edge14" class="edge"><title>SampleFrameAccessType&#45;&gt;SampleFrameStructuredStringType</title>
<path fill="none" stroke="black" d="M902.638,-249.169C943.877,-248.25 988.651,-251.322 1028.58,-263 1069.13,-274.861 1109.02,-304.557 1132.06,-323.971"/>
<text text-anchor="middle" x="974.58" y="-265.6" font-family="Times New Roman,serif" font-size="8.00">Restrictions</text>
<text text-anchor="middle" x="1140.06" y="-317.571" font-family="Times New Roman,serif" font-size="8.00">0...*</text>
<text text-anchor="middle" x="910.638" y="-242.769" font-family="Times New Roman,serif" font-size="8.00">0...*</text>
</g>
<!-- SampleFrameAccessType&#45;&gt;SampleFrameStructuredStringType -->
<g id="edge15" class="edge"><title>SampleFrameAccessType&#45;&gt;SampleFrameStructuredStringType</title>
<path fill="none" stroke="black" d="M902.716,-274.52C943.647,-278.822 988.233,-285.288 1028.58,-295 1057.35,-301.926 1088.49,-313.806 1112.3,-323.889"/>
<text text-anchor="middle" x="974.58" y="-297.6" font-family="Times New Roman,serif" font-size="8.00">CitationRequirement</text>
<text text-anchor="middle" x="1104.3" y="-317.489" font-family="Times New Roman,serif" font-size="8.00">0...*</text>
<text text-anchor="middle" x="910.716" y="-268.12" font-family="Times New Roman,serif" font-size="8.00">0...*</text>
</g>
<!-- SampleFrameAccessType&#45;&gt;SampleFrameStructuredStringType -->
<g id="edge16" class="edge"><title>SampleFrameAccessType&#45;&gt;SampleFrameStructuredStringType</title>
<path fill="none" stroke="black" d="M902.939,-300.312C908.891,-301.593 914.791,-302.828 920.58,-304 961.497,-312.282 1006.76,-320.024 1046.33,-326.331"/>
<text text-anchor="middle" x="974.58" y="-326.6" font-family="Times New Roman,serif" font-size="8.00">DepositRequirement</text>
<text text-anchor="middle" x="1038.33" y="-319.931" font-family="Times New Roman,serif" font-size="8.00">0...*</text>
<text text-anchor="middle" x="910.939" y="-293.912" font-family="Times New Roman,serif" font-size="8.00">0...*</text>
</g>
<!-- SampleFrameAccessType&#45;&gt;SampleFrameStructuredStringType -->
<g id="edge17" class="edge"><title>SampleFrameAccessType&#45;&gt;SampleFrameStructuredStringType</title>
<path fill="none" stroke="black" d="M893.684,-328.577C902.661,-331.465 911.678,-333.99 920.58,-336 961.072,-345.143 1006.56,-347.887 1046.42,-347.906"/>
<text text-anchor="middle" x="974.58" y="-350.6" font-family="Times New Roman,serif" font-size="8.00">AccessConditions</text>
<text text-anchor="middle" x="1038.42" y="-341.506" font-family="Times New Roman,serif" font-size="8.00">0...*</text>
<text text-anchor="middle" x="901.684" y="-322.177" font-family="Times New Roman,serif" font-size="8.00">0...*</text>
</g>
<!-- SampleFrameAccessType&#45;&gt;SampleFrameStructuredStringType -->
<g id="edge18" class="edge"><title>SampleFrameAccessType&#45;&gt;SampleFrameStructuredStringType</title>
<path fill="none" stroke="black" d="M882.134,-328.648C889.187,-333.297 896.058,-338.095 902.58,-343 911.622,-349.801 910.128,-356.67 920.58,-361 977.769,-384.688 1049.61,-373.138 1097.97,-360.091"/>
<text text-anchor="middle" x="974.58" y="-377.6" font-family="Times New Roman,serif" font-size="8.00">Disclaimer</text>
<text text-anchor="middle" x="1089.97" y="-362.691" font-family="Times New Roman,serif" font-size="8.00">0...*</text>
<text text-anchor="middle" x="874.134" y="-331.248" font-family="Times New Roman,serif" font-size="8.00">0...*</text>
</g>
<!-- SampleFrameAccessType&#45;&gt;Agent -->
<g id="edge19" class="edge"><title>SampleFrameAccessType&#45;&gt;Agent</title>
<path fill="none" stroke="black" d="M876.533,-203.411C885.348,-198.538 894.11,-193.69 902.58,-189 910.586,-184.567 912.087,-182.408 920.58,-179 974.304,-157.441 990.227,-159.246 1046.58,-146 1073.9,-139.578 1105.43,-133.129 1126.85,-128.889"/>
<text text-anchor="middle" x="974.58" y="-181.6" font-family="Times New Roman,serif" font-size="8.00">ContactOrganizationReference</text>
<text text-anchor="middle" x="1118.85" y="-131.489" font-family="Times New Roman,serif" font-size="8.00">0...*</text>
<text text-anchor="middle" x="868.533" y="-197.011" font-family="Times New Roman,serif" font-size="8.00">0...*</text>
</g>
<!-- PretestActivity -->
<g id="ItemTypePretestActivity1" class="node"><title></title><ellipse fill="#f7b733" stroke="black" cx="57.29" cy="-374" rx="40.0477" ry="18" style="filter: url(#dropshadow)"/>
<text text-anchor="middle" x="57.29" y="-372.1" font-family="Times New Roman,serif" font-size="8.00">PretestActivity</text>
</g>
<!-- PretestActivity&#45;&gt;SampleFrameProperties -->
<g id="edge20" class="edge"><title>PretestActivity&#45;&gt;SampleFrameProperties</title>
<path fill="none" stroke="black" d="M91.9409,-364.794C128.519,-354.597 188.576,-337.301 239.58,-320 242.963,-318.852 246.385,-317.675 249.834,-316.473"/>
<text text-anchor="middle" x="186.08" y="-355.6" font-family="Times New Roman,serif" font-size="8.00">SampleFrameReference</text>
<text text-anchor="middle" x="241.834" y="-310.073" font-family="Times New Roman,serif" font-size="8.00">0...*</text>
<text text-anchor="middle" x="99.9409" y="-358.394" font-family="Times New Roman,serif" font-size="8.00">0...*</text>
</g>
<!-- SampleFrameGroup -->
<g id="ItemTypeSampleFrameGroup2" class="node"><title></title><ellipse fill="#f7b733" stroke="black" cx="57.29" cy="-320" rx="47.7948" ry="18" style="filter: url(#dropshadow)"/>
<text text-anchor="middle" x="57.29" y="-318.1" font-family="Times New Roman,serif" font-size="8.00">SampleFrameGroup</text>
</g>
<!-- SampleFrameGroup&#45;&gt;SampleFrameProperties -->
<g id="edge22" class="edge"><title>SampleFrameGroup&#45;&gt;SampleFrameProperties</title>
<path fill="none" stroke="black" d="M101.154,-312.829C139.158,-306.472 196.702,-296.845 249.754,-287.97"/>
<text text-anchor="middle" x="186.08" y="-309.6" font-family="Times New Roman,serif" font-size="8.00">SampleFrameReference</text>
<text text-anchor="middle" x="241.754" y="-281.57" font-family="Times New Roman,serif" font-size="8.00">0...*</text>
<text text-anchor="middle" x="109.154" y="-306.429" font-family="Times New Roman,serif" font-size="8.00">0...*</text>
</g>
<!-- SampleFrameScheme -->
<g id="ItemTypeSampleFrameScheme3" class="node"><title></title><ellipse fill="#f7b733" stroke="black" cx="57.29" cy="-266" rx="50.4666" ry="18" style="filter: url(#dropshadow)"/>
<text text-anchor="middle" x="57.29" y="-264.1" font-family="Times New Roman,serif" font-size="8.00">SampleFrameScheme</text>
</g>
<!-- SampleFrameScheme&#45;&gt;SampleFrameProperties -->
<g id="edge23" class="edge"><title>SampleFrameScheme&#45;&gt;SampleFrameProperties</title>
<path fill="none" stroke="black" d="M108.019,-266C145.944,-266 200.004,-266 250.03,-266"/>
<text text-anchor="middle" x="186.08" y="-268.6" font-family="Times New Roman,serif" font-size="8.00">SampleFrameReference</text>
<text text-anchor="middle" x="242.03" y="-259.6" font-family="Times New Roman,serif" font-size="8.00">0...*</text>
<text text-anchor="middle" x="116.019" y="-259.6" font-family="Times New Roman,serif" font-size="8.00">0...*</text>
</g>
<!-- ApplicationDetailsType -->
<g id="ReusableTypeApplicationDetailsType4" class="node"><title></title><ellipse fill="#f7b733" stroke="black" cx="57.29" cy="-212" rx="57.0809" ry="18" style="filter: url(#dropshadow)"/>
<text text-anchor="middle" x="57.29" y="-210.1" font-family="Times New Roman,serif" font-size="8.00">ApplicationDetailsType</text>
</g>
<!-- ApplicationDetailsType&#45;&gt;SampleFrameProperties -->
<g id="edge24" class="edge"><title>ApplicationDetailsType&#45;&gt;SampleFrameProperties</title>
<path fill="none" stroke="black" d="M108.372,-220.378C146.263,-226.717 200.114,-235.726 249.967,-244.066"/>
<text text-anchor="middle" x="186.08" y="-245.6" font-family="Times New Roman,serif" font-size="8.00">SampleFrameReference</text>
<text text-anchor="middle" x="241.967" y="-237.666" font-family="Times New Roman,serif" font-size="8.00">0...*</text>
<text text-anchor="middle" x="116.372" y="-213.978" font-family="Times New Roman,serif" font-size="8.00">0...*</text>
</g>
<!-- StageType -->
<g id="ReusableTypeStageType5" class="node"><title></title><ellipse fill="#f7b733" stroke="black" cx="57.29" cy="-158" rx="30.1263" ry="18" style="filter: url(#dropshadow)"/>
<text text-anchor="middle" x="57.29" y="-156.1" font-family="Times New Roman,serif" font-size="8.00">StageType</text>
</g>
<!-- StageType&#45;&gt;SampleFrameProperties -->
<g id="edge25" class="edge"><title>StageType&#45;&gt;SampleFrameProperties</title>
<path fill="none" stroke="black" d="M84.8793,-165.49C120.363,-175.617 185.062,-194.541 239.58,-213 242.956,-214.143 246.372,-215.314 249.814,-216.507"/>
<text text-anchor="middle" x="186.08" y="-215.6" font-family="Times New Roman,serif" font-size="8.00">RecommendedFrameReference</text>
<text text-anchor="middle" x="241.814" y="-210.107" font-family="Times New Roman,serif" font-size="8.00">0...*</text>
<text text-anchor="middle" x="92.8793" y="-159.09" font-family="Times New Roman,serif" font-size="8.00">0...*</text>
</g>
</g>
</svg>
