<?xml version="1.0" encoding="UTF-8" standalone="no"?>
<!DOCTYPE svg PUBLIC "-//W3C//DTD SVG 1.1//EN"
 "http://www.w3.org/Graphics/SVG/1.1/DTD/svg11.dtd">
<!-- Generated by graphviz version 2.38.0 (20140413.2041)
 -->
<!-- Title: G Pages: 1 -->
<svg width="289pt" height="638pt"
 viewBox="0.00 0.00 289.06 638.00" xmlns="http://www.w3.org/2000/svg" xmlns:xlink="http://www.w3.org/1999/xlink">
<filter id = "dropshadow" height = "130%" ><feGaussianBlur in= "SourceAlpha" stdDeviation = "3"/><!--stdDeviation is how much to blur--><feOffset dx = "2" dy = "2" result = "offsetblur"/><!--how much to offset--><feMerge><feMergeNode/><!--this contains the offset blurred image--><feMergeNode in= "SourceGraphic"/><!--this contains the element that the filter is applied to --></feMerge></filter>
<g id="graph0" class="graph" transform="scale(1 1) rotate(0) translate(4 634)">
<title>G</title>
<!-- ValueType -->
<g id="ReusableTypeValueType" class="node"><title></title><polygon fill="#f7b733" stroke="black" points="208.059,-297 208.059,-333 281.059,-333 281.059,-297 208.059,-297" style="filter: url(#dropshadow)"/>
<text text-anchor="middle" x="235.059" y="-313.1" font-family="Times New Roman,serif" font-size="8.00">ValueType</text>
<polyline fill="none" stroke="black" points="262.059,-297 262.059,-333 "/>
<text text-anchor="middle" x="271.559" y="-313.1" font-family="Times New Roman,serif" font-size="8.00"> </text>
</g>
<!-- AttributeType -->
<g id="ReusableTypeAttributeType" class="node"><title></title><ellipse fill="#f7b733" stroke="black" cx="63.5296" cy="-612" rx="38.0086" ry="18" style="filter: url(#dropshadow)"/>
<text text-anchor="middle" x="63.5296" y="-610.1" font-family="Times New Roman,serif" font-size="8.00">AttributeType</text>
</g>
<!-- AttributeType&#45;&gt;ValueType -->
<g id="edge1" class="edge"><title>AttributeType&#45;&gt;ValueType</title>
<path fill="none" stroke="black" d="M94.7557,-601.61C124.369,-589.721 168.148,-567.218 190.059,-532 230.747,-466.603 240.503,-372.155 242.832,-333.027"/>
<text text-anchor="middle" x="167.559" y="-576.6" font-family="Times New Roman,serif" font-size="8.00">Value</text>
</g>
<!-- CategoryValueType -->
<g id="ReusableTypeCategoryValueType" class="node"><title></title><ellipse fill="#f7b733" stroke="black" cx="63.5296" cy="-558" rx="48.5642" ry="18" style="filter: url(#dropshadow)"/>
<text text-anchor="middle" x="63.5296" y="-556.1" font-family="Times New Roman,serif" font-size="8.00">CategoryValueType</text>
</g>
<!-- CategoryValueType&#45;&gt;ValueType -->
<g id="edge2" class="edge"><title>CategoryValueType&#45;&gt;ValueType</title>
<path fill="none" stroke="black" d="M98.6736,-545.356C127.671,-532.793 167.993,-510.654 190.059,-478 221.577,-431.359 235.717,-364.742 240.96,-333.066"/>
<text text-anchor="middle" x="167.559" y="-521.6" font-family="Times New Roman,serif" font-size="8.00">Value</text>
</g>
<!-- CodeType -->
<g id="ReusableTypeCodeType" class="node"><title></title><ellipse fill="#f7b733" stroke="black" cx="63.5296" cy="-504" rx="30.1263" ry="18" style="filter: url(#dropshadow)"/>
<text text-anchor="middle" x="63.5296" y="-502.1" font-family="Times New Roman,serif" font-size="8.00">CodeType</text>
</g>
<!-- CodeType&#45;&gt;ValueType -->
<g id="edge3" class="edge"><title>CodeType&#45;&gt;ValueType</title>
<path fill="none" stroke="black" d="M89.7089,-495.076C101.458,-490.43 115.391,-484.21 127.059,-477 158.186,-457.765 167.514,-452.82 190.059,-424 212.399,-395.442 228.871,-356.054 237.275,-333.281"/>
<text text-anchor="middle" x="167.559" y="-467.6" font-family="Times New Roman,serif" font-size="8.00">Value</text>
</g>
<!-- DimensionRankValueType -->
<g id="ReusableTypeDimensionRankValueType" class="node"><title></title><ellipse fill="#f7b733" stroke="black" cx="63.5296" cy="-450" rx="62.2904" ry="18" style="filter: url(#dropshadow)"/>
<text text-anchor="middle" x="63.5296" y="-448.1" font-family="Times New Roman,serif" font-size="8.00">DimensionRankValueType</text>
</g>
<!-- DimensionRankValueType&#45;&gt;ValueType -->
<g id="edge4" class="edge"><title>DimensionRankValueType&#45;&gt;ValueType</title>
<path fill="none" stroke="black" d="M101.964,-435.602C110.412,-431.872 119.2,-427.598 127.059,-423 157.442,-405.225 164.227,-398.913 190.059,-375 204.193,-361.916 218.635,-345.503 228.946,-333.152"/>
<text text-anchor="middle" x="167.559" y="-413.6" font-family="Times New Roman,serif" font-size="8.00">Value</text>
</g>
<!-- DomainSpecificValueType -->
<g id="ReusableTypeDomainSpecificValueType" class="node"><title></title><ellipse fill="#f7b733" stroke="black" cx="63.5296" cy="-396" rx="61.6562" ry="18" style="filter: url(#dropshadow)"/>
<text text-anchor="middle" x="63.5296" y="-394.1" font-family="Times New Roman,serif" font-size="8.00">DomainSpecificValueType</text>
</g>
<!-- DomainSpecificValueType&#45;&gt;ValueType -->
<g id="edge5" class="edge"><title>DomainSpecificValueType&#45;&gt;ValueType</title>
<path fill="none" stroke="black" d="M99.9562,-381.441C125.243,-370.884 159.964,-356.051 190.059,-342 196.092,-339.183 202.453,-336.087 208.6,-333.028"/>
<text text-anchor="middle" x="167.559" y="-364.6" font-family="Times New Roman,serif" font-size="8.00">Value</text>
</g>
<!-- FixedCellValueType -->
<g id="ReusableTypeFixedCellValueType" class="node"><title></title><ellipse fill="#f7b733" stroke="black" cx="63.5296" cy="-342" rx="48.5642" ry="18" style="filter: url(#dropshadow)"/>
<text text-anchor="middle" x="63.5296" y="-340.1" font-family="Times New Roman,serif" font-size="8.00">FixedCellValueType</text>
</g>
<!-- FixedCellValueType&#45;&gt;ValueType -->
<g id="edge6" class="edge"><title>FixedCellValueType&#45;&gt;ValueType</title>
<path fill="none" stroke="black" d="M109.244,-335.256C139.694,-330.664 179.461,-324.667 207.805,-320.392"/>
<text text-anchor="middle" x="167.559" y="-331.6" font-family="Times New Roman,serif" font-size="8.00">Value</text>
</g>
<!-- ItemValueType -->
<g id="ReusableTypeItemValueType" class="node"><title></title><ellipse fill="#f7b733" stroke="black" cx="63.5296" cy="-288" rx="40.0477" ry="18" style="filter: url(#dropshadow)"/>
<text text-anchor="middle" x="63.5296" y="-286.1" font-family="Times New Roman,serif" font-size="8.00">ItemValueType</text>
</g>
<!-- ItemValueType&#45;&gt;ValueType -->
<g id="edge7" class="edge"><title>ItemValueType&#45;&gt;ValueType</title>
<path fill="none" stroke="black" d="M102.06,-293.66C133.23,-298.361 177.27,-305.003 207.908,-309.623"/>
<text text-anchor="middle" x="167.559" y="-308.6" font-family="Times New Roman,serif" font-size="8.00">Value</text>
</g>
<!-- KeyVariableReferenceType -->
<g id="ReusableTypeKeyVariableReferenceType" class="node"><title></title><ellipse fill="#f7b733" stroke="black" cx="63.5296" cy="-234" rx="63.5591" ry="18" style="filter: url(#dropshadow)"/>
<text text-anchor="middle" x="63.5296" y="-232.1" font-family="Times New Roman,serif" font-size="8.00">KeyVariableReferenceType</text>
</g>
<!-- KeyVariableReferenceType&#45;&gt;ValueType -->
<g id="edge8" class="edge"><title>KeyVariableReferenceType&#45;&gt;ValueType</title>
<path fill="none" stroke="black" d="M101.135,-248.522C126.364,-258.757 160.535,-273.07 190.059,-287 196.601,-290.087 203.503,-293.543 210.096,-296.947"/>
<text text-anchor="middle" x="167.559" y="-289.6" font-family="Times New Roman,serif" font-size="8.00">Value</text>
</g>
<!-- ParameterType -->
<g id="ReusableTypeParameterType0" class="node"><title></title><ellipse fill="#f7b733" stroke="black" cx="63.5296" cy="-180" rx="40.0477" ry="18" style="filter: url(#dropshadow)"/>
<text text-anchor="middle" x="63.5296" y="-178.1" font-family="Times New Roman,serif" font-size="8.00">ParameterType</text>
</g>
<!-- ParameterType&#45;&gt;ValueType -->
<g id="edge9" class="edge"><title>ParameterType&#45;&gt;ValueType</title>
<path fill="none" stroke="black" d="M94.8031,-191.397C105.278,-195.774 116.925,-201.14 127.059,-207 157.3,-224.487 164.401,-230.293 190.059,-254 204.44,-267.287 218.977,-284.129 229.261,-296.748"/>
<text text-anchor="middle" x="167.559" y="-256.6" font-family="Times New Roman,serif" font-size="8.00">DefaultValue</text>
</g>
<!-- RecordType -->
<g id="ReusableTypeRecordType1" class="node"><title></title><ellipse fill="#f7b733" stroke="black" cx="63.5296" cy="-126" rx="33.433" ry="18" style="filter: url(#dropshadow)"/>
<text text-anchor="middle" x="63.5296" y="-124.1" font-family="Times New Roman,serif" font-size="8.00">RecordType</text>
</g>
<!-- RecordType&#45;&gt;ValueType -->
<g id="edge10" class="edge"><title>RecordType&#45;&gt;ValueType</title>
<path fill="none" stroke="black" d="M91.796,-135.884C103.058,-140.443 116.031,-146.328 127.059,-153 157.882,-171.647 167.697,-175.756 190.059,-204 213.032,-233.015 229.388,-273.506 237.579,-296.712"/>
<text text-anchor="middle" x="167.559" y="-206.6" font-family="Times New Roman,serif" font-size="8.00">Value</text>
</g>
<!-- UsedType -->
<g id="ReusableTypeUsedType2" class="node"><title></title><ellipse fill="#f7b733" stroke="black" cx="63.5296" cy="-72" rx="29.4917" ry="18" style="filter: url(#dropshadow)"/>
<text text-anchor="middle" x="63.5296" y="-70.1" font-family="Times New Roman,serif" font-size="8.00">UsedType</text>
</g>
<!-- UsedType&#45;&gt;ValueType -->
<g id="edge11" class="edge"><title>UsedType&#45;&gt;ValueType</title>
<path fill="none" stroke="black" d="M89.6798,-80.7096C118.699,-92.1268 165.558,-115.036 190.059,-151 221.929,-197.779 235.901,-264.876 241.032,-296.792"/>
<text text-anchor="middle" x="167.559" y="-153.6" font-family="Times New Roman,serif" font-size="8.00">DefaultValue</text>
</g>
<!-- VariableItemType -->
<g id="ReusableTypeVariableItemType3" class="node"><title></title><ellipse fill="#f7b733" stroke="black" cx="63.5296" cy="-18" rx="45.2568" ry="18" style="filter: url(#dropshadow)"/>
<text text-anchor="middle" x="63.5296" y="-16.1" font-family="Times New Roman,serif" font-size="8.00">VariableItemType</text>
</g>
<!-- VariableItemType&#45;&gt;ValueType -->
<g id="edge12" class="edge"><title>VariableItemType&#45;&gt;ValueType</title>
<path fill="none" stroke="black" d="M98.6459,-29.5013C128.043,-41.3183 168.974,-62.7347 190.059,-96 231.652,-161.619 240.909,-257.147 242.969,-296.749"/>
<text text-anchor="middle" x="167.559" y="-98.6" font-family="Times New Roman,serif" font-size="8.00">Value</text>
</g>
</g>
</svg>
