<?xml version="1.0" encoding="UTF-8" standalone="no"?>
<!DOCTYPE svg PUBLIC "-//W3C//DTD SVG 1.1//EN"
 "http://www.w3.org/Graphics/SVG/1.1/DTD/svg11.dtd">
<!-- Generated by graphviz version 2.38.0 (20140413.2041)
 -->
<!-- Title: G Pages: 1 -->
<svg width="1434pt" height="692pt"
 viewBox="0.00 0.00 1434.39 692.00" xmlns="http://www.w3.org/2000/svg" xmlns:xlink="http://www.w3.org/1999/xlink">
<filter id = "dropshadow" height = "130%" ><feGaussianBlur in= "SourceAlpha" stdDeviation = "3"/><!--stdDeviation is how much to blur--><feOffset dx = "2" dy = "2" result = "offsetblur"/><!--how much to offset--><feMerge><feMergeNode/><!--this contains the offset blurred image--><feMergeNode in= "SourceGraphic"/><!--this contains the element that the filter is applied to --></feMerge></filter>
<g id="graph0" class="graph" transform="scale(1 1) rotate(0) translate(4 688)">
<title>G</title>
<g id="clust1" class="cluster"><title>clusterIndividual</title>
<polygon fill="#4abdac" stroke="black" points="316.387,-107 316.387,-612 1418.39,-612 1418.39,-107 316.387,-107" style="filter: url(#dropshadow)"/>
<text text-anchor="middle" x="867.387" y="-601.6" font-family="Times New Roman,serif" font-size="8.00">Individual</text>
</g>
<!-- IndividualProperties -->
<g id="ItemTypeIndividualProperties" class="node"><title></title><polygon fill="#f7b733" stroke="black" points="324.387,-302 324.387,-382 605.387,-382 605.387,-302 324.387,-302" style="filter: url(#dropshadow)"/>
<text text-anchor="middle" x="350.887" y="-340.1" font-family="Times New Roman,serif" font-size="8.00">Properties</text>
<polyline fill="none" stroke="black" points="377.387,-302 377.387,-382 "/>
<text text-anchor="start" x="385.387" y="-371.6" font-family="Times New Roman,serif" font-size="8.00">IndividualIdentification : IndividualIdentificationType[0...1] </text>
<text text-anchor="start" x="385.387" y="-362.6" font-family="Times New Roman,serif" font-size="8.00">Description : StructuredStringType[0...1] </text>
<text text-anchor="start" x="385.387" y="-353.6" font-family="Times New Roman,serif" font-size="8.00">Keyword : InternationalCodeValueType[0...n] </text>
<text text-anchor="start" x="385.387" y="-344.6" font-family="Times New Roman,serif" font-size="8.00">RegionalCoverage : CodeValueType[0...n] </text>
<text text-anchor="start" x="385.387" y="-335.6" font-family="Times New Roman,serif" font-size="8.00">AdditionalInformation : AdditionalInformationType[0...n] </text>
<text text-anchor="start" x="385.387" y="-326.6" font-family="Times New Roman,serif" font-size="8.00">LanguageAbility : IndividualLanguageType[0...n] </text>
<text text-anchor="start" x="385.387" y="-317.6" font-family="Times New Roman,serif" font-size="8.00">ContactInformation : ContactInformationType[0...n] </text>
<text text-anchor="start" x="385.387" y="-308.6" font-family="Times New Roman,serif" font-size="8.00">Privacy : string[0...1] </text>
</g>
<!-- IndividualIndividualIdentificationType -->
<g id="ReusableTypeIndividualIndividualIdentificationType" class="node"><title></title><polygon fill="#fc4a1a" stroke="black" points="723.387,-116 723.387,-160 1096.39,-160 1096.39,-116 723.387,-116" style="filter: url(#dropshadow)"/>
<text text-anchor="middle" x="781.387" y="-136.1" font-family="Times New Roman,serif" font-size="8.00">IndividualIdentificationType</text>
<polyline fill="none" stroke="black" points="839.387,-116 839.387,-160 "/>
<text text-anchor="start" x="847.387" y="-149.6" font-family="Times New Roman,serif" font-size="8.00">IndividualName : IndividualNameType[0...n] </text>
<text text-anchor="start" x="847.387" y="-140.6" font-family="Times New Roman,serif" font-size="8.00">DDIMaintenanceAgencyID : DDIMaintenanceAgencyIDType[0...n] </text>
<text text-anchor="start" x="847.387" y="-131.6" font-family="Times New Roman,serif" font-size="8.00">ResearcherID : ResearcherIDType[0...n] </text>
<text text-anchor="start" x="847.387" y="-122.6" font-family="Times New Roman,serif" font-size="8.00">IndividualImage : PrivateImageType[0...n] </text>
</g>
<!-- IndividualProperties&#45;&gt;IndividualIndividualIdentificationType -->
<g id="edge1" class="edge"><title>IndividualProperties&#45;&gt;IndividualIndividualIdentificationType</title>
<path fill="none" stroke="black" d="M509.21,-301.62C557.341,-259.645 639.396,-196.333 723.387,-169 733.478,-165.716 743.996,-162.767 754.671,-160.119"/>
<text text-anchor="middle" x="664.387" y="-219.6" font-family="Times New Roman,serif" font-size="8.00">IndividualIdentification</text>
</g>
<!-- IndividualStructuredStringType -->
<g id="ReusableTypeIndividualStructuredStringType" class="node"><title></title><polygon fill="#fc4a1a" stroke="black" points="803.387,-179 803.387,-215 1016.39,-215 1016.39,-179 803.387,-179" style="filter: url(#dropshadow)"/>
<text text-anchor="middle" x="848.387" y="-195.1" font-family="Times New Roman,serif" font-size="8.00">StructuredStringType</text>
<polyline fill="none" stroke="black" points="893.387,-179 893.387,-215 "/>
<text text-anchor="start" x="901.387" y="-195.1" font-family="Times New Roman,serif" font-size="8.00">Content : ContentType[0...n] </text>
</g>
<!-- IndividualProperties&#45;&gt;IndividualStructuredStringType -->
<g id="edge2" class="edge"><title>IndividualProperties&#45;&gt;IndividualStructuredStringType</title>
<path fill="none" stroke="black" d="M539.546,-301.911C589.931,-276.163 659.007,-244.082 723.387,-225 748.837,-217.457 776.883,-211.879 803.293,-207.779"/>
<text text-anchor="middle" x="664.387" y="-262.6" font-family="Times New Roman,serif" font-size="8.00">Description</text>
</g>
<!-- IndividualInternationalCodeValueType -->
<g id="ReusableTypeIndividualInternationalCodeValueType" class="node"><title></title><polygon fill="#fc4a1a" stroke="black" points="779.387,-234.5 779.387,-305.5 1040.39,-305.5 1040.39,-234.5 779.387,-234.5" style="filter: url(#dropshadow)"/>
<text text-anchor="middle" x="837.887" y="-268.1" font-family="Times New Roman,serif" font-size="8.00">InternationalCodeValueType</text>
<polyline fill="none" stroke="black" points="896.387,-234.5 896.387,-305.5 "/>
<text text-anchor="start" x="904.387" y="-295.1" font-family="Times New Roman,serif" font-size="8.00">CodeListID : string[0...1] </text>
<text text-anchor="start" x="904.387" y="-286.1" font-family="Times New Roman,serif" font-size="8.00">CodeListName_string : string[0...1] </text>
<text text-anchor="start" x="904.387" y="-277.1" font-family="Times New Roman,serif" font-size="8.00">CodeListAgencyName : string[0...1] </text>
<text text-anchor="start" x="904.387" y="-268.1" font-family="Times New Roman,serif" font-size="8.00">CodeListVersionID : string[0...1] </text>
<text text-anchor="start" x="904.387" y="-259.1" font-family="Times New Roman,serif" font-size="8.00">OtherValue : string[0...1] </text>
<text text-anchor="start" x="904.387" y="-250.1" font-family="Times New Roman,serif" font-size="8.00">CodeListURN : string[0...1] </text>
<text text-anchor="start" x="904.387" y="-241.1" font-family="Times New Roman,serif" font-size="8.00">CodeListSchemeURN : string[0...1] </text>
</g>
<!-- IndividualProperties&#45;&gt;IndividualInternationalCodeValueType -->
<g id="edge3" class="edge"><title>IndividualProperties&#45;&gt;IndividualInternationalCodeValueType</title>
<path fill="none" stroke="black" d="M605.447,-319.318C660.989,-310.29 724.533,-299.963 779.072,-291.099"/>
<text text-anchor="middle" x="664.387" y="-317.6" font-family="Times New Roman,serif" font-size="8.00">Keyword</text>
</g>
<!-- IndividualCodeValueType -->
<g id="ReusableTypeIndividualCodeValueType" class="node"><title></title><polygon fill="#fc4a1a" stroke="black" points="1195.39,-416.5 1195.39,-487.5 1410.39,-487.5 1410.39,-416.5 1195.39,-416.5" style="filter: url(#dropshadow)"/>
<text text-anchor="middle" x="1230.89" y="-450.1" font-family="Times New Roman,serif" font-size="8.00">CodeValueType</text>
<polyline fill="none" stroke="black" points="1266.39,-416.5 1266.39,-487.5 "/>
<text text-anchor="start" x="1274.39" y="-477.1" font-family="Times New Roman,serif" font-size="8.00">CodeListID : string[0...1] </text>
<text text-anchor="start" x="1274.39" y="-468.1" font-family="Times New Roman,serif" font-size="8.00">CodeListName_string : string[0...1] </text>
<text text-anchor="start" x="1274.39" y="-459.1" font-family="Times New Roman,serif" font-size="8.00">CodeListAgencyName : string[0...1] </text>
<text text-anchor="start" x="1274.39" y="-450.1" font-family="Times New Roman,serif" font-size="8.00">CodeListVersionID : string[0...1] </text>
<text text-anchor="start" x="1274.39" y="-441.1" font-family="Times New Roman,serif" font-size="8.00">OtherValue : string[0...1] </text>
<text text-anchor="start" x="1274.39" y="-432.1" font-family="Times New Roman,serif" font-size="8.00">CodeListURN : string[0...1] </text>
<text text-anchor="start" x="1274.39" y="-423.1" font-family="Times New Roman,serif" font-size="8.00">CodeListSchemeURN : string[0...1] </text>
</g>
<!-- IndividualProperties&#45;&gt;IndividualCodeValueType -->
<g id="edge4" class="edge"><title>IndividualProperties&#45;&gt;IndividualCodeValueType</title>
<path fill="none" stroke="black" d="M605.683,-331.8C734.193,-325.298 929.498,-322.694 1096.39,-351 1152.83,-360.573 1210.79,-391.333 1250.71,-416.416"/>
<text text-anchor="middle" x="909.887" y="-353.6" font-family="Times New Roman,serif" font-size="8.00">RegionalCoverage</text>
</g>
<!-- IndividualAdditionalInformationType -->
<g id="ReusableTypeIndividualAdditionalInformationType" class="node"><title></title><polygon fill="#fc4a1a" stroke="black" points="784.387,-370 784.387,-406 1035.39,-406 1035.39,-370 784.387,-370" style="filter: url(#dropshadow)"/>
<text text-anchor="middle" x="841.387" y="-386.1" font-family="Times New Roman,serif" font-size="8.00">AdditionalInformationType</text>
<polyline fill="none" stroke="black" points="898.387,-370 898.387,-406 "/>
<text text-anchor="start" x="906.387" y="-390.6" font-family="Times New Roman,serif" font-size="8.00">EffectivePeriod : DateType[0...1] </text>
<text text-anchor="start" x="906.387" y="-381.6" font-family="Times New Roman,serif" font-size="8.00">Privacy : string[0...1] </text>
</g>
<!-- IndividualProperties&#45;&gt;IndividualAdditionalInformationType -->
<g id="edge5" class="edge"><title>IndividualProperties&#45;&gt;IndividualAdditionalInformationType</title>
<path fill="none" stroke="black" d="M605.447,-356.492C662.764,-362.443 728.603,-369.28 784.273,-375.06"/>
<text text-anchor="middle" x="664.387" y="-369.6" font-family="Times New Roman,serif" font-size="8.00">AdditionalInformation</text>
</g>
<!-- IndividualIndividualLanguageType -->
<g id="ReusableTypeIndividualIndividualLanguageType" class="node"><title></title><polygon fill="#fc4a1a" stroke="black" points="790.887,-425.5 790.887,-478.5 1028.89,-478.5 1028.89,-425.5 790.887,-425.5" style="filter: url(#dropshadow)"/>
<text text-anchor="middle" x="841.387" y="-450.1" font-family="Times New Roman,serif" font-size="8.00">IndividualLanguageType</text>
<polyline fill="none" stroke="black" points="891.887,-425.5 891.887,-478.5 "/>
<text text-anchor="start" x="899.887" y="-468.1" font-family="Times New Roman,serif" font-size="8.00">Language : CodeValueType[0...1] </text>
<text text-anchor="start" x="899.887" y="-459.1" font-family="Times New Roman,serif" font-size="8.00">Read : CodeValueType[0...1] </text>
<text text-anchor="start" x="899.887" y="-450.1" font-family="Times New Roman,serif" font-size="8.00">Write : CodeValueType[0...1] </text>
<text text-anchor="start" x="899.887" y="-441.1" font-family="Times New Roman,serif" font-size="8.00">Speak : CodeValueType[0...1] </text>
<text text-anchor="start" x="899.887" y="-432.1" font-family="Times New Roman,serif" font-size="8.00">EffectivePeriod : DateType[0...1] </text>
</g>
<!-- IndividualProperties&#45;&gt;IndividualIndividualLanguageType -->
<g id="edge6" class="edge"><title>IndividualProperties&#45;&gt;IndividualIndividualLanguageType</title>
<path fill="none" stroke="black" d="M599.335,-382.008C639.08,-393.333 682.845,-405.226 723.387,-415 745.096,-420.233 768.36,-425.297 790.821,-429.912"/>
<text text-anchor="middle" x="664.387" y="-412.6" font-family="Times New Roman,serif" font-size="8.00">LanguageAbility</text>
</g>
<!-- IndividualContactInformationType -->
<g id="ReusableTypeIndividualContactInformationType" class="node"><title></title><polygon fill="#fc4a1a" stroke="black" points="763.887,-497.5 763.887,-586.5 1055.89,-586.5 1055.89,-497.5 763.887,-497.5" style="filter: url(#dropshadow)"/>
<text text-anchor="middle" x="816.887" y="-540.1" font-family="Times New Roman,serif" font-size="8.00">ContactInformationType</text>
<polyline fill="none" stroke="black" points="869.887,-497.5 869.887,-586.5 "/>
<text text-anchor="start" x="877.887" y="-576.1" font-family="Times New Roman,serif" font-size="8.00">LocationName : LocationNameType[0...n] </text>
<text text-anchor="start" x="877.887" y="-567.1" font-family="Times New Roman,serif" font-size="8.00">Address : AddressType[0...n] </text>
<text text-anchor="start" x="877.887" y="-558.1" font-family="Times New Roman,serif" font-size="8.00">Telephone : TelephoneType[0...n] </text>
<text text-anchor="start" x="877.887" y="-549.1" font-family="Times New Roman,serif" font-size="8.00">URL : URLType[0...n] </text>
<text text-anchor="start" x="877.887" y="-540.1" font-family="Times New Roman,serif" font-size="8.00">Email : EmailType[0...n] </text>
<text text-anchor="start" x="877.887" y="-531.1" font-family="Times New Roman,serif" font-size="8.00">InstantMessaging : InstantMessagingType[0...n] </text>
<text text-anchor="start" x="877.887" y="-522.1" font-family="Times New Roman,serif" font-size="8.00">RegionalCoverage : CodeValueType[0...1] </text>
<text text-anchor="start" x="877.887" y="-513.1" font-family="Times New Roman,serif" font-size="8.00">TypeOfLocation : CodeValueType[0...1] </text>
<text text-anchor="start" x="877.887" y="-504.1" font-family="Times New Roman,serif" font-size="8.00">Privacy : string[0...1] </text>
</g>
<!-- IndividualProperties&#45;&gt;IndividualContactInformationType -->
<g id="edge7" class="edge"><title>IndividualProperties&#45;&gt;IndividualContactInformationType</title>
<path fill="none" stroke="black" d="M527.037,-382.071C577.949,-414.09 653.2,-458.364 723.387,-488 736.21,-493.415 749.751,-498.493 763.439,-503.201"/>
<text text-anchor="middle" x="664.387" y="-481.6" font-family="Times New Roman,serif" font-size="8.00">ContactInformation</text>
</g>
<!-- IndividualIndividualLanguageType&#45;&gt;IndividualCodeValueType -->
<g id="edge8" class="edge"><title>IndividualIndividualLanguageType&#45;&gt;IndividualCodeValueType</title>
<path fill="none" stroke="black" d="M1029.02,-442.483C1052.65,-436.822 1076.35,-428.159 1096.39,-415 1108.13,-407.285 1101.94,-395.523 1114.39,-389 1139.19,-376.005 1150.15,-382.501 1177.39,-389 1200.83,-394.594 1224.86,-405.357 1245.48,-416.425"/>
<text text-anchor="middle" x="1145.89" y="-391.6" font-family="Times New Roman,serif" font-size="8.00">Language</text>
</g>
<!-- IndividualIndividualLanguageType&#45;&gt;IndividualCodeValueType -->
<g id="edge9" class="edge"><title>IndividualIndividualLanguageType&#45;&gt;IndividualCodeValueType</title>
<path fill="none" stroke="black" d="M1029,-426.154C1075.29,-419.193 1128.84,-415.047 1177.39,-421 1183.25,-421.718 1189.23,-422.62 1195.24,-423.66"/>
<text text-anchor="middle" x="1145.89" y="-423.6" font-family="Times New Roman,serif" font-size="8.00">Read</text>
</g>
<!-- IndividualIndividualLanguageType&#45;&gt;IndividualCodeValueType -->
<g id="edge10" class="edge"><title>IndividualIndividualLanguageType&#45;&gt;IndividualCodeValueType</title>
<path fill="none" stroke="black" d="M1029,-452C1081.83,-452 1143.65,-452 1195.08,-452"/>
<text text-anchor="middle" x="1145.89" y="-454.6" font-family="Times New Roman,serif" font-size="8.00">Write</text>
</g>
<!-- IndividualIndividualLanguageType&#45;&gt;IndividualCodeValueType -->
<g id="edge11" class="edge"><title>IndividualIndividualLanguageType&#45;&gt;IndividualCodeValueType</title>
<path fill="none" stroke="black" d="M1028.96,-460.366C1075.25,-462.615 1128.81,-463.948 1177.39,-462 1183.24,-461.765 1189.24,-461.469 1195.29,-461.127"/>
<text text-anchor="middle" x="1145.89" y="-465.6" font-family="Times New Roman,serif" font-size="8.00">Speak</text>
</g>
<!-- IndividualContactInformationType&#45;&gt;IndividualCodeValueType -->
<g id="edge12" class="edge"><title>IndividualContactInformationType&#45;&gt;IndividualCodeValueType</title>
<path fill="none" stroke="black" d="M1055.93,-508.615C1102.11,-497.985 1152.32,-486.426 1195.27,-476.541"/>
<text text-anchor="middle" x="1145.89" y="-497.6" font-family="Times New Roman,serif" font-size="8.00">RegionalCoverage</text>
</g>
<!-- IndividualContactInformationType&#45;&gt;IndividualCodeValueType -->
<g id="edge13" class="edge"><title>IndividualContactInformationType&#45;&gt;IndividualCodeValueType</title>
<path fill="none" stroke="black" d="M1055.95,-531.376C1095.79,-526.336 1138.67,-518.916 1177.39,-508 1195.75,-502.823 1214.87,-495.365 1232.47,-487.571"/>
<text text-anchor="middle" x="1145.89" y="-524.6" font-family="Times New Roman,serif" font-size="8.00">TypeOfLocation</text>
</g>
<!-- OrganizationGroup -->
<g id="ItemTypeOrganizationGroup" class="node"><title></title><ellipse fill="#f7b733" stroke="black" cx="60.6934" cy="-666" rx="47.16" ry="18" style="filter: url(#dropshadow)"/>
<text text-anchor="middle" x="60.6934" y="-664.1" font-family="Times New Roman,serif" font-size="8.00">OrganizationGroup</text>
</g>
<!-- OrganizationGroup&#45;&gt;IndividualProperties -->
<g id="edge14" class="edge"><title>OrganizationGroup&#45;&gt;IndividualProperties</title>
<path fill="none" stroke="black" d="M107.131,-669.335C159.847,-670.87 247.096,-665.946 306.387,-624 311.816,-620.159 317.08,-616.069 322.183,-611.761"/>
<text text-anchor="middle" x="222.887" y="-671.6" font-family="Times New Roman,serif" font-size="8.00">IndividualReference</text>
</g>
<!-- OrganizationScheme -->
<g id="ItemTypeOrganizationScheme0" class="node"><title></title><ellipse fill="#f7b733" stroke="black" cx="60.6934" cy="-612" rx="49.8323" ry="18" style="filter: url(#dropshadow)"/>
<text text-anchor="middle" x="60.6934" y="-610.1" font-family="Times New Roman,serif" font-size="8.00">OrganizationScheme</text>
</g>
<!-- OrganizationScheme&#45;&gt;IndividualProperties -->
<g id="edge15" class="edge"><title>OrganizationScheme&#45;&gt;IndividualProperties</title>
<path fill="none" stroke="black" d="M110.69,-613.313C163.12,-612.455 246.777,-604.368 306.387,-566 309.929,-563.72 313.415,-561.329 316.844,-558.839"/>
<text text-anchor="middle" x="222.887" y="-613.6" font-family="Times New Roman,serif" font-size="8.00">IndividualReference</text>
</g>
<!-- AccessType -->
<g id="ReusableTypeAccessType1" class="node"><title></title><ellipse fill="#f7b733" stroke="black" cx="60.6934" cy="-558" rx="33.433" ry="18" style="filter: url(#dropshadow)"/>
<text text-anchor="middle" x="60.6934" y="-556.1" font-family="Times New Roman,serif" font-size="8.00">AccessType</text>
</g>
<!-- AccessType&#45;&gt;IndividualProperties -->
<g id="edge16" class="edge"><title>AccessType&#45;&gt;IndividualProperties</title>
<path fill="none" stroke="black" d="M94.3181,-557.463C143.339,-555.358 237.575,-546.185 306.387,-508 309.839,-506.084 313.26,-504.067 316.648,-501.96"/>
<text text-anchor="middle" x="222.887" y="-555.6" font-family="Times New Roman,serif" font-size="8.00">ContactOrganizationReference_Individual</text>
</g>
<!-- ArchiveSpecificType -->
<g id="ReusableTypeArchiveSpecificType2" class="node"><title></title><ellipse fill="#f7b733" stroke="black" cx="60.6934" cy="-504" rx="51.1011" ry="18" style="filter: url(#dropshadow)"/>
<text text-anchor="middle" x="60.6934" y="-502.1" font-family="Times New Roman,serif" font-size="8.00">ArchiveSpecificType</text>
</g>
<!-- ArchiveSpecificType&#45;&gt;IndividualProperties -->
<g id="edge17" class="edge"><title>ArchiveSpecificType&#45;&gt;IndividualProperties</title>
<path fill="none" stroke="black" d="M109.793,-498.608C160.37,-491.712 241.466,-477.133 306.387,-449 309.762,-447.537 313.142,-445.999 316.519,-444.396"/>
<text text-anchor="middle" x="222.887" y="-497.6" font-family="Times New Roman,serif" font-size="8.00">ArchiveOrganizationReference_Individual</text>
</g>
<!-- AuthorizationSourceType -->
<g id="ReusableTypeAuthorizationSourceType3" class="node"><title></title><ellipse fill="#f7b733" stroke="black" cx="60.6934" cy="-450" rx="60.8874" ry="18" style="filter: url(#dropshadow)"/>
<text text-anchor="middle" x="60.6934" y="-448.1" font-family="Times New Roman,serif" font-size="8.00">AuthorizationSourceType</text>
</g>
<!-- AuthorizationSourceType&#45;&gt;IndividualProperties -->
<g id="edge18" class="edge"><title>AuthorizationSourceType&#45;&gt;IndividualProperties</title>
<path fill="none" stroke="black" d="M113.735,-441.007C163.606,-431.904 240.773,-416.549 306.387,-398 309.762,-397.046 313.169,-396.057 316.599,-395.039"/>
<text text-anchor="middle" x="222.887" y="-438.6" font-family="Times New Roman,serif" font-size="8.00">AuthorizingAgencyReference_Individual</text>
</g>
<!-- CollectionEventType -->
<g id="ReusableTypeCollectionEventType4" class="node"><title></title><ellipse fill="#f7b733" stroke="black" cx="60.6934" cy="-396" rx="52.3706" ry="18" style="filter: url(#dropshadow)"/>
<text text-anchor="middle" x="60.6934" y="-394.1" font-family="Times New Roman,serif" font-size="8.00">CollectionEventType</text>
</g>
<!-- CollectionEventType&#45;&gt;IndividualProperties -->
<g id="edge19" class="edge"><title>CollectionEventType&#45;&gt;IndividualProperties</title>
<path fill="none" stroke="black" d="M109.808,-389.54C160.808,-382.692 243.891,-371.538 316.762,-361.754"/>
<text text-anchor="middle" x="222.887" y="-387.6" font-family="Times New Roman,serif" font-size="8.00">DataCollectorOrganizationReference_Individual</text>
</g>
<!-- ContributorType -->
<g id="ReusableTypeContributorType5" class="node"><title></title><ellipse fill="#f7b733" stroke="black" cx="60.6934" cy="-342" rx="43.219" ry="18" style="filter: url(#dropshadow)"/>
<text text-anchor="middle" x="60.6934" y="-340.1" font-family="Times New Roman,serif" font-size="8.00">ContributorType</text>
</g>
<!-- ContributorType&#45;&gt;IndividualProperties -->
<g id="edge20" class="edge"><title>ContributorType&#45;&gt;IndividualProperties</title>
<path fill="none" stroke="black" d="M103.975,-342C154.285,-342 241.007,-342 316.717,-342"/>
<text text-anchor="middle" x="222.887" y="-344.6" font-family="Times New Roman,serif" font-size="8.00">ContributorReference</text>
</g>
<!-- CreatorType -->
<g id="ReusableTypeCreatorType6" class="node"><title></title><ellipse fill="#f7b733" stroke="black" cx="60.6934" cy="-288" rx="35.3371" ry="18" style="filter: url(#dropshadow)"/>
<text text-anchor="middle" x="60.6934" y="-286.1" font-family="Times New Roman,serif" font-size="8.00">CreatorType</text>
</g>
<!-- CreatorType&#45;&gt;IndividualProperties -->
<g id="edge21" class="edge"><title>CreatorType&#45;&gt;IndividualProperties</title>
<path fill="none" stroke="black" d="M94.9488,-292.465C143.362,-298.965 236.255,-311.437 316.714,-322.24"/>
<text text-anchor="middle" x="222.887" y="-322.6" font-family="Times New Roman,serif" font-size="8.00">CreatorReference</text>
</g>
<!-- DataFileVersionType -->
<g id="ReusableTypeDataFileVersionType7" class="node"><title></title><ellipse fill="#f7b733" stroke="black" cx="60.6934" cy="-234" rx="51.7358" ry="18" style="filter: url(#dropshadow)"/>
<text text-anchor="middle" x="60.6934" y="-232.1" font-family="Times New Roman,serif" font-size="8.00">DataFileVersionType</text>
</g>
<!-- DataFileVersionType&#45;&gt;IndividualProperties -->
<g id="edge22" class="edge"><title>DataFileVersionType&#45;&gt;IndividualProperties</title>
<path fill="none" stroke="black" d="M107.202,-242.125C156.648,-251.354 237.773,-267.668 306.387,-287 309.832,-287.971 313.312,-288.976 316.815,-290.01"/>
<text text-anchor="middle" x="222.887" y="-289.6" font-family="Times New Roman,serif" font-size="8.00">VersionResponsibilityReference_Individual</text>
</g>
<!-- EvaluatorType -->
<g id="ReusableTypeEvaluatorType8" class="node"><title></title><ellipse fill="#f7b733" stroke="black" cx="60.6934" cy="-180" rx="39.278" ry="18" style="filter: url(#dropshadow)"/>
<text text-anchor="middle" x="60.6934" y="-178.1" font-family="Times New Roman,serif" font-size="8.00">EvaluatorType</text>
</g>
<!-- EvaluatorType&#45;&gt;IndividualProperties -->
<g id="edge23" class="edge"><title>EvaluatorType&#45;&gt;IndividualProperties</title>
<path fill="none" stroke="black" d="M99.0639,-184.461C148.217,-191.267 236.533,-206.769 306.387,-237 309.842,-238.495 313.303,-240.067 316.762,-241.705"/>
<text text-anchor="middle" x="222.887" y="-239.6" font-family="Times New Roman,serif" font-size="8.00">EvaluatorReference_Individual</text>
</g>
<!-- OperationType -->
<g id="ReusableTypeOperationType9" class="node"><title></title><ellipse fill="#f7b733" stroke="black" cx="60.6934" cy="-126" rx="40.0477" ry="18" style="filter: url(#dropshadow)"/>
<text text-anchor="middle" x="60.6934" y="-124.1" font-family="Times New Roman,serif" font-size="8.00">OperationType</text>
</g>
<!-- OperationType&#45;&gt;IndividualProperties -->
<g id="edge24" class="edge"><title>OperationType&#45;&gt;IndividualProperties</title>
<path fill="none" stroke="black" d="M101.034,-127.311C151.548,-130.512 240.533,-141.379 306.387,-178 309.805,-179.901 313.194,-181.9 316.551,-183.987"/>
<text text-anchor="middle" x="222.887" y="-180.6" font-family="Times New Roman,serif" font-size="8.00">AgencyOrganizationReference_Individual</text>
</g>
<!-- SourceObjectType -->
<g id="ReusableTypeSourceObjectType0" class="node"><title></title><ellipse fill="#f7b733" stroke="black" cx="60.6934" cy="-72" rx="45.2568" ry="18" style="filter: url(#dropshadow)"/>
<text text-anchor="middle" x="60.6934" y="-70.1" font-family="Times New Roman,serif" font-size="8.00">SourceObjectType</text>
</g>
<!-- SourceObjectType&#45;&gt;IndividualProperties -->
<g id="edge25" class="edge"><title>SourceObjectType&#45;&gt;IndividualProperties</title>
<path fill="none" stroke="black" d="M106.443,-70.8729C158.504,-71.6318 245.132,-79.4936 306.387,-119 309.906,-121.27 313.371,-123.649 316.779,-126.126"/>
<text text-anchor="middle" x="222.887" y="-121.6" font-family="Times New Roman,serif" font-size="8.00">IndividualReference</text>
</g>
<!-- TargetObjectType -->
<g id="ReusableTypeTargetObjectType1" class="node"><title></title><ellipse fill="#f7b733" stroke="black" cx="60.6934" cy="-18" rx="45.891" ry="18" style="filter: url(#dropshadow)"/>
<text text-anchor="middle" x="60.6934" y="-16.1" font-family="Times New Roman,serif" font-size="8.00">TargetObjectType</text>
</g>
<!-- TargetObjectType&#45;&gt;IndividualProperties -->
<g id="edge26" class="edge"><title>TargetObjectType&#45;&gt;IndividualProperties</title>
<path fill="none" stroke="black" d="M106.196,-14.6928C158.811,-13.0733 246.744,-17.8053 306.387,-60 325.142,-73.2684 341.928,-89.5123 356.894,-107.44"/>
<text text-anchor="middle" x="222.887" y="-62.6" font-family="Times New Roman,serif" font-size="8.00">IndividualReference</text>
</g>
</g>
</svg>
