<?xml version="1.0" encoding="UTF-8" standalone="no"?>
<!DOCTYPE svg PUBLIC "-//W3C//DTD SVG 1.1//EN"
 "http://www.w3.org/Graphics/SVG/1.1/DTD/svg11.dtd">
<!-- Generated by graphviz version 2.38.0 (20140413.2041)
 -->
<!-- Title: G Pages: 1 -->
<svg width="1055pt" height="1286pt"
 viewBox="0.00 0.00 1055.30 1286.00" xmlns="http://www.w3.org/2000/svg" xmlns:xlink="http://www.w3.org/1999/xlink">
<filter id = "dropshadow" height = "130%" ><feGaussianBlur in= "SourceAlpha" stdDeviation = "3"/><!--stdDeviation is how much to blur--><feOffset dx = "2" dy = "2" result = "offsetblur"/><!--how much to offset--><feMerge><feMergeNode/><!--this contains the offset blurred image--><feMergeNode in= "SourceGraphic"/><!--this contains the element that the filter is applied to --></feMerge></filter>
<g id="graph0" class="graph" transform="scale(1 1) rotate(0) translate(4 1282)">
<title>G</title>
<g id="clust1" class="cluster"><title>clusterParameterType</title>
<polygon fill="#4abdac" stroke="black" points="293.303,-547 293.303,-856 1039.3,-856 1039.3,-547 293.303,-547" style="filter: url(#dropshadow)"/>
<text text-anchor="middle" x="666.303" y="-845.6" font-family="Times New Roman,serif" font-size="8.00">ParameterType</text>
</g>
<!-- ParameterTypeProperties -->
<g id="ReusableTypeParameterTypeProperties" class="node"><title></title><polygon fill="#f7b733" stroke="black" points="301.303,-657.5 301.303,-728.5 613.303,-728.5 613.303,-657.5 301.303,-657.5" style="filter: url(#dropshadow)"/>
<text text-anchor="middle" x="327.803" y="-691.1" font-family="Times New Roman,serif" font-size="8.00">Properties</text>
<polyline fill="none" stroke="black" points="354.303,-657.5 354.303,-728.5 "/>
<text text-anchor="start" x="362.303" y="-718.1" font-family="Times New Roman,serif" font-size="8.00">ParameterName : NameType[0...n] </text>
<text text-anchor="start" x="362.303" y="-709.1" font-family="Times New Roman,serif" font-size="8.00">Alias : string[0...1] </text>
<text text-anchor="start" x="362.303" y="-700.1" font-family="Times New Roman,serif" font-size="8.00">Description : StructuredStringType[0...1] </text>
<text text-anchor="start" x="362.303" y="-691.1" font-family="Times New Roman,serif" font-size="8.00">ValueRepresentation : RepresentationType[0...1] </text>
<text text-anchor="start" x="362.303" y="-682.1" font-family="Times New Roman,serif" font-size="8.00">ValueRepresentationReference : RepresentationReferenceType[0...1] </text>
<text text-anchor="start" x="362.303" y="-673.1" font-family="Times New Roman,serif" font-size="8.00">DefaultValue : ValueType[0...1] </text>
<text text-anchor="start" x="362.303" y="-664.1" font-family="Times New Roman,serif" font-size="8.00">IsArray : boolean[0...1] </text>
</g>
<!-- ParameterTypeNameType -->
<g id="ReusableTypeParameterTypeNameType" class="node"><title></title><polygon fill="#fc4a1a" stroke="black" points="808.803,-556 808.803,-592 977.803,-592 977.803,-556 808.803,-556" style="filter: url(#dropshadow)"/>
<text text-anchor="middle" x="836.803" y="-572.1" font-family="Times New Roman,serif" font-size="8.00">NameType</text>
<polyline fill="none" stroke="black" points="864.803,-556 864.803,-592 "/>
<text text-anchor="start" x="872.803" y="-576.6" font-family="Times New Roman,serif" font-size="8.00">IsPreferred : boolean[0...1] </text>
<text text-anchor="start" x="872.803" y="-567.6" font-family="Times New Roman,serif" font-size="8.00">Context : string[0...1] </text>
</g>
<!-- ParameterTypeProperties&#45;&gt;ParameterTypeNameType -->
<g id="edge1" class="edge"><title>ParameterTypeProperties&#45;&gt;ParameterTypeNameType</title>
<path fill="none" stroke="black" d="M563.375,-657.476C619.854,-639.138 690.931,-617.265 755.303,-601 772.461,-596.665 790.973,-592.607 808.672,-589.02"/>
<text text-anchor="middle" x="684.303" y="-638.6" font-family="Times New Roman,serif" font-size="8.00">ParameterName</text>
</g>
<!-- ParameterTypeStructuredStringType -->
<g id="ReusableTypeParameterTypeStructuredStringType" class="node"><title></title><polygon fill="#fc4a1a" stroke="black" points="786.803,-611 786.803,-647 999.803,-647 999.803,-611 786.803,-611" style="filter: url(#dropshadow)"/>
<text text-anchor="middle" x="831.803" y="-627.1" font-family="Times New Roman,serif" font-size="8.00">StructuredStringType</text>
<polyline fill="none" stroke="black" points="876.803,-611 876.803,-647 "/>
<text text-anchor="start" x="884.803" y="-627.1" font-family="Times New Roman,serif" font-size="8.00">Content : ContentType[0...n] </text>
</g>
<!-- ParameterTypeProperties&#45;&gt;ParameterTypeStructuredStringType -->
<g id="edge2" class="edge"><title>ParameterTypeProperties&#45;&gt;ParameterTypeStructuredStringType</title>
<path fill="none" stroke="black" d="M613.455,-670.12C670.881,-661.652 734.612,-652.254 786.635,-644.582"/>
<text text-anchor="middle" x="684.303" y="-669.6" font-family="Times New Roman,serif" font-size="8.00">Description</text>
</g>
<!-- ParameterTypeRepresentationType -->
<g id="ReusableTypeParameterTypeRepresentationType" class="node"><title></title><polygon fill="#fc4a1a" stroke="black" points="755.303,-666.5 755.303,-719.5 1031.3,-719.5 1031.3,-666.5 755.303,-666.5" style="filter: url(#dropshadow)"/>
<text text-anchor="middle" x="799.303" y="-691.1" font-family="Times New Roman,serif" font-size="8.00">RepresentationType</text>
<polyline fill="none" stroke="black" points="843.303,-666.5 843.303,-719.5 "/>
<text text-anchor="start" x="851.303" y="-709.1" font-family="Times New Roman,serif" font-size="8.00">RecommendedDataType : CodeValueType[0...1] </text>
<text text-anchor="start" x="851.303" y="-700.1" font-family="Times New Roman,serif" font-size="8.00">GenericOutputFormat : CodeValueType[0...1] </text>
<text text-anchor="start" x="851.303" y="-691.1" font-family="Times New Roman,serif" font-size="8.00">MissingValue : string[0...1] </text>
<text text-anchor="start" x="851.303" y="-682.1" font-family="Times New Roman,serif" font-size="8.00">BlankIsMissingValue : boolean[0...1] </text>
<text text-anchor="start" x="851.303" y="-673.1" font-family="Times New Roman,serif" font-size="8.00">ClassificationLevel : string[0...1] </text>
</g>
<!-- ParameterTypeProperties&#45;&gt;ParameterTypeRepresentationType -->
<g id="edge3" class="edge"><title>ParameterTypeProperties&#45;&gt;ParameterTypeRepresentationType</title>
<path fill="none" stroke="black" d="M613.455,-693C659.688,-693 710.007,-693 755.014,-693"/>
<text text-anchor="middle" x="684.303" y="-695.6" font-family="Times New Roman,serif" font-size="8.00">ValueRepresentation</text>
</g>
<!-- ParameterTypeRepresentationReferenceType -->
<g id="ReusableTypeParameterTypeRepresentationReferenceType" class="node"><title></title><polygon fill="#fc4a1a" stroke="black" points="759.303,-739 759.303,-775 1027.3,-775 1027.3,-739 759.303,-739" style="filter: url(#dropshadow)"/>
<text text-anchor="middle" x="820.303" y="-755.1" font-family="Times New Roman,serif" font-size="8.00">RepresentationReferenceType</text>
<polyline fill="none" stroke="black" points="881.303,-739 881.303,-775 "/>
<text text-anchor="start" x="889.303" y="-759.6" font-family="Times New Roman,serif" font-size="8.00">MissingValue : string[0...1] </text>
<text text-anchor="start" x="889.303" y="-750.6" font-family="Times New Roman,serif" font-size="8.00">BlankIsMissingValue : boolean[0...1] </text>
</g>
<!-- ParameterTypeProperties&#45;&gt;ParameterTypeRepresentationReferenceType -->
<g id="edge4" class="edge"><title>ParameterTypeProperties&#45;&gt;ParameterTypeRepresentationReferenceType</title>
<path fill="none" stroke="black" d="M613.455,-715.88C664.919,-723.469 721.448,-731.805 770.075,-738.976"/>
<text text-anchor="middle" x="684.303" y="-735.6" font-family="Times New Roman,serif" font-size="8.00">ValueRepresentationReference</text>
</g>
<!-- ParameterTypeValueType -->
<g id="ReusableTypeParameterTypeValueType" class="node"><title></title><polygon fill="#fc4a1a" stroke="black" points="856.803,-794 856.803,-830 929.803,-830 929.803,-794 856.803,-794" style="filter: url(#dropshadow)"/>
<text text-anchor="middle" x="883.803" y="-810.1" font-family="Times New Roman,serif" font-size="8.00">ValueType</text>
<polyline fill="none" stroke="black" points="910.803,-794 910.803,-830 "/>
<text text-anchor="middle" x="920.303" y="-810.1" font-family="Times New Roman,serif" font-size="8.00"> </text>
</g>
<!-- ParameterTypeProperties&#45;&gt;ParameterTypeValueType -->
<g id="edge5" class="edge"><title>ParameterTypeProperties&#45;&gt;ParameterTypeValueType</title>
<path fill="none" stroke="black" d="M565.524,-728.567C621.683,-746.504 691.808,-767.824 755.303,-784 789.414,-792.69 828.835,-800.519 856.608,-805.674"/>
<text text-anchor="middle" x="684.303" y="-780.6" font-family="Times New Roman,serif" font-size="8.00">DefaultValue</text>
</g>
<!-- ComputationItem -->
<g id="ItemTypeComputationItem" class="node"><title></title><ellipse fill="#f7b733" stroke="black" cx="85.6514" cy="-1260" rx="44.6228" ry="18" style="filter: url(#dropshadow)"/>
<text text-anchor="middle" x="85.6514" y="-1258.1" font-family="Times New Roman,serif" font-size="8.00">ComputationItem</text>
</g>
<!-- ComputationItem&#45;&gt;ParameterTypeProperties -->
<g id="edge6" class="edge"><title>ComputationItem&#45;&gt;ParameterTypeProperties</title>
<path fill="none" stroke="black" d="M130.587,-1261.17C174.608,-1259.94 241.649,-1251.2 283.303,-1213 382.978,-1121.6 425.3,-971.388 443.23,-855.85"/>
<text text-anchor="middle" x="236.303" y="-1257.6" font-family="Times New Roman,serif" font-size="8.00">AssignedVariableReference</text>
</g>
<!-- ControlConstruct -->
<g id="ItemTypeControlConstruct" class="node"><title></title><ellipse fill="#f7b733" stroke="black" cx="85.6514" cy="-1206" rx="43.8539" ry="18" style="filter: url(#dropshadow)"/>
<text text-anchor="middle" x="85.6514" y="-1204.1" font-family="Times New Roman,serif" font-size="8.00">ControlConstruct</text>
</g>
<!-- ControlConstruct&#45;&gt;ParameterTypeProperties -->
<g id="edge7" class="edge"><title>ControlConstruct&#45;&gt;ParameterTypeProperties</title>
<path fill="none" stroke="black" d="M129.516,-1206.64C173.315,-1205.01 240.765,-1195.84 283.303,-1158 369.868,-1081 413.226,-956.541 434.884,-855.756"/>
<text text-anchor="middle" x="236.303" y="-1202.6" font-family="Times New Roman,serif" font-size="8.00">OutParameter</text>
</g>
<!-- Loop -->
<g id="ItemTypeLoop" class="node"><title></title><ellipse fill="#f7b733" stroke="black" cx="85.6514" cy="-1152" rx="27" ry="18" style="filter: url(#dropshadow)"/>
<text text-anchor="middle" x="85.6514" y="-1150.1" font-family="Times New Roman,serif" font-size="8.00">Loop</text>
</g>
<!-- Loop&#45;&gt;ParameterTypeProperties -->
<g id="edge8" class="edge"><title>Loop&#45;&gt;ParameterTypeProperties</title>
<path fill="none" stroke="black" d="M112.896,-1152.54C154.045,-1151.99 234.116,-1145.09 283.303,-1103 356.766,-1040.13 399.748,-940.737 424.494,-855.559"/>
<text text-anchor="middle" x="236.303" y="-1147.6" font-family="Times New Roman,serif" font-size="8.00">LoopVariableReference</text>
</g>
<!-- QuestionBlock -->
<g id="ItemTypeQuestionBlock0" class="node"><title></title><ellipse fill="#f7b733" stroke="black" cx="85.6514" cy="-1098" rx="38.6432" ry="18" style="filter: url(#dropshadow)"/>
<text text-anchor="middle" x="85.6514" y="-1096.1" font-family="Times New Roman,serif" font-size="8.00">QuestionBlock</text>
</g>
<!-- QuestionBlock&#45;&gt;ParameterTypeProperties -->
<g id="edge9" class="edge"><title>QuestionBlock&#45;&gt;ParameterTypeProperties</title>
<path fill="none" stroke="black" d="M124.49,-1098.02C167.455,-1096.12 237.512,-1086.99 283.303,-1050 344.217,-1000.79 385.148,-924.879 411.83,-855.684"/>
<text text-anchor="middle" x="236.303" y="-1092.6" font-family="Times New Roman,serif" font-size="8.00">OutParameter</text>
</g>
<!-- QuestionGrid -->
<g id="ItemTypeQuestionGrid1" class="node"><title></title><ellipse fill="#f7b733" stroke="black" cx="85.6514" cy="-1044" rx="35.3371" ry="18" style="filter: url(#dropshadow)"/>
<text text-anchor="middle" x="85.6514" y="-1042.1" font-family="Times New Roman,serif" font-size="8.00">QuestionGrid</text>
</g>
<!-- QuestionGrid&#45;&gt;ParameterTypeProperties -->
<g id="edge10" class="edge"><title>QuestionGrid&#45;&gt;ParameterTypeProperties</title>
<path fill="none" stroke="black" d="M121.044,-1044.26C163.256,-1042.89 235.146,-1034.9 283.303,-999 331.854,-962.806 368.76,-908.695 395.753,-855.995"/>
<text text-anchor="middle" x="236.303" y="-1039.6" font-family="Times New Roman,serif" font-size="8.00">OutParameter</text>
</g>
<!-- QuestionItem -->
<g id="ItemTypeQuestionItem2" class="node"><title></title><ellipse fill="#f7b733" stroke="black" cx="85.6514" cy="-990" rx="36.1063" ry="18" style="filter: url(#dropshadow)"/>
<text text-anchor="middle" x="85.6514" y="-988.1" font-family="Times New Roman,serif" font-size="8.00">QuestionItem</text>
</g>
<!-- QuestionItem&#45;&gt;ParameterTypeProperties -->
<g id="edge11" class="edge"><title>QuestionItem&#45;&gt;ParameterTypeProperties</title>
<path fill="none" stroke="black" d="M122.018,-991.316C163.914,-991.188 234.205,-985.507 283.303,-953 320.483,-928.383 351.629,-892.749 376.781,-855.717"/>
<text text-anchor="middle" x="236.303" y="-988.6" font-family="Times New Roman,serif" font-size="8.00">OutParameter</text>
</g>
<!-- Variable -->
<g id="ItemTypeVariable3" class="node"><title></title><ellipse fill="#f7b733" stroke="black" cx="85.6514" cy="-936" rx="27" ry="18" style="filter: url(#dropshadow)"/>
<text text-anchor="middle" x="85.6514" y="-934.1" font-family="Times New Roman,serif" font-size="8.00">Variable</text>
</g>
<!-- Variable&#45;&gt;ParameterTypeProperties -->
<g id="edge12" class="edge"><title>Variable&#45;&gt;ParameterTypeProperties</title>
<path fill="none" stroke="black" d="M112.435,-939.156C151.925,-942.725 228.555,-944.553 283.303,-914 309.779,-899.224 333.606,-878.574 354.507,-855.778"/>
<text text-anchor="middle" x="236.303" y="-942.6" font-family="Times New Roman,serif" font-size="8.00">OutParameter</text>
</g>
<!-- Variable&#45;&gt;ParameterTypeProperties -->
<g id="edge13" class="edge"><title>Variable&#45;&gt;ParameterTypeProperties</title>
<path fill="none" stroke="black" d="M110.606,-928.371C131.344,-921.861 162.185,-912.407 189.303,-905 230.793,-893.668 246.297,-903.92 283.303,-882 296.213,-874.353 308.725,-865.439 320.719,-855.726"/>
<text text-anchor="middle" x="236.303" y="-907.6" font-family="Times New Roman,serif" font-size="8.00">SourceParameterReference</text>
</g>
<!-- BindingType -->
<g id="ReusableTypeBindingType4" class="node"><title></title><ellipse fill="#f7b733" stroke="black" cx="85.6514" cy="-882" rx="35.3371" ry="18" style="filter: url(#dropshadow)"/>
<text text-anchor="middle" x="85.6514" y="-880.1" font-family="Times New Roman,serif" font-size="8.00">BindingType</text>
</g>
<!-- BindingType&#45;&gt;ParameterTypeProperties -->
<g id="edge14" class="edge"><title>BindingType&#45;&gt;ParameterTypeProperties</title>
<path fill="none" stroke="black" d="M120.538,-878.829C168.953,-873.903 255.181,-863.554 283.303,-850 286.792,-848.318 290.262,-846.543 293.709,-844.685"/>
<text text-anchor="middle" x="236.303" y="-873.6" font-family="Times New Roman,serif" font-size="8.00">SourceParameterReference</text>
</g>
<!-- BindingType&#45;&gt;ParameterTypeProperties -->
<g id="edge15" class="edge"><title>BindingType&#45;&gt;ParameterTypeProperties</title>
<path fill="none" stroke="black" d="M118.265,-874.762C134.647,-870.315 154.653,-863.772 171.303,-855 180.269,-850.276 180.382,-845.811 189.303,-841 228.147,-820.052 243.746,-828.568 283.303,-809 286.695,-807.322 290.098,-805.587 293.507,-803.804"/>
<text text-anchor="middle" x="236.303" y="-843.6" font-family="Times New Roman,serif" font-size="8.00">TargetParameterReference</text>
</g>
<!-- CategoryDomainType -->
<g id="ReusableTypeCategoryDomainType5" class="node"><title></title><ellipse fill="#f7b733" stroke="black" cx="85.6514" cy="-828" rx="53.7736" ry="18" style="filter: url(#dropshadow)"/>
<text text-anchor="middle" x="85.6514" y="-826.1" font-family="Times New Roman,serif" font-size="8.00">CategoryDomainType</text>
</g>
<!-- CategoryDomainType&#45;&gt;ParameterTypeProperties -->
<g id="edge16" class="edge"><title>CategoryDomainType&#45;&gt;ParameterTypeProperties</title>
<path fill="none" stroke="black" d="M125.428,-815.652C139.835,-811.059 156.318,-805.798 171.303,-801 221.099,-785.056 234.235,-783.061 283.303,-765 286.709,-763.746 290.148,-762.465 293.608,-761.161"/>
<text text-anchor="middle" x="236.303" y="-798.6" font-family="Times New Roman,serif" font-size="8.00">OutParameter</text>
</g>
<!-- CodeDomainType -->
<g id="ReusableTypeCodeDomainType6" class="node"><title></title><ellipse fill="#f7b733" stroke="black" cx="85.6514" cy="-774" rx="45.2568" ry="18" style="filter: url(#dropshadow)"/>
<text text-anchor="middle" x="85.6514" y="-772.1" font-family="Times New Roman,serif" font-size="8.00">CodeDomainType</text>
</g>
<!-- CodeDomainType&#45;&gt;ParameterTypeProperties -->
<g id="edge17" class="edge"><title>CodeDomainType&#45;&gt;ParameterTypeProperties</title>
<path fill="none" stroke="black" d="M125.861,-765.408C166.124,-756.586 231.495,-742.261 293.509,-728.672"/>
<text text-anchor="middle" x="236.303" y="-754.6" font-family="Times New Roman,serif" font-size="8.00">OutParameter</text>
</g>
<!-- CommandFileType -->
<g id="ReusableTypeCommandFileType7" class="node"><title></title><ellipse fill="#f7b733" stroke="black" cx="85.6514" cy="-720" rx="47.16" ry="18" style="filter: url(#dropshadow)"/>
<text text-anchor="middle" x="85.6514" y="-718.1" font-family="Times New Roman,serif" font-size="8.00">CommandFileType</text>
</g>
<!-- CommandFileType&#45;&gt;ParameterTypeProperties -->
<g id="edge18" class="edge"><title>CommandFileType&#45;&gt;ParameterTypeProperties</title>
<path fill="none" stroke="black" d="M131.978,-716.689C172.559,-713.725 234.592,-709.194 293.578,-704.886"/>
<text text-anchor="middle" x="236.303" y="-715.6" font-family="Times New Roman,serif" font-size="8.00">OutParameter</text>
</g>
<!-- CommandType -->
<g id="ReusableTypeCommandType8" class="node"><title></title><ellipse fill="#f7b733" stroke="black" cx="85.6514" cy="-666" rx="40.0477" ry="18" style="filter: url(#dropshadow)"/>
<text text-anchor="middle" x="85.6514" y="-664.1" font-family="Times New Roman,serif" font-size="8.00">CommandType</text>
</g>
<!-- CommandType&#45;&gt;ParameterTypeProperties -->
<g id="edge19" class="edge"><title>CommandType&#45;&gt;ParameterTypeProperties</title>
<path fill="none" stroke="black" d="M125.512,-668.838C165.768,-671.779 231.388,-676.572 293.612,-681.117"/>
<text text-anchor="middle" x="236.303" y="-683.6" font-family="Times New Roman,serif" font-size="8.00">OutParameter</text>
</g>
<!-- ConditionalTextType -->
<g id="ReusableTypeConditionalTextType9" class="node"><title></title><ellipse fill="#f7b733" stroke="black" cx="85.6514" cy="-612" rx="52.5056" ry="18" style="filter: url(#dropshadow)"/>
<text text-anchor="middle" x="85.6514" y="-610.1" font-family="Times New Roman,serif" font-size="8.00">ConditionalTextType</text>
</g>
<!-- ConditionalTextType&#45;&gt;ParameterTypeProperties -->
<g id="edge20" class="edge"><title>ConditionalTextType&#45;&gt;ParameterTypeProperties</title>
<path fill="none" stroke="black" d="M130.507,-621.61C171.038,-630.491 233.838,-644.252 293.526,-657.331"/>
<text text-anchor="middle" x="236.303" y="-657.6" font-family="Times New Roman,serif" font-size="8.00">SourceParameterReference</text>
</g>
<!-- DateTimeDomainType -->
<g id="ReusableTypeDateTimeDomainType0" class="node"><title></title><ellipse fill="#f7b733" stroke="black" cx="85.6514" cy="-558" rx="55.6769" ry="18" style="filter: url(#dropshadow)"/>
<text text-anchor="middle" x="85.6514" y="-556.1" font-family="Times New Roman,serif" font-size="8.00">DateTimeDomainType</text>
</g>
<!-- DateTimeDomainType&#45;&gt;ParameterTypeProperties -->
<g id="edge21" class="edge"><title>DateTimeDomainType&#45;&gt;ParameterTypeProperties</title>
<path fill="none" stroke="black" d="M126.299,-570.553C140.505,-575.075 156.631,-580.237 171.303,-585 221.165,-601.188 234.134,-603.815 283.303,-622 286.764,-623.28 290.259,-624.587 293.778,-625.915"/>
<text text-anchor="middle" x="236.303" y="-624.6" font-family="Times New Roman,serif" font-size="8.00">OutParameter</text>
</g>
<!-- DistributionDomainType -->
<g id="ReusableTypeDistributionDomainType1" class="node"><title></title><ellipse fill="#f7b733" stroke="black" cx="85.6514" cy="-504" rx="58.9835" ry="18" style="filter: url(#dropshadow)"/>
<text text-anchor="middle" x="85.6514" y="-502.1" font-family="Times New Roman,serif" font-size="8.00">DistributionDomainType</text>
</g>
<!-- DistributionDomainType&#45;&gt;ParameterTypeProperties -->
<g id="edge22" class="edge"><title>DistributionDomainType&#45;&gt;ParameterTypeProperties</title>
<path fill="none" stroke="black" d="M128.689,-516.531C142.374,-520.843 157.571,-525.881 171.303,-531 222.048,-549.917 235.615,-553.333 283.303,-579 286.705,-580.831 290.127,-582.71 293.56,-584.628"/>
<text text-anchor="middle" x="236.303" y="-581.6" font-family="Times New Roman,serif" font-size="8.00">OutParameter</text>
</g>
<!-- DomainReferenceType -->
<g id="ReusableTypeDomainReferenceType2" class="node"><title></title><ellipse fill="#f7b733" stroke="black" cx="85.6514" cy="-450" rx="55.6769" ry="18" style="filter: url(#dropshadow)"/>
<text text-anchor="middle" x="85.6514" y="-448.1" font-family="Times New Roman,serif" font-size="8.00">DomainReferenceType</text>
</g>
<!-- DomainReferenceType&#45;&gt;ParameterTypeProperties -->
<g id="edge23" class="edge"><title>DomainReferenceType&#45;&gt;ParameterTypeProperties</title>
<path fill="none" stroke="black" d="M127.42,-462.064C141.437,-466.459 157.158,-471.666 171.303,-477 222.142,-496.17 238.158,-495.767 283.303,-526 293.18,-532.615 303.001,-539.824 312.655,-547.414"/>
<text text-anchor="middle" x="236.303" y="-528.6" font-family="Times New Roman,serif" font-size="8.00">OutParameter</text>
</g>
<!-- GeographicLocationCodeDomainType -->
<g id="ReusableTypeGeographicLocationCodeDomainType3" class="node"><title></title><ellipse fill="#f7b733" stroke="black" cx="85.6514" cy="-396" rx="85.8032" ry="18" style="filter: url(#dropshadow)"/>
<text text-anchor="middle" x="85.6514" y="-394.1" font-family="Times New Roman,serif" font-size="8.00">GeographicLocationCodeDomainType</text>
</g>
<!-- GeographicLocationCodeDomainType&#45;&gt;ParameterTypeProperties -->
<g id="edge24" class="edge"><title>GeographicLocationCodeDomainType&#45;&gt;ParameterTypeProperties</title>
<path fill="none" stroke="black" d="M145.358,-409.087C187.003,-420.534 242.517,-440.378 283.303,-472 310.836,-493.347 336.484,-520.009 359.153,-547.352"/>
<text text-anchor="middle" x="236.303" y="-474.6" font-family="Times New Roman,serif" font-size="8.00">OutParameter</text>
</g>
<!-- GeographicStructureCodeDomainType -->
<g id="ReusableTypeGeographicStructureCodeDomainType4" class="node"><title></title><ellipse fill="#f7b733" stroke="black" cx="85.6514" cy="-342" rx="85.1685" ry="18" style="filter: url(#dropshadow)"/>
<text text-anchor="middle" x="85.6514" y="-340.1" font-family="Times New Roman,serif" font-size="8.00">GeographicStructureCodeDomainType</text>
</g>
<!-- GeographicStructureCodeDomainType&#45;&gt;ParameterTypeProperties -->
<g id="edge25" class="edge"><title>GeographicStructureCodeDomainType&#45;&gt;ParameterTypeProperties</title>
<path fill="none" stroke="black" d="M152.149,-353.3C193.419,-363.129 245.797,-380.87 283.303,-412 327.14,-448.384 363.025,-498.902 390.52,-547.083"/>
<text text-anchor="middle" x="236.303" y="-414.6" font-family="Times New Roman,serif" font-size="8.00">OutParameter</text>
</g>
<!-- LocationDomainType -->
<g id="ReusableTypeLocationDomainType5" class="node"><title></title><ellipse fill="#f7b733" stroke="black" cx="85.6514" cy="-288" rx="53.7736" ry="18" style="filter: url(#dropshadow)"/>
<text text-anchor="middle" x="85.6514" y="-286.1" font-family="Times New Roman,serif" font-size="8.00">LocationDomainType</text>
</g>
<!-- LocationDomainType&#45;&gt;ParameterTypeProperties -->
<g id="edge26" class="edge"><title>LocationDomainType&#45;&gt;ParameterTypeProperties</title>
<path fill="none" stroke="black" d="M137.189,-293.753C180.403,-301.017 241.983,-317.224 283.303,-353 342.229,-404.02 383.539,-479.986 410.975,-547.179"/>
<text text-anchor="middle" x="236.303" y="-355.6" font-family="Times New Roman,serif" font-size="8.00">OutParameter</text>
</g>
<!-- NominalDomainType -->
<g id="ReusableTypeNominalDomainType6" class="node"><title></title><ellipse fill="#f7b733" stroke="black" cx="85.6514" cy="-234" rx="52.5056" ry="18" style="filter: url(#dropshadow)"/>
<text text-anchor="middle" x="85.6514" y="-232.1" font-family="Times New Roman,serif" font-size="8.00">NominalDomainType</text>
</g>
<!-- NominalDomainType&#45;&gt;ParameterTypeProperties -->
<g id="edge27" class="edge"><title>NominalDomainType&#45;&gt;ParameterTypeProperties</title>
<path fill="none" stroke="black" d="M137.186,-238.009C180.695,-243.934 242.71,-258.616 283.303,-295 356.572,-360.672 400.108,-462.914 425.179,-547.326"/>
<text text-anchor="middle" x="236.303" y="-297.6" font-family="Times New Roman,serif" font-size="8.00">OutParameter</text>
</g>
<!-- NumericDomainType -->
<g id="ReusableTypeNumericDomainType7" class="node"><title></title><ellipse fill="#f7b733" stroke="black" cx="85.6514" cy="-180" rx="52.3706" ry="18" style="filter: url(#dropshadow)"/>
<text text-anchor="middle" x="85.6514" y="-178.1" font-family="Times New Roman,serif" font-size="8.00">NumericDomainType</text>
</g>
<!-- NumericDomainType&#45;&gt;ParameterTypeProperties -->
<g id="edge28" class="edge"><title>NumericDomainType&#45;&gt;ParameterTypeProperties</title>
<path fill="none" stroke="black" d="M137.545,-182.097C181.287,-186.51 243.442,-199.371 283.303,-236 371.102,-316.68 414.64,-446.526 436.054,-547.23"/>
<text text-anchor="middle" x="236.303" y="-238.6" font-family="Times New Roman,serif" font-size="8.00">OutParameter</text>
</g>
<!-- RankingDomainType -->
<g id="ReusableTypeRankingDomainType8" class="node"><title></title><ellipse fill="#f7b733" stroke="black" cx="85.6514" cy="-126" rx="52.3706" ry="18" style="filter: url(#dropshadow)"/>
<text text-anchor="middle" x="85.6514" y="-124.1" font-family="Times New Roman,serif" font-size="8.00">RankingDomainType</text>
</g>
<!-- RankingDomainType&#45;&gt;ParameterTypeProperties -->
<g id="edge29" class="edge"><title>RankingDomainType&#45;&gt;ParameterTypeProperties</title>
<path fill="none" stroke="black" d="M137.816,-126.575C181.734,-129.781 243.994,-141.188 283.303,-178 385.498,-273.705 427.344,-431.58 444.468,-547.347"/>
<text text-anchor="middle" x="236.303" y="-180.6" font-family="Times New Roman,serif" font-size="8.00">OutParameter</text>
</g>
<!-- ScaleDomainType -->
<g id="ReusableTypeScaleDomainType9" class="node"><title></title><ellipse fill="#f7b733" stroke="black" cx="85.6514" cy="-72" rx="45.2568" ry="18" style="filter: url(#dropshadow)"/>
<text text-anchor="middle" x="85.6514" y="-70.1" font-family="Times New Roman,serif" font-size="8.00">ScaleDomainType</text>
</g>
<!-- ScaleDomainType&#45;&gt;ParameterTypeProperties -->
<g id="edge30" class="edge"><title>ScaleDomainType&#45;&gt;ParameterTypeProperties</title>
<path fill="none" stroke="black" d="M131.27,-71.3735C175.51,-73.1998 242.43,-82.9343 283.303,-122 398.996,-232.578 438.056,-417.67 450.842,-547.054"/>
<text text-anchor="middle" x="236.303" y="-124.6" font-family="Times New Roman,serif" font-size="8.00">OutParameter</text>
</g>
<!-- TextDomainType -->
<g id="ReusableTypeTextDomainType0" class="node"><title></title><ellipse fill="#f7b733" stroke="black" cx="85.6514" cy="-18" rx="45.2568" ry="18" style="filter: url(#dropshadow)"/>
<text text-anchor="middle" x="85.6514" y="-16.1" font-family="Times New Roman,serif" font-size="8.00">TextDomainType</text>
</g>
<!-- TextDomainType&#45;&gt;ParameterTypeProperties -->
<g id="edge31" class="edge"><title>TextDomainType&#45;&gt;ParameterTypeProperties</title>
<path fill="none" stroke="black" d="M131.022,-16.6438C175.39,-17.767 242.702,-26.5923 283.303,-66 351.683,-132.372 405.096,-383.766 433.554,-547.364"/>
<text text-anchor="middle" x="236.303" y="-68.6" font-family="Times New Roman,serif" font-size="8.00">OutParameter</text>
</g>
</g>
</svg>
