<?xml version="1.0" encoding="UTF-8" standalone="no"?>
<!DOCTYPE svg PUBLIC "-//W3C//DTD SVG 1.1//EN"
 "http://www.w3.org/Graphics/SVG/1.1/DTD/svg11.dtd">
<!-- Generated by graphviz version 2.38.0 (20140413.2041)
 -->
<!-- Title: G Pages: 1 -->
<svg width="858pt" height="1556pt"
 viewBox="0.00 0.00 857.67 1556.00" xmlns="http://www.w3.org/2000/svg" xmlns:xlink="http://www.w3.org/1999/xlink">
<filter id = "dropshadow" height = "130%" ><feGaussianBlur in= "SourceAlpha" stdDeviation = "3"/><!--stdDeviation is how much to blur--><feOffset dx = "2" dy = "2" result = "offsetblur"/><!--how much to offset--><feMerge><feMergeNode/><!--this contains the offset blurred image--><feMergeNode in= "SourceGraphic"/><!--this contains the element that the filter is applied to --></feMerge></filter>
<g id="graph0" class="graph" transform="scale(1 1) rotate(0) translate(4 1552)">
<title>G</title>
<g id="clust1" class="cluster"><title>clusterDateType</title>
<polygon fill="#4abdac" stroke="black" points="238.673,-757 238.673,-862 841.673,-862 841.673,-757 238.673,-757" style="filter: url(#dropshadow)"/>
<text text-anchor="middle" x="540.173" y="-851.6" font-family="Times New Roman,serif" font-size="8.00">DateType</text>
</g>
<!-- DateTypeProperties -->
<g id="ReusableTypeDateTypeProperties" class="node"><title></title><polygon fill="#f7b733" stroke="black" points="246.673,-765.5 246.673,-836.5 482.673,-836.5 482.673,-765.5 246.673,-765.5" style="filter: url(#dropshadow)"/>
<text text-anchor="middle" x="273.173" y="-799.1" font-family="Times New Roman,serif" font-size="8.00">Properties</text>
<polyline fill="none" stroke="black" points="299.673,-765.5 299.673,-836.5 "/>
<text text-anchor="start" x="307.673" y="-826.1" font-family="Times New Roman,serif" font-size="8.00">SimpleDate : cogsDate[0...1] </text>
<text text-anchor="start" x="307.673" y="-817.1" font-family="Times New Roman,serif" font-size="8.00">HistoricalDate : HistoricalDateType[0...1] </text>
<text text-anchor="start" x="307.673" y="-808.1" font-family="Times New Roman,serif" font-size="8.00">StartDate : cogsDate[0...1] </text>
<text text-anchor="start" x="307.673" y="-799.1" font-family="Times New Roman,serif" font-size="8.00">HistoricalStartDate : HistoricalDateType[0...1] </text>
<text text-anchor="start" x="307.673" y="-790.1" font-family="Times New Roman,serif" font-size="8.00">EndDate : cogsDate[0...1] </text>
<text text-anchor="start" x="307.673" y="-781.1" font-family="Times New Roman,serif" font-size="8.00">HistoricalEndDate : HistoricalDateType[0...1] </text>
<text text-anchor="start" x="307.673" y="-772.1" font-family="Times New Roman,serif" font-size="8.00">Cycle : int[0...1] </text>
</g>
<!-- DateTypeHistoricalDateType -->
<g id="ReusableTypeDateTypeHistoricalDateType" class="node"><title></title><polygon fill="#fc4a1a" stroke="black" points="569.673,-783 569.673,-819 833.673,-819 833.673,-783 569.673,-783" style="filter: url(#dropshadow)"/>
<text text-anchor="middle" x="612.673" y="-799.1" font-family="Times New Roman,serif" font-size="8.00">HistoricalDateType</text>
<polyline fill="none" stroke="black" points="655.673,-783 655.673,-819 "/>
<text text-anchor="start" x="663.673" y="-808.1" font-family="Times New Roman,serif" font-size="8.00">NonISODate : string[0...1] </text>
<text text-anchor="start" x="663.673" y="-799.1" font-family="Times New Roman,serif" font-size="8.00">HistoricalDateFormat : CodeValueType[0...1] </text>
<text text-anchor="start" x="663.673" y="-790.1" font-family="Times New Roman,serif" font-size="8.00">Calendar : CodeValueType[0...1] </text>
</g>
<!-- DateTypeProperties&#45;&gt;DateTypeHistoricalDateType -->
<g id="edge1" class="edge"><title>DateTypeProperties&#45;&gt;DateTypeHistoricalDateType</title>
<path fill="none" stroke="black" d="M482.839,-801C510.858,-801 540.949,-801 569.552,-801"/>
<text text-anchor="middle" x="526.173" y="-803.6" font-family="Times New Roman,serif" font-size="8.00">HistoricalDate</text>
</g>
<!-- DevelopmentResults -->
<g id="ItemTypeDevelopmentResults" class="node"><title></title><ellipse fill="#f7b733" stroke="black" cx="70.3363" cy="-1530" rx="49.8323" ry="18" style="filter: url(#dropshadow)"/>
<text text-anchor="middle" x="70.3363" y="-1528.1" font-family="Times New Roman,serif" font-size="8.00">DevelopmentResults</text>
</g>
<!-- DevelopmentResults&#45;&gt;DateTypeProperties -->
<g id="edge2" class="edge"><title>DevelopmentResults&#45;&gt;DateTypeProperties</title>
<path fill="none" stroke="black" d="M120.489,-1529.56C155.555,-1526.52 201.192,-1516.55 228.673,-1487 313.292,-1396.01 348.908,-1011.81 359.78,-861.57"/>
<text text-anchor="middle" x="193.673" y="-1526.6" font-family="Times New Roman,serif" font-size="8.00">ResultsDate</text>
</g>
<!-- Relation -->
<g id="ItemTypeRelation" class="node"><title></title><ellipse fill="#f7b733" stroke="black" cx="70.3363" cy="-1476" rx="27" ry="18" style="filter: url(#dropshadow)"/>
<text text-anchor="middle" x="70.3363" y="-1474.1" font-family="Times New Roman,serif" font-size="8.00">Relation</text>
</g>
<!-- Relation&#45;&gt;DateTypeProperties -->
<g id="edge3" class="edge"><title>Relation&#45;&gt;DateTypeProperties</title>
<path fill="none" stroke="black" d="M97.384,-1478.13C132.312,-1479.45 193.941,-1476.12 228.673,-1441 309.693,-1359.08 347.092,-1004.91 359.118,-861.565"/>
<text text-anchor="middle" x="193.673" y="-1476.6" font-family="Times New Roman,serif" font-size="8.00">EffectivePeriod</text>
</g>
<!-- SampleFrame -->
<g id="ItemTypeSampleFrame" class="node"><title></title><ellipse fill="#f7b733" stroke="black" cx="70.3363" cy="-1422" rx="35.9723" ry="18" style="filter: url(#dropshadow)"/>
<text text-anchor="middle" x="70.3363" y="-1420.1" font-family="Times New Roman,serif" font-size="8.00">SampleFrame</text>
</g>
<!-- SampleFrame&#45;&gt;DateTypeProperties -->
<g id="edge4" class="edge"><title>SampleFrame&#45;&gt;DateTypeProperties</title>
<path fill="none" stroke="black" d="M104.474,-1427.35C139.845,-1431.05 195.291,-1430.73 228.673,-1400 307.543,-1327.4 345.811,-999.171 358.594,-861.775"/>
<text text-anchor="middle" x="193.673" y="-1430.6" font-family="Times New Roman,serif" font-size="8.00">ValidPeriod</text>
</g>
<!-- SampleFrame&#45;&gt;DateTypeProperties -->
<g id="edge5" class="edge"><title>SampleFrame&#45;&gt;DateTypeProperties</title>
<path fill="none" stroke="black" d="M100.051,-1411.8C144.827,-1395.84 226.431,-1366.52 228.673,-1364 294.987,-1289.37 339.672,-991.566 356.366,-861.874"/>
<text text-anchor="middle" x="193.673" y="-1392.6" font-family="Times New Roman,serif" font-size="8.00">ReferencePeriod</text>
</g>
<!-- Universe -->
<g id="ItemTypeUniverse" class="node"><title></title><ellipse fill="#f7b733" stroke="black" cx="70.3363" cy="-1368" rx="27" ry="18" style="filter: url(#dropshadow)"/>
<text text-anchor="middle" x="70.3363" y="-1366.1" font-family="Times New Roman,serif" font-size="8.00">Universe</text>
</g>
<!-- Universe&#45;&gt;DateTypeProperties -->
<g id="edge6" class="edge"><title>Universe&#45;&gt;DateTypeProperties</title>
<path fill="none" stroke="black" d="M97.1362,-1365.55C132.067,-1360.83 194.012,-1347.27 228.673,-1309 288.547,-1242.88 335.702,-981.502 354.647,-861.64"/>
<text text-anchor="middle" x="193.673" y="-1353.6" font-family="Times New Roman,serif" font-size="8.00">TimePeriod</text>
</g>
<!-- AdditionalInformationType -->
<g id="ReusableTypeAdditionalInformationType" class="node"><title></title><ellipse fill="#f7b733" stroke="black" cx="70.3363" cy="-1314" rx="64.8284" ry="18" style="filter: url(#dropshadow)"/>
<text text-anchor="middle" x="70.3363" y="-1312.1" font-family="Times New Roman,serif" font-size="8.00">AdditionalInformationType</text>
</g>
<!-- AdditionalInformationType&#45;&gt;DateTypeProperties -->
<g id="edge7" class="edge"><title>AdditionalInformationType&#45;&gt;DateTypeProperties</title>
<path fill="none" stroke="black" d="M127.091,-1305.11C160.805,-1296.97 202.239,-1281.63 228.673,-1253 330.929,-1142.26 355.931,-957.123 361.908,-861.802"/>
<text text-anchor="middle" x="193.673" y="-1298.6" font-family="Times New Roman,serif" font-size="8.00">EffectivePeriod</text>
</g>
<!-- AddressType -->
<g id="ReusableTypeAddressType" class="node"><title></title><ellipse fill="#f7b733" stroke="black" cx="70.3363" cy="-1260" rx="35.3371" ry="18" style="filter: url(#dropshadow)"/>
<text text-anchor="middle" x="70.3363" y="-1258.1" font-family="Times New Roman,serif" font-size="8.00">AddressType</text>
</g>
<!-- AddressType&#45;&gt;DateTypeProperties -->
<g id="edge8" class="edge"><title>AddressType&#45;&gt;DateTypeProperties</title>
<path fill="none" stroke="black" d="M104.258,-1254.97C139.706,-1247.87 195.469,-1231.57 228.673,-1196 316.919,-1101.47 347.734,-946.813 358.307,-861.774"/>
<text text-anchor="middle" x="193.673" y="-1242.6" font-family="Times New Roman,serif" font-size="8.00">EffectivePeriod</text>
</g>
<!-- ApplicationDetailsType -->
<g id="ReusableTypeApplicationDetailsType" class="node"><title></title><ellipse fill="#f7b733" stroke="black" cx="70.3363" cy="-1206" rx="57.0809" ry="18" style="filter: url(#dropshadow)"/>
<text text-anchor="middle" x="70.3363" y="-1204.1" font-family="Times New Roman,serif" font-size="8.00">ApplicationDetailsType</text>
</g>
<!-- ApplicationDetailsType&#45;&gt;DateTypeProperties -->
<g id="edge9" class="edge"><title>ApplicationDetailsType&#45;&gt;DateTypeProperties</title>
<path fill="none" stroke="black" d="M118.417,-1196.21C153.117,-1186.75 199.217,-1169.12 228.673,-1138 302.788,-1059.69 338.133,-935.556 353.428,-861.808"/>
<text text-anchor="middle" x="193.673" y="-1185.6" font-family="Times New Roman,serif" font-size="8.00">DateOfSample</text>
</g>
<!-- CitationType -->
<g id="ReusableTypeCitationType0" class="node"><title></title><ellipse fill="#f7b733" stroke="black" cx="70.3363" cy="-1152" rx="36.1063" ry="18" style="filter: url(#dropshadow)"/>
<text text-anchor="middle" x="70.3363" y="-1150.1" font-family="Times New Roman,serif" font-size="8.00">CitationType</text>
</g>
<!-- CitationType&#45;&gt;DateTypeProperties -->
<g id="edge10" class="edge"><title>CitationType&#45;&gt;DateTypeProperties</title>
<path fill="none" stroke="black" d="M103.686,-1144.81C138.634,-1135.53 193.961,-1116.21 228.673,-1081 289.889,-1018.9 327.612,-923.636 347.11,-861.819"/>
<text text-anchor="middle" x="193.673" y="-1127.6" font-family="Times New Roman,serif" font-size="8.00">PublicationDate</text>
</g>
<!-- CollectionEventType -->
<g id="ReusableTypeCollectionEventType1" class="node"><title></title><ellipse fill="#f7b733" stroke="black" cx="70.3363" cy="-1098" rx="52.3706" ry="18" style="filter: url(#dropshadow)"/>
<text text-anchor="middle" x="70.3363" y="-1096.1" font-family="Times New Roman,serif" font-size="8.00">CollectionEventType</text>
</g>
<!-- CollectionEventType&#45;&gt;DateTypeProperties -->
<g id="edge11" class="edge"><title>CollectionEventType&#45;&gt;DateTypeProperties</title>
<path fill="none" stroke="black" d="M111.648,-1086.91C146.145,-1075.73 195.368,-1055.56 228.673,-1024 277.343,-977.881 314.895,-910.453 337.897,-861.827"/>
<text text-anchor="middle" x="193.673" y="-1070.6" font-family="Times New Roman,serif" font-size="8.00">DataCollectionDate</text>
</g>
<!-- DefiningCharacteristicType -->
<g id="ReusableTypeDefiningCharacteristicType2" class="node"><title></title><ellipse fill="#f7b733" stroke="black" cx="70.3363" cy="-1044" rx="64.1937" ry="18" style="filter: url(#dropshadow)"/>
<text text-anchor="middle" x="70.3363" y="-1042.1" font-family="Times New Roman,serif" font-size="8.00">DefiningCharacteristicType</text>
</g>
<!-- DefiningCharacteristicType&#45;&gt;DateTypeProperties -->
<g id="edge12" class="edge"><title>DefiningCharacteristicType&#45;&gt;DateTypeProperties</title>
<path fill="none" stroke="black" d="M113.033,-1030.39C146.782,-1017.93 194.204,-997.004 228.673,-968 265.025,-937.411 298.637,-895.895 323.23,-861.909"/>
<text text-anchor="middle" x="193.673" y="-1013.6" font-family="Times New Roman,serif" font-size="8.00">GeographicTime</text>
</g>
<!-- DevelopmentProcessStepType -->
<g id="ReusableTypeDevelopmentProcessStepType3" class="node"><title></title><ellipse fill="#f7b733" stroke="black" cx="70.3363" cy="-990" rx="70.173" ry="18" style="filter: url(#dropshadow)"/>
<text text-anchor="middle" x="70.3363" y="-988.1" font-family="Times New Roman,serif" font-size="8.00">DevelopmentProcessStepType</text>
</g>
<!-- DevelopmentProcessStepType&#45;&gt;DateTypeProperties -->
<g id="edge13" class="edge"><title>DevelopmentProcessStepType&#45;&gt;DateTypeProperties</title>
<path fill="none" stroke="black" d="M111.669,-975.299C121.274,-971.523 131.419,-967.304 140.673,-963 181.068,-944.212 191.911,-940.167 228.673,-915 251.972,-899.049 275.97,-879.831 297.151,-861.757"/>
<text text-anchor="middle" x="193.673" y="-957.6" font-family="Times New Roman,serif" font-size="8.00">ActivityDate</text>
</g>
<!-- EmailType -->
<g id="ReusableTypeEmailType4" class="node"><title></title><ellipse fill="#f7b733" stroke="black" cx="70.3363" cy="-936" rx="31.5313" ry="18" style="filter: url(#dropshadow)"/>
<text text-anchor="middle" x="70.3363" y="-934.1" font-family="Times New Roman,serif" font-size="8.00">EmailType</text>
</g>
<!-- EmailType&#45;&gt;DateTypeProperties -->
<g id="edge14" class="edge"><title>EmailType&#45;&gt;DateTypeProperties</title>
<path fill="none" stroke="black" d="M97.1563,-926.335C110.261,-921.331 126.389,-915.022 140.673,-909 174.729,-894.642 211.044,-877.757 244.265,-861.658"/>
<text text-anchor="middle" x="193.673" y="-904.6" font-family="Times New Roman,serif" font-size="8.00">EffectivePeriod</text>
</g>
<!-- EmbargoType -->
<g id="ReusableTypeEmbargoType5" class="node"><title></title><ellipse fill="#f7b733" stroke="black" cx="70.3363" cy="-882" rx="37.3742" ry="18" style="filter: url(#dropshadow)"/>
<text text-anchor="middle" x="70.3363" y="-880.1" font-family="Times New Roman,serif" font-size="8.00">EmbargoType</text>
</g>
<!-- EmbargoType&#45;&gt;DateTypeProperties -->
<g id="edge15" class="edge"><title>EmbargoType&#45;&gt;DateTypeProperties</title>
<path fill="none" stroke="black" d="M103.178,-873.177C135.907,-864.109 188.968,-849.407 238.688,-835.631"/>
<text text-anchor="middle" x="193.673" y="-858.6" font-family="Times New Roman,serif" font-size="8.00">Date</text>
</g>
<!-- GeographicBoundaryType -->
<g id="ReusableTypeGeographicBoundaryType6" class="node"><title></title><ellipse fill="#f7b733" stroke="black" cx="70.3363" cy="-828" rx="60.8874" ry="18" style="filter: url(#dropshadow)"/>
<text text-anchor="middle" x="70.3363" y="-826.1" font-family="Times New Roman,serif" font-size="8.00">GeographicBoundaryType</text>
</g>
<!-- GeographicBoundaryType&#45;&gt;DateTypeProperties -->
<g id="edge16" class="edge"><title>GeographicBoundaryType&#45;&gt;DateTypeProperties</title>
<path fill="none" stroke="black" d="M128.396,-822.73C159.941,-819.817 200.439,-816.076 238.915,-812.523"/>
<text text-anchor="middle" x="193.673" y="-822.6" font-family="Times New Roman,serif" font-size="8.00">GeographicTime</text>
</g>
<!-- IndividualLanguageType -->
<g id="ReusableTypeIndividualLanguageType7" class="node"><title></title><ellipse fill="#f7b733" stroke="black" cx="70.3363" cy="-774" rx="57.0809" ry="18" style="filter: url(#dropshadow)"/>
<text text-anchor="middle" x="70.3363" y="-772.1" font-family="Times New Roman,serif" font-size="8.00">IndividualLanguageType</text>
</g>
<!-- IndividualLanguageType&#45;&gt;DateTypeProperties -->
<g id="edge17" class="edge"><title>IndividualLanguageType&#45;&gt;DateTypeProperties</title>
<path fill="none" stroke="black" d="M125.637,-779.015C157.581,-781.966 199.37,-785.825 239.002,-789.486"/>
<text text-anchor="middle" x="193.673" y="-791.6" font-family="Times New Roman,serif" font-size="8.00">EffectivePeriod</text>
</g>
<!-- IndividualNameType -->
<g id="ReusableTypeIndividualNameType8" class="node"><title></title><ellipse fill="#f7b733" stroke="black" cx="70.3363" cy="-720" rx="50.4666" ry="18" style="filter: url(#dropshadow)"/>
<text text-anchor="middle" x="70.3363" y="-718.1" font-family="Times New Roman,serif" font-size="8.00">IndividualNameType</text>
</g>
<!-- IndividualNameType&#45;&gt;DateTypeProperties -->
<g id="edge18" class="edge"><title>IndividualNameType&#45;&gt;DateTypeProperties</title>
<path fill="none" stroke="black" d="M110.762,-730.924C143.826,-740.085 192.912,-753.686 239.065,-766.474"/>
<text text-anchor="middle" x="193.673" y="-765.6" font-family="Times New Roman,serif" font-size="8.00">EffectivePeriod</text>
</g>
<!-- InstantMessagingType -->
<g id="ReusableTypeInstantMessagingType9" class="node"><title></title><ellipse fill="#f7b733" stroke="black" cx="70.3363" cy="-666" rx="53.7736" ry="18" style="filter: url(#dropshadow)"/>
<text text-anchor="middle" x="70.3363" y="-664.1" font-family="Times New Roman,serif" font-size="8.00">InstantMessagingType</text>
</g>
<!-- InstantMessagingType&#45;&gt;DateTypeProperties -->
<g id="edge19" class="edge"><title>InstantMessagingType&#45;&gt;DateTypeProperties</title>
<path fill="none" stroke="black" d="M106.788,-679.298C117.715,-683.532 129.743,-688.332 140.673,-693 186.741,-712.677 237.043,-736.801 278.194,-757.254"/>
<text text-anchor="middle" x="193.673" y="-735.6" font-family="Times New Roman,serif" font-size="8.00">EffectivePeriod</text>
</g>
<!-- LifecycleEventType -->
<g id="ReusableTypeLifecycleEventType0" class="node"><title></title><ellipse fill="#f7b733" stroke="black" cx="70.3363" cy="-612" rx="50.4666" ry="18" style="filter: url(#dropshadow)"/>
<text text-anchor="middle" x="70.3363" y="-610.1" font-family="Times New Roman,serif" font-size="8.00">LifecycleEventType</text>
</g>
<!-- LifecycleEventType&#45;&gt;DateTypeProperties -->
<g id="edge20" class="edge"><title>LifecycleEventType&#45;&gt;DateTypeProperties</title>
<path fill="none" stroke="black" d="M106.648,-624.679C117.679,-628.924 129.802,-633.886 140.673,-639 181.18,-658.055 191.789,-662.632 228.673,-688 259.175,-708.98 291.035,-735.403 316.14,-757.423"/>
<text text-anchor="middle" x="193.673" y="-690.6" font-family="Times New Roman,serif" font-size="8.00">Date</text>
</g>
<!-- LocationNameType -->
<g id="ReusableTypeLocationNameType1" class="node"><title></title><ellipse fill="#f7b733" stroke="black" cx="70.3363" cy="-558" rx="49.1982" ry="18" style="filter: url(#dropshadow)"/>
<text text-anchor="middle" x="70.3363" y="-556.1" font-family="Times New Roman,serif" font-size="8.00">LocationNameType</text>
</g>
<!-- LocationNameType&#45;&gt;DateTypeProperties -->
<g id="edge21" class="edge"><title>LocationNameType&#45;&gt;DateTypeProperties</title>
<path fill="none" stroke="black" d="M106.346,-570.43C117.474,-574.699 129.729,-579.737 140.673,-585 181.41,-604.593 194.249,-606.701 228.673,-636 270.552,-671.646 309.296,-721.499 334.436,-757.058"/>
<text text-anchor="middle" x="193.673" y="-638.6" font-family="Times New Roman,serif" font-size="8.00">EffectivePeriod</text>
</g>
<!-- LocationValueBundleType -->
<g id="ReusableTypeLocationValueBundleType2" class="node"><title></title><ellipse fill="#f7b733" stroke="black" cx="70.3363" cy="-504" rx="61.6562" ry="18" style="filter: url(#dropshadow)"/>
<text text-anchor="middle" x="70.3363" y="-502.1" font-family="Times New Roman,serif" font-size="8.00">LocationValueBundleType</text>
</g>
<!-- LocationValueBundleType&#45;&gt;DateTypeProperties -->
<g id="edge22" class="edge"><title>LocationValueBundleType&#45;&gt;DateTypeProperties</title>
<path fill="none" stroke="black" d="M113.756,-516.884C148.159,-529.092 196.118,-550.318 228.673,-582 281.515,-633.426 322.345,-709.599 344.681,-757.216"/>
<text text-anchor="middle" x="193.673" y="-584.6" font-family="Times New Roman,serif" font-size="8.00">GeographicTime</text>
</g>
<!-- LocationValueType -->
<g id="ReusableTypeLocationValueType3" class="node"><title></title><ellipse fill="#f7b733" stroke="black" cx="70.3363" cy="-450" rx="48.5642" ry="18" style="filter: url(#dropshadow)"/>
<text text-anchor="middle" x="70.3363" y="-448.1" font-family="Times New Roman,serif" font-size="8.00">LocationValueType</text>
</g>
<!-- LocationValueType&#45;&gt;DateTypeProperties -->
<g id="edge23" class="edge"><title>LocationValueType&#45;&gt;DateTypeProperties</title>
<path fill="none" stroke="black" d="M111.344,-460.043C146.359,-470.676 196.521,-490.635 228.673,-524 294.262,-592.066 333.622,-698.128 351.715,-757.313"/>
<text text-anchor="middle" x="193.673" y="-526.6" font-family="Times New Roman,serif" font-size="8.00">GeographicTime</text>
</g>
<!-- OrganizationNameType -->
<g id="ReusableTypeOrganizationNameType4" class="node"><title></title><ellipse fill="#f7b733" stroke="black" cx="70.3363" cy="-396" rx="57.0809" ry="18" style="filter: url(#dropshadow)"/>
<text text-anchor="middle" x="70.3363" y="-394.1" font-family="Times New Roman,serif" font-size="8.00">OrganizationNameType</text>
</g>
<!-- OrganizationNameType&#45;&gt;DateTypeProperties -->
<g id="edge24" class="edge"><title>OrganizationNameType&#45;&gt;DateTypeProperties</title>
<path fill="none" stroke="black" d="M117.437,-406.36C152.31,-416.411 199.091,-434.967 228.673,-467 306.959,-551.775 342.524,-687.838 356.283,-757.23"/>
<text text-anchor="middle" x="193.673" y="-469.6" font-family="Times New Roman,serif" font-size="8.00">EffectivePeriod</text>
</g>
<!-- PrivateImageType -->
<g id="ReusableTypePrivateImageType5" class="node"><title></title><ellipse fill="#f7b733" stroke="black" cx="70.3363" cy="-342" rx="46.5254" ry="18" style="filter: url(#dropshadow)"/>
<text text-anchor="middle" x="70.3363" y="-340.1" font-family="Times New Roman,serif" font-size="8.00">PrivateImageType</text>
</g>
<!-- PrivateImageType&#45;&gt;DateTypeProperties -->
<g id="edge25" class="edge"><title>PrivateImageType&#45;&gt;DateTypeProperties</title>
<path fill="none" stroke="black" d="M112.758,-349.573C148.211,-358.138 198.214,-375.502 228.673,-409 320.946,-510.48 350.65,-678.082 359.807,-757.141"/>
<text text-anchor="middle" x="193.673" y="-411.6" font-family="Times New Roman,serif" font-size="8.00">EffectivePeriod</text>
</g>
<!-- ResearcherIDType -->
<g id="ReusableTypeResearcherIDType6" class="node"><title></title><ellipse fill="#f7b733" stroke="black" cx="70.3363" cy="-288" rx="46.5254" ry="18" style="filter: url(#dropshadow)"/>
<text text-anchor="middle" x="70.3363" y="-286.1" font-family="Times New Roman,serif" font-size="8.00">ResearcherIDType</text>
</g>
<!-- ResearcherIDType&#45;&gt;DateTypeProperties -->
<g id="edge26" class="edge"><title>ResearcherIDType&#45;&gt;DateTypeProperties</title>
<path fill="none" stroke="black" d="M113.65,-294.681C149.181,-302.466 198.799,-318.781 228.673,-352 334.92,-470.145 357.63,-669.176 362.424,-757.047"/>
<text text-anchor="middle" x="193.673" y="-354.6" font-family="Times New Roman,serif" font-size="8.00">EffectivePeriod</text>
</g>
<!-- ResultDetailType -->
<g id="ReusableTypeResultDetailType7" class="node"><title></title><ellipse fill="#f7b733" stroke="black" cx="70.3363" cy="-234" rx="43.8539" ry="18" style="filter: url(#dropshadow)"/>
<text text-anchor="middle" x="70.3363" y="-232.1" font-family="Times New Roman,serif" font-size="8.00">ResultDetailType</text>
</g>
<!-- ResultDetailType&#45;&gt;DateTypeProperties -->
<g id="edge27" class="edge"><title>ResultDetailType&#45;&gt;DateTypeProperties</title>
<path fill="none" stroke="black" d="M112.057,-239.592C147.797,-246.637 198.631,-262.21 228.673,-296 348.664,-430.965 363.682,-661.243 364.421,-757.107"/>
<text text-anchor="middle" x="193.673" y="-298.6" font-family="Times New Roman,serif" font-size="8.00">ResultsDate</text>
</g>
<!-- RoleType -->
<g id="ReusableTypeRoleType8" class="node"><title></title><ellipse fill="#f7b733" stroke="black" cx="70.3363" cy="-180" rx="28.8574" ry="18" style="filter: url(#dropshadow)"/>
<text text-anchor="middle" x="70.3363" y="-178.1" font-family="Times New Roman,serif" font-size="8.00">RoleType</text>
</g>
<!-- RoleType&#45;&gt;DateTypeProperties -->
<g id="edge28" class="edge"><title>RoleType&#45;&gt;DateTypeProperties</title>
<path fill="none" stroke="black" d="M99.0836,-182.767C134.468,-187.811 195.081,-201.802 228.673,-240 297.394,-318.146 343.489,-638.956 358.419,-757.077"/>
<text text-anchor="middle" x="193.673" y="-242.6" font-family="Times New Roman,serif" font-size="8.00">EffectivePeriod</text>
</g>
<!-- SoftwareType -->
<g id="ReusableTypeSoftwareType9" class="node"><title></title><ellipse fill="#f7b733" stroke="black" cx="70.3363" cy="-126" rx="36.7401" ry="18" style="filter: url(#dropshadow)"/>
<text text-anchor="middle" x="70.3363" y="-124.1" font-family="Times New Roman,serif" font-size="8.00">SoftwareType</text>
</g>
<!-- SoftwareType&#45;&gt;DateTypeProperties -->
<g id="edge29" class="edge"><title>SoftwareType&#45;&gt;DateTypeProperties</title>
<path fill="none" stroke="black" d="M106.547,-129.523C142.604,-135.054 197.632,-149.17 228.673,-185 303.992,-271.943 346.622,-631.205 359.479,-757.142"/>
<text text-anchor="middle" x="193.673" y="-187.6" font-family="Times New Roman,serif" font-size="8.00">Date</text>
</g>
<!-- TelephoneType -->
<g id="ReusableTypeTelephoneType0" class="node"><title></title><ellipse fill="#f7b733" stroke="black" cx="70.3363" cy="-72" rx="41.3155" ry="18" style="filter: url(#dropshadow)"/>
<text text-anchor="middle" x="70.3363" y="-70.1" font-family="Times New Roman,serif" font-size="8.00">TelephoneType</text>
</g>
<!-- TelephoneType&#45;&gt;DateTypeProperties -->
<g id="edge30" class="edge"><title>TelephoneType&#45;&gt;DateTypeProperties</title>
<path fill="none" stroke="black" d="M111.082,-75.8443C147.172,-81.511 199.136,-95.5021 228.673,-130 310.628,-225.721 349.448,-623.405 360.354,-757.003"/>
<text text-anchor="middle" x="193.673" y="-132.6" font-family="Times New Roman,serif" font-size="8.00">EffectivePeriod</text>
</g>
<!-- VersionDistinctionType -->
<g id="ReusableTypeVersionDistinctionType1" class="node"><title></title><ellipse fill="#f7b733" stroke="black" cx="70.3363" cy="-18" rx="57.0809" ry="18" style="filter: url(#dropshadow)"/>
<text text-anchor="middle" x="70.3363" y="-16.1" font-family="Times New Roman,serif" font-size="8.00">VersionDistinctionType</text>
</g>
<!-- VersionDistinctionType&#45;&gt;DateTypeProperties -->
<g id="edge31" class="edge"><title>VersionDistinctionType&#45;&gt;DateTypeProperties</title>
<path fill="none" stroke="black" d="M124.651,-23.7518C159.359,-30.3549 202.83,-44.5378 228.673,-75 317.409,-179.599 352.124,-616.594 361.128,-757.21"/>
<text text-anchor="middle" x="193.673" y="-77.6" font-family="Times New Roman,serif" font-size="8.00">EffectivePeriod</text>
</g>
</g>
</svg>
