<?xml version="1.0" encoding="UTF-8" standalone="no"?>
<!DOCTYPE svg PUBLIC "-//W3C//DTD SVG 1.1//EN"
 "http://www.w3.org/Graphics/SVG/1.1/DTD/svg11.dtd">
<!-- Generated by graphviz version 2.38.0 (20140413.2041)
 -->
<!-- Title: G Pages: 1 -->
<svg width="965pt" height="422pt"
 viewBox="0.00 0.00 964.67 422.00" xmlns="http://www.w3.org/2000/svg" xmlns:xlink="http://www.w3.org/1999/xlink">
<filter id = "dropshadow" height = "130%" ><feGaussianBlur in= "SourceAlpha" stdDeviation = "3"/><!--stdDeviation is how much to blur--><feOffset dx = "2" dy = "2" result = "offsetblur"/><!--how much to offset--><feMerge><feMergeNode/><!--this contains the offset blurred image--><feMergeNode in= "SourceGraphic"/><!--this contains the element that the filter is applied to --></feMerge></filter>
<g id="graph0" class="graph" transform="scale(1 1) rotate(0) translate(4 418)">
<title>G</title>
<g id="clust1" class="cluster"><title>clusterMaintainable</title>
<polygon fill="#4abdac" stroke="black" points="322.673,-63 322.673,-332 948.673,-332 948.673,-63 322.673,-63" style="filter: url(#dropshadow)"/>
<text text-anchor="middle" x="635.673" y="-321.6" font-family="Times New Roman,serif" font-size="8.00">Maintainable</text>
</g>
<!-- MaintainableProperties -->
<g id="ItemTypeMaintainableProperties" class="node"><title></title><polygon fill="#f7b733" stroke="black" points="330.673,-180.5 330.673,-233.5 565.673,-233.5 565.673,-180.5 330.673,-180.5" style="filter: url(#dropshadow)"/>
<text text-anchor="middle" x="357.173" y="-205.1" font-family="Times New Roman,serif" font-size="8.00">Properties</text>
<polyline fill="none" stroke="black" points="383.673,-180.5 383.673,-233.5 "/>
<text text-anchor="start" x="391.673" y="-223.1" font-family="Times New Roman,serif" font-size="8.00">Note : NoteType[0...n] </text>
<text text-anchor="start" x="391.673" y="-214.1" font-family="Times New Roman,serif" font-size="8.00">Software : SoftwareType[0...n] </text>
<text text-anchor="start" x="391.673" y="-205.1" font-family="Times New Roman,serif" font-size="8.00">MetadataQuality : MetadataQualityType[0...n] </text>
<text text-anchor="start" x="391.673" y="-196.1" font-family="Times New Roman,serif" font-size="8.00">ExternalReferenceDefaultURI : anyURI[0...1] </text>
<text text-anchor="start" x="391.673" y="-187.1" font-family="Times New Roman,serif" font-size="8.00">Lang : language[0...1] </text>
</g>
<!-- MaintainableNoteType -->
<g id="ReusableTypeMaintainableNoteType" class="node"><title></title><polygon fill="#fc4a1a" stroke="black" points="685.173,-72 685.173,-152 915.173,-152 915.173,-72 685.173,-72" style="filter: url(#dropshadow)"/>
<text text-anchor="middle" x="711.673" y="-110.1" font-family="Times New Roman,serif" font-size="8.00">NoteType</text>
<polyline fill="none" stroke="black" points="738.173,-72 738.173,-152 "/>
<text text-anchor="start" x="746.173" y="-141.6" font-family="Times New Roman,serif" font-size="8.00">TypeOfNote : CodeValueType[0...1] </text>
<text text-anchor="start" x="746.173" y="-132.6" font-family="Times New Roman,serif" font-size="8.00">NoteSubject : CodeValueType[0...1] </text>
<text text-anchor="start" x="746.173" y="-123.6" font-family="Times New Roman,serif" font-size="8.00">Relationship : RelationshipType[0...n] </text>
<text text-anchor="start" x="746.173" y="-114.6" font-family="Times New Roman,serif" font-size="8.00">Responsibility : string[0...1] </text>
<text text-anchor="start" x="746.173" y="-105.6" font-family="Times New Roman,serif" font-size="8.00">Header : InternationalStringType[0...1] </text>
<text text-anchor="start" x="746.173" y="-96.6" font-family="Times New Roman,serif" font-size="8.00">NoteContent : StructuredStringType[0...1] </text>
<text text-anchor="start" x="746.173" y="-87.6" font-family="Times New Roman,serif" font-size="8.00">ProprietaryInfo : ProprietaryInfoType[0...1] </text>
<text text-anchor="start" x="746.173" y="-78.6" font-family="Times New Roman,serif" font-size="8.00">Lang : language[0...1] </text>
</g>
<!-- MaintainableProperties&#45;&gt;MaintainableNoteType -->
<g id="edge1" class="edge"><title>MaintainableProperties&#45;&gt;MaintainableNoteType</title>
<path fill="none" stroke="black" d="M547.132,-180.411C590.006,-168.774 640.586,-155.045 685.141,-142.951"/>
<text text-anchor="middle" x="612.673" y="-171.6" font-family="Times New Roman,serif" font-size="8.00">Note</text>
</g>
<!-- MaintainableSoftwareType -->
<g id="ReusableTypeMaintainableSoftwareType" class="node"><title></title><polygon fill="#fc4a1a" stroke="black" points="687.173,-171.5 687.173,-242.5 913.173,-242.5 913.173,-171.5 687.173,-171.5" style="filter: url(#dropshadow)"/>
<text text-anchor="middle" x="719.673" y="-205.1" font-family="Times New Roman,serif" font-size="8.00">SoftwareType</text>
<polyline fill="none" stroke="black" points="752.173,-171.5 752.173,-242.5 "/>
<text text-anchor="start" x="760.173" y="-232.1" font-family="Times New Roman,serif" font-size="8.00">SoftwareName : NameType[0...n] </text>
<text text-anchor="start" x="760.173" y="-223.1" font-family="Times New Roman,serif" font-size="8.00">SoftwarePackage : CodeValueType[0...1] </text>
<text text-anchor="start" x="760.173" y="-214.1" font-family="Times New Roman,serif" font-size="8.00">SoftwareVersion : string[0...1] </text>
<text text-anchor="start" x="760.173" y="-205.1" font-family="Times New Roman,serif" font-size="8.00">Description : StructuredStringType[0...1] </text>
<text text-anchor="start" x="760.173" y="-196.1" font-family="Times New Roman,serif" font-size="8.00">Date : DateType[0...1] </text>
<text text-anchor="start" x="760.173" y="-187.1" font-family="Times New Roman,serif" font-size="8.00">Function : CodeValueType[0...n] </text>
<text text-anchor="start" x="760.173" y="-178.1" font-family="Times New Roman,serif" font-size="8.00">Lang : language[0...1] </text>
</g>
<!-- MaintainableProperties&#45;&gt;MaintainableSoftwareType -->
<g id="edge2" class="edge"><title>MaintainableProperties&#45;&gt;MaintainableSoftwareType</title>
<path fill="none" stroke="black" d="M565.718,-207C604.793,-207 648.262,-207 686.996,-207"/>
<text text-anchor="middle" x="612.673" y="-209.6" font-family="Times New Roman,serif" font-size="8.00">Software</text>
</g>
<!-- MaintainableMetadataQualityType -->
<g id="ReusableTypeMaintainableMetadataQualityType" class="node"><title></title><polygon fill="#fc4a1a" stroke="black" points="659.673,-262 659.673,-306 940.673,-306 940.673,-262 659.673,-262" style="filter: url(#dropshadow)"/>
<text text-anchor="middle" x="706.173" y="-282.1" font-family="Times New Roman,serif" font-size="8.00">MetadataQualityType</text>
<polyline fill="none" stroke="black" points="752.673,-262 752.673,-306 "/>
<text text-anchor="start" x="760.673" y="-295.6" font-family="Times New Roman,serif" font-size="8.00">TypeOfMetadataQuality : CodeValueType[0...1] </text>
<text text-anchor="start" x="760.673" y="-286.6" font-family="Times New Roman,serif" font-size="8.00">MeasurePurpose : StructuredStringType[0...1] </text>
<text text-anchor="start" x="760.673" y="-277.6" font-family="Times New Roman,serif" font-size="8.00">MeasureValue : CodeValueType[0...1] </text>
<text text-anchor="start" x="760.673" y="-268.6" font-family="Times New Roman,serif" font-size="8.00">Description : StructuredStringType[0...1] </text>
</g>
<!-- MaintainableProperties&#45;&gt;MaintainableMetadataQualityType -->
<g id="edge3" class="edge"><title>MaintainableProperties&#45;&gt;MaintainableMetadataQualityType</title>
<path fill="none" stroke="black" d="M565.718,-232.64C608.87,-242.133 657.379,-252.805 698.954,-261.952"/>
<text text-anchor="middle" x="612.673" y="-250.6" font-family="Times New Roman,serif" font-size="8.00">MetadataQuality</text>
</g>
<!-- DevelopmentPlan -->
<g id="ItemTypeDevelopmentPlan" class="node"><title></title><ellipse fill="#f7b733" stroke="black" cx="70.3363" cy="-396" rx="45.2568" ry="18" style="filter: url(#dropshadow)"/>
<text text-anchor="middle" x="70.3363" y="-394.1" font-family="Times New Roman,serif" font-size="8.00">DevelopmentPlan</text>
</g>
<!-- DevelopmentPlan&#45;&gt;MaintainableProperties -->
<g id="edge4" class="edge"><title>DevelopmentPlan&#45;&gt;MaintainableProperties</title>
<path fill="none" stroke="black" d="M115.582,-398.239C166.275,-398.884 250.364,-393.948 312.673,-360 326.765,-352.322 340.086,-342.56 352.469,-331.692"/>
<text text-anchor="middle" x="235.673" y="-400.6" font-family="Times New Roman,serif" font-size="8.00">DevelopmentObjectReference_Maintainable</text>
</g>
<!-- GenericMap -->
<g id="ItemTypeGenericMap" class="node"><title></title><ellipse fill="#f7b733" stroke="black" cx="70.3363" cy="-342" rx="33.433" ry="18" style="filter: url(#dropshadow)"/>
<text text-anchor="middle" x="70.3363" y="-340.1" font-family="Times New Roman,serif" font-size="8.00">GenericMap</text>
</g>
<!-- GenericMap&#45;&gt;MaintainableProperties -->
<g id="edge5" class="edge"><title>GenericMap&#45;&gt;MaintainableProperties</title>
<path fill="none" stroke="black" d="M103.637,-345.01C151.349,-348.167 242.575,-349.21 312.673,-320 316.057,-318.59 319.421,-317.062 322.758,-315.432"/>
<text text-anchor="middle" x="235.673" y="-349.6" font-family="Times New Roman,serif" font-size="8.00">SourceSchemeReference</text>
</g>
<!-- GenericMap&#45;&gt;MaintainableProperties -->
<g id="edge6" class="edge"><title>GenericMap&#45;&gt;MaintainableProperties</title>
<path fill="none" stroke="black" d="M97.7188,-331.283C114.855,-324.66 137.805,-316.421 158.673,-311 225.856,-293.547 247.382,-308.566 312.673,-285 316.082,-283.769 319.504,-282.453 322.927,-281.064"/>
<text text-anchor="middle" x="235.673" y="-313.6" font-family="Times New Roman,serif" font-size="8.00">TargetSchemeReference</text>
</g>
<!-- BasedOnObjectType -->
<g id="ReusableTypeBasedOnObjectType" class="node"><title></title><ellipse fill="#f7b733" stroke="black" cx="70.3363" cy="-288" rx="49.8323" ry="18" style="filter: url(#dropshadow)"/>
<text text-anchor="middle" x="70.3363" y="-286.1" font-family="Times New Roman,serif" font-size="8.00">BasedOnObjectType</text>
</g>
<!-- BasedOnObjectType&#45;&gt;MaintainableProperties -->
<g id="edge7" class="edge"><title>BasedOnObjectType&#45;&gt;MaintainableProperties</title>
<path fill="none" stroke="black" d="M115.527,-280.151C164.038,-271.359 244.146,-256.322 312.673,-241 316.066,-240.241 319.505,-239.46 322.972,-238.661"/>
<text text-anchor="middle" x="235.673" y="-274.6" font-family="Times New Roman,serif" font-size="8.00">BasedOnReference_Maintainable</text>
</g>
<!-- DevelopmentProcessStepType -->
<g id="ReusableTypeDevelopmentProcessStepType" class="node"><title></title><ellipse fill="#f7b733" stroke="black" cx="70.3363" cy="-234" rx="70.173" ry="18" style="filter: url(#dropshadow)"/>
<text text-anchor="middle" x="70.3363" y="-232.1" font-family="Times New Roman,serif" font-size="8.00">DevelopmentProcessStepType</text>
</g>
<!-- DevelopmentProcessStepType&#45;&gt;MaintainableProperties -->
<g id="edge8" class="edge"><title>DevelopmentProcessStepType&#45;&gt;MaintainableProperties</title>
<path fill="none" stroke="black" d="M138.441,-229.343C186.868,-225.966 253.813,-221.261 312.673,-217 316.048,-216.756 319.471,-216.507 322.925,-216.255"/>
<text text-anchor="middle" x="235.673" y="-230.6" font-family="Times New Roman,serif" font-size="8.00">DevelopmentObjectReference_Maintainable</text>
</g>
<!-- ItemMapType -->
<g id="ReusableTypeItemMapType" class="node"><title></title><ellipse fill="#f7b733" stroke="black" cx="70.3363" cy="-180" rx="38.6432" ry="18" style="filter: url(#dropshadow)"/>
<text text-anchor="middle" x="70.3363" y="-178.1" font-family="Times New Roman,serif" font-size="8.00">ItemMapType</text>
</g>
<!-- ItemMapType&#45;&gt;MaintainableProperties -->
<g id="edge9" class="edge"><title>ItemMapType&#45;&gt;MaintainableProperties</title>
<path fill="none" stroke="black" d="M108.747,-182.688C158.291,-186.247 248.114,-192.7 322.776,-198.063"/>
<text text-anchor="middle" x="235.673" y="-199.6" font-family="Times New Roman,serif" font-size="8.00">SourceItemReference_Maintainable</text>
</g>
<!-- ItemMapType&#45;&gt;MaintainableProperties -->
<g id="edge10" class="edge"><title>ItemMapType&#45;&gt;MaintainableProperties</title>
<path fill="none" stroke="black" d="M108.723,-177.911C124.179,-177.146 142.284,-176.375 158.673,-176 227.099,-174.434 244.667,-168.264 312.673,-176 316.028,-176.382 319.422,-176.815 322.84,-177.294"/>
<text text-anchor="middle" x="235.673" y="-178.6" font-family="Times New Roman,serif" font-size="8.00">TargetItemReference_Maintainable</text>
</g>
<!-- LinkingMapType -->
<g id="ReusableTypeLinkingMapType0" class="node"><title></title><ellipse fill="#f7b733" stroke="black" cx="70.3363" cy="-126" rx="44.4889" ry="18" style="filter: url(#dropshadow)"/>
<text text-anchor="middle" x="70.3363" y="-124.1" font-family="Times New Roman,serif" font-size="8.00">LinkingMapType</text>
</g>
<!-- LinkingMapType&#45;&gt;MaintainableProperties -->
<g id="edge11" class="edge"><title>LinkingMapType&#45;&gt;MaintainableProperties</title>
<path fill="none" stroke="black" d="M114.1,-129.469C162.715,-134.001 244.209,-143.386 312.673,-160 316.128,-160.839 319.619,-161.731 323.132,-162.669"/>
<text text-anchor="middle" x="235.673" y="-162.6" font-family="Times New Roman,serif" font-size="8.00">LocalObjectReference_Maintainable</text>
</g>
<!-- LinkingMapType&#45;&gt;MaintainableProperties -->
<g id="edge12" class="edge"><title>LinkingMapType&#45;&gt;MaintainableProperties</title>
<path fill="none" stroke="black" d="M110.722,-118.38C159.285,-110.552 243.842,-102.074 312.673,-122 316.047,-122.977 319.419,-124.067 322.779,-125.256"/>
<text text-anchor="middle" x="235.673" y="-124.6" font-family="Times New Roman,serif" font-size="8.00">DepositoryObjectReference_Maintainable</text>
</g>
<!-- RelationshipType -->
<g id="ReusableTypeRelationshipType1" class="node"><title></title><ellipse fill="#f7b733" stroke="black" cx="70.3363" cy="-72" rx="44.6228" ry="18" style="filter: url(#dropshadow)"/>
<text text-anchor="middle" x="70.3363" y="-70.1" font-family="Times New Roman,serif" font-size="8.00">RelationshipType</text>
</g>
<!-- RelationshipType&#45;&gt;MaintainableProperties -->
<g id="edge13" class="edge"><title>RelationshipType&#45;&gt;MaintainableProperties</title>
<path fill="none" stroke="black" d="M115.013,-69.1634C164.814,-67.5677 247.727,-69.9712 312.673,-97 316.154,-98.4488 319.616,-100.018 323.052,-101.694"/>
<text text-anchor="middle" x="235.673" y="-99.6" font-family="Times New Roman,serif" font-size="8.00">RelatedToReference_Maintainable</text>
</g>
<!-- ResourceUsedType -->
<g id="ReusableTypeResourceUsedType2" class="node"><title></title><ellipse fill="#f7b733" stroke="black" cx="70.3363" cy="-18" rx="47.16" ry="18" style="filter: url(#dropshadow)"/>
<text text-anchor="middle" x="70.3363" y="-16.1" font-family="Times New Roman,serif" font-size="8.00">ResourceUsedType</text>
</g>
<!-- ResourceUsedType&#45;&gt;MaintainableProperties -->
<g id="edge14" class="edge"><title>ResourceUsedType&#45;&gt;MaintainableProperties</title>
<path fill="none" stroke="black" d="M117.383,-16.5497C168.225,-16.8896 251.03,-23.323 312.673,-57 316.128,-58.8879 319.54,-60.8999 322.905,-63.0213"/>
<text text-anchor="middle" x="235.673" y="-59.6" font-family="Times New Roman,serif" font-size="8.00">ResourceObjectReference_Maintainable</text>
</g>
</g>
</svg>
