<?xml version="1.0" encoding="UTF-8" standalone="no"?>
<!DOCTYPE svg PUBLIC "-//W3C//DTD SVG 1.1//EN"
 "http://www.w3.org/Graphics/SVG/1.1/DTD/svg11.dtd">
<!-- Generated by graphviz version 2.38.0 (20140413.2041)
 -->
<!-- Title: G Pages: 1 -->
<svg width="1450pt" height="296pt"
 viewBox="0.00 0.00 1449.95 296.00" xmlns="http://www.w3.org/2000/svg" xmlns:xlink="http://www.w3.org/1999/xlink">
<filter id = "dropshadow" height = "130%" ><feGaussianBlur in= "SourceAlpha" stdDeviation = "3"/><!--stdDeviation is how much to blur--><feOffset dx = "2" dy = "2" result = "offsetblur"/><!--how much to offset--><feMerge><feMergeNode/><!--this contains the offset blurred image--><feMergeNode in= "SourceGraphic"/><!--this contains the element that the filter is applied to --></feMerge></filter>
<g id="graph0" class="graph" transform="scale(1 1) rotate(0) translate(4 292)">
<title>G</title>
<g id="clust1" class="cluster"><title>clusterWeighting</title>
<polygon fill="#4abdac" stroke="black" points="208.95,-8 208.95,-280 1433.95,-280 1433.95,-8 208.95,-8" style="filter: url(#dropshadow)"/>
<text text-anchor="middle" x="821.45" y="-269.6" font-family="Times New Roman,serif" font-size="8.00">Weighting</text>
</g>
<!-- WeightingProperties -->
<g id="ItemTypeWeightingProperties" class="node"><title></title><polygon fill="#f7b733" stroke="black" points="216.95,-104 216.95,-166 535.95,-166 535.95,-104 216.95,-104" style="filter: url(#dropshadow)"/>
<text text-anchor="middle" x="243.45" y="-133.1" font-family="Times New Roman,serif" font-size="8.00">Properties</text>
<polyline fill="none" stroke="black" points="269.95,-104 269.95,-166 "/>
<text text-anchor="start" x="277.95" y="-155.6" font-family="Times New Roman,serif" font-size="8.00">TypeOfWeighting : CodeValueType[0...1] </text>
<text text-anchor="start" x="277.95" y="-146.6" font-family="Times New Roman,serif" font-size="8.00">Description : StructuredStringType[0...1] </text>
<text text-anchor="start" x="277.95" y="-137.6" font-family="Times New Roman,serif" font-size="8.00">WeightingMethodologyReference : WeightingMethodologyType[0...n] </text>
<text text-anchor="start" x="277.95" y="-128.6" font-family="Times New Roman,serif" font-size="8.00">AnalysisUnit : CodeValueType[0...1] </text>
<text text-anchor="start" x="277.95" y="-119.6" font-family="Times New Roman,serif" font-size="8.00">UsageGuide : UsageGuideType[0...1] </text>
<text text-anchor="start" x="277.95" y="-110.6" font-family="Times New Roman,serif" font-size="8.00">StandardWeight : StandardWeightType[0...n] </text>
</g>
<!-- WeightingCodeValueType -->
<g id="ReusableTypeWeightingCodeValueType" class="node"><title></title><polygon fill="#fc4a1a" stroke="black" points="1166.95,-23.5 1166.95,-94.5 1425.95,-94.5 1425.95,-23.5 1166.95,-23.5" style="filter: url(#dropshadow)"/>
<text text-anchor="middle" x="1202.45" y="-57.1" font-family="Times New Roman,serif" font-size="8.00">CodeValueType</text>
<polyline fill="none" stroke="black" points="1237.95,-23.5 1237.95,-94.5 "/>
<text text-anchor="start" x="1245.95" y="-84.1" font-family="Times New Roman,serif" font-size="8.00">ControlledVocabularyID : string[0...1] </text>
<text text-anchor="start" x="1245.95" y="-75.1" font-family="Times New Roman,serif" font-size="8.00">ControlledVocabularyName : string[0...1] </text>
<text text-anchor="start" x="1245.95" y="-66.1" font-family="Times New Roman,serif" font-size="8.00">ControlledVocabularyAgencyName : string[0...1] </text>
<text text-anchor="start" x="1245.95" y="-57.1" font-family="Times New Roman,serif" font-size="8.00">ControlledVocabularyVersionID : string[0...1] </text>
<text text-anchor="start" x="1245.95" y="-48.1" font-family="Times New Roman,serif" font-size="8.00">OtherValue : string[0...1] </text>
<text text-anchor="start" x="1245.95" y="-39.1" font-family="Times New Roman,serif" font-size="8.00">ControlledVocabularyURN : string[0...1] </text>
<text text-anchor="start" x="1245.95" y="-30.1" font-family="Times New Roman,serif" font-size="8.00">ControlledVocabularySchemeURN : string[0...1] </text>
</g>
<!-- WeightingProperties&#45;&gt;WeightingCodeValueType -->
<g id="edge1" class="edge"><title>WeightingProperties&#45;&gt;WeightingCodeValueType</title>
<path fill="none" stroke="black" d="M459.244,-103.908C521.466,-81.9882 609.762,-54.5583 689.95,-43 853.229,-19.4646 1043.77,-30.7821 1166.85,-43.0752"/>
<text text-anchor="middle" x="854.95" y="-45.6" font-family="Times New Roman,serif" font-size="8.00">TypeOfWeighting</text>
</g>
<!-- WeightingStructuredStringType -->
<g id="ReusableTypeWeightingStructuredStringType" class="node"><title></title><polygon fill="#fc4a1a" stroke="black" points="1189.95,-141 1189.95,-177 1402.95,-177 1402.95,-141 1189.95,-141" style="filter: url(#dropshadow)"/>
<text text-anchor="middle" x="1234.95" y="-157.1" font-family="Times New Roman,serif" font-size="8.00">StructuredStringType</text>
<polyline fill="none" stroke="black" points="1279.95,-141 1279.95,-177 "/>
<text text-anchor="start" x="1287.95" y="-157.1" font-family="Times New Roman,serif" font-size="8.00">Content : ContentType[0...n] </text>
</g>
<!-- WeightingProperties&#45;&gt;WeightingStructuredStringType -->
<g id="edge2" class="edge"><title>WeightingProperties&#45;&gt;WeightingStructuredStringType</title>
<path fill="none" stroke="black" d="M536.246,-135.442C666.303,-136.232 855.083,-138.359 1019.95,-144 1076.08,-145.92 1138.59,-149.228 1189.85,-152.25"/>
<text text-anchor="middle" x="854.95" y="-146.6" font-family="Times New Roman,serif" font-size="8.00">Description</text>
</g>
<!-- WeightingWeightingMethodologyType -->
<g id="ReusableTypeWeightingWeightingMethodologyType" class="node"><title></title><polygon fill="#fc4a1a" stroke="black" points="689.95,-62 689.95,-98 1019.95,-98 1019.95,-62 689.95,-62" style="filter: url(#dropshadow)"/>
<text text-anchor="middle" x="748.95" y="-78.1" font-family="Times New Roman,serif" font-size="8.00">WeightingMethodologyType</text>
<polyline fill="none" stroke="black" points="807.95,-62 807.95,-98 "/>
<text text-anchor="start" x="815.95" y="-82.6" font-family="Times New Roman,serif" font-size="8.00">TypeOfWeightingMethodology : CodeValueType[0...1] </text>
<text text-anchor="start" x="815.95" y="-73.6" font-family="Times New Roman,serif" font-size="8.00">Description : StructuredStringType[0...1] </text>
</g>
<!-- WeightingProperties&#45;&gt;WeightingWeightingMethodologyType -->
<g id="edge3" class="edge"><title>WeightingProperties&#45;&gt;WeightingWeightingMethodologyType</title>
<path fill="none" stroke="black" d="M536.117,-116.686C588.233,-110.67 646.088,-103.992 698.001,-98.0004"/>
<text text-anchor="middle" x="612.95" y="-117.6" font-family="Times New Roman,serif" font-size="8.00">WeightingMethodologyReference</text>
</g>
<!-- WeightingUsageGuideType -->
<g id="ReusableTypeWeightingUsageGuideType" class="node"><title></title><polygon fill="#fc4a1a" stroke="black" points="715.45,-163 715.45,-199 994.45,-199 994.45,-163 715.45,-163" style="filter: url(#dropshadow)"/>
<text text-anchor="middle" x="752.45" y="-179.1" font-family="Times New Roman,serif" font-size="8.00">UsageGuideType</text>
<polyline fill="none" stroke="black" points="789.45,-163 789.45,-199 "/>
<text text-anchor="start" x="797.45" y="-188.1" font-family="Times New Roman,serif" font-size="8.00">UsageExample : StructuredStringType[0...1] </text>
<text text-anchor="start" x="797.45" y="-179.1" font-family="Times New Roman,serif" font-size="8.00">UsageRestrictions : StructuredStringType[0...1] </text>
<text text-anchor="start" x="797.45" y="-170.1" font-family="Times New Roman,serif" font-size="8.00">UsageRecommendations : StructuredStringType[0...1] </text>
</g>
<!-- WeightingProperties&#45;&gt;WeightingUsageGuideType -->
<g id="edge4" class="edge"><title>WeightingProperties&#45;&gt;WeightingUsageGuideType</title>
<path fill="none" stroke="black" d="M536.117,-150.317C594.054,-155.91 659.084,-162.188 715.156,-167.601"/>
<text text-anchor="middle" x="612.95" y="-165.6" font-family="Times New Roman,serif" font-size="8.00">UsageGuide</text>
</g>
<!-- WeightingStandardWeightType -->
<g id="ReusableTypeWeightingStandardWeightType" class="node"><title></title><polygon fill="#fc4a1a" stroke="black" points="741.45,-218 741.45,-254 968.45,-254 968.45,-218 741.45,-218" style="filter: url(#dropshadow)"/>
<text text-anchor="middle" x="786.45" y="-234.1" font-family="Times New Roman,serif" font-size="8.00">StandardWeightType</text>
<polyline fill="none" stroke="black" points="831.45,-218 831.45,-254 "/>
<text text-anchor="start" x="839.45" y="-234.1" font-family="Times New Roman,serif" font-size="8.00">StandardWeightValue : float[0...1] </text>
</g>
<!-- WeightingProperties&#45;&gt;WeightingStandardWeightType -->
<g id="edge5" class="edge"><title>WeightingProperties&#45;&gt;WeightingStandardWeightType</title>
<path fill="none" stroke="black" d="M499.834,-166.057C557.335,-180.114 626.947,-196.37 689.95,-209 706.501,-212.318 724.052,-215.529 741.281,-218.51"/>
<text text-anchor="middle" x="612.95" y="-205.6" font-family="Times New Roman,serif" font-size="8.00">StandardWeight</text>
</g>
<!-- WeightingWeightingMethodologyType&#45;&gt;WeightingCodeValueType -->
<g id="edge6" class="edge"><title>WeightingWeightingMethodologyType&#45;&gt;WeightingCodeValueType</title>
<path fill="none" stroke="black" d="M1020.23,-72.1505C1068.63,-69.838 1120.86,-67.342 1166.69,-65.1523"/>
<text text-anchor="middle" x="1093.45" y="-73.6" font-family="Times New Roman,serif" font-size="8.00">TypeOfWeightingMethodology</text>
</g>
<!-- WeightingWeightingMethodologyType&#45;&gt;WeightingStructuredStringType -->
<g id="edge7" class="edge"><title>WeightingWeightingMethodologyType&#45;&gt;WeightingStructuredStringType</title>
<path fill="none" stroke="black" d="M1008.96,-98.0333C1054.21,-104.276 1103.74,-112.004 1148.95,-121 1176.52,-126.487 1206.64,-134.025 1232.36,-140.942"/>
<text text-anchor="middle" x="1093.45" y="-123.6" font-family="Times New Roman,serif" font-size="8.00">Description</text>
</g>
<!-- WeightingUsageGuideType&#45;&gt;WeightingStructuredStringType -->
<g id="edge8" class="edge"><title>WeightingUsageGuideType&#45;&gt;WeightingStructuredStringType</title>
<path fill="none" stroke="black" d="M963.831,-199.022C1019.34,-205.602 1087.98,-209.567 1148.95,-201 1181.83,-196.38 1217.68,-186.195 1245.69,-177.013"/>
<text text-anchor="middle" x="1093.45" y="-207.6" font-family="Times New Roman,serif" font-size="8.00">UsageExample</text>
</g>
<!-- WeightingUsageGuideType&#45;&gt;WeightingStructuredStringType -->
<g id="edge9" class="edge"><title>WeightingUsageGuideType&#45;&gt;WeightingStructuredStringType</title>
<path fill="none" stroke="black" d="M994.926,-163.357C1009.43,-161.996 1023.98,-160.831 1037.95,-160 1087.82,-157.035 1143.22,-156.468 1189.82,-156.771"/>
<text text-anchor="middle" x="1093.45" y="-162.6" font-family="Times New Roman,serif" font-size="8.00">UsageRestrictions</text>
</g>
<!-- WeightingUsageGuideType&#45;&gt;WeightingStructuredStringType -->
<g id="edge10" class="edge"><title>WeightingUsageGuideType&#45;&gt;WeightingStructuredStringType</title>
<path fill="none" stroke="black" d="M994.599,-176.096C1043.4,-174.165 1098.62,-171.748 1148.95,-169 1162.19,-168.277 1176.09,-167.436 1189.84,-166.553"/>
<text text-anchor="middle" x="1093.45" y="-177.6" font-family="Times New Roman,serif" font-size="8.00">UsageRecommendations</text>
</g>
<!-- ProcessingEvent -->
<g id="ItemTypeProcessingEvent" class="node"><title></title><ellipse fill="#f7b733" stroke="black" cx="41.9749" cy="-162" rx="41.9498" ry="18" style="filter: url(#dropshadow)"/>
<text text-anchor="middle" x="41.9749" y="-160.1" font-family="Times New Roman,serif" font-size="8.00">ProcessingEvent</text>
</g>
<!-- ProcessingEvent&#45;&gt;WeightingProperties -->
<g id="edge11" class="edge"><title>ProcessingEvent&#45;&gt;WeightingProperties</title>
<path fill="none" stroke="black" d="M83.4104,-158.716C115.361,-156.122 162.242,-152.314 209.132,-148.507"/>
<text text-anchor="middle" x="150.45" y="-159.6" font-family="Times New Roman,serif" font-size="8.00">WeightingReference</text>
</g>
<!-- Variable -->
<g id="ItemTypeVariable" class="node"><title></title><ellipse fill="#f7b733" stroke="black" cx="41.9749" cy="-108" rx="27" ry="18" style="filter: url(#dropshadow)"/>
<text text-anchor="middle" x="41.9749" y="-106.1" font-family="Times New Roman,serif" font-size="8.00">Variable</text>
</g>
<!-- Variable&#45;&gt;WeightingProperties -->
<g id="edge12" class="edge"><title>Variable&#45;&gt;WeightingProperties</title>
<path fill="none" stroke="black" d="M69.0636,-110.119C100.122,-112.641 154.678,-117.071 209.231,-121.501"/>
<text text-anchor="middle" x="150.45" y="-122.6" font-family="Times New Roman,serif" font-size="8.00">WeightingProcessReference</text>
</g>
</g>
</svg>
