<?xml version="1.0" encoding="UTF-8" standalone="no"?>
<!DOCTYPE svg PUBLIC "-//W3C//DTD SVG 1.1//EN"
 "http://www.w3.org/Graphics/SVG/1.1/DTD/svg11.dtd">
<!-- Generated by graphviz version 2.38.0 (20140413.2041)
 -->
<!-- Title: G Pages: 1 -->
<svg width="1814pt" height="337pt"
 viewBox="0.00 0.00 1813.93 337.00" xmlns="http://www.w3.org/2000/svg" xmlns:xlink="http://www.w3.org/1999/xlink">
<filter id = "dropshadow" height = "130%" ><feGaussianBlur in= "SourceAlpha" stdDeviation = "3"/><!--stdDeviation is how much to blur--><feOffset dx = "2" dy = "2" result = "offsetblur"/><!--how much to offset--><feMerge><feMergeNode/><!--this contains the offset blurred image--><feMergeNode in= "SourceGraphic"/><!--this contains the element that the filter is applied to --></feMerge></filter>
<g id="graph0" class="graph" transform="scale(1 1) rotate(0) translate(4 333)">
<title>G</title>
<g id="clust1" class="cluster"><title>clusterGenericMap</title>
<polygon fill="#4abdac" stroke="black" points="192.933,-46 192.933,-321 1797.93,-321 1797.93,-46 192.933,-46" style="filter: url(#dropshadow)"/>
<text text-anchor="middle" x="995.433" y="-310.6" font-family="Times New Roman,serif" font-size="8.00">GenericMap</text>
</g>
<!-- GenericMapProperties -->
<g id="ItemTypeGenericMapProperties" class="node"><title></title><polygon fill="#f7b733" stroke="black" points="200.933,-124 200.933,-204 430.933,-204 430.933,-124 200.933,-124" style="filter: url(#dropshadow)"/>
<text text-anchor="middle" x="227.433" y="-162.1" font-family="Times New Roman,serif" font-size="8.00">Properties</text>
<polyline fill="none" stroke="black" points="253.933,-124 253.933,-204 "/>
<text text-anchor="start" x="261.933" y="-193.6" font-family="Times New Roman,serif" font-size="8.00">TypeOfMappedItem : CodeValueType[0...1] </text>
<text text-anchor="start" x="261.933" y="-184.6" font-family="Times New Roman,serif" font-size="8.00">MapName : NameType[0...n] </text>
<text text-anchor="start" x="261.933" y="-175.6" font-family="Times New Roman,serif" font-size="8.00">Label : LabelType[0...n] </text>
<text text-anchor="start" x="261.933" y="-166.6" font-family="Times New Roman,serif" font-size="8.00">Description : StructuredStringType[0...1] </text>
<text text-anchor="start" x="261.933" y="-157.6" font-family="Times New Roman,serif" font-size="8.00">SourceSchemeReference : Maintainable[0...1] </text>
<text text-anchor="start" x="261.933" y="-148.6" font-family="Times New Roman,serif" font-size="8.00">TargetSchemeReference : Maintainable[0...1] </text>
<text text-anchor="start" x="261.933" y="-139.6" font-family="Times New Roman,serif" font-size="8.00">Correspondence : CorrespondenceType[0...1] </text>
<text text-anchor="start" x="261.933" y="-130.6" font-family="Times New Roman,serif" font-size="8.00">ItemMap : ItemMapType[0...n] </text>
</g>
<!-- GenericMapCodeValueType -->
<g id="ReusableTypeGenericMapCodeValueType" class="node"><title></title><polygon fill="#fc4a1a" stroke="black" points="1530.93,-96 1530.93,-176 1789.93,-176 1789.93,-96 1530.93,-96" style="filter: url(#dropshadow)"/>
<text text-anchor="middle" x="1566.43" y="-134.1" font-family="Times New Roman,serif" font-size="8.00">CodeValueType</text>
<polyline fill="none" stroke="black" points="1601.93,-96 1601.93,-176 "/>
<text text-anchor="start" x="1609.93" y="-165.6" font-family="Times New Roman,serif" font-size="8.00">StringValue : string[0...1] </text>
<text text-anchor="start" x="1609.93" y="-156.6" font-family="Times New Roman,serif" font-size="8.00">ControlledVocabularyID : string[0...1] </text>
<text text-anchor="start" x="1609.93" y="-147.6" font-family="Times New Roman,serif" font-size="8.00">ControlledVocabularyName : string[0...1] </text>
<text text-anchor="start" x="1609.93" y="-138.6" font-family="Times New Roman,serif" font-size="8.00">ControlledVocabularyAgencyName : string[0...1] </text>
<text text-anchor="start" x="1609.93" y="-129.6" font-family="Times New Roman,serif" font-size="8.00">ControlledVocabularyVersionID : string[0...1] </text>
<text text-anchor="start" x="1609.93" y="-120.6" font-family="Times New Roman,serif" font-size="8.00">OtherValue : string[0...1] </text>
<text text-anchor="start" x="1609.93" y="-111.6" font-family="Times New Roman,serif" font-size="8.00">ControlledVocabularyURN : string[0...1] </text>
<text text-anchor="start" x="1609.93" y="-102.6" font-family="Times New Roman,serif" font-size="8.00">ControlledVocabularySchemeURN : string[0...1] </text>
</g>
<!-- GenericMapProperties&#45;&gt;GenericMapCodeValueType -->
<g id="edge1" class="edge"><title>GenericMapProperties&#45;&gt;GenericMapCodeValueType</title>
<path fill="none" stroke="black" d="M431.2,-162.28C568.408,-159.766 782.096,-154.233 796.933,-144 813.651,-132.47 797.978,-113.18 814.933,-102 851.44,-77.9272 1189.39,-106.987 1512.93,-126 1518.79,-126.344 1524.77,-126.707 1530.81,-127.082"/>
<text text-anchor="middle" x="920.433" y="-104.6" font-family="Times New Roman,serif" font-size="8.00">TypeOfMappedItem</text>
</g>
<!-- GenericMapNameType -->
<g id="ReusableTypeGenericMapNameType" class="node"><title></title><polygon fill="#fc4a1a" stroke="black" points="589.933,-259 589.933,-295 758.933,-295 758.933,-259 589.933,-259" style="filter: url(#dropshadow)"/>
<text text-anchor="middle" x="617.933" y="-275.1" font-family="Times New Roman,serif" font-size="8.00">NameType</text>
<polyline fill="none" stroke="black" points="645.933,-259 645.933,-295 "/>
<text text-anchor="start" x="653.933" y="-279.6" font-family="Times New Roman,serif" font-size="8.00">IsPreferred : boolean[0...1] </text>
<text text-anchor="start" x="653.933" y="-270.6" font-family="Times New Roman,serif" font-size="8.00">Context : string[0...1] </text>
</g>
<!-- GenericMapProperties&#45;&gt;GenericMapNameType -->
<g id="edge2" class="edge"><title>GenericMapProperties&#45;&gt;GenericMapNameType</title>
<path fill="none" stroke="black" d="M371.932,-204.097C394.724,-218.869 422.08,-234.337 448.933,-244 493.878,-260.173 546.609,-268.428 589.669,-272.638"/>
<text text-anchor="middle" x="491.433" y="-267.6" font-family="Times New Roman,serif" font-size="8.00">MapName</text>
</g>
<!-- GenericMapLabelType -->
<g id="ReusableTypeGenericMapLabelType" class="node"><title></title><polygon fill="#fc4a1a" stroke="black" points="814.933,-147.5 814.933,-200.5 1025.93,-200.5 1025.93,-147.5 814.933,-147.5" style="filter: url(#dropshadow)"/>
<text text-anchor="middle" x="841.933" y="-172.1" font-family="Times New Roman,serif" font-size="8.00">LabelType</text>
<polyline fill="none" stroke="black" points="868.933,-147.5 868.933,-200.5 "/>
<text text-anchor="start" x="876.933" y="-190.1" font-family="Times New Roman,serif" font-size="8.00">TypeOfLabel : CodeValueType[0...1] </text>
<text text-anchor="start" x="876.933" y="-181.1" font-family="Times New Roman,serif" font-size="8.00">LocationVariant : string[0...1] </text>
<text text-anchor="start" x="876.933" y="-172.1" font-family="Times New Roman,serif" font-size="8.00">ValidForStartDate : cogsDate[0...1] </text>
<text text-anchor="start" x="876.933" y="-163.1" font-family="Times New Roman,serif" font-size="8.00">ValidForEndDate : cogsDate[0...1] </text>
<text text-anchor="start" x="876.933" y="-154.1" font-family="Times New Roman,serif" font-size="8.00">MaxLength : nonNegativeInteger[0...1] </text>
</g>
<!-- GenericMapProperties&#45;&gt;GenericMapLabelType -->
<g id="edge3" class="edge"><title>GenericMapProperties&#45;&gt;GenericMapLabelType</title>
<path fill="none" stroke="black" d="M430.967,-165.893C541.501,-167.727 707.747,-170.487 814.932,-172.266"/>
<text text-anchor="middle" x="491.433" y="-170.6" font-family="Times New Roman,serif" font-size="8.00">Label</text>
</g>
<!-- GenericMapStructuredStringType -->
<g id="ReusableTypeGenericMapStructuredStringType" class="node"><title></title><polygon fill="#fc4a1a" stroke="black" points="1553.93,-206 1553.93,-242 1766.93,-242 1766.93,-206 1553.93,-206" style="filter: url(#dropshadow)"/>
<text text-anchor="middle" x="1598.93" y="-222.1" font-family="Times New Roman,serif" font-size="8.00">StructuredStringType</text>
<polyline fill="none" stroke="black" points="1643.93,-206 1643.93,-242 "/>
<text text-anchor="start" x="1651.93" y="-222.1" font-family="Times New Roman,serif" font-size="8.00">Content : ContentType[0...n] </text>
</g>
<!-- GenericMapProperties&#45;&gt;GenericMapStructuredStringType -->
<g id="edge4" class="edge"><title>GenericMapProperties&#45;&gt;GenericMapStructuredStringType</title>
<path fill="none" stroke="black" d="M430.981,-197.733C469.089,-207.502 512.021,-216.9 551.933,-222 917.408,-268.698 1356.28,-246.606 1553.89,-232.543"/>
<text text-anchor="middle" x="920.433" y="-252.6" font-family="Times New Roman,serif" font-size="8.00">Description</text>
</g>
<!-- Maintainable -->
<g id="ItemTypeMaintainable" class="node"><title></title><ellipse fill="#f7b733" stroke="black" cx="674.433" cy="-18" rx="35.3371" ry="18" style="filter: url(#dropshadow)"/>
<text text-anchor="middle" x="674.433" y="-16.1" font-family="Times New Roman,serif" font-size="8.00">Maintainable</text>
</g>
<!-- GenericMapProperties&#45;&gt;Maintainable -->
<g id="edge5" class="edge"><title>GenericMapProperties&#45;&gt;Maintainable</title>
<path fill="none" stroke="black" d="M382.032,-123.791C427.991,-97.0306 491.846,-63.048 551.933,-42 580.85,-31.8707 615.22,-25.5818 640.014,-21.9964"/>
<text text-anchor="middle" x="491.433" y="-88.6" font-family="Times New Roman,serif" font-size="8.00">SourceSchemeReference</text>
<text text-anchor="middle" x="632.014" y="-15.5964" font-family="Times New Roman,serif" font-size="8.00">0...*</text>
<text text-anchor="middle" x="374.032" y="-117.391" font-family="Times New Roman,serif" font-size="8.00">0...*</text>
</g>
<!-- GenericMapProperties&#45;&gt;Maintainable -->
<g id="edge6" class="edge"><title>GenericMapProperties&#45;&gt;Maintainable</title>
<path fill="none" stroke="black" d="M346.171,-123.806C370.159,-94.2409 406.928,-56.0239 448.933,-37 511.644,-8.59831 594.238,-10.2685 639.736,-14.0859"/>
<text text-anchor="middle" x="491.433" y="-39.6" font-family="Times New Roman,serif" font-size="8.00">TargetSchemeReference</text>
<text text-anchor="middle" x="631.736" y="-7.68593" font-family="Times New Roman,serif" font-size="8.00">0...*</text>
<text text-anchor="middle" x="338.171" y="-117.406" font-family="Times New Roman,serif" font-size="8.00">0...*</text>
</g>
<!-- GenericMapCorrespondenceType -->
<g id="ReusableTypeGenericMapCorrespondenceType" class="node"><title></title><polygon fill="#fc4a1a" stroke="black" points="1043.93,-165.5 1043.93,-218.5 1406.93,-218.5 1406.93,-165.5 1043.93,-165.5" style="filter: url(#dropshadow)"/>
<text text-anchor="middle" x="1089.43" y="-190.1" font-family="Times New Roman,serif" font-size="8.00">CorrespondenceType</text>
<polyline fill="none" stroke="black" points="1134.93,-165.5 1134.93,-218.5 "/>
<text text-anchor="start" x="1142.93" y="-208.1" font-family="Times New Roman,serif" font-size="8.00">Commonality : StructuredStringType[0...1] </text>
<text text-anchor="start" x="1142.93" y="-199.1" font-family="Times New Roman,serif" font-size="8.00">Difference : StructuredStringType[0...1] </text>
<text text-anchor="start" x="1142.93" y="-190.1" font-family="Times New Roman,serif" font-size="8.00">CommonalityTypeCoded : CodeValueType[0...1] </text>
<text text-anchor="start" x="1142.93" y="-181.1" font-family="Times New Roman,serif" font-size="8.00">CommonalityWeight : float[0...1] </text>
<text text-anchor="start" x="1142.93" y="-172.1" font-family="Times New Roman,serif" font-size="8.00">UserDefinedCorrespondenceProperty : StandardKeyValuePairType[0...n] </text>
</g>
<!-- GenericMapProperties&#45;&gt;GenericMapCorrespondenceType -->
<g id="edge7" class="edge"><title>GenericMapProperties&#45;&gt;GenericMapCorrespondenceType</title>
<path fill="none" stroke="black" d="M431.004,-179.123C437.064,-179.792 443.069,-180.423 448.933,-181 704.383,-206.151 769.407,-215.035 1025.93,-206 1031.8,-205.793 1037.77,-205.552 1043.79,-205.282"/>
<text text-anchor="middle" x="674.433" y="-211.6" font-family="Times New Roman,serif" font-size="8.00">Correspondence</text>
<text text-anchor="middle" x="1035.79" y="-198.882" font-family="Times New Roman,serif" font-size="8.00">0...*</text>
<text text-anchor="middle" x="439.004" y="-172.723" font-family="Times New Roman,serif" font-size="8.00">0...*</text>
</g>
<!-- GenericMapItemMapType -->
<g id="ReusableTypeGenericMapItemMapType" class="node"><title></title><polygon fill="#fc4a1a" stroke="black" points="551.933,-54.5 551.933,-107.5 796.933,-107.5 796.933,-54.5 551.933,-54.5" style="filter: url(#dropshadow)"/>
<text text-anchor="middle" x="585.933" y="-79.1" font-family="Times New Roman,serif" font-size="8.00">ItemMapType</text>
<polyline fill="none" stroke="black" points="619.933,-54.5 619.933,-107.5 "/>
<text text-anchor="start" x="627.933" y="-97.1" font-family="Times New Roman,serif" font-size="8.00">SourceItemReference : Versionable[0...1] </text>
<text text-anchor="start" x="627.933" y="-88.1" font-family="Times New Roman,serif" font-size="8.00">TargetItemReference : Versionable[0...n] </text>
<text text-anchor="start" x="627.933" y="-79.1" font-family="Times New Roman,serif" font-size="8.00">Correspondence : CorrespondenceType[0...1] </text>
<text text-anchor="start" x="627.933" y="-70.1" font-family="Times New Roman,serif" font-size="8.00">RelatedMapReference : ItemMapType[0...n] </text>
<text text-anchor="start" x="627.933" y="-61.1" font-family="Times New Roman,serif" font-size="8.00">Alias : string[0...1] </text>
</g>
<!-- GenericMapProperties&#45;&gt;GenericMapItemMapType -->
<g id="edge8" class="edge"><title>GenericMapProperties&#45;&gt;GenericMapItemMapType</title>
<path fill="none" stroke="black" d="M431.203,-137.396C472.241,-127.841 518.495,-117.072 559.504,-107.525"/>
<text text-anchor="middle" x="491.433" y="-135.6" font-family="Times New Roman,serif" font-size="8.00">ItemMap</text>
<text text-anchor="middle" x="551.504" y="-110.125" font-family="Times New Roman,serif" font-size="8.00">0...*</text>
<text text-anchor="middle" x="439.203" y="-130.996" font-family="Times New Roman,serif" font-size="8.00">0...*</text>
</g>
<!-- GenericMapLabelType&#45;&gt;GenericMapCodeValueType -->
<g id="edge9" class="edge"><title>GenericMapLabelType&#45;&gt;GenericMapCodeValueType</title>
<path fill="none" stroke="black" d="M1026.11,-149.491C1032.12,-148.533 1038.09,-147.689 1043.93,-147 1211.23,-127.267 1405.86,-127.664 1530.73,-130.883"/>
<text text-anchor="middle" x="1225.43" y="-149.6" font-family="Times New Roman,serif" font-size="8.00">TypeOfLabel</text>
<text text-anchor="middle" x="1522.73" y="-124.483" font-family="Times New Roman,serif" font-size="8.00">0...*</text>
<text text-anchor="middle" x="1034.11" y="-143.091" font-family="Times New Roman,serif" font-size="8.00">0...*</text>
</g>
<!-- GenericMapCorrespondenceType&#45;&gt;GenericMapCodeValueType -->
<g id="edge12" class="edge"><title>GenericMapCorrespondenceType&#45;&gt;GenericMapCodeValueType</title>
<path fill="none" stroke="black" d="M1407.24,-168.616C1448.75,-163.247 1492.06,-157.646 1530.84,-152.631"/>
<text text-anchor="middle" x="1468.93" y="-168.6" font-family="Times New Roman,serif" font-size="8.00">CommonalityTypeCoded</text>
<text text-anchor="middle" x="1522.84" y="-146.231" font-family="Times New Roman,serif" font-size="8.00">0...*</text>
<text text-anchor="middle" x="1415.24" y="-162.216" font-family="Times New Roman,serif" font-size="8.00">0...*</text>
</g>
<!-- GenericMapCorrespondenceType&#45;&gt;GenericMapStructuredStringType -->
<g id="edge10" class="edge"><title>GenericMapCorrespondenceType&#45;&gt;GenericMapStructuredStringType</title>
<path fill="none" stroke="black" d="M1407.08,-187.008C1442.26,-187.622 1478.81,-189.369 1512.93,-193 1537.88,-195.655 1564.84,-200.713 1588.74,-205.985"/>
<text text-anchor="middle" x="1468.93" y="-195.6" font-family="Times New Roman,serif" font-size="8.00">Commonality</text>
<text text-anchor="middle" x="1580.74" y="-199.585" font-family="Times New Roman,serif" font-size="8.00">0...*</text>
<text text-anchor="middle" x="1415.08" y="-180.608" font-family="Times New Roman,serif" font-size="8.00">0...*</text>
</g>
<!-- GenericMapCorrespondenceType&#45;&gt;GenericMapStructuredStringType -->
<g id="edge11" class="edge"><title>GenericMapCorrespondenceType&#45;&gt;GenericMapStructuredStringType</title>
<path fill="none" stroke="black" d="M1407.24,-205.362C1457.1,-209.047 1509.55,-212.924 1553.63,-216.181"/>
<text text-anchor="middle" x="1468.93" y="-214.6" font-family="Times New Roman,serif" font-size="8.00">Difference</text>
<text text-anchor="middle" x="1545.63" y="-209.781" font-family="Times New Roman,serif" font-size="8.00">0...*</text>
<text text-anchor="middle" x="1415.24" y="-198.962" font-family="Times New Roman,serif" font-size="8.00">0...*</text>
</g>
<!-- GenericMapItemMapType&#45;&gt;GenericMapCorrespondenceType -->
<g id="edge15" class="edge"><title>GenericMapItemMapType&#45;&gt;GenericMapCorrespondenceType</title>
<path fill="none" stroke="black" d="M794.754,-107.508C801.568,-108.757 808.33,-109.933 814.933,-111 908.058,-126.048 940.294,-94.4434 1025.93,-134 1035.92,-138.614 1034.22,-145.82 1043.93,-151 1054.28,-156.521 1065.35,-161.301 1076.72,-165.44"/>
<text text-anchor="middle" x="920.433" y="-136.6" font-family="Times New Roman,serif" font-size="8.00">Correspondence</text>
<text text-anchor="middle" x="1068.72" y="-159.04" font-family="Times New Roman,serif" font-size="8.00">0...*</text>
<text text-anchor="middle" x="786.754" y="-110.108" font-family="Times New Roman,serif" font-size="8.00">0...*</text>
</g>
<!-- GenericMapItemMapType&#45;&gt;GenericMapItemMapType -->
<g id="edge16" class="edge"><title>GenericMapItemMapType&#45;&gt;GenericMapItemMapType</title>
<path fill="none" stroke="black" d="M640.383,-107.795C639.267,-117.78 650.617,-126 674.433,-126 698.249,-126 709.599,-117.78 708.483,-107.795"/>
<text text-anchor="middle" x="674.433" y="-128.6" font-family="Times New Roman,serif" font-size="8.00">RelatedMapReference</text>
<text text-anchor="middle" x="700.483" y="-110.395" font-family="Times New Roman,serif" font-size="8.00">0...*</text>
<text text-anchor="middle" x="632.383" y="-110.395" font-family="Times New Roman,serif" font-size="8.00">0...*</text>
</g>
<!-- Versionable -->
<g id="ItemTypeVersionable" class="node"><title></title><ellipse fill="#f7b733" stroke="black" cx="1225.43" cy="-20" rx="31.5313" ry="18" style="filter: url(#dropshadow)"/>
<text text-anchor="middle" x="1225.43" y="-18.1" font-family="Times New Roman,serif" font-size="8.00">Versionable</text>
</g>
<!-- GenericMapItemMapType&#45;&gt;Versionable -->
<g id="edge13" class="edge"><title>GenericMapItemMapType&#45;&gt;Versionable</title>
<path fill="none" stroke="black" d="M796.933,-67.5C925.478,-53.2172 1119.79,-31.6265 1194.09,-23.3717"/>
<text text-anchor="middle" x="920.433" y="-67.6" font-family="Times New Roman,serif" font-size="8.00">SourceItemReference</text>
<text text-anchor="middle" x="1186.09" y="-16.9717" font-family="Times New Roman,serif" font-size="8.00">0...*</text>
<text text-anchor="middle" x="804.933" y="-61.1" font-family="Times New Roman,serif" font-size="8.00">0...*</text>
</g>
<!-- GenericMapItemMapType&#45;&gt;Versionable -->
<g id="edge14" class="edge"><title>GenericMapItemMapType&#45;&gt;Versionable</title>
<path fill="none" stroke="black" d="M776.062,-54.4473C783.25,-51.563 790.279,-48.4179 796.933,-45 805.948,-40.369 805.392,-34.4176 814.933,-31 949.845,17.3238 1126.08,-3.6097 1195,-14.7129"/>
<text text-anchor="middle" x="920.433" y="-33.6" font-family="Times New Roman,serif" font-size="8.00">TargetItemReference</text>
<text text-anchor="middle" x="1187" y="-8.31292" font-family="Times New Roman,serif" font-size="8.00">0...*</text>
<text text-anchor="middle" x="768.062" y="-48.0473" font-family="Times New Roman,serif" font-size="8.00">0...*</text>
</g>
<!-- Comparison -->
<g id="ItemTypeComparison0" class="node"><title></title><ellipse fill="#f7b733" stroke="black" cx="33.4665" cy="-164" rx="33.433" ry="18" style="filter: url(#dropshadow)"/>
<text text-anchor="middle" x="33.4665" y="-162.1" font-family="Times New Roman,serif" font-size="8.00">Comparison</text>
</g>
<!-- Comparison&#45;&gt;GenericMapProperties -->
<g id="edge17" class="edge"><title>Comparison&#45;&gt;GenericMapProperties</title>
<path fill="none" stroke="black" d="M43.8866,-181.329C52.5177,-195.215 66.7123,-213.702 84.9329,-222 124.571,-240.053 140.307,-230.952 182.933,-222 186.401,-221.272 189.889,-220.447 193.384,-219.538"/>
<text text-anchor="middle" x="133.933" y="-234.6" font-family="Times New Roman,serif" font-size="8.00">ConceptMapReference</text>
<text text-anchor="middle" x="185.384" y="-213.138" font-family="Times New Roman,serif" font-size="8.00">0...*</text>
<text text-anchor="middle" x="35.8866" y="-183.929" font-family="Times New Roman,serif" font-size="8.00">0...*</text>
</g>
<!-- Comparison&#45;&gt;GenericMapProperties -->
<g id="edge18" class="edge"><title>Comparison&#45;&gt;GenericMapProperties</title>
<path fill="none" stroke="black" d="M55.6837,-177.783C64.3823,-182.658 74.7798,-187.538 84.9329,-190 119.661,-198.42 158.015,-197.853 193.285,-193.527"/>
<text text-anchor="middle" x="133.933" y="-199.6" font-family="Times New Roman,serif" font-size="8.00">VariableMapReference</text>
<text text-anchor="middle" x="185.285" y="-187.127" font-family="Times New Roman,serif" font-size="8.00">0...*</text>
<text text-anchor="middle" x="63.6837" y="-180.383" font-family="Times New Roman,serif" font-size="8.00">0...*</text>
</g>
<!-- Comparison&#45;&gt;GenericMapProperties -->
<g id="edge19" class="edge"><title>Comparison&#45;&gt;GenericMapProperties</title>
<path fill="none" stroke="black" d="M67.1884,-164C98.2644,-164 146.944,-164 192.956,-164"/>
<text text-anchor="middle" x="133.933" y="-166.6" font-family="Times New Roman,serif" font-size="8.00">QuestionMapReference</text>
<text text-anchor="middle" x="184.956" y="-157.6" font-family="Times New Roman,serif" font-size="8.00">0...*</text>
<text text-anchor="middle" x="75.1884" y="-157.6" font-family="Times New Roman,serif" font-size="8.00">0...*</text>
</g>
<!-- Comparison&#45;&gt;GenericMapProperties -->
<g id="edge20" class="edge"><title>Comparison&#45;&gt;GenericMapProperties</title>
<path fill="none" stroke="black" d="M63.0462,-155.305C70.1312,-153.521 77.7523,-151.91 84.9329,-151 119.884,-146.571 158.014,-146.729 192.997,-148.842"/>
<text text-anchor="middle" x="133.933" y="-153.6" font-family="Times New Roman,serif" font-size="8.00">CategoryMapReference</text>
<text text-anchor="middle" x="184.997" y="-142.442" font-family="Times New Roman,serif" font-size="8.00">0...*</text>
<text text-anchor="middle" x="71.0462" y="-148.905" font-family="Times New Roman,serif" font-size="8.00">0...*</text>
</g>
<!-- Comparison&#45;&gt;GenericMapProperties -->
<g id="edge21" class="edge"><title>Comparison&#45;&gt;GenericMapProperties</title>
<path fill="none" stroke="black" d="M54.0265,-149.565C62.9714,-143.834 73.9979,-137.918 84.9329,-135 119.603,-125.748 158.021,-126.458 193.372,-131.313"/>
<text text-anchor="middle" x="133.933" y="-137.6" font-family="Times New Roman,serif" font-size="8.00">UniverseMapReference</text>
<text text-anchor="middle" x="185.372" y="-124.913" font-family="Times New Roman,serif" font-size="8.00">0...*</text>
<text text-anchor="middle" x="46.0265" y="-143.165" font-family="Times New Roman,serif" font-size="8.00">0...*</text>
</g>
<!-- Comparison&#45;&gt;GenericMapProperties -->
<g id="edge22" class="edge"><title>Comparison&#45;&gt;GenericMapProperties</title>
<path fill="none" stroke="black" d="M46.4028,-146.893C55.4819,-135.478 69.0898,-121.426 84.9329,-115 119.009,-101.178 157.579,-103.149 193.261,-111.509"/>
<text text-anchor="middle" x="133.933" y="-117.6" font-family="Times New Roman,serif" font-size="8.00">ManagedItemMapReference</text>
<text text-anchor="middle" x="185.261" y="-105.109" font-family="Times New Roman,serif" font-size="8.00">0...*</text>
<text text-anchor="middle" x="38.4028" y="-140.493" font-family="Times New Roman,serif" font-size="8.00">0...*</text>
</g>
</g>
</svg>
