<?xml version="1.0" encoding="UTF-8" standalone="no"?>
<!DOCTYPE svg PUBLIC "-//W3C//DTD SVG 1.1//EN"
 "http://www.w3.org/Graphics/SVG/1.1/DTD/svg11.dtd">
<!-- Generated by graphviz version 2.38.0 (20140413.2041)
 -->
<!-- Title: G Pages: 1 -->
<svg width="579pt" height="800pt"
 viewBox="0.00 0.00 579.30 800.00" xmlns="http://www.w3.org/2000/svg" xmlns:xlink="http://www.w3.org/1999/xlink">
<filter id = "dropshadow" height = "130%" ><feGaussianBlur in= "SourceAlpha" stdDeviation = "3"/><!--stdDeviation is how much to blur--><feOffset dx = "2" dy = "2" result = "offsetblur"/><!--how much to offset--><feMerge><feMergeNode/><!--this contains the offset blurred image--><feMergeNode in= "SourceGraphic"/><!--this contains the element that the filter is applied to --></feMerge></filter>
<g id="graph0" class="graph" transform="scale(1 1) rotate(0) translate(4 796)">
<title>G</title>
<!-- ResponseCardinalityType -->
<g id="ReusableTypeResponseCardinalityType" class="node"><title></title><polygon fill="#f7b733" stroke="black" points="278.303,-378 278.303,-414 571.303,-414 571.303,-378 278.303,-378" style="filter: url(#dropshadow)"/>
<text text-anchor="middle" x="331.303" y="-394.1" font-family="Times New Roman,serif" font-size="8.00">ResponseCardinalityType</text>
<polyline fill="none" stroke="black" points="384.303,-378 384.303,-414 "/>
<text text-anchor="start" x="392.303" y="-398.6" font-family="Times New Roman,serif" font-size="8.00">MinimumResponses : nonNegativeInteger[0...1] </text>
<text text-anchor="start" x="392.303" y="-389.6" font-family="Times New Roman,serif" font-size="8.00">MaximumResponses : nonNegativeInteger[0...1] </text>
</g>
<!-- MeasurementItem -->
<g id="ItemTypeMeasurementItem" class="node"><title></title><ellipse fill="#f7b733" stroke="black" cx="85.6514" cy="-774" rx="45.2568" ry="18" style="filter: url(#dropshadow)"/>
<text text-anchor="middle" x="85.6514" y="-772.1" font-family="Times New Roman,serif" font-size="8.00">MeasurementItem</text>
</g>
<!-- MeasurementItem&#45;&gt;ResponseCardinalityType -->
<g id="edge1" class="edge"><title>MeasurementItem&#45;&gt;ResponseCardinalityType</title>
<path fill="none" stroke="black" d="M126.622,-765.988C165.289,-756.361 223.319,-736.705 260.303,-700 349.201,-611.773 401.921,-464.982 418.283,-414.057"/>
<text text-anchor="middle" x="224.803" y="-746.6" font-family="Times New Roman,serif" font-size="8.00">ResponseCardinality</text>
</g>
<!-- QuestionBlock -->
<g id="ItemTypeQuestionBlock" class="node"><title></title><ellipse fill="#f7b733" stroke="black" cx="85.6514" cy="-720" rx="38.6432" ry="18" style="filter: url(#dropshadow)"/>
<text text-anchor="middle" x="85.6514" y="-718.1" font-family="Times New Roman,serif" font-size="8.00">QuestionBlock</text>
</g>
<!-- QuestionBlock&#45;&gt;ResponseCardinalityType -->
<g id="edge2" class="edge"><title>QuestionBlock&#45;&gt;ResponseCardinalityType</title>
<path fill="none" stroke="black" d="M120.724,-712.258C158.7,-702.14 220.048,-681.172 260.303,-644 337.405,-572.803 395.242,-458.087 415.722,-414.029"/>
<text text-anchor="middle" x="224.803" y="-689.6" font-family="Times New Roman,serif" font-size="8.00">ResponseCardinality</text>
</g>
<!-- QuestionItem -->
<g id="ItemTypeQuestionItem" class="node"><title></title><ellipse fill="#f7b733" stroke="black" cx="85.6514" cy="-666" rx="36.1063" ry="18" style="filter: url(#dropshadow)"/>
<text text-anchor="middle" x="85.6514" y="-664.1" font-family="Times New Roman,serif" font-size="8.00">QuestionItem</text>
</g>
<!-- QuestionItem&#45;&gt;ResponseCardinalityType -->
<g id="edge3" class="edge"><title>QuestionItem&#45;&gt;ResponseCardinalityType</title>
<path fill="none" stroke="black" d="M118.219,-657.726C134.406,-653.037 154.25,-646.59 171.303,-639 213.157,-620.371 225.14,-616.365 260.303,-587 325.634,-532.44 386.302,-450.178 411.505,-414.072"/>
<text text-anchor="middle" x="224.803" y="-633.6" font-family="Times New Roman,serif" font-size="8.00">ResponseCardinality</text>
</g>
<!-- CategoryDomainType -->
<g id="ReusableTypeCategoryDomainType" class="node"><title></title><ellipse fill="#f7b733" stroke="black" cx="85.6514" cy="-612" rx="53.7736" ry="18" style="filter: url(#dropshadow)"/>
<text text-anchor="middle" x="85.6514" y="-610.1" font-family="Times New Roman,serif" font-size="8.00">CategoryDomainType</text>
</g>
<!-- CategoryDomainType&#45;&gt;ResponseCardinalityType -->
<g id="edge4" class="edge"><title>CategoryDomainType&#45;&gt;ResponseCardinalityType</title>
<path fill="none" stroke="black" d="M128.203,-600.666C142.137,-596.363 157.607,-591.027 171.303,-585 270.288,-541.441 366.827,-452.602 405.78,-414.274"/>
<text text-anchor="middle" x="224.803" y="-576.6" font-family="Times New Roman,serif" font-size="8.00">ResponseCardinality</text>
</g>
<!-- CodeDomainType -->
<g id="ReusableTypeCodeDomainType" class="node"><title></title><ellipse fill="#f7b733" stroke="black" cx="85.6514" cy="-558" rx="45.2568" ry="18" style="filter: url(#dropshadow)"/>
<text text-anchor="middle" x="85.6514" y="-556.1" font-family="Times New Roman,serif" font-size="8.00">CodeDomainType</text>
</g>
<!-- CodeDomainType&#45;&gt;ResponseCardinalityType -->
<g id="edge5" class="edge"><title>CodeDomainType&#45;&gt;ResponseCardinalityType</title>
<path fill="none" stroke="black" d="M123.43,-547.865C138.493,-543.304 155.957,-537.486 171.303,-531 255.094,-495.587 348.118,-441.818 394.357,-414.033"/>
<text text-anchor="middle" x="224.803" y="-523.6" font-family="Times New Roman,serif" font-size="8.00">ResponseCardinality</text>
</g>
<!-- DateTimeDomainType -->
<g id="ReusableTypeDateTimeDomainType" class="node"><title></title><ellipse fill="#f7b733" stroke="black" cx="85.6514" cy="-504" rx="55.6769" ry="18" style="filter: url(#dropshadow)"/>
<text text-anchor="middle" x="85.6514" y="-502.1" font-family="Times New Roman,serif" font-size="8.00">DateTimeDomainType</text>
</g>
<!-- DateTimeDomainType&#45;&gt;ResponseCardinalityType -->
<g id="edge6" class="edge"><title>DateTimeDomainType&#45;&gt;ResponseCardinalityType</title>
<path fill="none" stroke="black" d="M125.851,-491.512C140.157,-486.951 156.463,-481.747 171.303,-477 238.83,-455.4 316.487,-430.475 367.651,-414.043"/>
<text text-anchor="middle" x="224.803" y="-472.6" font-family="Times New Roman,serif" font-size="8.00">ResponseCardinality</text>
</g>
<!-- DistributionDomainType -->
<g id="ReusableTypeDistributionDomainType" class="node"><title></title><ellipse fill="#f7b733" stroke="black" cx="85.6514" cy="-450" rx="58.9835" ry="18" style="filter: url(#dropshadow)"/>
<text text-anchor="middle" x="85.6514" y="-448.1" font-family="Times New Roman,serif" font-size="8.00">DistributionDomainType</text>
</g>
<!-- DistributionDomainType&#45;&gt;ResponseCardinalityType -->
<g id="edge7" class="edge"><title>DistributionDomainType&#45;&gt;ResponseCardinalityType</title>
<path fill="none" stroke="black" d="M138.225,-441.74C184.064,-434.398 252.68,-423.408 311.164,-414.041"/>
<text text-anchor="middle" x="224.803" y="-434.6" font-family="Times New Roman,serif" font-size="8.00">ResponseCardinality</text>
</g>
<!-- GeographicLocationCodeDomainType -->
<g id="ReusableTypeGeographicLocationCodeDomainType" class="node"><title></title><ellipse fill="#f7b733" stroke="black" cx="85.6514" cy="-396" rx="85.8032" ry="18" style="filter: url(#dropshadow)"/>
<text text-anchor="middle" x="85.6514" y="-394.1" font-family="Times New Roman,serif" font-size="8.00">GeographicLocationCodeDomainType</text>
</g>
<!-- GeographicLocationCodeDomainType&#45;&gt;ResponseCardinalityType -->
<g id="edge8" class="edge"><title>GeographicLocationCodeDomainType&#45;&gt;ResponseCardinalityType</title>
<path fill="none" stroke="black" d="M171.729,-396C204.014,-396 241.765,-396 278.076,-396"/>
<text text-anchor="middle" x="224.803" y="-398.6" font-family="Times New Roman,serif" font-size="8.00">ResponseCardinality</text>
</g>
<!-- GeographicStructureCodeDomainType -->
<g id="ReusableTypeGeographicStructureCodeDomainType0" class="node"><title></title><ellipse fill="#f7b733" stroke="black" cx="85.6514" cy="-342" rx="85.1685" ry="18" style="filter: url(#dropshadow)"/>
<text text-anchor="middle" x="85.6514" y="-340.1" font-family="Times New Roman,serif" font-size="8.00">GeographicStructureCodeDomainType</text>
</g>
<!-- GeographicStructureCodeDomainType&#45;&gt;ResponseCardinalityType -->
<g id="edge9" class="edge"><title>GeographicStructureCodeDomainType&#45;&gt;ResponseCardinalityType</title>
<path fill="none" stroke="black" d="M154.069,-352.798C199.036,-360 259.242,-369.643 311.364,-377.991"/>
<text text-anchor="middle" x="224.803" y="-371.6" font-family="Times New Roman,serif" font-size="8.00">ResponseCardinality</text>
</g>
<!-- LocationDomainType -->
<g id="ReusableTypeLocationDomainType1" class="node"><title></title><ellipse fill="#f7b733" stroke="black" cx="85.6514" cy="-288" rx="53.7736" ry="18" style="filter: url(#dropshadow)"/>
<text text-anchor="middle" x="85.6514" y="-286.1" font-family="Times New Roman,serif" font-size="8.00">LocationDomainType</text>
</g>
<!-- LocationDomainType&#45;&gt;ResponseCardinalityType -->
<g id="edge10" class="edge"><title>LocationDomainType&#45;&gt;ResponseCardinalityType</title>
<path fill="none" stroke="black" d="M125.426,-300.352C139.834,-304.946 156.317,-310.206 171.303,-315 238.83,-336.6 316.487,-361.525 367.651,-377.957"/>
<text text-anchor="middle" x="224.803" y="-343.6" font-family="Times New Roman,serif" font-size="8.00">ResponseCardinality</text>
</g>
<!-- NominalDomainType -->
<g id="ReusableTypeNominalDomainType2" class="node"><title></title><ellipse fill="#f7b733" stroke="black" cx="85.6514" cy="-234" rx="52.5056" ry="18" style="filter: url(#dropshadow)"/>
<text text-anchor="middle" x="85.6514" y="-232.1" font-family="Times New Roman,serif" font-size="8.00">NominalDomainType</text>
</g>
<!-- NominalDomainType&#45;&gt;ResponseCardinalityType -->
<g id="edge11" class="edge"><title>NominalDomainType&#45;&gt;ResponseCardinalityType</title>
<path fill="none" stroke="black" d="M127.226,-245.342C141.371,-249.714 157.221,-255.091 171.303,-261 255.184,-296.199 348.169,-350.06 394.379,-377.915"/>
<text text-anchor="middle" x="224.803" y="-303.6" font-family="Times New Roman,serif" font-size="8.00">ResponseCardinality</text>
</g>
<!-- NumericDomainType -->
<g id="ReusableTypeNumericDomainType3" class="node"><title></title><ellipse fill="#f7b733" stroke="black" cx="85.6514" cy="-180" rx="52.3706" ry="18" style="filter: url(#dropshadow)"/>
<text text-anchor="middle" x="85.6514" y="-178.1" font-family="Times New Roman,serif" font-size="8.00">NumericDomainType</text>
</g>
<!-- NumericDomainType&#45;&gt;ResponseCardinalityType -->
<g id="edge12" class="edge"><title>NumericDomainType&#45;&gt;ResponseCardinalityType</title>
<path fill="none" stroke="black" d="M127.314,-191.136C141.466,-195.49 157.299,-200.908 171.303,-207 270.723,-250.247 367.399,-339.657 406.103,-377.951"/>
<text text-anchor="middle" x="224.803" y="-254.6" font-family="Times New Roman,serif" font-size="8.00">ResponseCardinality</text>
</g>
<!-- RankingDomainType -->
<g id="ReusableTypeRankingDomainType4" class="node"><title></title><ellipse fill="#f7b733" stroke="black" cx="85.6514" cy="-126" rx="52.3706" ry="18" style="filter: url(#dropshadow)"/>
<text text-anchor="middle" x="85.6514" y="-124.1" font-family="Times New Roman,serif" font-size="8.00">RankingDomainType</text>
</g>
<!-- RankingDomainType&#45;&gt;ResponseCardinalityType -->
<g id="edge13" class="edge"><title>RankingDomainType&#45;&gt;ResponseCardinalityType</title>
<path fill="none" stroke="black" d="M127.343,-137.069C141.498,-141.417 157.325,-146.849 171.303,-153 213.031,-171.363 225.226,-174.879 260.303,-204 325.991,-258.533 386.473,-341.39 411.566,-377.78"/>
<text text-anchor="middle" x="224.803" y="-206.6" font-family="Times New Roman,serif" font-size="8.00">ResponseCardinality</text>
</g>
<!-- ScaleDomainType -->
<g id="ReusableTypeScaleDomainType5" class="node"><title></title><ellipse fill="#f7b733" stroke="black" cx="85.6514" cy="-72" rx="45.2568" ry="18" style="filter: url(#dropshadow)"/>
<text text-anchor="middle" x="85.6514" y="-70.1" font-family="Times New Roman,serif" font-size="8.00">ScaleDomainType</text>
</g>
<!-- ScaleDomainType&#45;&gt;ResponseCardinalityType -->
<g id="edge14" class="edge"><title>ScaleDomainType&#45;&gt;ResponseCardinalityType</title>
<path fill="none" stroke="black" d="M125.276,-80.977C163.457,-91.5216 221.619,-112.279 260.303,-148 337.405,-219.197 395.242,-333.913 415.722,-377.971"/>
<text text-anchor="middle" x="224.803" y="-150.6" font-family="Times New Roman,serif" font-size="8.00">ResponseCardinality</text>
</g>
<!-- TextDomainType -->
<g id="ReusableTypeTextDomainType6" class="node"><title></title><ellipse fill="#f7b733" stroke="black" cx="85.6514" cy="-18" rx="45.2568" ry="18" style="filter: url(#dropshadow)"/>
<text text-anchor="middle" x="85.6514" y="-16.1" font-family="Times New Roman,serif" font-size="8.00">TextDomainType</text>
</g>
<!-- TextDomainType&#45;&gt;ResponseCardinalityType -->
<g id="edge15" class="edge"><title>TextDomainType&#45;&gt;ResponseCardinalityType</title>
<path fill="none" stroke="black" d="M126.597,-25.7825C165.243,-35.1865 223.259,-54.5092 260.303,-91 349.757,-179.119 402.125,-326.644 418.339,-377.844"/>
<text text-anchor="middle" x="224.803" y="-93.6" font-family="Times New Roman,serif" font-size="8.00">ResponseCardinality</text>
</g>
</g>
</svg>
