<?xml version="1.0" encoding="UTF-8" standalone="no"?>
<!DOCTYPE svg PUBLIC "-//W3C//DTD SVG 1.1//EN"
 "http://www.w3.org/Graphics/SVG/1.1/DTD/svg11.dtd">
<!-- Generated by graphviz version 2.38.0 (20140413.2041)
 -->
<!-- Title: G Pages: 1 -->
<svg width="1302pt" height="606pt"
 viewBox="0.00 0.00 1301.73 606.00" xmlns="http://www.w3.org/2000/svg" xmlns:xlink="http://www.w3.org/1999/xlink">
<filter id = "dropshadow" height = "130%" ><feGaussianBlur in= "SourceAlpha" stdDeviation = "3"/><!--stdDeviation is how much to blur--><feOffset dx = "2" dy = "2" result = "offsetblur"/><!--how much to offset--><feMerge><feMergeNode/><!--this contains the offset blurred image--><feMergeNode in= "SourceGraphic"/><!--this contains the element that the filter is applied to --></feMerge></filter>
<g id="graph0" class="graph" transform="scale(1 1) rotate(0) translate(4 602)">
<title>G</title>
<g id="clust1" class="cluster"><title>clusterSampleFrame</title>
<polygon fill="#4abdac" stroke="black" points="267.731,-150 267.731,-590 1285.73,-590 1285.73,-150 267.731,-150" style="filter: url(#dropshadow)"/>
<text text-anchor="middle" x="776.731" y="-579.6" font-family="Times New Roman,serif" font-size="8.00">SampleFrame</text>
</g>
<!-- SampleFrameProperties -->
<g id="ItemTypeSampleFrameProperties" class="node"><title></title><polygon fill="#f7b733" stroke="black" points="275.731,-203.5 275.731,-328.5 524.731,-328.5 524.731,-203.5 275.731,-203.5" style="filter: url(#dropshadow)"/>
<text text-anchor="middle" x="302.231" y="-264.1" font-family="Times New Roman,serif" font-size="8.00">Properties</text>
<polyline fill="none" stroke="black" points="328.731,-203.5 328.731,-328.5 "/>
<text text-anchor="start" x="336.731" y="-318.1" font-family="Times New Roman,serif" font-size="8.00">SampleFrameName : NameType[0...n] </text>
<text text-anchor="start" x="336.731" y="-309.1" font-family="Times New Roman,serif" font-size="8.00">Label : LabelType[0...n] </text>
<text text-anchor="start" x="336.731" y="-300.1" font-family="Times New Roman,serif" font-size="8.00">Description : StructuredStringType[0...1] </text>
<text text-anchor="start" x="336.731" y="-291.1" font-family="Times New Roman,serif" font-size="8.00">ValidPeriod : DateType[0...1] </text>
<text text-anchor="start" x="336.731" y="-282.1" font-family="Times New Roman,serif" font-size="8.00">CustodianReference : Agent[0...1] </text>
<text text-anchor="start" x="336.731" y="-273.1" font-family="Times New Roman,serif" font-size="8.00">SampleFrameAccess : AccessType[0...1] </text>
<text text-anchor="start" x="336.731" y="-264.1" font-family="Times New Roman,serif" font-size="8.00">UniverseReference : Universe[0...n] </text>
<text text-anchor="start" x="336.731" y="-255.1" font-family="Times New Roman,serif" font-size="8.00">UnitsOfFrame : PopulationSizeType[0...1] </text>
<text text-anchor="start" x="336.731" y="-246.1" font-family="Times New Roman,serif" font-size="8.00">FrameLimitations : StructuredStringType[0...1] </text>
<text text-anchor="start" x="336.731" y="-237.1" font-family="Times New Roman,serif" font-size="8.00">AuxiliaryInformation : StructuredStringType[0...1] </text>
<text text-anchor="start" x="336.731" y="-228.1" font-family="Times New Roman,serif" font-size="8.00">ReferencePeriod : DateType[0...1] </text>
<text text-anchor="start" x="336.731" y="-219.1" font-family="Times New Roman,serif" font-size="8.00">UpdateProcedure : StructuredStringType[0...1] </text>
<text text-anchor="start" x="336.731" y="-210.1" font-family="Times New Roman,serif" font-size="8.00">SourceFrameReference : SampleFrame[0...n] </text>
</g>
<!-- SampleFrameProperties&#45;&gt;SampleFrameProperties -->
<g id="edge22" class="edge"><title>SampleFrameProperties&#45;&gt;SampleFrameProperties</title>
<path fill="none" stroke="black" d="M368.375,-328.83C372.728,-339.564 383.347,-347 400.231,-347 417.116,-347 427.735,-339.564 432.088,-328.83"/>
<text text-anchor="middle" x="400.231" y="-349.6" font-family="Times New Roman,serif" font-size="8.00">SourceFrameReference</text>
<text text-anchor="middle" x="424.088" y="-331.43" font-family="Times New Roman,serif" font-size="8.00">0...*</text>
<text text-anchor="middle" x="360.375" y="-331.43" font-family="Times New Roman,serif" font-size="8.00">0...*</text>
</g>
<!-- SampleFrameNameType -->
<g id="ReusableTypeSampleFrameNameType" class="node"><title></title><polygon fill="#fc4a1a" stroke="black" points="1086.73,-171 1086.73,-207 1255.73,-207 1255.73,-171 1086.73,-171" style="filter: url(#dropshadow)"/>
<text text-anchor="middle" x="1114.73" y="-187.1" font-family="Times New Roman,serif" font-size="8.00">NameType</text>
<polyline fill="none" stroke="black" points="1142.73,-171 1142.73,-207 "/>
<text text-anchor="start" x="1150.73" y="-191.6" font-family="Times New Roman,serif" font-size="8.00">IsPreferred : boolean[0...1] </text>
<text text-anchor="start" x="1150.73" y="-182.6" font-family="Times New Roman,serif" font-size="8.00">Context : string[0...1] </text>
</g>
<!-- SampleFrameProperties&#45;&gt;SampleFrameNameType -->
<g id="edge1" class="edge"><title>SampleFrameProperties&#45;&gt;SampleFrameNameType</title>
<path fill="none" stroke="black" d="M524.89,-215.448C561.262,-202.934 601.549,-191.307 639.731,-185 795.804,-159.22 981.239,-169.832 1086.39,-179.609"/>
<text text-anchor="middle" x="780.231" y="-187.6" font-family="Times New Roman,serif" font-size="8.00">SampleFrameName</text>
</g>
<!-- SampleFrameLabelType -->
<g id="ReusableTypeSampleFrameLabelType" class="node"><title></title><polygon fill="#fc4a1a" stroke="black" points="1065.73,-459.5 1065.73,-512.5 1276.73,-512.5 1276.73,-459.5 1065.73,-459.5" style="filter: url(#dropshadow)"/>
<text text-anchor="middle" x="1092.73" y="-484.1" font-family="Times New Roman,serif" font-size="8.00">LabelType</text>
<polyline fill="none" stroke="black" points="1119.73,-459.5 1119.73,-512.5 "/>
<text text-anchor="start" x="1127.73" y="-502.1" font-family="Times New Roman,serif" font-size="8.00">TypeOfLabel : CodeValueType[0...1] </text>
<text text-anchor="start" x="1127.73" y="-493.1" font-family="Times New Roman,serif" font-size="8.00">LocationVariant : string[0...1] </text>
<text text-anchor="start" x="1127.73" y="-484.1" font-family="Times New Roman,serif" font-size="8.00">ValidForStartDate : cogsDate[0...1] </text>
<text text-anchor="start" x="1127.73" y="-475.1" font-family="Times New Roman,serif" font-size="8.00">ValidForEndDate : cogsDate[0...1] </text>
<text text-anchor="start" x="1127.73" y="-466.1" font-family="Times New Roman,serif" font-size="8.00">MaxLength : nonNegativeInteger[0...1] </text>
</g>
<!-- SampleFrameProperties&#45;&gt;SampleFrameLabelType -->
<g id="edge2" class="edge"><title>SampleFrameProperties&#45;&gt;SampleFrameLabelType</title>
<path fill="none" stroke="black" d="M449.039,-328.717C492.312,-379.548 561.174,-446.872 639.731,-473 781.461,-520.139 956.443,-512.785 1065.72,-501.054"/>
<text text-anchor="middle" x="780.231" y="-511.6" font-family="Times New Roman,serif" font-size="8.00">Label</text>
</g>
<!-- SampleFrameStructuredStringType -->
<g id="ReusableTypeSampleFrameStructuredStringType" class="node"><title></title><polygon fill="#fc4a1a" stroke="black" points="1064.73,-324 1064.73,-360 1277.73,-360 1277.73,-324 1064.73,-324" style="filter: url(#dropshadow)"/>
<text text-anchor="middle" x="1109.73" y="-340.1" font-family="Times New Roman,serif" font-size="8.00">StructuredStringType</text>
<polyline fill="none" stroke="black" points="1154.73,-324 1154.73,-360 "/>
<text text-anchor="start" x="1162.73" y="-340.1" font-family="Times New Roman,serif" font-size="8.00">Content : ContentType[0...n] </text>
</g>
<!-- SampleFrameProperties&#45;&gt;SampleFrameStructuredStringType -->
<g id="edge3" class="edge"><title>SampleFrameProperties&#45;&gt;SampleFrameStructuredStringType</title>
<path fill="none" stroke="black" d="M524.927,-307.591C561.562,-318.751 601.98,-329.942 639.731,-338 701.299,-351.142 872.426,-333.628 920.731,-374 941.116,-391.037 917.303,-415.296 938.731,-431 958.089,-445.187 1023.89,-438.372 1046.73,-431 1089.74,-417.118 1130.39,-382.071 1152.65,-360.328"/>
<text text-anchor="middle" x="780.231" y="-376.6" font-family="Times New Roman,serif" font-size="8.00">Description</text>
</g>
<!-- SampleFrameDateType -->
<g id="ReusableTypeSampleFrameDateType" class="node"><title></title><polygon fill="#fc4a1a" stroke="black" points="662.731,-392.5 662.731,-463.5 897.731,-463.5 897.731,-392.5 662.731,-392.5" style="filter: url(#dropshadow)"/>
<text text-anchor="middle" x="688.731" y="-426.1" font-family="Times New Roman,serif" font-size="8.00">DateType</text>
<polyline fill="none" stroke="black" points="714.731,-392.5 714.731,-463.5 "/>
<text text-anchor="start" x="722.731" y="-453.1" font-family="Times New Roman,serif" font-size="8.00">SimpleDate : cogsDate[0...1] </text>
<text text-anchor="start" x="722.731" y="-444.1" font-family="Times New Roman,serif" font-size="8.00">HistoricalDate : HistoricalDateType[0...1] </text>
<text text-anchor="start" x="722.731" y="-435.1" font-family="Times New Roman,serif" font-size="8.00">StartDate : cogsDate[0...1] </text>
<text text-anchor="start" x="722.731" y="-426.1" font-family="Times New Roman,serif" font-size="8.00">HistoricalStartDate : HistoricalDateType[0...1] </text>
<text text-anchor="start" x="722.731" y="-417.1" font-family="Times New Roman,serif" font-size="8.00">EndDate : cogsDate[0...1] </text>
<text text-anchor="start" x="722.731" y="-408.1" font-family="Times New Roman,serif" font-size="8.00">HistoricalEndDate : HistoricalDateType[0...1] </text>
<text text-anchor="start" x="722.731" y="-399.1" font-family="Times New Roman,serif" font-size="8.00">Cycle : int[0...1] </text>
</g>
<!-- SampleFrameProperties&#45;&gt;SampleFrameDateType -->
<g id="edge4" class="edge"><title>SampleFrameProperties&#45;&gt;SampleFrameDateType</title>
<path fill="none" stroke="black" d="M474.866,-328.532C495.767,-343.878 519.254,-359.029 542.731,-370 580.074,-387.451 623.277,-400.022 662.46,-408.899"/>
<text text-anchor="middle" x="582.231" y="-400.6" font-family="Times New Roman,serif" font-size="8.00">ValidPeriod</text>
</g>
<!-- Agent -->
<g id="ItemTypeAgent" class="node"><title></title><ellipse fill="#f7b733" stroke="black" cx="1171.23" cy="-124" rx="27" ry="18" style="filter: url(#dropshadow)"/>
<text text-anchor="middle" x="1171.23" y="-122.1" font-family="Times New Roman,serif" font-size="8.00">Agent</text>
</g>
<!-- SampleFrameProperties&#45;&gt;Agent -->
<g id="edge5" class="edge"><title>SampleFrameProperties&#45;&gt;Agent</title>
<path fill="none" stroke="black" d="M504.161,-203.491C516.933,-196.81 529.985,-190.468 542.731,-185 759.505,-92.0158 1055.98,-112.353 1144.36,-121.115"/>
<text text-anchor="middle" x="780.231" y="-154.6" font-family="Times New Roman,serif" font-size="8.00">CustodianReference</text>
<text text-anchor="middle" x="1136.36" y="-114.715" font-family="Times New Roman,serif" font-size="8.00">0...*</text>
<text text-anchor="middle" x="496.161" y="-197.091" font-family="Times New Roman,serif" font-size="8.00">0...*</text>
</g>
<!-- SampleFrameAccessType -->
<g id="ReusableTypeSampleFrameAccessType" class="node"><title></title><polygon fill="#fc4a1a" stroke="black" points="639.731,-203.5 639.731,-328.5 920.731,-328.5 920.731,-203.5 639.731,-203.5" style="filter: url(#dropshadow)"/>
<text text-anchor="middle" x="669.231" y="-264.1" font-family="Times New Roman,serif" font-size="8.00">AccessType</text>
<polyline fill="none" stroke="black" points="698.731,-203.5 698.731,-328.5 "/>
<text text-anchor="start" x="706.731" y="-318.1" font-family="Times New Roman,serif" font-size="8.00">TypeOfAccess : CodeValueType[0...1] </text>
<text text-anchor="start" x="706.731" y="-309.1" font-family="Times New Roman,serif" font-size="8.00">AccessTypeName : NameType[0...n] </text>
<text text-anchor="start" x="706.731" y="-300.1" font-family="Times New Roman,serif" font-size="8.00">Label : LabelType[0...n] </text>
<text text-anchor="start" x="706.731" y="-291.1" font-family="Times New Roman,serif" font-size="8.00">Description : StructuredStringType[0...1] </text>
<text text-anchor="start" x="706.731" y="-282.1" font-family="Times New Roman,serif" font-size="8.00">ConfidentialityStatement : StructuredStringType[0...1] </text>
<text text-anchor="start" x="706.731" y="-273.1" font-family="Times New Roman,serif" font-size="8.00">AccessPermission : FormType[0...n] </text>
<text text-anchor="start" x="706.731" y="-264.1" font-family="Times New Roman,serif" font-size="8.00">Restrictions : StructuredStringType[0...1] </text>
<text text-anchor="start" x="706.731" y="-255.1" font-family="Times New Roman,serif" font-size="8.00">CitationRequirement : StructuredStringType[0...1] </text>
<text text-anchor="start" x="706.731" y="-246.1" font-family="Times New Roman,serif" font-size="8.00">DepositRequirement : StructuredStringType[0...1] </text>
<text text-anchor="start" x="706.731" y="-237.1" font-family="Times New Roman,serif" font-size="8.00">AccessConditions : StructuredStringType[0...1] </text>
<text text-anchor="start" x="706.731" y="-228.1" font-family="Times New Roman,serif" font-size="8.00">Disclaimer : StructuredStringType[0...1] </text>
<text text-anchor="start" x="706.731" y="-219.1" font-family="Times New Roman,serif" font-size="8.00">AccessRestrictionDate : AccessRestrictionDateType[0...1] </text>
<text text-anchor="start" x="706.731" y="-210.1" font-family="Times New Roman,serif" font-size="8.00">ContactOrganizationReference : Agent[0...n] </text>
</g>
<!-- SampleFrameProperties&#45;&gt;SampleFrameAccessType -->
<g id="edge6" class="edge"><title>SampleFrameProperties&#45;&gt;SampleFrameAccessType</title>
<path fill="none" stroke="black" d="M524.741,-266C561.463,-266 601.95,-266 639.62,-266"/>
<text text-anchor="middle" x="582.231" y="-268.6" font-family="Times New Roman,serif" font-size="8.00">SampleFrameAccess</text>
<text text-anchor="middle" x="631.62" y="-259.6" font-family="Times New Roman,serif" font-size="8.00">0...*</text>
<text text-anchor="middle" x="532.741" y="-259.6" font-family="Times New Roman,serif" font-size="8.00">0...*</text>
</g>
<!-- Universe -->
<g id="ItemTypeUniverse" class="node"><title></title><ellipse fill="#f7b733" stroke="black" cx="780.231" cy="-72" rx="27" ry="18" style="filter: url(#dropshadow)"/>
<text text-anchor="middle" x="780.231" y="-70.1" font-family="Times New Roman,serif" font-size="8.00">Universe</text>
</g>
<!-- SampleFrameProperties&#45;&gt;Universe -->
<g id="edge7" class="edge"><title>SampleFrameProperties&#45;&gt;Universe</title>
<path fill="none" stroke="black" d="M439.137,-203.169C464,-167.734 499.819,-126.061 542.731,-103 611.673,-65.9516 707.724,-66.7106 753.279,-69.6456"/>
<text text-anchor="middle" x="582.231" y="-105.6" font-family="Times New Roman,serif" font-size="8.00">UniverseReference</text>
<text text-anchor="middle" x="745.279" y="-63.2456" font-family="Times New Roman,serif" font-size="8.00">0...*</text>
<text text-anchor="middle" x="431.137" y="-196.769" font-family="Times New Roman,serif" font-size="8.00">0...*</text>
</g>
<!-- SampleFramePopulationSizeType -->
<g id="ReusableTypeSampleFramePopulationSizeType" class="node"><title></title><polygon fill="#fc4a1a" stroke="black" points="660.231,-528 660.231,-564 900.231,-564 900.231,-528 660.231,-528" style="filter: url(#dropshadow)"/>
<text text-anchor="middle" x="703.731" y="-544.1" font-family="Times New Roman,serif" font-size="8.00">PopulationSizeType</text>
<polyline fill="none" stroke="black" points="747.231,-528 747.231,-564 "/>
<text text-anchor="start" x="755.231" y="-548.6" font-family="Times New Roman,serif" font-size="8.00">PrimaryPopulation : SizeType[0...1] </text>
<text text-anchor="start" x="755.231" y="-539.6" font-family="Times New Roman,serif" font-size="8.00">SecondaryPopulation : SizeType[0...n] </text>
</g>
<!-- SampleFrameProperties&#45;&gt;SampleFramePopulationSizeType -->
<g id="edge8" class="edge"><title>SampleFrameProperties&#45;&gt;SampleFramePopulationSizeType</title>
<path fill="none" stroke="black" d="M421.303,-328.698C442.442,-384.146 481.311,-462.623 542.731,-505 576.774,-528.488 619.968,-539.926 660.101,-545.127"/>
<text text-anchor="middle" x="582.231" y="-539.6" font-family="Times New Roman,serif" font-size="8.00">UnitsOfFrame</text>
<text text-anchor="middle" x="652.101" y="-538.727" font-family="Times New Roman,serif" font-size="8.00">0...*</text>
<text text-anchor="middle" x="413.303" y="-331.298" font-family="Times New Roman,serif" font-size="8.00">0...*</text>
</g>
<!-- SampleFrame -->
<g id="ItemTypeSampleFrame0" class="node"><title></title><ellipse fill="#f7b733" stroke="black" cx="780.231" cy="-18" rx="35.9723" ry="18" style="filter: url(#dropshadow)"/>
<text text-anchor="middle" x="780.231" y="-16.1" font-family="Times New Roman,serif" font-size="8.00">SampleFrame</text>
</g>
<!-- SampleFrameProperties&#45;&gt;SampleFrame -->
<g id="edge9" class="edge"><title>SampleFrameProperties&#45;&gt;SampleFrame</title>
<path fill="none" stroke="black" d="M429.523,-203.12C453.26,-157.67 491.519,-98.5797 542.731,-65 605.22,-24.0265 695.548,-17.3414 744.511,-17.0489"/>
<text text-anchor="middle" x="582.231" y="-67.6" font-family="Times New Roman,serif" font-size="8.00">SourceFrameReference</text>
<text text-anchor="middle" x="736.511" y="-10.6489" font-family="Times New Roman,serif" font-size="8.00">0...*</text>
<text text-anchor="middle" x="421.523" y="-196.72" font-family="Times New Roman,serif" font-size="8.00">0...*</text>
</g>
<!-- SampleFrameAccessType&#45;&gt;SampleFrameNameType -->
<g id="edge10" class="edge"><title>SampleFrameAccessType&#45;&gt;SampleFrameNameType</title>
<path fill="none" stroke="black" d="M920.997,-210.396C926.948,-208.779 932.876,-207.301 938.731,-206 987.021,-195.27 1042.23,-190.922 1086.61,-189.302"/>
<text text-anchor="middle" x="992.731" y="-208.6" font-family="Times New Roman,serif" font-size="8.00">AccessTypeName</text>
<text text-anchor="middle" x="1078.61" y="-182.902" font-family="Times New Roman,serif" font-size="8.00">0...*</text>
<text text-anchor="middle" x="928.997" y="-203.996" font-family="Times New Roman,serif" font-size="8.00">0...*</text>
</g>
<!-- SampleFrameAccessType&#45;&gt;SampleFrameLabelType -->
<g id="edge11" class="edge"><title>SampleFrameAccessType&#45;&gt;SampleFrameLabelType</title>
<path fill="none" stroke="black" d="M908.188,-328.509C912.744,-333.048 916.962,-337.874 920.731,-343 944.383,-375.16 910.951,-402.331 938.731,-431 971.431,-464.746 1020.78,-479.362 1065.52,-485.185"/>
<text text-anchor="middle" x="992.731" y="-484.6" font-family="Times New Roman,serif" font-size="8.00">Label</text>
<text text-anchor="middle" x="1057.52" y="-478.785" font-family="Times New Roman,serif" font-size="8.00">0...*</text>
<text text-anchor="middle" x="900.188" y="-331.109" font-family="Times New Roman,serif" font-size="8.00">0...*</text>
</g>
<!-- SampleFrameAccessType&#45;&gt;SampleFrameStructuredStringType -->
<g id="edge12" class="edge"><title>SampleFrameAccessType&#45;&gt;SampleFrameStructuredStringType</title>
<path fill="none" stroke="black" d="M907.229,-328.727C912.075,-333.215 916.613,-337.97 920.731,-343 937.563,-363.554 917.303,-384.296 938.731,-400 1002.73,-446.903 1100.52,-391.179 1145.74,-360.123"/>
<text text-anchor="middle" x="992.731" y="-420.6" font-family="Times New Roman,serif" font-size="8.00">Description</text>
<text text-anchor="middle" x="1137.74" y="-362.723" font-family="Times New Roman,serif" font-size="8.00">0...*</text>
<text text-anchor="middle" x="915.229" y="-331.327" font-family="Times New Roman,serif" font-size="8.00">0...*</text>
</g>
<!-- SampleFrameAccessType&#45;&gt;SampleFrameStructuredStringType -->
<g id="edge13" class="edge"><title>SampleFrameAccessType&#45;&gt;SampleFrameStructuredStringType</title>
<path fill="none" stroke="black" d="M921.047,-222.198C962.506,-215.901 1007.34,-215.897 1046.73,-231 1095.45,-249.678 1137.02,-297.432 1157.19,-323.81"/>
<text text-anchor="middle" x="992.731" y="-233.6" font-family="Times New Roman,serif" font-size="8.00">ConfidentialityStatement</text>
<text text-anchor="middle" x="1149.19" y="-317.41" font-family="Times New Roman,serif" font-size="8.00">0...*</text>
<text text-anchor="middle" x="929.047" y="-215.798" font-family="Times New Roman,serif" font-size="8.00">0...*</text>
</g>
<!-- SampleFrameAccessType&#45;&gt;SampleFrameStructuredStringType -->
<g id="edge14" class="edge"><title>SampleFrameAccessType&#45;&gt;SampleFrameStructuredStringType</title>
<path fill="none" stroke="black" d="M920.789,-249.169C962.029,-248.25 1006.8,-251.322 1046.73,-263 1087.28,-274.861 1127.17,-304.557 1150.21,-323.971"/>
<text text-anchor="middle" x="992.731" y="-265.6" font-family="Times New Roman,serif" font-size="8.00">Restrictions</text>
<text text-anchor="middle" x="1158.21" y="-317.571" font-family="Times New Roman,serif" font-size="8.00">0...*</text>
<text text-anchor="middle" x="928.789" y="-242.769" font-family="Times New Roman,serif" font-size="8.00">0...*</text>
</g>
<!-- SampleFrameAccessType&#45;&gt;SampleFrameStructuredStringType -->
<g id="edge15" class="edge"><title>SampleFrameAccessType&#45;&gt;SampleFrameStructuredStringType</title>
<path fill="none" stroke="black" d="M920.867,-274.52C961.798,-278.822 1006.38,-285.288 1046.73,-295 1075.5,-301.926 1106.64,-313.806 1130.45,-323.889"/>
<text text-anchor="middle" x="992.731" y="-297.6" font-family="Times New Roman,serif" font-size="8.00">CitationRequirement</text>
<text text-anchor="middle" x="1122.45" y="-317.489" font-family="Times New Roman,serif" font-size="8.00">0...*</text>
<text text-anchor="middle" x="928.867" y="-268.12" font-family="Times New Roman,serif" font-size="8.00">0...*</text>
</g>
<!-- SampleFrameAccessType&#45;&gt;SampleFrameStructuredStringType -->
<g id="edge16" class="edge"><title>SampleFrameAccessType&#45;&gt;SampleFrameStructuredStringType</title>
<path fill="none" stroke="black" d="M921.09,-300.312C927.042,-301.593 932.942,-302.828 938.731,-304 979.649,-312.282 1024.91,-320.024 1064.48,-326.331"/>
<text text-anchor="middle" x="992.731" y="-326.6" font-family="Times New Roman,serif" font-size="8.00">DepositRequirement</text>
<text text-anchor="middle" x="1056.48" y="-319.931" font-family="Times New Roman,serif" font-size="8.00">0...*</text>
<text text-anchor="middle" x="929.09" y="-293.912" font-family="Times New Roman,serif" font-size="8.00">0...*</text>
</g>
<!-- SampleFrameAccessType&#45;&gt;SampleFrameStructuredStringType -->
<g id="edge17" class="edge"><title>SampleFrameAccessType&#45;&gt;SampleFrameStructuredStringType</title>
<path fill="none" stroke="black" d="M911.835,-328.577C920.812,-331.465 929.829,-333.99 938.731,-336 979.223,-345.143 1024.71,-347.887 1064.58,-347.906"/>
<text text-anchor="middle" x="992.731" y="-350.6" font-family="Times New Roman,serif" font-size="8.00">AccessConditions</text>
<text text-anchor="middle" x="1056.58" y="-341.506" font-family="Times New Roman,serif" font-size="8.00">0...*</text>
<text text-anchor="middle" x="919.835" y="-322.177" font-family="Times New Roman,serif" font-size="8.00">0...*</text>
</g>
<!-- SampleFrameAccessType&#45;&gt;SampleFrameStructuredStringType -->
<g id="edge18" class="edge"><title>SampleFrameAccessType&#45;&gt;SampleFrameStructuredStringType</title>
<path fill="none" stroke="black" d="M900.285,-328.648C907.338,-333.297 914.21,-338.095 920.731,-343 929.773,-349.801 928.279,-356.67 938.731,-361 995.92,-384.688 1067.76,-373.138 1116.12,-360.091"/>
<text text-anchor="middle" x="992.731" y="-377.6" font-family="Times New Roman,serif" font-size="8.00">Disclaimer</text>
<text text-anchor="middle" x="1108.12" y="-362.691" font-family="Times New Roman,serif" font-size="8.00">0...*</text>
<text text-anchor="middle" x="892.285" y="-331.248" font-family="Times New Roman,serif" font-size="8.00">0...*</text>
</g>
<!-- SampleFrameAccessType&#45;&gt;Agent -->
<g id="edge19" class="edge"><title>SampleFrameAccessType&#45;&gt;Agent</title>
<path fill="none" stroke="black" d="M894.685,-203.411C903.5,-198.538 912.261,-193.69 920.731,-189 928.737,-184.567 930.238,-182.408 938.731,-179 992.456,-157.441 1008.38,-159.246 1064.73,-146 1092.05,-139.578 1123.58,-133.129 1145,-128.889"/>
<text text-anchor="middle" x="992.731" y="-181.6" font-family="Times New Roman,serif" font-size="8.00">ContactOrganizationReference</text>
<text text-anchor="middle" x="1137" y="-131.489" font-family="Times New Roman,serif" font-size="8.00">0...*</text>
<text text-anchor="middle" x="886.685" y="-197.011" font-family="Times New Roman,serif" font-size="8.00">0...*</text>
</g>
<!-- PretestActivity -->
<g id="ItemTypePretestActivity1" class="node"><title></title><ellipse fill="#f7b733" stroke="black" cx="66.3657" cy="-401" rx="40.0477" ry="18" style="filter: url(#dropshadow)"/>
<text text-anchor="middle" x="66.3657" y="-399.1" font-family="Times New Roman,serif" font-size="8.00">PretestActivity</text>
</g>
<!-- PretestActivity&#45;&gt;SampleFrameProperties -->
<g id="edge20" class="edge"><title>PretestActivity&#45;&gt;SampleFrameProperties</title>
<path fill="none" stroke="black" d="M101.318,-391.742C139.865,-380.819 204.328,-361.3 257.731,-339 261.135,-337.579 264.568,-336.107 268.019,-334.595"/>
<text text-anchor="middle" x="204.231" y="-378.6" font-family="Times New Roman,serif" font-size="8.00">SampleFrameReference</text>
<text text-anchor="middle" x="260.019" y="-337.195" font-family="Times New Roman,serif" font-size="8.00">0...*</text>
<text text-anchor="middle" x="109.318" y="-385.342" font-family="Times New Roman,serif" font-size="8.00">0...*</text>
</g>
<!-- Sample -->
<g id="ItemTypeSample2" class="node"><title></title><ellipse fill="#f7b733" stroke="black" cx="66.3657" cy="-347" rx="27" ry="18" style="filter: url(#dropshadow)"/>
<text text-anchor="middle" x="66.3657" y="-345.1" font-family="Times New Roman,serif" font-size="8.00">Sample</text>
</g>
<!-- Sample&#45;&gt;SampleFrameProperties -->
<g id="edge21" class="edge"><title>Sample&#45;&gt;SampleFrameProperties</title>
<path fill="none" stroke="black" d="M92.0384,-340.978C129.284,-331.887 202.497,-314.018 268.107,-298.004"/>
<text text-anchor="middle" x="204.231" y="-328.6" font-family="Times New Roman,serif" font-size="8.00">SampleFrameUsedReference</text>
<text text-anchor="middle" x="260.107" y="-291.604" font-family="Times New Roman,serif" font-size="8.00">0...*</text>
<text text-anchor="middle" x="100.038" y="-334.578" font-family="Times New Roman,serif" font-size="8.00">0...*</text>
</g>
<!-- SamplingInformationGroup -->
<g id="ItemTypeSamplingInformationGroup3" class="node"><title></title><ellipse fill="#f7b733" stroke="black" cx="66.3657" cy="-293" rx="63.5591" ry="18" style="filter: url(#dropshadow)"/>
<text text-anchor="middle" x="66.3657" y="-291.1" font-family="Times New Roman,serif" font-size="8.00">SamplingInformationGroup</text>
</g>
<!-- SamplingInformationGroup&#45;&gt;SampleFrameProperties -->
<g id="edge23" class="edge"><title>SamplingInformationGroup&#45;&gt;SampleFrameProperties</title>
<path fill="none" stroke="black" d="M127.849,-288.079C166.979,-284.896 219.469,-280.625 267.856,-276.688"/>
<text text-anchor="middle" x="204.231" y="-288.6" font-family="Times New Roman,serif" font-size="8.00">SampleFrameReference</text>
<text text-anchor="middle" x="259.856" y="-270.288" font-family="Times New Roman,serif" font-size="8.00">0...*</text>
<text text-anchor="middle" x="135.849" y="-281.679" font-family="Times New Roman,serif" font-size="8.00">0...*</text>
</g>
<!-- SamplingInformationScheme -->
<g id="ItemTypeSamplingInformationScheme4" class="node"><title></title><ellipse fill="#f7b733" stroke="black" cx="66.3657" cy="-239" rx="66.2317" ry="18" style="filter: url(#dropshadow)"/>
<text text-anchor="middle" x="66.3657" y="-237.1" font-family="Times New Roman,serif" font-size="8.00">SamplingInformationScheme</text>
</g>
<!-- SamplingInformationScheme&#45;&gt;SampleFrameProperties -->
<g id="edge24" class="edge"><title>SamplingInformationScheme&#45;&gt;SampleFrameProperties</title>
<path fill="none" stroke="black" d="M130.177,-244.11C169.062,-247.274 220.464,-251.456 267.914,-255.316"/>
<text text-anchor="middle" x="204.231" y="-257.6" font-family="Times New Roman,serif" font-size="8.00">SampleFrameReference</text>
<text text-anchor="middle" x="259.914" y="-248.916" font-family="Times New Roman,serif" font-size="8.00">0...*</text>
<text text-anchor="middle" x="138.177" y="-237.71" font-family="Times New Roman,serif" font-size="8.00">0...*</text>
</g>
<!-- SamplingStage -->
<g id="ItemTypeSamplingStage5" class="node"><title></title><ellipse fill="#f7b733" stroke="black" cx="66.3657" cy="-185" rx="37.3742" ry="18" style="filter: url(#dropshadow)"/>
<text text-anchor="middle" x="66.3657" y="-183.1" font-family="Times New Roman,serif" font-size="8.00">SamplingStage</text>
</g>
<!-- SamplingStage&#45;&gt;SampleFrameProperties -->
<g id="edge25" class="edge"><title>SamplingStage&#45;&gt;SampleFrameProperties</title>
<path fill="none" stroke="black" d="M100.094,-192.988C139.143,-202.519 206.837,-219.041 267.961,-233.96"/>
<text text-anchor="middle" x="204.231" y="-233.6" font-family="Times New Roman,serif" font-size="8.00">RecommendedFrameReference</text>
<text text-anchor="middle" x="259.961" y="-227.56" font-family="Times New Roman,serif" font-size="8.00">0...*</text>
<text text-anchor="middle" x="108.094" y="-186.588" font-family="Times New Roman,serif" font-size="8.00">0...*</text>
</g>
<!-- ApplicationDetailsType -->
<g id="ReusableTypeApplicationDetailsType6" class="node"><title></title><ellipse fill="#f7b733" stroke="black" cx="66.3657" cy="-131" rx="57.0809" ry="18" style="filter: url(#dropshadow)"/>
<text text-anchor="middle" x="66.3657" y="-129.1" font-family="Times New Roman,serif" font-size="8.00">ApplicationDetailsType</text>
</g>
<!-- ApplicationDetailsType&#45;&gt;SampleFrameProperties -->
<g id="edge26" class="edge"><title>ApplicationDetailsType&#45;&gt;SampleFrameProperties</title>
<path fill="none" stroke="black" d="M109.623,-142.982C148.648,-154.515 207.93,-173.229 257.731,-194 261.07,-195.393 264.439,-196.832 267.825,-198.309"/>
<text text-anchor="middle" x="204.231" y="-196.6" font-family="Times New Roman,serif" font-size="8.00">SampleFrameReference</text>
<text text-anchor="middle" x="259.825" y="-191.909" font-family="Times New Roman,serif" font-size="8.00">0...*</text>
<text text-anchor="middle" x="117.623" y="-145.582" font-family="Times New Roman,serif" font-size="8.00">0...*</text>
</g>
</g>
</svg>
