<?xml version="1.0" encoding="UTF-8" standalone="no"?>
<!DOCTYPE svg PUBLIC "-//W3C//DTD SVG 1.1//EN"
 "http://www.w3.org/Graphics/SVG/1.1/DTD/svg11.dtd">
<!-- Generated by graphviz version 2.38.0 (20140413.2041)
 -->
<!-- Title: G Pages: 1 -->
<svg width="287pt" height="800pt"
 viewBox="0.00 0.00 286.79 800.00" xmlns="http://www.w3.org/2000/svg" xmlns:xlink="http://www.w3.org/1999/xlink">
<filter id = "dropshadow" height = "130%" ><feGaussianBlur in= "SourceAlpha" stdDeviation = "3"/><!--stdDeviation is how much to blur--><feOffset dx = "2" dy = "2" result = "offsetblur"/><!--how much to offset--><feMerge><feMergeNode/><!--this contains the offset blurred image--><feMergeNode in= "SourceGraphic"/><!--this contains the element that the filter is applied to --></feMerge></filter>
<g id="graph0" class="graph" transform="scale(1 1) rotate(0) translate(4 796)">
<title>G</title>
<!-- ValueType -->
<g id="ReusableTypeValueType" class="node"><title></title><polygon fill="#f7b733" stroke="black" points="205.79,-378 205.79,-414 278.79,-414 278.79,-378 205.79,-378" style="filter: url(#dropshadow)"/>
<text text-anchor="middle" x="232.79" y="-394.1" font-family="Times New Roman,serif" font-size="8.00">ValueType</text>
<polyline fill="none" stroke="black" points="259.79,-378 259.79,-414 "/>
<text text-anchor="middle" x="269.29" y="-394.1" font-family="Times New Roman,serif" font-size="8.00"> </text>
</g>
<!-- AttachedAttributeIType -->
<g id="ReusableTypeAttachedAttributeIType" class="node"><title></title><ellipse fill="#f7b733" stroke="black" cx="62.3951" cy="-774" rx="57.0809" ry="18" style="filter: url(#dropshadow)"/>
<text text-anchor="middle" x="62.3951" y="-772.1" font-family="Times New Roman,serif" font-size="8.00">AttachedAttributeIType</text>
</g>
<!-- AttachedAttributeIType&#45;&gt;ValueType -->
<g id="edge1" class="edge"><title>AttachedAttributeIType&#45;&gt;ValueType</title>
<path fill="none" stroke="black" d="M101.822,-760.764C130.874,-748.553 168.878,-727.358 187.79,-695 216.129,-646.512 234.347,-471.721 239.668,-414.37"/>
<text text-anchor="middle" x="165.29" y="-741.6" font-family="Times New Roman,serif" font-size="8.00">Value</text>
</g>
<!-- AttachedAttributeTType -->
<g id="ReusableTypeAttachedAttributeTType" class="node"><title></title><ellipse fill="#f7b733" stroke="black" cx="62.3951" cy="-720" rx="58.9835" ry="18" style="filter: url(#dropshadow)"/>
<text text-anchor="middle" x="62.3951" y="-718.1" font-family="Times New Roman,serif" font-size="8.00">AttachedAttributeTType</text>
</g>
<!-- AttachedAttributeTType&#45;&gt;ValueType -->
<g id="edge2" class="edge"><title>AttachedAttributeTType&#45;&gt;ValueType</title>
<path fill="none" stroke="black" d="M101.228,-706.41C130.149,-693.887 168.267,-672.304 187.79,-640 232.989,-565.212 240.181,-456.989 241.194,-414.299"/>
<text text-anchor="middle" x="165.29" y="-684.6" font-family="Times New Roman,serif" font-size="8.00">Value</text>
</g>
<!-- AttachedAttributeType -->
<g id="ReusableTypeAttachedAttributeType" class="node"><title></title><ellipse fill="#f7b733" stroke="black" cx="62.3951" cy="-666" rx="55.6769" ry="18" style="filter: url(#dropshadow)"/>
<text text-anchor="middle" x="62.3951" y="-664.1" font-family="Times New Roman,serif" font-size="8.00">AttachedAttributeType</text>
</g>
<!-- AttachedAttributeType&#45;&gt;ValueType -->
<g id="edge3" class="edge"><title>AttachedAttributeType&#45;&gt;ValueType</title>
<path fill="none" stroke="black" d="M99.291,-652.46C128.095,-639.63 167.031,-617.457 187.79,-585 223.436,-529.267 235.78,-449.465 239.668,-414.081"/>
<text text-anchor="middle" x="165.29" y="-629.6" font-family="Times New Roman,serif" font-size="8.00">Value</text>
</g>
<!-- AttributeType -->
<g id="ReusableTypeAttributeType" class="node"><title></title><ellipse fill="#f7b733" stroke="black" cx="62.3951" cy="-612" rx="38.0086" ry="18" style="filter: url(#dropshadow)"/>
<text text-anchor="middle" x="62.3951" y="-610.1" font-family="Times New Roman,serif" font-size="8.00">AttributeType</text>
</g>
<!-- AttributeType&#45;&gt;ValueType -->
<g id="edge4" class="edge"><title>AttributeType&#45;&gt;ValueType</title>
<path fill="none" stroke="black" d="M93.0245,-601.047C103.41,-596.676 114.934,-591.2 124.79,-585 156.007,-565.365 166.37,-561.02 187.79,-531 214.294,-493.854 230.064,-441.749 237.03,-414.407"/>
<text text-anchor="middle" x="165.29" y="-574.6" font-family="Times New Roman,serif" font-size="8.00">Value</text>
</g>
<!-- CategoryValueType -->
<g id="ReusableTypeCategoryValueType" class="node"><title></title><ellipse fill="#f7b733" stroke="black" cx="62.3951" cy="-558" rx="48.5642" ry="18" style="filter: url(#dropshadow)"/>
<text text-anchor="middle" x="62.3951" y="-556.1" font-family="Times New Roman,serif" font-size="8.00">CategoryValueType</text>
</g>
<!-- CategoryValueType&#45;&gt;ValueType -->
<g id="edge5" class="edge"><title>CategoryValueType&#45;&gt;ValueType</title>
<path fill="none" stroke="black" d="M97.0939,-545.236C106.345,-541.187 116.19,-536.354 124.79,-531 155.853,-511.661 163.533,-505.394 187.79,-478 205.595,-457.893 221.801,-431.37 231.6,-414.01"/>
<text text-anchor="middle" x="165.29" y="-520.6" font-family="Times New Roman,serif" font-size="8.00">Value</text>
</g>
<!-- CodeType -->
<g id="ReusableTypeCodeType" class="node"><title></title><ellipse fill="#f7b733" stroke="black" cx="62.3951" cy="-504" rx="30.1263" ry="18" style="filter: url(#dropshadow)"/>
<text text-anchor="middle" x="62.3951" y="-502.1" font-family="Times New Roman,serif" font-size="8.00">CodeType</text>
</g>
<!-- CodeType&#45;&gt;ValueType -->
<g id="edge6" class="edge"><title>CodeType&#45;&gt;ValueType</title>
<path fill="none" stroke="black" d="M88.0006,-494.186C99.3859,-489.391 112.975,-483.302 124.79,-477 159.349,-458.566 195.92,-431.784 218.673,-414.135"/>
<text text-anchor="middle" x="165.29" y="-467.6" font-family="Times New Roman,serif" font-size="8.00">Value</text>
</g>
<!-- DimensionRankValueType -->
<g id="ReusableTypeDimensionRankValueType" class="node"><title></title><ellipse fill="#f7b733" stroke="black" cx="62.3951" cy="-450" rx="62.2904" ry="18" style="filter: url(#dropshadow)"/>
<text text-anchor="middle" x="62.3951" y="-448.1" font-family="Times New Roman,serif" font-size="8.00">DimensionRankValueType</text>
</g>
<!-- DimensionRankValueType&#45;&gt;ValueType -->
<g id="edge7" class="edge"><title>DimensionRankValueType&#45;&gt;ValueType</title>
<path fill="none" stroke="black" d="M106.005,-437.066C136.431,-427.83 176.893,-415.548 205.618,-406.828"/>
<text text-anchor="middle" x="165.29" y="-426.6" font-family="Times New Roman,serif" font-size="8.00">Value</text>
</g>
<!-- DomainSpecificValueType -->
<g id="ReusableTypeDomainSpecificValueType" class="node"><title></title><ellipse fill="#f7b733" stroke="black" cx="62.3951" cy="-396" rx="61.6562" ry="18" style="filter: url(#dropshadow)"/>
<text text-anchor="middle" x="62.3951" y="-394.1" font-family="Times New Roman,serif" font-size="8.00">DomainSpecificValueType</text>
</g>
<!-- DomainSpecificValueType&#45;&gt;ValueType -->
<g id="edge8" class="edge"><title>DomainSpecificValueType&#45;&gt;ValueType</title>
<path fill="none" stroke="black" d="M124.616,-396C151.652,-396 182.486,-396 205.663,-396"/>
<text text-anchor="middle" x="165.29" y="-398.6" font-family="Times New Roman,serif" font-size="8.00">Value</text>
</g>
<!-- FixedCellValueType -->
<g id="ReusableTypeFixedCellValueType0" class="node"><title></title><ellipse fill="#f7b733" stroke="black" cx="62.3951" cy="-342" rx="48.5642" ry="18" style="filter: url(#dropshadow)"/>
<text text-anchor="middle" x="62.3951" y="-340.1" font-family="Times New Roman,serif" font-size="8.00">FixedCellValueType</text>
</g>
<!-- FixedCellValueType&#45;&gt;ValueType -->
<g id="edge9" class="edge"><title>FixedCellValueType&#45;&gt;ValueType</title>
<path fill="none" stroke="black" d="M100.688,-353.32C131.559,-362.691 175.133,-375.918 205.564,-385.155"/>
<text text-anchor="middle" x="165.29" y="-380.6" font-family="Times New Roman,serif" font-size="8.00">Value</text>
</g>
<!-- ItemValueType -->
<g id="ReusableTypeItemValueType1" class="node"><title></title><ellipse fill="#f7b733" stroke="black" cx="62.3951" cy="-288" rx="40.0477" ry="18" style="filter: url(#dropshadow)"/>
<text text-anchor="middle" x="62.3951" y="-286.1" font-family="Times New Roman,serif" font-size="8.00">ItemValueType</text>
</g>
<!-- ItemValueType&#45;&gt;ValueType -->
<g id="edge10" class="edge"><title>ItemValueType&#45;&gt;ValueType</title>
<path fill="none" stroke="black" d="M92.8353,-299.953C103.095,-304.379 114.588,-309.633 124.79,-315 153.934,-330.333 160.797,-335.137 187.79,-354 198.437,-361.44 209.812,-370.241 219.324,-377.86"/>
<text text-anchor="middle" x="165.29" y="-356.6" font-family="Times New Roman,serif" font-size="8.00">Value</text>
</g>
<!-- MeasureIType -->
<g id="ReusableTypeMeasureIType2" class="node"><title></title><ellipse fill="#f7b733" stroke="black" cx="62.3951" cy="-234" rx="38.0086" ry="18" style="filter: url(#dropshadow)"/>
<text text-anchor="middle" x="62.3951" y="-232.1" font-family="Times New Roman,serif" font-size="8.00">MeasureIType</text>
</g>
<!-- MeasureIType&#45;&gt;ValueType -->
<g id="edge11" class="edge"><title>MeasureIType&#45;&gt;ValueType</title>
<path fill="none" stroke="black" d="M92.6176,-244.976C103.074,-249.385 114.748,-254.879 124.79,-261 155.551,-279.75 163.801,-285.124 187.79,-312 206.096,-332.51 222.301,-359.946 231.953,-377.793"/>
<text text-anchor="middle" x="165.29" y="-314.6" font-family="Times New Roman,serif" font-size="8.00">Value</text>
</g>
<!-- ParameterType -->
<g id="ReusableTypeParameterType3" class="node"><title></title><ellipse fill="#f7b733" stroke="black" cx="62.3951" cy="-180" rx="40.0477" ry="18" style="filter: url(#dropshadow)"/>
<text text-anchor="middle" x="62.3951" y="-178.1" font-family="Times New Roman,serif" font-size="8.00">ParameterType</text>
</g>
<!-- ParameterType&#45;&gt;ValueType -->
<g id="edge12" class="edge"><title>ParameterType&#45;&gt;ValueType</title>
<path fill="none" stroke="black" d="M93.707,-191.472C122.26,-203.837 164.089,-226.256 187.79,-259 215.038,-296.645 230.584,-350.008 237.294,-377.713"/>
<text text-anchor="middle" x="165.29" y="-261.6" font-family="Times New Roman,serif" font-size="8.00">DefaultValue</text>
</g>
<!-- RecordType -->
<g id="ReusableTypeRecordType4" class="node"><title></title><ellipse fill="#f7b733" stroke="black" cx="62.3951" cy="-126" rx="33.433" ry="18" style="filter: url(#dropshadow)"/>
<text text-anchor="middle" x="62.3951" y="-124.1" font-family="Times New Roman,serif" font-size="8.00">RecordType</text>
</g>
<!-- RecordType&#45;&gt;ValueType -->
<g id="edge13" class="edge"><title>RecordType&#45;&gt;ValueType</title>
<path fill="none" stroke="black" d="M90.912,-135.544C120.017,-147.166 164.835,-169.727 187.79,-205 224.324,-261.137 236.226,-342.226 239.836,-377.946"/>
<text text-anchor="middle" x="165.29" y="-207.6" font-family="Times New Roman,serif" font-size="8.00">Value</text>
</g>
<!-- UsedType -->
<g id="ReusableTypeUsedType5" class="node"><title></title><ellipse fill="#f7b733" stroke="black" cx="62.3951" cy="-72" rx="29.4917" ry="18" style="filter: url(#dropshadow)"/>
<text text-anchor="middle" x="62.3951" y="-70.1" font-family="Times New Roman,serif" font-size="8.00">UsedType</text>
</g>
<!-- UsedType&#45;&gt;ValueType -->
<g id="edge14" class="edge"><title>UsedType&#45;&gt;ValueType</title>
<path fill="none" stroke="black" d="M88.9009,-80.1949C118.218,-91.0786 165.192,-113.324 187.79,-150 234.103,-225.165 240.639,-334.875 241.335,-377.814"/>
<text text-anchor="middle" x="165.29" y="-152.6" font-family="Times New Roman,serif" font-size="8.00">DefaultValue</text>
</g>
<!-- VariableItemType -->
<g id="ReusableTypeVariableItemType6" class="node"><title></title><ellipse fill="#f7b733" stroke="black" cx="62.3951" cy="-18" rx="45.2568" ry="18" style="filter: url(#dropshadow)"/>
<text text-anchor="middle" x="62.3951" y="-16.1" font-family="Times New Roman,serif" font-size="8.00">VariableItemType</text>
</g>
<!-- VariableItemType&#45;&gt;ValueType -->
<g id="edge15" class="edge"><title>VariableItemType&#45;&gt;ValueType</title>
<path fill="none" stroke="black" d="M98.2218,-29.27C127.6,-40.7791 167.945,-61.7367 187.79,-95 216.819,-143.657 234.64,-320.51 239.756,-377.89"/>
<text text-anchor="middle" x="165.29" y="-97.6" font-family="Times New Roman,serif" font-size="8.00">Value</text>
</g>
</g>
</svg>
