<?xml version="1.0" encoding="UTF-8" standalone="no"?>
<!DOCTYPE svg PUBLIC "-//W3C//DTD SVG 1.1//EN"
 "http://www.w3.org/Graphics/SVG/1.1/DTD/svg11.dtd">
<!-- Generated by graphviz version 2.38.0 (20140413.2041)
 -->
<!-- Title: G Pages: 1 -->
<svg width="544pt" height="962pt"
 viewBox="0.00 0.00 544.45 962.00" xmlns="http://www.w3.org/2000/svg" xmlns:xlink="http://www.w3.org/1999/xlink">
<filter id = "dropshadow" height = "130%" ><feGaussianBlur in= "SourceAlpha" stdDeviation = "3"/><!--stdDeviation is how much to blur--><feOffset dx = "2" dy = "2" result = "offsetblur"/><!--how much to offset--><feMerge><feMergeNode/><!--this contains the offset blurred image--><feMergeNode in= "SourceGraphic"/><!--this contains the element that the filter is applied to --></feMerge></filter>
<g id="graph0" class="graph" transform="scale(1 1) rotate(0) translate(4 958)">
<title>G</title>
<!-- CommandCodeType -->
<g id="ReusableTypeCommandCodeType" class="node"><title></title><polygon fill="#f7b733" stroke="black" points="242.446,-509 242.446,-553 536.446,-553 536.446,-509 242.446,-509" style="filter: url(#dropshadow)"/>
<text text-anchor="middle" x="286.446" y="-529.1" font-family="Times New Roman,serif" font-size="8.00">CommandCodeType</text>
<polyline fill="none" stroke="black" points="330.446,-509 330.446,-553 "/>
<text text-anchor="start" x="338.446" y="-542.6" font-family="Times New Roman,serif" font-size="8.00">Description : StructuredStringType[0...1] </text>
<text text-anchor="start" x="338.446" y="-533.6" font-family="Times New Roman,serif" font-size="8.00">Command : CommandType[0...n] </text>
<text text-anchor="start" x="338.446" y="-524.6" font-family="Times New Roman,serif" font-size="8.00">CommandFile : CommandFileType[0...n] </text>
<text text-anchor="start" x="338.446" y="-515.6" font-family="Times New Roman,serif" font-size="8.00">StructuredCommand : StructuredCommandType[0...1] </text>
</g>
<!-- ComputationItem -->
<g id="ItemTypeComputationItem" class="node"><title></title><ellipse fill="#f7b733" stroke="black" cx="56.7228" cy="-936" rx="44.6228" ry="18" style="filter: url(#dropshadow)"/>
<text text-anchor="middle" x="56.7228" y="-934.1" font-family="Times New Roman,serif" font-size="8.00">ComputationItem</text>
</g>
<!-- ComputationItem&#45;&gt;CommandCodeType -->
<g id="edge1" class="edge"><title>ComputationItem&#45;&gt;CommandCodeType</title>
<path fill="none" stroke="black" d="M100.745,-932.257C137.496,-926.998 189.77,-914.358 224.446,-884 330.455,-791.191 372.572,-615.402 384.551,-553.363"/>
<text text-anchor="middle" x="177.946" y="-928.6" font-family="Times New Roman,serif" font-size="8.00">CommandCode</text>
</g>
<!-- GeneralInstruction -->
<g id="ItemTypeGeneralInstruction" class="node"><title></title><ellipse fill="#f7b733" stroke="black" cx="56.7228" cy="-882" rx="45.891" ry="18" style="filter: url(#dropshadow)"/>
<text text-anchor="middle" x="56.7228" y="-880.1" font-family="Times New Roman,serif" font-size="8.00">GeneralInstruction</text>
</g>
<!-- GeneralInstruction&#45;&gt;CommandCodeType -->
<g id="edge2" class="edge"><title>GeneralInstruction&#45;&gt;CommandCodeType</title>
<path fill="none" stroke="black" d="M101.7,-877.76C138.057,-872.259 189.247,-859.679 224.446,-831 318.55,-754.325 366.961,-608.713 382.63,-553.229"/>
<text text-anchor="middle" x="177.946" y="-873.6" font-family="Times New Roman,serif" font-size="8.00">CommandCode</text>
</g>
<!-- GenerationInstruction -->
<g id="ItemTypeGenerationInstruction" class="node"><title></title><ellipse fill="#f7b733" stroke="black" cx="56.7228" cy="-828" rx="52.5056" ry="18" style="filter: url(#dropshadow)"/>
<text text-anchor="middle" x="56.7228" y="-826.1" font-family="Times New Roman,serif" font-size="8.00">GenerationInstruction</text>
</g>
<!-- GenerationInstruction&#45;&gt;CommandCodeType -->
<g id="edge3" class="edge"><title>GenerationInstruction&#45;&gt;CommandCodeType</title>
<path fill="none" stroke="black" d="M108.105,-823.549C143.481,-818.302 190.373,-806.876 224.446,-782 308.318,-720.767 361.065,-602.538 380.263,-553.334"/>
<text text-anchor="middle" x="177.946" y="-820.6" font-family="Times New Roman,serif" font-size="8.00">CommandCode</text>
</g>
<!-- IfThenElse -->
<g id="ItemTypeIfThenElse" class="node"><title></title><ellipse fill="#f7b733" stroke="black" cx="56.7228" cy="-774" rx="31.5313" ry="18" style="filter: url(#dropshadow)"/>
<text text-anchor="middle" x="56.7228" y="-772.1" font-family="Times New Roman,serif" font-size="8.00">IfThenElse</text>
</g>
<!-- IfThenElse&#45;&gt;CommandCodeType -->
<g id="edge4" class="edge"><title>IfThenElse&#45;&gt;CommandCodeType</title>
<path fill="none" stroke="black" d="M88.6266,-773.703C123.961,-772.033 182.343,-765.106 224.446,-739 300.461,-691.867 355.637,-596.287 377.76,-553.084"/>
<text text-anchor="middle" x="177.946" y="-771.6" font-family="Times New Roman,serif" font-size="8.00">IfCondition</text>
</g>
<!-- Loop -->
<g id="ItemTypeLoop" class="node"><title></title><ellipse fill="#f7b733" stroke="black" cx="56.7228" cy="-720" rx="27" ry="18" style="filter: url(#dropshadow)"/>
<text text-anchor="middle" x="56.7228" y="-718.1" font-family="Times New Roman,serif" font-size="8.00">Loop</text>
</g>
<!-- Loop&#45;&gt;CommandCodeType -->
<g id="edge5" class="edge"><title>Loop&#45;&gt;CommandCodeType</title>
<path fill="none" stroke="black" d="M83.1928,-723.726C117.217,-727.505 178.535,-730.046 224.446,-708 296.386,-673.455 352.073,-592.31 375.86,-553.048"/>
<text text-anchor="middle" x="177.946" y="-728.6" font-family="Times New Roman,serif" font-size="8.00">InitialValue</text>
</g>
<!-- Loop&#45;&gt;CommandCodeType -->
<g id="edge6" class="edge"><title>Loop&#45;&gt;CommandCodeType</title>
<path fill="none" stroke="black" d="M81.9029,-712.881C96.2647,-708.711 114.855,-703.413 131.446,-699 172.593,-688.055 186.742,-695.783 224.446,-676 285.19,-644.127 341.806,-585.115 369.916,-553.08"/>
<text text-anchor="middle" x="177.946" y="-701.6" font-family="Times New Roman,serif" font-size="8.00">LoopWhile</text>
</g>
<!-- Loop&#45;&gt;CommandCodeType -->
<g id="edge7" class="edge"><title>Loop&#45;&gt;CommandCodeType</title>
<path fill="none" stroke="black" d="M80.9931,-711.885C91.6455,-707.416 103.975,-701.112 113.446,-693 124.12,-683.858 119.877,-674.98 131.446,-667 166.494,-642.823 185.618,-661.474 224.446,-644 277.575,-620.09 331.814,-578.7 362.685,-553.2"/>
<text text-anchor="middle" x="177.946" y="-669.6" font-family="Times New Roman,serif" font-size="8.00">StepValue</text>
</g>
<!-- RepeatUntil -->
<g id="ItemTypeRepeatUntil" class="node"><title></title><ellipse fill="#f7b733" stroke="black" cx="56.7228" cy="-666" rx="33.433" ry="18" style="filter: url(#dropshadow)"/>
<text text-anchor="middle" x="56.7228" y="-664.1" font-family="Times New Roman,serif" font-size="8.00">RepeatUntil</text>
</g>
<!-- RepeatUntil&#45;&gt;CommandCodeType -->
<g id="edge8" class="edge"><title>RepeatUntil&#45;&gt;CommandCodeType</title>
<path fill="none" stroke="black" d="M83.0961,-654.695C97.214,-648.566 115.172,-641.033 131.446,-635 172.168,-619.902 183.922,-620.622 224.446,-605 265.25,-589.27 310.472,-568.613 343.077,-553.123"/>
<text text-anchor="middle" x="177.946" y="-637.6" font-family="Times New Roman,serif" font-size="8.00">UntilCondition</text>
</g>
<!-- RepeatWhile -->
<g id="ItemTypeRepeatWhile" class="node"><title></title><ellipse fill="#f7b733" stroke="black" cx="56.7228" cy="-612" rx="35.3371" ry="18" style="filter: url(#dropshadow)"/>
<text text-anchor="middle" x="56.7228" y="-610.1" font-family="Times New Roman,serif" font-size="8.00">RepeatWhile</text>
</g>
<!-- RepeatWhile&#45;&gt;CommandCodeType -->
<g id="edge9" class="edge"><title>RepeatWhile&#45;&gt;CommandCodeType</title>
<path fill="none" stroke="black" d="M88.8364,-604.38C136.352,-592.742 228.821,-570.095 298.526,-553.023"/>
<text text-anchor="middle" x="177.946" y="-594.6" font-family="Times New Roman,serif" font-size="8.00">WhileCondition</text>
</g>
<!-- SampleStep -->
<g id="ItemTypeSampleStep" class="node"><title></title><ellipse fill="#f7b733" stroke="black" cx="56.7228" cy="-558" rx="31.5313" ry="18" style="filter: url(#dropshadow)"/>
<text text-anchor="middle" x="56.7228" y="-556.1" font-family="Times New Roman,serif" font-size="8.00">SampleStep</text>
</g>
<!-- SampleStep&#45;&gt;CommandCodeType -->
<g id="edge10" class="edge"><title>SampleStep&#45;&gt;CommandCodeType</title>
<path fill="none" stroke="black" d="M88.2436,-555.508C123.663,-552.617 184.622,-547.64 242.393,-542.924"/>
<text text-anchor="middle" x="177.946" y="-553.6" font-family="Times New Roman,serif" font-size="8.00">CommandCode</text>
</g>
<!-- Universe -->
<g id="ItemTypeUniverse0" class="node"><title></title><ellipse fill="#f7b733" stroke="black" cx="56.7228" cy="-504" rx="27" ry="18" style="filter: url(#dropshadow)"/>
<text text-anchor="middle" x="56.7228" y="-502.1" font-family="Times New Roman,serif" font-size="8.00">Universe</text>
</g>
<!-- Universe&#45;&gt;CommandCodeType -->
<g id="edge11" class="edge"><title>Universe&#45;&gt;CommandCodeType</title>
<path fill="none" stroke="black" d="M83.6741,-506.119C118.241,-508.941 182.064,-514.151 242.408,-519.078"/>
<text text-anchor="middle" x="177.946" y="-519.6" font-family="Times New Roman,serif" font-size="8.00">UniverseGenerationCode</text>
</g>
<!-- ConditionalTextType -->
<g id="ReusableTypeConditionalTextType1" class="node"><title></title><ellipse fill="#f7b733" stroke="black" cx="56.7228" cy="-450" rx="52.5056" ry="18" style="filter: url(#dropshadow)"/>
<text text-anchor="middle" x="56.7228" y="-448.1" font-family="Times New Roman,serif" font-size="8.00">ConditionalTextType</text>
</g>
<!-- ConditionalTextType&#45;&gt;CommandCodeType -->
<g id="edge12" class="edge"><title>ConditionalTextType&#45;&gt;CommandCodeType</title>
<path fill="none" stroke="black" d="M99.945,-460.341C149.749,-472.539 233.932,-493.157 298.547,-508.982"/>
<text text-anchor="middle" x="177.946" y="-492.6" font-family="Times New Roman,serif" font-size="8.00">Expression</text>
</g>
<!-- ElseIfTextType -->
<g id="ReusableTypeElseIfTextType2" class="node"><title></title><ellipse fill="#f7b733" stroke="black" cx="56.7228" cy="-396" rx="41.3155" ry="18" style="filter: url(#dropshadow)"/>
<text text-anchor="middle" x="56.7228" y="-394.1" font-family="Times New Roman,serif" font-size="8.00">ElseIfTextType</text>
</g>
<!-- ElseIfTextType&#45;&gt;CommandCodeType -->
<g id="edge13" class="edge"><title>ElseIfTextType&#45;&gt;CommandCodeType</title>
<path fill="none" stroke="black" d="M90.2996,-406.823C124.129,-418.272 178.442,-437.241 224.446,-456 265.033,-472.55 310.275,-493.429 342.943,-508.952"/>
<text text-anchor="middle" x="177.946" y="-458.6" font-family="Times New Roman,serif" font-size="8.00">IfCondition</text>
</g>
<!-- ElseIfType -->
<g id="ReusableTypeElseIfType3" class="node"><title></title><ellipse fill="#f7b733" stroke="black" cx="56.7228" cy="-342" rx="31.5313" ry="18" style="filter: url(#dropshadow)"/>
<text text-anchor="middle" x="56.7228" y="-340.1" font-family="Times New Roman,serif" font-size="8.00">ElseIfType</text>
</g>
<!-- ElseIfType&#45;&gt;CommandCodeType -->
<g id="edge14" class="edge"><title>ElseIfType&#45;&gt;CommandCodeType</title>
<path fill="none" stroke="black" d="M84.9715,-350.531C118.813,-361.663 177.777,-382.843 224.446,-409 277.071,-438.495 332.124,-482.616 363.173,-508.932"/>
<text text-anchor="middle" x="177.946" y="-411.6" font-family="Times New Roman,serif" font-size="8.00">IfCondition</text>
</g>
<!-- GenerationType -->
<g id="ReusableTypeGenerationType4" class="node"><title></title><ellipse fill="#f7b733" stroke="black" cx="56.7228" cy="-288" rx="41.9498" ry="18" style="filter: url(#dropshadow)"/>
<text text-anchor="middle" x="56.7228" y="-286.1" font-family="Times New Roman,serif" font-size="8.00">GenerationType</text>
</g>
<!-- GenerationType&#45;&gt;CommandCodeType -->
<g id="edge15" class="edge"><title>GenerationType&#45;&gt;CommandCodeType</title>
<path fill="none" stroke="black" d="M93.1129,-297.286C128.454,-307.648 183.291,-326.76 224.446,-355 288.671,-399.071 346.358,-472.338 372.947,-508.872"/>
<text text-anchor="middle" x="177.946" y="-357.6" font-family="Times New Roman,serif" font-size="8.00">CommandCode</text>
</g>
<!-- IfThenElseTextType -->
<g id="ReusableTypeIfThenElseTextType5" class="node"><title></title><ellipse fill="#f7b733" stroke="black" cx="56.7228" cy="-234" rx="52.3706" ry="18" style="filter: url(#dropshadow)"/>
<text text-anchor="middle" x="56.7228" y="-232.1" font-family="Times New Roman,serif" font-size="8.00">IfThenElseTextType</text>
</g>
<!-- IfThenElseTextType&#45;&gt;CommandCodeType -->
<g id="edge16" class="edge"><title>IfThenElseTextType&#45;&gt;CommandCodeType</title>
<path fill="none" stroke="black" d="M102.032,-243.086C137.868,-252.129 188.157,-268.813 224.446,-297 301.628,-356.95 357.139,-463.203 378.627,-508.995"/>
<text text-anchor="middle" x="177.946" y="-299.6" font-family="Times New Roman,serif" font-size="8.00">IfCondition</text>
</g>
<!-- RestrictionProcessType -->
<g id="ReusableTypeRestrictionProcessType6" class="node"><title></title><ellipse fill="#f7b733" stroke="black" cx="56.7228" cy="-180" rx="56.9465" ry="18" style="filter: url(#dropshadow)"/>
<text text-anchor="middle" x="56.7228" y="-178.1" font-family="Times New Roman,serif" font-size="8.00">RestrictionProcessType</text>
</g>
<!-- RestrictionProcessType&#45;&gt;CommandCodeType -->
<g id="edge17" class="edge"><title>RestrictionProcessType&#45;&gt;CommandCodeType</title>
<path fill="none" stroke="black" d="M107.617,-187.978C143.439,-195.844 191.087,-210.926 224.446,-239 314.973,-315.187 365.208,-454.764 382.005,-508.808"/>
<text text-anchor="middle" x="177.946" y="-241.6" font-family="Times New Roman,serif" font-size="8.00">CommandCode</text>
</g>
<!-- RosterType -->
<g id="ReusableTypeRosterType7" class="node"><title></title><ellipse fill="#f7b733" stroke="black" cx="56.7228" cy="-126" rx="32.7988" ry="18" style="filter: url(#dropshadow)"/>
<text text-anchor="middle" x="56.7228" y="-124.1" font-family="Times New Roman,serif" font-size="8.00">RosterType</text>
</g>
<!-- RosterType&#45;&gt;CommandCodeType -->
<g id="edge18" class="edge"><title>RosterType&#45;&gt;CommandCodeType</title>
<path fill="none" stroke="black" d="M89.3768,-129.159C125.956,-134.343 186.03,-147.775 224.446,-182 328.417,-274.63 371.7,-447.131 384.277,-508.562"/>
<text text-anchor="middle" x="177.946" y="-184.6" font-family="Times New Roman,serif" font-size="8.00">ConditionForContinuation</text>
</g>
<!-- SpecificSequenceType -->
<g id="ReusableTypeSpecificSequenceType8" class="node"><title></title><ellipse fill="#f7b733" stroke="black" cx="56.7228" cy="-72" rx="52.5056" ry="18" style="filter: url(#dropshadow)"/>
<text text-anchor="middle" x="56.7228" y="-70.1" font-family="Times New Roman,serif" font-size="8.00">SpecificSequenceType</text>
</g>
<!-- SpecificSequenceType&#45;&gt;CommandCodeType -->
<g id="edge19" class="edge"><title>SpecificSequenceType&#45;&gt;CommandCodeType</title>
<path fill="none" stroke="black" d="M108.251,-76.3262C144.625,-81.9124 192.687,-94.7061 224.446,-124 343.16,-233.499 377.723,-440.757 386.098,-508.768"/>
<text text-anchor="middle" x="177.946" y="-126.6" font-family="Times New Roman,serif" font-size="8.00">AlternateSequenceType</text>
</g>
<!-- UsageGuideType -->
<g id="ReusableTypeUsageGuideType9" class="node"><title></title><ellipse fill="#f7b733" stroke="black" cx="56.7228" cy="-18" rx="41.9498" ry="18" style="filter: url(#dropshadow)"/>
<text text-anchor="middle" x="56.7228" y="-16.1" font-family="Times New Roman,serif" font-size="8.00">UsageGuideType</text>
</g>
<!-- UsageGuideType&#45;&gt;CommandCodeType -->
<g id="edge20" class="edge"><title>UsageGuideType&#45;&gt;CommandCodeType</title>
<path fill="none" stroke="black" d="M98.5286,-19.7711C135.845,-23.515 190.282,-34.6295 224.446,-67 357.79,-193.345 382.833,-434.746 387.434,-508.83"/>
<text text-anchor="middle" x="177.946" y="-69.6" font-family="Times New Roman,serif" font-size="8.00">CommandCode</text>
</g>
</g>
</svg>
