<?xml version="1.0" encoding="UTF-8" standalone="no"?>
<!DOCTYPE svg PUBLIC "-//W3C//DTD SVG 1.1//EN"
 "http://www.w3.org/Graphics/SVG/1.1/DTD/svg11.dtd">
<!-- Generated by graphviz version 2.38.0 (20140413.2041)
 -->
<!-- Title: G Pages: 1 -->
<svg width="478pt" height="1720pt"
 viewBox="0.00 0.00 478.33 1720.00" xmlns="http://www.w3.org/2000/svg" xmlns:xlink="http://www.w3.org/1999/xlink">
<filter id = "dropshadow" height = "130%" ><feGaussianBlur in= "SourceAlpha" stdDeviation = "3"/><!--stdDeviation is how much to blur--><feOffset dx = "2" dy = "2" result = "offsetblur"/><!--how much to offset--><feMerge><feMergeNode/><!--this contains the offset blurred image--><feMergeNode in= "SourceGraphic"/><!--this contains the element that the filter is applied to --></feMerge></filter>
<g id="graph0" class="graph" transform="scale(1 1) rotate(0) translate(4 1716)">
<title>G</title>
<!-- DateType -->
<g id="ReusableTypeDateType" class="node"><title></title><polygon fill="#f7b733" stroke="black" points="235.328,-900.5 235.328,-971.5 470.328,-971.5 470.328,-900.5 235.328,-900.5" style="filter: url(#dropshadow)"/>
<text text-anchor="middle" x="261.328" y="-934.1" font-family="Times New Roman,serif" font-size="8.00">DateType</text>
<polyline fill="none" stroke="black" points="287.328,-900.5 287.328,-971.5 "/>
<text text-anchor="start" x="295.328" y="-961.1" font-family="Times New Roman,serif" font-size="8.00">SimpleDate : cogsDate[0...1] </text>
<text text-anchor="start" x="295.328" y="-952.1" font-family="Times New Roman,serif" font-size="8.00">HistoricalDate : HistoricalDateType[0...1] </text>
<text text-anchor="start" x="295.328" y="-943.1" font-family="Times New Roman,serif" font-size="8.00">StartDate : cogsDate[0...1] </text>
<text text-anchor="start" x="295.328" y="-934.1" font-family="Times New Roman,serif" font-size="8.00">HistoricalStartDate : HistoricalDateType[0...1] </text>
<text text-anchor="start" x="295.328" y="-925.1" font-family="Times New Roman,serif" font-size="8.00">EndDate : cogsDate[0...1] </text>
<text text-anchor="start" x="295.328" y="-916.1" font-family="Times New Roman,serif" font-size="8.00">HistoricalEndDate : HistoricalDateType[0...1] </text>
<text text-anchor="start" x="295.328" y="-907.1" font-family="Times New Roman,serif" font-size="8.00">Cycle : int[0...1] </text>
</g>
<!-- ApprovalReview -->
<g id="ItemTypeApprovalReview" class="node"><title></title><ellipse fill="#f7b733" stroke="black" cx="64.664" cy="-1692" rx="41.9498" ry="18" style="filter: url(#dropshadow)"/>
<text text-anchor="middle" x="64.664" y="-1690.1" font-family="Times New Roman,serif" font-size="8.00">ApprovalReview</text>
</g>
<!-- ApprovalReview&#45;&gt;DateType -->
<g id="edge1" class="edge"><title>ApprovalReview&#45;&gt;DateType</title>
<path fill="none" stroke="black" d="M102.044,-1700.43C136.183,-1706.02 186.48,-1707.91 217.328,-1680 324.029,-1583.46 346.619,-1106.56 350.905,-971.626"/>
<text text-anchor="middle" x="182.328" y="-1705.6" font-family="Times New Roman,serif" font-size="8.00">ApplicationDate</text>
</g>
<!-- ApprovalReview&#45;&gt;DateType -->
<g id="edge2" class="edge"><title>ApprovalReview&#45;&gt;DateType</title>
<path fill="none" stroke="black" d="M100.769,-1682.81C144.299,-1671.26 213.306,-1652.43 217.328,-1648 309.539,-1546.52 342.237,-1101.56 349.912,-971.698"/>
<text text-anchor="middle" x="182.328" y="-1671.6" font-family="Times New Roman,serif" font-size="8.00">ApprovalDate</text>
</g>
<!-- ApprovalReview&#45;&gt;DateType -->
<g id="edge3" class="edge"><title>ApprovalReview&#45;&gt;DateType</title>
<path fill="none" stroke="black" d="M99.3658,-1681.81C109.667,-1677.66 120.575,-1672.12 129.328,-1665 140.228,-1656.13 136.066,-1647.41 147.328,-1639 173.568,-1619.41 195.629,-1640.53 217.328,-1616 303.847,-1518.21 340.33,-1097.61 349.438,-971.728"/>
<text text-anchor="middle" x="182.328" y="-1641.6" font-family="Times New Roman,serif" font-size="8.00">ApprovedPeriod</text>
</g>
<!-- DevelopmentResults -->
<g id="ItemTypeDevelopmentResults" class="node"><title></title><ellipse fill="#f7b733" stroke="black" cx="64.664" cy="-1638" rx="49.8323" ry="18" style="filter: url(#dropshadow)"/>
<text text-anchor="middle" x="64.664" y="-1636.1" font-family="Times New Roman,serif" font-size="8.00">DevelopmentResults</text>
</g>
<!-- DevelopmentResults&#45;&gt;DateType -->
<g id="edge4" class="edge"><title>DevelopmentResults&#45;&gt;DateType</title>
<path fill="none" stroke="black" d="M99.3099,-1624.84C113.999,-1619.19 131.459,-1612.62 147.328,-1607 178.199,-1596.08 195.514,-1608.42 217.328,-1584 299.987,-1491.45 338.911,-1093.76 349.057,-971.738"/>
<text text-anchor="middle" x="182.328" y="-1609.6" font-family="Times New Roman,serif" font-size="8.00">ResultsDate</text>
</g>
<!-- DevelopmentStep -->
<g id="ItemTypeDevelopmentStep" class="node"><title></title><ellipse fill="#f7b733" stroke="black" cx="64.664" cy="-1584" rx="44.6228" ry="18" style="filter: url(#dropshadow)"/>
<text text-anchor="middle" x="64.664" y="-1582.1" font-family="Times New Roman,serif" font-size="8.00">DevelopmentStep</text>
</g>
<!-- DevelopmentStep&#45;&gt;DateType -->
<g id="edge5" class="edge"><title>DevelopmentStep&#45;&gt;DateType</title>
<path fill="none" stroke="black" d="M108.817,-1580.78C143.087,-1575.89 189.695,-1563.63 217.328,-1533 293.565,-1448.49 336.402,-1087.28 348.346,-971.713"/>
<text text-anchor="middle" x="182.328" y="-1574.6" font-family="Times New Roman,serif" font-size="8.00">ActivityDate</text>
</g>
<!-- Relation -->
<g id="ItemTypeRelation" class="node"><title></title><ellipse fill="#f7b733" stroke="black" cx="64.664" cy="-1530" rx="27" ry="18" style="filter: url(#dropshadow)"/>
<text text-anchor="middle" x="64.664" y="-1528.1" font-family="Times New Roman,serif" font-size="8.00">Relation</text>
</g>
<!-- Relation&#45;&gt;DateType -->
<g id="edge6" class="edge"><title>Relation&#45;&gt;DateType</title>
<path fill="none" stroke="black" d="M91.6591,-1529.6C125.497,-1527.61 184.208,-1518.95 217.328,-1484 288.921,-1408.45 334.333,-1080.74 347.699,-971.546"/>
<text text-anchor="middle" x="182.328" y="-1522.6" font-family="Times New Roman,serif" font-size="8.00">EffectivePeriod</text>
</g>
<!-- Sample -->
<g id="ItemTypeSample" class="node"><title></title><ellipse fill="#f7b733" stroke="black" cx="64.664" cy="-1476" rx="27" ry="18" style="filter: url(#dropshadow)"/>
<text text-anchor="middle" x="64.664" y="-1474.1" font-family="Times New Roman,serif" font-size="8.00">Sample</text>
</g>
<!-- Sample&#45;&gt;DateType -->
<g id="edge7" class="edge"><title>Sample&#45;&gt;DateType</title>
<path fill="none" stroke="black" d="M91.7117,-1477.19C125.334,-1477.25 183.52,-1472.07 217.328,-1439 285.338,-1372.47 332.442,-1075.26 347.037,-971.715"/>
<text text-anchor="middle" x="182.328" y="-1473.6" font-family="Times New Roman,serif" font-size="8.00">DateOfSample</text>
</g>
<!-- SampleFrame -->
<g id="ItemTypeSampleFrame" class="node"><title></title><ellipse fill="#f7b733" stroke="black" cx="64.664" cy="-1422" rx="35.9723" ry="18" style="filter: url(#dropshadow)"/>
<text text-anchor="middle" x="64.664" y="-1420.1" font-family="Times New Roman,serif" font-size="8.00">SampleFrame</text>
</g>
<!-- SampleFrame&#45;&gt;DateType -->
<g id="edge8" class="edge"><title>SampleFrame&#45;&gt;DateType</title>
<path fill="none" stroke="black" d="M99.1578,-1426.75C133.043,-1429.59 184.921,-1428.22 217.328,-1400 283.352,-1342.52 331.133,-1070.26 346.521,-971.711"/>
<text text-anchor="middle" x="182.328" y="-1428.6" font-family="Times New Roman,serif" font-size="8.00">ValidPeriod</text>
</g>
<!-- SampleFrame&#45;&gt;DateType -->
<g id="edge9" class="edge"><title>SampleFrame&#45;&gt;DateType</title>
<path fill="none" stroke="black" d="M93.8206,-1411.4C135.211,-1395.6 208.552,-1366.69 217.328,-1357 320.243,-1243.42 344.442,-1050.77 350.107,-971.595"/>
<text text-anchor="middle" x="182.328" y="-1391.6" font-family="Times New Roman,serif" font-size="8.00">ReferencePeriod</text>
</g>
<!-- Universe -->
<g id="ItemTypeUniverse" class="node"><title></title><ellipse fill="#f7b733" stroke="black" cx="64.664" cy="-1368" rx="27" ry="18" style="filter: url(#dropshadow)"/>
<text text-anchor="middle" x="64.664" y="-1366.1" font-family="Times New Roman,serif" font-size="8.00">Universe</text>
</g>
<!-- Universe&#45;&gt;DateType -->
<g id="edge10" class="edge"><title>Universe&#45;&gt;DateType</title>
<path fill="none" stroke="black" d="M91.0227,-1363.27C124.426,-1355.77 182.944,-1338.01 217.328,-1301 307.074,-1204.4 338.162,-1042.83 347.862,-971.588"/>
<text text-anchor="middle" x="182.328" y="-1346.6" font-family="Times New Roman,serif" font-size="8.00">TimePeriod</text>
</g>
<!-- AdditionalInformationType -->
<g id="ReusableTypeAdditionalInformationType" class="node"><title></title><ellipse fill="#f7b733" stroke="black" cx="64.664" cy="-1314" rx="64.8284" ry="18" style="filter: url(#dropshadow)"/>
<text text-anchor="middle" x="64.664" y="-1312.1" font-family="Times New Roman,serif" font-size="8.00">AdditionalInformationType</text>
</g>
<!-- AdditionalInformationType&#45;&gt;DateType -->
<g id="edge11" class="edge"><title>AdditionalInformationType&#45;&gt;DateType</title>
<path fill="none" stroke="black" d="M113.21,-1302.08C146.21,-1291.63 189.14,-1273.42 217.328,-1244 293.621,-1164.37 330.573,-1034.44 344.689,-971.885"/>
<text text-anchor="middle" x="182.328" y="-1290.6" font-family="Times New Roman,serif" font-size="8.00">EffectivePeriod</text>
</g>
<!-- AddressType -->
<g id="ReusableTypeAddressType0" class="node"><title></title><ellipse fill="#f7b733" stroke="black" cx="64.664" cy="-1260" rx="35.3371" ry="18" style="filter: url(#dropshadow)"/>
<text text-anchor="middle" x="64.664" y="-1258.1" font-family="Times New Roman,serif" font-size="8.00">AddressType</text>
</g>
<!-- AddressType&#45;&gt;DateType -->
<g id="edge12" class="edge"><title>AddressType&#45;&gt;DateType</title>
<path fill="none" stroke="black" d="M95.9486,-1251.72C129.341,-1241.26 182.886,-1220.34 217.328,-1186 280.502,-1123.02 321.58,-1024.12 340.226,-971.583"/>
<text text-anchor="middle" x="182.328" y="-1233.6" font-family="Times New Roman,serif" font-size="8.00">EffectivePeriod</text>
</g>
<!-- ApplicationDetailsType -->
<g id="ReusableTypeApplicationDetailsType1" class="node"><title></title><ellipse fill="#f7b733" stroke="black" cx="64.664" cy="-1206" rx="57.0809" ry="18" style="filter: url(#dropshadow)"/>
<text text-anchor="middle" x="64.664" y="-1204.1" font-family="Times New Roman,serif" font-size="8.00">ApplicationDetailsType</text>
</g>
<!-- ApplicationDetailsType&#45;&gt;DateType -->
<g id="edge13" class="edge"><title>ApplicationDetailsType&#45;&gt;DateType</title>
<path fill="none" stroke="black" d="M104,-1192.91C136.918,-1180.22 184.169,-1158.43 217.328,-1128 267.855,-1081.63 310.138,-1013.12 333.139,-971.708"/>
<text text-anchor="middle" x="182.328" y="-1175.6" font-family="Times New Roman,serif" font-size="8.00">DateOfSample</text>
</g>
<!-- CitationType -->
<g id="ReusableTypeCitationType2" class="node"><title></title><ellipse fill="#f7b733" stroke="black" cx="64.664" cy="-1152" rx="36.1063" ry="18" style="filter: url(#dropshadow)"/>
<text text-anchor="middle" x="64.664" y="-1150.1" font-family="Times New Roman,serif" font-size="8.00">CitationType</text>
</g>
<!-- CitationType&#45;&gt;DateType -->
<g id="edge14" class="edge"><title>CitationType&#45;&gt;DateType</title>
<path fill="none" stroke="black" d="M93.5549,-1140.99C104.8,-1136.34 117.811,-1130.69 129.328,-1125 169.657,-1105.07 181.771,-1102.55 217.328,-1075 257.275,-1044.04 296.738,-1001.44 322.48,-971.591"/>
<text text-anchor="middle" x="182.328" y="-1117.6" font-family="Times New Roman,serif" font-size="8.00">PublicationDate</text>
</g>
<!-- CollectionEventType -->
<g id="ReusableTypeCollectionEventType3" class="node"><title></title><ellipse fill="#f7b733" stroke="black" cx="64.664" cy="-1098" rx="52.3706" ry="18" style="filter: url(#dropshadow)"/>
<text text-anchor="middle" x="64.664" y="-1096.1" font-family="Times New Roman,serif" font-size="8.00">CollectionEventType</text>
</g>
<!-- CollectionEventType&#45;&gt;DateType -->
<g id="edge15" class="edge"><title>CollectionEventType&#45;&gt;DateType</title>
<path fill="none" stroke="black" d="M99.2602,-1084.35C109.029,-1080.22 119.667,-1075.56 129.328,-1071 169.231,-1052.15 179.32,-1047.43 217.328,-1025 245.421,-1008.42 275.8,-988.501 300.565,-971.713"/>
<text text-anchor="middle" x="182.328" y="-1064.6" font-family="Times New Roman,serif" font-size="8.00">DataCollectionDate</text>
</g>
<!-- DefiningCharacteristicType -->
<g id="ReusableTypeDefiningCharacteristicType4" class="node"><title></title><ellipse fill="#f7b733" stroke="black" cx="64.664" cy="-1044" rx="64.1937" ry="18" style="filter: url(#dropshadow)"/>
<text text-anchor="middle" x="64.664" y="-1042.1" font-family="Times New Roman,serif" font-size="8.00">DefiningCharacteristicType</text>
</g>
<!-- DefiningCharacteristicType&#45;&gt;DateType -->
<g id="edge16" class="edge"><title>DefiningCharacteristicType&#45;&gt;DateType</title>
<path fill="none" stroke="black" d="M104.01,-1029.62C134.679,-1018.12 178.775,-1001.55 217.328,-987 230.528,-982.017 244.454,-976.749 258.141,-971.565"/>
<text text-anchor="middle" x="182.328" y="-1014.6" font-family="Times New Roman,serif" font-size="8.00">GeographicTime</text>
</g>
<!-- EmailType -->
<g id="ReusableTypeEmailType5" class="node"><title></title><ellipse fill="#f7b733" stroke="black" cx="64.664" cy="-990" rx="31.5313" ry="18" style="filter: url(#dropshadow)"/>
<text text-anchor="middle" x="64.664" y="-988.1" font-family="Times New Roman,serif" font-size="8.00">EmailType</text>
</g>
<!-- EmailType&#45;&gt;DateType -->
<g id="edge17" class="edge"><title>EmailType&#45;&gt;DateType</title>
<path fill="none" stroke="black" d="M94.9438,-984.475C127.992,-978.239 183.834,-967.701 235.028,-958.041"/>
<text text-anchor="middle" x="182.328" y="-976.6" font-family="Times New Roman,serif" font-size="8.00">EffectivePeriod</text>
</g>
<!-- EmbargoType -->
<g id="ReusableTypeEmbargoType6" class="node"><title></title><ellipse fill="#f7b733" stroke="black" cx="64.664" cy="-936" rx="37.3742" ry="18" style="filter: url(#dropshadow)"/>
<text text-anchor="middle" x="64.664" y="-934.1" font-family="Times New Roman,serif" font-size="8.00">EmbargoType</text>
</g>
<!-- EmbargoType&#45;&gt;DateType -->
<g id="edge18" class="edge"><title>EmbargoType&#45;&gt;DateType</title>
<path fill="none" stroke="black" d="M102.198,-936C135.798,-936 187.485,-936 235.129,-936"/>
<text text-anchor="middle" x="182.328" y="-938.6" font-family="Times New Roman,serif" font-size="8.00">Date</text>
</g>
<!-- FundingInformationType -->
<g id="ReusableTypeFundingInformationType7" class="node"><title></title><ellipse fill="#f7b733" stroke="black" cx="64.664" cy="-882" rx="59.618" ry="18" style="filter: url(#dropshadow)"/>
<text text-anchor="middle" x="64.664" y="-880.1" font-family="Times New Roman,serif" font-size="8.00">FundingInformationType</text>
</g>
<!-- FundingInformationType&#45;&gt;DateType -->
<g id="edge19" class="edge"><title>FundingInformationType&#45;&gt;DateType</title>
<path fill="none" stroke="black" d="M115.51,-891.406C148.577,-897.646 193.412,-906.107 235.144,-913.981"/>
<text text-anchor="middle" x="182.328" y="-912.6" font-family="Times New Roman,serif" font-size="8.00">FundingPeriod</text>
</g>
<!-- GeographicBoundaryType -->
<g id="ReusableTypeGeographicBoundaryType8" class="node"><title></title><ellipse fill="#f7b733" stroke="black" cx="64.664" cy="-828" rx="60.8874" ry="18" style="filter: url(#dropshadow)"/>
<text text-anchor="middle" x="64.664" y="-826.1" font-family="Times New Roman,serif" font-size="8.00">GeographicBoundaryType</text>
</g>
<!-- GeographicBoundaryType&#45;&gt;DateType -->
<g id="edge20" class="edge"><title>GeographicBoundaryType&#45;&gt;DateType</title>
<path fill="none" stroke="black" d="M103.744,-841.879C134.453,-853.115 178.732,-869.414 217.328,-884 231.262,-889.266 245.985,-894.893 260.377,-900.429"/>
<text text-anchor="middle" x="182.328" y="-886.6" font-family="Times New Roman,serif" font-size="8.00">GeographicTime</text>
</g>
<!-- IndividualLanguageType -->
<g id="ReusableTypeIndividualLanguageType9" class="node"><title></title><ellipse fill="#f7b733" stroke="black" cx="64.664" cy="-774" rx="57.0809" ry="18" style="filter: url(#dropshadow)"/>
<text text-anchor="middle" x="64.664" y="-772.1" font-family="Times New Roman,serif" font-size="8.00">IndividualLanguageType</text>
</g>
<!-- IndividualLanguageType&#45;&gt;DateType -->
<g id="edge21" class="edge"><title>IndividualLanguageType&#45;&gt;DateType</title>
<path fill="none" stroke="black" d="M100.225,-788.126C109.719,-792.151 119.973,-796.631 129.328,-801 169.13,-819.588 179.453,-823.747 217.328,-846 245.913,-862.795 276.722,-883.228 301.632,-900.378"/>
<text text-anchor="middle" x="182.328" y="-848.6" font-family="Times New Roman,serif" font-size="8.00">EffectivePeriod</text>
</g>
<!-- IndividualNameType -->
<g id="ReusableTypeIndividualNameType0" class="node"><title></title><ellipse fill="#f7b733" stroke="black" cx="64.664" cy="-720" rx="50.4666" ry="18" style="filter: url(#dropshadow)"/>
<text text-anchor="middle" x="64.664" y="-718.1" font-family="Times New Roman,serif" font-size="8.00">IndividualNameType</text>
</g>
<!-- IndividualNameType&#45;&gt;DateType -->
<g id="edge22" class="edge"><title>IndividualNameType&#45;&gt;DateType</title>
<path fill="none" stroke="black" d="M99.0092,-733.35C108.87,-737.51 119.62,-742.256 129.328,-747 169.547,-766.656 181.875,-768.669 217.328,-796 257.635,-827.073 297.187,-870.198 322.851,-900.346"/>
<text text-anchor="middle" x="182.328" y="-798.6" font-family="Times New Roman,serif" font-size="8.00">EffectivePeriod</text>
</g>
<!-- InstantMessagingType -->
<g id="ReusableTypeInstantMessagingType1" class="node"><title></title><ellipse fill="#f7b733" stroke="black" cx="64.664" cy="-666" rx="53.7736" ry="18" style="filter: url(#dropshadow)"/>
<text text-anchor="middle" x="64.664" y="-664.1" font-family="Times New Roman,serif" font-size="8.00">InstantMessagingType</text>
</g>
<!-- InstantMessagingType&#45;&gt;DateType -->
<g id="edge23" class="edge"><title>InstantMessagingType&#45;&gt;DateType</title>
<path fill="none" stroke="black" d="M103.351,-678.579C136.293,-690.997 183.946,-712.554 217.328,-743 268.324,-789.511 310.606,-858.723 333.454,-900.395"/>
<text text-anchor="middle" x="182.328" y="-745.6" font-family="Times New Roman,serif" font-size="8.00">EffectivePeriod</text>
</g>
<!-- LifecycleEventType -->
<g id="ReusableTypeLifecycleEventType2" class="node"><title></title><ellipse fill="#f7b733" stroke="black" cx="64.664" cy="-612" rx="50.4666" ry="18" style="filter: url(#dropshadow)"/>
<text text-anchor="middle" x="64.664" y="-610.1" font-family="Times New Roman,serif" font-size="8.00">LifecycleEventType</text>
</g>
<!-- LifecycleEventType&#45;&gt;DateType -->
<g id="edge24" class="edge"><title>LifecycleEventType&#45;&gt;DateType</title>
<path fill="none" stroke="black" d="M105.433,-622.834C138.809,-633.646 185.935,-653.153 217.328,-684 281.53,-747.084 322.303,-847.387 340.597,-900.424"/>
<text text-anchor="middle" x="182.328" y="-686.6" font-family="Times New Roman,serif" font-size="8.00">Date</text>
</g>
<!-- LocationNameType -->
<g id="ReusableTypeLocationNameType3" class="node"><title></title><ellipse fill="#f7b733" stroke="black" cx="64.664" cy="-558" rx="49.1982" ry="18" style="filter: url(#dropshadow)"/>
<text text-anchor="middle" x="64.664" y="-556.1" font-family="Times New Roman,serif" font-size="8.00">LocationNameType</text>
</g>
<!-- LocationNameType&#45;&gt;DateType -->
<g id="edge25" class="edge"><title>LocationNameType&#45;&gt;DateType</title>
<path fill="none" stroke="black" d="M106.944,-567.466C140.565,-577.093 187.233,-595.092 217.328,-626 294.988,-705.757 331.416,-837.592 345.07,-900.486"/>
<text text-anchor="middle" x="182.328" y="-628.6" font-family="Times New Roman,serif" font-size="8.00">EffectivePeriod</text>
</g>
<!-- LocationValueBundleType -->
<g id="ReusableTypeLocationValueBundleType4" class="node"><title></title><ellipse fill="#f7b733" stroke="black" cx="64.664" cy="-504" rx="61.6562" ry="18" style="filter: url(#dropshadow)"/>
<text text-anchor="middle" x="64.664" y="-502.1" font-family="Times New Roman,serif" font-size="8.00">LocationValueBundleType</text>
</g>
<!-- LocationValueBundleType&#45;&gt;DateType -->
<g id="edge26" class="edge"><title>LocationValueBundleType&#45;&gt;DateType</title>
<path fill="none" stroke="black" d="M115.319,-514.387C148.222,-523.626 190.173,-540.27 217.328,-569 308.457,-665.414 338.84,-828.603 348.112,-900.351"/>
<text text-anchor="middle" x="182.328" y="-571.6" font-family="Times New Roman,serif" font-size="8.00">GeographicTime</text>
</g>
<!-- LocationValueType -->
<g id="ReusableTypeLocationValueType5" class="node"><title></title><ellipse fill="#f7b733" stroke="black" cx="64.664" cy="-450" rx="48.5642" ry="18" style="filter: url(#dropshadow)"/>
<text text-anchor="middle" x="64.664" y="-448.1" font-family="Times New Roman,serif" font-size="8.00">LocationValueType</text>
</g>
<!-- LocationValueType&#45;&gt;DateType -->
<g id="edge27" class="edge"><title>LocationValueType&#45;&gt;DateType</title>
<path fill="none" stroke="black" d="M108.978,-457.659C142.877,-465.82 188.894,-482.014 217.328,-513 321.531,-626.556 345.009,-820.859 350.295,-900.433"/>
<text text-anchor="middle" x="182.328" y="-515.6" font-family="Times New Roman,serif" font-size="8.00">GeographicTime</text>
</g>
<!-- OrganizationNameType -->
<g id="ReusableTypeOrganizationNameType6" class="node"><title></title><ellipse fill="#f7b733" stroke="black" cx="64.664" cy="-396" rx="57.0809" ry="18" style="filter: url(#dropshadow)"/>
<text text-anchor="middle" x="64.664" y="-394.1" font-family="Times New Roman,serif" font-size="8.00">OrganizationNameType</text>
</g>
<!-- OrganizationNameType&#45;&gt;DateType -->
<g id="edge28" class="edge"><title>OrganizationNameType&#45;&gt;DateType</title>
<path fill="none" stroke="black" d="M115.6,-404.262C148.845,-412.283 191.084,-427.737 217.328,-457 334.687,-587.858 350.454,-813.353 351.985,-900.337"/>
<text text-anchor="middle" x="182.328" y="-459.6" font-family="Times New Roman,serif" font-size="8.00">EffectivePeriod</text>
</g>
<!-- PrivateImageType -->
<g id="ReusableTypePrivateImageType7" class="node"><title></title><ellipse fill="#f7b733" stroke="black" cx="64.664" cy="-342" rx="46.5254" ry="18" style="filter: url(#dropshadow)"/>
<text text-anchor="middle" x="64.664" y="-340.1" font-family="Times New Roman,serif" font-size="8.00">PrivateImageType</text>
</g>
<!-- PrivateImageType&#45;&gt;DateType -->
<g id="edge29" class="edge"><title>PrivateImageType&#45;&gt;DateType</title>
<path fill="none" stroke="black" d="M108.76,-348.137C142.997,-355.27 189.588,-370.398 217.328,-402 284.102,-478.071 332.434,-793.647 347.147,-900.47"/>
<text text-anchor="middle" x="182.328" y="-404.6" font-family="Times New Roman,serif" font-size="8.00">EffectivePeriod</text>
</g>
<!-- ResearcherIDType -->
<g id="ReusableTypeResearcherIDType8" class="node"><title></title><ellipse fill="#f7b733" stroke="black" cx="64.664" cy="-288" rx="46.5254" ry="18" style="filter: url(#dropshadow)"/>
<text text-anchor="middle" x="64.664" y="-286.1" font-family="Times New Roman,serif" font-size="8.00">ResearcherIDType</text>
</g>
<!-- ResearcherIDType&#45;&gt;DateType -->
<g id="edge30" class="edge"><title>ResearcherIDType&#45;&gt;DateType</title>
<path fill="none" stroke="black" d="M108.931,-293.673C143.269,-300.475 189.912,-315.241 217.328,-347 290.581,-431.855 335.275,-785.636 348.033,-900.1"/>
<text text-anchor="middle" x="182.328" y="-349.6" font-family="Times New Roman,serif" font-size="8.00">EffectivePeriod</text>
</g>
<!-- ResultDetailType -->
<g id="ReusableTypeResultDetailType9" class="node"><title></title><ellipse fill="#f7b733" stroke="black" cx="64.664" cy="-234" rx="43.8539" ry="18" style="filter: url(#dropshadow)"/>
<text text-anchor="middle" x="64.664" y="-232.1" font-family="Times New Roman,serif" font-size="8.00">ResultDetailType</text>
</g>
<!-- ResultDetailType&#45;&gt;DateType -->
<g id="edge31" class="edge"><title>ResultDetailType&#45;&gt;DateType</title>
<path fill="none" stroke="black" d="M107.315,-238.329C141.868,-244.177 189.664,-257.891 217.328,-290 298.085,-383.731 338.317,-779.187 348.918,-900.479"/>
<text text-anchor="middle" x="182.328" y="-292.6" font-family="Times New Roman,serif" font-size="8.00">ResultsDate</text>
</g>
<!-- RoleType -->
<g id="ReusableTypeRoleType0" class="node"><title></title><ellipse fill="#f7b733" stroke="black" cx="64.664" cy="-180" rx="28.8574" ry="18" style="filter: url(#dropshadow)"/>
<text text-anchor="middle" x="64.664" y="-178.1" font-family="Times New Roman,serif" font-size="8.00">RoleType</text>
</g>
<!-- RoleType&#45;&gt;DateType -->
<g id="edge32" class="edge"><title>RoleType&#45;&gt;DateType</title>
<path fill="none" stroke="black" d="M93.5367,-182.005C128.012,-186.049 185.973,-198.242 217.328,-235 304.786,-337.53 340.721,-771.846 349.551,-900.161"/>
<text text-anchor="middle" x="182.328" y="-237.6" font-family="Times New Roman,serif" font-size="8.00">EffectivePeriod</text>
</g>
<!-- SoftwareType -->
<g id="ReusableTypeSoftwareType1" class="node"><title></title><ellipse fill="#f7b733" stroke="black" cx="64.664" cy="-126" rx="36.7401" ry="18" style="filter: url(#dropshadow)"/>
<text text-anchor="middle" x="64.664" y="-124.1" font-family="Times New Roman,serif" font-size="8.00">SoftwareType</text>
</g>
<!-- SoftwareType&#45;&gt;DateType -->
<g id="edge33" class="edge"><title>SoftwareType&#45;&gt;DateType</title>
<path fill="none" stroke="black" d="M101.136,-128.643C136.09,-133.227 188.346,-145.759 217.328,-180 311.636,-291.422 343.02,-765.469 350.121,-900.171"/>
<text text-anchor="middle" x="182.328" y="-182.6" font-family="Times New Roman,serif" font-size="8.00">Date</text>
</g>
<!-- TelephoneType -->
<g id="ReusableTypeTelephoneType2" class="node"><title></title><ellipse fill="#f7b733" stroke="black" cx="64.664" cy="-72" rx="41.3155" ry="18" style="filter: url(#dropshadow)"/>
<text text-anchor="middle" x="64.664" y="-70.1" font-family="Times New Roman,serif" font-size="8.00">TelephoneType</text>
</g>
<!-- TelephoneType&#45;&gt;DateType -->
<g id="edge34" class="edge"><title>TelephoneType&#45;&gt;DateType</title>
<path fill="none" stroke="black" d="M105.538,-74.8836C140.407,-79.6294 189.674,-92.1327 217.328,-125 318.633,-245.401 345.208,-760.062 350.63,-900.485"/>
<text text-anchor="middle" x="182.328" y="-127.6" font-family="Times New Roman,serif" font-size="8.00">EffectivePeriod</text>
</g>
<!-- VersionDistinctionType -->
<g id="ReusableTypeVersionDistinctionType3" class="node"><title></title><ellipse fill="#f7b733" stroke="black" cx="64.664" cy="-18" rx="57.0809" ry="18" style="filter: url(#dropshadow)"/>
<text text-anchor="middle" x="64.664" y="-16.1" font-family="Times New Roman,serif" font-size="8.00">VersionDistinctionType</text>
</g>
<!-- VersionDistinctionType&#45;&gt;DateType -->
<g id="edge35" class="edge"><title>VersionDistinctionType&#45;&gt;DateType</title>
<path fill="none" stroke="black" d="M120.22,-22.7571C153.247,-28.5965 193.466,-41.5136 217.328,-70 325.532,-199.174 347.183,-753.131 351.054,-900.093"/>
<text text-anchor="middle" x="182.328" y="-72.6" font-family="Times New Roman,serif" font-size="8.00">EffectivePeriod</text>
</g>
</g>
</svg>
