<?xml version="1.0" encoding="UTF-8" standalone="no"?>
<!DOCTYPE svg PUBLIC "-//W3C//DTD SVG 1.1//EN"
 "http://www.w3.org/Graphics/SVG/1.1/DTD/svg11.dtd">
<!-- Generated by graphviz version 2.38.0 (20140413.2041)
 -->
<!-- Title: G Pages: 1 -->
<svg width="498pt" height="1021pt"
 viewBox="0.00 0.00 497.81 1020.88" xmlns="http://www.w3.org/2000/svg" xmlns:xlink="http://www.w3.org/1999/xlink">
<filter id = "dropshadow" height = "130%" ><feGaussianBlur in= "SourceAlpha" stdDeviation = "3"/><!--stdDeviation is how much to blur--><feOffset dx = "2" dy = "2" result = "offsetblur"/><!--how much to offset--><feMerge><feMergeNode/><!--this contains the offset blurred image--><feMergeNode in= "SourceGraphic"/><!--this contains the element that the filter is applied to --></feMerge></filter>
<g id="graph0" class="graph" transform="scale(1 1) rotate(0) translate(4 1016.88)">
<title>G</title>
<!-- InternationalStringType -->
<g id="ReusableTypeInternationalStringType" class="node"><title></title><polygon fill="#f7b733" stroke="black" points="281.807,-517.88 281.807,-553.88 489.807,-553.88 489.807,-517.88 281.807,-517.88" style="filter: url(#dropshadow)"/>
<text text-anchor="middle" x="332.307" y="-533.98" font-family="Times New Roman,serif" font-size="8.00">InternationalStringType</text>
<polyline fill="none" stroke="black" points="382.807,-517.88 382.807,-553.88 "/>
<text text-anchor="start" x="390.807" y="-533.98" font-family="Times New Roman,serif" font-size="8.00">String : StringType[0...n] </text>
</g>
<!-- Group -->
<g id="ItemTypeGroup" class="node"><title></title><ellipse fill="#f7b733" stroke="black" cx="70.9035" cy="-994.88" rx="27" ry="18" style="filter: url(#dropshadow)"/>
<text text-anchor="middle" x="70.9035" y="-992.98" font-family="Times New Roman,serif" font-size="8.00">Group</text>
</g>
<!-- Group&#45;&gt;InternationalStringType -->
<g id="edge1" class="edge"><title>Group&#45;&gt;InternationalStringType</title>
<path fill="none" stroke="black" d="M98.0176,-997.112C138.863,-999.089 217.93,-996.598 263.807,-953.88 324.903,-896.991 370.689,-626.808 382.066,-553.993"/>
<text text-anchor="middle" x="211.807" y="-996.48" font-family="Times New Roman,serif" font-size="8.00">AnalysisUnitsCovered</text>
</g>
<!-- StatisticalClassification -->
<g id="ItemTypeStatisticalClassification" class="node"><title></title><ellipse fill="#f7b733" stroke="black" cx="70.9035" cy="-940.88" rx="55.0423" ry="18" style="filter: url(#dropshadow)"/>
<text text-anchor="middle" x="70.9035" y="-938.98" font-family="Times New Roman,serif" font-size="8.00">StatisticalClassification</text>
</g>
<!-- StatisticalClassification&#45;&gt;InternationalStringType -->
<g id="edge2" class="edge"><title>StatisticalClassification&#45;&gt;InternationalStringType</title>
<path fill="none" stroke="black" d="M125.458,-943.749C167.918,-943.1 226.179,-935.284 263.807,-901.88 371.16,-806.578 383.562,-614.027 384.762,-554.103"/>
<text text-anchor="middle" x="211.807" y="-943.48" font-family="Times New Roman,serif" font-size="8.00">Copyright</text>
</g>
<!-- StudyUnit -->
<g id="ItemTypeStudyUnit" class="node"><title></title><ellipse fill="#f7b733" stroke="black" cx="70.9035" cy="-886.88" rx="28.8574" ry="18" style="filter: url(#dropshadow)"/>
<text text-anchor="middle" x="70.9035" y="-884.98" font-family="Times New Roman,serif" font-size="8.00">StudyUnit</text>
</g>
<!-- StudyUnit&#45;&gt;InternationalStringType -->
<g id="edge3" class="edge"><title>StudyUnit&#45;&gt;InternationalStringType</title>
<path fill="none" stroke="black" d="M99.5116,-889.882C140.218,-892.739 216.604,-891.898 263.807,-852.88 359.836,-773.501 379.782,-608.912 383.815,-554.09"/>
<text text-anchor="middle" x="211.807" y="-891.48" font-family="Times New Roman,serif" font-size="8.00">AnalysisUnitsCovered</text>
</g>
<!-- BasedOnObjectType -->
<g id="ReusableTypeBasedOnObjectType" class="node"><title></title><ellipse fill="#f7b733" stroke="black" cx="70.9035" cy="-832.88" rx="49.8323" ry="18" style="filter: url(#dropshadow)"/>
<text text-anchor="middle" x="70.9035" y="-830.98" font-family="Times New Roman,serif" font-size="8.00">BasedOnObjectType</text>
</g>
<!-- BasedOnObjectType&#45;&gt;InternationalStringType -->
<g id="edge4" class="edge"><title>BasedOnObjectType&#45;&gt;InternationalStringType</title>
<path fill="none" stroke="black" d="M117.597,-839.641C159.648,-843.3 221.697,-841.92 263.807,-810.88 351.348,-746.35 376.556,-604.516 382.897,-554.104"/>
<text text-anchor="middle" x="211.807" y="-842.48" font-family="Times New Roman,serif" font-size="8.00">BasedOnRationaleDescription</text>
</g>
<!-- CitationType -->
<g id="ReusableTypeCitationType" class="node"><title></title><ellipse fill="#f7b733" stroke="black" cx="70.9035" cy="-778.88" rx="36.1063" ry="18" style="filter: url(#dropshadow)"/>
<text text-anchor="middle" x="70.9035" y="-776.98" font-family="Times New Roman,serif" font-size="8.00">CitationType</text>
</g>
<!-- CitationType&#45;&gt;InternationalStringType -->
<g id="edge5" class="edge"><title>CitationType&#45;&gt;InternationalStringType</title>
<path fill="none" stroke="black" d="M102.494,-788.098C142.761,-798.303 214.236,-809.573 263.807,-778.88 346.35,-727.771 374.4,-601.568 382.209,-554.219"/>
<text text-anchor="middle" x="211.807" y="-800.48" font-family="Times New Roman,serif" font-size="8.00">Title</text>
</g>
<!-- CitationType&#45;&gt;InternationalStringType -->
<g id="edge6" class="edge"><title>CitationType&#45;&gt;InternationalStringType</title>
<path fill="none" stroke="black" d="M106.299,-774.763C158.002,-768.332 251.086,-755.727 263.807,-746.88 333.663,-698.297 368.515,-595.471 380.188,-553.891"/>
<text text-anchor="middle" x="211.807" y="-769.48" font-family="Times New Roman,serif" font-size="8.00">SubTitle</text>
</g>
<!-- CitationType&#45;&gt;InternationalStringType -->
<g id="edge7" class="edge"><title>CitationType&#45;&gt;InternationalStringType</title>
<path fill="none" stroke="black" d="M102.025,-769.426C114.693,-764.902 129.351,-758.926 141.807,-751.88 150.628,-746.89 150.635,-742.191 159.807,-737.88 202.65,-717.744 224.657,-741.493 263.807,-714.88 324.61,-673.548 363.236,-590.579 378.002,-553.958"/>
<text text-anchor="middle" x="211.807" y="-740.48" font-family="Times New Roman,serif" font-size="8.00">AlternateTitle</text>
</g>
<!-- CitationType&#45;&gt;InternationalStringType -->
<g id="edge8" class="edge"><title>CitationType&#45;&gt;InternationalStringType</title>
<path fill="none" stroke="black" d="M104.997,-772.181C117.853,-768.148 131.85,-761.793 141.807,-751.88 157.365,-736.39 143.126,-720.152 159.807,-705.88 195.777,-675.104 223.446,-707.618 263.807,-682.88 317.071,-650.232 357.639,-585.667 375.226,-554.108"/>
<text text-anchor="middle" x="211.807" y="-708.48" font-family="Times New Roman,serif" font-size="8.00">Copyright</text>
</g>
<!-- ClassificationIndexEntryType -->
<g id="ReusableTypeClassificationIndexEntryType" class="node"><title></title><ellipse fill="#f7b733" stroke="black" cx="70.9035" cy="-724.88" rx="69.4043" ry="18" style="filter: url(#dropshadow)"/>
<text text-anchor="middle" x="70.9035" y="-722.98" font-family="Times New Roman,serif" font-size="8.00">ClassificationIndexEntryType</text>
</g>
<!-- ClassificationIndexEntryType&#45;&gt;InternationalStringType -->
<g id="edge9" class="edge"><title>ClassificationIndexEntryType&#45;&gt;InternationalStringType</title>
<path fill="none" stroke="black" d="M117.486,-711.537C126.029,-707.885 134.546,-703.376 141.807,-697.88 152.438,-689.832 148.6,-681.103 159.807,-673.88 199.599,-648.236 222.012,-673.109 263.807,-650.88 309.608,-626.52 350.517,-580.001 370.983,-554.221"/>
<text text-anchor="middle" x="211.807" y="-676.48" font-family="Times New Roman,serif" font-size="8.00">EntryText</text>
</g>
<!-- CollectionType -->
<g id="ReusableTypeCollectionType" class="node"><title></title><ellipse fill="#f7b733" stroke="black" cx="70.9035" cy="-670.88" rx="40.0477" ry="18" style="filter: url(#dropshadow)"/>
<text text-anchor="middle" x="70.9035" y="-668.98" font-family="Times New Roman,serif" font-size="8.00">CollectionType</text>
</g>
<!-- CollectionType&#45;&gt;InternationalStringType -->
<g id="edge10" class="edge"><title>CollectionType&#45;&gt;InternationalStringType</title>
<path fill="none" stroke="black" d="M103.737,-660.28C156.312,-642.747 256.278,-609.292 263.807,-605.88 297.185,-590.752 333.285,-569.116 357.284,-553.913"/>
<text text-anchor="middle" x="211.807" y="-642.48" font-family="Times New Roman,serif" font-size="8.00">LocationInArchive</text>
</g>
<!-- CommandFileType -->
<g id="ReusableTypeCommandFileType" class="node"><title></title><ellipse fill="#f7b733" stroke="black" cx="70.9035" cy="-616.88" rx="47.16" ry="18" style="filter: url(#dropshadow)"/>
<text text-anchor="middle" x="70.9035" y="-614.98" font-family="Times New Roman,serif" font-size="8.00">CommandFileType</text>
</g>
<!-- CommandFileType&#45;&gt;InternationalStringType -->
<g id="edge11" class="edge"><title>CommandFileType&#45;&gt;InternationalStringType</title>
<path fill="none" stroke="black" d="M110.523,-607.122C149.294,-597.301 210.726,-581.675 263.807,-567.88 281.052,-563.398 299.664,-558.504 316.998,-553.922"/>
<text text-anchor="middle" x="211.807" y="-595.48" font-family="Times New Roman,serif" font-size="8.00">Location</text>
</g>
<!-- DataFileIdentificationType -->
<g id="ReusableTypeDataFileIdentificationType0" class="node"><title></title><ellipse fill="#f7b733" stroke="black" cx="70.9035" cy="-562.88" rx="63.5591" ry="18" style="filter: url(#dropshadow)"/>
<text text-anchor="middle" x="70.9035" y="-560.98" font-family="Times New Roman,serif" font-size="8.00">DataFileIdentificationType</text>
</g>
<!-- DataFileIdentificationType&#45;&gt;InternationalStringType -->
<g id="edge12" class="edge"><title>DataFileIdentificationType&#45;&gt;InternationalStringType</title>
<path fill="none" stroke="black" d="M131.864,-557.706C174.187,-554.054 231.966,-549.068 281.618,-544.784"/>
<text text-anchor="middle" x="211.807" y="-557.48" font-family="Times New Roman,serif" font-size="8.00">Location</text>
</g>
<!-- FormType -->
<g id="ReusableTypeFormType1" class="node"><title></title><ellipse fill="#f7b733" stroke="black" cx="70.9035" cy="-508.88" rx="30.7612" ry="18" style="filter: url(#dropshadow)"/>
<text text-anchor="middle" x="70.9035" y="-506.98" font-family="Times New Roman,serif" font-size="8.00">FormType</text>
</g>
<!-- FormType&#45;&gt;InternationalStringType -->
<g id="edge13" class="edge"><title>FormType&#45;&gt;InternationalStringType</title>
<path fill="none" stroke="black" d="M101.341,-511.42C142.265,-514.951 218.434,-521.524 281.516,-526.967"/>
<text text-anchor="middle" x="211.807" y="-526.48" font-family="Times New Roman,serif" font-size="8.00">Statement</text>
</g>
<!-- GeographicLevelType -->
<g id="ReusableTypeGeographicLevelType2" class="node"><title></title><ellipse fill="#f7b733" stroke="black" cx="70.9035" cy="-454.88" rx="53.1395" ry="18" style="filter: url(#dropshadow)"/>
<text text-anchor="middle" x="70.9035" y="-452.98" font-family="Times New Roman,serif" font-size="8.00">GeographicLevelType</text>
</g>
<!-- GeographicLevelType&#45;&gt;InternationalStringType -->
<g id="edge14" class="edge"><title>GeographicLevelType&#45;&gt;InternationalStringType</title>
<path fill="none" stroke="black" d="M114.652,-465.298C153.586,-474.851 212.638,-489.504 263.807,-502.88 281.924,-507.615 301.524,-512.894 319.566,-517.815"/>
<text text-anchor="middle" x="211.807" y="-505.48" font-family="Times New Roman,serif" font-size="8.00">CoverageLimitation</text>
</g>
<!-- IndividualNameType -->
<g id="ReusableTypeIndividualNameType3" class="node"><title></title><ellipse fill="#f7b733" stroke="black" cx="70.9035" cy="-400.88" rx="50.4666" ry="18" style="filter: url(#dropshadow)"/>
<text text-anchor="middle" x="70.9035" y="-398.98" font-family="Times New Roman,serif" font-size="8.00">IndividualNameType</text>
</g>
<!-- IndividualNameType&#45;&gt;InternationalStringType -->
<g id="edge15" class="edge"><title>IndividualNameType&#45;&gt;InternationalStringType</title>
<path fill="none" stroke="black" d="M112.194,-411.318C151.709,-422.197 213.217,-440.863 263.807,-463.88 297.85,-479.368 334.421,-502.061 358.339,-517.814"/>
<text text-anchor="middle" x="211.807" y="-466.48" font-family="Times New Roman,serif" font-size="8.00">FullName</text>
</g>
<!-- IndividualNameType&#45;&gt;InternationalStringType -->
<g id="edge16" class="edge"><title>IndividualNameType&#45;&gt;InternationalStringType</title>
<path fill="none" stroke="black" d="M118.33,-394.44C158.648,-390.917 217.647,-390.852 263.807,-411.88 314.446,-434.948 355.086,-489.432 373.733,-517.879"/>
<text text-anchor="middle" x="211.807" y="-414.48" font-family="Times New Roman,serif" font-size="8.00">Abbreviation</text>
</g>
<!-- ItemType -->
<g id="ReusableTypeItemType4" class="node"><title></title><ellipse fill="#f7b733" stroke="black" cx="70.9035" cy="-346.88" rx="29.4917" ry="18" style="filter: url(#dropshadow)"/>
<text text-anchor="middle" x="70.9035" y="-344.98" font-family="Times New Roman,serif" font-size="8.00">ItemType</text>
</g>
<!-- ItemType&#45;&gt;InternationalStringType -->
<g id="edge17" class="edge"><title>ItemType&#45;&gt;InternationalStringType</title>
<path fill="none" stroke="black" d="M100.462,-345.37C140.008,-344.601 212.375,-348.071 263.807,-378.88 320.488,-412.833 360.21,-484.169 376.528,-517.715"/>
<text text-anchor="middle" x="211.807" y="-381.48" font-family="Times New Roman,serif" font-size="8.00">LocationInArchive</text>
</g>
<!-- NoteType -->
<g id="ReusableTypeNoteType5" class="node"><title></title><ellipse fill="#f7b733" stroke="black" cx="70.9035" cy="-292.88" rx="30.1263" ry="18" style="filter: url(#dropshadow)"/>
<text text-anchor="middle" x="70.9035" y="-290.98" font-family="Times New Roman,serif" font-size="8.00">NoteType</text>
</g>
<!-- NoteType&#45;&gt;InternationalStringType -->
<g id="edge18" class="edge"><title>NoteType&#45;&gt;InternationalStringType</title>
<path fill="none" stroke="black" d="M101.094,-292.353C141.381,-293.051 214.615,-299.598 263.807,-334.88 329.838,-382.238 366.437,-477.852 379.376,-517.75"/>
<text text-anchor="middle" x="211.807" y="-337.48" font-family="Times New Roman,serif" font-size="8.00">Header</text>
</g>
<!-- OrganizationNameType -->
<g id="ReusableTypeOrganizationNameType6" class="node"><title></title><ellipse fill="#f7b733" stroke="black" cx="70.9035" cy="-238.88" rx="57.0809" ry="18" style="filter: url(#dropshadow)"/>
<text text-anchor="middle" x="70.9035" y="-236.98" font-family="Times New Roman,serif" font-size="8.00">OrganizationNameType</text>
</g>
<!-- OrganizationNameType&#45;&gt;InternationalStringType -->
<g id="edge19" class="edge"><title>OrganizationNameType&#45;&gt;InternationalStringType</title>
<path fill="none" stroke="black" d="M128.332,-239.496C169.86,-242.711 225.523,-253.127 263.807,-283.88 341.561,-346.338 372.454,-470.906 381.616,-517.621"/>
<text text-anchor="middle" x="211.807" y="-286.48" font-family="Times New Roman,serif" font-size="8.00">Abbreviation</text>
</g>
<!-- PrimaryComponentLevelType -->
<g id="ReusableTypePrimaryComponentLevelType7" class="node"><title></title><ellipse fill="#f7b733" stroke="black" cx="70.9035" cy="-184.88" rx="70.8072" ry="18" style="filter: url(#dropshadow)"/>
<text text-anchor="middle" x="70.9035" y="-182.98" font-family="Times New Roman,serif" font-size="8.00">PrimaryComponentLevelType</text>
</g>
<!-- PrimaryComponentLevelType&#45;&gt;InternationalStringType -->
<g id="edge20" class="edge"><title>PrimaryComponentLevelType&#45;&gt;InternationalStringType</title>
<path fill="none" stroke="black" d="M142.062,-185.814C181.928,-189.828 230.396,-201.029 263.807,-229.88 354.823,-308.473 377.971,-464.71 383.324,-517.765"/>
<text text-anchor="middle" x="211.807" y="-232.48" font-family="Times New Roman,serif" font-size="8.00">CoverageLimitation</text>
</g>
<!-- UsedType -->
<g id="ReusableTypeUsedType8" class="node"><title></title><ellipse fill="#f7b733" stroke="black" cx="70.9035" cy="-130.88" rx="29.4917" ry="18" style="filter: url(#dropshadow)"/>
<text text-anchor="middle" x="70.9035" y="-128.98" font-family="Times New Roman,serif" font-size="8.00">UsedType</text>
</g>
<!-- UsedType&#45;&gt;InternationalStringType -->
<g id="edge21" class="edge"><title>UsedType&#45;&gt;InternationalStringType</title>
<path fill="none" stroke="black" d="M100.549,-129.285C141.867,-128.592 218.222,-133.558 263.807,-174.88 368.611,-269.883 382.75,-458.316 384.568,-517.589"/>
<text text-anchor="middle" x="211.807" y="-177.48" font-family="Times New Roman,serif" font-size="8.00">AlternateName</text>
</g>
<!-- VersionRationaleType -->
<g id="ReusableTypeVersionRationaleType9" class="node"><title></title><ellipse fill="#f7b733" stroke="black" cx="70.9035" cy="-76.8797" rx="53.7736" ry="18" style="filter: url(#dropshadow)"/>
<text text-anchor="middle" x="70.9035" y="-74.9797" font-family="Times New Roman,serif" font-size="8.00">VersionRationaleType</text>
</g>
<!-- VersionRationaleType&#45;&gt;InternationalStringType -->
<g id="edge22" class="edge"><title>VersionRationaleType&#45;&gt;InternationalStringType</title>
<path fill="none" stroke="black" d="M124.59,-74.8698C167.405,-76.1394 226.602,-84.9343 263.807,-119.88 382.776,-231.622 386.996,-452.831 385.521,-517.637"/>
<text text-anchor="middle" x="211.807" y="-122.48" font-family="Times New Roman,serif" font-size="8.00">RationaleDescription</text>
</g>
<!-- VocabularyType -->
<g id="ReusableTypeVocabularyType0" class="node"><title></title><ellipse fill="#f7b733" stroke="black" cx="70.9035" cy="-22.8797" rx="41.9498" ry="18" style="filter: url(#dropshadow)"/>
<text text-anchor="middle" x="70.9035" y="-20.9797" font-family="Times New Roman,serif" font-size="8.00">VocabularyType</text>
</g>
<!-- VocabularyType&#45;&gt;InternationalStringType -->
<g id="edge23" class="edge"><title>VocabularyType&#45;&gt;InternationalStringType</title>
<path fill="none" stroke="black" d="M112.214,-26.7543C161.937,-32.349 242.513,-44.339 263.807,-64.8797 331.558,-130.234 373.089,-439.126 382.671,-517.676"/>
<text text-anchor="middle" x="211.807" y="-67.4797" font-family="Times New Roman,serif" font-size="8.00">VocabularyTitle</text>
</g>
<!-- VocabularyType&#45;&gt;InternationalStringType -->
<g id="edge24" class="edge"><title>VocabularyType&#45;&gt;InternationalStringType</title>
<path fill="none" stroke="black" d="M104.394,-12.0136C146.088,-0.298252 218.439,12.2092 263.807,-23.8797 344.133,-87.7762 376.68,-434.109 383.429,-517.711"/>
<text text-anchor="middle" x="211.807" y="-26.4797" font-family="Times New Roman,serif" font-size="8.00">Abbreviation</text>
</g>
</g>
</svg>
