<?xml version="1.0" encoding="UTF-8" standalone="no"?>
<!DOCTYPE svg PUBLIC "-//W3C//DTD SVG 1.1//EN"
 "http://www.w3.org/Graphics/SVG/1.1/DTD/svg11.dtd">
<!-- Generated by graphviz version 2.38.0 (20140413.2041)
 -->
<!-- Title: G Pages: 1 -->
<svg width="562pt" height="908pt"
 viewBox="0.00 0.00 562.23 908.00" xmlns="http://www.w3.org/2000/svg" xmlns:xlink="http://www.w3.org/1999/xlink">
<filter id = "dropshadow" height = "130%" ><feGaussianBlur in= "SourceAlpha" stdDeviation = "3"/><!--stdDeviation is how much to blur--><feOffset dx = "2" dy = "2" result = "offsetblur"/><!--how much to offset--><feMerge><feMergeNode/><!--this contains the offset blurred image--><feMergeNode in= "SourceGraphic"/><!--this contains the element that the filter is applied to --></feMerge></filter>
<g id="graph0" class="graph" transform="scale(1 1) rotate(0) translate(4 904)">
<title>G</title>
<!-- OtherMaterial -->
<g id="ItemTypeOtherMaterial" class="node"><title></title><polygon fill="#f7b733" stroke="black" points="327.227,-401 327.227,-499 554.227,-499 554.227,-401 327.227,-401" style="filter: url(#dropshadow)"/>
<text text-anchor="middle" x="360.227" y="-448.1" font-family="Times New Roman,serif" font-size="8.00">OtherMaterial</text>
<polyline fill="none" stroke="black" points="393.227,-401 393.227,-499 "/>
<text text-anchor="start" x="401.227" y="-488.6" font-family="Times New Roman,serif" font-size="8.00">TypeOfMaterial : CodeValueType[0...1] </text>
<text text-anchor="start" x="401.227" y="-479.6" font-family="Times New Roman,serif" font-size="8.00">Description : StructuredStringType[0...1] </text>
<text text-anchor="start" x="401.227" y="-470.6" font-family="Times New Roman,serif" font-size="8.00">Citation : CitationType[0...1] </text>
<text text-anchor="start" x="401.227" y="-461.6" font-family="Times New Roman,serif" font-size="8.00">ExternalURLReference : anyURI[0...n] </text>
<text text-anchor="start" x="401.227" y="-452.6" font-family="Times New Roman,serif" font-size="8.00">ExternalURNReference : anyURI[0...1] </text>
<text text-anchor="start" x="401.227" y="-443.6" font-family="Times New Roman,serif" font-size="8.00">Relationship : RelationshipType[0...n] </text>
<text text-anchor="start" x="401.227" y="-434.6" font-family="Times New Roman,serif" font-size="8.00">MIMEType : CodeValueType[0...1] </text>
<text text-anchor="start" x="401.227" y="-425.6" font-family="Times New Roman,serif" font-size="8.00">Segment : SegmentType[0...n] </text>
<text text-anchor="start" x="401.227" y="-416.6" font-family="Times New Roman,serif" font-size="8.00">SizeInBytes : nonNegativeInteger[0...1] </text>
<text text-anchor="start" x="401.227" y="-407.6" font-family="Times New Roman,serif" font-size="8.00">Lang : language[0...1] </text>
</g>
<!-- ApprovalReview -->
<g id="ItemTypeApprovalReview" class="node"><title></title><ellipse fill="#f7b733" stroke="black" cx="81.1136" cy="-882" rx="41.9498" ry="18" style="filter: url(#dropshadow)"/>
<text text-anchor="middle" x="81.1136" y="-880.1" font-family="Times New Roman,serif" font-size="8.00">ApprovalReview</text>
</g>
<!-- ApprovalReview&#45;&gt;OtherMaterial -->
<g id="edge1" class="edge"><title>ApprovalReview&#45;&gt;OtherMaterial</title>
<path fill="none" stroke="black" d="M122.149,-886.409C171.997,-889.593 256.938,-887.116 309.227,-842 411.461,-753.792 433.906,-583.341 438.626,-499.3"/>
<text text-anchor="middle" x="244.727" y="-888.6" font-family="Times New Roman,serif" font-size="8.00">ApprovalReviewDocumentReference</text>
</g>
<!-- OtherMaterialGroup -->
<g id="ItemTypeOtherMaterialGroup" class="node"><title></title><ellipse fill="#f7b733" stroke="black" cx="81.1136" cy="-828" rx="49.1982" ry="18" style="filter: url(#dropshadow)"/>
<text text-anchor="middle" x="81.1136" y="-826.1" font-family="Times New Roman,serif" font-size="8.00">OtherMaterialGroup</text>
</g>
<!-- OtherMaterialGroup&#45;&gt;OtherMaterial -->
<g id="edge2" class="edge"><title>OtherMaterialGroup&#45;&gt;OtherMaterial</title>
<path fill="none" stroke="black" d="M129.884,-831.385C180.135,-832.331 258.786,-826.043 309.227,-784 396.382,-711.356 425.584,-572.866 435.175,-499.101"/>
<text text-anchor="middle" x="244.727" y="-831.6" font-family="Times New Roman,serif" font-size="8.00">OtherMaterialReference</text>
</g>
<!-- OtherMaterialScheme -->
<g id="ItemTypeOtherMaterialScheme" class="node"><title></title><ellipse fill="#f7b733" stroke="black" cx="81.1136" cy="-774" rx="52.3706" ry="18" style="filter: url(#dropshadow)"/>
<text text-anchor="middle" x="81.1136" y="-772.1" font-family="Times New Roman,serif" font-size="8.00">OtherMaterialScheme</text>
</g>
<!-- OtherMaterialScheme&#45;&gt;OtherMaterial -->
<g id="edge3" class="edge"><title>OtherMaterialScheme&#45;&gt;OtherMaterial</title>
<path fill="none" stroke="black" d="M133.574,-775.383C183.524,-774.088 258.961,-764.833 309.227,-725 381.192,-667.973 415.585,-561.678 430.256,-499.261"/>
<text text-anchor="middle" x="244.727" y="-773.6" font-family="Times New Roman,serif" font-size="8.00">OtherMaterialReference</text>
</g>
<!-- Sample -->
<g id="ItemTypeSample" class="node"><title></title><ellipse fill="#f7b733" stroke="black" cx="81.1136" cy="-720" rx="27" ry="18" style="filter: url(#dropshadow)"/>
<text text-anchor="middle" x="81.1136" y="-718.1" font-family="Times New Roman,serif" font-size="8.00">Sample</text>
</g>
<!-- Sample&#45;&gt;OtherMaterial -->
<g id="edge4" class="edge"><title>Sample&#45;&gt;OtherMaterial</title>
<path fill="none" stroke="black" d="M108.281,-719.96C153.539,-718.625 247.5,-710.142 309.227,-665 366.148,-623.373 403.188,-548.701 422.777,-499.245"/>
<text text-anchor="middle" x="244.727" y="-714.6" font-family="Times New Roman,serif" font-size="8.00">SampleLocationReference</text>
</g>
<!-- Versionable -->
<g id="ItemTypeVersionable" class="node"><title></title><ellipse fill="#f7b733" stroke="black" cx="81.1136" cy="-666" rx="31.5313" ry="18" style="filter: url(#dropshadow)"/>
<text text-anchor="middle" x="81.1136" y="-664.1" font-family="Times New Roman,serif" font-size="8.00">Versionable</text>
</g>
<!-- Versionable&#45;&gt;OtherMaterial -->
<g id="edge5" class="edge"><title>Versionable&#45;&gt;OtherMaterial</title>
<path fill="none" stroke="black" d="M112.738,-663.616C158.68,-658.816 246.71,-644.781 309.227,-605 351.222,-578.278 386.663,-533.741 409.964,-499.248"/>
<text text-anchor="middle" x="244.727" y="-654.6" font-family="Times New Roman,serif" font-size="8.00">RelatedOtherMaterialReference</text>
</g>
<!-- AuthorizedPolicySourceType -->
<g id="ReusableTypeAuthorizedPolicySourceType" class="node"><title></title><ellipse fill="#f7b733" stroke="black" cx="81.1136" cy="-612" rx="67.5003" ry="18" style="filter: url(#dropshadow)"/>
<text text-anchor="middle" x="81.1136" y="-610.1" font-family="Times New Roman,serif" font-size="8.00">AuthorizedPolicySourceType</text>
</g>
<!-- AuthorizedPolicySourceType&#45;&gt;OtherMaterial -->
<g id="edge6" class="edge"><title>AuthorizedPolicySourceType&#45;&gt;OtherMaterial</title>
<path fill="none" stroke="black" d="M138.866,-602.456C186.161,-593.072 254.407,-576.146 309.227,-549 335.859,-535.812 362.493,-516.895 384.691,-499.123"/>
<text text-anchor="middle" x="244.727" y="-594.6" font-family="Times New Roman,serif" font-size="8.00">OtherMaterialReference</text>
</g>
<!-- AuthorizedSourceType -->
<g id="ReusableTypeAuthorizedSourceType" class="node"><title></title><ellipse fill="#f7b733" stroke="black" cx="81.1136" cy="-558" rx="54.4078" ry="18" style="filter: url(#dropshadow)"/>
<text text-anchor="middle" x="81.1136" y="-556.1" font-family="Times New Roman,serif" font-size="8.00">AuthorizedSourceType</text>
</g>
<!-- AuthorizedSourceType&#45;&gt;OtherMaterial -->
<g id="edge7" class="edge"><title>AuthorizedSourceType&#45;&gt;OtherMaterial</title>
<path fill="none" stroke="black" d="M127.403,-548.411C173.584,-538.219 247.075,-520.856 309.227,-501 315.136,-499.112 321.162,-497.095 327.224,-494.992"/>
<text text-anchor="middle" x="244.727" y="-538.6" font-family="Times New Roman,serif" font-size="8.00">OtherMaterialReference</text>
</g>
<!-- BudgetDocumentType -->
<g id="ReusableTypeBudgetDocumentType" class="node"><title></title><ellipse fill="#f7b733" stroke="black" cx="81.1136" cy="-504" rx="53.7736" ry="18" style="filter: url(#dropshadow)"/>
<text text-anchor="middle" x="81.1136" y="-502.1" font-family="Times New Roman,serif" font-size="8.00">BudgetDocumentType</text>
</g>
<!-- BudgetDocumentType&#45;&gt;OtherMaterial -->
<g id="edge8" class="edge"><title>BudgetDocumentType&#45;&gt;OtherMaterial</title>
<path fill="none" stroke="black" d="M130.715,-496.661C180.941,-489.077 261.103,-476.972 327.194,-466.993"/>
<text text-anchor="middle" x="244.727" y="-490.6" font-family="Times New Roman,serif" font-size="8.00">OtherMaterialReference</text>
</g>
<!-- ExternalAidType -->
<g id="ReusableTypeExternalAidType0" class="node"><title></title><ellipse fill="#f7b733" stroke="black" cx="81.1136" cy="-450" rx="43.8539" ry="18" style="filter: url(#dropshadow)"/>
<text text-anchor="middle" x="81.1136" y="-448.1" font-family="Times New Roman,serif" font-size="8.00">ExternalAidType</text>
</g>
<!-- ExternalAidType&#45;&gt;OtherMaterial -->
<g id="edge9" class="edge"><title>ExternalAidType&#45;&gt;OtherMaterial</title>
<path fill="none" stroke="black" d="M124.895,-450C174.581,-450 258.512,-450 327.224,-450"/>
<text text-anchor="middle" x="244.727" y="-452.6" font-family="Times New Roman,serif" font-size="8.00">OtherMaterialReference</text>
</g>
<!-- ExternalInformationType -->
<g id="ReusableTypeExternalInformationType1" class="node"><title></title><ellipse fill="#f7b733" stroke="black" cx="81.1136" cy="-396" rx="61.0222" ry="18" style="filter: url(#dropshadow)"/>
<text text-anchor="middle" x="81.1136" y="-394.1" font-family="Times New Roman,serif" font-size="8.00">ExternalInformationType</text>
</g>
<!-- ExternalInformationType&#45;&gt;OtherMaterial -->
<g id="edge10" class="edge"><title>ExternalInformationType&#45;&gt;OtherMaterial</title>
<path fill="none" stroke="black" d="M136.039,-404.143C186.478,-411.759 263.398,-423.374 327.202,-433.009"/>
<text text-anchor="middle" x="244.727" y="-431.6" font-family="Times New Roman,serif" font-size="8.00">OtherMaterialReference</text>
</g>
<!-- ExternalInterviewerInstructionType -->
<g id="ReusableTypeExternalInterviewerInstructionType2" class="node"><title></title><ellipse fill="#f7b733" stroke="black" cx="81.1136" cy="-342" rx="81.2274" ry="18" style="filter: url(#dropshadow)"/>
<text text-anchor="middle" x="81.1136" y="-340.1" font-family="Times New Roman,serif" font-size="8.00">ExternalInterviewerInstructionType</text>
</g>
<!-- ExternalInterviewerInstructionType&#45;&gt;OtherMaterial -->
<g id="edge11" class="edge"><title>ExternalInterviewerInstructionType&#45;&gt;OtherMaterial</title>
<path fill="none" stroke="black" d="M141.08,-354.204C187.291,-364.327 252.964,-379.948 309.227,-398 315.033,-399.863 320.949,-401.858 326.899,-403.941"/>
<text text-anchor="middle" x="244.727" y="-400.6" font-family="Times New Roman,serif" font-size="8.00">OtherMaterialReference</text>
</g>
<!-- FundingInformationType -->
<g id="ReusableTypeFundingInformationType3" class="node"><title></title><ellipse fill="#f7b733" stroke="black" cx="81.1136" cy="-288" rx="59.618" ry="18" style="filter: url(#dropshadow)"/>
<text text-anchor="middle" x="81.1136" y="-286.1" font-family="Times New Roman,serif" font-size="8.00">FundingInformationType</text>
</g>
<!-- FundingInformationType&#45;&gt;OtherMaterial -->
<g id="edge12" class="edge"><title>FundingInformationType&#45;&gt;OtherMaterial</title>
<path fill="none" stroke="black" d="M134.227,-296.285C181.64,-305.18 252.648,-321.956 309.227,-350 336.208,-363.373 363.114,-382.707 385.425,-400.818"/>
<text text-anchor="middle" x="244.727" y="-352.6" font-family="Times New Roman,serif" font-size="8.00">FundingDocumentReference</text>
</g>
<!-- GenerationType -->
<g id="ReusableTypeGenerationType4" class="node"><title></title><ellipse fill="#f7b733" stroke="black" cx="81.1136" cy="-234" rx="41.9498" ry="18" style="filter: url(#dropshadow)"/>
<text text-anchor="middle" x="81.1136" y="-232.1" font-family="Times New Roman,serif" font-size="8.00">GenerationType</text>
</g>
<!-- GenerationType&#45;&gt;OtherMaterial -->
<g id="edge13" class="edge"><title>GenerationType&#45;&gt;OtherMaterial</title>
<path fill="none" stroke="black" d="M122.838,-237.024C170.746,-242.204 251.107,-256.095 309.227,-293 351.865,-320.074 387.47,-365.653 410.661,-400.747"/>
<text text-anchor="middle" x="244.727" y="-295.6" font-family="Times New Roman,serif" font-size="8.00">OtherMaterialReference</text>
</g>
<!-- PublicationType -->
<g id="ReusableTypePublicationType5" class="node"><title></title><ellipse fill="#f7b733" stroke="black" cx="81.1136" cy="-180" rx="41.9498" ry="18" style="filter: url(#dropshadow)"/>
<text text-anchor="middle" x="81.1136" y="-178.1" font-family="Times New Roman,serif" font-size="8.00">PublicationType</text>
</g>
<!-- PublicationType&#45;&gt;OtherMaterial -->
<g id="edge14" class="edge"><title>PublicationType&#45;&gt;OtherMaterial</title>
<path fill="none" stroke="black" d="M123.377,-180.229C172.17,-182.468 253.746,-192.606 309.227,-233 366.802,-274.918 403.768,-350.681 423.152,-400.669"/>
<text text-anchor="middle" x="244.727" y="-235.6" font-family="Times New Roman,serif" font-size="8.00">OtherMaterialReference</text>
</g>
<!-- StandardUsedType -->
<g id="ReusableTypeStandardUsedType6" class="node"><title></title><ellipse fill="#f7b733" stroke="black" cx="81.1136" cy="-126" rx="45.891" ry="18" style="filter: url(#dropshadow)"/>
<text text-anchor="middle" x="81.1136" y="-124.1" font-family="Times New Roman,serif" font-size="8.00">StandardUsedType</text>
</g>
<!-- StandardUsedType&#45;&gt;OtherMaterial -->
<g id="edge15" class="edge"><title>StandardUsedType&#45;&gt;OtherMaterial</title>
<path fill="none" stroke="black" d="M127.116,-123.762C176.807,-123.651 256.711,-130.746 309.227,-172 382.39,-229.474 416.446,-337.763 430.715,-400.888"/>
<text text-anchor="middle" x="244.727" y="-174.6" font-family="Times New Roman,serif" font-size="8.00">OtherMaterialReference</text>
</g>
<!-- StimulusMaterialType -->
<g id="ReusableTypeStimulusMaterialType7" class="node"><title></title><ellipse fill="#f7b733" stroke="black" cx="81.1136" cy="-72" rx="52.5056" ry="18" style="filter: url(#dropshadow)"/>
<text text-anchor="middle" x="81.1136" y="-70.1" font-family="Times New Roman,serif" font-size="8.00">StimulusMaterialType</text>
</g>
<!-- StimulusMaterialType&#45;&gt;OtherMaterial -->
<g id="edge16" class="edge"><title>StimulusMaterialType&#45;&gt;OtherMaterial</title>
<path fill="none" stroke="black" d="M132.644,-67.7712C182.951,-66.3447 259.629,-72.0675 309.227,-113 397.659,-185.982 426.337,-326.502 435.509,-400.942"/>
<text text-anchor="middle" x="244.727" y="-115.6" font-family="Times New Roman,serif" font-size="8.00">OtherMaterialReference</text>
</g>
<!-- TranslationAidResourceType -->
<g id="ReusableTypeTranslationAidResourceType8" class="node"><title></title><ellipse fill="#f7b733" stroke="black" cx="81.1136" cy="-18" rx="67.5003" ry="18" style="filter: url(#dropshadow)"/>
<text text-anchor="middle" x="81.1136" y="-16.1" font-family="Times New Roman,serif" font-size="8.00">TranslationAidResourceType</text>
</g>
<!-- TranslationAidResourceType&#45;&gt;OtherMaterial -->
<g id="edge17" class="edge"><title>TranslationAidResourceType&#45;&gt;OtherMaterial</title>
<path fill="none" stroke="black" d="M145.027,-12.0362C195.175,-10.7979 264.219,-17.4414 309.227,-56 412.378,-144.369 434.378,-316.219 438.808,-400.7"/>
<text text-anchor="middle" x="244.727" y="-58.6" font-family="Times New Roman,serif" font-size="8.00">OtherMaterialReference</text>
</g>
</g>
</svg>
