<?xml version="1.0" encoding="UTF-8" standalone="no"?>
<!DOCTYPE svg PUBLIC "-//W3C//DTD SVG 1.1//EN"
 "http://www.w3.org/Graphics/SVG/1.1/DTD/svg11.dtd">
<!-- Generated by graphviz version 2.38.0 (20140413.2041)
 -->
<!-- Title: G Pages: 1 -->
<svg width="872pt" height="1340pt"
 viewBox="0.00 0.00 871.75 1340.00" xmlns="http://www.w3.org/2000/svg" xmlns:xlink="http://www.w3.org/1999/xlink">
<filter id = "dropshadow" height = "130%" ><feGaussianBlur in= "SourceAlpha" stdDeviation = "3"/><!--stdDeviation is how much to blur--><feOffset dx = "2" dy = "2" result = "offsetblur"/><!--how much to offset--><feMerge><feMergeNode/><!--this contains the offset blurred image--><feMergeNode in= "SourceGraphic"/><!--this contains the element that the filter is applied to --></feMerge></filter>
<g id="graph0" class="graph" transform="scale(1 1) rotate(0) translate(4 1336)">
<title>G</title>
<!-- ParameterType -->
<g id="ReusableTypeParameterType" class="node"><title></title><polygon fill="#f7b733" stroke="black" points="301.303,-684.5 301.303,-755.5 608.303,-755.5 608.303,-684.5 301.303,-684.5" style="filter: url(#dropshadow)"/>
<text text-anchor="middle" x="336.803" y="-718.1" font-family="Times New Roman,serif" font-size="8.00">ParameterType</text>
<polyline fill="none" stroke="black" points="372.303,-684.5 372.303,-755.5 "/>
<text text-anchor="start" x="380.303" y="-745.1" font-family="Times New Roman,serif" font-size="8.00">ParameterName : NameType[0...n] </text>
<text text-anchor="start" x="380.303" y="-736.1" font-family="Times New Roman,serif" font-size="8.00">Alias : string[0...1] </text>
<text text-anchor="start" x="380.303" y="-727.1" font-family="Times New Roman,serif" font-size="8.00">Description : StructuredStringType[0...1] </text>
<text text-anchor="start" x="380.303" y="-718.1" font-family="Times New Roman,serif" font-size="8.00">ValueRepresentation : RepresentationType[0...1] </text>
<text text-anchor="start" x="380.303" y="-709.1" font-family="Times New Roman,serif" font-size="8.00">ValueRepresentationReference : ManagedRepresentation[0...1] </text>
<text text-anchor="start" x="380.303" y="-700.1" font-family="Times New Roman,serif" font-size="8.00">DefaultValue : ValueType[0...1] </text>
<text text-anchor="start" x="380.303" y="-691.1" font-family="Times New Roman,serif" font-size="8.00">IsArray : boolean[0...1] </text>
</g>
<!-- ManagedRepresentation -->
<g id="ItemTypeManagedRepresentation" class="node"><title></title><ellipse fill="#f7b733" stroke="black" cx="807.026" cy="-720" rx="56.9465" ry="18" style="filter: url(#dropshadow)"/>
<text text-anchor="middle" x="807.026" y="-718.1" font-family="Times New Roman,serif" font-size="8.00">ManagedRepresentation</text>
</g>
<!-- ParameterType&#45;&gt;ManagedRepresentation -->
<g id="edge1" class="edge"><title>ParameterType&#45;&gt;ManagedRepresentation</title>
<path fill="none" stroke="black" d="M608.397,-720C658.719,-720 711.565,-720 749.935,-720"/>
<text text-anchor="middle" x="679.303" y="-722.6" font-family="Times New Roman,serif" font-size="8.00">ValueRepresentationReference</text>
<text text-anchor="middle" x="741.935" y="-713.6" font-family="Times New Roman,serif" font-size="8.00">0...*</text>
<text text-anchor="middle" x="616.397" y="-713.6" font-family="Times New Roman,serif" font-size="8.00">0...*</text>
</g>
<!-- ComputationItem -->
<g id="ItemTypeComputationItem" class="node"><title></title><ellipse fill="#f7b733" stroke="black" cx="85.6514" cy="-1314" rx="44.6228" ry="18" style="filter: url(#dropshadow)"/>
<text text-anchor="middle" x="85.6514" y="-1312.1" font-family="Times New Roman,serif" font-size="8.00">ComputationItem</text>
</g>
<!-- ComputationItem&#45;&gt;ParameterType -->
<g id="edge2" class="edge"><title>ComputationItem&#45;&gt;ParameterType</title>
<path fill="none" stroke="black" d="M130.766,-1314.82C174.93,-1313.22 242.083,-1303.86 283.303,-1265 433.174,-1123.72 452.083,-852.824 453.888,-755.727"/>
<text text-anchor="middle" x="236.303" y="-1309.6" font-family="Times New Roman,serif" font-size="8.00">AssignedVariableReference</text>
<text text-anchor="middle" x="445.888" y="-758.327" font-family="Times New Roman,serif" font-size="8.00">0...*</text>
<text text-anchor="middle" x="138.766" y="-1308.42" font-family="Times New Roman,serif" font-size="8.00">0...*</text>
</g>
<!-- ControlConstruct -->
<g id="ItemTypeControlConstruct" class="node"><title></title><ellipse fill="#f7b733" stroke="black" cx="85.6514" cy="-1260" rx="43.8539" ry="18" style="filter: url(#dropshadow)"/>
<text text-anchor="middle" x="85.6514" y="-1258.1" font-family="Times New Roman,serif" font-size="8.00">ControlConstruct</text>
</g>
<!-- ControlConstruct&#45;&gt;ParameterType -->
<g id="edge3" class="edge"><title>ControlConstruct&#45;&gt;ParameterType</title>
<path fill="none" stroke="black" d="M129.714,-1260.33C173.674,-1258.36 241.255,-1248.58 283.303,-1210 419.353,-1085.16 446.844,-846.046 452.397,-755.729"/>
<text text-anchor="middle" x="236.303" y="-1254.6" font-family="Times New Roman,serif" font-size="8.00">OutParameter</text>
<text text-anchor="middle" x="460.397" y="-758.329" font-family="Times New Roman,serif" font-size="8.00">0...*</text>
<text text-anchor="middle" x="137.714" y="-1253.93" font-family="Times New Roman,serif" font-size="8.00">0...*</text>
</g>
<!-- Loop -->
<g id="ItemTypeLoop" class="node"><title></title><ellipse fill="#f7b733" stroke="black" cx="85.6514" cy="-1206" rx="27" ry="18" style="filter: url(#dropshadow)"/>
<text text-anchor="middle" x="85.6514" y="-1204.1" font-family="Times New Roman,serif" font-size="8.00">Loop</text>
</g>
<!-- Loop&#45;&gt;ParameterType -->
<g id="edge4" class="edge"><title>Loop&#45;&gt;ParameterType</title>
<path fill="none" stroke="black" d="M112.715,-1206.24C153.978,-1205.21 234.642,-1197.33 283.303,-1154 405.28,-1045.39 440.894,-838.42 450.511,-755.577"/>
<text text-anchor="middle" x="236.303" y="-1199.6" font-family="Times New Roman,serif" font-size="8.00">LoopVariableReference</text>
<text text-anchor="middle" x="442.511" y="-749.177" font-family="Times New Roman,serif" font-size="8.00">0...*</text>
<text text-anchor="middle" x="120.715" y="-1199.84" font-family="Times New Roman,serif" font-size="8.00">0...*</text>
</g>
<!-- MeasurementItem -->
<g id="ItemTypeMeasurementItem" class="node"><title></title><ellipse fill="#f7b733" stroke="black" cx="85.6514" cy="-1152" rx="45.2568" ry="18" style="filter: url(#dropshadow)"/>
<text text-anchor="middle" x="85.6514" y="-1150.1" font-family="Times New Roman,serif" font-size="8.00">MeasurementItem</text>
</g>
<!-- MeasurementItem&#45;&gt;ParameterType -->
<g id="edge5" class="edge"><title>MeasurementItem&#45;&gt;ParameterType</title>
<path fill="none" stroke="black" d="M131.114,-1150.68C174.601,-1147.15 240.374,-1135.58 283.303,-1099 391.907,-1006.47 434.463,-830.744 448.206,-755.565"/>
<text text-anchor="middle" x="236.303" y="-1143.6" font-family="Times New Roman,serif" font-size="8.00">OutParameter</text>
<text text-anchor="middle" x="440.206" y="-758.165" font-family="Times New Roman,serif" font-size="8.00">0...*</text>
<text text-anchor="middle" x="139.114" y="-1144.28" font-family="Times New Roman,serif" font-size="8.00">0...*</text>
</g>
<!-- QuestionBlock -->
<g id="ItemTypeQuestionBlock" class="node"><title></title><ellipse fill="#f7b733" stroke="black" cx="85.6514" cy="-1098" rx="38.6432" ry="18" style="filter: url(#dropshadow)"/>
<text text-anchor="middle" x="85.6514" y="-1096.1" font-family="Times New Roman,serif" font-size="8.00">QuestionBlock</text>
</g>
<!-- QuestionBlock&#45;&gt;ParameterType -->
<g id="edge6" class="edge"><title>QuestionBlock&#45;&gt;ParameterType</title>
<path fill="none" stroke="black" d="M124.334,-1096.88C167.154,-1093.78 237.075,-1082.9 283.303,-1046 379.64,-969.093 427.627,-822.857 445.411,-755.539"/>
<text text-anchor="middle" x="236.303" y="-1088.6" font-family="Times New Roman,serif" font-size="8.00">OutParameter</text>
<text text-anchor="middle" x="437.411" y="-749.139" font-family="Times New Roman,serif" font-size="8.00">0...*</text>
<text text-anchor="middle" x="132.334" y="-1090.48" font-family="Times New Roman,serif" font-size="8.00">0...*</text>
</g>
<!-- QuestionGrid -->
<g id="ItemTypeQuestionGrid" class="node"><title></title><ellipse fill="#f7b733" stroke="black" cx="85.6514" cy="-1044" rx="35.3371" ry="18" style="filter: url(#dropshadow)"/>
<text text-anchor="middle" x="85.6514" y="-1042.1" font-family="Times New Roman,serif" font-size="8.00">QuestionGrid</text>
</g>
<!-- QuestionGrid&#45;&gt;ParameterType -->
<g id="edge7" class="edge"><title>QuestionGrid&#45;&gt;ParameterType</title>
<path fill="none" stroke="black" d="M120.847,-1043.34C162.86,-1040.93 234.546,-1031.43 283.303,-996 368.505,-934.085 420.208,-815.354 441.89,-755.849"/>
<text text-anchor="middle" x="236.303" y="-1035.6" font-family="Times New Roman,serif" font-size="8.00">OutParameter</text>
<text text-anchor="middle" x="433.89" y="-758.449" font-family="Times New Roman,serif" font-size="8.00">0...*</text>
<text text-anchor="middle" x="128.847" y="-1036.94" font-family="Times New Roman,serif" font-size="8.00">0...*</text>
</g>
<!-- QuestionItem -->
<g id="ItemTypeQuestionItem" class="node"><title></title><ellipse fill="#f7b733" stroke="black" cx="85.6514" cy="-990" rx="36.1063" ry="18" style="filter: url(#dropshadow)"/>
<text text-anchor="middle" x="85.6514" y="-988.1" font-family="Times New Roman,serif" font-size="8.00">QuestionItem</text>
</g>
<!-- QuestionItem&#45;&gt;ParameterType -->
<g id="edge8" class="edge"><title>QuestionItem&#45;&gt;ParameterType</title>
<path fill="none" stroke="black" d="M122.141,-990.467C163.842,-989.415 233.634,-982.512 283.303,-951 359.273,-902.8 412.875,-807.731 437.884,-755.848"/>
<text text-anchor="middle" x="236.303" y="-985.6" font-family="Times New Roman,serif" font-size="8.00">OutParameter</text>
<text text-anchor="middle" x="429.884" y="-749.448" font-family="Times New Roman,serif" font-size="8.00">0...*</text>
<text text-anchor="middle" x="130.141" y="-984.067" font-family="Times New Roman,serif" font-size="8.00">0...*</text>
</g>
<!-- Variable -->
<g id="ItemTypeVariable0" class="node"><title></title><ellipse fill="#f7b733" stroke="black" cx="85.6514" cy="-936" rx="27" ry="18" style="filter: url(#dropshadow)"/>
<text text-anchor="middle" x="85.6514" y="-934.1" font-family="Times New Roman,serif" font-size="8.00">Variable</text>
</g>
<!-- Variable&#45;&gt;ParameterType -->
<g id="edge9" class="edge"><title>Variable&#45;&gt;ParameterType</title>
<path fill="none" stroke="black" d="M112.549,-938.794C151.857,-941.83 227.862,-942.905 283.303,-914 352.485,-877.93 406.39,-801.27 433.824,-755.86"/>
<text text-anchor="middle" x="236.303" y="-940.6" font-family="Times New Roman,serif" font-size="8.00">OutParameter</text>
<text text-anchor="middle" x="425.824" y="-758.46" font-family="Times New Roman,serif" font-size="8.00">0...*</text>
<text text-anchor="middle" x="120.549" y="-932.394" font-family="Times New Roman,serif" font-size="8.00">0...*</text>
</g>
<!-- Variable&#45;&gt;ParameterType -->
<g id="edge10" class="edge"><title>Variable&#45;&gt;ParameterType</title>
<path fill="none" stroke="black" d="M110.606,-928.371C131.344,-921.861 162.185,-912.407 189.303,-905 230.793,-893.668 245.556,-902.617 283.303,-882 341.893,-849.999 395.191,-792.794 426.057,-755.633"/>
<text text-anchor="middle" x="236.303" y="-907.6" font-family="Times New Roman,serif" font-size="8.00">SourceParameterReference</text>
<text text-anchor="middle" x="418.057" y="-758.233" font-family="Times New Roman,serif" font-size="8.00">0...*</text>
<text text-anchor="middle" x="118.606" y="-921.971" font-family="Times New Roman,serif" font-size="8.00">0...*</text>
</g>
<!-- BindingType -->
<g id="ReusableTypeBindingType1" class="node"><title></title><ellipse fill="#f7b733" stroke="black" cx="85.6514" cy="-882" rx="35.3371" ry="18" style="filter: url(#dropshadow)"/>
<text text-anchor="middle" x="85.6514" y="-880.1" font-family="Times New Roman,serif" font-size="8.00">BindingType</text>
</g>
<!-- BindingType&#45;&gt;ParameterType -->
<g id="edge11" class="edge"><title>BindingType&#45;&gt;ParameterType</title>
<path fill="none" stroke="black" d="M120.394,-878.512C168.627,-873.187 254.628,-862.34 283.303,-850 335.446,-827.562 385.969,-785.725 418.299,-755.563"/>
<text text-anchor="middle" x="236.303" y="-871.6" font-family="Times New Roman,serif" font-size="8.00">SourceParameterReference</text>
<text text-anchor="middle" x="410.299" y="-749.163" font-family="Times New Roman,serif" font-size="8.00">0...*</text>
<text text-anchor="middle" x="128.394" y="-872.112" font-family="Times New Roman,serif" font-size="8.00">0...*</text>
</g>
<!-- BindingType&#45;&gt;ParameterType -->
<g id="edge12" class="edge"><title>BindingType&#45;&gt;ParameterType</title>
<path fill="none" stroke="black" d="M118.265,-874.762C134.647,-870.315 154.653,-863.772 171.303,-855 180.269,-850.276 180.36,-845.768 189.303,-841 228.122,-820.304 242.821,-827.217 283.303,-810 320.419,-794.215 360.37,-773.349 392.263,-755.684"/>
<text text-anchor="middle" x="236.303" y="-843.6" font-family="Times New Roman,serif" font-size="8.00">TargetParameterReference</text>
<text text-anchor="middle" x="384.263" y="-758.284" font-family="Times New Roman,serif" font-size="8.00">0...*</text>
<text text-anchor="middle" x="126.265" y="-877.362" font-family="Times New Roman,serif" font-size="8.00">0...*</text>
</g>
<!-- CategoryDomainType -->
<g id="ReusableTypeCategoryDomainType2" class="node"><title></title><ellipse fill="#f7b733" stroke="black" cx="85.6514" cy="-828" rx="53.7736" ry="18" style="filter: url(#dropshadow)"/>
<text text-anchor="middle" x="85.6514" y="-826.1" font-family="Times New Roman,serif" font-size="8.00">CategoryDomainType</text>
</g>
<!-- CategoryDomainType&#45;&gt;ParameterType -->
<g id="edge13" class="edge"><title>CategoryDomainType&#45;&gt;ParameterType</title>
<path fill="none" stroke="black" d="M126.98,-816.42C166.752,-804.973 229.257,-786.915 283.303,-771 300.197,-766.025 318.02,-760.737 335.522,-755.522"/>
<text text-anchor="middle" x="236.303" y="-799.6" font-family="Times New Roman,serif" font-size="8.00">OutParameter</text>
<text text-anchor="middle" x="327.522" y="-758.122" font-family="Times New Roman,serif" font-size="8.00">0...*</text>
<text text-anchor="middle" x="134.98" y="-810.02" font-family="Times New Roman,serif" font-size="8.00">0...*</text>
</g>
<!-- CodeDomainType -->
<g id="ReusableTypeCodeDomainType3" class="node"><title></title><ellipse fill="#f7b733" stroke="black" cx="85.6514" cy="-774" rx="45.2568" ry="18" style="filter: url(#dropshadow)"/>
<text text-anchor="middle" x="85.6514" y="-772.1" font-family="Times New Roman,serif" font-size="8.00">CodeDomainType</text>
</g>
<!-- CodeDomainType&#45;&gt;ParameterType -->
<g id="edge14" class="edge"><title>CodeDomainType&#45;&gt;ParameterType</title>
<path fill="none" stroke="black" d="M128.411,-767.858C170.606,-761.652 238.358,-751.687 301.143,-742.453"/>
<text text-anchor="middle" x="236.303" y="-760.6" font-family="Times New Roman,serif" font-size="8.00">OutParameter</text>
<text text-anchor="middle" x="293.143" y="-736.053" font-family="Times New Roman,serif" font-size="8.00">0...*</text>
<text text-anchor="middle" x="136.411" y="-761.458" font-family="Times New Roman,serif" font-size="8.00">0...*</text>
</g>
<!-- CommandFileType -->
<g id="ReusableTypeCommandFileType4" class="node"><title></title><ellipse fill="#f7b733" stroke="black" cx="85.6514" cy="-720" rx="47.16" ry="18" style="filter: url(#dropshadow)"/>
<text text-anchor="middle" x="85.6514" y="-718.1" font-family="Times New Roman,serif" font-size="8.00">CommandFileType</text>
</g>
<!-- CommandFileType&#45;&gt;ParameterType -->
<g id="edge15" class="edge"><title>CommandFileType&#45;&gt;ParameterType</title>
<path fill="none" stroke="black" d="M132.78,-720C175.151,-720 240.38,-720 301.001,-720"/>
<text text-anchor="middle" x="236.303" y="-722.6" font-family="Times New Roman,serif" font-size="8.00">OutParameter</text>
<text text-anchor="middle" x="293.001" y="-713.6" font-family="Times New Roman,serif" font-size="8.00">0...*</text>
<text text-anchor="middle" x="140.78" y="-713.6" font-family="Times New Roman,serif" font-size="8.00">0...*</text>
</g>
<!-- CommandType -->
<g id="ReusableTypeCommandType5" class="node"><title></title><ellipse fill="#f7b733" stroke="black" cx="85.6514" cy="-666" rx="40.0477" ry="18" style="filter: url(#dropshadow)"/>
<text text-anchor="middle" x="85.6514" y="-664.1" font-family="Times New Roman,serif" font-size="8.00">CommandType</text>
</g>
<!-- CommandType&#45;&gt;ParameterType -->
<g id="edge16" class="edge"><title>CommandType&#45;&gt;ParameterType</title>
<path fill="none" stroke="black" d="M124.218,-671.525C165.979,-677.667 236.11,-687.982 300.97,-697.522"/>
<text text-anchor="middle" x="236.303" y="-696.6" font-family="Times New Roman,serif" font-size="8.00">OutParameter</text>
<text text-anchor="middle" x="292.97" y="-691.122" font-family="Times New Roman,serif" font-size="8.00">0...*</text>
<text text-anchor="middle" x="132.218" y="-665.125" font-family="Times New Roman,serif" font-size="8.00">0...*</text>
</g>
<!-- ConditionalResultType -->
<g id="ReusableTypeConditionalResultType6" class="node"><title></title><ellipse fill="#f7b733" stroke="black" cx="85.6514" cy="-612" rx="55.0423" ry="18" style="filter: url(#dropshadow)"/>
<text text-anchor="middle" x="85.6514" y="-610.1" font-family="Times New Roman,serif" font-size="8.00">ConditionalResultType</text>
</g>
<!-- ConditionalResultType&#45;&gt;ParameterType -->
<g id="edge17" class="edge"><title>ConditionalResultType&#45;&gt;ParameterType</title>
<path fill="none" stroke="black" d="M128.15,-623.576C167.994,-634.747 229.846,-652.238 283.303,-668 301.113,-673.251 319.94,-678.897 338.33,-684.465"/>
<text text-anchor="middle" x="236.303" y="-670.6" font-family="Times New Roman,serif" font-size="8.00">SourceParameterReference</text>
<text text-anchor="middle" x="330.33" y="-678.065" font-family="Times New Roman,serif" font-size="8.00">0...*</text>
<text text-anchor="middle" x="136.15" y="-626.176" font-family="Times New Roman,serif" font-size="8.00">0...*</text>
</g>
<!-- ConditionalTextType -->
<g id="ReusableTypeConditionalTextType7" class="node"><title></title><ellipse fill="#f7b733" stroke="black" cx="85.6514" cy="-558" rx="52.5056" ry="18" style="filter: url(#dropshadow)"/>
<text text-anchor="middle" x="85.6514" y="-556.1" font-family="Times New Roman,serif" font-size="8.00">ConditionalTextType</text>
</g>
<!-- ConditionalTextType&#45;&gt;ParameterType -->
<g id="edge18" class="edge"><title>ConditionalTextType&#45;&gt;ParameterType</title>
<path fill="none" stroke="black" d="M125.579,-569.898C140.003,-574.442 156.457,-579.787 171.303,-585 221.612,-602.664 234.852,-605.739 283.303,-628 320.284,-644.992 360.397,-666.474 392.42,-684.406"/>
<text text-anchor="middle" x="236.303" y="-630.6" font-family="Times New Roman,serif" font-size="8.00">SourceParameterReference</text>
<text text-anchor="middle" x="384.42" y="-678.006" font-family="Times New Roman,serif" font-size="8.00">0...*</text>
<text text-anchor="middle" x="133.579" y="-572.498" font-family="Times New Roman,serif" font-size="8.00">0...*</text>
</g>
<!-- DateTimeDomainType -->
<g id="ReusableTypeDateTimeDomainType8" class="node"><title></title><ellipse fill="#f7b733" stroke="black" cx="85.6514" cy="-504" rx="55.6769" ry="18" style="filter: url(#dropshadow)"/>
<text text-anchor="middle" x="85.6514" y="-502.1" font-family="Times New Roman,serif" font-size="8.00">DateTimeDomainType</text>
</g>
<!-- DateTimeDomainType&#45;&gt;ParameterType -->
<g id="edge19" class="edge"><title>DateTimeDomainType&#45;&gt;ParameterType</title>
<path fill="none" stroke="black" d="M126.946,-516.052C141.067,-520.486 156.973,-525.72 171.303,-531 221.957,-549.665 237.165,-549.973 283.303,-578 333.676,-608.6 384.739,-653.345 417.674,-684.397"/>
<text text-anchor="middle" x="236.303" y="-580.6" font-family="Times New Roman,serif" font-size="8.00">OutParameter</text>
<text text-anchor="middle" x="409.674" y="-677.997" font-family="Times New Roman,serif" font-size="8.00">0...*</text>
<text text-anchor="middle" x="134.946" y="-518.652" font-family="Times New Roman,serif" font-size="8.00">0...*</text>
</g>
<!-- DistributionDomainType -->
<g id="ReusableTypeDistributionDomainType9" class="node"><title></title><ellipse fill="#f7b733" stroke="black" cx="85.6514" cy="-450" rx="58.9835" ry="18" style="filter: url(#dropshadow)"/>
<text text-anchor="middle" x="85.6514" y="-448.1" font-family="Times New Roman,serif" font-size="8.00">DistributionDomainType</text>
</g>
<!-- DistributionDomainType&#45;&gt;ParameterType -->
<g id="edge20" class="edge"><title>DistributionDomainType&#45;&gt;ParameterType</title>
<path fill="none" stroke="black" d="M134.162,-460.309C176.267,-471.12 237.93,-491.188 283.303,-524 345.797,-569.193 400.877,-641.462 430.564,-684.472"/>
<text text-anchor="middle" x="236.303" y="-526.6" font-family="Times New Roman,serif" font-size="8.00">OutParameter</text>
<text text-anchor="middle" x="438.564" y="-678.072" font-family="Times New Roman,serif" font-size="8.00">0...*</text>
<text text-anchor="middle" x="142.162" y="-462.909" font-family="Times New Roman,serif" font-size="8.00">0...*</text>
</g>
<!-- GeographicLocationCodeDomainType -->
<g id="ReusableTypeGeographicLocationCodeDomainType0" class="node"><title></title><ellipse fill="#f7b733" stroke="black" cx="85.6514" cy="-396" rx="85.8032" ry="18" style="filter: url(#dropshadow)"/>
<text text-anchor="middle" x="85.6514" y="-394.1" font-family="Times New Roman,serif" font-size="8.00">GeographicLocationCodeDomainType</text>
</g>
<!-- GeographicLocationCodeDomainType&#45;&gt;ParameterType -->
<g id="edge21" class="edge"><title>GeographicLocationCodeDomainType&#45;&gt;ParameterType</title>
<path fill="none" stroke="black" d="M152.617,-407.314C193.564,-416.952 245.415,-434.163 283.303,-464 360.076,-524.46 414.213,-629.297 438.846,-684.171"/>
<text text-anchor="middle" x="236.303" y="-466.6" font-family="Times New Roman,serif" font-size="8.00">OutParameter</text>
<text text-anchor="middle" x="446.846" y="-677.771" font-family="Times New Roman,serif" font-size="8.00">0...*</text>
<text text-anchor="middle" x="144.617" y="-409.914" font-family="Times New Roman,serif" font-size="8.00">0...*</text>
</g>
<!-- GeographicStructureCodeDomainType -->
<g id="ReusableTypeGeographicStructureCodeDomainType1" class="node"><title></title><ellipse fill="#f7b733" stroke="black" cx="85.6514" cy="-342" rx="85.1685" ry="18" style="filter: url(#dropshadow)"/>
<text text-anchor="middle" x="85.6514" y="-340.1" font-family="Times New Roman,serif" font-size="8.00">GeographicStructureCodeDomainType</text>
</g>
<!-- GeographicStructureCodeDomainType&#45;&gt;ParameterType -->
<g id="edge22" class="edge"><title>GeographicStructureCodeDomainType&#45;&gt;ParameterType</title>
<path fill="none" stroke="black" d="M158.496,-351.518C198.832,-359.94 247.995,-375.69 283.303,-405 374.81,-480.962 424.751,-619.232 444.16,-684.318"/>
<text text-anchor="middle" x="236.303" y="-407.6" font-family="Times New Roman,serif" font-size="8.00">OutParameter</text>
<text text-anchor="middle" x="436.16" y="-686.918" font-family="Times New Roman,serif" font-size="8.00">0...*</text>
<text text-anchor="middle" x="166.496" y="-345.118" font-family="Times New Roman,serif" font-size="8.00">0...*</text>
</g>
<!-- LocationDomainType -->
<g id="ReusableTypeLocationDomainType2" class="node"><title></title><ellipse fill="#f7b733" stroke="black" cx="85.6514" cy="-288" rx="53.7736" ry="18" style="filter: url(#dropshadow)"/>
<text text-anchor="middle" x="85.6514" y="-286.1" font-family="Times New Roman,serif" font-size="8.00">LocationDomainType</text>
</g>
<!-- LocationDomainType&#45;&gt;ParameterType -->
<g id="edge23" class="edge"><title>LocationDomainType&#45;&gt;ParameterType</title>
<path fill="none" stroke="black" d="M138.712,-291.846C182.002,-297.562 242.858,-311.758 283.303,-347 389.055,-439.148 433.015,-610.357 447.66,-684.379"/>
<text text-anchor="middle" x="236.303" y="-349.6" font-family="Times New Roman,serif" font-size="8.00">OutParameter</text>
<text text-anchor="middle" x="455.66" y="-677.979" font-family="Times New Roman,serif" font-size="8.00">0...*</text>
<text text-anchor="middle" x="146.712" y="-285.446" font-family="Times New Roman,serif" font-size="8.00">0...*</text>
</g>
<!-- NominalDomainType -->
<g id="ReusableTypeNominalDomainType3" class="node"><title></title><ellipse fill="#f7b733" stroke="black" cx="85.6514" cy="-234" rx="52.5056" ry="18" style="filter: url(#dropshadow)"/>
<text text-anchor="middle" x="85.6514" y="-232.1" font-family="Times New Roman,serif" font-size="8.00">NominalDomainType</text>
</g>
<!-- NominalDomainType&#45;&gt;ParameterType -->
<g id="edge24" class="edge"><title>NominalDomainType&#45;&gt;ParameterType</title>
<path fill="none" stroke="black" d="M138.249,-235.738C181.841,-239.838 243.385,-252.173 283.303,-288 404.215,-396.52 440.417,-601.848 450.351,-684.354"/>
<text text-anchor="middle" x="236.303" y="-290.6" font-family="Times New Roman,serif" font-size="8.00">OutParameter</text>
<text text-anchor="middle" x="458.351" y="-686.954" font-family="Times New Roman,serif" font-size="8.00">0...*</text>
<text text-anchor="middle" x="146.249" y="-229.338" font-family="Times New Roman,serif" font-size="8.00">0...*</text>
</g>
<!-- NumericDomainType -->
<g id="ReusableTypeNumericDomainType4" class="node"><title></title><ellipse fill="#f7b733" stroke="black" cx="85.6514" cy="-180" rx="52.3706" ry="18" style="filter: url(#dropshadow)"/>
<text text-anchor="middle" x="85.6514" y="-178.1" font-family="Times New Roman,serif" font-size="8.00">NumericDomainType</text>
</g>
<!-- NumericDomainType&#45;&gt;ParameterType -->
<g id="edge25" class="edge"><title>NumericDomainType&#45;&gt;ParameterType</title>
<path fill="none" stroke="black" d="M138.127,-180.426C181.942,-183.504 243.877,-194.672 283.303,-231 418.847,-355.895 446.642,-594.334 452.337,-684.381"/>
<text text-anchor="middle" x="236.303" y="-233.6" font-family="Times New Roman,serif" font-size="8.00">OutParameter</text>
<text text-anchor="middle" x="460.337" y="-677.981" font-family="Times New Roman,serif" font-size="8.00">0...*</text>
<text text-anchor="middle" x="146.127" y="-174.026" font-family="Times New Roman,serif" font-size="8.00">0...*</text>
</g>
<!-- RankingDomainType -->
<g id="ReusableTypeRankingDomainType5" class="node"><title></title><ellipse fill="#f7b733" stroke="black" cx="85.6514" cy="-126" rx="52.3706" ry="18" style="filter: url(#dropshadow)"/>
<text text-anchor="middle" x="85.6514" y="-124.1" font-family="Times New Roman,serif" font-size="8.00">RankingDomainType</text>
</g>
<!-- RankingDomainType&#45;&gt;ParameterType -->
<g id="edge26" class="edge"><title>RankingDomainType&#45;&gt;ParameterType</title>
<path fill="none" stroke="black" d="M137.93,-125.208C181.922,-127.309 244.227,-137.321 283.303,-174 433.726,-315.195 452.292,-586.803 453.946,-684.171"/>
<text text-anchor="middle" x="236.303" y="-176.6" font-family="Times New Roman,serif" font-size="8.00">OutParameter</text>
<text text-anchor="middle" x="461.946" y="-686.771" font-family="Times New Roman,serif" font-size="8.00">0...*</text>
<text text-anchor="middle" x="145.93" y="-118.808" font-family="Times New Roman,serif" font-size="8.00">0...*</text>
</g>
<!-- ScaleDomainType -->
<g id="ReusableTypeScaleDomainType6" class="node"><title></title><ellipse fill="#f7b733" stroke="black" cx="85.6514" cy="-72" rx="45.2568" ry="18" style="filter: url(#dropshadow)"/>
<text text-anchor="middle" x="85.6514" y="-70.1" font-family="Times New Roman,serif" font-size="8.00">ScaleDomainType</text>
</g>
<!-- ScaleDomainType&#45;&gt;ParameterType -->
<g id="edge27" class="edge"><title>ScaleDomainType&#45;&gt;ParameterType</title>
<path fill="none" stroke="black" d="M130.928,-70.1971C175.221,-70.8727 242.475,-79.0162 283.303,-118 367.66,-198.547 430.469,-567.584 448.52,-684.42"/>
<text text-anchor="middle" x="236.303" y="-120.6" font-family="Times New Roman,serif" font-size="8.00">OutParameter</text>
<text text-anchor="middle" x="440.52" y="-678.02" font-family="Times New Roman,serif" font-size="8.00">0...*</text>
<text text-anchor="middle" x="138.928" y="-63.7971" font-family="Times New Roman,serif" font-size="8.00">0...*</text>
</g>
<!-- TextDomainType -->
<g id="ReusableTypeTextDomainType7" class="node"><title></title><ellipse fill="#f7b733" stroke="black" cx="85.6514" cy="-18" rx="45.2568" ry="18" style="filter: url(#dropshadow)"/>
<text text-anchor="middle" x="85.6514" y="-16.1" font-family="Times New Roman,serif" font-size="8.00">TextDomainType</text>
</g>
<!-- TextDomainType&#45;&gt;ParameterType -->
<g id="edge28" class="edge"><title>TextDomainType&#45;&gt;ParameterType</title>
<path fill="none" stroke="black" d="M130.655,-15.5035C175.054,-15.4898 242.689,-22.7211 283.303,-62 375.129,-150.807 433.584,-560.016 449.436,-684.181"/>
<text text-anchor="middle" x="236.303" y="-64.6" font-family="Times New Roman,serif" font-size="8.00">OutParameter</text>
<text text-anchor="middle" x="441.436" y="-686.781" font-family="Times New Roman,serif" font-size="8.00">0...*</text>
<text text-anchor="middle" x="138.655" y="-18.1035" font-family="Times New Roman,serif" font-size="8.00">0...*</text>
</g>
</g>
</svg>
