<?xml version="1.0" encoding="UTF-8" standalone="no"?>
<!DOCTYPE svg PUBLIC "-//W3C//DTD SVG 1.1//EN"
 "http://www.w3.org/Graphics/SVG/1.1/DTD/svg11.dtd">
<!-- Generated by graphviz version 2.38.0 (20140413.2041)
 -->
<!-- Title: G Pages: 1 -->
<svg width="590pt" height="149pt"
 viewBox="0.00 0.00 590.23 148.84" xmlns="http://www.w3.org/2000/svg" xmlns:xlink="http://www.w3.org/1999/xlink">
<filter id = "dropshadow" height = "130%" ><feGaussianBlur in= "SourceAlpha" stdDeviation = "3"/><!--stdDeviation is how much to blur--><feOffset dx = "2" dy = "2" result = "offsetblur"/><!--how much to offset--><feMerge><feMergeNode/><!--this contains the offset blurred image--><feMergeNode in= "SourceGraphic"/><!--this contains the element that the filter is applied to --></feMerge></filter>
<g id="graph0" class="graph" transform="scale(1 1) rotate(0) translate(4 144.843)">
<title>G</title>
<!-- TextDomainType -->
<g id="ReusableTypeTextDomainType" class="node"><title></title><polygon fill="#f7b733" stroke="black" points="295.227,-44.3428 295.227,-97.3428 582.227,-97.3428 582.227,-44.3428 295.227,-44.3428" style="filter: url(#dropshadow)"/>
<text text-anchor="middle" x="335.227" y="-68.9428" font-family="Times New Roman,serif" font-size="8.00">TextDomainType</text>
<polyline fill="none" stroke="black" points="375.227,-44.3428 375.227,-97.3428 "/>
<text text-anchor="start" x="383.227" y="-86.9428" font-family="Times New Roman,serif" font-size="8.00">Label : LabelType[0...n] </text>
<text text-anchor="start" x="383.227" y="-77.9428" font-family="Times New Roman,serif" font-size="8.00">Description : StructuredStringType[0...1] </text>
<text text-anchor="start" x="383.227" y="-68.9428" font-family="Times New Roman,serif" font-size="8.00">OutParameter : ParameterType[0...1] </text>
<text text-anchor="start" x="383.227" y="-59.9428" font-family="Times New Roman,serif" font-size="8.00">ResponseCardinality : ResponseCardinalityType[0...1] </text>
<text text-anchor="start" x="383.227" y="-50.9428" font-family="Times New Roman,serif" font-size="8.00">ContentDateOffset : ContentDateOffsetType[0...1] </text>
</g>
<!-- ManagedGeographicRepresentation -->
<g id="ItemTypeManagedGeographicRepresentation" class="node"><title></title><ellipse fill="#f7b733" stroke="black" cx="81.1136" cy="-118.843" rx="78.6897" ry="18" style="filter: url(#dropshadow)"/>
<text text-anchor="middle" x="81.1136" y="-116.943" font-family="Times New Roman,serif" font-size="8.00">ManagedGeographicRepresentation</text>
</g>
<!-- ManagedGeographicRepresentation&#45;&gt;TextDomainType -->
<g id="edge1" class="edge"><title>ManagedGeographicRepresentation&#45;&gt;TextDomainType</title>
<path fill="none" stroke="black" d="M151.99,-126.842C161.469,-127.67 171.079,-128.378 180.227,-128.843 223.283,-131.031 234.763,-136.28 277.227,-128.843 312.248,-122.709 349.703,-109.582 379.615,-97.3647"/>
<text text-anchor="middle" x="228.727" y="-134.443" font-family="Times New Roman,serif" font-size="8.00">AlternateOffset</text>
</g>
<!-- ManagedGeographicRepresentation&#45;&gt;TextDomainType -->
<g id="edge2" class="edge"><title>ManagedGeographicRepresentation&#45;&gt;TextDomainType</title>
<path fill="none" stroke="black" d="M153.574,-111.622C190.54,-107.675 236.363,-102.453 277.227,-96.8428 283.1,-96.0365 289.089,-95.1875 295.136,-94.3083"/>
<text text-anchor="middle" x="228.727" y="-110.443" font-family="Times New Roman,serif" font-size="8.00">AlternateObject</text>
</g>
<!-- ManagedGeographicRepresentation&#45;&gt;TextDomainType -->
<g id="edge3" class="edge"><title>ManagedGeographicRepresentation&#45;&gt;TextDomainType</title>
<path fill="none" stroke="black" d="M123.084,-103.478C140.464,-97.5976 161.092,-91.4432 180.227,-87.8428 217.102,-80.9046 257.409,-76.6867 294.956,-74.1516"/>
<text text-anchor="middle" x="228.727" y="-90.4428" font-family="Times New Roman,serif" font-size="8.00">AlternateCoordinateSystem</text>
</g>
<!-- GeographicRepresentationBaseType -->
<g id="ReusableTypeGeographicRepresentationBaseType" class="node"><title></title><ellipse fill="#f7b733" stroke="black" cx="81.1136" cy="-22.8428" rx="81.2274" ry="18" style="filter: url(#dropshadow)"/>
<text text-anchor="middle" x="81.1136" y="-20.9428" font-family="Times New Roman,serif" font-size="8.00">GeographicRepresentationBaseType</text>
</g>
<!-- GeographicRepresentationBaseType&#45;&gt;TextDomainType -->
<g id="edge4" class="edge"><title>GeographicRepresentationBaseType&#45;&gt;TextDomainType</title>
<path fill="none" stroke="black" d="M151.101,-32.1546C192.002,-37.6753 245.386,-44.8809 294.98,-51.575"/>
<text text-anchor="middle" x="228.727" y="-50.4428" font-family="Times New Roman,serif" font-size="8.00">AlternateOffset</text>
</g>
<!-- GeographicRepresentationBaseType&#45;&gt;TextDomainType -->
<g id="edge5" class="edge"><title>GeographicRepresentationBaseType&#45;&gt;TextDomainType</title>
<path fill="none" stroke="black" d="M159.871,-18.285C195.769,-17.4474 238.848,-18.2385 277.227,-23.8428 305.814,-28.017 336.425,-36.0465 363.168,-44.3039"/>
<text text-anchor="middle" x="228.727" y="-26.4428" font-family="Times New Roman,serif" font-size="8.00">AlternateObject</text>
</g>
<!-- GeographicRepresentationBaseType&#45;&gt;TextDomainType -->
<g id="edge6" class="edge"><title>GeographicRepresentationBaseType&#45;&gt;TextDomainType</title>
<path fill="none" stroke="black" d="M136.372,-9.58066C175.761,-1.95025 230.172,4.45448 277.227,-4.84275 315.799,-12.4639 356.754,-29.4658 387.638,-44.3042"/>
<text text-anchor="middle" x="228.727" y="-7.44275" font-family="Times New Roman,serif" font-size="8.00">AlternateCoordinateSystem</text>
</g>
</g>
</svg>
