<?xml version="1.0" encoding="UTF-8" standalone="no"?>
<!DOCTYPE svg PUBLIC "-//W3C//DTD SVG 1.1//EN"
 "http://www.w3.org/Graphics/SVG/1.1/DTD/svg11.dtd">
<!-- Generated by graphviz version 2.38.0 (20140413.2041)
 -->
<!-- Title: G Pages: 1 -->
<svg width="746pt" height="2150pt"
 viewBox="0.00 0.00 746.49 2150.00" xmlns="http://www.w3.org/2000/svg" xmlns:xlink="http://www.w3.org/1999/xlink">
<filter id = "dropshadow" height = "130%" ><feGaussianBlur in= "SourceAlpha" stdDeviation = "3"/><!--stdDeviation is how much to blur--><feOffset dx = "2" dy = "2" result = "offsetblur"/><!--how much to offset--><feMerge><feMergeNode/><!--this contains the offset blurred image--><feMergeNode in= "SourceGraphic"/><!--this contains the element that the filter is applied to --></feMerge></filter>
<g id="graph0" class="graph" transform="scale(1 1) rotate(0) translate(4 2146)">
<title>G</title>
<!-- Universe -->
<g id="ItemTypeUniverse" class="node"><title></title><polygon fill="#f7b733" stroke="black" points="270.269,-986 270.269,-1102 522.269,-1102 522.269,-986 270.269,-986" style="filter: url(#dropshadow)"/>
<text text-anchor="middle" x="293.769" y="-1042.1" font-family="Times New Roman,serif" font-size="8.00">Universe</text>
<polyline fill="none" stroke="black" points="317.269,-986 317.269,-1102 "/>
<text text-anchor="start" x="325.269" y="-1091.6" font-family="Times New Roman,serif" font-size="8.00">UniverseName : NameType[0...n] </text>
<text text-anchor="start" x="325.269" y="-1082.6" font-family="Times New Roman,serif" font-size="8.00">Label : LabelType[0...n] </text>
<text text-anchor="start" x="325.269" y="-1073.6" font-family="Times New Roman,serif" font-size="8.00">Description : StructuredStringType[0...1] </text>
<text text-anchor="start" x="325.269" y="-1064.6" font-family="Times New Roman,serif" font-size="8.00">DefiningConceptReference : Concept[0...1] </text>
<text text-anchor="start" x="325.269" y="-1055.6" font-family="Times New Roman,serif" font-size="8.00">UnitTypeReference : UnitType[0...1] </text>
<text text-anchor="start" x="325.269" y="-1046.6" font-family="Times New Roman,serif" font-size="8.00">TypeOfUnit : CodeValueType[0...1] </text>
<text text-anchor="start" x="325.269" y="-1037.6" font-family="Times New Roman,serif" font-size="8.00">LocationValueReference : LocationValueType[0...n] </text>
<text text-anchor="start" x="325.269" y="-1028.6" font-family="Times New Roman,serif" font-size="8.00">GeographyOfUniverse : StructuredStringType[0...1] </text>
<text text-anchor="start" x="325.269" y="-1019.6" font-family="Times New Roman,serif" font-size="8.00">TimePeriod : DateType[0...n] </text>
<text text-anchor="start" x="325.269" y="-1010.6" font-family="Times New Roman,serif" font-size="8.00">UniverseGenerationCode : CommandCodeType[0...n] </text>
<text text-anchor="start" x="325.269" y="-1001.6" font-family="Times New Roman,serif" font-size="8.00">SubUniverseClassReference : SubUniverseClass[0...n] </text>
<text text-anchor="start" x="325.269" y="-992.6" font-family="Times New Roman,serif" font-size="8.00">IsInclusive : boolean[0...1] </text>
</g>
<!-- Concept -->
<g id="ItemTypeConcept" class="node"><title></title><ellipse fill="#f7b733" stroke="black" cx="695.379" cy="-1114" rx="27" ry="18" style="filter: url(#dropshadow)"/>
<text text-anchor="middle" x="695.379" y="-1112.1" font-family="Times New Roman,serif" font-size="8.00">Concept</text>
</g>
<!-- Universe&#45;&gt;Concept -->
<g id="edge1" class="edge"><title>Universe&#45;&gt;Concept</title>
<path fill="none" stroke="black" d="M522.409,-1073.48C577.598,-1086.49 637.21,-1100.53 669.737,-1108.19"/>
<text text-anchor="middle" x="587.269" y="-1100.6" font-family="Times New Roman,serif" font-size="8.00">DefiningConceptReference</text>
<text text-anchor="middle" x="661.737" y="-1101.79" font-family="Times New Roman,serif" font-size="8.00">0...*</text>
<text text-anchor="middle" x="530.409" y="-1067.08" font-family="Times New Roman,serif" font-size="8.00">0...*</text>
</g>
<!-- UnitType -->
<g id="ItemTypeUnitType" class="node"><title></title><ellipse fill="#f7b733" stroke="black" cx="695.379" cy="-1060" rx="28.8574" ry="18" style="filter: url(#dropshadow)"/>
<text text-anchor="middle" x="695.379" y="-1058.1" font-family="Times New Roman,serif" font-size="8.00">UnitType</text>
</g>
<!-- Universe&#45;&gt;UnitType -->
<g id="edge2" class="edge"><title>Universe&#45;&gt;UnitType</title>
<path fill="none" stroke="black" d="M522.409,-1050.74C575.695,-1053.61 633.104,-1056.7 666.277,-1058.49"/>
<text text-anchor="middle" x="587.269" y="-1058.6" font-family="Times New Roman,serif" font-size="8.00">UnitTypeReference</text>
<text text-anchor="middle" x="658.277" y="-1052.09" font-family="Times New Roman,serif" font-size="8.00">0...*</text>
<text text-anchor="middle" x="530.409" y="-1044.34" font-family="Times New Roman,serif" font-size="8.00">0...*</text>
</g>
<!-- SubUniverseClass -->
<g id="ItemTypeSubUniverseClass" class="node"><title></title><ellipse fill="#f7b733" stroke="black" cx="695.379" cy="-1001" rx="43.219" ry="18" style="filter: url(#dropshadow)"/>
<text text-anchor="middle" x="695.379" y="-999.1" font-family="Times New Roman,serif" font-size="8.00">SubUniverseClass</text>
</g>
<!-- Universe&#45;&gt;SubUniverseClass -->
<g id="edge3" class="edge"><title>Universe&#45;&gt;SubUniverseClass</title>
<path fill="none" stroke="black" d="M522.409,-1025.89C569.828,-1019.03 620.511,-1011.69 654.474,-1006.78"/>
<text text-anchor="middle" x="587.269" y="-1024.6" font-family="Times New Roman,serif" font-size="8.00">SubUniverseClassReference</text>
<text text-anchor="middle" x="646.474" y="-1000.38" font-family="Times New Roman,serif" font-size="8.00">0...*</text>
<text text-anchor="middle" x="530.409" y="-1019.49" font-family="Times New Roman,serif" font-size="8.00">0...*</text>
</g>
<!-- SubUniverseClass&#45;&gt;Universe -->
<g id="edge36" class="edge"><title>SubUniverseClass&#45;&gt;Universe</title>
<path fill="none" stroke="black" d="M652.683,-997.866C646.512,-997.506 640.227,-997.198 634.269,-997 592.514,-995.612 581.521,-990.395 540.269,-997 534.463,-997.93 528.573,-999.059 522.659,-1000.35"/>
<text text-anchor="middle" x="587.269" y="-999.6" font-family="Times New Roman,serif" font-size="8.00">UniverseReference</text>
<text text-anchor="middle" x="530.659" y="-993.946" font-family="Times New Roman,serif" font-size="8.00">0...*</text>
<text text-anchor="middle" x="644.683" y="-991.466" font-family="Times New Roman,serif" font-size="8.00">0...*</text>
</g>
<!-- CategoryGroup -->
<g id="ItemTypeCategoryGroup" class="node"><title></title><ellipse fill="#f7b733" stroke="black" cx="68.6346" cy="-2124" rx="39.278" ry="18" style="filter: url(#dropshadow)"/>
<text text-anchor="middle" x="68.6346" y="-2122.1" font-family="Times New Roman,serif" font-size="8.00">CategoryGroup</text>
</g>
<!-- CategoryGroup&#45;&gt;Universe -->
<g id="edge4" class="edge"><title>CategoryGroup&#45;&gt;Universe</title>
<path fill="none" stroke="black" d="M107.589,-2126.85C149.45,-2127.72 215.709,-2121.97 252.269,-2082 384.709,-1937.2 395.484,-1299.21 395.598,-1102.17"/>
<text text-anchor="middle" x="203.769" y="-2126.6" font-family="Times New Roman,serif" font-size="8.00">UniverseReference</text>
<text text-anchor="middle" x="403.598" y="-1104.77" font-family="Times New Roman,serif" font-size="8.00">0...*</text>
<text text-anchor="middle" x="115.589" y="-2120.45" font-family="Times New Roman,serif" font-size="8.00">0...*</text>
</g>
<!-- CodeListGroup -->
<g id="ItemTypeCodeListGroup" class="node"><title></title><ellipse fill="#f7b733" stroke="black" cx="68.6346" cy="-2070" rx="38.6432" ry="18" style="filter: url(#dropshadow)"/>
<text text-anchor="middle" x="68.6346" y="-2068.1" font-family="Times New Roman,serif" font-size="8.00">CodeListGroup</text>
</g>
<!-- CodeListGroup&#45;&gt;Universe -->
<g id="edge5" class="edge"><title>CodeListGroup&#45;&gt;Universe</title>
<path fill="none" stroke="black" d="M106.784,-2072.78C148.55,-2073.69 215.341,-2068.08 252.269,-2028 377.801,-1891.77 393.358,-1292.33 395.108,-1102.13"/>
<text text-anchor="middle" x="203.769" y="-2071.6" font-family="Times New Roman,serif" font-size="8.00">UniverseReference</text>
<text text-anchor="middle" x="387.108" y="-1104.73" font-family="Times New Roman,serif" font-size="8.00">0...*</text>
<text text-anchor="middle" x="114.784" y="-2066.38" font-family="Times New Roman,serif" font-size="8.00">0...*</text>
</g>
<!-- ConceptGroup -->
<g id="ItemTypeConceptGroup" class="node"><title></title><ellipse fill="#f7b733" stroke="black" cx="68.6346" cy="-2016" rx="38.0086" ry="18" style="filter: url(#dropshadow)"/>
<text text-anchor="middle" x="68.6346" y="-2014.1" font-family="Times New Roman,serif" font-size="8.00">ConceptGroup</text>
</g>
<!-- ConceptGroup&#45;&gt;Universe -->
<g id="edge6" class="edge"><title>ConceptGroup&#45;&gt;Universe</title>
<path fill="none" stroke="black" d="M106.352,-2018.72C148.037,-2019.62 215.065,-2014.04 252.269,-1974 370.895,-1846.32 391.117,-1285.4 394.562,-1102.14"/>
<text text-anchor="middle" x="203.769" y="-2017.6" font-family="Times New Roman,serif" font-size="8.00">GroupingUniverseReference</text>
<text text-anchor="middle" x="402.562" y="-1104.74" font-family="Times New Roman,serif" font-size="8.00">0...*</text>
<text text-anchor="middle" x="114.352" y="-2012.32" font-family="Times New Roman,serif" font-size="8.00">0...*</text>
</g>
<!-- ConceptualVariableGroup -->
<g id="ItemTypeConceptualVariableGroup" class="node"><title></title><ellipse fill="#f7b733" stroke="black" cx="68.6346" cy="-1962" rx="58.9835" ry="18" style="filter: url(#dropshadow)"/>
<text text-anchor="middle" x="68.6346" y="-1960.1" font-family="Times New Roman,serif" font-size="8.00">ConceptualVariableGroup</text>
</g>
<!-- ConceptualVariableGroup&#45;&gt;Universe -->
<g id="edge7" class="edge"><title>ConceptualVariableGroup&#45;&gt;Universe</title>
<path fill="none" stroke="black" d="M127.229,-1964.48C167.931,-1962.94 220.667,-1953.7 252.269,-1920 364.002,-1800.85 388.745,-1278.29 393.95,-1102.18"/>
<text text-anchor="middle" x="203.769" y="-1963.6" font-family="Times New Roman,serif" font-size="8.00">UniverseReference</text>
<text text-anchor="middle" x="385.95" y="-1104.78" font-family="Times New Roman,serif" font-size="8.00">0...*</text>
<text text-anchor="middle" x="135.229" y="-1958.08" font-family="Times New Roman,serif" font-size="8.00">0...*</text>
</g>
<!-- ControlConstructGroup -->
<g id="ItemTypeControlConstructGroup" class="node"><title></title><ellipse fill="#f7b733" stroke="black" cx="68.6346" cy="-1908" rx="55.6769" ry="18" style="filter: url(#dropshadow)"/>
<text text-anchor="middle" x="68.6346" y="-1906.1" font-family="Times New Roman,serif" font-size="8.00">ControlConstructGroup</text>
</g>
<!-- ControlConstructGroup&#45;&gt;Universe -->
<g id="edge8" class="edge"><title>ControlConstructGroup&#45;&gt;Universe</title>
<path fill="none" stroke="black" d="M124.168,-1910.16C165.203,-1908.66 219.755,-1899.48 252.269,-1865 356.734,-1754.21 386.088,-1270.52 393.223,-1102.09"/>
<text text-anchor="middle" x="203.769" y="-1909.6" font-family="Times New Roman,serif" font-size="8.00">UniverseReference</text>
<text text-anchor="middle" x="385.223" y="-1095.69" font-family="Times New Roman,serif" font-size="8.00">0...*</text>
<text text-anchor="middle" x="132.168" y="-1903.76" font-family="Times New Roman,serif" font-size="8.00">0...*</text>
</g>
<!-- DevelopmentActivityGroup -->
<g id="ItemTypeDevelopmentActivityGroup0" class="node"><title></title><ellipse fill="#f7b733" stroke="black" cx="68.6346" cy="-1854" rx="64.8284" ry="18" style="filter: url(#dropshadow)"/>
<text text-anchor="middle" x="68.6346" y="-1852.1" font-family="Times New Roman,serif" font-size="8.00">DevelopmentActivityGroup</text>
</g>
<!-- DevelopmentActivityGroup&#45;&gt;Universe -->
<g id="edge9" class="edge"><title>DevelopmentActivityGroup&#45;&gt;Universe</title>
<path fill="none" stroke="black" d="M133.123,-1855.59C172.783,-1853.03 221.912,-1842.82 252.269,-1811 349.868,-1708.71 383.381,-1263.24 392.428,-1102.29"/>
<text text-anchor="middle" x="203.769" y="-1854.6" font-family="Times New Roman,serif" font-size="8.00">UniverseReference</text>
<text text-anchor="middle" x="384.428" y="-1104.89" font-family="Times New Roman,serif" font-size="8.00">0...*</text>
<text text-anchor="middle" x="141.123" y="-1849.19" font-family="Times New Roman,serif" font-size="8.00">0...*</text>
</g>
<!-- GeographicLocationGroup -->
<g id="ItemTypeGeographicLocationGroup1" class="node"><title></title><ellipse fill="#f7b733" stroke="black" cx="68.6346" cy="-1800" rx="61.0222" ry="18" style="filter: url(#dropshadow)"/>
<text text-anchor="middle" x="68.6346" y="-1798.1" font-family="Times New Roman,serif" font-size="8.00">GeographicLocationGroup</text>
</g>
<!-- GeographicLocationGroup&#45;&gt;Universe -->
<g id="edge10" class="edge"><title>GeographicLocationGroup&#45;&gt;Universe</title>
<path fill="none" stroke="black" d="M129.918,-1801.63C170.019,-1799.35 220.903,-1789.43 252.269,-1757 343.115,-1663.08 380.543,-1254.87 391.543,-1102.04"/>
<text text-anchor="middle" x="203.769" y="-1800.6" font-family="Times New Roman,serif" font-size="8.00">UniverseReference</text>
<text text-anchor="middle" x="383.543" y="-1095.64" font-family="Times New Roman,serif" font-size="8.00">0...*</text>
<text text-anchor="middle" x="137.918" y="-1795.23" font-family="Times New Roman,serif" font-size="8.00">0...*</text>
</g>
<!-- GeographicStructureGroup -->
<g id="ItemTypeGeographicStructureGroup2" class="node"><title></title><ellipse fill="#f7b733" stroke="black" cx="68.6346" cy="-1746" rx="60.8874" ry="18" style="filter: url(#dropshadow)"/>
<text text-anchor="middle" x="68.6346" y="-1744.1" font-family="Times New Roman,serif" font-size="8.00">GeographicStructureGroup</text>
</g>
<!-- GeographicStructureGroup&#45;&gt;Universe -->
<g id="edge11" class="edge"><title>GeographicStructureGroup&#45;&gt;Universe</title>
<path fill="none" stroke="black" d="M129.348,-1747.14C169.455,-1744.6 220.574,-1734.41 252.269,-1702 335.992,-1616.38 377.296,-1246.37 390.455,-1102"/>
<text text-anchor="middle" x="203.769" y="-1746.6" font-family="Times New Roman,serif" font-size="8.00">UniverseReference</text>
<text text-anchor="middle" x="382.455" y="-1104.6" font-family="Times New Roman,serif" font-size="8.00">0...*</text>
<text text-anchor="middle" x="137.348" y="-1740.74" font-family="Times New Roman,serif" font-size="8.00">0...*</text>
</g>
<!-- Group -->
<g id="ItemTypeGroup3" class="node"><title></title><ellipse fill="#f7b733" stroke="black" cx="68.6346" cy="-1692" rx="27" ry="18" style="filter: url(#dropshadow)"/>
<text text-anchor="middle" x="68.6346" y="-1690.1" font-family="Times New Roman,serif" font-size="8.00">Group</text>
</g>
<!-- Group&#45;&gt;Universe -->
<g id="edge12" class="edge"><title>Group&#45;&gt;Universe</title>
<path fill="none" stroke="black" d="M95.7788,-1693.47C135.36,-1694.17 210.312,-1689.32 252.269,-1647 328.914,-1569.68 373.745,-1237.77 389.163,-1102.11"/>
<text text-anchor="middle" x="203.769" y="-1691.6" font-family="Times New Roman,serif" font-size="8.00">UniverseReference</text>
<text text-anchor="middle" x="381.163" y="-1095.71" font-family="Times New Roman,serif" font-size="8.00">0...*</text>
<text text-anchor="middle" x="103.779" y="-1687.07" font-family="Times New Roman,serif" font-size="8.00">0...*</text>
</g>
<!-- InstructionGroup -->
<g id="ItemTypeInstructionGroup4" class="node"><title></title><ellipse fill="#f7b733" stroke="black" cx="68.6346" cy="-1638" rx="43.219" ry="18" style="filter: url(#dropshadow)"/>
<text text-anchor="middle" x="68.6346" y="-1636.1" font-family="Times New Roman,serif" font-size="8.00">InstructionGroup</text>
</g>
<!-- InstructionGroup&#45;&gt;Universe -->
<g id="edge13" class="edge"><title>InstructionGroup&#45;&gt;Universe</title>
<path fill="none" stroke="black" d="M111.748,-1638.99C153.065,-1637.6 215.119,-1628.84 252.269,-1592 321.916,-1522.94 369.856,-1228.72 387.625,-1102.21"/>
<text text-anchor="middle" x="203.769" y="-1636.6" font-family="Times New Roman,serif" font-size="8.00">UniverseReference</text>
<text text-anchor="middle" x="379.625" y="-1104.81" font-family="Times New Roman,serif" font-size="8.00">0...*</text>
<text text-anchor="middle" x="119.748" y="-1632.59" font-family="Times New Roman,serif" font-size="8.00">0...*</text>
</g>
<!-- InstrumentGroup -->
<g id="ItemTypeInstrumentGroup5" class="node"><title></title><ellipse fill="#f7b733" stroke="black" cx="68.6346" cy="-1584" rx="43.219" ry="18" style="filter: url(#dropshadow)"/>
<text text-anchor="middle" x="68.6346" y="-1582.1" font-family="Times New Roman,serif" font-size="8.00">InstrumentGroup</text>
</g>
<!-- InstrumentGroup&#45;&gt;Universe -->
<g id="edge14" class="edge"><title>InstrumentGroup&#45;&gt;Universe</title>
<path fill="none" stroke="black" d="M111.959,-1584.24C153.139,-1582.15 214.819,-1572.49 252.269,-1536 373.151,-1418.2 393.398,-1204.73 395.782,-1102.13"/>
<text text-anchor="middle" x="203.769" y="-1581.6" font-family="Times New Roman,serif" font-size="8.00">UniverseReference</text>
<text text-anchor="middle" x="403.782" y="-1095.73" font-family="Times New Roman,serif" font-size="8.00">0...*</text>
<text text-anchor="middle" x="119.959" y="-1577.84" font-family="Times New Roman,serif" font-size="8.00">0...*</text>
</g>
<!-- ManagedRepresentationGroup -->
<g id="ItemTypeManagedRepresentationGroup6" class="node"><title></title><ellipse fill="#f7b733" stroke="black" cx="68.6346" cy="-1530" rx="68.7695" ry="18" style="filter: url(#dropshadow)"/>
<text text-anchor="middle" x="68.6346" y="-1528.1" font-family="Times New Roman,serif" font-size="8.00">ManagedRepresentationGroup</text>
</g>
<!-- ManagedRepresentationGroup&#45;&gt;Universe -->
<g id="edge15" class="edge"><title>ManagedRepresentationGroup&#45;&gt;Universe</title>
<path fill="none" stroke="black" d="M136.311,-1527C174.696,-1521.89 221.308,-1509.46 252.269,-1480 359.18,-1378.28 386.244,-1195.46 393.037,-1102.19"/>
<text text-anchor="middle" x="203.769" y="-1525.6" font-family="Times New Roman,serif" font-size="8.00">UniverseReference</text>
<text text-anchor="middle" x="401.037" y="-1095.79" font-family="Times New Roman,serif" font-size="8.00">0...*</text>
<text text-anchor="middle" x="144.311" y="-1520.6" font-family="Times New Roman,serif" font-size="8.00">0...*</text>
</g>
<!-- MeasurementConstruct -->
<g id="ItemTypeMeasurementConstruct7" class="node"><title></title><ellipse fill="#f7b733" stroke="black" cx="68.6346" cy="-1476" rx="55.0423" ry="18" style="filter: url(#dropshadow)"/>
<text text-anchor="middle" x="68.6346" y="-1474.1" font-family="Times New Roman,serif" font-size="8.00">MeasurementConstruct</text>
</g>
<!-- MeasurementConstruct&#45;&gt;Universe -->
<g id="edge16" class="edge"><title>MeasurementConstruct&#45;&gt;Universe</title>
<path fill="none" stroke="black" d="M123.041,-1473.08C163.195,-1468.19 217.118,-1455.5 252.269,-1423 345.088,-1337.18 378.063,-1185.03 389.471,-1102"/>
<text text-anchor="middle" x="203.769" y="-1469.6" font-family="Times New Roman,serif" font-size="8.00">UniverseReference</text>
<text text-anchor="middle" x="397.471" y="-1104.6" font-family="Times New Roman,serif" font-size="8.00">0...*</text>
<text text-anchor="middle" x="131.041" y="-1466.68" font-family="Times New Roman,serif" font-size="8.00">0...*</text>
</g>
<!-- MeasurementGroup -->
<g id="ItemTypeMeasurementGroup8" class="node"><title></title><ellipse fill="#f7b733" stroke="black" cx="68.6346" cy="-1422" rx="47.7948" ry="18" style="filter: url(#dropshadow)"/>
<text text-anchor="middle" x="68.6346" y="-1420.1" font-family="Times New Roman,serif" font-size="8.00">MeasurementGroup</text>
</g>
<!-- MeasurementGroup&#45;&gt;Universe -->
<g id="edge17" class="edge"><title>MeasurementGroup&#45;&gt;Universe</title>
<path fill="none" stroke="black" d="M115.313,-1417.97C155.729,-1412.18 214.059,-1398.13 252.269,-1364 330.329,-1294.28 368.049,-1173.79 384.398,-1102.23"/>
<text text-anchor="middle" x="203.769" y="-1412.6" font-family="Times New Roman,serif" font-size="8.00">UniverseReference</text>
<text text-anchor="middle" x="376.398" y="-1104.83" font-family="Times New Roman,serif" font-size="8.00">0...*</text>
<text text-anchor="middle" x="123.313" y="-1411.57" font-family="Times New Roman,serif" font-size="8.00">0...*</text>
</g>
<!-- NCube -->
<g id="ItemTypeNCube9" class="node"><title></title><ellipse fill="#f7b733" stroke="black" cx="68.6346" cy="-1368" rx="27" ry="18" style="filter: url(#dropshadow)"/>
<text text-anchor="middle" x="68.6346" y="-1366.1" font-family="Times New Roman,serif" font-size="8.00">NCube</text>
</g>
<!-- NCube&#45;&gt;Universe -->
<g id="edge18" class="edge"><title>NCube&#45;&gt;Universe</title>
<path fill="none" stroke="black" d="M95.5328,-1365.2C133.793,-1359.85 205.884,-1345.01 252.269,-1306 316.519,-1251.97 356.717,-1161.4 377.575,-1102.18"/>
<text text-anchor="middle" x="203.769" y="-1353.6" font-family="Times New Roman,serif" font-size="8.00">UniverseReference</text>
<text text-anchor="middle" x="369.575" y="-1104.78" font-family="Times New Roman,serif" font-size="8.00">0...*</text>
<text text-anchor="middle" x="103.533" y="-1358.8" font-family="Times New Roman,serif" font-size="8.00">0...*</text>
</g>
<!-- NCubeGroup -->
<g id="ItemTypeNCubeGroup0" class="node"><title></title><ellipse fill="#f7b733" stroke="black" cx="68.6346" cy="-1314" rx="34.0674" ry="18" style="filter: url(#dropshadow)"/>
<text text-anchor="middle" x="68.6346" y="-1312.1" font-family="Times New Roman,serif" font-size="8.00">NCubeGroup</text>
</g>
<!-- NCubeGroup&#45;&gt;Universe -->
<g id="edge19" class="edge"><title>NCubeGroup&#45;&gt;Universe</title>
<path fill="none" stroke="black" d="M101.184,-1308.66C139.989,-1300.81 206.348,-1283.13 252.269,-1248 302.765,-1209.37 342.42,-1147.84 367.035,-1102.44"/>
<text text-anchor="middle" x="203.769" y="-1295.6" font-family="Times New Roman,serif" font-size="8.00">UniverseReference</text>
<text text-anchor="middle" x="359.035" y="-1105.04" font-family="Times New Roman,serif" font-size="8.00">0...*</text>
<text text-anchor="middle" x="109.184" y="-1302.26" font-family="Times New Roman,serif" font-size="8.00">0...*</text>
</g>
<!-- OrganizationGroup -->
<g id="ItemTypeOrganizationGroup1" class="node"><title></title><ellipse fill="#f7b733" stroke="black" cx="68.6346" cy="-1260" rx="47.16" ry="18" style="filter: url(#dropshadow)"/>
<text text-anchor="middle" x="68.6346" y="-1258.1" font-family="Times New Roman,serif" font-size="8.00">OrganizationGroup</text>
</g>
<!-- OrganizationGroup&#45;&gt;Universe -->
<g id="edge20" class="edge"><title>OrganizationGroup&#45;&gt;Universe</title>
<path fill="none" stroke="black" d="M108.623,-1250.33C147.238,-1239.58 206.992,-1219.72 252.269,-1190 288.603,-1166.15 322.908,-1131.69 348.806,-1102.24"/>
<text text-anchor="middle" x="203.769" y="-1237.6" font-family="Times New Roman,serif" font-size="8.00">UniverseReference</text>
<text text-anchor="middle" x="340.806" y="-1104.84" font-family="Times New Roman,serif" font-size="8.00">0...*</text>
<text text-anchor="middle" x="116.623" y="-1243.93" font-family="Times New Roman,serif" font-size="8.00">0...*</text>
</g>
<!-- OtherMaterialGroup -->
<g id="ItemTypeOtherMaterialGroup2" class="node"><title></title><ellipse fill="#f7b733" stroke="black" cx="68.6346" cy="-1206" rx="49.1982" ry="18" style="filter: url(#dropshadow)"/>
<text text-anchor="middle" x="68.6346" y="-1204.1" font-family="Times New Roman,serif" font-size="8.00">OtherMaterialGroup</text>
</g>
<!-- OtherMaterialGroup&#45;&gt;Universe -->
<g id="edge21" class="edge"><title>OtherMaterialGroup&#45;&gt;Universe</title>
<path fill="none" stroke="black" d="M107.403,-1194.69C145.081,-1182.78 204.131,-1162.39 252.269,-1138 272.808,-1127.59 294.017,-1114.87 313.608,-1102.19"/>
<text text-anchor="middle" x="203.769" y="-1179.6" font-family="Times New Roman,serif" font-size="8.00">UniverseReference</text>
<text text-anchor="middle" x="305.608" y="-1104.79" font-family="Times New Roman,serif" font-size="8.00">0...*</text>
<text text-anchor="middle" x="115.403" y="-1188.29" font-family="Times New Roman,serif" font-size="8.00">0...*</text>
</g>
<!-- PhysicalInstanceGroup -->
<g id="ItemTypePhysicalInstanceGroup3" class="node"><title></title><ellipse fill="#f7b733" stroke="black" cx="68.6346" cy="-1152" rx="54.4078" ry="18" style="filter: url(#dropshadow)"/>
<text text-anchor="middle" x="68.6346" y="-1150.1" font-family="Times New Roman,serif" font-size="8.00">PhysicalInstanceGroup</text>
</g>
<!-- PhysicalInstanceGroup&#45;&gt;Universe -->
<g id="edge22" class="edge"><title>PhysicalInstanceGroup&#45;&gt;Universe</title>
<path fill="none" stroke="black" d="M110.085,-1140.24C147.22,-1129.3 203.682,-1112.27 252.269,-1096 258.156,-1094.03 264.167,-1091.98 270.23,-1089.89"/>
<text text-anchor="middle" x="203.769" y="-1127.6" font-family="Times New Roman,serif" font-size="8.00">UniverseReference</text>
<text text-anchor="middle" x="262.23" y="-1083.49" font-family="Times New Roman,serif" font-size="8.00">0...*</text>
<text text-anchor="middle" x="118.085" y="-1133.84" font-family="Times New Roman,serif" font-size="8.00">0...*</text>
</g>
<!-- PhysicalStructureGroup -->
<g id="ItemTypePhysicalStructureGroup4" class="node"><title></title><ellipse fill="#f7b733" stroke="black" cx="68.6346" cy="-1098" rx="55.6769" ry="18" style="filter: url(#dropshadow)"/>
<text text-anchor="middle" x="68.6346" y="-1096.1" font-family="Times New Roman,serif" font-size="8.00">PhysicalStructureGroup</text>
</g>
<!-- PhysicalStructureGroup&#45;&gt;Universe -->
<g id="edge23" class="edge"><title>PhysicalStructureGroup&#45;&gt;Universe</title>
<path fill="none" stroke="black" d="M118.385,-1089.92C158.483,-1083.27 217.13,-1073.54 270.138,-1064.75"/>
<text text-anchor="middle" x="203.769" y="-1085.6" font-family="Times New Roman,serif" font-size="8.00">UniverseReference</text>
<text text-anchor="middle" x="262.138" y="-1058.35" font-family="Times New Roman,serif" font-size="8.00">0...*</text>
<text text-anchor="middle" x="126.385" y="-1083.52" font-family="Times New Roman,serif" font-size="8.00">0...*</text>
</g>
<!-- ProcessingEventGroup -->
<g id="ItemTypeProcessingEventGroup5" class="node"><title></title><ellipse fill="#f7b733" stroke="black" cx="68.6346" cy="-1044" rx="53.7736" ry="18" style="filter: url(#dropshadow)"/>
<text text-anchor="middle" x="68.6346" y="-1042.1" font-family="Times New Roman,serif" font-size="8.00">ProcessingEventGroup</text>
</g>
<!-- ProcessingEventGroup&#45;&gt;Universe -->
<g id="edge24" class="edge"><title>ProcessingEventGroup&#45;&gt;Universe</title>
<path fill="none" stroke="black" d="M122.678,-1044C162.597,-1044 218.994,-1044 270.141,-1044"/>
<text text-anchor="middle" x="203.769" y="-1046.6" font-family="Times New Roman,serif" font-size="8.00">UniverseReference</text>
<text text-anchor="middle" x="262.141" y="-1037.6" font-family="Times New Roman,serif" font-size="8.00">0...*</text>
<text text-anchor="middle" x="130.678" y="-1037.6" font-family="Times New Roman,serif" font-size="8.00">0...*</text>
</g>
<!-- ProcessingInstructionGroup -->
<g id="ItemTypeProcessingInstructionGroup6" class="node"><title></title><ellipse fill="#f7b733" stroke="black" cx="68.6346" cy="-990" rx="64.1937" ry="18" style="filter: url(#dropshadow)"/>
<text text-anchor="middle" x="68.6346" y="-988.1" font-family="Times New Roman,serif" font-size="8.00">ProcessingInstructionGroup</text>
</g>
<!-- ProcessingInstructionGroup&#45;&gt;Universe -->
<g id="edge25" class="edge"><title>ProcessingInstructionGroup&#45;&gt;Universe</title>
<path fill="none" stroke="black" d="M124.139,-999.038C163.971,-1005.64 219.631,-1014.87 270.163,-1023.25"/>
<text text-anchor="middle" x="203.769" y="-1022.6" font-family="Times New Roman,serif" font-size="8.00">UniverseReference</text>
<text text-anchor="middle" x="262.163" y="-1016.85" font-family="Times New Roman,serif" font-size="8.00">0...*</text>
<text text-anchor="middle" x="132.139" y="-992.638" font-family="Times New Roman,serif" font-size="8.00">0...*</text>
</g>
<!-- QualityStandardGroup -->
<g id="ItemTypeQualityStandardGroup7" class="node"><title></title><ellipse fill="#f7b733" stroke="black" cx="68.6346" cy="-936" rx="52.3706" ry="18" style="filter: url(#dropshadow)"/>
<text text-anchor="middle" x="68.6346" y="-934.1" font-family="Times New Roman,serif" font-size="8.00">QualityStandardGroup</text>
</g>
<!-- QualityStandardGroup&#45;&gt;Universe -->
<g id="edge26" class="edge"><title>QualityStandardGroup&#45;&gt;Universe</title>
<path fill="none" stroke="black" d="M109.764,-947.304C146.92,-957.955 203.609,-974.673 252.269,-991 258.168,-992.979 264.189,-995.042 270.26,-997.155"/>
<text text-anchor="middle" x="203.769" y="-993.6" font-family="Times New Roman,serif" font-size="8.00">UniverseReference</text>
<text text-anchor="middle" x="262.26" y="-990.755" font-family="Times New Roman,serif" font-size="8.00">0...*</text>
<text text-anchor="middle" x="117.764" y="-949.904" font-family="Times New Roman,serif" font-size="8.00">0...*</text>
</g>
<!-- QualityStatementGroup -->
<g id="ItemTypeQualityStatementGroup8" class="node"><title></title><ellipse fill="#f7b733" stroke="black" cx="68.6346" cy="-882" rx="55.6769" ry="18" style="filter: url(#dropshadow)"/>
<text text-anchor="middle" x="68.6346" y="-880.1" font-family="Times New Roman,serif" font-size="8.00">QualityStatementGroup</text>
</g>
<!-- QualityStatementGroup&#45;&gt;Universe -->
<g id="edge27" class="edge"><title>QualityStatementGroup&#45;&gt;Universe</title>
<path fill="none" stroke="black" d="M111.086,-893.795C148.903,-905.291 205.805,-924.456 252.269,-948 273.741,-958.88 295.849,-972.41 316.07,-985.848"/>
<text text-anchor="middle" x="203.769" y="-950.6" font-family="Times New Roman,serif" font-size="8.00">UniverseReference</text>
<text text-anchor="middle" x="308.07" y="-979.448" font-family="Times New Roman,serif" font-size="8.00">0...*</text>
<text text-anchor="middle" x="119.086" y="-896.395" font-family="Times New Roman,serif" font-size="8.00">0...*</text>
</g>
<!-- QuestionConstruct -->
<g id="ItemTypeQuestionConstruct9" class="node"><title></title><ellipse fill="#f7b733" stroke="black" cx="68.6346" cy="-828" rx="45.891" ry="18" style="filter: url(#dropshadow)"/>
<text text-anchor="middle" x="68.6346" y="-826.1" font-family="Times New Roman,serif" font-size="8.00">QuestionConstruct</text>
</g>
<!-- QuestionConstruct&#45;&gt;Universe -->
<g id="edge28" class="edge"><title>QuestionConstruct&#45;&gt;Universe</title>
<path fill="none" stroke="black" d="M108.675,-837.105C147.331,-847.324 207.115,-866.448 252.269,-896 289.34,-920.261 324.049,-955.743 349.987,-985.883"/>
<text text-anchor="middle" x="203.769" y="-898.6" font-family="Times New Roman,serif" font-size="8.00">UniverseReference</text>
<text text-anchor="middle" x="341.987" y="-979.483" font-family="Times New Roman,serif" font-size="8.00">0...*</text>
<text text-anchor="middle" x="116.675" y="-830.705" font-family="Times New Roman,serif" font-size="8.00">0...*</text>
</g>
<!-- QuestionGroup -->
<g id="ItemTypeQuestionGroup0" class="node"><title></title><ellipse fill="#f7b733" stroke="black" cx="68.6346" cy="-774" rx="38.6432" ry="18" style="filter: url(#dropshadow)"/>
<text text-anchor="middle" x="68.6346" y="-772.1" font-family="Times New Roman,serif" font-size="8.00">QuestionGroup</text>
</g>
<!-- QuestionGroup&#45;&gt;Universe -->
<g id="edge29" class="edge"><title>QuestionGroup&#45;&gt;Universe</title>
<path fill="none" stroke="black" d="M105.381,-779.715C144.654,-787.443 208.021,-804.326 252.269,-838 303.543,-877.021 343.326,-939.775 367.768,-985.779"/>
<text text-anchor="middle" x="203.769" y="-840.6" font-family="Times New Roman,serif" font-size="8.00">UniverseReference</text>
<text text-anchor="middle" x="359.768" y="-979.379" font-family="Times New Roman,serif" font-size="8.00">0...*</text>
<text text-anchor="middle" x="113.381" y="-773.315" font-family="Times New Roman,serif" font-size="8.00">0...*</text>
</g>
<!-- RecordLayoutGroup -->
<g id="ItemTypeRecordLayoutGroup1" class="node"><title></title><ellipse fill="#f7b733" stroke="black" cx="68.6346" cy="-720" rx="48.5642" ry="18" style="filter: url(#dropshadow)"/>
<text text-anchor="middle" x="68.6346" y="-718.1" font-family="Times New Roman,serif" font-size="8.00">RecordLayoutGroup</text>
</g>
<!-- RecordLayoutGroup&#45;&gt;Universe -->
<g id="edge30" class="edge"><title>RecordLayoutGroup&#45;&gt;Universe</title>
<path fill="none" stroke="black" d="M115.511,-725.127C155.504,-731.68 213.087,-746.383 252.269,-779 317.66,-833.434 357.704,-925.761 378.199,-985.799"/>
<text text-anchor="middle" x="203.769" y="-781.6" font-family="Times New Roman,serif" font-size="8.00">UniverseReference</text>
<text text-anchor="middle" x="386.199" y="-979.399" font-family="Times New Roman,serif" font-size="8.00">0...*</text>
<text text-anchor="middle" x="123.511" y="-718.727" font-family="Times New Roman,serif" font-size="8.00">0...*</text>
</g>
<!-- RepresentedVariableGroup -->
<g id="ItemTypeRepresentedVariableGroup2" class="node"><title></title><ellipse fill="#f7b733" stroke="black" cx="68.6346" cy="-666" rx="60.8874" ry="18" style="filter: url(#dropshadow)"/>
<text text-anchor="middle" x="68.6346" y="-664.1" font-family="Times New Roman,serif" font-size="8.00">RepresentedVariableGroup</text>
</g>
<!-- RepresentedVariableGroup&#45;&gt;Universe -->
<g id="edge31" class="edge"><title>RepresentedVariableGroup&#45;&gt;Universe</title>
<path fill="none" stroke="black" d="M127.164,-670.809C166.52,-676.842 217.64,-690.427 252.269,-721 331.688,-791.115 369.039,-913.684 384.933,-985.987"/>
<text text-anchor="middle" x="203.769" y="-723.6" font-family="Times New Roman,serif" font-size="8.00">UniverseReference</text>
<text text-anchor="middle" x="376.933" y="-979.587" font-family="Times New Roman,serif" font-size="8.00">0...*</text>
<text text-anchor="middle" x="135.164" y="-664.409" font-family="Times New Roman,serif" font-size="8.00">0...*</text>
</g>
<!-- ResourcePackage -->
<g id="ItemTypeResourcePackage3" class="node"><title></title><ellipse fill="#f7b733" stroke="black" cx="68.6346" cy="-612" rx="43.219" ry="18" style="filter: url(#dropshadow)"/>
<text text-anchor="middle" x="68.6346" y="-610.1" font-family="Times New Roman,serif" font-size="8.00">ResourcePackage</text>
</g>
<!-- ResourcePackage&#45;&gt;Universe -->
<g id="edge32" class="edge"><title>ResourcePackage&#45;&gt;Universe</title>
<path fill="none" stroke="black" d="M111.809,-613.182C152.578,-616.52 213.687,-627.627 252.269,-663 346.008,-748.941 378.624,-902.388 389.728,-985.923"/>
<text text-anchor="middle" x="203.769" y="-665.6" font-family="Times New Roman,serif" font-size="8.00">UniverseReference</text>
<text text-anchor="middle" x="397.728" y="-979.523" font-family="Times New Roman,serif" font-size="8.00">0...*</text>
<text text-anchor="middle" x="119.809" y="-606.782" font-family="Times New Roman,serif" font-size="8.00">0...*</text>
</g>
<!-- SampleFrame -->
<g id="ItemTypeSampleFrame4" class="node"><title></title><ellipse fill="#f7b733" stroke="black" cx="68.6346" cy="-558" rx="35.9723" ry="18" style="filter: url(#dropshadow)"/>
<text text-anchor="middle" x="68.6346" y="-556.1" font-family="Times New Roman,serif" font-size="8.00">SampleFrame</text>
</g>
<!-- SampleFrame&#45;&gt;Universe -->
<g id="edge33" class="edge"><title>SampleFrame&#45;&gt;Universe</title>
<path fill="none" stroke="black" d="M104.611,-557.692C145.279,-559.244 211.961,-567.986 252.269,-606 360.22,-707.807 386.81,-892.049 393.268,-985.805"/>
<text text-anchor="middle" x="203.769" y="-608.6" font-family="Times New Roman,serif" font-size="8.00">UniverseReference</text>
<text text-anchor="middle" x="385.268" y="-988.405" font-family="Times New Roman,serif" font-size="8.00">0...*</text>
<text text-anchor="middle" x="112.611" y="-551.292" font-family="Times New Roman,serif" font-size="8.00">0...*</text>
</g>
<!-- SamplingInformationGroup -->
<g id="ItemTypeSamplingInformationGroup5" class="node"><title></title><ellipse fill="#f7b733" stroke="black" cx="68.6346" cy="-504" rx="63.5591" ry="18" style="filter: url(#dropshadow)"/>
<text text-anchor="middle" x="68.6346" y="-502.1" font-family="Times New Roman,serif" font-size="8.00">SamplingInformationGroup</text>
</g>
<!-- SamplingInformationGroup&#45;&gt;Universe -->
<g id="edge34" class="edge"><title>SamplingInformationGroup&#45;&gt;Universe</title>
<path fill="none" stroke="black" d="M132.186,-504.565C171.462,-508.223 220.514,-519.339 252.269,-550 374.307,-667.835 393.965,-882.875 395.99,-985.922"/>
<text text-anchor="middle" x="203.769" y="-552.6" font-family="Times New Roman,serif" font-size="8.00">UniverseReference</text>
<text text-anchor="middle" x="403.99" y="-979.522" font-family="Times New Roman,serif" font-size="8.00">0...*</text>
<text text-anchor="middle" x="140.186" y="-498.165" font-family="Times New Roman,serif" font-size="8.00">0...*</text>
</g>
<!-- StudyUnit -->
<g id="ItemTypeStudyUnit6" class="node"><title></title><ellipse fill="#f7b733" stroke="black" cx="68.6346" cy="-450" rx="28.8574" ry="18" style="filter: url(#dropshadow)"/>
<text text-anchor="middle" x="68.6346" y="-448.1" font-family="Times New Roman,serif" font-size="8.00">StudyUnit</text>
</g>
<!-- StudyUnit&#45;&gt;Universe -->
<g id="edge35" class="edge"><title>StudyUnit&#45;&gt;Universe</title>
<path fill="none" stroke="black" d="M97.6254,-448.449C137.517,-447.85 210.503,-452.977 252.269,-494 322.48,-562.962 370.105,-858.457 387.707,-985.532"/>
<text text-anchor="middle" x="203.769" y="-496.6" font-family="Times New Roman,serif" font-size="8.00">UniverseReference</text>
<text text-anchor="middle" x="379.707" y="-979.132" font-family="Times New Roman,serif" font-size="8.00">0...*</text>
<text text-anchor="middle" x="105.625" y="-442.049" font-family="Times New Roman,serif" font-size="8.00">0...*</text>
</g>
<!-- UnitTypeGroup -->
<g id="ItemTypeUnitTypeGroup7" class="node"><title></title><ellipse fill="#f7b733" stroke="black" cx="68.6346" cy="-396" rx="40.6815" ry="18" style="filter: url(#dropshadow)"/>
<text text-anchor="middle" x="68.6346" y="-394.1" font-family="Times New Roman,serif" font-size="8.00">UnitTypeGroup</text>
</g>
<!-- UnitTypeGroup&#45;&gt;Universe -->
<g id="edge37" class="edge"><title>UnitTypeGroup&#45;&gt;Universe</title>
<path fill="none" stroke="black" d="M109.56,-394.043C150.937,-394.301 214.708,-401.472 252.269,-439 329.574,-516.237 374.056,-849.835 389.272,-985.895"/>
<text text-anchor="middle" x="203.769" y="-441.6" font-family="Times New Roman,serif" font-size="8.00">UniverseReference</text>
<text text-anchor="middle" x="381.272" y="-988.495" font-family="Times New Roman,serif" font-size="8.00">0...*</text>
<text text-anchor="middle" x="117.56" y="-387.643" font-family="Times New Roman,serif" font-size="8.00">0...*</text>
</g>
<!-- UniverseGroup -->
<g id="ItemTypeUniverseGroup8" class="node"><title></title><ellipse fill="#f7b733" stroke="black" cx="68.6346" cy="-342" rx="38.6432" ry="18" style="filter: url(#dropshadow)"/>
<text text-anchor="middle" x="68.6346" y="-340.1" font-family="Times New Roman,serif" font-size="8.00">UniverseGroup</text>
</g>
<!-- UniverseGroup&#45;&gt;Universe -->
<g id="edge38" class="edge"><title>UniverseGroup&#45;&gt;Universe</title>
<path fill="none" stroke="black" d="M106.504,-345.821C153.82,-351.485 232.21,-363.685 252.269,-384 336.653,-469.46 377.56,-840.843 390.534,-985.771"/>
<text text-anchor="middle" x="203.769" y="-386.6" font-family="Times New Roman,serif" font-size="8.00">GroupingUniverseReference</text>
<text text-anchor="middle" x="398.534" y="-988.371" font-family="Times New Roman,serif" font-size="8.00">0...*</text>
<text text-anchor="middle" x="114.504" y="-339.421" font-family="Times New Roman,serif" font-size="8.00">0...*</text>
</g>
<!-- UniverseGroup&#45;&gt;Universe -->
<g id="edge39" class="edge"><title>UniverseGroup&#45;&gt;Universe</title>
<path fill="none" stroke="black" d="M100.378,-331.563C140.185,-320.178 209.509,-307.886 252.269,-343 351.619,-424.584 383.799,-832.562 392.477,-985.752"/>
<text text-anchor="middle" x="203.769" y="-345.6" font-family="Times New Roman,serif" font-size="8.00">UniverseReference</text>
<text text-anchor="middle" x="384.477" y="-979.352" font-family="Times New Roman,serif" font-size="8.00">0...*</text>
<text text-anchor="middle" x="108.378" y="-325.163" font-family="Times New Roman,serif" font-size="8.00">0...*</text>
</g>
<!-- UniverseScheme -->
<g id="ItemTypeUniverseScheme9" class="node"><title></title><ellipse fill="#f7b733" stroke="black" cx="68.6346" cy="-288" rx="41.9498" ry="18" style="filter: url(#dropshadow)"/>
<text text-anchor="middle" x="68.6346" y="-286.1" font-family="Times New Roman,serif" font-size="8.00">UniverseScheme</text>
</g>
<!-- UniverseScheme&#45;&gt;Universe -->
<g id="edge40" class="edge"><title>UniverseScheme&#45;&gt;Universe</title>
<path fill="none" stroke="black" d="M106.614,-279.963C147.592,-273.407 213.052,-270.276 252.269,-306 352.669,-397.457 384.337,-827.988 392.67,-985.818"/>
<text text-anchor="middle" x="203.769" y="-308.6" font-family="Times New Roman,serif" font-size="8.00">UniverseReference</text>
<text text-anchor="middle" x="400.67" y="-988.418" font-family="Times New Roman,serif" font-size="8.00">0...*</text>
<text text-anchor="middle" x="114.614" y="-273.563" font-family="Times New Roman,serif" font-size="8.00">0...*</text>
</g>
<!-- Variable -->
<g id="ItemTypeVariable0" class="node"><title></title><ellipse fill="#f7b733" stroke="black" cx="68.6346" cy="-234" rx="27" ry="18" style="filter: url(#dropshadow)"/>
<text text-anchor="middle" x="68.6346" y="-232.1" font-family="Times New Roman,serif" font-size="8.00">Variable</text>
</g>
<!-- Variable&#45;&gt;Universe -->
<g id="edge41" class="edge"><title>Variable&#45;&gt;Universe</title>
<path fill="none" stroke="black" d="M95.1242,-229.595C134.52,-224.38 210.053,-220.98 252.269,-262 355.955,-362.748 385.705,-822.315 393.092,-985.943"/>
<text text-anchor="middle" x="203.769" y="-264.6" font-family="Times New Roman,serif" font-size="8.00">UniverseReference</text>
<text text-anchor="middle" x="401.092" y="-979.543" font-family="Times New Roman,serif" font-size="8.00">0...*</text>
<text text-anchor="middle" x="103.124" y="-223.195" font-family="Times New Roman,serif" font-size="8.00">0...*</text>
</g>
<!-- VariableGroup -->
<g id="ItemTypeVariableGroup1" class="node"><title></title><ellipse fill="#f7b733" stroke="black" cx="68.6346" cy="-180" rx="36.7401" ry="18" style="filter: url(#dropshadow)"/>
<text text-anchor="middle" x="68.6346" y="-178.1" font-family="Times New Roman,serif" font-size="8.00">VariableGroup</text>
</g>
<!-- VariableGroup&#45;&gt;Universe -->
<g id="edge42" class="edge"><title>VariableGroup&#45;&gt;Universe</title>
<path fill="none" stroke="black" d="M104.582,-175.719C145.858,-172.784 213.761,-174.971 252.269,-214 360.549,-323.746 387.472,-815.871 393.599,-985.955"/>
<text text-anchor="middle" x="203.769" y="-216.6" font-family="Times New Roman,serif" font-size="8.00">UniverseReference</text>
<text text-anchor="middle" x="401.599" y="-979.555" font-family="Times New Roman,serif" font-size="8.00">0...*</text>
<text text-anchor="middle" x="112.582" y="-169.319" font-family="Times New Roman,serif" font-size="8.00">0...*</text>
</g>
<!-- CoordinateRegionType -->
<g id="ReusableTypeCoordinateRegionType2" class="node"><title></title><ellipse fill="#f7b733" stroke="black" cx="68.6346" cy="-126" rx="55.6769" ry="18" style="filter: url(#dropshadow)"/>
<text text-anchor="middle" x="68.6346" y="-124.1" font-family="Times New Roman,serif" font-size="8.00">CoordinateRegionType</text>
</g>
<!-- CoordinateRegionType&#45;&gt;Universe -->
<g id="edge43" class="edge"><title>CoordinateRegionType&#45;&gt;Universe</title>
<path fill="none" stroke="black" d="M122.84,-121.769C163.977,-121.611 219.303,-128.723 252.269,-163 366.261,-281.523 389.531,-809.119 394.155,-985.987"/>
<text text-anchor="middle" x="203.769" y="-165.6" font-family="Times New Roman,serif" font-size="8.00">UniverseReference</text>
<text text-anchor="middle" x="402.155" y="-988.587" font-family="Times New Roman,serif" font-size="8.00">0...*</text>
<text text-anchor="middle" x="130.84" y="-115.369" font-family="Times New Roman,serif" font-size="8.00">0...*</text>
</g>
<!-- PopulationType -->
<g id="ReusableTypePopulationType3" class="node"><title></title><ellipse fill="#f7b733" stroke="black" cx="68.6346" cy="-72" rx="41.9498" ry="18" style="filter: url(#dropshadow)"/>
<text text-anchor="middle" x="68.6346" y="-70.1" font-family="Times New Roman,serif" font-size="8.00">PopulationType</text>
</g>
<!-- PopulationType&#45;&gt;Universe -->
<g id="edge44" class="edge"><title>PopulationType&#45;&gt;Universe</title>
<path fill="none" stroke="black" d="M110.05,-68.2344C151.837,-66.7613 215.947,-71.692 252.269,-110 372.756,-237.075 391.735,-801.818 394.716,-985.828"/>
<text text-anchor="middle" x="203.769" y="-112.6" font-family="Times New Roman,serif" font-size="8.00">UniverseReference</text>
<text text-anchor="middle" x="402.716" y="-979.428" font-family="Times New Roman,serif" font-size="8.00">0...*</text>
<text text-anchor="middle" x="118.05" y="-61.8344" font-family="Times New Roman,serif" font-size="8.00">0...*</text>
</g>
<!-- StratificationRationaleType -->
<g id="ReusableTypeStratificationRationaleType4" class="node"><title></title><ellipse fill="#f7b733" stroke="black" cx="68.6346" cy="-18" rx="64.8284" ry="18" style="filter: url(#dropshadow)"/>
<text text-anchor="middle" x="68.6346" y="-16.1" font-family="Times New Roman,serif" font-size="8.00">StratificationRationaleType</text>
</g>
<!-- StratificationRationaleType&#45;&gt;Universe -->
<g id="edge45" class="edge"><title>StratificationRationaleType&#45;&gt;Universe</title>
<path fill="none" stroke="black" d="M132.104,-14.4349C172.117,-15.7411 222.033,-24.683 252.269,-57 379.286,-192.758 393.831,-795.3 395.221,-985.954"/>
<text text-anchor="middle" x="203.769" y="-59.6" font-family="Times New Roman,serif" font-size="8.00">UniverseReference</text>
<text text-anchor="middle" x="403.221" y="-988.554" font-family="Times New Roman,serif" font-size="8.00">0...*</text>
<text text-anchor="middle" x="140.104" y="-17.0349" font-family="Times New Roman,serif" font-size="8.00">0...*</text>
</g>
</g>
</svg>
