<?xml version="1.0" encoding="UTF-8" standalone="no"?>
<!DOCTYPE svg PUBLIC "-//W3C//DTD SVG 1.1//EN"
 "http://www.w3.org/Graphics/SVG/1.1/DTD/svg11.dtd">
<!-- Generated by graphviz version 2.38.0 (20140413.2041)
 -->
<!-- Title: G Pages: 1 -->
<svg width="374pt" height="800pt"
 viewBox="0.00 0.00 373.79 800.00" xmlns="http://www.w3.org/2000/svg" xmlns:xlink="http://www.w3.org/1999/xlink">
<filter id = "dropshadow" height = "130%" ><feGaussianBlur in= "SourceAlpha" stdDeviation = "3"/><!--stdDeviation is how much to blur--><feOffset dx = "2" dy = "2" result = "offsetblur"/><!--how much to offset--><feMerge><feMergeNode/><!--this contains the offset blurred image--><feMergeNode in= "SourceGraphic"/><!--this contains the element that the filter is applied to --></feMerge></filter>
<g id="graph0" class="graph" transform="scale(1 1) rotate(0) translate(4 796)">
<title>G</title>
<!-- ValueType -->
<g id="ReusableTypeValueType" class="node"><title></title><polygon fill="#f7b733" stroke="black" points="205.79,-378 205.79,-414 365.79,-414 365.79,-378 205.79,-378" style="filter: url(#dropshadow)"/>
<text text-anchor="middle" x="232.79" y="-394.1" font-family="Times New Roman,serif" font-size="8.00">ValueType</text>
<polyline fill="none" stroke="black" points="259.79,-378 259.79,-414 "/>
<text text-anchor="start" x="267.79" y="-394.1" font-family="Times New Roman,serif" font-size="8.00">StringValue : string[0...1] </text>
</g>
<!-- AttachedAttributeIType -->
<g id="ReusableTypeAttachedAttributeIType" class="node"><title></title><ellipse fill="#f7b733" stroke="black" cx="62.3951" cy="-774" rx="57.0809" ry="18" style="filter: url(#dropshadow)"/>
<text text-anchor="middle" x="62.3951" y="-772.1" font-family="Times New Roman,serif" font-size="8.00">AttachedAttributeIType</text>
</g>
<!-- AttachedAttributeIType&#45;&gt;ValueType -->
<g id="edge1" class="edge"><title>AttachedAttributeIType&#45;&gt;ValueType</title>
<path fill="none" stroke="black" d="M99.2449,-760.112C127.82,-747.131 166.461,-724.93 187.79,-693 250.159,-599.633 275.087,-463.072 282.344,-414.216"/>
<text text-anchor="middle" x="165.29" y="-736.6" font-family="Times New Roman,serif" font-size="8.00">Value</text>
</g>
<!-- AttachedAttributeTType -->
<g id="ReusableTypeAttachedAttributeTType" class="node"><title></title><ellipse fill="#f7b733" stroke="black" cx="62.3951" cy="-720" rx="58.9835" ry="18" style="filter: url(#dropshadow)"/>
<text text-anchor="middle" x="62.3951" y="-718.1" font-family="Times New Roman,serif" font-size="8.00">AttachedAttributeTType</text>
</g>
<!-- AttachedAttributeTType&#45;&gt;ValueType -->
<g id="edge2" class="edge"><title>AttachedAttributeTType&#45;&gt;ValueType</title>
<path fill="none" stroke="black" d="M100.014,-706.006C108.4,-702.231 117.102,-697.836 124.79,-693 156.007,-673.365 166.333,-668.993 187.79,-639 241.046,-564.558 270.561,-456.755 280.714,-414.229"/>
<text text-anchor="middle" x="165.29" y="-682.6" font-family="Times New Roman,serif" font-size="8.00">Value</text>
</g>
<!-- AttachedAttributeType -->
<g id="ReusableTypeAttachedAttributeType" class="node"><title></title><ellipse fill="#f7b733" stroke="black" cx="62.3951" cy="-666" rx="55.6769" ry="18" style="filter: url(#dropshadow)"/>
<text text-anchor="middle" x="62.3951" y="-664.1" font-family="Times New Roman,serif" font-size="8.00">AttachedAttributeType</text>
</g>
<!-- AttachedAttributeType&#45;&gt;ValueType -->
<g id="edge3" class="edge"><title>AttachedAttributeType&#45;&gt;ValueType</title>
<path fill="none" stroke="black" d="M99.4651,-652.444C108.045,-648.601 116.972,-644.065 124.79,-639 156.48,-618.469 164.698,-611.875 187.79,-582 230.776,-526.388 264.08,-448.911 277.868,-414.145"/>
<text text-anchor="middle" x="165.29" y="-628.6" font-family="Times New Roman,serif" font-size="8.00">Value</text>
</g>
<!-- AttributeType -->
<g id="ReusableTypeAttributeType" class="node"><title></title><ellipse fill="#f7b733" stroke="black" cx="62.3951" cy="-612" rx="38.0086" ry="18" style="filter: url(#dropshadow)"/>
<text text-anchor="middle" x="62.3951" y="-610.1" font-family="Times New Roman,serif" font-size="8.00">AttributeType</text>
</g>
<!-- AttributeType&#45;&gt;ValueType -->
<g id="edge4" class="edge"><title>AttributeType&#45;&gt;ValueType</title>
<path fill="none" stroke="black" d="M93.0245,-601.047C103.41,-596.676 114.934,-591.2 124.79,-585 196.663,-539.792 252.868,-451.848 274.803,-414.016"/>
<text text-anchor="middle" x="165.29" y="-571.6" font-family="Times New Roman,serif" font-size="8.00">Value</text>
</g>
<!-- CategoryValueType -->
<g id="ReusableTypeCategoryValueType" class="node"><title></title><ellipse fill="#f7b733" stroke="black" cx="62.3951" cy="-558" rx="48.5642" ry="18" style="filter: url(#dropshadow)"/>
<text text-anchor="middle" x="62.3951" y="-556.1" font-family="Times New Roman,serif" font-size="8.00">CategoryValueType</text>
</g>
<!-- CategoryValueType&#45;&gt;ValueType -->
<g id="edge5" class="edge"><title>CategoryValueType&#45;&gt;ValueType</title>
<path fill="none" stroke="black" d="M97.0612,-545.183C106.312,-541.134 116.165,-536.314 124.79,-531 181.416,-496.113 238.845,-442.118 266.993,-414.161"/>
<text text-anchor="middle" x="165.29" y="-520.6" font-family="Times New Roman,serif" font-size="8.00">Value</text>
</g>
<!-- CodeType -->
<g id="ReusableTypeCodeType" class="node"><title></title><ellipse fill="#f7b733" stroke="black" cx="62.3951" cy="-504" rx="30.1263" ry="18" style="filter: url(#dropshadow)"/>
<text text-anchor="middle" x="62.3951" y="-502.1" font-family="Times New Roman,serif" font-size="8.00">CodeType</text>
</g>
<!-- CodeType&#45;&gt;ValueType -->
<g id="edge6" class="edge"><title>CodeType&#45;&gt;ValueType</title>
<path fill="none" stroke="black" d="M87.44,-493.785C98.8275,-488.856 112.578,-482.771 124.79,-477 168.563,-456.314 218.192,-430.872 250.413,-414.085"/>
<text text-anchor="middle" x="165.29" y="-468.6" font-family="Times New Roman,serif" font-size="8.00">Value</text>
</g>
<!-- DimensionRankValueType -->
<g id="ReusableTypeDimensionRankValueType" class="node"><title></title><ellipse fill="#f7b733" stroke="black" cx="62.3951" cy="-450" rx="62.2904" ry="18" style="filter: url(#dropshadow)"/>
<text text-anchor="middle" x="62.3951" y="-448.1" font-family="Times New Roman,serif" font-size="8.00">DimensionRankValueType</text>
</g>
<!-- DimensionRankValueType&#45;&gt;ValueType -->
<g id="edge7" class="edge"><title>DimensionRankValueType&#45;&gt;ValueType</title>
<path fill="none" stroke="black" d="M110.618,-438.482C139.7,-431.389 177.61,-422.142 210.633,-414.088"/>
<text text-anchor="middle" x="165.29" y="-431.6" font-family="Times New Roman,serif" font-size="8.00">Value</text>
</g>
<!-- DomainSpecificValueType -->
<g id="ReusableTypeDomainSpecificValueType" class="node"><title></title><ellipse fill="#f7b733" stroke="black" cx="62.3951" cy="-396" rx="61.6562" ry="18" style="filter: url(#dropshadow)"/>
<text text-anchor="middle" x="62.3951" y="-394.1" font-family="Times New Roman,serif" font-size="8.00">DomainSpecificValueType</text>
</g>
<!-- DomainSpecificValueType&#45;&gt;ValueType -->
<g id="edge8" class="edge"><title>DomainSpecificValueType&#45;&gt;ValueType</title>
<path fill="none" stroke="black" d="M124.478,-396C149.565,-396 178.937,-396 205.638,-396"/>
<text text-anchor="middle" x="165.29" y="-398.6" font-family="Times New Roman,serif" font-size="8.00">Value</text>
</g>
<!-- FixedCellValueType -->
<g id="ReusableTypeFixedCellValueType0" class="node"><title></title><ellipse fill="#f7b733" stroke="black" cx="62.3951" cy="-342" rx="48.5642" ry="18" style="filter: url(#dropshadow)"/>
<text text-anchor="middle" x="62.3951" y="-340.1" font-family="Times New Roman,serif" font-size="8.00">FixedCellValueType</text>
</g>
<!-- FixedCellValueType&#45;&gt;ValueType -->
<g id="edge9" class="edge"><title>FixedCellValueType&#45;&gt;ValueType</title>
<path fill="none" stroke="black" d="M103.488,-351.779C133.394,-359.073 175.1,-369.246 210.973,-377.995"/>
<text text-anchor="middle" x="165.29" y="-374.6" font-family="Times New Roman,serif" font-size="8.00">Value</text>
</g>
<!-- ItemValueType -->
<g id="ReusableTypeItemValueType1" class="node"><title></title><ellipse fill="#f7b733" stroke="black" cx="62.3951" cy="-288" rx="40.0477" ry="18" style="filter: url(#dropshadow)"/>
<text text-anchor="middle" x="62.3951" y="-286.1" font-family="Times New Roman,serif" font-size="8.00">ItemValueType</text>
</g>
<!-- ItemValueType&#45;&gt;ValueType -->
<g id="edge10" class="edge"><title>ItemValueType&#45;&gt;ValueType</title>
<path fill="none" stroke="black" d="M92.2767,-300.317C102.591,-304.817 114.263,-310.025 124.79,-315 168.563,-335.686 218.192,-361.128 250.413,-377.915"/>
<text text-anchor="middle" x="165.29" y="-347.6" font-family="Times New Roman,serif" font-size="8.00">Value</text>
</g>
<!-- MeasureIType -->
<g id="ReusableTypeMeasureIType2" class="node"><title></title><ellipse fill="#f7b733" stroke="black" cx="62.3951" cy="-234" rx="38.0086" ry="18" style="filter: url(#dropshadow)"/>
<text text-anchor="middle" x="62.3951" y="-232.1" font-family="Times New Roman,serif" font-size="8.00">MeasureIType</text>
</g>
<!-- MeasureIType&#45;&gt;ValueType -->
<g id="edge11" class="edge"><title>MeasureIType&#45;&gt;ValueType</title>
<path fill="none" stroke="black" d="M92.6176,-244.976C103.074,-249.385 114.748,-254.879 124.79,-261 181.581,-295.618 238.939,-349.728 267.033,-377.773"/>
<text text-anchor="middle" x="165.29" y="-306.6" font-family="Times New Roman,serif" font-size="8.00">Value</text>
</g>
<!-- ParameterType -->
<g id="ReusableTypeParameterType3" class="node"><title></title><ellipse fill="#f7b733" stroke="black" cx="62.3951" cy="-180" rx="40.0477" ry="18" style="filter: url(#dropshadow)"/>
<text text-anchor="middle" x="62.3951" y="-178.1" font-family="Times New Roman,serif" font-size="8.00">ParameterType</text>
</g>
<!-- ParameterType&#45;&gt;ValueType -->
<g id="edge12" class="edge"><title>ParameterType&#45;&gt;ValueType</title>
<path fill="none" stroke="black" d="M93.9302,-191.4C104.065,-195.708 115.202,-201.03 124.79,-207 196.87,-251.876 252.963,-340 274.835,-377.932"/>
<text text-anchor="middle" x="165.29" y="-260.6" font-family="Times New Roman,serif" font-size="8.00">DefaultValue</text>
</g>
<!-- RecordType -->
<g id="ReusableTypeRecordType4" class="node"><title></title><ellipse fill="#f7b733" stroke="black" cx="62.3951" cy="-126" rx="33.433" ry="18" style="filter: url(#dropshadow)"/>
<text text-anchor="middle" x="62.3951" y="-124.1" font-family="Times New Roman,serif" font-size="8.00">RecordType</text>
</g>
<!-- RecordType&#45;&gt;ValueType -->
<g id="edge13" class="edge"><title>RecordType&#45;&gt;ValueType</title>
<path fill="none" stroke="black" d="M90.6163,-135.829C101.625,-140.342 114.206,-146.209 124.79,-153 156.32,-173.231 164.782,-179.435 187.79,-209 231.254,-264.849 264.431,-343.108 278.04,-377.991"/>
<text text-anchor="middle" x="165.29" y="-211.6" font-family="Times New Roman,serif" font-size="8.00">Value</text>
</g>
<!-- UsedType -->
<g id="ReusableTypeUsedType5" class="node"><title></title><ellipse fill="#f7b733" stroke="black" cx="62.3951" cy="-72" rx="29.4917" ry="18" style="filter: url(#dropshadow)"/>
<text text-anchor="middle" x="62.3951" y="-70.1" font-family="Times New Roman,serif" font-size="8.00">UsedType</text>
</g>
<!-- UsedType&#45;&gt;ValueType -->
<g id="edge14" class="edge"><title>UsedType&#45;&gt;ValueType</title>
<path fill="none" stroke="black" d="M88.109,-80.9878C99.643,-85.6482 113.324,-91.8612 124.79,-99 155.853,-118.339 166.384,-122.324 187.79,-152 241.659,-226.682 270.91,-335.426 280.854,-377.979"/>
<text text-anchor="middle" x="165.29" y="-154.6" font-family="Times New Roman,serif" font-size="8.00">DefaultValue</text>
</g>
<!-- VariableItemType -->
<g id="ReusableTypeVariableItemType6" class="node"><title></title><ellipse fill="#f7b733" stroke="black" cx="62.3951" cy="-18" rx="45.2568" ry="18" style="filter: url(#dropshadow)"/>
<text text-anchor="middle" x="62.3951" y="-16.1" font-family="Times New Roman,serif" font-size="8.00">VariableItemType</text>
</g>
<!-- VariableItemType&#45;&gt;ValueType -->
<g id="edge15" class="edge"><title>VariableItemType&#45;&gt;ValueType</title>
<path fill="none" stroke="black" d="M96.3505,-30.1146C125.119,-42.4507 165.634,-64.4216 187.79,-97 251.471,-190.637 275.647,-328.918 282.522,-377.953"/>
<text text-anchor="middle" x="165.29" y="-99.6" font-family="Times New Roman,serif" font-size="8.00">Value</text>
</g>
</g>
</svg>
