<?xml version="1.0" encoding="UTF-8" standalone="no"?>
<!DOCTYPE svg PUBLIC "-//W3C//DTD SVG 1.1//EN"
 "http://www.w3.org/Graphics/SVG/1.1/DTD/svg11.dtd">
<!-- Generated by graphviz version 2.38.0 (20140413.2041)
 -->
<!-- Title: G Pages: 1 -->
<svg width="825pt" height="1394pt"
 viewBox="0.00 0.00 825.24 1394.00" xmlns="http://www.w3.org/2000/svg" xmlns:xlink="http://www.w3.org/1999/xlink">
<filter id = "dropshadow" height = "130%" ><feGaussianBlur in= "SourceAlpha" stdDeviation = "3"/><!--stdDeviation is how much to blur--><feOffset dx = "2" dy = "2" result = "offsetblur"/><!--how much to offset--><feMerge><feMergeNode/><!--this contains the offset blurred image--><feMergeNode in= "SourceGraphic"/><!--this contains the element that the filter is applied to --></feMerge></filter>
<g id="graph0" class="graph" transform="scale(1 1) rotate(0) translate(4 1390)">
<title>G</title>
<!-- Variable -->
<g id="ItemTypeVariable" class="node"><title></title><polygon fill="#f7b733" stroke="black" points="307.673,-648.5 307.673,-845.5 578.673,-845.5 578.673,-648.5 307.673,-648.5" style="filter: url(#dropshadow)"/>
<text text-anchor="middle" x="329.673" y="-745.1" font-family="Times New Roman,serif" font-size="8.00">Variable</text>
<polyline fill="none" stroke="black" points="351.673,-648.5 351.673,-845.5 "/>
<text text-anchor="start" x="359.673" y="-835.1" font-family="Times New Roman,serif" font-size="8.00">VariableName : NameType[0...n] </text>
<text text-anchor="start" x="359.673" y="-826.1" font-family="Times New Roman,serif" font-size="8.00">Label : LabelType[0...n] </text>
<text text-anchor="start" x="359.673" y="-817.1" font-family="Times New Roman,serif" font-size="8.00">Description : StructuredStringType[0...1] </text>
<text text-anchor="start" x="359.673" y="-808.1" font-family="Times New Roman,serif" font-size="8.00">OutParameter : ParameterType[0...1] </text>
<text text-anchor="start" x="359.673" y="-799.1" font-family="Times New Roman,serif" font-size="8.00">SourceParameterReference : ParameterType[0...1] </text>
<text text-anchor="start" x="359.673" y="-790.1" font-family="Times New Roman,serif" font-size="8.00">SourceVariableReference : Variable[0...n] </text>
<text text-anchor="start" x="359.673" y="-781.1" font-family="Times New Roman,serif" font-size="8.00">RepresentedVariableReference : RepresentedVariable[0...1] </text>
<text text-anchor="start" x="359.673" y="-772.1" font-family="Times New Roman,serif" font-size="8.00">ConceptualVariableReference : ConceptualVariable[0...1] </text>
<text text-anchor="start" x="359.673" y="-763.1" font-family="Times New Roman,serif" font-size="8.00">WeightingProcessReference : Weighting[0...1] </text>
<text text-anchor="start" x="359.673" y="-754.1" font-family="Times New Roman,serif" font-size="8.00">UniverseReference : Universe[0...n] </text>
<text text-anchor="start" x="359.673" y="-745.1" font-family="Times New Roman,serif" font-size="8.00">ConceptReference : Concept[0...1] </text>
<text text-anchor="start" x="359.673" y="-736.1" font-family="Times New Roman,serif" font-size="8.00">QuestionReference : Question[0...n] </text>
<text text-anchor="start" x="359.673" y="-727.1" font-family="Times New Roman,serif" font-size="8.00">MeasurementReference : MeasurementItem[0...n] </text>
<text text-anchor="start" x="359.673" y="-718.1" font-family="Times New Roman,serif" font-size="8.00">EmbargoReference : EmbargoType[0...1] </text>
<text text-anchor="start" x="359.673" y="-709.1" font-family="Times New Roman,serif" font-size="8.00">SourceUnit : CodeValueType[0...1] </text>
<text text-anchor="start" x="359.673" y="-700.1" font-family="Times New Roman,serif" font-size="8.00">AnalysisUnit : CodeValueType[0...1] </text>
<text text-anchor="start" x="359.673" y="-691.1" font-family="Times New Roman,serif" font-size="8.00">UnitTypeReference : UnitType[0...1] </text>
<text text-anchor="start" x="359.673" y="-682.1" font-family="Times New Roman,serif" font-size="8.00">VariableRepresentation : VariableRepresentationType[0...1] </text>
<text text-anchor="start" x="359.673" y="-673.1" font-family="Times New Roman,serif" font-size="8.00">IsTemporal : boolean[0...1] </text>
<text text-anchor="start" x="359.673" y="-664.1" font-family="Times New Roman,serif" font-size="8.00">IsGeographic : boolean[0...1] </text>
<text text-anchor="start" x="359.673" y="-655.1" font-family="Times New Roman,serif" font-size="8.00">IsWeight : boolean[0...1] </text>
</g>
<!-- Variable&#45;&gt;Variable -->
<g id="edge1" class="edge"><title>Variable&#45;&gt;Variable</title>
<path fill="none" stroke="black" d="M426.807,-845.586C429.872,-856.759 435.327,-864 443.173,-864 451.018,-864 456.473,-856.759 459.538,-845.586"/>
<text text-anchor="middle" x="443.173" y="-866.6" font-family="Times New Roman,serif" font-size="8.00">SourceVariableReference</text>
<text text-anchor="middle" x="451.538" y="-848.186" font-family="Times New Roman,serif" font-size="8.00">0...*</text>
<text text-anchor="middle" x="418.807" y="-848.186" font-family="Times New Roman,serif" font-size="8.00">0...*</text>
</g>
<!-- Variable&#45;&gt;Variable -->
<g id="edge12" class="edge"><title>Variable&#45;&gt;Variable</title>
<path fill="none" stroke="black" d="M405.741,-845.593C409.472,-866.715 421.949,-882 443.173,-882 464.396,-882 476.873,-866.715 480.604,-845.593"/>
<text text-anchor="middle" x="443.173" y="-884.6" font-family="Times New Roman,serif" font-size="8.00">SourceVariableReference</text>
<text text-anchor="middle" x="472.604" y="-848.193" font-family="Times New Roman,serif" font-size="8.00">0...*</text>
<text text-anchor="middle" x="397.741" y="-848.193" font-family="Times New Roman,serif" font-size="8.00">0...*</text>
</g>
<!-- RepresentedVariable -->
<g id="ItemTypeRepresentedVariable" class="node"><title></title><ellipse fill="#f7b733" stroke="black" cx="768.454" cy="-936" rx="48.5642" ry="18" style="filter: url(#dropshadow)"/>
<text text-anchor="middle" x="768.454" y="-934.1" font-family="Times New Roman,serif" font-size="8.00">RepresentedVariable</text>
</g>
<!-- Variable&#45;&gt;RepresentedVariable -->
<g id="edge2" class="edge"><title>Variable&#45;&gt;RepresentedVariable</title>
<path fill="none" stroke="black" d="M553.766,-845.649C567.708,-855.95 582.182,-865.678 596.673,-874 638.796,-898.193 692.042,-915.715 727.785,-925.837"/>
<text text-anchor="middle" x="649.173" y="-919.6" font-family="Times New Roman,serif" font-size="8.00">RepresentedVariableReference</text>
<text text-anchor="middle" x="719.785" y="-919.437" font-family="Times New Roman,serif" font-size="8.00">0...*</text>
<text text-anchor="middle" x="545.766" y="-848.249" font-family="Times New Roman,serif" font-size="8.00">0...*</text>
</g>
<!-- ConceptualVariable -->
<g id="ItemTypeConceptualVariable" class="node"><title></title><ellipse fill="#f7b733" stroke="black" cx="768.454" cy="-882" rx="47.16" ry="18" style="filter: url(#dropshadow)"/>
<text text-anchor="middle" x="768.454" y="-880.1" font-family="Times New Roman,serif" font-size="8.00">ConceptualVariable</text>
</g>
<!-- Variable&#45;&gt;ConceptualVariable -->
<g id="edge3" class="edge"><title>Variable&#45;&gt;ConceptualVariable</title>
<path fill="none" stroke="black" d="M578.865,-815.285C584.854,-817.954 590.808,-820.538 596.673,-823 642.082,-842.064 696.028,-859.936 730.96,-870.907"/>
<text text-anchor="middle" x="649.173" y="-863.6" font-family="Times New Roman,serif" font-size="8.00">ConceptualVariableReference</text>
<text text-anchor="middle" x="722.96" y="-864.507" font-family="Times New Roman,serif" font-size="8.00">0...*</text>
<text text-anchor="middle" x="586.865" y="-808.885" font-family="Times New Roman,serif" font-size="8.00">0...*</text>
</g>
<!-- Weighting -->
<g id="ItemTypeWeighting" class="node"><title></title><ellipse fill="#f7b733" stroke="black" cx="768.454" cy="-828" rx="30.1263" ry="18" style="filter: url(#dropshadow)"/>
<text text-anchor="middle" x="768.454" y="-826.1" font-family="Times New Roman,serif" font-size="8.00">Weighting</text>
</g>
<!-- Variable&#45;&gt;Weighting -->
<g id="edge4" class="edge"><title>Variable&#45;&gt;Weighting</title>
<path fill="none" stroke="black" d="M578.932,-780.765C639.224,-795.871 704.649,-812.264 740.376,-821.215"/>
<text text-anchor="middle" x="649.173" y="-812.6" font-family="Times New Roman,serif" font-size="8.00">WeightingProcessReference</text>
<text text-anchor="middle" x="732.376" y="-814.815" font-family="Times New Roman,serif" font-size="8.00">0...*</text>
<text text-anchor="middle" x="586.932" y="-774.365" font-family="Times New Roman,serif" font-size="8.00">0...*</text>
</g>
<!-- Universe -->
<g id="ItemTypeUniverse" class="node"><title></title><ellipse fill="#f7b733" stroke="black" cx="768.454" cy="-774" rx="27" ry="18" style="filter: url(#dropshadow)"/>
<text text-anchor="middle" x="768.454" y="-772.1" font-family="Times New Roman,serif" font-size="8.00">Universe</text>
</g>
<!-- Variable&#45;&gt;Universe -->
<g id="edge5" class="edge"><title>Variable&#45;&gt;Universe</title>
<path fill="none" stroke="black" d="M578.932,-758.255C639.917,-763.348 706.154,-768.88 741.596,-771.84"/>
<text text-anchor="middle" x="649.173" y="-770.6" font-family="Times New Roman,serif" font-size="8.00">UniverseReference</text>
<text text-anchor="middle" x="733.596" y="-765.44" font-family="Times New Roman,serif" font-size="8.00">0...*</text>
<text text-anchor="middle" x="586.932" y="-751.855" font-family="Times New Roman,serif" font-size="8.00">0...*</text>
</g>
<!-- Concept -->
<g id="ItemTypeConcept" class="node"><title></title><ellipse fill="#f7b733" stroke="black" cx="768.454" cy="-720" rx="27" ry="18" style="filter: url(#dropshadow)"/>
<text text-anchor="middle" x="768.454" y="-718.1" font-family="Times New Roman,serif" font-size="8.00">Concept</text>
</g>
<!-- Variable&#45;&gt;Concept -->
<g id="edge6" class="edge"><title>Variable&#45;&gt;Concept</title>
<path fill="none" stroke="black" d="M578.932,-735.745C639.917,-730.652 706.154,-725.12 741.596,-722.16"/>
<text text-anchor="middle" x="649.173" y="-735.6" font-family="Times New Roman,serif" font-size="8.00">ConceptReference</text>
<text text-anchor="middle" x="733.596" y="-715.76" font-family="Times New Roman,serif" font-size="8.00">0...*</text>
<text text-anchor="middle" x="586.932" y="-729.345" font-family="Times New Roman,serif" font-size="8.00">0...*</text>
</g>
<!-- Question -->
<g id="ItemTypeQuestion" class="node"><title></title><ellipse fill="#f7b733" stroke="black" cx="768.454" cy="-666" rx="27" ry="18" style="filter: url(#dropshadow)"/>
<text text-anchor="middle" x="768.454" y="-664.1" font-family="Times New Roman,serif" font-size="8.00">Question</text>
</g>
<!-- Variable&#45;&gt;Question -->
<g id="edge7" class="edge"><title>Variable&#45;&gt;Question</title>
<path fill="none" stroke="black" d="M578.932,-713.235C640.61,-697.782 707.66,-680.982 742.792,-672.179"/>
<text text-anchor="middle" x="649.173" y="-708.6" font-family="Times New Roman,serif" font-size="8.00">QuestionReference</text>
<text text-anchor="middle" x="734.792" y="-665.779" font-family="Times New Roman,serif" font-size="8.00">0...*</text>
<text text-anchor="middle" x="586.932" y="-706.835" font-family="Times New Roman,serif" font-size="8.00">0...*</text>
</g>
<!-- MeasurementItem -->
<g id="ItemTypeMeasurementItem" class="node"><title></title><ellipse fill="#f7b733" stroke="black" cx="768.454" cy="-612" rx="45.2568" ry="18" style="filter: url(#dropshadow)"/>
<text text-anchor="middle" x="768.454" y="-610.1" font-family="Times New Roman,serif" font-size="8.00">MeasurementItem</text>
</g>
<!-- Variable&#45;&gt;MeasurementItem -->
<g id="edge8" class="edge"><title>Variable&#45;&gt;MeasurementItem</title>
<path fill="none" stroke="black" d="M578.826,-677.752C584.825,-675.065 590.793,-672.468 596.673,-670 642.29,-650.849 696.652,-633.244 731.589,-622.572"/>
<text text-anchor="middle" x="649.173" y="-672.6" font-family="Times New Roman,serif" font-size="8.00">MeasurementReference</text>
<text text-anchor="middle" x="723.589" y="-625.172" font-family="Times New Roman,serif" font-size="8.00">0...*</text>
<text text-anchor="middle" x="586.826" y="-671.352" font-family="Times New Roman,serif" font-size="8.00">0...*</text>
</g>
<!-- UnitType -->
<g id="ItemTypeUnitType" class="node"><title></title><ellipse fill="#f7b733" stroke="black" cx="768.454" cy="-558" rx="28.8574" ry="18" style="filter: url(#dropshadow)"/>
<text text-anchor="middle" x="768.454" y="-556.1" font-family="Times New Roman,serif" font-size="8.00">UnitType</text>
</g>
<!-- Variable&#45;&gt;UnitType -->
<g id="edge9" class="edge"><title>Variable&#45;&gt;UnitType</title>
<path fill="none" stroke="black" d="M551.401,-648.224C566.039,-637.193 581.325,-626.787 596.673,-618 644.263,-590.753 706.325,-572.773 741.018,-564.087"/>
<text text-anchor="middle" x="649.173" y="-620.6" font-family="Times New Roman,serif" font-size="8.00">UnitTypeReference</text>
<text text-anchor="middle" x="733.018" y="-557.687" font-family="Times New Roman,serif" font-size="8.00">0...*</text>
<text text-anchor="middle" x="543.401" y="-641.824" font-family="Times New Roman,serif" font-size="8.00">0...*</text>
</g>
<!-- DataSet -->
<g id="ItemTypeDataSet0" class="node"><title></title><ellipse fill="#f7b733" stroke="black" cx="70.3363" cy="-1368" rx="27" ry="18" style="filter: url(#dropshadow)"/>
<text text-anchor="middle" x="70.3363" y="-1366.1" font-family="Times New Roman,serif" font-size="8.00">DataSet</text>
</g>
<!-- DataSet&#45;&gt;Variable -->
<g id="edge10" class="edge"><title>DataSet&#45;&gt;Variable</title>
<path fill="none" stroke="black" d="M96.6136,-1372.14C141.537,-1377.95 235.628,-1382.91 289.673,-1334 361.351,-1269.13 408.663,-995.312 429.685,-845.67"/>
<text text-anchor="middle" x="224.173" y="-1377.6" font-family="Times New Roman,serif" font-size="8.00">IdentifyingVariableReference</text>
<text text-anchor="middle" x="437.685" y="-848.27" font-family="Times New Roman,serif" font-size="8.00">0...*</text>
<text text-anchor="middle" x="104.614" y="-1365.74" font-family="Times New Roman,serif" font-size="8.00">0...*</text>
</g>
<!-- GenerationInstruction -->
<g id="ItemTypeGenerationInstruction1" class="node"><title></title><ellipse fill="#f7b733" stroke="black" cx="70.3363" cy="-1314" rx="52.5056" ry="18" style="filter: url(#dropshadow)"/>
<text text-anchor="middle" x="70.3363" y="-1312.1" font-family="Times New Roman,serif" font-size="8.00">GenerationInstruction</text>
</g>
<!-- GenerationInstruction&#45;&gt;Variable -->
<g id="edge11" class="edge"><title>GenerationInstruction&#45;&gt;Variable</title>
<path fill="none" stroke="black" d="M120.095,-1320.32C168.953,-1323.79 243.373,-1320.88 289.673,-1280 354.472,-1222.79 403.417,-983.452 426.854,-845.738"/>
<text text-anchor="middle" x="224.173" y="-1323.6" font-family="Times New Roman,serif" font-size="8.00">InputVariableReference</text>
<text text-anchor="middle" x="418.854" y="-839.338" font-family="Times New Roman,serif" font-size="8.00">0...*</text>
<text text-anchor="middle" x="128.095" y="-1313.92" font-family="Times New Roman,serif" font-size="8.00">0...*</text>
</g>
<!-- VariableGroup -->
<g id="ItemTypeVariableGroup2" class="node"><title></title><ellipse fill="#f7b733" stroke="black" cx="70.3363" cy="-1260" rx="36.7401" ry="18" style="filter: url(#dropshadow)"/>
<text text-anchor="middle" x="70.3363" y="-1258.1" font-family="Times New Roman,serif" font-size="8.00">VariableGroup</text>
</g>
<!-- VariableGroup&#45;&gt;Variable -->
<g id="edge13" class="edge"><title>VariableGroup&#45;&gt;Variable</title>
<path fill="none" stroke="black" d="M105.736,-1265.06C152.968,-1269.96 237.918,-1271.18 289.673,-1227 400.9,-1132.05 431.884,-956.291 439.999,-845.836"/>
<text text-anchor="middle" x="224.173" y="-1269.6" font-family="Times New Roman,serif" font-size="8.00">VariableReference</text>
<text text-anchor="middle" x="447.999" y="-839.436" font-family="Times New Roman,serif" font-size="8.00">0...*</text>
<text text-anchor="middle" x="113.736" y="-1258.66" font-family="Times New Roman,serif" font-size="8.00">0...*</text>
</g>
<!-- VariableScheme -->
<g id="ItemTypeVariableScheme3" class="node"><title></title><ellipse fill="#f7b733" stroke="black" cx="70.3363" cy="-1206" rx="40.0477" ry="18" style="filter: url(#dropshadow)"/>
<text text-anchor="middle" x="70.3363" y="-1204.1" font-family="Times New Roman,serif" font-size="8.00">VariableScheme</text>
</g>
<!-- VariableScheme&#45;&gt;Variable -->
<g id="edge14" class="edge"><title>VariableScheme&#45;&gt;Variable</title>
<path fill="none" stroke="black" d="M108.703,-1211.71C156.194,-1216.78 238.175,-1217.89 289.673,-1176 388.856,-1095.32 423.585,-945.327 435.713,-845.821"/>
<text text-anchor="middle" x="224.173" y="-1216.6" font-family="Times New Roman,serif" font-size="8.00">VariableReference</text>
<text text-anchor="middle" x="427.713" y="-848.421" font-family="Times New Roman,serif" font-size="8.00">0...*</text>
<text text-anchor="middle" x="116.703" y="-1205.31" font-family="Times New Roman,serif" font-size="8.00">0...*</text>
</g>
<!-- VariableStatistics -->
<g id="ItemTypeVariableStatistics4" class="node"><title></title><ellipse fill="#f7b733" stroke="black" cx="70.3363" cy="-1152" rx="42.5843" ry="18" style="filter: url(#dropshadow)"/>
<text text-anchor="middle" x="70.3363" y="-1150.1" font-family="Times New Roman,serif" font-size="8.00">VariableStatistics</text>
</g>
<!-- VariableStatistics&#45;&gt;Variable -->
<g id="edge15" class="edge"><title>VariableStatistics&#45;&gt;Variable</title>
<path fill="none" stroke="black" d="M109.533,-1159.19C156.778,-1165.82 237.354,-1169.46 289.673,-1130 378.815,-1062.77 415.944,-935.258 431.349,-845.893"/>
<text text-anchor="middle" x="224.173" y="-1165.6" font-family="Times New Roman,serif" font-size="8.00">VariableReference</text>
<text text-anchor="middle" x="423.349" y="-839.493" font-family="Times New Roman,serif" font-size="8.00">0...*</text>
<text text-anchor="middle" x="117.533" y="-1152.79" font-family="Times New Roman,serif" font-size="8.00">0...*</text>
</g>
<!-- VariableStatistics&#45;&gt;Variable -->
<g id="edge16" class="edge"><title>VariableStatistics&#45;&gt;Variable</title>
<path fill="none" stroke="black" d="M102.065,-1139.67C118.626,-1133.39 139.535,-1126.04 158.673,-1121 215.837,-1105.95 243.242,-1134.59 289.673,-1098 368.082,-1036.22 406.984,-926.047 425.743,-845.572"/>
<text text-anchor="middle" x="224.173" y="-1123.6" font-family="Times New Roman,serif" font-size="8.00">WeightVariableReference</text>
<text text-anchor="middle" x="433.743" y="-848.172" font-family="Times New Roman,serif" font-size="8.00">0...*</text>
<text text-anchor="middle" x="110.065" y="-1133.27" font-family="Times New Roman,serif" font-size="8.00">0...*</text>
</g>
<!-- AggregationVariablesType -->
<g id="ReusableTypeAggregationVariablesType5" class="node"><title></title><ellipse fill="#f7b733" stroke="black" cx="70.3363" cy="-1098" rx="61.0222" ry="18" style="filter: url(#dropshadow)"/>
<text text-anchor="middle" x="70.3363" y="-1096.1" font-family="Times New Roman,serif" font-size="8.00">AggregationVariablesType</text>
</g>
<!-- AggregationVariablesType&#45;&gt;Variable -->
<g id="edge17" class="edge"><title>AggregationVariablesType&#45;&gt;Variable</title>
<path fill="none" stroke="black" d="M127.035,-1091.16C189.541,-1083.28 283.139,-1070.82 289.673,-1066 361.197,-1013.28 400.593,-918.191 421.327,-845.502"/>
<text text-anchor="middle" x="224.173" y="-1088.6" font-family="Times New Roman,serif" font-size="8.00">IndependentVariableReference</text>
<text text-anchor="middle" x="413.327" y="-848.102" font-family="Times New Roman,serif" font-size="8.00">0...*</text>
<text text-anchor="middle" x="135.035" y="-1084.76" font-family="Times New Roman,serif" font-size="8.00">0...*</text>
</g>
<!-- AggregationVariablesType&#45;&gt;Variable -->
<g id="edge18" class="edge"><title>AggregationVariablesType&#45;&gt;Variable</title>
<path fill="none" stroke="black" d="M111.483,-1084.64C121.289,-1080.76 131.572,-1076.16 140.673,-1071 149.487,-1066 149.408,-1061.11 158.673,-1057 212.71,-1033.04 241.841,-1068.73 289.673,-1034 352.335,-988.495 391.641,-909.289 414.623,-845.598"/>
<text text-anchor="middle" x="224.173" y="-1059.6" font-family="Times New Roman,serif" font-size="8.00">DependentVariableReference</text>
<text text-anchor="middle" x="406.623" y="-839.198" font-family="Times New Roman,serif" font-size="8.00">0...*</text>
<text text-anchor="middle" x="103.483" y="-1078.24" font-family="Times New Roman,serif" font-size="8.00">0...*</text>
</g>
<!-- AttributeType -->
<g id="ReusableTypeAttributeType6" class="node"><title></title><ellipse fill="#f7b733" stroke="black" cx="70.3363" cy="-1044" rx="38.0086" ry="18" style="filter: url(#dropshadow)"/>
<text text-anchor="middle" x="70.3363" y="-1042.1" font-family="Times New Roman,serif" font-size="8.00">AttributeType</text>
</g>
<!-- AttributeType&#45;&gt;Variable -->
<g id="edge19" class="edge"><title>AttributeType&#45;&gt;Variable</title>
<path fill="none" stroke="black" d="M104.875,-1036.43C121.099,-1032.84 140.871,-1028.57 158.673,-1025 216.711,-1013.37 241.009,-1034.7 289.673,-1001 343.905,-963.447 382.073,-899.772 406.661,-845.573"/>
<text text-anchor="middle" x="224.173" y="-1027.6" font-family="Times New Roman,serif" font-size="8.00">VariableReference</text>
<text text-anchor="middle" x="398.661" y="-848.173" font-family="Times New Roman,serif" font-size="8.00">0...*</text>
<text text-anchor="middle" x="112.875" y="-1030.03" font-family="Times New Roman,serif" font-size="8.00">0...*</text>
</g>
<!-- CaseSpecificationType -->
<g id="ReusableTypeCaseSpecificationType7" class="node"><title></title><ellipse fill="#f7b733" stroke="black" cx="70.3363" cy="-990" rx="54.4078" ry="18" style="filter: url(#dropshadow)"/>
<text text-anchor="middle" x="70.3363" y="-988.1" font-family="Times New Roman,serif" font-size="8.00">CaseSpecificationType</text>
</g>
<!-- CaseSpecificationType&#45;&gt;Variable -->
<g id="edge20" class="edge"><title>CaseSpecificationType&#45;&gt;Variable</title>
<path fill="none" stroke="black" d="M124.989,-989.68C180.485,-988.464 262.735,-983.914 289.673,-968 337.133,-939.962 373.286,-890.673 398.452,-845.747"/>
<text text-anchor="middle" x="224.173" y="-990.6" font-family="Times New Roman,serif" font-size="8.00">ConditionalVariableReference</text>
<text text-anchor="middle" x="390.452" y="-839.347" font-family="Times New Roman,serif" font-size="8.00">0...*</text>
<text text-anchor="middle" x="132.989" y="-983.28" font-family="Times New Roman,serif" font-size="8.00">0...*</text>
</g>
<!-- CaseSpecificationType&#45;&gt;Variable -->
<g id="edge21" class="edge"><title>CaseSpecificationType&#45;&gt;Variable</title>
<path fill="none" stroke="black" d="M106.27,-976.423C122.112,-970.572 141.179,-963.951 158.673,-959 215.959,-942.786 238.75,-961.848 289.673,-931 324.804,-909.718 355.57,-877.379 380.093,-845.717"/>
<text text-anchor="middle" x="224.173" y="-961.6" font-family="Times New Roman,serif" font-size="8.00">VariableReference</text>
<text text-anchor="middle" x="372.093" y="-848.317" font-family="Times New Roman,serif" font-size="8.00">0...*</text>
<text text-anchor="middle" x="98.2697" y="-970.023" font-family="Times New Roman,serif" font-size="8.00">0...*</text>
</g>
<!-- ConcatenatedValueType -->
<g id="ReusableTypeConcatenatedValueType8" class="node"><title></title><ellipse fill="#f7b733" stroke="black" cx="70.3363" cy="-936" rx="57.0809" ry="18" style="filter: url(#dropshadow)"/>
<text text-anchor="middle" x="70.3363" y="-934.1" font-family="Times New Roman,serif" font-size="8.00">ConcatenatedValueType</text>
</g>
<!-- ConcatenatedValueType&#45;&gt;Variable -->
<g id="edge22" class="edge"><title>ConcatenatedValueType&#45;&gt;Variable</title>
<path fill="none" stroke="black" d="M121.223,-927.65C166.961,-918.622 235.595,-901.548 289.673,-873 304.555,-865.144 319.326,-855.679 333.485,-845.509"/>
<text text-anchor="middle" x="224.173" y="-920.6" font-family="Times New Roman,serif" font-size="8.00">VariableReference</text>
<text text-anchor="middle" x="325.485" y="-848.109" font-family="Times New Roman,serif" font-size="8.00">0...*</text>
<text text-anchor="middle" x="129.223" y="-921.25" font-family="Times New Roman,serif" font-size="8.00">0...*</text>
</g>
<!-- DataItemPType -->
<g id="ReusableTypeDataItemPType9" class="node"><title></title><ellipse fill="#f7b733" stroke="black" cx="70.3363" cy="-882" rx="41.9498" ry="18" style="filter: url(#dropshadow)"/>
<text text-anchor="middle" x="70.3363" y="-880.1" font-family="Times New Roman,serif" font-size="8.00">DataItemPType</text>
</g>
<!-- DataItemPType&#45;&gt;Variable -->
<g id="edge23" class="edge"><title>DataItemPType&#45;&gt;Variable</title>
<path fill="none" stroke="black" d="M107.906,-873.907C151.798,-863.712 227.288,-844.632 289.673,-821 295.589,-818.759 301.588,-816.372 307.613,-813.88"/>
<text text-anchor="middle" x="224.173" y="-862.6" font-family="Times New Roman,serif" font-size="8.00">VariableReference</text>
<text text-anchor="middle" x="299.613" y="-807.48" font-family="Times New Roman,serif" font-size="8.00">0...*</text>
<text text-anchor="middle" x="115.906" y="-867.507" font-family="Times New Roman,serif" font-size="8.00">0...*</text>
</g>
<!-- DataItemType -->
<g id="ReusableTypeDataItemType0" class="node"><title></title><ellipse fill="#f7b733" stroke="black" cx="70.3363" cy="-828" rx="38.6432" ry="18" style="filter: url(#dropshadow)"/>
<text text-anchor="middle" x="70.3363" y="-826.1" font-family="Times New Roman,serif" font-size="8.00">DataItemType</text>
</g>
<!-- DataItemType&#45;&gt;Variable -->
<g id="edge24" class="edge"><title>DataItemType&#45;&gt;Variable</title>
<path fill="none" stroke="black" d="M105.559,-820.525C151.282,-810.538 234.957,-792.261 307.44,-776.429"/>
<text text-anchor="middle" x="224.173" y="-810.6" font-family="Times New Roman,serif" font-size="8.00">VariableReference</text>
<text text-anchor="middle" x="299.44" y="-770.029" font-family="Times New Roman,serif" font-size="8.00">0...*</text>
<text text-anchor="middle" x="113.559" y="-814.125" font-family="Times New Roman,serif" font-size="8.00">0...*</text>
</g>
<!-- DimensionRankValueType -->
<g id="ReusableTypeDimensionRankValueType1" class="node"><title></title><ellipse fill="#f7b733" stroke="black" cx="70.3363" cy="-774" rx="62.2904" ry="18" style="filter: url(#dropshadow)"/>
<text text-anchor="middle" x="70.3363" y="-772.1" font-family="Times New Roman,serif" font-size="8.00">DimensionRankValueType</text>
</g>
<!-- DimensionRankValueType&#45;&gt;Variable -->
<g id="edge25" class="edge"><title>DimensionRankValueType&#45;&gt;Variable</title>
<path fill="none" stroke="black" d="M130.918,-769.662C178.417,-766.204 246.778,-761.226 307.342,-756.817"/>
<text text-anchor="middle" x="224.173" y="-769.6" font-family="Times New Roman,serif" font-size="8.00">VariableReference</text>
<text text-anchor="middle" x="299.342" y="-750.417" font-family="Times New Roman,serif" font-size="8.00">0...*</text>
<text text-anchor="middle" x="138.918" y="-763.262" font-family="Times New Roman,serif" font-size="8.00">0...*</text>
</g>
<!-- DimensionType -->
<g id="ReusableTypeDimensionType2" class="node"><title></title><ellipse fill="#f7b733" stroke="black" cx="70.3363" cy="-720" rx="41.3155" ry="18" style="filter: url(#dropshadow)"/>
<text text-anchor="middle" x="70.3363" y="-718.1" font-family="Times New Roman,serif" font-size="8.00">DimensionType</text>
</g>
<!-- DimensionType&#45;&gt;Variable -->
<g id="edge26" class="edge"><title>DimensionType&#45;&gt;Variable</title>
<path fill="none" stroke="black" d="M111.375,-722.915C158.102,-726.317 237.842,-732.123 307.324,-737.182"/>
<text text-anchor="middle" x="224.173" y="-737.6" font-family="Times New Roman,serif" font-size="8.00">VariableReference</text>
<text text-anchor="middle" x="299.324" y="-730.782" font-family="Times New Roman,serif" font-size="8.00">0...*</text>
<text text-anchor="middle" x="119.375" y="-716.515" font-family="Times New Roman,serif" font-size="8.00">0...*</text>
</g>
<!-- FilteredCategoryStatisticsType -->
<g id="ReusableTypeFilteredCategoryStatisticsType3" class="node"><title></title><ellipse fill="#f7b733" stroke="black" cx="70.3363" cy="-666" rx="70.173" ry="18" style="filter: url(#dropshadow)"/>
<text text-anchor="middle" x="70.3363" y="-664.1" font-family="Times New Roman,serif" font-size="8.00">FilteredCategoryStatisticsType</text>
</g>
<!-- FilteredCategoryStatisticsType&#45;&gt;Variable -->
<g id="edge27" class="edge"><title>FilteredCategoryStatisticsType&#45;&gt;Variable</title>
<path fill="none" stroke="black" d="M125.196,-677.479C169.401,-686.928 233.617,-700.718 289.673,-713 295.502,-714.277 301.456,-715.586 307.469,-716.912"/>
<text text-anchor="middle" x="224.173" y="-715.6" font-family="Times New Roman,serif" font-size="8.00">FilterVariableReference</text>
<text text-anchor="middle" x="299.469" y="-710.512" font-family="Times New Roman,serif" font-size="8.00">0...*</text>
<text text-anchor="middle" x="117.196" y="-680.079" font-family="Times New Roman,serif" font-size="8.00">0...*</text>
</g>
<!-- FixedIdentifierType -->
<g id="ReusableTypeFixedIdentifierType4" class="node"><title></title><ellipse fill="#f7b733" stroke="black" cx="70.3363" cy="-612" rx="48.5642" ry="18" style="filter: url(#dropshadow)"/>
<text text-anchor="middle" x="70.3363" y="-610.1" font-family="Times New Roman,serif" font-size="8.00">FixedIdentifierType</text>
</g>
<!-- FixedIdentifierType&#45;&gt;Variable -->
<g id="edge28" class="edge"><title>FixedIdentifierType&#45;&gt;Variable</title>
<path fill="none" stroke="black" d="M113.157,-620.701C157.687,-630.563 229.844,-648.266 289.673,-671 295.48,-673.207 301.36,-675.562 307.263,-678.028"/>
<text text-anchor="middle" x="224.173" y="-673.6" font-family="Times New Roman,serif" font-size="8.00">VariableReference</text>
<text text-anchor="middle" x="299.263" y="-671.628" font-family="Times New Roman,serif" font-size="8.00">0...*</text>
<text text-anchor="middle" x="121.157" y="-614.301" font-family="Times New Roman,serif" font-size="8.00">0...*</text>
</g>
<!-- GeographicCoverageType -->
<g id="ReusableTypeGeographicCoverageType5" class="node"><title></title><ellipse fill="#f7b733" stroke="black" cx="70.3363" cy="-558" rx="60.8874" ry="18" style="filter: url(#dropshadow)"/>
<text text-anchor="middle" x="70.3363" y="-556.1" font-family="Times New Roman,serif" font-size="8.00">GeographicCoverageType</text>
</g>
<!-- GeographicCoverageType&#45;&gt;Variable -->
<g id="edge29" class="edge"><title>GeographicCoverageType&#45;&gt;Variable</title>
<path fill="none" stroke="black" d="M124.414,-566.29C170.149,-574.926 236.933,-591.183 289.673,-619 305.418,-627.305 321,-637.448 335.847,-648.355"/>
<text text-anchor="middle" x="224.173" y="-621.6" font-family="Times New Roman,serif" font-size="8.00">GeographyStructureVariableReference</text>
<text text-anchor="middle" x="327.847" y="-641.955" font-family="Times New Roman,serif" font-size="8.00">0...*</text>
<text text-anchor="middle" x="132.414" y="-559.89" font-family="Times New Roman,serif" font-size="8.00">0...*</text>
</g>
<!-- ItemValueType -->
<g id="ReusableTypeItemValueType6" class="node"><title></title><ellipse fill="#f7b733" stroke="black" cx="70.3363" cy="-504" rx="40.0477" ry="18" style="filter: url(#dropshadow)"/>
<text text-anchor="middle" x="70.3363" y="-502.1" font-family="Times New Roman,serif" font-size="8.00">ItemValueType</text>
</g>
<!-- ItemValueType&#45;&gt;Variable -->
<g id="edge30" class="edge"><title>ItemValueType&#45;&gt;Variable</title>
<path fill="none" stroke="black" d="M110.121,-506.858C156.17,-511.807 233.757,-525.183 289.673,-561 324.484,-583.298 355.177,-616.167 379.732,-648.095"/>
<text text-anchor="middle" x="224.173" y="-563.6" font-family="Times New Roman,serif" font-size="8.00">VariableReference</text>
<text text-anchor="middle" x="371.732" y="-641.695" font-family="Times New Roman,serif" font-size="8.00">0...*</text>
<text text-anchor="middle" x="118.121" y="-500.458" font-family="Times New Roman,serif" font-size="8.00">0...*</text>
</g>
<!-- MeasureDefinitionType -->
<g id="ReusableTypeMeasureDefinitionType7" class="node"><title></title><ellipse fill="#f7b733" stroke="black" cx="70.3363" cy="-450" rx="56.9465" ry="18" style="filter: url(#dropshadow)"/>
<text text-anchor="middle" x="70.3363" y="-448.1" font-family="Times New Roman,serif" font-size="8.00">MeasureDefinitionType</text>
</g>
<!-- MeasureDefinitionType&#45;&gt;Variable -->
<g id="edge31" class="edge"><title>MeasureDefinitionType&#45;&gt;Variable</title>
<path fill="none" stroke="black" d="M127.3,-451.401C174.542,-455.136 241.925,-466.72 289.673,-501 340.696,-537.632 378.251,-597.141 403.325,-648.453"/>
<text text-anchor="middle" x="224.173" y="-503.6" font-family="Times New Roman,serif" font-size="8.00">VariableReference</text>
<text text-anchor="middle" x="395.325" y="-642.053" font-family="Times New Roman,serif" font-size="8.00">0...*</text>
<text text-anchor="middle" x="135.3" y="-445.001" font-family="Times New Roman,serif" font-size="8.00">0...*</text>
</g>
<!-- PhysicalRecordSegmentType -->
<g id="ReusableTypePhysicalRecordSegmentType8" class="node"><title></title><ellipse fill="#f7b733" stroke="black" cx="70.3363" cy="-396" rx="66.8659" ry="18" style="filter: url(#dropshadow)"/>
<text text-anchor="middle" x="70.3363" y="-394.1" font-family="Times New Roman,serif" font-size="8.00">PhysicalRecordSegmentType</text>
</g>
<!-- PhysicalRecordSegmentType&#45;&gt;Variable -->
<g id="edge32" class="edge"><title>PhysicalRecordSegmentType&#45;&gt;Variable</title>
<path fill="none" stroke="black" d="M137.258,-395.273C184.154,-397.984 246.283,-408.505 289.673,-442 355.632,-492.917 395.161,-580.042 417.383,-648.169"/>
<text text-anchor="middle" x="224.173" y="-444.6" font-family="Times New Roman,serif" font-size="8.00">KeyVariableReference</text>
<text text-anchor="middle" x="425.383" y="-641.769" font-family="Times New Roman,serif" font-size="8.00">0...*</text>
<text text-anchor="middle" x="145.258" y="-388.873" font-family="Times New Roman,serif" font-size="8.00">0...*</text>
</g>
<!-- SourceTargetLinkType -->
<g id="ReusableTypeSourceTargetLinkType9" class="node"><title></title><ellipse fill="#f7b733" stroke="black" cx="70.3363" cy="-342" rx="55.6769" ry="18" style="filter: url(#dropshadow)"/>
<text text-anchor="middle" x="70.3363" y="-340.1" font-family="Times New Roman,serif" font-size="8.00">SourceTargetLinkType</text>
</g>
<!-- SourceTargetLinkType&#45;&gt;Variable -->
<g id="edge33" class="edge"><title>SourceTargetLinkType&#45;&gt;Variable</title>
<path fill="none" stroke="black" d="M121.48,-349.104C181.831,-358.044 276.726,-373.497 289.673,-384 370.362,-449.458 408.995,-565.157 427.067,-648.358"/>
<text text-anchor="middle" x="224.173" y="-386.6" font-family="Times New Roman,serif" font-size="8.00">SourceLinkVariableReference</text>
<text text-anchor="middle" x="435.067" y="-641.958" font-family="Times New Roman,serif" font-size="8.00">0...*</text>
<text text-anchor="middle" x="129.48" y="-342.704" font-family="Times New Roman,serif" font-size="8.00">0...*</text>
</g>
<!-- SourceTargetLinkType&#45;&gt;Variable -->
<g id="edge34" class="edge"><title>SourceTargetLinkType&#45;&gt;Variable</title>
<path fill="none" stroke="black" d="M111.201,-329.709C158.299,-317.787 236.907,-306.339 289.673,-343 388.335,-411.549 423.233,-552.584 435.537,-648.495"/>
<text text-anchor="middle" x="224.173" y="-345.6" font-family="Times New Roman,serif" font-size="8.00">TargetLinkVariableReference</text>
<text text-anchor="middle" x="443.537" y="-642.095" font-family="Times New Roman,serif" font-size="8.00">0...*</text>
<text text-anchor="middle" x="119.201" y="-323.309" font-family="Times New Roman,serif" font-size="8.00">0...*</text>
</g>
<!-- VariableAttributeType -->
<g id="ReusableTypeVariableAttributeType0" class="node"><title></title><ellipse fill="#f7b733" stroke="black" cx="70.3363" cy="-288" rx="53.7736" ry="18" style="filter: url(#dropshadow)"/>
<text text-anchor="middle" x="70.3363" y="-286.1" font-family="Times New Roman,serif" font-size="8.00">VariableAttributeType</text>
</g>
<!-- VariableAttributeType&#45;&gt;Variable -->
<g id="edge35" class="edge"><title>VariableAttributeType&#45;&gt;Variable</title>
<path fill="none" stroke="black" d="M116.112,-278.302C164.149,-270.635 240.192,-266.746 289.673,-305 394.994,-386.426 427.959,-544.922 438.049,-648.325"/>
<text text-anchor="middle" x="224.173" y="-307.6" font-family="Times New Roman,serif" font-size="8.00">VariableReference</text>
<text text-anchor="middle" x="430.049" y="-650.925" font-family="Times New Roman,serif" font-size="8.00">0...*</text>
<text text-anchor="middle" x="124.112" y="-271.902" font-family="Times New Roman,serif" font-size="8.00">0...*</text>
</g>
<!-- VariableItemType -->
<g id="ReusableTypeVariableItemType1" class="node"><title></title><ellipse fill="#f7b733" stroke="black" cx="70.3363" cy="-234" rx="45.2568" ry="18" style="filter: url(#dropshadow)"/>
<text text-anchor="middle" x="70.3363" y="-232.1" font-family="Times New Roman,serif" font-size="8.00">VariableItemType</text>
</g>
<!-- VariableItemType&#45;&gt;Variable -->
<g id="edge36" class="edge"><title>VariableItemType&#45;&gt;Variable</title>
<path fill="none" stroke="black" d="M112.222,-226.743C160.315,-220.67 239.891,-218.668 289.673,-260 404.445,-355.292 434.212,-535.905 441.143,-648.383"/>
<text text-anchor="middle" x="224.173" y="-262.6" font-family="Times New Roman,serif" font-size="8.00">VariableReference</text>
<text text-anchor="middle" x="449.143" y="-641.983" font-family="Times New Roman,serif" font-size="8.00">0...*</text>
<text text-anchor="middle" x="120.222" y="-220.343" font-family="Times New Roman,serif" font-size="8.00">0...*</text>
</g>
<!-- VariableOrderType -->
<g id="ReusableTypeVariableOrderType2" class="node"><title></title><ellipse fill="#f7b733" stroke="black" cx="70.3363" cy="-180" rx="47.16" ry="18" style="filter: url(#dropshadow)"/>
<text text-anchor="middle" x="70.3363" y="-178.1" font-family="Times New Roman,serif" font-size="8.00">VariableOrderType</text>
</g>
<!-- VariableOrderType&#45;&gt;Variable -->
<g id="edge37" class="edge"><title>VariableOrderType&#45;&gt;Variable</title>
<path fill="none" stroke="black" d="M114.23,-173.207C162.752,-168.095 241.293,-167.967 289.673,-210 355.516,-267.207 404.161,-509.451 427.241,-648.242"/>
<text text-anchor="middle" x="224.173" y="-212.6" font-family="Times New Roman,serif" font-size="8.00">VariableReference</text>
<text text-anchor="middle" x="419.241" y="-641.842" font-family="Times New Roman,serif" font-size="8.00">0...*</text>
<text text-anchor="middle" x="122.23" y="-166.807" font-family="Times New Roman,serif" font-size="8.00">0...*</text>
</g>
<!-- VariableRepresentationType -->
<g id="ReusableTypeVariableRepresentationType3" class="node"><title></title><ellipse fill="#f7b733" stroke="black" cx="70.3363" cy="-126" rx="65.5975" ry="18" style="filter: url(#dropshadow)"/>
<text text-anchor="middle" x="70.3363" y="-124.1" font-family="Times New Roman,serif" font-size="8.00">VariableRepresentationType</text>
</g>
<!-- VariableRepresentationType&#45;&gt;Variable -->
<g id="edge38" class="edge"><title>VariableRepresentationType&#45;&gt;Variable</title>
<path fill="none" stroke="black" d="M129.645,-117.922C178.354,-114.609 246.572,-118.471 289.673,-157 362.189,-221.824 409.209,-497.908 429.947,-648.329"/>
<text text-anchor="middle" x="224.173" y="-159.6" font-family="Times New Roman,serif" font-size="8.00">WeightVariableReference</text>
<text text-anchor="middle" x="421.947" y="-650.929" font-family="Times New Roman,serif" font-size="8.00">0...*</text>
<text text-anchor="middle" x="137.645" y="-111.522" font-family="Times New Roman,serif" font-size="8.00">0...*</text>
</g>
<!-- VariablesInRecordType -->
<g id="ReusableTypeVariablesInRecordType4" class="node"><title></title><ellipse fill="#f7b733" stroke="black" cx="70.3363" cy="-72" rx="55.6769" ry="18" style="filter: url(#dropshadow)"/>
<text text-anchor="middle" x="70.3363" y="-70.1" font-family="Times New Roman,serif" font-size="8.00">VariablesInRecordType</text>
</g>
<!-- VariablesInRecordType&#45;&gt;Variable -->
<g id="edge39" class="edge"><title>VariablesInRecordType&#45;&gt;Variable</title>
<path fill="none" stroke="black" d="M121.353,-64.6552C170.489,-60.4426 244.478,-62.5901 289.673,-104 368.87,-176.565 413.799,-486.988 432.22,-648.486"/>
<text text-anchor="middle" x="224.173" y="-106.6" font-family="Times New Roman,serif" font-size="8.00">VariableUsedReference</text>
<text text-anchor="middle" x="440.22" y="-651.086" font-family="Times New Roman,serif" font-size="8.00">0...*</text>
<text text-anchor="middle" x="129.353" y="-58.2552" font-family="Times New Roman,serif" font-size="8.00">0...*</text>
</g>
<!-- VariableValueReferenceType -->
<g id="ReusableTypeVariableValueReferenceType5" class="node"><title></title><ellipse fill="#f7b733" stroke="black" cx="70.3363" cy="-18" rx="65.5975" ry="18" style="filter: url(#dropshadow)"/>
<text text-anchor="middle" x="70.3363" y="-16.1" font-family="Times New Roman,serif" font-size="8.00">VariableValueReferenceType</text>
</g>
<!-- VariableValueReferenceType&#45;&gt;Variable -->
<g id="edge40" class="edge"><title>VariableValueReferenceType&#45;&gt;Variable</title>
<path fill="none" stroke="black" d="M129.558,-9.85651C178.55,-6.47766 247.223,-10.4178 289.673,-50 375.794,-130.305 418.109,-475.771 434.184,-648.247"/>
<text text-anchor="middle" x="224.173" y="-52.6" font-family="Times New Roman,serif" font-size="8.00">VariableReference</text>
<text text-anchor="middle" x="442.184" y="-641.847" font-family="Times New Roman,serif" font-size="8.00">0...*</text>
<text text-anchor="middle" x="137.558" y="-12.4565" font-family="Times New Roman,serif" font-size="8.00">0...*</text>
</g>
</g>
</svg>
