<?xml version="1.0" encoding="UTF-8" standalone="no"?>
<!DOCTYPE svg PUBLIC "-//W3C//DTD SVG 1.1//EN"
 "http://www.w3.org/Graphics/SVG/1.1/DTD/svg11.dtd">
<!-- Generated by graphviz version 2.38.0 (20140413.2041)
 -->
<!-- Title: G Pages: 1 -->
<svg width="1591pt" height="360pt"
 viewBox="0.00 0.00 1590.93 360.00" xmlns="http://www.w3.org/2000/svg" xmlns:xlink="http://www.w3.org/1999/xlink">
<filter id = "dropshadow" height = "130%" ><feGaussianBlur in= "SourceAlpha" stdDeviation = "3"/><!--stdDeviation is how much to blur--><feOffset dx = "2" dy = "2" result = "offsetblur"/><!--how much to offset--><feMerge><feMergeNode/><!--this contains the offset blurred image--><feMergeNode in= "SourceGraphic"/><!--this contains the element that the filter is applied to --></feMerge></filter>
<g id="graph0" class="graph" transform="scale(1 1) rotate(0) translate(4 356)">
<title>G</title>
<g id="clust1" class="cluster"><title>clusterGenericMap</title>
<polygon fill="#4abdac" stroke="black" points="176.933,-8 176.933,-344 1574.93,-344 1574.93,-8 176.933,-8" style="filter: url(#dropshadow)"/>
<text text-anchor="middle" x="875.933" y="-333.6" font-family="Times New Roman,serif" font-size="8.00">GenericMap</text>
</g>
<!-- GenericMapProperties -->
<g id="ItemTypeGenericMapProperties" class="node"><title></title><polygon fill="#f7b733" stroke="black" points="184.933,-128.5 184.933,-199.5 448.933,-199.5 448.933,-128.5 184.933,-128.5" style="filter: url(#dropshadow)"/>
<text text-anchor="middle" x="211.433" y="-162.1" font-family="Times New Roman,serif" font-size="8.00">Properties</text>
<polyline fill="none" stroke="black" points="237.933,-128.5 237.933,-199.5 "/>
<text text-anchor="start" x="245.933" y="-189.1" font-family="Times New Roman,serif" font-size="8.00">MapName : NameType[0...n] </text>
<text text-anchor="start" x="245.933" y="-180.1" font-family="Times New Roman,serif" font-size="8.00">Label : LabelType[0...n] </text>
<text text-anchor="start" x="245.933" y="-171.1" font-family="Times New Roman,serif" font-size="8.00">Description : StructuredStringType[0...1] </text>
<text text-anchor="start" x="245.933" y="-162.1" font-family="Times New Roman,serif" font-size="8.00">SourceSchemeReference : SchemeReferenceType[0...1] </text>
<text text-anchor="start" x="245.933" y="-153.1" font-family="Times New Roman,serif" font-size="8.00">TargetSchemeReference : SchemeReferenceType[0...1] </text>
<text text-anchor="start" x="245.933" y="-144.1" font-family="Times New Roman,serif" font-size="8.00">Correspondence : CorrespondenceType[0...1] </text>
<text text-anchor="start" x="245.933" y="-135.1" font-family="Times New Roman,serif" font-size="8.00">ItemMap : ItemMapType[0...n] </text>
</g>
<!-- GenericMapNameType -->
<g id="ReusableTypeGenericMapNameType" class="node"><title></title><polygon fill="#fc4a1a" stroke="black" points="606.933,-17 606.933,-53 775.933,-53 775.933,-17 606.933,-17" style="filter: url(#dropshadow)"/>
<text text-anchor="middle" x="634.933" y="-33.1" font-family="Times New Roman,serif" font-size="8.00">NameType</text>
<polyline fill="none" stroke="black" points="662.933,-17 662.933,-53 "/>
<text text-anchor="start" x="670.933" y="-37.6" font-family="Times New Roman,serif" font-size="8.00">IsPreferred : boolean[0...1] </text>
<text text-anchor="start" x="670.933" y="-28.6" font-family="Times New Roman,serif" font-size="8.00">Context : string[0...1] </text>
</g>
<!-- GenericMapProperties&#45;&gt;GenericMapNameType -->
<g id="edge1" class="edge"><title>GenericMapProperties&#45;&gt;GenericMapNameType</title>
<path fill="none" stroke="black" d="M397.035,-128.472C445.881,-107.466 510.231,-81.4506 568.933,-63 581.014,-59.203 593.918,-55.6791 606.638,-52.502"/>
<text text-anchor="middle" x="508.933" y="-101.6" font-family="Times New Roman,serif" font-size="8.00">MapName</text>
</g>
<!-- GenericMapLabelType -->
<g id="ReusableTypeGenericMapLabelType" class="node"><title></title><polygon fill="#fc4a1a" stroke="black" points="589.933,-72.5 589.933,-125.5 792.933,-125.5 792.933,-72.5 589.933,-72.5" style="filter: url(#dropshadow)"/>
<text text-anchor="middle" x="616.933" y="-97.1" font-family="Times New Roman,serif" font-size="8.00">LabelType</text>
<polyline fill="none" stroke="black" points="643.933,-72.5 643.933,-125.5 "/>
<text text-anchor="start" x="651.933" y="-115.1" font-family="Times New Roman,serif" font-size="8.00">TypeOfLabel : CodeValueType[0...1] </text>
<text text-anchor="start" x="651.933" y="-106.1" font-family="Times New Roman,serif" font-size="8.00">LocationVariant : string[0...1] </text>
<text text-anchor="start" x="651.933" y="-97.1" font-family="Times New Roman,serif" font-size="8.00">ValidForStartDate : cogsDate[0...1] </text>
<text text-anchor="start" x="651.933" y="-88.1" font-family="Times New Roman,serif" font-size="8.00">ValidForEndDate : cogsDate[0...1] </text>
<text text-anchor="start" x="651.933" y="-79.1" font-family="Times New Roman,serif" font-size="8.00">MaxLength : int[0...1] </text>
</g>
<!-- GenericMapProperties&#45;&gt;GenericMapLabelType -->
<g id="edge2" class="edge"><title>GenericMapProperties&#45;&gt;GenericMapLabelType</title>
<path fill="none" stroke="black" d="M449.044,-134.385C455.083,-133.203 461.068,-132.068 466.933,-131 506.943,-123.716 551.232,-117.08 589.76,-111.763"/>
<text text-anchor="middle" x="508.933" y="-133.6" font-family="Times New Roman,serif" font-size="8.00">Label</text>
</g>
<!-- GenericMapStructuredStringType -->
<g id="ReusableTypeGenericMapStructuredStringType" class="node"><title></title><polygon fill="#fc4a1a" stroke="black" points="1353.93,-188 1353.93,-224 1566.93,-224 1566.93,-188 1353.93,-188" style="filter: url(#dropshadow)"/>
<text text-anchor="middle" x="1398.93" y="-204.1" font-family="Times New Roman,serif" font-size="8.00">StructuredStringType</text>
<polyline fill="none" stroke="black" points="1443.93,-188 1443.93,-224 "/>
<text text-anchor="start" x="1451.93" y="-204.1" font-family="Times New Roman,serif" font-size="8.00">Content : ContentType[0...n] </text>
</g>
<!-- GenericMapProperties&#45;&gt;GenericMapStructuredStringType -->
<g id="edge3" class="edge"><title>GenericMapProperties&#45;&gt;GenericMapStructuredStringType</title>
<path fill="none" stroke="black" d="M449.16,-159.028C487.74,-157.78 530.026,-156.62 568.933,-156 677.808,-154.265 705.125,-151.792 813.933,-156 1004.59,-163.373 1226.22,-182.952 1353.92,-195.308"/>
<text text-anchor="middle" x="859.933" y="-161.6" font-family="Times New Roman,serif" font-size="8.00">Description</text>
</g>
<!-- GenericMapSchemeReferenceType -->
<g id="ReusableTypeGenericMapSchemeReferenceType" class="node"><title></title><polygon fill="#fc4a1a" stroke="black" points="579.433,-165 579.433,-201 803.433,-201 803.433,-165 579.433,-165" style="filter: url(#dropshadow)"/>
<text text-anchor="middle" x="627.433" y="-181.1" font-family="Times New Roman,serif" font-size="8.00">SchemeReferenceType</text>
<polyline fill="none" stroke="black" points="675.433,-165 675.433,-201 "/>
<text text-anchor="start" x="683.433" y="-181.1" font-family="Times New Roman,serif" font-size="8.00">Exclude : ReferenceType[0...n] </text>
</g>
<!-- GenericMapProperties&#45;&gt;GenericMapSchemeReferenceType -->
<g id="edge4" class="edge"><title>GenericMapProperties&#45;&gt;GenericMapSchemeReferenceType</title>
<path fill="none" stroke="black" d="M449.001,-170.685C491.539,-172.855 538.299,-175.24 579.246,-177.329"/>
<text text-anchor="middle" x="508.933" y="-177.6" font-family="Times New Roman,serif" font-size="8.00">SourceSchemeReference</text>
</g>
<!-- GenericMapCorrespondenceType -->
<g id="ReusableTypeGenericMapCorrespondenceType" class="node"><title></title><polygon fill="#fc4a1a" stroke="black" points="905.933,-211.5 905.933,-264.5 1268.93,-264.5 1268.93,-211.5 905.933,-211.5" style="filter: url(#dropshadow)"/>
<text text-anchor="middle" x="951.433" y="-236.1" font-family="Times New Roman,serif" font-size="8.00">CorrespondenceType</text>
<polyline fill="none" stroke="black" points="996.933,-211.5 996.933,-264.5 "/>
<text text-anchor="start" x="1004.93" y="-254.1" font-family="Times New Roman,serif" font-size="8.00">Commonality : StructuredStringType[0...1] </text>
<text text-anchor="start" x="1004.93" y="-245.1" font-family="Times New Roman,serif" font-size="8.00">Difference : StructuredStringType[0...1] </text>
<text text-anchor="start" x="1004.93" y="-236.1" font-family="Times New Roman,serif" font-size="8.00">CommonalityTypeCoded : CodeValueType[0...1] </text>
<text text-anchor="start" x="1004.93" y="-227.1" font-family="Times New Roman,serif" font-size="8.00">CommonalityWeight : float[0...1] </text>
<text text-anchor="start" x="1004.93" y="-218.1" font-family="Times New Roman,serif" font-size="8.00">UserDefinedCorrespondenceProperty : StandardKeyValuePairType[0...n] </text>
</g>
<!-- GenericMapProperties&#45;&gt;GenericMapCorrespondenceType -->
<g id="edge5" class="edge"><title>GenericMapProperties&#45;&gt;GenericMapCorrespondenceType</title>
<path fill="none" stroke="black" d="M448.996,-191.947C487.478,-199.227 529.753,-206.331 568.933,-211 680.377,-224.281 806.095,-231.03 905.712,-234.459"/>
<text text-anchor="middle" x="691.433" y="-232.6" font-family="Times New Roman,serif" font-size="8.00">Correspondence</text>
</g>
<!-- GenericMapItemMapType -->
<g id="ReusableTypeGenericMapItemMapType" class="node"><title></title><polygon fill="#fc4a1a" stroke="black" points="568.933,-265.5 568.933,-318.5 813.933,-318.5 813.933,-265.5 568.933,-265.5" style="filter: url(#dropshadow)"/>
<text text-anchor="middle" x="602.933" y="-290.1" font-family="Times New Roman,serif" font-size="8.00">ItemMapType</text>
<polyline fill="none" stroke="black" points="636.933,-265.5 636.933,-318.5 "/>
<text text-anchor="start" x="644.933" y="-308.1" font-family="Times New Roman,serif" font-size="8.00">SourceItem : IDType[0...1] </text>
<text text-anchor="start" x="644.933" y="-299.1" font-family="Times New Roman,serif" font-size="8.00">TargetItem : IDType[0...1] </text>
<text text-anchor="start" x="644.933" y="-290.1" font-family="Times New Roman,serif" font-size="8.00">Correspondence : CorrespondenceType[0...1] </text>
<text text-anchor="start" x="644.933" y="-281.1" font-family="Times New Roman,serif" font-size="8.00">RelatedMapReference : ReferenceType[0...n] </text>
<text text-anchor="start" x="644.933" y="-272.1" font-family="Times New Roman,serif" font-size="8.00">Alias : string[0...1] </text>
</g>
<!-- GenericMapProperties&#45;&gt;GenericMapItemMapType -->
<g id="edge6" class="edge"><title>GenericMapProperties&#45;&gt;GenericMapItemMapType</title>
<path fill="none" stroke="black" d="M376.038,-199.542C402.912,-214.727 435.735,-231.553 466.933,-243 499.191,-254.836 535.167,-264.268 568.665,-271.569"/>
<text text-anchor="middle" x="508.933" y="-268.6" font-family="Times New Roman,serif" font-size="8.00">ItemMap</text>
</g>
<!-- GenericMapCorrespondenceType&#45;&gt;GenericMapStructuredStringType -->
<g id="edge7" class="edge"><title>GenericMapCorrespondenceType&#45;&gt;GenericMapStructuredStringType</title>
<path fill="none" stroke="black" d="M1243.67,-211.493C1258.26,-209.685 1272.85,-208.134 1286.93,-207 1308.43,-205.269 1331.47,-204.433 1353.5,-204.125"/>
<text text-anchor="middle" x="1311.43" y="-209.6" font-family="Times New Roman,serif" font-size="8.00">Commonality</text>
</g>
<!-- GenericMapCorrespondenceType&#45;&gt;GenericMapStructuredStringType -->
<g id="edge8" class="edge"><title>GenericMapCorrespondenceType&#45;&gt;GenericMapStructuredStringType</title>
<path fill="none" stroke="black" d="M1269.04,-222.422C1298.07,-219.918 1327.25,-217.401 1353.75,-215.116"/>
<text text-anchor="middle" x="1311.43" y="-222.6" font-family="Times New Roman,serif" font-size="8.00">Difference</text>
</g>
<!-- GenericMapItemMapType&#45;&gt;GenericMapCorrespondenceType -->
<g id="edge9" class="edge"><title>GenericMapItemMapType&#45;&gt;GenericMapCorrespondenceType</title>
<path fill="none" stroke="black" d="M814.13,-275.321C843.178,-271.34 874.797,-267.006 905.868,-262.748"/>
<text text-anchor="middle" x="859.933" y="-273.6" font-family="Times New Roman,serif" font-size="8.00">Correspondence</text>
</g>
<!-- Comparison -->
<g id="ItemTypeComparison" class="node"><title></title><ellipse fill="#f7b733" stroke="black" cx="33.4665" cy="-164" rx="33.433" ry="18" style="filter: url(#dropshadow)"/>
<text text-anchor="middle" x="33.4665" y="-162.1" font-family="Times New Roman,serif" font-size="8.00">Comparison</text>
</g>
<!-- Comparison&#45;&gt;GenericMapProperties -->
<g id="edge10" class="edge"><title>Comparison&#45;&gt;GenericMapProperties</title>
<path fill="none" stroke="black" d="M48.5581,-180.414C57.8082,-189.876 70.7835,-200.882 84.9329,-206 114.014,-216.518 146.146,-217.113 176.967,-212.743"/>
<text text-anchor="middle" x="125.933" y="-217.6" font-family="Times New Roman,serif" font-size="8.00">ConceptMapReference</text>
</g>
<!-- Comparison&#45;&gt;GenericMapProperties -->
<g id="edge11" class="edge"><title>Comparison&#45;&gt;GenericMapProperties</title>
<path fill="none" stroke="black" d="M64.478,-170.947C71.1739,-172.217 78.266,-173.346 84.9329,-174 114.672,-176.918 146.649,-177.293 177.046,-176.358"/>
<text text-anchor="middle" x="125.933" y="-178.6" font-family="Times New Roman,serif" font-size="8.00">VariableMapReference</text>
</g>
<!-- Comparison&#45;&gt;GenericMapProperties -->
<g id="edge12" class="edge"><title>Comparison&#45;&gt;GenericMapProperties</title>
<path fill="none" stroke="black" d="M67.0292,-164C94.5475,-164 135.96,-164 177.15,-164"/>
<text text-anchor="middle" x="125.933" y="-166.6" font-family="Times New Roman,serif" font-size="8.00">QuestionMapReference</text>
</g>
<!-- Comparison&#45;&gt;GenericMapProperties -->
<g id="edge13" class="edge"><title>Comparison&#45;&gt;GenericMapProperties</title>
<path fill="none" stroke="black" d="M63.0462,-155.305C70.1312,-153.521 77.7523,-151.91 84.9329,-151 114.689,-147.229 146.74,-146.764 177.215,-147.997"/>
<text text-anchor="middle" x="125.933" y="-153.6" font-family="Times New Roman,serif" font-size="8.00">CategoryMapReference</text>
</g>
<!-- Comparison&#45;&gt;GenericMapProperties -->
<g id="edge14" class="edge"><title>Comparison&#45;&gt;GenericMapProperties</title>
<path fill="none" stroke="black" d="M53.481,-149.391C62.4954,-143.365 73.7285,-137.079 84.9329,-134 114.321,-125.925 146.426,-125.204 177.101,-128.207"/>
<text text-anchor="middle" x="125.933" y="-136.6" font-family="Times New Roman,serif" font-size="8.00">UniverseMapReference</text>
</g>
</g>
</svg>
