<?xml version="1.0" encoding="UTF-8" standalone="no"?>
<!DOCTYPE svg PUBLIC "-//W3C//DTD SVG 1.1//EN"
 "http://www.w3.org/Graphics/SVG/1.1/DTD/svg11.dtd">
<!-- Generated by graphviz version 2.38.0 (20140413.2041)
 -->
<!-- Title: G Pages: 1 -->
<svg width="2568pt" height="756pt"
 viewBox="0.00 0.00 2568.12 756.00" xmlns="http://www.w3.org/2000/svg" xmlns:xlink="http://www.w3.org/1999/xlink">
<filter id = "dropshadow" height = "130%" ><feGaussianBlur in= "SourceAlpha" stdDeviation = "3"/><!--stdDeviation is how much to blur--><feOffset dx = "2" dy = "2" result = "offsetblur"/><!--how much to offset--><feMerge><feMergeNode/><!--this contains the offset blurred image--><feMergeNode in= "SourceGraphic"/><!--this contains the element that the filter is applied to --></feMerge></filter>
<g id="graph0" class="graph" transform="scale(1 1) rotate(0) translate(4 752)">
<title>G</title>
<g id="clust1" class="cluster"><title>clusterMeasurementItem</title>
<polygon fill="#4abdac" stroke="black" points="245.118,-246 245.118,-740 2552.12,-740 2552.12,-246 245.118,-246" style="filter: url(#dropshadow)"/>
<text text-anchor="middle" x="1398.62" y="-729.6" font-family="Times New Roman,serif" font-size="8.00">MeasurementItem</text>
</g>
<!-- MeasurementItemProperties -->
<g id="ItemTypeMeasurementItemProperties" class="node"><title></title><polygon fill="#f7b733" stroke="black" points="253.118,-314.5 253.118,-493.5 605.118,-493.5 605.118,-314.5 253.118,-314.5" style="filter: url(#dropshadow)"/>
<text text-anchor="middle" x="279.618" y="-402.1" font-family="Times New Roman,serif" font-size="8.00">Properties</text>
<polyline fill="none" stroke="black" points="306.118,-314.5 306.118,-493.5 "/>
<text text-anchor="start" x="314.118" y="-483.1" font-family="Times New Roman,serif" font-size="8.00">MeasurementItemName : NameType[0...n] </text>
<text text-anchor="start" x="314.118" y="-474.1" font-family="Times New Roman,serif" font-size="8.00">Label : LabelType[0...n] </text>
<text text-anchor="start" x="314.118" y="-465.1" font-family="Times New Roman,serif" font-size="8.00">Description : StructuredStringType[0...1] </text>
<text text-anchor="start" x="314.118" y="-456.1" font-family="Times New Roman,serif" font-size="8.00">InParameter : InParameterType[0...n] </text>
<text text-anchor="start" x="314.118" y="-447.1" font-family="Times New Roman,serif" font-size="8.00">OutParameter : ParameterType[0...n] </text>
<text text-anchor="start" x="314.118" y="-438.1" font-family="Times New Roman,serif" font-size="8.00">Binding : BindingType[0...n] </text>
<text text-anchor="start" x="314.118" y="-429.1" font-family="Times New Roman,serif" font-size="8.00">TypeOfMeasurementItem : CodeValueType[0...n] </text>
<text text-anchor="start" x="314.118" y="-420.1" font-family="Times New Roman,serif" font-size="8.00">MeasurementItemIntent : StructuredStringType[0...1] </text>
<text text-anchor="start" x="314.118" y="-411.1" font-family="Times New Roman,serif" font-size="8.00">ResponseDomain : RepresentationType[0...1] </text>
<text text-anchor="start" x="314.118" y="-402.1" font-family="Times New Roman,serif" font-size="8.00">ResponseDomainReference : ManagedRepresentation[0...1] </text>
<text text-anchor="start" x="314.118" y="-393.1" font-family="Times New Roman,serif" font-size="8.00">StructuredMixedResponseDomain : StructuredMixedResponseDomainType[0...1] </text>
<text text-anchor="start" x="314.118" y="-384.1" font-family="Times New Roman,serif" font-size="8.00">ResponseCardinality : ResponseCardinalityType[0...1] </text>
<text text-anchor="start" x="314.118" y="-375.1" font-family="Times New Roman,serif" font-size="8.00">ConceptReference : Concept[0...n] </text>
<text text-anchor="start" x="314.118" y="-366.1" font-family="Times New Roman,serif" font-size="8.00">ExternalAid : ExternalAidType[0...n] </text>
<text text-anchor="start" x="314.118" y="-357.1" font-family="Times New Roman,serif" font-size="8.00">ExternalInterviewerInstruction : ExternalInterviewerInstructionType[0...1] </text>
<text text-anchor="start" x="314.118" y="-348.1" font-family="Times New Roman,serif" font-size="8.00">InterviewerInstructionReference : Instruction[0...1] </text>
<text text-anchor="start" x="314.118" y="-339.1" font-family="Times New Roman,serif" font-size="8.00">RepresentedVariableReference : RepresentedVariable[0...n] </text>
<text text-anchor="start" x="314.118" y="-330.1" font-family="Times New Roman,serif" font-size="8.00">DevelopmentResultsReference : DevelopmentResults[0...n] </text>
<text text-anchor="start" x="314.118" y="-321.1" font-family="Times New Roman,serif" font-size="8.00">EstimatedSecondsResponseTime : decimal[0...1] </text>
</g>
<!-- MeasurementItemNameType -->
<g id="ReusableTypeMeasurementItemNameType" class="node"><title></title><polygon fill="#fc4a1a" stroke="black" points="1940.62,-431 1940.62,-467 2109.62,-467 2109.62,-431 1940.62,-431" style="filter: url(#dropshadow)"/>
<text text-anchor="middle" x="1968.62" y="-447.1" font-family="Times New Roman,serif" font-size="8.00">NameType</text>
<polyline fill="none" stroke="black" points="1996.62,-431 1996.62,-467 "/>
<text text-anchor="start" x="2004.62" y="-451.6" font-family="Times New Roman,serif" font-size="8.00">IsPreferred : boolean[0...1] </text>
<text text-anchor="start" x="2004.62" y="-442.6" font-family="Times New Roman,serif" font-size="8.00">Context : string[0...1] </text>
</g>
<!-- MeasurementItemProperties&#45;&gt;MeasurementItemNameType -->
<g id="edge1" class="edge"><title>MeasurementItemProperties&#45;&gt;MeasurementItemNameType</title>
<path fill="none" stroke="black" d="M605.305,-420.635C654.68,-424.721 708.466,-428.606 758.118,-431 1203.27,-452.462 1737.41,-451.219 1940.36,-449.773"/>
<text text-anchor="middle" x="1314.62" y="-451.6" font-family="Times New Roman,serif" font-size="8.00">MeasurementItemName</text>
</g>
<!-- MeasurementItemLabelType -->
<g id="ReusableTypeMeasurementItemLabelType" class="node"><title></title><polygon fill="#fc4a1a" stroke="black" points="1209.12,-352.5 1209.12,-405.5 1420.12,-405.5 1420.12,-352.5 1209.12,-352.5" style="filter: url(#dropshadow)"/>
<text text-anchor="middle" x="1236.12" y="-377.1" font-family="Times New Roman,serif" font-size="8.00">LabelType</text>
<polyline fill="none" stroke="black" points="1263.12,-352.5 1263.12,-405.5 "/>
<text text-anchor="start" x="1271.12" y="-395.1" font-family="Times New Roman,serif" font-size="8.00">TypeOfLabel : CodeValueType[0...1] </text>
<text text-anchor="start" x="1271.12" y="-386.1" font-family="Times New Roman,serif" font-size="8.00">LocationVariant : string[0...1] </text>
<text text-anchor="start" x="1271.12" y="-377.1" font-family="Times New Roman,serif" font-size="8.00">ValidForStartDate : cogsDate[0...1] </text>
<text text-anchor="start" x="1271.12" y="-368.1" font-family="Times New Roman,serif" font-size="8.00">ValidForEndDate : cogsDate[0...1] </text>
<text text-anchor="start" x="1271.12" y="-359.1" font-family="Times New Roman,serif" font-size="8.00">MaxLength : nonNegativeInteger[0...1] </text>
</g>
<!-- MeasurementItemProperties&#45;&gt;MeasurementItemLabelType -->
<g id="edge2" class="edge"><title>MeasurementItemProperties&#45;&gt;MeasurementItemLabelType</title>
<path fill="none" stroke="black" d="M605.272,-386.271C654.647,-382.028 708.441,-378.117 758.118,-376 950.388,-367.808 998.688,-373.644 1191.12,-376 1196.97,-376.072 1202.97,-376.162 1209.04,-376.268"/>
<text text-anchor="middle" x="681.618" y="-387.6" font-family="Times New Roman,serif" font-size="8.00">Label</text>
</g>
<!-- MeasurementItemStructuredStringType -->
<g id="ReusableTypeMeasurementItemStructuredStringType" class="node"><title></title><polygon fill="#fc4a1a" stroke="black" points="1918.62,-493 1918.62,-529 2131.62,-529 2131.62,-493 1918.62,-493" style="filter: url(#dropshadow)"/>
<text text-anchor="middle" x="1963.62" y="-509.1" font-family="Times New Roman,serif" font-size="8.00">StructuredStringType</text>
<polyline fill="none" stroke="black" points="2008.62,-493 2008.62,-529 "/>
<text text-anchor="start" x="2016.62" y="-509.1" font-family="Times New Roman,serif" font-size="8.00">Content : ContentType[0...n] </text>
</g>
<!-- MeasurementItemProperties&#45;&gt;MeasurementItemStructuredStringType -->
<g id="edge3" class="edge"><title>MeasurementItemProperties&#45;&gt;MeasurementItemStructuredStringType</title>
<path fill="none" stroke="black" d="M569.701,-493.507C587.301,-502.889 605.366,-511.66 623.118,-519 680.297,-542.641 696.714,-545.387 758.118,-553 853.672,-564.848 1744.6,-544.035 1745.12,-544 1802.54,-540.147 1866.31,-532.835 1918.37,-526.071"/>
<text text-anchor="middle" x="1314.62" y="-556.6" font-family="Times New Roman,serif" font-size="8.00">Description</text>
</g>
<!-- MeasurementItemInParameterType -->
<g id="ReusableTypeMeasurementItemInParameterType" class="node"><title></title><polygon fill="#fc4a1a" stroke="black" points="872.118,-386 872.118,-422 1077.12,-422 1077.12,-386 872.118,-386" style="filter: url(#dropshadow)"/>
<text text-anchor="middle" x="911.618" y="-402.1" font-family="Times New Roman,serif" font-size="8.00">InParameterType</text>
<polyline fill="none" stroke="black" points="951.118,-386 951.118,-422 "/>
<text text-anchor="start" x="959.118" y="-402.1" font-family="Times New Roman,serif" font-size="8.00">LimitArrayIndex : string[0...1] </text>
</g>
<!-- MeasurementItemProperties&#45;&gt;MeasurementItemInParameterType -->
<g id="edge4" class="edge"><title>MeasurementItemProperties&#45;&gt;MeasurementItemInParameterType</title>
<path fill="none" stroke="black" d="M605.451,-404C693.556,-404 797.197,-404 872.03,-404"/>
<text text-anchor="middle" x="681.618" y="-406.6" font-family="Times New Roman,serif" font-size="8.00">InParameter</text>
</g>
<!-- MeasurementItemParameterType -->
<g id="ReusableTypeMeasurementItemParameterType" class="node"><title></title><polygon fill="#fc4a1a" stroke="black" points="1438.12,-463.5 1438.12,-534.5 1745.12,-534.5 1745.12,-463.5 1438.12,-463.5" style="filter: url(#dropshadow)"/>
<text text-anchor="middle" x="1473.62" y="-497.1" font-family="Times New Roman,serif" font-size="8.00">ParameterType</text>
<polyline fill="none" stroke="black" points="1509.12,-463.5 1509.12,-534.5 "/>
<text text-anchor="start" x="1517.12" y="-524.1" font-family="Times New Roman,serif" font-size="8.00">ParameterName : NameType[0...n] </text>
<text text-anchor="start" x="1517.12" y="-515.1" font-family="Times New Roman,serif" font-size="8.00">Alias : string[0...1] </text>
<text text-anchor="start" x="1517.12" y="-506.1" font-family="Times New Roman,serif" font-size="8.00">Description : StructuredStringType[0...1] </text>
<text text-anchor="start" x="1517.12" y="-497.1" font-family="Times New Roman,serif" font-size="8.00">ValueRepresentation : RepresentationType[0...1] </text>
<text text-anchor="start" x="1517.12" y="-488.1" font-family="Times New Roman,serif" font-size="8.00">ValueRepresentationReference : ManagedRepresentation[0...1] </text>
<text text-anchor="start" x="1517.12" y="-479.1" font-family="Times New Roman,serif" font-size="8.00">DefaultValue : ValueType[0...1] </text>
<text text-anchor="start" x="1517.12" y="-470.1" font-family="Times New Roman,serif" font-size="8.00">IsArray : boolean[0...1] </text>
</g>
<!-- MeasurementItemProperties&#45;&gt;MeasurementItemParameterType -->
<g id="edge5" class="edge"><title>MeasurementItemProperties&#45;&gt;MeasurementItemParameterType</title>
<path fill="none" stroke="black" d="M605.299,-444.339C611.299,-445.302 617.251,-446.194 623.118,-447 662.658,-452.429 1175.45,-478.395 1437.97,-491.458"/>
<text text-anchor="middle" x="974.618" y="-480.6" font-family="Times New Roman,serif" font-size="8.00">OutParameter</text>
</g>
<!-- MeasurementItemBindingType -->
<g id="ReusableTypeMeasurementItemBindingType" class="node"><title></title><polygon fill="#fc4a1a" stroke="black" points="845.618,-507 845.618,-543 1103.62,-543 1103.62,-507 845.618,-507" style="filter: url(#dropshadow)"/>
<text text-anchor="middle" x="876.618" y="-523.1" font-family="Times New Roman,serif" font-size="8.00">BindingType</text>
<polyline fill="none" stroke="black" points="907.618,-507 907.618,-543 "/>
<text text-anchor="start" x="915.618" y="-527.6" font-family="Times New Roman,serif" font-size="8.00">SourceParameterReference : ParameterType[0...1] </text>
<text text-anchor="start" x="915.618" y="-518.6" font-family="Times New Roman,serif" font-size="8.00">TargetParameterReference : ParameterType[0...1] </text>
</g>
<!-- MeasurementItemProperties&#45;&gt;MeasurementItemBindingType -->
<g id="edge6" class="edge"><title>MeasurementItemProperties&#45;&gt;MeasurementItemBindingType</title>
<path fill="none" stroke="black" d="M605.342,-479.006C611.302,-480.796 617.238,-482.469 623.118,-484 695.451,-502.832 778.444,-513.026 845.509,-518.539"/>
<text text-anchor="middle" x="681.618" y="-508.6" font-family="Times New Roman,serif" font-size="8.00">Binding</text>
</g>
<!-- MeasurementItemCodeValueType -->
<g id="ReusableTypeMeasurementItemCodeValueType" class="node"><title></title><polygon fill="#fc4a1a" stroke="black" points="2285.12,-602.5 2285.12,-673.5 2544.12,-673.5 2544.12,-602.5 2285.12,-602.5" style="filter: url(#dropshadow)"/>
<text text-anchor="middle" x="2320.62" y="-636.1" font-family="Times New Roman,serif" font-size="8.00">CodeValueType</text>
<polyline fill="none" stroke="black" points="2356.12,-602.5 2356.12,-673.5 "/>
<text text-anchor="start" x="2364.12" y="-663.1" font-family="Times New Roman,serif" font-size="8.00">ControlledVocabularyID : string[0...1] </text>
<text text-anchor="start" x="2364.12" y="-654.1" font-family="Times New Roman,serif" font-size="8.00">ControlledVocabularyName : string[0...1] </text>
<text text-anchor="start" x="2364.12" y="-645.1" font-family="Times New Roman,serif" font-size="8.00">ControlledVocabularyAgencyName : string[0...1] </text>
<text text-anchor="start" x="2364.12" y="-636.1" font-family="Times New Roman,serif" font-size="8.00">ControlledVocabularyVersionID : string[0...1] </text>
<text text-anchor="start" x="2364.12" y="-627.1" font-family="Times New Roman,serif" font-size="8.00">OtherValue : string[0...1] </text>
<text text-anchor="start" x="2364.12" y="-618.1" font-family="Times New Roman,serif" font-size="8.00">ControlledVocabularyURN : string[0...1] </text>
<text text-anchor="start" x="2364.12" y="-609.1" font-family="Times New Roman,serif" font-size="8.00">ControlledVocabularySchemeURN : string[0...1] </text>
</g>
<!-- MeasurementItemProperties&#45;&gt;MeasurementItemCodeValueType -->
<g id="edge7" class="edge"><title>MeasurementItemProperties&#45;&gt;MeasurementItemCodeValueType</title>
<path fill="none" stroke="black" d="M469.391,-493.635C501.454,-555.53 552.947,-633.987 623.118,-676 675.003,-707.065 697.776,-689.014 758.118,-693 1381.24,-734.16 1541.32,-736.716 2163.12,-679 2202.94,-675.304 2246.01,-669.076 2285.01,-662.576"/>
<text text-anchor="middle" x="1591.62" y="-725.6" font-family="Times New Roman,serif" font-size="8.00">TypeOfMeasurementItem</text>
</g>
<!-- MeasurementItemRepresentationType -->
<g id="ReusableTypeMeasurementItemRepresentationType" class="node"><title></title><polygon fill="#fc4a1a" stroke="black" points="1887.12,-607 1887.12,-669 2163.12,-669 2163.12,-607 1887.12,-607" style="filter: url(#dropshadow)"/>
<text text-anchor="middle" x="1931.12" y="-636.1" font-family="Times New Roman,serif" font-size="8.00">RepresentationType</text>
<polyline fill="none" stroke="black" points="1975.12,-607 1975.12,-669 "/>
<text text-anchor="start" x="1983.12" y="-658.6" font-family="Times New Roman,serif" font-size="8.00">RecommendedDataType : CodeValueType[0...1] </text>
<text text-anchor="start" x="1983.12" y="-649.6" font-family="Times New Roman,serif" font-size="8.00">GenericOutputFormat : CodeValueType[0...1] </text>
<text text-anchor="start" x="1983.12" y="-640.6" font-family="Times New Roman,serif" font-size="8.00">MeasurementUnit : CodeValueType[0...1] </text>
<text text-anchor="start" x="1983.12" y="-631.6" font-family="Times New Roman,serif" font-size="8.00">MissingValue : string[0...1] </text>
<text text-anchor="start" x="1983.12" y="-622.6" font-family="Times New Roman,serif" font-size="8.00">BlankIsMissingValue : boolean[0...1] </text>
<text text-anchor="start" x="1983.12" y="-613.6" font-family="Times New Roman,serif" font-size="8.00">ClassificationLevel : string[0...1] </text>
</g>
<!-- MeasurementItemProperties&#45;&gt;MeasurementItemRepresentationType -->
<g id="edge8" class="edge"><title>MeasurementItemProperties&#45;&gt;MeasurementItemRepresentationType</title>
<path fill="none" stroke="black" d="M474.871,-493.606C507.976,-550.378 558.48,-620.337 623.118,-660 675.06,-691.872 697.413,-678.646 758.118,-684 949.818,-700.907 998.747,-689.308 1191.12,-684 1436.34,-677.234 1721.72,-659.285 1886.77,-647.912"/>
<text text-anchor="middle" x="1314.62" y="-685.6" font-family="Times New Roman,serif" font-size="8.00">ResponseDomain</text>
</g>
<!-- ManagedRepresentation -->
<g id="ItemTypeManagedRepresentation0" class="node"><title></title><ellipse fill="#f7b733" stroke="black" cx="2025.12" cy="-197" rx="56.9465" ry="18" style="filter: url(#dropshadow)"/>
<text text-anchor="middle" x="2025.12" y="-195.1" font-family="Times New Roman,serif" font-size="8.00">ManagedRepresentation</text>
</g>
<!-- MeasurementItemProperties&#45;&gt;ManagedRepresentation -->
<g id="edge9" class="edge"><title>MeasurementItemProperties&#45;&gt;ManagedRepresentation</title>
<path fill="none" stroke="black" d="M562.113,-314.422C582.062,-302.908 602.78,-292.014 623.118,-283 680.103,-257.744 696.742,-255.874 758.118,-245 832.732,-231.78 1362.4,-195.891 1438.12,-193 1574.46,-187.794 1608.68,-192.022 1745.12,-193 1822.5,-193.555 1911.95,-194.975 1968.27,-195.964"/>
<text text-anchor="middle" x="1314.62" y="-209.6" font-family="Times New Roman,serif" font-size="8.00">ResponseDomainReference</text>
<text text-anchor="middle" x="1960.27" y="-189.564" font-family="Times New Roman,serif" font-size="8.00">0...*</text>
<text text-anchor="middle" x="554.113" y="-308.022" font-family="Times New Roman,serif" font-size="8.00">0...*</text>
</g>
<!-- MeasurementItemStructuredMixedResponseDomainType -->
<g id="ReusableTypeMeasurementItemStructuredMixedResponseDomainType1" class="node"><title></title><polygon fill="#fc4a1a" stroke="black" points="776.118,-583 776.118,-619 1173.12,-619 1173.12,-583 776.118,-583" style="filter: url(#dropshadow)"/>
<text text-anchor="middle" x="852.118" y="-599.1" font-family="Times New Roman,serif" font-size="8.00">StructuredMixedResponseDomainType</text>
<polyline fill="none" stroke="black" points="928.118,-583 928.118,-619 "/>
<text text-anchor="start" x="936.118" y="-603.6" font-family="Times New Roman,serif" font-size="8.00">ResponseTextSet : ResponseTextSetType[0...1] </text>
<text text-anchor="start" x="936.118" y="-594.6" font-family="Times New Roman,serif" font-size="8.00">ResponseDomainInMixed : ResponseDomainInMixedType[0...1] </text>
</g>
<!-- MeasurementItemProperties&#45;&gt;MeasurementItemStructuredMixedResponseDomainType -->
<g id="edge10" class="edge"><title>MeasurementItemProperties&#45;&gt;MeasurementItemStructuredMixedResponseDomainType</title>
<path fill="none" stroke="black" d="M513.118,-493.873C544.675,-522.438 582.806,-550.999 623.118,-568 670.564,-588.01 724.743,-598.424 776.085,-603.39"/>
<text text-anchor="middle" x="681.618" y="-600.6" font-family="Times New Roman,serif" font-size="8.00">StructuredMixedResponseDomain</text>
<text text-anchor="middle" x="768.085" y="-596.99" font-family="Times New Roman,serif" font-size="8.00">0...*</text>
<text text-anchor="middle" x="505.118" y="-496.473" font-family="Times New Roman,serif" font-size="8.00">0...*</text>
</g>
<!-- MeasurementItemResponseCardinalityType -->
<g id="ReusableTypeMeasurementItemResponseCardinalityType2" class="node"><title></title><polygon fill="#fc4a1a" stroke="black" points="912.118,-638 912.118,-674 1037.12,-674 1037.12,-638 912.118,-638" style="filter: url(#dropshadow)"/>
<text text-anchor="middle" x="965.118" y="-654.1" font-family="Times New Roman,serif" font-size="8.00">ResponseCardinalityType</text>
<polyline fill="none" stroke="black" points="1018.12,-638 1018.12,-674 "/>
<text text-anchor="middle" x="1027.62" y="-654.1" font-family="Times New Roman,serif" font-size="8.00"> </text>
</g>
<!-- MeasurementItemProperties&#45;&gt;MeasurementItemResponseCardinalityType -->
<g id="edge11" class="edge"><title>MeasurementItemProperties&#45;&gt;MeasurementItemResponseCardinalityType</title>
<path fill="none" stroke="black" d="M490.87,-493.763C524.661,-536.391 570.505,-583.845 623.118,-611 715.388,-658.623 838.855,-662.945 911.937,-660.406"/>
<text text-anchor="middle" x="681.618" y="-649.6" font-family="Times New Roman,serif" font-size="8.00">ResponseCardinality</text>
<text text-anchor="middle" x="903.937" y="-654.006" font-family="Times New Roman,serif" font-size="8.00">0...*</text>
<text text-anchor="middle" x="482.87" y="-496.363" font-family="Times New Roman,serif" font-size="8.00">0...*</text>
</g>
<!-- Concept -->
<g id="ItemTypeConcept3" class="node"><title></title><ellipse fill="#f7b733" stroke="black" cx="974.618" cy="-180" rx="27" ry="18" style="filter: url(#dropshadow)"/>
<text text-anchor="middle" x="974.618" y="-178.1" font-family="Times New Roman,serif" font-size="8.00">Concept</text>
</g>
<!-- MeasurementItemProperties&#45;&gt;Concept -->
<g id="edge12" class="edge"><title>MeasurementItemProperties&#45;&gt;Concept</title>
<path fill="none" stroke="black" d="M491.512,-314.311C525.17,-272.812 570.705,-227.395 623.118,-203 734.797,-151.021 888.461,-166.751 948.318,-175.7"/>
<text text-anchor="middle" x="681.618" y="-205.6" font-family="Times New Roman,serif" font-size="8.00">ConceptReference</text>
<text text-anchor="middle" x="940.318" y="-169.3" font-family="Times New Roman,serif" font-size="8.00">0...*</text>
<text text-anchor="middle" x="483.512" y="-307.911" font-family="Times New Roman,serif" font-size="8.00">0...*</text>
</g>
<!-- MeasurementItemExternalAidType -->
<g id="ReusableTypeMeasurementItemExternalAidType4" class="node"><title></title><polygon fill="#fc4a1a" stroke="black" points="845.618,-310 845.618,-346 1103.62,-346 1103.62,-310 845.618,-310" style="filter: url(#dropshadow)"/>
<text text-anchor="middle" x="884.118" y="-326.1" font-family="Times New Roman,serif" font-size="8.00">ExternalAidType</text>
<polyline fill="none" stroke="black" points="922.618,-310 922.618,-346 "/>
<text text-anchor="start" x="930.618" y="-326.1" font-family="Times New Roman,serif" font-size="8.00">OtherMaterialReference : OtherMaterial[0...1] </text>
</g>
<!-- MeasurementItemProperties&#45;&gt;MeasurementItemExternalAidType -->
<g id="edge13" class="edge"><title>MeasurementItemProperties&#45;&gt;MeasurementItemExternalAidType</title>
<path fill="none" stroke="black" d="M605.12,-338.73C611.158,-337.345 617.168,-336.093 623.118,-335 695.849,-321.64 778.494,-319.385 845.26,-320.703"/>
<text text-anchor="middle" x="681.618" y="-337.6" font-family="Times New Roman,serif" font-size="8.00">ExternalAid</text>
<text text-anchor="middle" x="837.26" y="-314.303" font-family="Times New Roman,serif" font-size="8.00">0...*</text>
<text text-anchor="middle" x="613.12" y="-332.33" font-family="Times New Roman,serif" font-size="8.00">0...*</text>
</g>
<!-- MeasurementItemExternalInterviewerInstructionType -->
<g id="ReusableTypeMeasurementItemExternalInterviewerInstructionType5" class="node"><title></title><polygon fill="#fc4a1a" stroke="black" points="758.118,-255 758.118,-291 1191.12,-291 1191.12,-255 758.118,-255" style="filter: url(#dropshadow)"/>
<text text-anchor="middle" x="829.618" y="-271.1" font-family="Times New Roman,serif" font-size="8.00">ExternalInterviewerInstructionType</text>
<polyline fill="none" stroke="black" points="901.118,-255 901.118,-291 "/>
<text text-anchor="start" x="909.118" y="-280.1" font-family="Times New Roman,serif" font-size="8.00">OtherMaterialReference : OtherMaterial[0...1] </text>
<text text-anchor="start" x="909.118" y="-271.1" font-family="Times New Roman,serif" font-size="8.00">InstructionAttachmentLocation : InstructionAttachmentLocationType[0...n] </text>
<text text-anchor="start" x="909.118" y="-262.1" font-family="Times New Roman,serif" font-size="8.00">IsDisplayed : boolean[0...1] </text>
</g>
<!-- MeasurementItemProperties&#45;&gt;MeasurementItemExternalInterviewerInstructionType -->
<g id="edge14" class="edge"><title>MeasurementItemProperties&#45;&gt;MeasurementItemExternalInterviewerInstructionType</title>
<path fill="none" stroke="black" d="M605.294,-315.571C611.255,-313.562 617.207,-311.695 623.118,-310 665.909,-297.732 712.685,-289.449 757.725,-283.876"/>
<text text-anchor="middle" x="681.618" y="-312.6" font-family="Times New Roman,serif" font-size="8.00">ExternalInterviewerInstruction</text>
<text text-anchor="middle" x="749.725" y="-277.476" font-family="Times New Roman,serif" font-size="8.00">0...*</text>
<text text-anchor="middle" x="613.294" y="-309.171" font-family="Times New Roman,serif" font-size="8.00">0...*</text>
</g>
<!-- Instruction -->
<g id="ItemTypeInstruction6" class="node"><title></title><ellipse fill="#f7b733" stroke="black" cx="974.618" cy="-126" rx="31.3964" ry="18" style="filter: url(#dropshadow)"/>
<text text-anchor="middle" x="974.618" y="-124.1" font-family="Times New Roman,serif" font-size="8.00">Instruction</text>
</g>
<!-- MeasurementItemProperties&#45;&gt;Instruction -->
<g id="edge15" class="edge"><title>MeasurementItemProperties&#45;&gt;Instruction</title>
<path fill="none" stroke="black" d="M476.357,-314.48C509.486,-260.116 559.455,-194.708 623.118,-160 729.399,-102.057 880.948,-113.406 944.163,-121.522"/>
<text text-anchor="middle" x="681.618" y="-162.6" font-family="Times New Roman,serif" font-size="8.00">InterviewerInstructionReference</text>
<text text-anchor="middle" x="936.163" y="-115.122" font-family="Times New Roman,serif" font-size="8.00">0...*</text>
<text text-anchor="middle" x="468.357" y="-308.08" font-family="Times New Roman,serif" font-size="8.00">0...*</text>
</g>
<!-- RepresentedVariable -->
<g id="ItemTypeRepresentedVariable7" class="node"><title></title><ellipse fill="#f7b733" stroke="black" cx="974.618" cy="-72" rx="48.5642" ry="18" style="filter: url(#dropshadow)"/>
<text text-anchor="middle" x="974.618" y="-70.1" font-family="Times New Roman,serif" font-size="8.00">RepresentedVariable</text>
</g>
<!-- MeasurementItemProperties&#45;&gt;RepresentedVariable -->
<g id="edge16" class="edge"><title>MeasurementItemProperties&#45;&gt;RepresentedVariable</title>
<path fill="none" stroke="black" d="M464.233,-314.275C494.993,-246.523 547.152,-157.53 623.118,-111 719.185,-52.1573 858.225,-57.7535 928.835,-65.5559"/>
<text text-anchor="middle" x="681.618" y="-113.6" font-family="Times New Roman,serif" font-size="8.00">RepresentedVariableReference</text>
<text text-anchor="middle" x="920.835" y="-59.1559" font-family="Times New Roman,serif" font-size="8.00">0...*</text>
<text text-anchor="middle" x="456.233" y="-307.875" font-family="Times New Roman,serif" font-size="8.00">0...*</text>
</g>
<!-- DevelopmentResults -->
<g id="ItemTypeDevelopmentResults8" class="node"><title></title><ellipse fill="#f7b733" stroke="black" cx="974.618" cy="-18" rx="49.8323" ry="18" style="filter: url(#dropshadow)"/>
<text text-anchor="middle" x="974.618" y="-16.1" font-family="Times New Roman,serif" font-size="8.00">DevelopmentResults</text>
</g>
<!-- MeasurementItemProperties&#45;&gt;DevelopmentResults -->
<g id="edge17" class="edge"><title>MeasurementItemProperties&#45;&gt;DevelopmentResults</title>
<path fill="none" stroke="black" d="M454.343,-314.178C481.333,-232.759 533.439,-116.658 623.118,-57 717.17,5.56705 857.709,-1.79333 928.877,-10.7854"/>
<text text-anchor="middle" x="681.618" y="-59.6" font-family="Times New Roman,serif" font-size="8.00">DevelopmentResultsReference</text>
<text text-anchor="middle" x="920.877" y="-4.38544" font-family="Times New Roman,serif" font-size="8.00">0...*</text>
<text text-anchor="middle" x="446.343" y="-307.778" font-family="Times New Roman,serif" font-size="8.00">0...*</text>
</g>
<!-- MeasurementItemLabelType&#45;&gt;MeasurementItemCodeValueType -->
<g id="edge18" class="edge"><title>MeasurementItemLabelType&#45;&gt;MeasurementItemCodeValueType</title>
<path fill="none" stroke="black" d="M1420.34,-363.012C1585.13,-342.417 1912.08,-320.238 2163.12,-421 2259.23,-459.578 2344.03,-551.187 2385.91,-602.18"/>
<text text-anchor="middle" x="1816.12" y="-356.6" font-family="Times New Roman,serif" font-size="8.00">TypeOfLabel</text>
<text text-anchor="middle" x="2377.91" y="-595.78" font-family="Times New Roman,serif" font-size="8.00">0...*</text>
<text text-anchor="middle" x="1428.34" y="-356.612" font-family="Times New Roman,serif" font-size="8.00">0...*</text>
</g>
<!-- MeasurementItemParameterType&#45;&gt;MeasurementItemNameType -->
<g id="edge19" class="edge"><title>MeasurementItemParameterType&#45;&gt;MeasurementItemNameType</title>
<path fill="none" stroke="black" d="M1745.36,-481.302C1810.94,-473.702 1885.03,-465.117 1940.34,-458.708"/>
<text text-anchor="middle" x="1816.12" y="-480.6" font-family="Times New Roman,serif" font-size="8.00">ParameterName</text>
<text text-anchor="middle" x="1932.34" y="-452.308" font-family="Times New Roman,serif" font-size="8.00">0...*</text>
<text text-anchor="middle" x="1753.36" y="-474.902" font-family="Times New Roman,serif" font-size="8.00">0...*</text>
</g>
<!-- MeasurementItemParameterType&#45;&gt;MeasurementItemStructuredStringType -->
<g id="edge20" class="edge"><title>MeasurementItemParameterType&#45;&gt;MeasurementItemStructuredStringType</title>
<path fill="none" stroke="black" d="M1745.36,-503.248C1802.57,-504.839 1866.27,-506.61 1918.32,-508.058"/>
<text text-anchor="middle" x="1816.12" y="-508.6" font-family="Times New Roman,serif" font-size="8.00">Description</text>
<text text-anchor="middle" x="1910.32" y="-501.658" font-family="Times New Roman,serif" font-size="8.00">0...*</text>
<text text-anchor="middle" x="1753.36" y="-496.848" font-family="Times New Roman,serif" font-size="8.00">0...*</text>
</g>
<!-- MeasurementItemParameterType&#45;&gt;MeasurementItemRepresentationType -->
<g id="edge21" class="edge"><title>MeasurementItemParameterType&#45;&gt;MeasurementItemRepresentationType</title>
<path fill="none" stroke="black" d="M1702.9,-534.525C1772.32,-556.886 1861.05,-585.471 1927.66,-606.928"/>
<text text-anchor="middle" x="1816.12" y="-587.6" font-family="Times New Roman,serif" font-size="8.00">ValueRepresentation</text>
<text text-anchor="middle" x="1919.66" y="-600.528" font-family="Times New Roman,serif" font-size="8.00">0...*</text>
<text text-anchor="middle" x="1694.9" y="-537.125" font-family="Times New Roman,serif" font-size="8.00">0...*</text>
</g>
<!-- MeasurementItemParameterType&#45;&gt;ManagedRepresentation -->
<g id="edge22" class="edge"><title>MeasurementItemParameterType&#45;&gt;ManagedRepresentation</title>
<path fill="none" stroke="black" d="M1624.47,-463.21C1675.08,-408.36 1779.19,-303.427 1887.12,-242 1915.51,-225.839 1950.56,-214.461 1978.1,-207.189"/>
<text text-anchor="middle" x="1816.12" y="-331.6" font-family="Times New Roman,serif" font-size="8.00">ValueRepresentationReference</text>
<text text-anchor="middle" x="1970.1" y="-209.789" font-family="Times New Roman,serif" font-size="8.00">0...*</text>
<text text-anchor="middle" x="1616.47" y="-456.81" font-family="Times New Roman,serif" font-size="8.00">0...*</text>
</g>
<!-- MeasurementItemBindingType&#45;&gt;MeasurementItemParameterType -->
<g id="edge23" class="edge"><title>MeasurementItemBindingType&#45;&gt;MeasurementItemParameterType</title>
<path fill="none" stroke="black" d="M1104.03,-521.146C1192.82,-518.293 1313.67,-514.037 1420.12,-509 1425.89,-508.727 1431.78,-508.437 1437.72,-508.135"/>
<text text-anchor="middle" x="1314.62" y="-519.6" font-family="Times New Roman,serif" font-size="8.00">SourceParameterReference</text>
<text text-anchor="middle" x="1429.72" y="-501.735" font-family="Times New Roman,serif" font-size="8.00">0...*</text>
<text text-anchor="middle" x="1112.03" y="-514.746" font-family="Times New Roman,serif" font-size="8.00">0...*</text>
</g>
<!-- MeasurementItemBindingType&#45;&gt;MeasurementItemParameterType -->
<g id="edge24" class="edge"><title>MeasurementItemBindingType&#45;&gt;MeasurementItemParameterType</title>
<path fill="none" stroke="black" d="M1103.89,-508.841C1138.03,-505.205 1174.92,-501.87 1209.12,-500 1284.35,-495.885 1368.04,-495.23 1437.83,-495.772"/>
<text text-anchor="middle" x="1314.62" y="-502.6" font-family="Times New Roman,serif" font-size="8.00">TargetParameterReference</text>
<text text-anchor="middle" x="1429.83" y="-489.372" font-family="Times New Roman,serif" font-size="8.00">0...*</text>
<text text-anchor="middle" x="1111.89" y="-502.441" font-family="Times New Roman,serif" font-size="8.00">0...*</text>
</g>
<!-- MeasurementItemRepresentationType&#45;&gt;MeasurementItemCodeValueType -->
<g id="edge25" class="edge"><title>MeasurementItemRepresentationType&#45;&gt;MeasurementItemCodeValueType</title>
<path fill="none" stroke="black" d="M2163.24,-609.083C2169.27,-608.284 2175.25,-607.581 2181.12,-607 2219.15,-603.234 2229.1,-603.022 2267.12,-607 2272.94,-607.609 2278.86,-608.35 2284.83,-609.196"/>
<text text-anchor="middle" x="2224.12" y="-609.6" font-family="Times New Roman,serif" font-size="8.00">RecommendedDataType</text>
<text text-anchor="middle" x="2276.83" y="-602.796" font-family="Times New Roman,serif" font-size="8.00">0...*</text>
<text text-anchor="middle" x="2171.24" y="-602.683" font-family="Times New Roman,serif" font-size="8.00">0...*</text>
</g>
<!-- MeasurementItemRepresentationType&#45;&gt;MeasurementItemCodeValueType -->
<g id="edge26" class="edge"><title>MeasurementItemRepresentationType&#45;&gt;MeasurementItemCodeValueType</title>
<path fill="none" stroke="black" d="M2163.28,-638C2202.91,-638 2245.99,-638 2285.07,-638"/>
<text text-anchor="middle" x="2224.12" y="-640.6" font-family="Times New Roman,serif" font-size="8.00">GenericOutputFormat</text>
<text text-anchor="middle" x="2277.07" y="-631.6" font-family="Times New Roman,serif" font-size="8.00">0...*</text>
<text text-anchor="middle" x="2171.28" y="-631.6" font-family="Times New Roman,serif" font-size="8.00">0...*</text>
</g>
<!-- MeasurementItemRepresentationType&#45;&gt;MeasurementItemCodeValueType -->
<g id="edge27" class="edge"><title>MeasurementItemRepresentationType&#45;&gt;MeasurementItemCodeValueType</title>
<path fill="none" stroke="black" d="M2163.44,-647.33C2169.41,-647.587 2175.32,-647.813 2181.12,-648 2219.32,-649.231 2228.92,-649.302 2267.12,-648 2272.98,-647.8 2278.97,-647.556 2285.02,-647.276"/>
<text text-anchor="middle" x="2224.12" y="-650.6" font-family="Times New Roman,serif" font-size="8.00">MeasurementUnit</text>
<text text-anchor="middle" x="2277.02" y="-640.876" font-family="Times New Roman,serif" font-size="8.00">0...*</text>
<text text-anchor="middle" x="2171.44" y="-640.93" font-family="Times New Roman,serif" font-size="8.00">0...*</text>
</g>
<!-- OtherMaterial -->
<g id="ItemTypeOtherMaterial9" class="node"><title></title><ellipse fill="#f7b733" stroke="black" cx="1591.62" cy="-220" rx="37.3742" ry="18" style="filter: url(#dropshadow)"/>
<text text-anchor="middle" x="1591.62" y="-218.1" font-family="Times New Roman,serif" font-size="8.00">OtherMaterial</text>
</g>
<!-- MeasurementItemExternalAidType&#45;&gt;OtherMaterial -->
<g id="edge28" class="edge"><title>MeasurementItemExternalAidType&#45;&gt;OtherMaterial</title>
<path fill="none" stroke="black" d="M1103.87,-311.726C1132.59,-307.973 1162.91,-303.927 1191.12,-300 1293.03,-285.815 1331.73,-318.667 1420.12,-266 1431.57,-259.175 1426.65,-248.801 1438.12,-242 1473.67,-220.919 1521.85,-217.27 1554.47,-217.691"/>
<text text-anchor="middle" x="1314.62" y="-300.6" font-family="Times New Roman,serif" font-size="8.00">OtherMaterialReference</text>
<text text-anchor="middle" x="1546.47" y="-211.291" font-family="Times New Roman,serif" font-size="8.00">0...*</text>
<text text-anchor="middle" x="1111.87" y="-305.326" font-family="Times New Roman,serif" font-size="8.00">0...*</text>
</g>
<!-- MeasurementItemExternalInterviewerInstructionType&#45;&gt;OtherMaterial -->
<g id="edge29" class="edge"><title>MeasurementItemExternalInterviewerInstructionType&#45;&gt;OtherMaterial</title>
<path fill="none" stroke="black" d="M1184.69,-254.983C1319.8,-243.339 1483.25,-229.253 1554.5,-223.113"/>
<text text-anchor="middle" x="1314.62" y="-255.6" font-family="Times New Roman,serif" font-size="8.00">OtherMaterialReference</text>
<text text-anchor="middle" x="1546.5" y="-225.713" font-family="Times New Roman,serif" font-size="8.00">0...*</text>
<text text-anchor="middle" x="1176.69" y="-248.583" font-family="Times New Roman,serif" font-size="8.00">0...*</text>
</g>
<!-- MeasurementConstruct -->
<g id="ItemTypeMeasurementConstruct0" class="node"><title></title><ellipse fill="#f7b733" stroke="black" cx="59.559" cy="-512" rx="55.0423" ry="18" style="filter: url(#dropshadow)"/>
<text text-anchor="middle" x="59.559" y="-510.1" font-family="Times New Roman,serif" font-size="8.00">MeasurementConstruct</text>
</g>
<!-- MeasurementConstruct&#45;&gt;MeasurementItemProperties -->
<g id="edge30" class="edge"><title>MeasurementConstruct&#45;&gt;MeasurementItemProperties</title>
<path fill="none" stroke="black" d="M100.946,-500.133C136.551,-489.671 191.098,-473.644 245.508,-457.656"/>
<text text-anchor="middle" x="186.118" y="-490.6" font-family="Times New Roman,serif" font-size="8.00">MeasurementReference</text>
<text text-anchor="middle" x="237.508" y="-460.256" font-family="Times New Roman,serif" font-size="8.00">0...*</text>
<text text-anchor="middle" x="108.946" y="-493.733" font-family="Times New Roman,serif" font-size="8.00">0...*</text>
</g>
<!-- MeasurementGroup -->
<g id="ItemTypeMeasurementGroup1" class="node"><title></title><ellipse fill="#f7b733" stroke="black" cx="59.559" cy="-458" rx="47.7948" ry="18" style="filter: url(#dropshadow)"/>
<text text-anchor="middle" x="59.559" y="-456.1" font-family="Times New Roman,serif" font-size="8.00">MeasurementGroup</text>
</g>
<!-- MeasurementGroup&#45;&gt;MeasurementItemProperties -->
<g id="edge31" class="edge"><title>MeasurementGroup&#45;&gt;MeasurementItemProperties</title>
<path fill="none" stroke="black" d="M104.166,-451.593C139.763,-446.364 192.635,-438.596 245.391,-430.845"/>
<text text-anchor="middle" x="186.118" y="-449.6" font-family="Times New Roman,serif" font-size="8.00">MeasurementItemReference</text>
<text text-anchor="middle" x="237.391" y="-424.445" font-family="Times New Roman,serif" font-size="8.00">0...*</text>
<text text-anchor="middle" x="112.166" y="-445.193" font-family="Times New Roman,serif" font-size="8.00">0...*</text>
</g>
<!-- MeasurementScheme -->
<g id="ItemTypeMeasurementScheme2" class="node"><title></title><ellipse fill="#f7b733" stroke="black" cx="59.559" cy="-404" rx="50.4666" ry="18" style="filter: url(#dropshadow)"/>
<text text-anchor="middle" x="59.559" y="-402.1" font-family="Times New Roman,serif" font-size="8.00">MeasurementScheme</text>
</g>
<!-- MeasurementScheme&#45;&gt;MeasurementItemProperties -->
<g id="edge32" class="edge"><title>MeasurementScheme&#45;&gt;MeasurementItemProperties</title>
<path fill="none" stroke="black" d="M110.13,-404C145.522,-404 195.516,-404 245.405,-404"/>
<text text-anchor="middle" x="186.118" y="-406.6" font-family="Times New Roman,serif" font-size="8.00">MeasurementItemReference</text>
<text text-anchor="middle" x="237.405" y="-397.6" font-family="Times New Roman,serif" font-size="8.00">0...*</text>
<text text-anchor="middle" x="118.13" y="-397.6" font-family="Times New Roman,serif" font-size="8.00">0...*</text>
</g>
<!-- Variable -->
<g id="ItemTypeVariable3" class="node"><title></title><ellipse fill="#f7b733" stroke="black" cx="59.559" cy="-350" rx="27" ry="18" style="filter: url(#dropshadow)"/>
<text text-anchor="middle" x="59.559" y="-348.1" font-family="Times New Roman,serif" font-size="8.00">Variable</text>
</g>
<!-- Variable&#45;&gt;MeasurementItemProperties -->
<g id="edge33" class="edge"><title>Variable&#45;&gt;MeasurementItemProperties</title>
<path fill="none" stroke="black" d="M86.1132,-353.754C119.983,-358.73 182.795,-367.958 245.437,-377.161"/>
<text text-anchor="middle" x="186.118" y="-378.6" font-family="Times New Roman,serif" font-size="8.00">MeasurementReference</text>
<text text-anchor="middle" x="237.437" y="-370.761" font-family="Times New Roman,serif" font-size="8.00">0...*</text>
<text text-anchor="middle" x="94.1132" y="-347.354" font-family="Times New Roman,serif" font-size="8.00">0...*</text>
</g>
<!-- DevelopmentObjectType -->
<g id="ReusableTypeDevelopmentObjectType4" class="node"><title></title><ellipse fill="#f7b733" stroke="black" cx="59.559" cy="-296" rx="59.618" ry="18" style="filter: url(#dropshadow)"/>
<text text-anchor="middle" x="59.559" y="-294.1" font-family="Times New Roman,serif" font-size="8.00">DevelopmentObjectType</text>
</g>
<!-- DevelopmentObjectType&#45;&gt;MeasurementItemProperties -->
<g id="edge34" class="edge"><title>DevelopmentObjectType&#45;&gt;MeasurementItemProperties</title>
<path fill="none" stroke="black" d="M103.082,-308.494C138.654,-318.947 192.006,-334.623 245.255,-350.269"/>
<text text-anchor="middle" x="186.118" y="-349.6" font-family="Times New Roman,serif" font-size="8.00">MeasurementReference</text>
<text text-anchor="middle" x="237.255" y="-343.869" font-family="Times New Roman,serif" font-size="8.00">0...*</text>
<text text-anchor="middle" x="95.0817" y="-311.094" font-family="Times New Roman,serif" font-size="8.00">0...*</text>
</g>
</g>
</svg>
