<?xml version="1.0" encoding="UTF-8" standalone="no"?>
<!DOCTYPE svg PUBLIC "-//W3C//DTD SVG 1.1//EN"
 "http://www.w3.org/Graphics/SVG/1.1/DTD/svg11.dtd">
<!-- Generated by graphviz version 2.38.0 (20140413.2041)
 -->
<!-- Title: G Pages: 1 -->
<svg width="517pt" height="746pt"
 viewBox="0.00 0.00 517.30 746.00" xmlns="http://www.w3.org/2000/svg" xmlns:xlink="http://www.w3.org/1999/xlink">
<filter id = "dropshadow" height = "130%" ><feGaussianBlur in= "SourceAlpha" stdDeviation = "3"/><!--stdDeviation is how much to blur--><feOffset dx = "2" dy = "2" result = "offsetblur"/><!--how much to offset--><feMerge><feMergeNode/><!--this contains the offset blurred image--><feMergeNode in= "SourceGraphic"/><!--this contains the element that the filter is applied to --></feMerge></filter>
<g id="graph0" class="graph" transform="scale(1 1) rotate(0) translate(4 742)">
<title>G</title>
<!-- ContentDateOffsetType -->
<g id="ReusableTypeContentDateOffsetType" class="node"><title></title><polygon fill="#f7b733" stroke="black" points="274.303,-351 274.303,-387 509.303,-387 509.303,-351 274.303,-351" style="filter: url(#dropshadow)"/>
<text text-anchor="middle" x="325.303" y="-367.1" font-family="Times New Roman,serif" font-size="8.00">ContentDateOffsetType</text>
<polyline fill="none" stroke="black" points="376.303,-351 376.303,-387 "/>
<text text-anchor="start" x="384.303" y="-371.6" font-family="Times New Roman,serif" font-size="8.00">NumberOfUnits : decimal[0...1] </text>
<text text-anchor="start" x="384.303" y="-362.6" font-family="Times New Roman,serif" font-size="8.00">IsNegativeOffset : boolean[0...1] </text>
</g>
<!-- CategoryDomainType -->
<g id="ReusableTypeCategoryDomainType" class="node"><title></title><ellipse fill="#f7b733" stroke="black" cx="85.6514" cy="-720" rx="53.7736" ry="18" style="filter: url(#dropshadow)"/>
<text text-anchor="middle" x="85.6514" y="-718.1" font-family="Times New Roman,serif" font-size="8.00">CategoryDomainType</text>
</g>
<!-- CategoryDomainType&#45;&gt;ContentDateOffsetType -->
<g id="edge1" class="edge"><title>CategoryDomainType&#45;&gt;ContentDateOffsetType</title>
<path fill="none" stroke="black" d="M131.319,-710.311C169.285,-699.919 222.815,-679.848 256.303,-644 331.041,-563.994 372.589,-434.679 385.968,-387.217"/>
<text text-anchor="middle" x="222.803" y="-691.6" font-family="Times New Roman,serif" font-size="8.00">ContentDateOffset</text>
</g>
<!-- CodeDomainType -->
<g id="ReusableTypeCodeDomainType" class="node"><title></title><ellipse fill="#f7b733" stroke="black" cx="85.6514" cy="-666" rx="45.2568" ry="18" style="filter: url(#dropshadow)"/>
<text text-anchor="middle" x="85.6514" y="-664.1" font-family="Times New Roman,serif" font-size="8.00">CodeDomainType</text>
</g>
<!-- CodeDomainType&#45;&gt;ContentDateOffsetType -->
<g id="edge2" class="edge"><title>CodeDomainType&#45;&gt;ContentDateOffsetType</title>
<path fill="none" stroke="black" d="M125.114,-656.843C162.711,-646.158 219.514,-625.168 256.303,-589 319.989,-526.388 366.097,-427.756 383.347,-387.269"/>
<text text-anchor="middle" x="222.803" y="-633.6" font-family="Times New Roman,serif" font-size="8.00">ContentDateOffset</text>
</g>
<!-- DateTimeDomainType -->
<g id="ReusableTypeDateTimeDomainType" class="node"><title></title><ellipse fill="#f7b733" stroke="black" cx="85.6514" cy="-612" rx="55.6769" ry="18" style="filter: url(#dropshadow)"/>
<text text-anchor="middle" x="85.6514" y="-610.1" font-family="Times New Roman,serif" font-size="8.00">DateTimeDomainType</text>
</g>
<!-- DateTimeDomainType&#45;&gt;ContentDateOffsetType -->
<g id="edge3" class="edge"><title>DateTimeDomainType&#45;&gt;ContentDateOffsetType</title>
<path fill="none" stroke="black" d="M129.138,-600.558C142.849,-596.311 157.95,-591.037 171.303,-585 211.447,-566.851 222.998,-562.839 256.303,-534 309.387,-488.035 357.762,-419.41 379.178,-387.081"/>
<text text-anchor="middle" x="222.803" y="-578.6" font-family="Times New Roman,serif" font-size="8.00">ContentDateOffset</text>
</g>
<!-- DistributionDomainType -->
<g id="ReusableTypeDistributionDomainType" class="node"><title></title><ellipse fill="#f7b733" stroke="black" cx="85.6514" cy="-558" rx="58.9835" ry="18" style="filter: url(#dropshadow)"/>
<text text-anchor="middle" x="85.6514" y="-556.1" font-family="Times New Roman,serif" font-size="8.00">DistributionDomainType</text>
</g>
<!-- DistributionDomainType&#45;&gt;ContentDateOffsetType -->
<g id="edge4" class="edge"><title>DistributionDomainType&#45;&gt;ContentDateOffsetType</title>
<path fill="none" stroke="black" d="M130.379,-546.013C143.737,-541.832 158.321,-536.733 171.303,-531 254.705,-494.169 336.791,-421.128 372.382,-387.159"/>
<text text-anchor="middle" x="222.803" y="-523.6" font-family="Times New Roman,serif" font-size="8.00">ContentDateOffset</text>
</g>
<!-- DomainReferenceType -->
<g id="ReusableTypeDomainReferenceType" class="node"><title></title><ellipse fill="#f7b733" stroke="black" cx="85.6514" cy="-504" rx="55.6769" ry="18" style="filter: url(#dropshadow)"/>
<text text-anchor="middle" x="85.6514" y="-502.1" font-family="Times New Roman,serif" font-size="8.00">DomainReferenceType</text>
</g>
<!-- DomainReferenceType&#45;&gt;ContentDateOffsetType -->
<g id="edge5" class="edge"><title>DomainReferenceType&#45;&gt;ContentDateOffsetType</title>
<path fill="none" stroke="black" d="M127.991,-492.163C141.909,-487.822 157.424,-482.592 171.303,-477 239.454,-449.542 315.736,-409.874 358.036,-387.038"/>
<text text-anchor="middle" x="222.803" y="-471.6" font-family="Times New Roman,serif" font-size="8.00">ContentDateOffset</text>
</g>
<!-- GeographicLocationCodeDomainType -->
<g id="ReusableTypeGeographicLocationCodeDomainType" class="node"><title></title><ellipse fill="#f7b733" stroke="black" cx="85.6514" cy="-450" rx="85.8032" ry="18" style="filter: url(#dropshadow)"/>
<text text-anchor="middle" x="85.6514" y="-448.1" font-family="Times New Roman,serif" font-size="8.00">GeographicLocationCodeDomainType</text>
</g>
<!-- GeographicLocationCodeDomainType&#45;&gt;ContentDateOffsetType -->
<g id="edge6" class="edge"><title>GeographicLocationCodeDomainType&#45;&gt;ContentDateOffsetType</title>
<path fill="none" stroke="black" d="M139.631,-435.891C190.52,-422.338 267.631,-401.802 322.983,-387.061"/>
<text text-anchor="middle" x="222.803" y="-423.6" font-family="Times New Roman,serif" font-size="8.00">ContentDateOffset</text>
</g>
<!-- GeographicStructureCodeDomainType -->
<g id="ReusableTypeGeographicStructureCodeDomainType" class="node"><title></title><ellipse fill="#f7b733" stroke="black" cx="85.6514" cy="-396" rx="85.1685" ry="18" style="filter: url(#dropshadow)"/>
<text text-anchor="middle" x="85.6514" y="-394.1" font-family="Times New Roman,serif" font-size="8.00">GeographicStructureCodeDomainType</text>
</g>
<!-- GeographicStructureCodeDomainType&#45;&gt;ContentDateOffsetType -->
<g id="edge7" class="edge"><title>GeographicStructureCodeDomainType&#45;&gt;ContentDateOffsetType</title>
<path fill="none" stroke="black" d="M164.583,-389.082C197.848,-386.129 237.38,-382.62 274.02,-379.367"/>
<text text-anchor="middle" x="222.803" y="-388.6" font-family="Times New Roman,serif" font-size="8.00">ContentDateOffset</text>
</g>
<!-- LocationDomainType -->
<g id="ReusableTypeLocationDomainType" class="node"><title></title><ellipse fill="#f7b733" stroke="black" cx="85.6514" cy="-342" rx="53.7736" ry="18" style="filter: url(#dropshadow)"/>
<text text-anchor="middle" x="85.6514" y="-340.1" font-family="Times New Roman,serif" font-size="8.00">LocationDomainType</text>
</g>
<!-- LocationDomainType&#45;&gt;ContentDateOffsetType -->
<g id="edge8" class="edge"><title>LocationDomainType&#45;&gt;ContentDateOffsetType</title>
<path fill="none" stroke="black" d="M137.903,-346.55C175.148,-349.856 227.079,-354.466 274.199,-358.649"/>
<text text-anchor="middle" x="222.803" y="-358.6" font-family="Times New Roman,serif" font-size="8.00">ContentDateOffset</text>
</g>
<!-- NominalDomainType -->
<g id="ReusableTypeNominalDomainType0" class="node"><title></title><ellipse fill="#f7b733" stroke="black" cx="85.6514" cy="-288" rx="52.5056" ry="18" style="filter: url(#dropshadow)"/>
<text text-anchor="middle" x="85.6514" y="-286.1" font-family="Times New Roman,serif" font-size="8.00">NominalDomainType</text>
</g>
<!-- NominalDomainType&#45;&gt;ContentDateOffsetType -->
<g id="edge9" class="edge"><title>NominalDomainType&#45;&gt;ContentDateOffsetType</title>
<path fill="none" stroke="black" d="M127.671,-298.924C177.775,-312.267 263.243,-335.029 323.14,-350.98"/>
<text text-anchor="middle" x="222.803" y="-332.6" font-family="Times New Roman,serif" font-size="8.00">ContentDateOffset</text>
</g>
<!-- NumericDomainType -->
<g id="ReusableTypeNumericDomainType1" class="node"><title></title><ellipse fill="#f7b733" stroke="black" cx="85.6514" cy="-234" rx="52.3706" ry="18" style="filter: url(#dropshadow)"/>
<text text-anchor="middle" x="85.6514" y="-232.1" font-family="Times New Roman,serif" font-size="8.00">NumericDomainType</text>
</g>
<!-- NumericDomainType&#45;&gt;ContentDateOffsetType -->
<g id="edge10" class="edge"><title>NumericDomainType&#45;&gt;ContentDateOffsetType</title>
<path fill="none" stroke="black" d="M126.277,-245.305C140.627,-249.747 156.852,-255.178 171.303,-261 239.454,-288.458 315.736,-328.126 358.036,-350.962"/>
<text text-anchor="middle" x="222.803" y="-298.6" font-family="Times New Roman,serif" font-size="8.00">ContentDateOffset</text>
</g>
<!-- RankingDomainType -->
<g id="ReusableTypeRankingDomainType2" class="node"><title></title><ellipse fill="#f7b733" stroke="black" cx="85.6514" cy="-180" rx="52.3706" ry="18" style="filter: url(#dropshadow)"/>
<text text-anchor="middle" x="85.6514" y="-178.1" font-family="Times New Roman,serif" font-size="8.00">RankingDomainType</text>
</g>
<!-- RankingDomainType&#45;&gt;ContentDateOffsetType -->
<g id="edge11" class="edge"><title>RankingDomainType&#45;&gt;ContentDateOffsetType</title>
<path fill="none" stroke="black" d="M127.321,-191.118C141.475,-195.471 157.306,-200.893 171.303,-207 211.068,-224.35 220.707,-230.197 256.303,-255 300.002,-285.449 346.433,-327.172 371.695,-350.776"/>
<text text-anchor="middle" x="222.803" y="-257.6" font-family="Times New Roman,serif" font-size="8.00">ContentDateOffset</text>
</g>
<!-- ScaleDomainType -->
<g id="ReusableTypeScaleDomainType3" class="node"><title></title><ellipse fill="#f7b733" stroke="black" cx="85.6514" cy="-126" rx="45.2568" ry="18" style="filter: url(#dropshadow)"/>
<text text-anchor="middle" x="85.6514" y="-124.1" font-family="Times New Roman,serif" font-size="8.00">ScaleDomainType</text>
</g>
<!-- ScaleDomainType&#45;&gt;ContentDateOffsetType -->
<g id="edge12" class="edge"><title>ScaleDomainType&#45;&gt;ContentDateOffsetType</title>
<path fill="none" stroke="black" d="M123.779,-135.882C160.609,-147.131 217.071,-168.425 256.303,-202 310.183,-248.111 358.353,-318.071 379.475,-350.853"/>
<text text-anchor="middle" x="222.803" y="-204.6" font-family="Times New Roman,serif" font-size="8.00">ContentDateOffset</text>
</g>
<!-- TextDomainType -->
<g id="ReusableTypeTextDomainType4" class="node"><title></title><ellipse fill="#f7b733" stroke="black" cx="85.6514" cy="-72" rx="45.2568" ry="18" style="filter: url(#dropshadow)"/>
<text text-anchor="middle" x="85.6514" y="-70.1" font-family="Times New Roman,serif" font-size="8.00">TextDomainType</text>
</g>
<!-- TextDomainType&#45;&gt;ContentDateOffsetType -->
<g id="edge13" class="edge"><title>TextDomainType&#45;&gt;ContentDateOffsetType</title>
<path fill="none" stroke="black" d="M125.097,-80.925C162.68,-91.3842 219.473,-112.036 256.303,-148 320.573,-210.76 366.513,-310.345 383.537,-350.911"/>
<text text-anchor="middle" x="222.803" y="-150.6" font-family="Times New Roman,serif" font-size="8.00">ContentDateOffset</text>
</g>
<!-- VariableRepresentationType -->
<g id="ReusableTypeVariableRepresentationType5" class="node"><title></title><ellipse fill="#f7b733" stroke="black" cx="85.6514" cy="-18" rx="65.5975" ry="18" style="filter: url(#dropshadow)"/>
<text text-anchor="middle" x="85.6514" y="-16.1" font-family="Times New Roman,serif" font-size="8.00">VariableRepresentationType</text>
</g>
<!-- VariableRepresentationType&#45;&gt;ContentDateOffsetType -->
<g id="edge14" class="edge"><title>VariableRepresentationType&#45;&gt;ContentDateOffsetType</title>
<path fill="none" stroke="black" d="M137.796,-29.2255C175.16,-39.8574 224.632,-59.3484 256.303,-93 331.559,-172.961 372.791,-302.951 386.027,-350.678"/>
<text text-anchor="middle" x="222.803" y="-95.6" font-family="Times New Roman,serif" font-size="8.00">ContentDateOffset</text>
</g>
</g>
</svg>
